<!-- Generated by IcoMoon.io -->
<svg version="1.1" xmlns="http://www.w3.org/2000/svg" width="43" height="32" viewBox="0 0 43 32">
<title>AFN</title>
<path fill="#000" d="M0 0h42.667v32h-42.667z"></path>
<path fill="#090" d="M28.444 0h14.223v32h-14.223z"></path>
<path fill="#bf0000" d="M14.222 0h14.223v32h-14.223z"></path>
<path fill="#fff" d="M30.231 16.574c-0.007 0.036 0.091 0.090 0.114 0.062 0.105-0.126 0.243-0.373 0.271-0.523 0.008-0.044-0.132-0.093-0.162-0.057-0.098 0.118-0.194 0.361-0.223 0.518zM17.085 24.24c-0.105 0.37-1.649-0.349-1.821-0.721 0.884 0.468 1.842 0.37 1.821 0.721zM12.203 16.686c0.077 0.092 0.207 0.030 0.089-0.094-0.097-0.101-0.065-0.132-0.124-0.255-0.059-0.137-0.055-0.212-0.126-0.31-0.063-0.093-0.156 0.002-0.093 0.080 0.079 0.092 0.057 0.16 0.105 0.25 0.089 0.153 0.068 0.233 0.149 0.329zM14.28 19.193c0.248 0.122 0.437 0.427 0.449 0.676 0.021 0.286 0.062 0.527 0.191 0.731-0.204-0.057-0.302-0.383-0.331-0.695-0.029-0.323-0.204-0.463-0.309-0.712zM14.798 19.791c0.172 0.317 0.412 0.438 0.425 0.674 0.021 0.271 0.041 0.285 0.115 0.551-0.202-0.054-0.253-0.072-0.308-0.477-0.034-0.285-0.262-0.486-0.232-0.748z"></path>
<path fill="#fff" d="M18.813 21.497c0.263 0.215 0.434 0.461 0.513 0.779 0.083 0.296 0.2 0.532 0.371 0.798-0.279-0.19-0.454-0.449-0.542-0.76-0.077-0.306-0.168-0.535-0.342-0.817zM23.736 21.497c-0.269 0.217-0.443 0.464-0.525 0.784-0.085 0.298-0.204 0.535-0.379 0.803 0.285-0.191 0.464-0.451 0.554-0.765 0.079-0.308 0.172-0.538 0.35-0.822zM23.405 21.497c-0.288 0.226-0.56 0.483-0.641 0.803-0.085 0.298-0.136 0.526-0.33 0.822 0.304-0.191 0.425-0.48 0.515-0.794 0.079-0.308 0.259-0.538 0.457-0.832zM20.148 22.727c0.096 0.182 0.207 0.459 0.409 0.409 0.003-0.139-0.217-0.236-0.408-0.409zM20.448 22.789c0.391 0.16 0.728 0.12 0.77 0.366-0.366 0.040-0.5-0.111-0.77-0.366zM22.363 22.751c-0.098 0.172-0.21 0.433-0.414 0.385-0.003-0.132 0.22-0.223 0.414-0.385zM22.089 22.803c-0.396 0.152-0.738 0.114-0.781 0.347 0.372 0.038 0.508-0.105 0.781-0.347z"></path>
<path fill="#fff" d="M22.451 22.247c0.008-0.056-0.030-0.104-0.076-0.119-0.089-0.033-0.177-0.060-0.265-0.085-0.1-0.024-0.156 0.048-0.156 0.095-0 0.078-0.004 0.145 0 0.204 0.006 0.074 0.020 0.079 0.066 0.090 0.075 0.013 0.171 0.026 0.246 0.076 0.060 0.037 0.117 0.008 0.147-0.057 0.019-0.049 0.030-0.146 0.038-0.204zM21.374 22.247c-0.007-0.056 0.022-0.109 0.063-0.123 0.079-0.033 0.158-0.041 0.241-0.038 0.092-0.001 0.116 0.020 0.116 0.067 0 0.078 0.004 0.154 0 0.214-0.005 0.074-0.003 0.079-0.045 0.090-0.067 0.013-0.181 0.016-0.248 0.067-0.053 0.037-0.114 0.008-0.117-0.062 0.001-0.052-0.003-0.155-0.010-0.214zM20.068 22.233c-0.008-0.056 0.030-0.104 0.076-0.119 0.089-0.033 0.178-0.060 0.266-0.085 0.1-0.024 0.157 0.048 0.157 0.095 0 0.078 0.004 0.145 0 0.204-0.005 0.074-0.020 0.079-0.067 0.090-0.075 0.013-0.172 0.026-0.247 0.076-0.060 0.037-0.117 0.008-0.147-0.057-0.019-0.049-0.030-0.146-0.038-0.205zM21.149 22.233c0.007-0.056-0.023-0.109-0.063-0.123-0.080-0.033-0.159-0.042-0.242-0.038-0.093-0.002-0.116 0.019-0.116 0.066-0 0.078-0.004 0.154 0 0.214 0.005 0.074 0.003 0.079 0.045 0.090 0.067 0.012 0.182 0.016 0.249 0.067 0.053 0.037 0.114 0.008 0.117-0.062-0.001-0.052 0.003-0.155 0.010-0.214zM16.926 14.907c-0.126-0.202-0.276 0.28-0.793 0.639-0.241 0.164-0.408 0.6-0.41 0.887-0.008 0.197 0.022 0.394-0 0.584-0.014 0.121-0.14 0.389-0.054 0.457 0.227 0.169 0.522 0.553 0.659 0.685 0.118 0.104 0.221-0.534 0.309-0.82 0.095-0.306 0.052-0.672 0.316-0.954 0.187-0.191 0.658-0.379 0.605-0.464l-0.632-1.015z"></path>
<path fill="#fff" d="M16.926 14.907c-0.126-0.202-0.276 0.28-0.793 0.639-0.241 0.164-0.408 0.6-0.41 0.887-0.008 0.197 0.022 0.394-0 0.584-0.014 0.121-0.14 0.389-0.054 0.457 0.228 0.169 0.522 0.553 0.659 0.685 0.118 0.104 0.221-0.534 0.309-0.82 0.095-0.306 0.052-0.672 0.316-0.954 0.187-0.191 0.658-0.379 0.605-0.464l-0.632-1.015z"></path>
<path fill="#fff" d="M16.752 14.699l0.094-0.060 1.808 3.044-0.094 0.060-1.808-3.044z"></path>
<path fill="#fff" d="M16.752 14.699l0.094-0.060 1.808 3.044-0.094 0.060-1.808-3.044z"></path>
<path fill="#fff" d="M25.643 14.968c0.126-0.209 0.276 0.29 0.793 0.661 0.24 0.169 0.408 0.621 0.41 0.918 0.008 0.204-0.022 0.408 0 0.605 0.014 0.125 0.14 0.402 0.054 0.473-0.227 0.175-0.522 0.572-0.658 0.709-0.118 0.107-0.22-0.553-0.309-0.849-0.095-0.317-0.053-0.695-0.316-0.988-0.187-0.198-0.657-0.392-0.605-0.48l0.631-1.050z"></path>
<path fill="#fff" d="M25.643 14.968c0.126-0.209 0.276 0.29 0.793 0.661 0.241 0.169 0.408 0.621 0.41 0.918 0.008 0.204-0.022 0.408 0 0.605 0.014 0.125 0.14 0.402 0.054 0.473-0.227 0.175-0.522 0.572-0.658 0.709-0.118 0.107-0.22-0.553-0.309-0.849-0.095-0.317-0.053-0.695-0.316-0.988-0.187-0.197-0.657-0.392-0.604-0.48l0.631-1.050z"></path>
<path fill="#fff" d="M25.817 14.753l-0.094-0.063-1.807 3.151 0.094 0.063 1.807-3.151z"></path>
<path fill="#fff" d="M25.817 14.753l-0.094-0.063-1.807 3.151 0.094 0.063 1.807-3.151z"></path>
<path fill="#fff" d="M25.622 14.629c0 0.119 0.093 0.216 0.208 0.216s0.208-0.097 0.208-0.216c0-0.119-0.093-0.216-0.208-0.216s-0.208 0.097-0.208 0.216z"></path>
<path fill="#fff" d="M18.491 12.133h0.733v0.168h-0.733zM18.491 12.45h0.733v1.403h-0.733zM18.447 11.941l0.813 0.005c0.032-0.276-0.243-0.573-0.404-0.57-0.159 0.008-0.415 0.301-0.409 0.566zM23.303 12.136h0.733v0.168h-0.733zM23.303 12.455h0.733v1.404h-0.733zM23.259 11.945l0.813 0.005c0.032-0.276-0.243-0.573-0.404-0.57-0.159 0.008-0.415 0.301-0.409 0.565z"></path>
<path fill="#fff" d="M18.491 12.133h0.733v0.168h-0.733zM18.491 12.45h0.733v1.403h-0.733zM18.447 11.94l0.813 0.005c0.032-0.276-0.243-0.573-0.404-0.57-0.159 0.008-0.415 0.301-0.409 0.566zM23.303 12.136h0.733v0.168h-0.733zM23.303 12.455h0.733v1.404h-0.733zM23.259 11.945l0.813 0.005c0.032-0.276-0.243-0.573-0.404-0.57-0.159 0.008-0.415 0.301-0.409 0.565z"></path>
<path fill="#fff" d="M23.303 12.455h0.733v1.404h-0.733zM23.303 12.136h0.733v0.168h-0.733zM23.26 11.945l0.812 0.005c0.032-0.276-0.243-0.573-0.404-0.57-0.159 0.008-0.415 0.301-0.409 0.565zM18.491 12.45h0.733v1.403h-0.733zM18.491 12.133h0.733v0.168h-0.733zM18.447 11.941l0.813 0.005c0.032-0.276-0.243-0.573-0.404-0.57-0.159 0.008-0.415 0.301-0.409 0.566z"></path>
<path fill="#fff" d="M17.881 14.092l0.466 0.513 5.797 0.010 0.475-0.513-1.483-0.019-0.722-0.504-2.329-0.009-0.675 0.523h-1.53z"></path>
<path fill="#fff" d="M17.881 14.092l0.466 0.513 5.797 0.010 0.475-0.513-1.483-0.019-0.722-0.504-2.329-0.009-0.675 0.523h-1.53z"></path>
<path fill="#fff" d="M20.255 13.3l2.002-0.002c0.271-0.143 0.356-0.601 0.354-0.857-0.004-0.756-0.533-1.119-1.064-1.139-0.080-0.004-0.172-0.066-0.193-0.138-0.052-0.164-0.039-0.582-0.096-0.586-0.041 0.004-0.036 0.419-0.081 0.573-0.025 0.077-0.111 0.152-0.197 0.157-0.661 0.033-1.087 0.515-1.070 1.134 0.011 0.409 0.059 0.653 0.345 0.859z"></path>
<path fill="#fff" d="M16.959 20.64h8.601l-0.77-0.627h-7.062l-0.77 0.627z"></path>
<path fill="#fff" d="M16.959 20.64h8.601l-0.77-0.627h-7.062l-0.77 0.627z"></path>
<path fill="#fff" d="M18.452 14.996h0.817v1.131h-0.818zM18.499 16.773h0.789v0.238h-0.789zM18.481 17.191h0.808v0.884h-0.808zM18.424 18.255h0.884v0.494h-0.884zM18.532 16.561h0.712l0.141-0.235h-0.981l0.128 0.235zM19.493 15.694l0.007-0.618h0.491c-0.193 0.159-0.372 0.352-0.497 0.618zM24.049 14.996h-0.804v1.131h0.804zM24.036 16.773h-0.775v0.238h0.775zM24.050 17.191h-0.79v0.884h0.79zM24.101 18.255h-0.869v0.494h0.869z"></path>
<path fill="#fff" d="M23.972 16.561h-0.7l-0.139-0.235h0.965l-0.126 0.235z"></path>
<path fill="#fff" d="M23.027 15.694l-0.007-0.618h-0.482c0.189 0.159 0.366 0.352 0.489 0.618z"></path>
<path fill="#fff" d="M18.452 14.996h0.817v1.131h-0.818zM18.499 16.773h0.789v0.238h-0.789zM18.481 17.191h0.808v0.884h-0.808zM18.424 18.255h0.884v0.494h-0.884zM18.532 16.561h0.712l0.141-0.235h-0.981l0.128 0.235zM19.493 15.694l0.007-0.618h0.491c-0.193 0.159-0.372 0.352-0.497 0.618zM24.049 14.996h-0.803v1.131h0.804zM24.036 16.773h-0.775v0.238h0.775zM24.050 17.191h-0.79v0.884h0.79zM24.101 18.255h-0.869v0.494h0.869zM23.971 16.561h-0.7l-0.139-0.235h0.965l-0.126 0.235zM23.026 15.694l-0.007-0.618h-0.482c0.189 0.159 0.366 0.352 0.489 0.618z"></path>
<path fill="#000" d="M18.952 17.595h0.204v0.119h-0.204zM18.595 17.595h0.2v0.119h-0.2z"></path>
<path fill="#000" d="M18.795 17.305h0.157v0.295h-0.157zM18.795 17.709h0.157v0.314h-0.157z"></path>
<path fill="#000" d="M23.742 17.59h0.204v0.119h-0.204zM23.385 17.59h0.2v0.119h-0.2z"></path>
<path fill="#000" d="M23.585 17.3h0.157v0.295h-0.157zM23.585 17.704h0.157v0.314h-0.157z"></path>
<path fill="#fff" d="M22.843 17.333h0.1v0.718h-0.1z"></path>
<path fill="#fff" d="M20.904 18.284l0.157 0.47h0.356l-0.285-0.471-0.228 0zM20.705 18.755l0.090 0.466 0.418 0.005-0.152-0.471-0.356 0zM21.413 18.759l0.29 0.461h0.594l-0.466-0.466-0.418 0.005zM17.906 19.814c0.315-0.293 0.516-0.543 0.518-0.903h0.77c0.002 0.201 0.074 0.322 0.185 0.314l0.779-0.005-0.005-0.461h-0.566l-0-2.514c-0.021-0.889 1.080-1.407 1.53-1.402l-2.675-0.005v-0.081h5.627l0.005 0.081-2.713 0.005c0.805 0.002 1.581 0.764 1.587 1.407v0.713h-0.105l-0.005-0.703c0-0.703-0.886-1.361-1.597-1.34-0.615 0.018-1.568 0.604-1.559 1.335v0.219l1.459 0.009-0.014 0.252 0.229 0.146 0.457 0.146-0.007 0.378 0.327 0.096 0.003 0.377 0.393 0.168v0.391l0.249 0.153-0.011 0.397 0.337 0.238h-0.799l0.499 0.556h-0.736l-0.366-0.556h-0.485l0.219 0.551-0.518-0.005-0.124-0.546h-0.632l0.005 0.589-2.262 0zM20.163 18.289v0.466h0.542l-0.11-0.466h-0.432z"></path>
<path fill="#fff" d="M20.904 18.284l0.157 0.47h0.356l-0.285-0.471-0.228 0zM20.705 18.755l0.090 0.466 0.418 0.005-0.152-0.47-0.356 0zM21.413 18.759l0.29 0.461h0.594l-0.466-0.466-0.418 0.005zM17.906 19.814c0.315-0.293 0.516-0.543 0.518-0.903h0.77c0.002 0.201 0.074 0.321 0.185 0.314l0.779-0.005-0.005-0.461h-0.566l-0-2.514c-0.021-0.889 1.080-1.407 1.53-1.402l-2.675-0.005v-0.081h5.626l0.005 0.081-2.713 0.005c0.805 0.002 1.581 0.764 1.587 1.407v0.713h-0.105l-0.005-0.703c0-0.703-0.886-1.361-1.597-1.34-0.615 0.018-1.568 0.604-1.559 1.335v0.219l1.459 0.009-0.014 0.252 0.229 0.146 0.457 0.146-0.007 0.378 0.327 0.096 0.003 0.377 0.393 0.168v0.391l0.249 0.153-0.011 0.397 0.338 0.238h-0.799l0.499 0.556h-0.736l-0.366-0.556h-0.485l0.219 0.551-0.518-0.005-0.124-0.546h-0.632l0.005 0.589-2.262 0zM20.163 18.289v0.466h0.542l-0.109-0.466h-0.432z"></path>
<path fill="#fff" d="M22.843 17.333h0.1v0.718h-0.1z"></path>
<path fill="#fff" d="M15.568 10.066c0.036 0.567-0.14 0.878-0.44 0.831-0.083-0.314 0.105-0.525 0.44-0.831zM14.908 11.321c-0.267-0.136-0.074-1.172 0.028-1.607 0.076 0.56 0.203 1.355-0.028 1.607z"></path>
<path fill="#fff" d="M15.004 11.371c0.449 0.156 0.804-0.327 0.924-0.887-0.37 0.511-0.973 0.512-0.924 0.887zM14.663 11.893c-0.351-0.093-0.139-1.192-0.076-1.632 0.077 0.454 0.319 1.482 0.076 1.632zM14.783 11.859c0.020-0.379 0.398-0.27 0.659-0.472-0.043 0.19-0.203 0.525-0.659 0.472zM14.354 12.367c-0.348-0.094-0.139-1.277-0.158-1.765 0.102 0.421 0.425 1.65 0.158 1.765zM14.517 12.316c0.285 0.092 0.662-0.092 0.692-0.432-0.245 0.166-0.637 0.039-0.692 0.432z"></path>
<path fill="#fff" d="M15.568 10.066c0.036 0.567-0.14 0.878-0.44 0.831-0.083-0.314 0.105-0.525 0.44-0.831zM14.908 11.321c-0.267-0.136-0.074-1.172 0.028-1.607 0.076 0.56 0.203 1.355-0.028 1.607z"></path>
<path fill="#fff" d="M15.004 11.371c0.449 0.156 0.804-0.327 0.924-0.887-0.37 0.511-0.973 0.512-0.924 0.887zM14.663 11.893c-0.351-0.093-0.139-1.192-0.076-1.632 0.077 0.454 0.319 1.482 0.076 1.632zM14.783 11.859c0.020-0.379 0.398-0.27 0.659-0.472-0.043 0.19-0.203 0.525-0.659 0.472zM14.354 12.367c-0.348-0.094-0.139-1.277-0.158-1.765 0.102 0.421 0.425 1.65 0.158 1.765zM14.517 12.316c0.285 0.093 0.662-0.092 0.692-0.432-0.245 0.166-0.637 0.039-0.692 0.432z"></path>
<path fill="#fff" d="M16.82 10.59c-0.059 0.492-0.26 0.778-0.56 0.73-0.083-0.314 0.161-0.515 0.56-0.73zM16.025 11.853c0.499 0.071 0.678-0.312 1.014-0.801-0.471 0.341-1.033 0.411-1.014 0.801z"></path>
<path fill="#fff" d="M15.884 11.796c-0.272-0.326-0.009-0.736 0.199-1.085-0.045 0.519 0.132 0.808-0.199 1.085zM15.764 12.335c-0.031-0.319 0.513-0.39 0.759-0.567-0.083 0.184-0.208 0.681-0.759 0.567z"></path>
<path fill="#fff" d="M16.82 10.59c-0.059 0.492-0.26 0.778-0.56 0.73-0.083-0.314 0.161-0.515 0.56-0.73zM16.025 11.853c0.499 0.071 0.678-0.312 1.014-0.801-0.471 0.341-1.033 0.411-1.014 0.801z"></path>
<path fill="#fff" d="M15.884 11.796c-0.272-0.326-0.009-0.736 0.199-1.085-0.045 0.519 0.132 0.808-0.199 1.085zM15.764 12.335c-0.031-0.319 0.513-0.39 0.759-0.567-0.083 0.184-0.208 0.681-0.759 0.567z"></path>
<path fill="#fff" d="M26.629 11.788c0.305-0.21 0.071-0.669-0.213-1.071 0.106 0.438-0.128 0.839 0.213 1.071zM26.763 12.335c-0.492 0.038-0.579-0.208-0.773-0.525 0.336 0.217 0.785 0.080 0.773 0.525zM26.885 12.349c-0.234-0.192 0.057-0.603-0.043-1.014 0.184 0.26 0.468 0.882 0.043 1.014z"></path>
<path fill="#fff" d="M26.629 11.788c0.305-0.21 0.071-0.669-0.213-1.071 0.106 0.437-0.128 0.839 0.213 1.071zM26.763 12.335c-0.492 0.038-0.579-0.208-0.773-0.525 0.336 0.218 0.785 0.080 0.773 0.525zM26.885 12.349c-0.234-0.192 0.057-0.603-0.043-1.014 0.184 0.26 0.468 0.882 0.043 1.014z"></path>
<path fill="#fff" d="M27.479 11.385c0.036-0.354-0.522-0.433-0.905-0.901 0.099 0.376 0.382 0.924 0.905 0.901zM27.86 11.937c-0.301-0.273 0.057-1.054 0.071-1.661 0.047 0.559 0.292 1.561-0.071 1.66zM27.689 11.858c-0.439 0.028-0.555-0.294-0.607-0.477 0.236 0.17 0.609 0.090 0.607 0.477zM28.131 12.343c0.338-0.014 0.213-1.296 0.166-1.701-0.034 0.431-0.386 1.545-0.166 1.701zM27.982 12.32c-0.292 0.045-0.588-0.125-0.668-0.415 0.252 0.11 0.669 0.023 0.668 0.415z"></path>
<path fill="#fff" d="M28.056 14.857c0.045-0.437-0.29-1.23-0.052-1.654 0.032-0.058-0.071-0.213-0.138-0.119-0.104 0.149-0.212 0.575-0.256 0.418-0.047-0.171-0.055-0.474-0.209-0.532-0.098-0.034-0.238-0.057-0.2 0.095 0.038 0.146 0.122 0.348 0.029 0.361-0.054 0.008-0.211-0.199-0.342-0.295-0.106-0.085-0.264 0.048-0.109 0.176 0.504 0.411 0.993 0.596 1.278 1.549z"></path>
<path fill="#fff" d="M28.056 14.858c0.045-0.437-0.29-1.23-0.052-1.654 0.032-0.058-0.071-0.212-0.138-0.119-0.104 0.149-0.212 0.575-0.257 0.418-0.047-0.171-0.055-0.474-0.209-0.532-0.098-0.034-0.237-0.057-0.2 0.095 0.038 0.146 0.122 0.348 0.029 0.361-0.054 0.008-0.211-0.199-0.342-0.295-0.106-0.085-0.264 0.048-0.109 0.176 0.504 0.411 0.993 0.596 1.278 1.549z"></path>
<path fill="#fff" d="M27.479 11.385c0.036-0.354-0.522-0.433-0.905-0.901 0.099 0.376 0.382 0.924 0.905 0.901zM27.86 11.937c-0.301-0.272 0.057-1.054 0.071-1.66 0.047 0.559 0.292 1.561-0.071 1.66zM27.689 11.858c-0.439 0.028-0.555-0.294-0.607-0.477 0.236 0.17 0.609 0.090 0.607 0.477zM28.131 12.343c0.338-0.014 0.213-1.296 0.166-1.701-0.034 0.431-0.386 1.545-0.166 1.701zM27.982 12.32c-0.292 0.045-0.588-0.125-0.668-0.415 0.252 0.11 0.669 0.023 0.668 0.415z"></path>
<path fill="#fff" d="M29.322 14.567c0.123-0.129 0.088-0.179-0.094-0.181-0.145-0.009-0.431 0.089-0.539 0.009-0.1-0.073-0.060-0.381-0.104-0.523-0.019-0.079-0.074-0.204-0.199-0.009-0.367 0.591-0.826 1.301-1.022 1.996-0.107 0.39-0.054 1.017 0.36 1.35l0.293-0.856c0.139-0.407 0.89-1.382 1.305-1.787z"></path>
<path fill="#fff" d="M29.322 14.567c0.123-0.129 0.087-0.179-0.095-0.181-0.144-0.009-0.431 0.089-0.539 0.010-0.099-0.073-0.060-0.381-0.104-0.523-0.019-0.079-0.075-0.204-0.199-0.010-0.367 0.591-0.825 1.301-1.021 1.996-0.107 0.39-0.054 1.017 0.359 1.349l0.293-0.855c0.139-0.407 0.889-1.382 1.305-1.787z"></path>
<path fill="#fff" d="M29.733 13.504c-0.165 0.532-0.265 0.968-0.026 1.019 0.255-0.044 0.144-0.558 0.026-1.019zM29.716 14.997c0.272 0.144 0.565-0.549 0.504-1.095-0.137 0.468-0.599 0.757-0.504 1.095zM29.615 14.982c0.042-0.378-0.113-0.368-0.317-0.73 0.022 0.408 0.123 0.751 0.317 0.73z"></path>
<path fill="#fff" d="M29.601 15.523c0.127-0.293-0.133-0.257-0.305-0.783-0.057 0.544 0.026 0.792 0.305 0.783zM29.693 16.093c0.412 0.071 0.625-0.839 0.829-1.275-0.405 0.571-0.891 0.889-0.829 1.275z"></path>
<path fill="#fff" d="M29.597 16.062c0.12-0.335-0.22-0.317-0.399-0.818 0.029 0.636 0.111 0.865 0.399 0.818zM29.716 16.64c0.261 0.019 0.729-0.709 0.739-1.158-0.223 0.495-0.921 0.823-0.739 1.158z"></path>
<path fill="#fff" d="M29.522 16.556c0.108-0.35-0.194-0.352-0.329-0.744-0.009 0.591 0.083 0.792 0.329 0.744zM29.532 17.187c0.459 0.080 0.577-0.525 0.848-1.142-0.267 0.49-0.872 0.766-0.848 1.142z"></path>
<path fill="#fff" d="M29.733 13.504c-0.165 0.532-0.265 0.968-0.026 1.019 0.255-0.044 0.144-0.558 0.026-1.019zM29.716 14.997c0.272 0.144 0.565-0.549 0.504-1.095-0.137 0.468-0.599 0.757-0.504 1.095zM29.615 14.982c0.042-0.378-0.113-0.368-0.317-0.73 0.022 0.408 0.123 0.751 0.317 0.73z"></path>
<path fill="#fff" d="M29.601 15.523c0.127-0.293-0.132-0.257-0.305-0.782-0.057 0.544 0.026 0.792 0.305 0.782zM29.693 16.093c0.412 0.071 0.625-0.839 0.829-1.275-0.405 0.571-0.891 0.889-0.829 1.275z"></path>
<path fill="#fff" d="M29.597 16.062c0.12-0.335-0.22-0.317-0.399-0.818 0.028 0.636 0.111 0.865 0.399 0.818zM29.716 16.64c0.261 0.019 0.729-0.709 0.739-1.158-0.223 0.495-0.921 0.823-0.739 1.158z"></path>
<path fill="#fff" d="M29.522 16.556c0.108-0.35-0.194-0.352-0.328-0.744-0.010 0.591 0.083 0.792 0.329 0.744zM29.532 17.187c0.46 0.080 0.577-0.525 0.848-1.142-0.267 0.49-0.872 0.766-0.848 1.142z"></path>
<path fill="#fff" d="M28.636 15.086c-0.165 0.532-0.232 0.787-0.007 0.957 0.293-0.163 0.125-0.496 0.007-0.957zM28.544 16.477c0.123-0.392-0.18-0.487-0.34-0.929-0.016 0.584 0.066 1.012 0.34 0.929z"></path>
<path fill="#fff" d="M28.664 16.561c0.215 0.083 0.48-0.416 0.333-0.915-0.151 0.449-0.523 0.558-0.333 0.915zM28.437 17.008c0.208-0.322-0.123-0.338-0.291-0.787-0.009 0.591 0.045 0.834 0.291 0.787z"></path>
<path fill="#fff" d="M28.438 17.562c0.159-0.364-0.187-0.317-0.39-0.766-0.009 0.669 0.102 0.813 0.39 0.766zM28.594 17.030c0.18 0.005 0.529-0.31 0.426-0.702-0.151 0.329-0.579 0.295-0.426 0.702z"></path>
<path fill="#fff" d="M28.636 15.086c-0.165 0.532-0.232 0.787-0.007 0.957 0.293-0.163 0.125-0.496 0.007-0.957zM28.544 16.477c0.123-0.392-0.18-0.487-0.34-0.929-0.016 0.584 0.066 1.012 0.34 0.929z"></path>
<path fill="#fff" d="M28.665 16.561c0.215 0.083 0.48-0.416 0.333-0.915-0.151 0.449-0.522 0.558-0.333 0.915zM28.437 17.008c0.208-0.322-0.123-0.338-0.291-0.787-0.009 0.591 0.045 0.834 0.291 0.787z"></path>
<path fill="#fff" d="M28.438 17.562c0.159-0.364-0.187-0.317-0.39-0.766-0.009 0.669 0.102 0.813 0.39 0.766zM28.594 17.030c0.18 0.005 0.53-0.31 0.426-0.702-0.151 0.329-0.579 0.295-0.426 0.702z"></path>
<path fill="#fff" d="M30.381 16.753c0.036-0.047 0.139 0.001 0.113 0.114-0.024 0.153-0.248 0.937-0.634 1.207-0.275 0.199-1.719 0.519-2.374 0.656-0.36 0.073-0.662 0.253-0.899 0.542 0.098-0.377 0.177-0.656 0.303-0.998 0.123-0.3 0.448-0.628 0.785-0.646 0.626-0.023 1.436-0.076 2.024-0.333 0.304-0.127 0.485-0.3 0.681-0.542z"></path>
<path fill="#fff" d="M30.381 16.753c0.036-0.047 0.139 0.001 0.113 0.114-0.024 0.153-0.248 0.937-0.634 1.207-0.275 0.199-1.719 0.52-2.374 0.656-0.36 0.073-0.662 0.254-0.899 0.542 0.098-0.377 0.176-0.656 0.303-0.998 0.123-0.3 0.448-0.629 0.785-0.646 0.626-0.023 1.436-0.076 2.024-0.333 0.304-0.127 0.486-0.3 0.681-0.542z"></path>
<path fill="#fff" d="M29.54 18.669c0.263 0.073 0.946-0.525 0.966-0.972-0.185 0.321-1.107 0.667-0.966 0.972zM29.111 19.063c0.18-0.098 0.129-0.514-0.034-0.654-0.033 0.406-0.278 0.644 0.034 0.654z"></path>
<path fill="#fff" d="M29.296 19.177c0.318 0.1 0.677-0.476 0.939-0.726-0.299 0.257-1.202 0.381-0.939 0.726zM28.859 19.463c0.222-0.146 0.015-0.433-0.001-1.001-0.223 0.41-0.269 0.972 0.001 1.001z"></path>
<path fill="#fff" d="M28.902 19.609c0.113 0.152 0.953-0.371 1.162-0.759-0.717 0.533-1.349 0.462-1.162 0.759zM28.818 20.082c0.206-0.15-0.177-0.545-0.257-1.075 0.005 0.645-0.084 1.136 0.257 1.075z"></path>
<path fill="#fff" d="M29.042 19.904c0.103 0.166 0.744-0.273 1.020-0.752-0.424 0.372-1.138 0.471-1.020 0.752zM28.387 20.627c0.232-0.041 0.2-0.628 0.023-1.106-0.2 0.577-0.288 1.162-0.023 1.105z"></path>
<path fill="#fff" d="M28.969 20.308c0.080 0.095 1.024-0.566 1.010-0.835-0.299 0.428-1.297 0.514-1.010 0.835zM27.874 21.175c0.32-0.131 0.17-0.649 0.233-1.208-0.252 0.546-0.549 1.093-0.233 1.208z"></path>
<path fill="#fff" d="M26.978 19.424c0.208 0.030 0.481-0.352 0.299-0.74-0.090 0.387-0.697 0.668-0.299 0.74zM27.424 19.196c0.161 0.090 0.567-0.343 0.516-0.626-0.227 0.362-0.684 0.467-0.516 0.626z"></path>
<path fill="#fff" d="M26.949 19.832c0.156 0.152 0.924-0.628 1.153-0.983-0.664 0.566-1.344 0.709-1.153 0.983zM26.765 20.299c0.122 0.185 0.634-0.373 0.958-0.837-0.41 0.405-1.105 0.59-0.958 0.837z"></path>
<path fill="#fff" d="M26.817 19.854c0.125-0.331-0.082-0.383-0.176-0.794-0.185 0.227-0.165 0.856 0.176 0.794zM26.613 20.311c0.249-0.069-0.154-0.492-0.238-0.794-0.038 0.555-0.031 0.832 0.238 0.794zM26.37 20.709c0.23-0.084-0.13-0.293-0.167-0.756-0.114 0.17-0.174 0.818 0.167 0.756z"></path>
<path fill="#fff" d="M26.978 19.424c0.208 0.030 0.481-0.352 0.299-0.74-0.090 0.387-0.696 0.668-0.299 0.74zM27.424 19.196c0.161 0.090 0.567-0.343 0.516-0.626-0.227 0.362-0.684 0.467-0.516 0.626z"></path>
<path fill="#fff" d="M26.949 19.832c0.156 0.152 0.924-0.628 1.153-0.982-0.664 0.566-1.344 0.709-1.153 0.982zM26.765 20.299c0.122 0.185 0.634-0.373 0.958-0.837-0.41 0.405-1.105 0.59-0.958 0.837z"></path>
<path fill="#fff" d="M26.817 19.854c0.125-0.331-0.082-0.383-0.176-0.794-0.185 0.227-0.165 0.856 0.176 0.794zM26.613 20.311c0.249-0.069-0.153-0.493-0.238-0.794-0.038 0.555-0.031 0.832 0.238 0.794zM26.37 20.709c0.23-0.084-0.13-0.293-0.167-0.756-0.114 0.17-0.174 0.818 0.167 0.756z"></path>
<path fill="#fff" d="M29.54 18.669c0.263 0.073 0.946-0.525 0.966-0.972-0.185 0.321-1.107 0.667-0.966 0.972zM29.111 19.063c0.18-0.098 0.129-0.514-0.034-0.654-0.033 0.406-0.278 0.644 0.034 0.654z"></path>
<path fill="#fff" d="M29.296 19.177c0.318 0.1 0.677-0.476 0.939-0.726-0.299 0.257-1.202 0.381-0.939 0.726zM28.859 19.463c0.222-0.146 0.015-0.433-0.001-1.001-0.223 0.41-0.269 0.972 0.001 1.001z"></path>
<path fill="#fff" d="M28.902 19.609c0.113 0.152 0.952-0.371 1.162-0.759-0.717 0.533-1.349 0.462-1.162 0.759zM28.818 20.082c0.206-0.15-0.177-0.545-0.257-1.075 0.005 0.645-0.084 1.136 0.257 1.075z"></path>
<path fill="#fff" d="M29.042 19.904c0.103 0.166 0.743-0.273 1.019-0.752-0.424 0.372-1.138 0.471-1.019 0.752zM28.388 20.627c0.232-0.041 0.2-0.628 0.023-1.106-0.2 0.577-0.288 1.162-0.023 1.106z"></path>
<path fill="#fff" d="M28.969 20.308c0.080 0.095 1.024-0.566 1.010-0.835-0.299 0.428-1.297 0.514-1.010 0.835zM27.874 21.175c0.32-0.131 0.17-0.649 0.233-1.208-0.252 0.546-0.549 1.094-0.233 1.208z"></path>
<path fill="#fff" d="M28.926 21.485c0.058-0.011 0.137-0.031 0.065 0.059-0.576 0.712-0.742 0.909-1.581 0.808-0.848-0.112-1.049-0.343-1.643-0.677-0.317-0.187-0.781-0.228-1.132-0.112-0.164 0.054-0.263 0.057-0.145-0.061s0.256-0.278 0.4-0.389c0.316-0.244 0.852-0.349 1.289-0.271 0.619 0.098 1.13 0.493 1.741 0.643 0.321 0.074 0.673 0.063 1.006-0.001z"></path>
<path fill="#fff" d="M28.926 21.484c0.058-0.011 0.137-0.031 0.065 0.059-0.575 0.713-0.742 0.909-1.581 0.809-0.848-0.112-1.050-0.343-1.643-0.677-0.317-0.187-0.781-0.228-1.132-0.112-0.164 0.054-0.263 0.057-0.145-0.061s0.256-0.278 0.4-0.389c0.316-0.244 0.852-0.349 1.289-0.271 0.619 0.098 1.13 0.493 1.741 0.643 0.321 0.074 0.673 0.063 1.006-0z"></path>
<path fill="#fff" d="M24.079 22.737c-0.106 0.013-0.174 0.222-0.226 0.081-0.089-0.228-0.026-0.41 0.073-0.39 0.118 0.032 0.317 0.299 0.153 0.309z"></path>
<path fill="#fff" d="M24.079 22.737c-0.106 0.013-0.174 0.222-0.226 0.081-0.089-0.228-0.027-0.41 0.073-0.39 0.118 0.032 0.317 0.299 0.153 0.309z"></path>
<path fill="#fff" d="M25.242 21.808c0.301 0.078 0.379-0.268 0.408-0.52-0.271 0.058-0.555 0.216-0.408 0.52zM25.121 22.116c0.053 0.24 0.642-0.007 0.756-0.343-0.418 0.244-0.831-0.022-0.756 0.343z"></path>
<path fill="#fff" d="M24.911 22.105c0.269 0.044 0.119-0.377 0.104-0.792-0.151 0.339-0.366 0.756-0.104 0.792zM24.571 22.503c0.293 0.037 0.107-0.528 0.027-0.907-0.096 0.352-0.308 0.876-0.027 0.907z"></path>
<path fill="#fff" d="M24.746 22.515c0.036 0.319 0.641-0.038 0.993-0.234-0.465 0.072-1.045-0.079-0.993 0.234zM24.413 22.962c0.036 0.319 0.641-0.038 0.993-0.235-0.465 0.072-1.045-0.079-0.993 0.235z"></path>
<path fill="#fff" d="M24.258 22.949c0.278 0.008 0.074-0.599-0.006-0.979-0.096 0.352-0.279 0.967 0.006 0.979zM24.018 23.337c0.036 0.319 0.589 0.005 0.931-0.215-0.47 0.101-0.984-0.098-0.931 0.215z"></path>
<path fill="#fff" d="M25.242 21.808c0.301 0.078 0.379-0.269 0.408-0.52-0.271 0.058-0.555 0.216-0.408 0.52zM25.121 22.116c0.053 0.24 0.642-0.007 0.756-0.343-0.418 0.244-0.831-0.022-0.756 0.343z"></path>
<path fill="#fff" d="M24.911 22.104c0.269 0.045 0.119-0.377 0.104-0.792-0.151 0.339-0.366 0.756-0.104 0.792zM24.571 22.502c0.293 0.037 0.107-0.528 0.028-0.907-0.096 0.352-0.308 0.876-0.028 0.907z"></path>
<path fill="#fff" d="M24.746 22.515c0.036 0.319 0.641-0.038 0.993-0.234-0.465 0.072-1.045-0.079-0.993 0.234zM24.413 22.962c0.036 0.319 0.641-0.038 0.993-0.234-0.465 0.072-1.045-0.079-0.993 0.234z"></path>
<path fill="#fff" d="M24.258 22.949c0.278 0.008 0.074-0.599-0.006-0.978-0.096 0.352-0.279 0.967 0.006 0.978zM24.018 23.337c0.036 0.319 0.589 0.005 0.931-0.216-0.47 0.101-0.984-0.098-0.931 0.216z"></path>
<path fill="#fff" d="M26.543 22.836c0.268 0.178 0.604-0.316 0.526-0.803-0.103 0.502-0.782 0.532-0.526 0.803zM25.527 24.221c0.132 0.336 1.518-0.294 1.751-0.713-0.445 0.377-1.88 0.325-1.751 0.713z"></path>
<path fill="#fff" d="M26.543 22.836c0.268 0.178 0.604-0.316 0.526-0.803-0.103 0.502-0.782 0.532-0.526 0.803zM25.527 24.222c0.132 0.336 1.518-0.294 1.751-0.713-0.445 0.377-1.88 0.325-1.751 0.713z"></path>
<path fill="#fff" d="M14.474 14.886c-0.044-0.437 0.284-1.23 0.051-1.654-0.032-0.058 0.070-0.213 0.135-0.119 0.102 0.149 0.208 0.575 0.252 0.418 0.047-0.171 0.054-0.474 0.205-0.532 0.097-0.034 0.233-0.057 0.196 0.095-0.037 0.146-0.12 0.348-0.028 0.361 0.053 0.008 0.207-0.199 0.336-0.295 0.104-0.085 0.26 0.048 0.107 0.176-0.495 0.411-0.975 0.596-1.255 1.549z"></path>
<path fill="#fff" d="M14.473 14.886c-0.044-0.437 0.284-1.23 0.051-1.654-0.032-0.058 0.070-0.213 0.135-0.119 0.103 0.149 0.208 0.575 0.252 0.418 0.047-0.171 0.054-0.474 0.205-0.532 0.097-0.034 0.233-0.057 0.196 0.095-0.037 0.146-0.12 0.348-0.028 0.361 0.053 0.008 0.207-0.199 0.336-0.295 0.104-0.085 0.26 0.048 0.107 0.176-0.495 0.411-0.975 0.596-1.255 1.549z"></path>
<path fill="#fff" d="M13.584 21.457c-0.058-0.011-0.138-0.031-0.065 0.059 0.578 0.712 0.746 0.909 1.589 0.808 0.852-0.112 1.055-0.343 1.651-0.677 0.319-0.187 0.784-0.228 1.137-0.113 0.164 0.054 0.264 0.057 0.146-0.061s-0.257-0.278-0.402-0.389c-0.317-0.244-0.856-0.349-1.296-0.271-0.622 0.098-1.135 0.493-1.749 0.643-0.322 0.074-0.676 0.063-1.011-0z"></path>
<path fill="#fff" d="M13.584 21.457c-0.058-0.011-0.138-0.031-0.065 0.059 0.578 0.713 0.746 0.909 1.589 0.809 0.852-0.112 1.055-0.343 1.651-0.677 0.319-0.187 0.784-0.228 1.137-0.113 0.164 0.054 0.264 0.057 0.146-0.061s-0.257-0.278-0.402-0.388c-0.318-0.244-0.856-0.35-1.296-0.271-0.622 0.097-1.135 0.493-1.749 0.643-0.323 0.074-0.676 0.063-1.011-0z"></path>
<path fill="#fff" d="M18.451 22.73c0.108 0.013 0.176 0.222 0.229 0.081 0.090-0.228 0.027-0.41-0.074-0.39-0.119 0.032-0.32 0.299-0.155 0.309z"></path>
<path fill="#fff" d="M18.451 22.73c0.108 0.013 0.176 0.222 0.229 0.081 0.090-0.228 0.027-0.41-0.074-0.39-0.119 0.032-0.321 0.299-0.155 0.309z"></path>
<path fill="#fff" d="M18.211 22.924c0.288 0.066 0.284-0.629-0.010-0.924 0.13 0.446-0.217 0.854 0.010 0.924zM18.099 22.918c0.019 0.33-0.81-0.043-1.024-0.3 0.49 0.208 0.999 0.036 1.024 0.3zM17.736 22.446c0.030 0.32-0.719 0.039-0.941-0.211 0.492 0.159 0.908-0.052 0.941 0.211zM17.874 22.492c0.288 0.066 0.242-0.653-0.039-0.9 0.135 0.48-0.188 0.83 0.039 0.9zM17.57 22.054c0.288 0.066 0.123-0.553-0.091-0.8 0.035 0.451-0.108 0.764 0.091 0.8zM17.418 22.052c0.030 0.329-0.553 0.076-0.779-0.235 0.487 0.159 0.746-0.028 0.779 0.235zM17.258 21.802c0.189-0.136-0.012-0.495-0.371-0.473 0.035 0.217 0.16 0.599 0.371 0.473zM18.679 23.292c0.019 0.33-0.811 0.166-1.071-0.186 0.523 0.099 1.047-0.078 1.071 0.186z"></path>
<path fill="#fff" d="M13.186 14.54c-0.124-0.129-0.088-0.179 0.095-0.181 0.145-0.009 0.433 0.089 0.542 0.009 0.1-0.073 0.060-0.381 0.104-0.523 0.019-0.079 0.075-0.204 0.199-0.010 0.369 0.591 0.83 1.301 1.026 1.996 0.108 0.39 0.006 0.998-0.352 1.407 0.013-0.349-0.117-0.583-0.276-0.874-0.196-0.383-0.922-1.421-1.34-1.825z"></path>
<path fill="#fff" d="M13.186 14.54c-0.124-0.129-0.088-0.179 0.095-0.181 0.145-0.009 0.433 0.089 0.542 0.010 0.1-0.073 0.060-0.381 0.104-0.523 0.019-0.079 0.075-0.204 0.199-0.010 0.369 0.591 0.83 1.301 1.027 1.996 0.108 0.39 0.006 0.998-0.352 1.406 0.013-0.348-0.117-0.583-0.276-0.874-0.196-0.383-0.922-1.421-1.34-1.825z"></path>
<path fill="#fff" d="M18.211 22.924c0.288 0.066 0.284-0.629-0.010-0.924 0.13 0.446-0.217 0.854 0.010 0.924zM18.099 22.918c0.019 0.33-0.81-0.043-1.024-0.3 0.49 0.208 0.999 0.036 1.024 0.3zM17.736 22.446c0.030 0.32-0.719 0.039-0.941-0.211 0.492 0.159 0.908-0.052 0.941 0.211zM17.874 22.492c0.288 0.066 0.242-0.653-0.039-0.9 0.135 0.479-0.188 0.83 0.039 0.9zM17.57 22.054c0.288 0.066 0.123-0.553-0.091-0.8 0.035 0.451-0.108 0.764 0.091 0.8zM17.418 22.052c0.030 0.329-0.553 0.076-0.779-0.235 0.487 0.159 0.746-0.028 0.779 0.235zM17.258 21.802c0.189-0.136-0.011-0.495-0.371-0.473 0.035 0.217 0.16 0.599 0.371 0.473zM18.679 23.292c0.019 0.33-0.811 0.166-1.071-0.186 0.523 0.099 1.047-0.078 1.071 0.186z"></path>
<path fill="#fff" d="M15.384 22.701c0.030 0.329-0.876-0.033-1.102-0.344 0.487 0.159 1.069 0.081 1.102 0.344zM15.939 22.842c0.189-0.136-0.197-0.486-0.504-0.568 0.035 0.217 0.293 0.694 0.504 0.568zM15.997 23.070c0.020 0.296-0.971 0.134-1.231-0.14 0.853 0.154 1.203-0.114 1.231 0.14z"></path>
<path fill="#fff" d="M16.906 23.469c0.105 0.246-0.775 0.241-1.204 0.105 0.568-0.005 1.1-0.349 1.204-0.105zM17.546 23.601c0.156 0.292-0.773 0.32-1.074 0.176 0.537-0.074 0.941-0.406 1.074-0.176z"></path>
<path fill="#fff" d="M16.458 23.102c-0.295 0.186-0.28-0.363-0.515-0.743 0.369 0.336 0.715 0.566 0.515 0.743zM16.983 23.299c-0.248 0.22-0.446-0.534-0.671-0.957 0.365 0.403 0.9 0.775 0.671 0.957zM17.674 23.509c-0.21 0.243-0.817-0.715-1.037-1.214 0.336 0.389 1.204 1.008 1.037 1.214z"></path>
<path fill="#fff" d="M15.384 22.701c0.030 0.329-0.876-0.033-1.102-0.344 0.487 0.159 1.069 0.081 1.102 0.344zM15.939 22.842c0.189-0.136-0.197-0.486-0.504-0.568 0.035 0.217 0.293 0.694 0.504 0.568zM15.997 23.070c0.020 0.296-0.971 0.134-1.231-0.14 0.853 0.154 1.203-0.114 1.231 0.14z"></path>
<path fill="#fff" d="M16.906 23.469c0.105 0.246-0.775 0.241-1.204 0.105 0.568-0.005 1.1-0.349 1.204-0.105zM17.546 23.601c0.156 0.292-0.773 0.32-1.074 0.176 0.537-0.074 0.941-0.406 1.074-0.176zM16.458 23.102c-0.295 0.186-0.28-0.363-0.515-0.743 0.369 0.336 0.715 0.566 0.515 0.743z"></path>
<path fill="#fff" d="M16.983 23.299c-0.248 0.22-0.446-0.534-0.671-0.957 0.365 0.403 0.9 0.775 0.671 0.957zM17.674 23.509c-0.21 0.243-0.817-0.715-1.037-1.214 0.336 0.389 1.204 1.008 1.037 1.214z"></path>
<path fill="#fff" d="M12.122 16.726c-0.036-0.047-0.14 0.001-0.114 0.114 0.024 0.153 0.249 0.937 0.637 1.207 0.276 0.199 1.728 0.52 2.386 0.656 0.362 0.073 0.665 0.254 0.903 0.542-0.098-0.377-0.177-0.656-0.304-0.998-0.123-0.3-0.45-0.629-0.789-0.646-0.629-0.023-1.443-0.076-2.034-0.333-0.305-0.128-0.488-0.3-0.684-0.542z"></path>
<path fill="#fff" d="M12.122 16.726c-0.036-0.047-0.14 0.001-0.114 0.114 0.024 0.153 0.249 0.937 0.637 1.207 0.276 0.199 1.728 0.52 2.385 0.656 0.362 0.073 0.665 0.254 0.903 0.542-0.098-0.377-0.177-0.656-0.304-0.998-0.123-0.3-0.45-0.629-0.789-0.646-0.629-0.023-1.443-0.076-2.034-0.333-0.305-0.127-0.488-0.3-0.684-0.542z"></path>
<path fill="#fff" d="M15.562 19.421c0.293-0.057-0.017-0.301-0.376-0.697-0.017 0.418 0.052 0.709 0.376 0.697zM15.067 19.185c0.126-0.138-0.121-0.196-0.428-0.541-0.045 0.232 0.285 0.657 0.428 0.541zM16.486 20.733c0.16 0.094 0.27-0.235 0.070-0.532-0.046 0.322-0.217 0.411-0.070 0.532z"></path>
<path fill="#fff" d="M15.588 19.774c-0.119 0.356-0.951-0.594-1.187-0.93 0.397 0.371 1.277 0.671 1.187 0.93zM15.562 19.421c0.293-0.057-0.017-0.301-0.376-0.697-0.017 0.417 0.052 0.709 0.376 0.697z"></path>
<path fill="#fff" d="M15.067 19.185c0.126-0.138-0.121-0.196-0.428-0.541-0.045 0.232 0.285 0.657 0.428 0.541zM16.486 20.733c0.16 0.094 0.27-0.235 0.070-0.532-0.046 0.322-0.217 0.411-0.070 0.532z"></path>
<path fill="#fff" d="M13.483 19.869c-0.133 0.257-0.837-0.38-1.006-0.711 0.43 0.375 1.115 0.457 1.006 0.711zM13.122 18.618c0.222-0.234 0.127-0.344-0.034-0.713-0.088 0.379-0.222 0.53 0.034 0.713zM13.417 19.059c0.403 0.018 0.004-0.472-0.091-0.884 0.035 0.469-0.103 0.839 0.091 0.884z"></path>
<path fill="#fff" d="M13.673 19.45c0.279-0.063 0.198-0.458-0.015-0.936 0.044 0.517-0.236 0.815 0.015 0.936zM13.578 20.231c-0.105 0.314-0.899-0.413-1.025-0.688 0.401 0.337 1.096 0.453 1.025 0.688z"></path>
<path fill="#fff" d="M14.538 21.214c-0.133 0.437-1.003-0.261-1.263-0.602 0.553 0.423 1.333 0.291 1.263 0.602zM13.72 20.091c0.236 0.122 0.332-0.548 0.198-1.022 0.002 0.517-0.474 0.901-0.198 1.022z"></path>
<path fill="#fff" d="M14.125 20.623c0.284 0.084 0.194-0.638-0.049-1.107-0.031 0.464-0.241 0.905 0.049 1.107zM14.629 21.122c0.317 0.018 0.099-0.62-0.163-0.979 0.044 0.469-0.103 0.925 0.163 0.979zM14.072 21.394c-0.095 0.162-0.329-0.137-0.711-0.355 0.344 0.090 0.754 0.206 0.711 0.355z"></path>
<path fill="#fff" d="M13.483 19.869c-0.133 0.257-0.837-0.379-1.006-0.711 0.43 0.375 1.115 0.457 1.006 0.711zM13.122 18.618c0.222-0.234 0.127-0.344-0.034-0.713-0.088 0.379-0.222 0.53 0.034 0.713zM13.417 19.059c0.403 0.018 0.004-0.472-0.091-0.884 0.035 0.469-0.103 0.839 0.091 0.884z"></path>
<path fill="#fff" d="M13.673 19.45c0.279-0.063 0.198-0.458-0.015-0.936 0.044 0.517-0.236 0.815 0.015 0.936zM13.578 20.231c-0.105 0.314-0.899-0.413-1.025-0.688 0.401 0.337 1.096 0.453 1.025 0.688z"></path>
<path fill="#fff" d="M14.538 21.214c-0.133 0.437-1.003-0.261-1.263-0.602 0.553 0.423 1.333 0.291 1.263 0.602zM13.72 20.091c0.236 0.122 0.332-0.548 0.198-1.022 0.002 0.517-0.474 0.901-0.198 1.022z"></path>
<path fill="#fff" d="M14.125 20.623c0.284 0.084 0.194-0.638-0.049-1.107-0.031 0.464-0.241 0.906 0.049 1.107zM14.629 21.122c0.317 0.018 0.099-0.62-0.163-0.979 0.045 0.469-0.103 0.925 0.163 0.979zM14.072 21.394c-0.095 0.161-0.329-0.137-0.711-0.355 0.344 0.090 0.754 0.206 0.711 0.355z"></path>
<path fill="#fff" d="M13.89 16.023c0.296-0.219 0.070-0.629 0-1.018-0.095 0.37-0.346 0.854 0 1.018zM13.881 16.57c-0.445-0.053-0.378-0.628-0.391-0.993 0.134 0.495 0.498 0.578 0.391 0.993zM13.951 16.495c0.376-0.022 0.356-0.45 0.376-0.883-0.191 0.398-0.416 0.46-0.376 0.883z"></path>
<path fill="#fff" d="M13.936 17.026c-0.293 0.023-0.445-0.264-0.512-0.712 0.277 0.413 0.53 0.284 0.512 0.712zM14.041 16.991c0.376 0.048 0.316-0.39 0.301-0.712-0.115 0.308-0.421 0.405-0.301 0.712z"></path>
<path fill="#fff" d="M13.89 16.023c0.296-0.219 0.070-0.629 0-1.018-0.095 0.37-0.346 0.854 0 1.018zM13.881 16.57c-0.445-0.053-0.378-0.628-0.391-0.993 0.134 0.495 0.498 0.578 0.391 0.993zM13.951 16.495c0.376-0.022 0.356-0.45 0.376-0.883-0.191 0.398-0.416 0.46-0.376 0.883z"></path>
<path fill="#fff" d="M13.936 17.026c-0.293 0.023-0.445-0.264-0.512-0.712 0.278 0.413 0.53 0.284 0.512 0.712zM14.041 16.991c0.376 0.048 0.316-0.39 0.301-0.712-0.115 0.308-0.421 0.405-0.301 0.712z"></path>
<path fill="#fff" d="M12.833 14.531c0.234-0.252 0.027-0.652-0.043-1.042-0.095 0.369-0.26 0.859 0.043 1.042zM12.825 15.001c-0.411 0.042-0.511-0.795-0.553-1.154 0.134 0.495 0.607 0.721 0.553 1.154zM12.911 14.993c0.291-0.15 0.223-0.473 0.314-0.716-0.195 0.298-0.374 0.341-0.314 0.716z"></path>
<path fill="#fff" d="M12.829 15.541c-0.43 0.037-0.687-0.89-0.7-1.254 0.134 0.495 0.75 0.764 0.7 1.254zM12.911 15.527c0.405-0.093 0.356-0.355 0.296-0.778-0.129 0.426-0.355 0.336-0.296 0.778z"></path>
<path fill="#fff" d="M12.824 16.076c-0.473 0.080-0.44-0.668-0.816-1.211 0.325 0.403 0.91 0.911 0.816 1.211zM12.931 16.050c0.357 0.010 0.392-0.527 0.372-0.745-0.082 0.217-0.502 0.424-0.372 0.745z"></path>
<path fill="#fff" d="M12.935 16.524c-0.13-0.251 0.296-0.376 0.386-0.702 0.052 0.466 0.008 0.772-0.386 0.702zM12.207 16.157c0.253 0.519 0.367 1.115 0.715 1.028 0.13-0.403-0.384-0.488-0.715-1.028z"></path>
<path fill="#fff" d="M12.833 14.531c0.234-0.252 0.027-0.652-0.043-1.042-0.095 0.369-0.26 0.859 0.043 1.042zM12.825 15.001c-0.411 0.042-0.511-0.795-0.553-1.154 0.134 0.495 0.607 0.721 0.553 1.154zM12.911 14.993c0.291-0.15 0.223-0.474 0.314-0.716-0.195 0.298-0.374 0.341-0.314 0.716z"></path>
<path fill="#fff" d="M12.829 15.541c-0.43 0.037-0.687-0.89-0.7-1.254 0.134 0.495 0.75 0.764 0.7 1.254zM12.911 15.527c0.405-0.093 0.356-0.355 0.296-0.778-0.129 0.426-0.355 0.336-0.296 0.778z"></path>
<path fill="#fff" d="M12.824 16.076c-0.473 0.080-0.44-0.668-0.816-1.211 0.325 0.403 0.91 0.911 0.816 1.211zM12.931 16.050c0.357 0.010 0.392-0.527 0.372-0.745-0.082 0.217-0.502 0.424-0.372 0.745z"></path>
<path fill="#fff" d="M12.936 16.524c-0.13-0.251 0.296-0.376 0.386-0.702 0.052 0.466 0.008 0.772-0.386 0.702zM12.207 16.157c0.253 0.519 0.368 1.115 0.715 1.028 0.13-0.403-0.384-0.488-0.715-1.028z"></path>
<path fill="#fff" d="M13.724 13.577c0.25 0.068 0.511-0.213 0.421-0.632-0.285 0.071-0.416 0.33-0.421 0.632zM12.924 13.366c0.022 0.118 0.165 0.129 0.124-0.038-0.035-0.135-0.041-0.237 0-0.347 0.056-0.138 0.037-0.373-0.005-0.47-0.042-0.103-0.183-0.043-0.124 0.038 0.065 0.094 0.068 0.289 0.024 0.38-0.059 0.134-0.043 0.313-0.019 0.437z"></path>
<path fill="#fff" d="M13.724 13.577c0.25 0.067 0.511-0.213 0.421-0.632-0.285 0.071-0.416 0.33-0.421 0.632zM12.924 13.366c0.022 0.118 0.165 0.129 0.124-0.038-0.035-0.135-0.041-0.237 0-0.347 0.056-0.138 0.037-0.373-0.005-0.47-0.042-0.103-0.183-0.043-0.124 0.038 0.065 0.094 0.068 0.289 0.024 0.38-0.059 0.135-0.043 0.313-0.019 0.437z"></path>
<path fill="#fff" d="M13.788 12.917c-0.024 0.184-0.18 0.201-0.134-0.059 0.038-0.211 0.044-0.37 0-0.542-0.061-0.215-0.040-0.582 0.005-0.735 0.046-0.162 0.198-0.067 0.134 0.059-0.071 0.147-0.074 0.451-0.026 0.594 0.064 0.21 0.047 0.489 0.021 0.683zM14.95 14.759c-0.096 0.142-0.25 0.059-0.163-0.168 0.074-0.158 0.082-0.353 0.163-0.468 0.115-0.175 0.309-0.321 0.419-0.426 0.114-0.113 0.208-0.004 0.104 0.092-0.127 0.127-0.264 0.285-0.341 0.404-0.143 0.232-0.080 0.418-0.182 0.566z"></path>
<path fill="#fff" d="M15.253 14.989c-0.097 0.142-0.293 0.055-0.143-0.14 0.123-0.158 0.298-0.286 0.311-0.45 0.010-0.206 0.131-0.52 0.241-0.625 0.114-0.113 0.245 0.046 0.124 0.121-0.137 0.089-0.226 0.454-0.223 0.594-0.005 0.204-0.208 0.351-0.311 0.5z"></path>
<path fill="#fff" d="M15.252 14.988c-0.096 0.142-0.293 0.055-0.143-0.14 0.123-0.158 0.298-0.287 0.311-0.449 0.010-0.207 0.131-0.52 0.242-0.626 0.114-0.113 0.245 0.046 0.124 0.121-0.137 0.089-0.225 0.454-0.222 0.594-0.005 0.204-0.208 0.351-0.311 0.5z"></path>
<path fill="#fff" d="M14.95 14.759c-0.096 0.142-0.25 0.059-0.163-0.168 0.074-0.158 0.082-0.353 0.163-0.468 0.115-0.175 0.309-0.321 0.419-0.426 0.114-0.113 0.208-0.004 0.104 0.092-0.127 0.127-0.264 0.285-0.341 0.404-0.143 0.232-0.080 0.418-0.182 0.566z"></path>
<path fill="#fff" d="M13.347 14.027c-0.011 0.2 0.15 0.249 0.143-0.042-0.007-0.303-0.222-0.581-0.090-1.042 0.069-0.226 0.071-0.64 0.028-0.86-0.037-0.218-0.192-0.076-0.133 0.095 0.065 0.197-0.012 0.575-0.062 0.765-0.149 0.553 0.123 0.822 0.114 1.084z"></path>
<path fill="#fff" d="M13.347 14.027c-0.011 0.2 0.15 0.249 0.143-0.042-0.007-0.303-0.222-0.581-0.090-1.042 0.069-0.226 0.070-0.64 0.028-0.86-0.037-0.218-0.192-0.076-0.133 0.094 0.065 0.197-0.012 0.575-0.062 0.765-0.149 0.553 0.123 0.823 0.114 1.084z"></path>
<path fill="#fff" d="M13.788 12.917c-0.024 0.184-0.18 0.201-0.134-0.059 0.038-0.211 0.044-0.37 0-0.542-0.061-0.215-0.040-0.582 0.005-0.735 0.046-0.162 0.198-0.067 0.134 0.059-0.071 0.147-0.074 0.451-0.026 0.594 0.064 0.21 0.047 0.489 0.021 0.683zM12.203 16.686c0.077 0.092 0.207 0.030 0.089-0.094-0.097-0.101-0.065-0.132-0.124-0.255-0.058-0.137-0.055-0.212-0.126-0.31-0.062-0.093-0.156 0.002-0.093 0.080 0.079 0.092 0.057 0.16 0.105 0.249 0.089 0.153 0.068 0.233 0.149 0.329zM14.28 19.193c0.248 0.122 0.437 0.427 0.449 0.676 0.021 0.286 0.062 0.528 0.191 0.731-0.204-0.057-0.302-0.383-0.331-0.695-0.029-0.323-0.204-0.463-0.309-0.712zM14.798 19.791c0.172 0.317 0.412 0.438 0.425 0.674 0.021 0.271 0.041 0.285 0.115 0.551-0.202-0.054-0.253-0.072-0.308-0.477-0.034-0.285-0.262-0.486-0.232-0.748z"></path>
<path fill="#000" opacity="0.185" d="M24.178 25.104c0.005 0.12 0.019 0.217 0.090 0.314-0.415-0.166-1.001-0.077-1.402 0.109-0.179 0.085-0.395-0.098-0.185-0.271 0.298-0.242 0.988-0.105 1.497-0.152zM18.322 25.097c0.006 0.113-0.007 0.217-0.049 0.316 0.451-0.187 0.936-0.032 1.391 0.152 0.313 0.13 0.339-0.095 0.283-0.172-0.095-0.138-0.279-0.289-0.512-0.292-0.155-0.002-0.752-0.008-1.114-0.004zM18.703 22.894c-0.126-0.054-0.272-0.002-0.403 0.136-0.441 0.432-0.958 0.852-1.375 1.18-0.156 0.135-0.315 0.378 0.349 0.62 0.024 0.009 0.508 0.189 0.815 0.2 0.125-0.004 0.125 0.184 0.102 0.233-0.053 0.099-0.015 0.137-0.122 0.233-0.111 0.094 0.012 0.216 0.099 0.133 0.374-0.325 0.98-0.117 1.565 0.073 0.138 0.038 0.391 0.027 0.389-0.163 0.002-0.207 0.153-0.354 0.245-0.36 0.238 0.041 1.417 0.055 1.78 0.010 0.212-0.027 0.224 0.29 0.338 0.415 0.078 0.083 0.379 0.105 0.585 0.014 0.407-0.189 1.028-0.189 1.281-0.008 0.104 0.079 0.186 0.015 0.127-0.065-0.076-0.11-0.074-0.161-0.112-0.248-0.095-0.193-0.019-0.241 0.080-0.255 1.126-0.145 1.485-0.529 1.141-0.842-0.444-0.39-0.939-0.782-1.365-1.242-0.116-0.122-0.192-0.171-0.433-0.071-0.735 0.335-1.669 0.579-2.582 0.597-0.85 0.007-2.019-0.386-2.504-0.591z"></path>
<path fill="#fff" d="M24.178 25.104c0.005 0.12 0.019 0.217 0.090 0.314-0.415-0.166-1.001-0.077-1.402 0.109-0.179 0.085-0.395-0.098-0.185-0.271 0.298-0.242 0.988-0.105 1.497-0.152zM18.322 25.097c0.006 0.113-0.007 0.217-0.049 0.316 0.451-0.187 0.936-0.032 1.391 0.152 0.313 0.13 0.339-0.095 0.283-0.172-0.095-0.138-0.279-0.289-0.512-0.292-0.155-0.002-0.752-0.008-1.114-0.004zM18.703 22.894c-0.126-0.054-0.272-0.002-0.403 0.136-0.441 0.432-0.958 0.852-1.375 1.18-0.156 0.135-0.315 0.378 0.349 0.62 0.024 0.009 0.508 0.189 0.815 0.2 0.125-0.004 0.125 0.184 0.102 0.233-0.053 0.099-0.015 0.137-0.122 0.233-0.111 0.094 0.012 0.216 0.1 0.133 0.374-0.325 0.98-0.117 1.565 0.073 0.138 0.038 0.391 0.028 0.389-0.163 0.002-0.207 0.153-0.354 0.245-0.36 0.238 0.041 1.417 0.054 1.78 0.010 0.212-0.028 0.225 0.29 0.338 0.415 0.078 0.083 0.379 0.105 0.585 0.014 0.407-0.189 1.028-0.189 1.281-0.008 0.104 0.079 0.186 0.015 0.127-0.065-0.076-0.11-0.074-0.161-0.112-0.248-0.095-0.193-0.019-0.241 0.080-0.255 1.126-0.145 1.485-0.529 1.141-0.842-0.444-0.39-0.939-0.782-1.365-1.242-0.116-0.122-0.192-0.171-0.433-0.071-0.735 0.335-1.669 0.579-2.582 0.597-0.85 0.007-2.019-0.386-2.504-0.591z"></path>
<path fill="#fff" d="M27.665 19.683c-0.214 0.297-0.499 0.512-0.512 0.748-0.022 0.271-0.043 0.285-0.12 0.551 0.212-0.054 0.265-0.071 0.323-0.477 0.035-0.285 0.341-0.56 0.31-0.822z"></path>
<path fill="#fff" d="M27.665 19.683c-0.214 0.297-0.499 0.512-0.512 0.748-0.022 0.271-0.043 0.285-0.12 0.551 0.212-0.054 0.265-0.072 0.323-0.477 0.035-0.285 0.341-0.56 0.31-0.822z"></path>
<path fill="#fff" d="M28.010 19.274c-0.26 0.122-0.319 0.324-0.33 0.575-0.005 0.29-0.079 0.514-0.213 0.717 0.268 0.037 0.317-0.383 0.347-0.695 0.031-0.323 0.085-0.349 0.196-0.597z"></path>
<path fill="#fff" d="M28.011 19.274c-0.26 0.122-0.319 0.325-0.33 0.575-0.005 0.29-0.078 0.514-0.213 0.717 0.268 0.037 0.317-0.383 0.347-0.695 0.031-0.323 0.086-0.349 0.196-0.597z"></path>
<path fill="#fff" d="M28.739 12.903c0.023 0.184 0.177 0.201 0.132-0.059-0.037-0.211-0.044-0.37 0-0.542 0.060-0.215 0.040-0.582-0.005-0.735-0.045-0.161-0.195-0.067-0.132 0.059 0.070 0.146 0.073 0.451 0.026 0.594-0.063 0.21-0.046 0.489-0.020 0.683z"></path>
<path fill="#fff" d="M28.738 12.904c0.023 0.184 0.177 0.201 0.132-0.059-0.037-0.211-0.044-0.37 0-0.542 0.060-0.215 0.040-0.582-0.005-0.735-0.045-0.161-0.195-0.067-0.132 0.060 0.069 0.146 0.073 0.451 0.025 0.593-0.063 0.21-0.046 0.489-0.020 0.683z"></path>
<path fill="#fff" d="M29.174 14.014c0.011 0.2-0.147 0.249-0.14-0.042 0.007-0.303 0.218-0.581 0.089-1.042-0.068-0.226-0.069-0.64-0.028-0.86 0.036-0.218 0.189-0.076 0.131 0.095-0.064 0.197 0.012 0.575 0.061 0.765 0.147 0.553-0.121 0.822-0.112 1.084z"></path>
<path fill="#fff" d="M29.173 14.014c0.011 0.2-0.147 0.249-0.14-0.042 0.007-0.303 0.218-0.581 0.089-1.042-0.068-0.226-0.069-0.64-0.028-0.859 0.036-0.218 0.189-0.076 0.131 0.094-0.064 0.197 0.012 0.575 0.061 0.765 0.147 0.553-0.121 0.823-0.112 1.084z"></path>
<path fill="#fff" d="M29.59 13.353c-0.022 0.118-0.163 0.129-0.122-0.038 0.034-0.135 0.040-0.237 0-0.347-0.055-0.138-0.037-0.372 0.005-0.47 0.042-0.103 0.18-0.043 0.122 0.038-0.064 0.094-0.068 0.289-0.024 0.38 0.058 0.135 0.042 0.313 0.019 0.437z"></path>
<path fill="#fff" d="M29.589 13.353c-0.021 0.118-0.163 0.129-0.122-0.038 0.034-0.135 0.040-0.237 0-0.347-0.055-0.138-0.037-0.372 0.005-0.47 0.042-0.104 0.18-0.043 0.122 0.038-0.064 0.094-0.067 0.289-0.023 0.38 0.058 0.135 0.042 0.313 0.019 0.437z"></path>
<path fill="#fff" d="M27.558 14.754c0.093 0.142 0.241 0.060 0.157-0.168-0.071-0.158-0.078-0.353-0.157-0.468-0.111-0.175-0.298-0.32-0.404-0.426-0.11-0.113-0.201-0.004-0.101 0.092 0.123 0.127 0.255 0.285 0.329 0.404 0.137 0.232 0.077 0.418 0.176 0.566z"></path>
<path fill="#fff" d="M27.557 14.753c0.093 0.142 0.241 0.059 0.157-0.168-0.071-0.158-0.079-0.353-0.158-0.468-0.111-0.175-0.298-0.32-0.404-0.426-0.11-0.113-0.201-0.004-0.1 0.092 0.122 0.127 0.255 0.285 0.329 0.404 0.137 0.232 0.077 0.418 0.176 0.566z"></path>
<path fill="#fff" d="M27.303 14.905c0.093 0.142 0.283 0.055 0.138-0.14-0.118-0.158-0.288-0.286-0.3-0.45-0.009-0.206-0.127-0.52-0.233-0.625-0.11-0.113-0.237 0.046-0.12 0.121 0.132 0.089 0.218 0.454 0.215 0.594 0.005 0.204 0.201 0.351 0.3 0.5z"></path>
<path fill="#fff" d="M27.301 14.905c0.093 0.142 0.283 0.055 0.138-0.14-0.119-0.158-0.288-0.286-0.3-0.449-0.010-0.207-0.127-0.52-0.233-0.626-0.11-0.113-0.237 0.046-0.119 0.121 0.132 0.089 0.218 0.454 0.215 0.594 0.004 0.204 0.201 0.351 0.3 0.5z"></path>
<path fill="#fff" d="M19.136 21.497c0.282 0.225 0.548 0.48 0.627 0.798 0.083 0.296 0.133 0.523 0.323 0.817-0.298-0.19-0.416-0.477-0.504-0.789-0.077-0.306-0.254-0.535-0.447-0.827z"></path>
<path fill="#fff" d="M19.136 21.497c0.282 0.225 0.548 0.48 0.627 0.798 0.083 0.296 0.133 0.523 0.323 0.817-0.298-0.19-0.416-0.477-0.504-0.789-0.077-0.306-0.254-0.535-0.447-0.827zM18.813 21.497c0.263 0.215 0.434 0.461 0.513 0.779 0.083 0.296 0.2 0.532 0.371 0.798-0.279-0.19-0.454-0.449-0.542-0.76-0.077-0.306-0.168-0.535-0.342-0.817zM23.736 21.497c-0.269 0.217-0.443 0.464-0.525 0.784-0.085 0.298-0.204 0.535-0.379 0.803 0.285-0.191 0.464-0.451 0.554-0.765 0.079-0.308 0.172-0.538 0.35-0.822zM23.405 21.497c-0.288 0.226-0.56 0.483-0.641 0.803-0.085 0.298-0.136 0.526-0.33 0.822 0.304-0.191 0.425-0.48 0.515-0.794 0.079-0.308 0.259-0.538 0.457-0.832zM22.451 22.247c0.008-0.056-0.030-0.104-0.076-0.119-0.063-0.025-0.151-0.054-0.241-0.080l-0.024-0.006c-0.1-0.024-0.156 0.048-0.156 0.095-0 0.078-0.004 0.145 0 0.204 0.005 0.074 0.019 0.079 0.066 0.090 0.075 0.013 0.171 0.026 0.246 0.076 0.060 0.037 0.117 0.008 0.147-0.057 0.019-0.049 0.030-0.146 0.038-0.204zM21.374 22.247c-0.007-0.056 0.022-0.109 0.063-0.124 0.079-0.033 0.158-0.041 0.241-0.038 0.092-0.001 0.116 0.020 0.116 0.067 0 0.078 0.004 0.154 0 0.214-0.005 0.074-0.003 0.079-0.045 0.090-0.067 0.013-0.181 0.016-0.248 0.067-0.053 0.037-0.114 0.008-0.117-0.062 0.001-0.052-0.003-0.155-0.010-0.214zM20.068 22.233c-0.008-0.056 0.030-0.104 0.076-0.119 0.089-0.033 0.178-0.060 0.266-0.086 0.1-0.024 0.157 0.048 0.157 0.095 0 0.078 0.004 0.145 0 0.204-0.005 0.074-0.020 0.079-0.067 0.090-0.075 0.013-0.171 0.026-0.247 0.076-0.060 0.037-0.117 0.008-0.147-0.057-0.019-0.049-0.030-0.146-0.038-0.205zM21.149 22.233c0.007-0.056-0.022-0.109-0.063-0.123-0.080-0.033-0.159-0.042-0.242-0.038-0.093-0.002-0.116 0.019-0.117 0.066-0 0.078-0.004 0.154 0 0.214 0.005 0.074 0.003 0.079 0.045 0.090 0.067 0.013 0.182 0.016 0.249 0.067 0.053 0.037 0.114 0.008 0.117-0.062-0-0.005-0-0.011-0-0.017 0-0.069 0.004-0.138 0.011-0.205l-0.001 0.008zM20.148 22.727c0.097 0.182 0.208 0.459 0.409 0.409 0.003-0.139-0.217-0.236-0.408-0.409zM20.448 22.789c0.391 0.16 0.728 0.121 0.77 0.366-0.366 0.040-0.5-0.111-0.77-0.366zM22.363 22.751c-0.098 0.172-0.21 0.433-0.414 0.385-0.003-0.132 0.22-0.223 0.414-0.385zM22.089 22.803c-0.396 0.152-0.738 0.114-0.781 0.347 0.372 0.038 0.508-0.105 0.781-0.347z"></path>
<path fill="#fff" opacity="0.534" d="M23.258 18.911l0.851 0c0.003 0.322 0.192 0.667 0.456 0.865h-1.63c0.255-0.231 0.325-0.505 0.323-0.865z"></path>
<path fill="#fff" d="M23.258 18.911l0.851 0c0.003 0.322 0.192 0.667 0.456 0.865h-1.63c0.255-0.231 0.325-0.505 0.323-0.865z"></path>
<path fill="#000" d="M18.334 23.525c-0.102-0.066-0.148 0.020-0.076 0.109 0.094 0.103 0.246 0.165 0.404 0.209 0.092 0.026 0.283-0.007 0.38 0.005 0.076 0.009 0.119 0.163 0.257 0.157 0.139-0.006 0.228-0.375 0.233-0.561 0.006-0.123-0.164-0.044-0.147 0.005 0.044 0.122-0.037 0.395-0.124 0.394-0.064-0.004-0.132-0.136-0.228-0.152-0.075-0.013-0.189 0.009-0.266 0.009-0.226 0.002-0.323-0.11-0.432-0.176z"></path>
<path fill="#000" d="M18.525 23.425c0.121 0.060 0.226-0.047 0.295 0.029 0.176 0.2 0.402-0.096 0.138-0.086-0.107 0.004-0.123-0.081-0.309-0.062-0.099 0.013-0.181 0.085-0.124 0.119zM18.553 24.3c-0.095-0.042-0.127 0.049-0.071 0.105 0.079 0.072 0.405 0.1 0.485 0.043 0.132-0.1 0.036-0.363-0.024-0.437-0.037-0.045-0.148-0.049-0.105 0.071 0.018 0.056 0.099 0.194 0.033 0.257-0.060 0.058-0.227 0-0.318-0.038zM19.285 24.38c0.021-0.054-0.035-0.146-0.133-0.038-0.081 0.085-0.015 0.444 0.242 0.509 0.252 0.062 0.441-0.029 0.475-0.166 0.024-0.092-0.114-0.171-0.043-0.252 0.060-0.063 0.174 0.001 0.223-0.1 0.029-0.056 0.031-0.172-0.124-0.247-0.067-0.034-0.183 0.043-0.181 0.1 0.004 0.078 0.124 0.027 0.081 0.095-0.032 0.052-0.175 0.030-0.219 0.152-0.026 0.077 0.162 0.221 0.062 0.257-0.089 0.031-0.205 0.051-0.323-0.014-0.073-0.039-0.104-0.199-0.062-0.295zM18.378 23.886c-0.060 0.009-0.142 0.052-0.147 0.124-0.004 0.057 0.043 0.156 0.124 0.090 0.083-0.064 0.019-0.095 0.038-0.071 0.041 0.041-0.019 0.045-0.095 0.147-0.053 0.078-0.166 0.065-0.223 0.038-0.1-0.051-0.062-0.084-0.171-0.133-0.109-0.053-0.174 0.072-0.071 0.128 0.114 0.065 0.301 0.196 0.485 0.1 0.109-0.062 0.238-0.118 0.233-0.257-0.006-0.090-0.046-0.184-0.171-0.166zM24.289 23.838c-0.084-0.060-0.033-0.169 0.090-0.128 0.105 0.039 0.278 0.162 0.29 0.323 0.013 0.176-0.271 0.306-0.38 0.3-0.186-0.015-0.153-0.163-0.014-0.152 0.108 0.008 0.24-0.030 0.247-0.142 0.006-0.097-0.172-0.154-0.233-0.2zM23.676 23.407c-0.109-0.109 0.119-0.228 0.185-0.095 0.088 0.169 0.192 0.336 0.271 0.523 0.063 0.153-0.020 0.174-0.071 0.090-0.086-0.146-0.217-0.341-0.385-0.518zM23.144 23.734c0.117-0.051 0.114 0.095 0.071 0.124-0.077 0.043-0.181-0.071-0.071-0.124zM23.491 23.606c0.117-0.051 0.114 0.095 0.071 0.124-0.077 0.043-0.181-0.071-0.071-0.124z"></path>
<path fill="#000" d="M19.864 23.811c-0.175-0.112 0.036-0.279 0.157-0.152 0.174 0.177 0.34 0.566 0.471 0.713 0.125 0.145 0.024-0.392 0.062-0.551 0.026-0.088 0.095-0.076 0.095 0.009 0.001 0.219-0.033 0.664 0.024 0.699 0.106 0.060 0.087 0.159 0.176 0.142 0.095-0.023 0.081-0.047 0.166-0.052 0.085 0 0.087 0.085 0.185 0.071 0.062-0.008 0.081-0.079 0.157-0.081 0.069-0.006 0.039 0.146-0.005 0.171-0.072 0.040-0.295-0.044-0.361-0.038-0.079 0.002-0.221 0.075-0.309 0.043-0.107-0.038-0.083-0.174-0.157-0.152-0.083 0.019-0.067 0.171-0.266 0.219-0.093 0.021-0.124-0.062-0.076-0.119 0.086-0.092 0.26-0.166 0.233-0.252-0.080-0.24-0.323-0.528-0.551-0.67zM21.39 23.843c0.084 0.277 0.080 0.646 0.128 0.898 0.024 0.099 0.118 0.011 0.109-0.067-0.037-0.271-0.054-0.603-0.124-0.86-0.029-0.089-0.146-0.072-0.114 0.028zM21.623 23.915c-0.022-0.116 0.088-0.127 0.105-0.057 0.057 0.223 0.050 0.734 0.162 0.751 0.193 0.022 0.464-0.018 0.703-0.066 0.118-0.024 0.142-0.109 0.138-0.143-0.023-0.137 0.105-0.126 0.138 0.019 0.018 0.076-0.017 0.212-0.161 0.242-0.282 0.054-0.671 0.139-0.894 0.090-0.195-0.041-0.131-0.544-0.19-0.836z"></path>
<path fill="#000" d="M21.937 24.115c0.005-0.146 0.115-0.168 0.114-0.043 0.003 0.299 0.353 0.222 0.428 0.109 0.055-0.087 0.015-0.125-0.038-0.223-0.066-0.127 0.073-0.163 0.133-0.052 0.045 0.079 0.076 0.331-0.005 0.395-0.111 0.088-0.412 0.132-0.542 0.033-0.069-0.047-0.096-0.138-0.090-0.219zM21.785 23.724c0.016 0.094 0.271 0.062 0.261-0.010-0.009-0.061-0.275-0.047-0.261 0.010zM22.117 23.801c0.010 0.094 0.175 0.067 0.166-0.005-0.009-0.076-0.176-0.090-0.166 0.005zM22.616 23.686c-0.084-0.116 0.079-0.123 0.133-0.038 0.139 0.208 0.231 0.543 0.366 0.77 0.057 0.104 0.129 0.011 0.138-0.014 0.009-0.027-0.044-0.068-0.047-0.162-0.007-0.073 0.142-0.163 0.247-0.095 0.098 0.066 0.018 0.125 0.066 0.161 0.047 0.035 0.164 0.013 0.181-0.009 0.052-0.082-0.019-0.034-0.090-0.081-0.083-0.059-0.033-0.316 0.138-0.209 0.102 0.059 0.132 0.247 0.095 0.352-0.032 0.097-0.202 0.13-0.295 0.109-0.104-0.032-0.188-0.156-0.166-0.124 0.051 0.084-0.013 0.168-0.062 0.2-0.121 0.076-0.206 0.116-0.295-0.010-0.157-0.235-0.243-0.631-0.409-0.851z"></path>
<path fill="#fff" d="M18.187 7.58c-0.007-0.14 0.211-0.151 0.186 0.042-0.032 0.241 0.454 0.849 0.494 1.225 0.027 0.252-0.148 0.472-0.321 0.609-0.212 0.165-0.539 0.142-0.692 0.047-0.093-0.074-0.177-0.329-0.108-0.43 0.024-0.034 0.135 0.374 0.379 0.373 0.332-0.002 0.6-0.251 0.61-0.473 0.017-0.387-0.543-0.999-0.549-1.393zM19.159 8.536c0.055-0.039 0.142 0.132 0.081 0.175-0.051 0.034-0.152-0.127-0.081-0.175zM19.305 8.189c-0.028 0.013-0.083-0.006-0.066-0.029 0.078-0.111 0.243-0.278 0.363-0.336 0.037-0.018 0.101 0.047 0.079 0.079-0.072 0.102-0.246 0.223-0.376 0.286zM20.588 7.171c0.031-0.064 0.215-0.137 0.262-0.18 0.044-0.045 0.064 0.037 0.046 0.076-0.031 0.064-0.19 0.173-0.26 0.176-0.038 0.002-0.067-0.033-0.048-0.072zM21.026 7.191c0.040-0.113 0.169-0.284 0.258-0.34 0.046-0.029 0.128-0.006 0.112 0.037-0.034 0.096-0.192 0.263-0.298 0.342-0.032 0.029-0.081-0.013-0.072-0.039zM20.65 7.474c-0.027 0.013-0.012 0.070 0.014 0.079 0.055 0.018 0.155 0.022 0.2-0.003 0.066-0.040 0.036-0.29-0.052-0.157-0.059 0.082-0.102 0.056-0.161 0.081zM19.908 8.045c-0.134-0.104 0.036-0.251 0.176-0.149 0.273 0.206-0.407 0.996-0.778 1.365-0.068 0.072-0.127-0.11-0.040-0.188 0.266-0.225 0.514-0.494 0.687-0.773 0.033-0.053 0.065-0.169-0.045-0.255zM21.463 7.367c0.017-0.1-0.162 0.002-0.165-0.13-0.002-0.070 0.195-0.119 0.277-0.039 0.139 0.141 0.035 0.379-0.196 0.394-0.192 0.008-0.514 0.273-0.465 0.329 0.056 0.069 0.555 0.114 0.845 0.069 0.18-0.025 0.142 0.136-0.042 0.157-0.178 0.020-0.323 0.001-0.489 0.054-0.196 0.056-0.281 0.319-0.39 0.417-0.024 0.017-0.090-0.086-0.065-0.125 0.078-0.123 0.203-0.31 0.341-0.364 0.087-0.035-0.239-0.046-0.343-0.076-0.082-0.025-0.059-0.13-0.027-0.188 0.042-0.091 0.349-0.399 0.473-0.394 0.116 0.005 0.234-0.029 0.246-0.104zM21.981 7.393c0.058-0.051 0.087-0.136 0.148-0.188 0.033-0.033 0.086 0.007 0.078 0.087-0.008 0.063-0.092 0.118-0.149 0.165-0.047 0.035-0.101-0.040-0.076-0.064zM22.639 7.159c0.086-0.010 0.108 0.156 0.013 0.183-0.057 0.019-0.107-0.174-0.013-0.183zM22.423 7.672c-0.001 0.143 0.069 0.13 0.204 0.125 0.131-0.005 0.246 0.003 0.245-0.126-0.001-0.134-0.074-0.251-0.096-0.16-0.019 0.086-0.034 0.226-0.084 0.165-0.047-0.053-0.028-0.064-0.109 0.022-0.045 0.047-0.050-0.023-0.077-0.067-0.019-0.026-0.084 0.021-0.084 0.041zM21.483 8.402c-0.032 0.189-0.003 0.454 0.094 0.457 0.12 0.004 0.367-0.414 0.485-0.63 0.070-0.121 0.191-0.142 0.141-0.016-0.076 0.195-0.069 0.611-0.003 0.733 0.036 0.066 0.302-0.060 0.345-0.154 0.078-0.171 0.015-0.485 0.042-0.677 0.013-0.126 0.129-0.152 0.122-0.036-0.011 0.209-0.031 0.592-0.017 0.766 0.009 0.1 0.295 0.248 0.341-0.055 0.024-0.191 0.122-0.379-0.005-0.59-0.079-0.132 0.116-0.115 0.221 0.065 0.073 0.123-0.062 0.326-0.057 0.483 0.012 0.242-0.176 0.379-0.312 0.382-0.122 0.002-0.201-0.147-0.301-0.149-0.111-0.007-0.225 0.172-0.316 0.166-0.355-0.024-0.167-0.543-0.275-0.549-0.12-0.007-0.262 0.508-0.41 0.49-0.146-0.018-0.297-0.42-0.236-0.591 0.055-0.159 0.159-0.196 0.142-0.095z"></path>
<path fill="#fff" d="M23.202 7.583c-0.173-0.106 0.011-0.38 0.096-0.284 0.163 0.196 0.328 0.66 0.444 0.699 0.073 0.024 0.070-0.343 0.121-0.511 0.033-0.124 0.183-0.083 0.154 0.075-0.010 0.053-0.195 0.654-0.181 0.678 0.128 0.257 0.256 0.518 0.336 0.793 0.033 0.119-0.109 0.039-0.127 0.014-0.091-0.136-0.251-0.657-0.251-0.633-0.073 0.366-0.091 0.474-0.169 0.786-0.024 0.1-0.171 0.082-0.137-0.094 0.032-0.144 0.242-0.855 0.23-0.875-0.165-0.291-0.316-0.522-0.516-0.647z"></path>
<path fill="#fff" d="M23.515 9.273c-0.048-0.005-0.123 0.107 0.117 0.152 0.321 0.058 0.673-0.050 0.781-0.365 0.123-0.375 0.205-0.731 0.269-0.865 0.081-0.156 0.184-0.144 0.108-0.372-0.054-0.164-0.154-0.115-0.175-0.027-0.056 0.239-0.269 1.013-0.336 1.156-0.126 0.26-0.379 0.363-0.765 0.321z"></path>
<path fill="#fff" d="M24.158 8.038c-0.034-0.074-0.115-0.017-0.1 0.064 0.009 0.073 0.068 0.113 0.127 0.111 0.070-0.002 0.219 0.002 0.22-0.115 0-0.082-0.064-0.151-0.112-0.060-0.046 0.082-0.105 0.074-0.134 0zM24.239 7.729c-0.025 0.017-0.003 0.109 0.027 0.107 0.105-0.003 0.254-0.037 0.333-0.093 0.023-0.016 0.014-0.071-0.020-0.070-0.101 0.003-0.262 0.001-0.341 0.055zM25.13 7.959c0.076-0.119 0.286-0.131 0.21 0.039-0.053 0.117-0.576 1.126-0.647 1.254-0.078 0.144-0.141 0.073-0.086-0.040 0.074-0.145 0.499-1.218 0.523-1.253z"></path>
<path fill="#fff" d="M24.345 9.461c-0.022-0.080-0.147-0.199-0.133 0.016 0.025 0.39 0.56 0.267 0.723 0.128 0.147-0.13 0.020 0.44 0.215 0.501 0.108 0.035 0.311-0.113 0.41-0.242 0.277-0.359 0.453-0.873 0.719-1.228 0.1-0.139-0.055-0.238-0.118-0.127-0.231 0.388-0.519 1.18-0.833 1.385-0.256 0.164-0.18-0.211-0.189-0.323-0.011-0.082-0.112-0.204-0.246-0.092-0.094 0.073-0.24 0.133-0.372 0.121-0.077-0.004-0.141-0.003-0.177-0.138z"></path>
<path fill="#fff" d="M25.301 8.738c0.003-0.022-0.113-0.032-0.108 0.081 0.004 0.083 0.104 0.106 0.121 0.094 0.157-0.114-0.033-0.057-0.013-0.175zM25.072 9.194c-0.031 0.007-0.059 0.106 0.014 0.111 0.067 0.005 0.327-0.023 0.399-0.019 0.047-0.002 0.064-0.091-0.036-0.086-0.121 0.006-0.28-0.024-0.377-0.006zM26.798 9.078c0.107-0.401 0.366 0.062 0.138 0.29-0.352 0.345-0.458 1.003-1.017 1.102-0.151 0.032-0.416-0.068-0.494-0.124-0.031-0.022 0.020-0.165 0.114-0.095 0.136 0.106 0.417 0.13 0.566 0.009 0.317-0.312 0.576-0.724 0.694-1.183zM20.993 9.969c-0.025 0.029-0.102 0.024-0.109 0.065-0.030 0.151 0 0.227-0.033 0.372-0.032 0.139-0.128 0.144-0.122 0.031 0.009-0.147 0.13-0.354 0.044-0.368-0.057-0.013-0.101-0.089-0.042-0.127 0.111-0.077 0.171-0.065 0.247-0.042 0.027 0.008 0.034 0.047 0.014 0.070z"></path>
<path fill="#fff" d="M20.915 9.772c-0.148 0.129-0.284 0.182-0.42 0.345-0.055 0.067-0.054 0.16-0.087 0.245-0.033 0.090-0.14 0.108-0.173 0.089-0.055-0.036-0.047-0.204-0.109-0.114-0.052 0.083-0.086 0.197-0.164 0.196-0.070-0.001-0.202-0.145-0.135-0.152 0.229-0.023 0.227-0.207 0.312-0.219 0.096-0.013 0.103 0.152 0.162 0.119 0.047-0.024 0.069-0.216 0.119-0.267 0.156-0.159 0.279-0.243 0.437-0.36 0.080-0.064 0.137 0.052 0.057 0.118zM21.453 10.265c-0.118 0.024-0.098 0.176-0.063 0.194 0.057 0.027 0.146 0.038 0.179-0.137 0.015-0.072 0.029 0.356 0.186 0.191 0.090-0.1 0.314 0.018 0.408-0.107 0.067-0.084 0.088-0.142 0.035-0.266-0.015-0.037-0.107-0.019-0.102 0.072 0.005 0.077-0.055 0.172-0.131 0.156-0.037-0.007 0.021-0.188-0.016-0.237-0.021-0.027-0.052-0.024-0.073 0.004-0.029 0.039 0.029 0.213-0.066 0.236-0.12 0.027-0.057-0.116-0.108-0.143-0.163-0.082-0.178 0.021-0.25 0.036zM22.374 9.974c0.087-0.024 0.060-0.024 0.196-0.136 0.053-0.040 0.064 0.077 0.058 0.124-0.010 0.079-0.104 0.023-0.133 0.093-0.043 0.090-0.025 0.3-0.040 0.386-0.010 0.044-0.080 0.040-0.087 0.006-0.020-0.104 0.014-0.206 0.011-0.337-0.001-0.044-0.064-0.114-0.005-0.135zM21.968 9.504c-0.021 0.094-0.019 0.172-0.019 0.237 0.005 0.052 0.1 0.019 0.1 0.012-0.005-0.083 0.014-0.197-0.010-0.229-0.013-0.017-0.065-0.037-0.070-0.019z"></path>
<path fill="#fff" d="M18.187 7.58c-0.007-0.14 0.211-0.151 0.186 0.042-0.032 0.241 0.454 0.849 0.494 1.225 0.027 0.252-0.148 0.472-0.321 0.609-0.212 0.165-0.539 0.142-0.692 0.048-0.092-0.074-0.177-0.329-0.107-0.43 0.024-0.034 0.135 0.374 0.379 0.372 0.332-0.002 0.6-0.251 0.61-0.473 0.017-0.387-0.543-0.999-0.549-1.393z"></path>
<path fill="#fff" d="M18.765 7.498c0.041 0.002 0.155 0.149 0.147 0.195-0.005 0.022-0.121-0.003-0.157-0.033-0.026-0.022-0.016-0.163 0.009-0.162zM18.218 8.562c-0.104 0.057 0.016 0.168 0.094 0.121 0.291-0.189 0.729-0.387 0.82-0.76 0.029-0.127 0.147-0.321 0.259-0.364 0.108-0.042 0.265 0.195 0.367 0.009 0.060-0.107 0.27 0.070 0.321-0.044 0.062-0.138 0.032-0.214 0.035-0.346-0.005-0.087-0.071-0.112-0.119 0.028-0.025 0.063 0.004 0.127-0.016 0.16-0.015 0.025-0.064 0.050-0.092 0.029-0.026-0.019-0.008-0.073-0.070-0.097-0.024-0.012-0.063-0.022-0.079 0.009-0.073 0.131-0.114 0.253-0.217 0.114-0.091-0.12-0.138-0.327-0.205-0.043-0.024 0.1-0.176 0.245-0.266 0.245-0.112 0-0.084-0.295-0.33-0.25-0.126 0.027-0.118 0.269-0.099 0.358 0.031 0.124 0.4 0.035 0.382 0.116-0.063 0.282-0.455 0.55-0.787 0.716z"></path>
<path fill="#fff" d="M15.906 9.907c-0.016 0.047 0.047 0.175 0.112 0.185 0.064 0.005 0.097-0.138 0.076-0.185-0.015-0.034-0.177-0.033-0.188 0zM16.244 10.404c-0.041-0.044-0.162 0.074-0.064 0.158 0.055 0.044 0.256 0.109 0.311 0.015 0.074-0.121-0.073-0.559-0.008-0.617 0.051-0.045 0.288 0.293 0.405 0.317 0.275 0.038 0.209-0.47 0.505-0.436 0.202 0.027 0.224-0.225 0.196-0.383-0.023-0.151-0.267-0.369-0.379-0.466-0.148-0.123-0.214 0.091-0.121 0.161 0.119 0.096 0.33 0.289 0.363 0.417 0.016 0.060-0.146 0.18-0.206 0.148-0.137-0.075-0.265-0.397-0.386-0.471-0.041-0.025-0.142 0.032-0.093 0.132 0.055 0.108 0.296 0.274 0.31 0.389 0.013 0.105-0.108 0.331-0.186 0.331-0.087 0-0.308-0.274-0.377-0.402-0.035-0.062-0.154-0.056-0.167 0.029-0.020 0.128 0.018 0.398 0.049 0.566 0.024 0.159-0.089 0.167-0.15 0.111zM15.829 9.531c-0.035 0.039 0.081 0.116 0.104 0.096 0.044-0.038 0.217-0.235 0.184-0.304-0.030-0.061-0.267-0.195-0.305-0.129-0.072 0.115 0.223 0.166 0.177 0.2-0.023 0.013-0.104 0.069-0.159 0.137zM16.255 8.67s0.074 0.253 0.134 0.148c0.049-0.073-0.134-0.148-0.134-0.148zM16.376 9.073c-0.027 0.015-0.104 0.075-0.054 0.107 0.079 0.047 0.293 0.083 0.247-0.069-0.028-0.090 0.323 0.002 0.237-0.24-0.022-0.067-0.128-0.164-0.18-0.178-0.033-0.009-0.145 0.053-0.075 0.087 0.051 0.027 0.206 0.117 0.149 0.177-0.065 0.062-0.111-0.028-0.192-0.013-0.041 0.008-0.014 0.124-0.037 0.156-0.013 0.018-0.072-0.039-0.094-0.027zM16.933 8.11c-0.044 0.022-0.124 0.142-0.127 0.198-0.002 0.030 0.031 0.070 0.056 0.058 0.046-0.023 0.118-0.137 0.121-0.189 0.002-0.033-0.023-0.080-0.051-0.066zM17.222 8.079c-0.085-0.104 0.091-0.26 0.17-0.050 0.048 0.131 0.559 0.804 0.663 1.032 0.074 0.154-0.003 0.218-0.094 0.107-0.259-0.33-0.471-0.742-0.739-1.089zM17.747 8.092c0.091-0.099 0.277-0.3 0.227-0.413-0.038-0.097-0.151-0.087-0.171-0.065-0.111 0.132 0.078 0.099 0.051 0.144-0.056 0.106-0.113 0.164-0.142 0.266-0.007 0.024 0.017 0.086 0.034 0.068z"></path>
<path fill="#fff" d="M15.906 9.907c-0.016 0.047 0.047 0.175 0.112 0.185 0.064 0.005 0.097-0.138 0.076-0.185-0.015-0.034-0.177-0.033-0.188 0zM16.244 10.404c-0.041-0.044-0.162 0.074-0.064 0.158 0.055 0.044 0.256 0.109 0.311 0.015 0.074-0.121-0.073-0.559-0.008-0.617 0.051-0.045 0.288 0.293 0.405 0.317 0.275 0.038 0.209-0.47 0.505-0.436 0.202 0.027 0.224-0.225 0.196-0.382-0.023-0.151-0.267-0.369-0.379-0.467-0.148-0.123-0.214 0.091-0.121 0.161 0.119 0.096 0.33 0.289 0.363 0.417 0.016 0.060-0.146 0.18-0.206 0.148-0.137-0.075-0.265-0.397-0.386-0.471-0.041-0.025-0.142 0.032-0.093 0.132 0.055 0.108 0.296 0.274 0.31 0.389 0.013 0.105-0.108 0.331-0.187 0.331-0.087 0-0.308-0.274-0.377-0.403-0.035-0.062-0.154-0.056-0.167 0.029-0.020 0.128 0.018 0.398 0.049 0.566 0.024 0.159-0.089 0.167-0.15 0.111zM15.829 9.531c-0.035 0.039 0.081 0.116 0.103 0.096 0.044-0.038 0.217-0.235 0.184-0.304-0.030-0.061-0.267-0.195-0.305-0.129-0.072 0.115 0.223 0.166 0.177 0.2-0.023 0.013-0.104 0.069-0.159 0.137zM16.255 8.67s0.074 0.253 0.134 0.148c0.049-0.073-0.134-0.148-0.134-0.148zM16.376 9.073c-0.027 0.015-0.104 0.075-0.054 0.107 0.079 0.047 0.293 0.083 0.246-0.069-0.028-0.090 0.323 0.002 0.237-0.24-0.022-0.067-0.128-0.164-0.18-0.178-0.033-0.009-0.145 0.053-0.075 0.087 0.051 0.027 0.206 0.118 0.149 0.177-0.065 0.062-0.111-0.028-0.192-0.013-0.041 0.008-0.014 0.124-0.037 0.156-0.013 0.018-0.072-0.039-0.094-0.027zM16.933 8.11c-0.044 0.022-0.124 0.142-0.127 0.198-0.002 0.030 0.031 0.070 0.056 0.058 0.046-0.023 0.118-0.137 0.121-0.189 0.002-0.033-0.023-0.080-0.051-0.066zM17.222 8.079c-0.086-0.104 0.091-0.26 0.17-0.050 0.048 0.131 0.559 0.804 0.663 1.032 0.074 0.154-0.003 0.218-0.094 0.108-0.259-0.33-0.471-0.742-0.739-1.089zM17.747 8.092c0.091-0.099 0.277-0.3 0.227-0.413-0.038-0.097-0.151-0.087-0.171-0.065-0.111 0.132 0.078 0.099 0.051 0.144-0.056 0.106-0.113 0.164-0.142 0.266-0.007 0.024 0.018 0.086 0.034 0.068zM24.345 9.461c-0.022-0.080-0.147-0.199-0.133 0.016 0.025 0.39 0.56 0.267 0.722 0.128 0.147-0.131 0.020 0.44 0.215 0.501 0.108 0.035 0.311-0.113 0.41-0.242 0.277-0.359 0.453-0.874 0.719-1.228 0.1-0.139-0.055-0.237-0.118-0.127-0.231 0.388-0.519 1.18-0.832 1.385-0.256 0.164-0.18-0.211-0.189-0.323-0.011-0.082-0.112-0.204-0.246-0.092-0.094 0.073-0.24 0.133-0.372 0.121-0.077-0.004-0.141-0.003-0.177-0.138zM19.159 8.536c0.055-0.039 0.142 0.132 0.081 0.175-0.051 0.034-0.152-0.127-0.081-0.175z"></path>
<path fill="#fff" d="M25.667 8.422c-0.065-0.053 0.064-0.31 0.152-0.209 0.241 0.279 0.353 1.185 0.423 1.863 0 0-0.108 0.091-0.109 0.076 0-0.361-0.145-1.466-0.466-1.73z"></path>
<path fill="#fff" d="M19.305 8.189c-0.028 0.013-0.083-0.006-0.066-0.029 0.078-0.111 0.243-0.278 0.363-0.336 0.037-0.018 0.101 0.047 0.079 0.079-0.072 0.103-0.246 0.224-0.376 0.286zM25.667 8.423c-0.065-0.053 0.064-0.31 0.152-0.209 0.241 0.279 0.353 1.185 0.423 1.863 0 0-0.108 0.090-0.109 0.076 0-0.361-0.145-1.466-0.466-1.73z"></path>
<path fill="#fff" d="M21.463 7.367c0.017-0.1-0.162 0.002-0.165-0.13-0.002-0.070 0.195-0.119 0.277-0.039 0.139 0.141 0.035 0.379-0.196 0.394-0.192 0.009-0.514 0.273-0.465 0.329 0.056 0.069 0.555 0.114 0.845 0.069 0.18-0.025 0.142 0.136-0.042 0.157-0.178 0.020-0.323 0.001-0.489 0.054-0.196 0.056-0.281 0.319-0.39 0.417-0.024 0.017-0.090-0.086-0.065-0.125 0.078-0.123 0.203-0.31 0.341-0.364 0.087-0.035-0.239-0.046-0.343-0.076-0.082-0.025-0.059-0.13-0.027-0.188 0.042-0.091 0.349-0.399 0.473-0.394 0.116 0.005 0.234-0.029 0.246-0.104zM19.908 8.045c-0.134-0.105 0.036-0.251 0.176-0.149 0.273 0.206-0.407 0.996-0.778 1.365-0.068 0.072-0.127-0.11-0.040-0.188 0.266-0.225 0.514-0.494 0.687-0.773 0.033-0.053 0.065-0.169-0.045-0.255z"></path>
<path fill="#fff" d="M20.261 7.541c-0.078-0.179 0.117-0.246 0.146-0.118 0.135 0.589 0.46 1.035 0.707 1.435 0.074 0.125 0.015 0.2-0.166 0.085-0.125-0.086-0.252-0.399-0.314-0.411-0.111-0.021-0.378 0.508-0.924 0.357-0.141-0.040-0.132-0.459-0.135-0.644-0.006-0.087 0.090-0.11 0.093 0.009 0.005 0.171-0 0.526 0.218 0.538 0.178 0.010 0.573-0.242 0.656-0.439 0.074-0.203-0.199-0.605-0.283-0.811z"></path>
<path fill="#fff" d="M18.765 7.498c0.041 0.002 0.155 0.149 0.147 0.195-0.005 0.022-0.121-0.003-0.157-0.033-0.026-0.022-0.016-0.163 0.009-0.162zM18.218 8.562c-0.104 0.057 0.016 0.168 0.094 0.121 0.291-0.189 0.729-0.387 0.82-0.76 0.029-0.127 0.147-0.321 0.259-0.364 0.108-0.042 0.265 0.195 0.367 0.009 0.060-0.107 0.27 0.070 0.321-0.044 0.062-0.138 0.032-0.214 0.035-0.346-0.005-0.086-0.071-0.112-0.119 0.028-0.025 0.063 0.004 0.127-0.016 0.16-0.015 0.025-0.064 0.049-0.092 0.028-0.026-0.019-0.008-0.073-0.070-0.097-0.024-0.012-0.062-0.022-0.079 0.009-0.073 0.131-0.114 0.253-0.217 0.114-0.092-0.12-0.138-0.327-0.205-0.043-0.024 0.1-0.176 0.245-0.266 0.245-0.112 0-0.084-0.295-0.33-0.25-0.126 0.027-0.118 0.269-0.099 0.358 0.031 0.124 0.4 0.035 0.382 0.116-0.063 0.282-0.455 0.55-0.787 0.716zM20.261 7.541c-0.078-0.179 0.117-0.246 0.146-0.118 0.135 0.589 0.46 1.035 0.707 1.435 0.074 0.125 0.015 0.2-0.166 0.085-0.125-0.086-0.252-0.399-0.314-0.411-0.112-0.021-0.378 0.508-0.924 0.358-0.141-0.040-0.132-0.459-0.135-0.644-0.006-0.087 0.090-0.11 0.093 0.009 0.005 0.171-0 0.526 0.218 0.538 0.178 0.010 0.573-0.242 0.656-0.439 0.074-0.202-0.199-0.605-0.283-0.811zM20.588 7.171c0.031-0.064 0.215-0.137 0.262-0.18 0.044-0.045 0.064 0.038 0.046 0.076-0.031 0.064-0.19 0.173-0.26 0.176-0.038 0.002-0.067-0.033-0.048-0.072zM21.026 7.191c0.040-0.113 0.169-0.284 0.258-0.34 0.046-0.029 0.128-0.006 0.112 0.037-0.034 0.096-0.192 0.263-0.298 0.342-0.032 0.029-0.081-0.013-0.072-0.039zM20.65 7.474c-0.027 0.013-0.012 0.070 0.013 0.079 0.055 0.018 0.155 0.022 0.2-0.003 0.066-0.040 0.036-0.29-0.052-0.157-0.059 0.082-0.102 0.056-0.161 0.081zM21.981 7.393c0.058-0.051 0.087-0.136 0.148-0.188 0.033-0.033 0.086 0.007 0.077 0.087-0.007 0.063-0.092 0.118-0.149 0.165-0.047 0.035-0.101-0.040-0.076-0.064zM22.639 7.159c0.086-0.010 0.107 0.156 0.013 0.183-0.057 0.019-0.107-0.174-0.013-0.183zM22.423 7.672c-0.001 0.143 0.069 0.13 0.204 0.125 0.131-0.005 0.246 0.003 0.245-0.126-0.001-0.134-0.074-0.251-0.096-0.16-0.019 0.086-0.034 0.226-0.084 0.165-0.047-0.053-0.028-0.064-0.109 0.022-0.045 0.047-0.050-0.023-0.077-0.067-0.019-0.026-0.084 0.021-0.084 0.041zM21.483 8.402c-0.032 0.189-0.003 0.454 0.094 0.457 0.12 0.004 0.367-0.414 0.485-0.63 0.070-0.121 0.191-0.142 0.141-0.016-0.076 0.195-0.069 0.611-0.002 0.733 0.036 0.066 0.302-0.060 0.345-0.154 0.078-0.171 0.015-0.485 0.042-0.677 0.013-0.126 0.129-0.152 0.122-0.035-0.011 0.209-0.031 0.592-0.017 0.766 0.009 0.1 0.295 0.248 0.341-0.055 0.024-0.191 0.122-0.379-0.005-0.59-0.079-0.132 0.116-0.115 0.22 0.065 0.073 0.123-0.062 0.326-0.057 0.483 0.012 0.242-0.176 0.379-0.312 0.382-0.122 0.003-0.201-0.147-0.301-0.149-0.111-0.007-0.225 0.172-0.316 0.166-0.355-0.024-0.167-0.543-0.275-0.549-0.12-0.007-0.262 0.508-0.41 0.49-0.146-0.018-0.297-0.42-0.236-0.591 0.055-0.159 0.159-0.196 0.142-0.095z"></path>
<path fill="#fff" d="M23.202 7.583c-0.173-0.106 0.011-0.38 0.096-0.284 0.164 0.196 0.328 0.66 0.444 0.699 0.073 0.024 0.070-0.344 0.121-0.511 0.033-0.124 0.182-0.083 0.154 0.075-0.010 0.053-0.195 0.654-0.181 0.678 0.128 0.257 0.256 0.517 0.336 0.793 0.033 0.119-0.109 0.039-0.127 0.014-0.091-0.136-0.251-0.657-0.251-0.633-0.073 0.366-0.091 0.474-0.168 0.786-0.024 0.1-0.171 0.082-0.137-0.094 0.032-0.144 0.242-0.855 0.23-0.875-0.165-0.291-0.316-0.522-0.516-0.647z"></path>
<path fill="#fff" d="M23.515 9.273c-0.048-0.005-0.123 0.107 0.117 0.152 0.321 0.058 0.673-0.050 0.781-0.365 0.123-0.375 0.205-0.731 0.269-0.865 0.081-0.156 0.184-0.144 0.108-0.372-0.054-0.164-0.154-0.115-0.175-0.027-0.056 0.239-0.269 1.013-0.336 1.156-0.126 0.26-0.379 0.363-0.765 0.321z"></path>
<path fill="#fff" d="M24.158 8.038c-0.034-0.074-0.115-0.017-0.1 0.064 0.009 0.073 0.068 0.113 0.127 0.111 0.070-0.003 0.219 0.002 0.22-0.115 0-0.082-0.064-0.151-0.112-0.060-0.046 0.082-0.105 0.074-0.134 0zM24.239 7.729c-0.025 0.017-0.003 0.108 0.027 0.107 0.105-0.003 0.254-0.037 0.333-0.092 0.023-0.016 0.014-0.071-0.020-0.070-0.101 0.003-0.262 0.001-0.341 0.055zM25.13 7.959c0.076-0.119 0.286-0.131 0.21 0.039-0.053 0.117-0.576 1.126-0.647 1.254-0.078 0.144-0.141 0.073-0.086-0.039 0.074-0.145 0.499-1.218 0.523-1.253zM25.301 8.738c0.003-0.022-0.113-0.032-0.108 0.081 0.004 0.083 0.104 0.106 0.121 0.094 0.157-0.114-0.033-0.057-0.013-0.175z"></path>
<path fill="#fff" d="M25.815 10.005c0.044-0.121 0.622-1.093 0.699-1.307 0.039-0.103 0.205 0.177 0.043 0.328-0.142 0.128-0.563 0.818-0.642 1.060-0.036 0.109-0.146 0.057-0.1-0.081z"></path>
<path fill="#fff" d="M25.072 9.194c-0.031 0.007-0.059 0.106 0.014 0.112 0.067 0.005 0.327-0.023 0.399-0.019 0.047-0.002 0.064-0.091-0.036-0.086-0.121 0.006-0.28-0.024-0.377-0.006zM25.815 10.005c0.043-0.121 0.622-1.093 0.699-1.307 0.039-0.103 0.205 0.177 0.043 0.328-0.142 0.128-0.563 0.818-0.642 1.060-0.036 0.109-0.146 0.057-0.1-0.081z"></path>
<path fill="#fff" d="M26.798 9.078c0.107-0.401 0.366 0.062 0.138 0.29-0.352 0.345-0.458 1.003-1.017 1.102-0.151 0.032-0.416-0.068-0.494-0.124-0.031-0.022 0.020-0.165 0.114-0.095 0.136 0.106 0.417 0.13 0.566 0.009 0.317-0.312 0.576-0.724 0.694-1.183z"></path>
<path fill="#fff" d="M26.798 9.078c0.107-0.401 0.366 0.062 0.138 0.29-0.352 0.345-0.458 1.003-1.017 1.102-0.151 0.032-0.416-0.068-0.494-0.124-0.031-0.022 0.020-0.165 0.114-0.095 0.136 0.106 0.417 0.13 0.566 0.009 0.317-0.312 0.576-0.724 0.694-1.183zM21.453 10.265c-0.118 0.024-0.098 0.176-0.063 0.194 0.057 0.027 0.146 0.038 0.179-0.137 0.015-0.072 0.029 0.356 0.186 0.191 0.090-0.1 0.314 0.018 0.408-0.108 0.067-0.084 0.088-0.142 0.035-0.266-0.015-0.038-0.107-0.019-0.102 0.072 0.005 0.077-0.055 0.172-0.131 0.156-0.037-0.007 0.021-0.188-0.016-0.237-0.021-0.027-0.052-0.024-0.073 0.004-0.029 0.039 0.029 0.213-0.066 0.236-0.12 0.028-0.057-0.116-0.107-0.142-0.163-0.082-0.179 0.021-0.25 0.036zM22.374 9.974c0.087-0.024 0.060-0.024 0.196-0.136 0.053-0.040 0.064 0.077 0.058 0.124-0.010 0.079-0.104 0.023-0.133 0.093-0.043 0.090-0.025 0.3-0.040 0.386-0.010 0.044-0.080 0.040-0.087 0.006-0.020-0.104 0.014-0.206 0.011-0.337-0.001-0.044-0.064-0.114-0.005-0.135zM21.968 9.504c-0.021 0.094-0.019 0.172-0.019 0.237 0.005 0.052 0.1 0.019 0.1 0.012-0.005-0.083 0.014-0.197-0.010-0.229-0.013-0.017-0.065-0.037-0.070-0.019zM20.915 9.772c-0.148 0.129-0.284 0.182-0.42 0.345-0.055 0.067-0.054 0.16-0.087 0.245-0.033 0.090-0.14 0.108-0.173 0.089-0.055-0.036-0.047-0.204-0.109-0.114-0.052 0.083-0.086 0.198-0.164 0.196-0.070-0.001-0.202-0.145-0.135-0.152 0.229-0.023 0.227-0.207 0.312-0.219 0.096-0.013 0.103 0.152 0.162 0.119 0.047-0.024 0.069-0.216 0.119-0.267 0.156-0.159 0.279-0.243 0.437-0.36 0.080-0.064 0.137 0.052 0.057 0.118z"></path>
<path fill="#fff" d="M20.993 9.969c-0.025 0.029-0.102 0.024-0.109 0.065-0.030 0.151 0 0.227-0.033 0.372-0.032 0.139-0.128 0.144-0.122 0.031 0.009-0.147 0.13-0.354 0.044-0.368-0.057-0.013-0.101-0.090-0.042-0.127 0.111-0.077 0.171-0.065 0.247-0.042 0.027 0.008 0.034 0.047 0.014 0.070z"></path>
<path fill="#fff" d="M20.217 21.716c0.051 0.113 0.125 0.108 0.114-0-0.022-0.139-0.064-0.331-0.087-0.497-0.014-0.141-0.159-0.114-0.121 0.034 0.049 0.159 0.038 0.334 0.094 0.464zM20.654 21.723c-0.001 0.057 0.088 0.052 0.087 0.007-0.009-0.144-0.020-0.34 0.020-0.41 0.031-0.055 0.158-0.016 0.276-0.027 0.047-0.007 0.037-0.136-0.061-0.128-0.115 0.010-0.419-0.027-0.437 0.081-0.026 0.193 0.12-0.012 0.114 0.477zM21.534 21.165c0.074 0.053 0.063 0.122-0.027 0.101-0.108-0.027-0.18-0.018-0.178 0.041 0.002 0.058 0.047 0.069 0.113 0.134 0.063 0.066-0.039 0.055-0.117 0.191-0.067 0.112 0.069 0.127 0.23 0.085 0.041-0.012 0.095 0.059-0.007 0.116-0.071 0.038-0.27 0.085-0.319-0.059-0.094-0.249 0.157-0.284 0.051-0.35-0.058-0.035-0.078-0.087-0.068-0.157 0.022-0.16 0.262-0.139 0.323-0.101zM21.865 21.715c0.097-0.177 0.163-0.309 0.19-0.459 0.024-0.135 0.121-0.148 0.141-0.034 0.026 0.152 0.113 0.303 0.219 0.442 0.062 0.086-0.063 0.161-0.112 0.095-0.090-0.114-0.094-0.273-0.147-0.272-0.061 0.001-0.131 0.177-0.196 0.307-0.019 0.038-0.135-0-0.096-0.079z"></path>
<path fill="#fff" d="M20.217 21.716c0.051 0.113 0.125 0.108 0.114-0-0.022-0.139-0.064-0.331-0.087-0.497-0.013-0.141-0.159-0.114-0.121 0.034 0.049 0.159 0.038 0.334 0.094 0.464zM20.654 21.723c-0.001 0.057 0.088 0.052 0.088 0.007-0.009-0.144-0.020-0.339 0.020-0.41 0.031-0.055 0.158-0.016 0.276-0.027 0.047-0.007 0.037-0.136-0.060-0.127-0.115 0.010-0.419-0.027-0.437 0.080-0.026 0.193 0.12-0.012 0.114 0.477zM21.534 21.165c0.074 0.053 0.063 0.122-0.027 0.101-0.108-0.027-0.18-0.018-0.179 0.041 0.002 0.058 0.047 0.069 0.113 0.134 0.063 0.066-0.039 0.056-0.117 0.191-0.067 0.112 0.069 0.127 0.23 0.085 0.041-0.012 0.095 0.059-0.007 0.116-0.071 0.038-0.27 0.085-0.319-0.060-0.094-0.249 0.157-0.284 0.051-0.35-0.058-0.035-0.078-0.087-0.068-0.157 0.022-0.161 0.262-0.139 0.323-0.101zM21.865 21.715c0.097-0.176 0.163-0.309 0.19-0.459 0.024-0.135 0.121-0.148 0.141-0.034 0.026 0.152 0.113 0.303 0.219 0.442 0.062 0.086-0.063 0.161-0.112 0.095-0.090-0.114-0.094-0.273-0.147-0.272-0.061 0.001-0.131 0.177-0.196 0.307-0.019 0.038-0.135-0-0.096-0.079zM30.231 16.574c-0.007 0.036 0.091 0.090 0.114 0.062 0.105-0.126 0.243-0.373 0.271-0.523 0.008-0.044-0.132-0.093-0.162-0.057-0.098 0.118-0.194 0.361-0.223 0.518z"></path>
</svg>
