<!-- Generated by IcoMoon.io -->
<svg version="1.1" xmlns="http://www.w3.org/2000/svg" width="43" height="32" viewBox="0 0 43 32">
<title>ALL</title>
<path fill="#e41e20" d="M0 0h42.667v32h-42.667z"></path>
<path fill="#000" d="M18.139 6.221c-0.311-0.005-0.828 0.099-0.816 0.338-0.867-0.149-0.957 0.209-0.906 0.528 0.082-0.126 0.183-0.195 0.26-0.208 0.116-0.019 0.237 0.018 0.36 0.094s0.26 0.198 0.32 0.274c-0.306 0.073-0.542 0.026-0.782-0.016-0.118-0.021-0.284-0.087-0.382-0.156s-0.129-0.134-0.284-0.292c-0.182-0.187-0.376-0.134-0.316 0.156 0.14 0.269 0.374 0.39 0.668 0.438 0.142 0.023 0.353 0.074 0.592 0.074s0.508-0.035 0.654-0.004c-0.088 0.055-0.187 0.15-0.384 0.188-0.2 0.038-0.504-0.119-0.69-0.162 0.024 0.156 0.22 0.302 0.608 0.378 0.637 0.139 1.166 0.244 1.516 0.434s0.57 0.428 0.728 0.614c0.314 0.371 0.33 0.655 0.35 0.718 0.065 0.592-0.142 0.926-0.526 1.028-0.192 0.051-0.533-0.045-0.658-0.192s-0.247-0.399-0.212-0.794c0.034-0.155 0.211-0.559 0.060-0.642-0.695-0.384-1.539-0.773-2.15-1.004-0.167-0.063-0.304 0.164-0.358 0.252-1.037-0.126-1.973-0.828-2.394-1.576-0.287-0.509-0.759 0.001-0.68 0.482 0.128 0.537 0.537 0.925 1.028 1.2 0.504 0.277 1.133 0.55 1.77 0.536 0.343 0.065 0.34 0.509-0.072 0.592-0.805 0.005-1.447-0.015-2.054-0.6-0.46-0.42-0.719 0.080-0.586 0.364 0.225 0.874 1.472 1.119 2.734 0.836 0.489-0.081 0.196 0.443 0.058 0.448-0.527 0.378-1.471 0.748-2.302-0.004-0.38-0.291-0.637-0.046-0.496 0.374 0.369 1.096 1.779 0.866 2.748 0.326 0.249-0.139 0.476 0.184 0.172 0.43-1.204 0.842-1.807 0.851-2.35 0.528-0.68-0.268-0.74 0.486-0.336 0.734 0.449 0.275 1.592 0.069 2.43-0.458 0.359-0.267 0.376 0.151 0.148 0.316-0.995 0.86-1.387 1.086-2.424 0.946-0.514-0.040-0.507 0.594-0.102 0.842 0.552 0.339 1.631-0.224 2.468-0.918 0.352-0.188 0.41 0.12 0.236 0.486-0.511 0.645-0.992 1.026-1.454 1.202s-0.907 0.148-1.222 0.040c-0.384-0.132-0.432 0.267-0.22 0.63 0.128 0.219 0.658 0.289 1.23 0.086s1.186-0.679 1.608-1.236c0.367-0.321 0.321 0.11 0.154 0.414-0.844 1.335-1.617 1.83-2.634 1.746-0.451-0.077-0.553 0.274-0.266 0.598 0.505 0.419 1.136 0.405 1.688-0.008 0.491-0.473 1.43-1.492 1.922-2.038 0.347-0.277 0.458-0.004 0.356 0.558-0.093 0.322-0.324 0.661-0.956 0.908-0.431 0.246-0.107 0.586 0.216 0.592 0.178 0.003 0.539-0.205 0.816-0.516 0.364-0.41 0.385-0.685 0.586-1.322 0.19-0.311 0.528-0.166 0.528 0.16-0.162 0.638-0.302 0.753-0.63 1.014-0.314 0.295 0.219 0.393 0.398 0.272 0.519-0.35 0.709-0.802 0.882-1.214 0.125-0.297 0.488-0.153 0.32 0.332-0.402 1.159-1.063 1.616-2.22 1.85-0.117 0.021-0.189 0.090-0.148 0.226 0.155 0.161 0.311 0.307 0.466 0.468-0.715 0.208-1.296 0.325-2.012 0.534-0.351-0.23-0.635-0.426-0.986-0.656-0.093-0.216-0.136-0.547-0.654-0.314-0.351-0.162-0.513-0.103-0.708 0.060 0.281 0.010 0.404 0.086 0.514 0.214 0.144 0.379 0.476 0.416 0.816 0.308 0.221 0.186 0.339 0.329 0.56 0.516-0.413-0.014-0.7-0.021-1.112-0.034-0.393-0.422-0.707-0.399-0.988-0.068-0.214 0.033-0.305 0.038-0.452 0.298 0.231-0.095 0.376-0.123 0.476-0.020 0.418 0.242 0.691 0.188 0.898 0 0.403 0.025 0.766 0.046 1.17 0.072-0.148 0.126-0.352 0.193-0.5 0.32-0.605-0.173-0.921 0.060-1.028 0.554-0.081 0.199-0.119 0.405-0.084 0.618 0.059-0.195 0.153-0.363 0.326-0.468 0.54 0.137 0.743-0.083 0.772-0.406 0.26-0.212 0.652-0.259 0.912-0.474 0.304 0.097 0.45 0.157 0.756 0.254 0.109 0.33 0.355 0.461 0.754 0.376 0.475 0.015 0.391 0.21 0.43 0.366 0.126-0.224 0.123-0.442-0.17-0.64-0.107-0.289-0.343-0.421-0.652-0.254-0.291-0.083-0.368-0.202-0.658-0.284 0.734-0.234 1.255-0.287 1.988-0.52 0.184 0.173 0.329 0.298 0.514 0.452 0.097 0.058 0.191 0.073 0.248 0 0.46-0.665 0.665-1.251 1.092-1.69 0.163-0.181 0.369-0.426 0.598-0.486 0.114-0.030 0.255-0.012 0.344 0.086s0.16 0.278 0.13 0.546c-0.043 0.385-0.136 0.507-0.244 0.738s-0.24 0.373-0.376 0.55c-0.272 0.354-0.63 0.56-0.842 0.698-0.424 0.277-0.604 0.156-0.932 0.138-0.424 0.048-0.537 0.254-0.19 0.54 0.325 0.169 0.617 0.19 0.854 0.146 0.204-0.038 0.442-0.301 0.612-0.442 0.191-0.221 0.508 0.041 0.292 0.298-0.393 0.467-0.786 0.775-1.27 0.768-0.509 0.069-0.414 0.355-0.076 0.494 0.608 0.251 1.157-0.219 1.436-0.528 0.215-0.235 0.368-0.245 0.33 0.12-0.214 0.66-0.506 0.915-0.982 0.948-0.386-0.036-0.391 0.262-0.108 0.464 0.644 0.446 1.11-0.313 1.328-0.772 0.155-0.414 0.393-0.217 0.418 0.124 0.003 0.456-0.203 0.828-0.754 1.294 0.422 0.672 0.914 1.356 1.336 2.030l1.28-14.26-1.28-2.253c-0.133-0.123-0.584-0.654-0.702-0.728-0.043-0.046-0.069-0.078-0.006-0.102 0.061-0.023 0.204-0.049 0.3-0.066-0.271-0.272-0.504-0.359-1.018-0.508 0.125-0.053 0.247-0.022 0.616-0.040-0.146-0.208-0.474-0.526-0.896-0.68 0.279-0.198 0.333-0.212 0.61-0.444-0.479-0.034-0.888-0.125-1.3-0.25-0.26-0.122-0.622-0.225-0.798-0.228zM18.185 6.779c0.253 0 0.41 0.087 0.41 0.192 0 0.107-0.157 0.194-0.41 0.194-0.252 0-0.412-0.095-0.412-0.202 0-0.105 0.16-0.184 0.412-0.184z"></path>
<path fill="#000" d="M24.527 6.221c0.311-0.005 0.828 0.099 0.816 0.338 0.867-0.149 0.957 0.209 0.906 0.528-0.082-0.126-0.183-0.195-0.26-0.208-0.116-0.019-0.237 0.018-0.36 0.094s-0.26 0.198-0.32 0.274c0.306 0.073 0.542 0.026 0.782-0.016 0.118-0.021 0.284-0.087 0.382-0.156s0.129-0.134 0.284-0.292c0.182-0.187 0.376-0.134 0.316 0.156-0.14 0.269-0.374 0.39-0.668 0.438-0.142 0.023-0.353 0.074-0.592 0.074s-0.508-0.035-0.654-0.004c0.088 0.055 0.187 0.15 0.384 0.188 0.2 0.038 0.504-0.119 0.69-0.162-0.024 0.156-0.22 0.302-0.608 0.378-0.637 0.139-1.166 0.244-1.516 0.434s-0.57 0.428-0.728 0.614c-0.314 0.371-0.33 0.655-0.35 0.718-0.065 0.592 0.142 0.926 0.526 1.028 0.192 0.051 0.533-0.045 0.658-0.192s0.247-0.399 0.212-0.794c-0.034-0.155-0.211-0.559-0.060-0.642 0.695-0.384 1.539-0.773 2.15-1.004 0.167-0.063 0.304 0.164 0.358 0.252 1.037-0.126 1.973-0.828 2.394-1.576 0.287-0.509 0.759 0.001 0.68 0.482-0.128 0.537-0.537 0.925-1.028 1.2-0.504 0.277-1.133 0.55-1.77 0.536-0.343 0.065-0.34 0.509 0.072 0.592 0.805 0.005 1.447-0.015 2.054-0.6 0.46-0.42 0.719 0.080 0.586 0.364-0.225 0.874-1.472 1.119-2.734 0.836-0.489-0.081-0.196 0.443-0.058 0.448 0.527 0.378 1.471 0.748 2.302-0.004 0.38-0.291 0.637-0.046 0.496 0.374-0.369 1.096-1.779 0.866-2.748 0.326-0.249-0.139-0.476 0.184-0.172 0.43 1.204 0.842 1.807 0.851 2.35 0.528 0.68-0.268 0.74 0.486 0.336 0.734-0.449 0.275-1.592 0.069-2.43-0.458-0.359-0.267-0.376 0.151-0.148 0.316 0.995 0.86 1.387 1.086 2.424 0.946 0.514-0.040 0.507 0.594 0.102 0.842-0.552 0.339-1.631-0.224-2.468-0.918-0.352-0.188-0.41 0.12-0.236 0.486 0.511 0.645 0.992 1.026 1.454 1.202s0.907 0.148 1.222 0.040c0.384-0.132 0.432 0.267 0.22 0.63-0.128 0.219-0.658 0.289-1.23 0.086s-1.186-0.679-1.608-1.236c-0.367-0.321-0.321 0.11-0.154 0.414 0.844 1.335 1.617 1.83 2.634 1.746 0.451-0.077 0.553 0.274 0.266 0.598-0.505 0.419-1.136 0.405-1.688-0.008-0.491-0.473-1.43-1.492-1.922-2.038-0.347-0.277-0.458-0.004-0.356 0.558 0.093 0.322 0.324 0.661 0.956 0.908 0.431 0.246 0.107 0.586-0.216 0.592-0.178 0.003-0.539-0.205-0.816-0.516-0.364-0.41-0.385-0.685-0.586-1.322-0.19-0.311-0.528-0.166-0.528 0.16 0.162 0.638 0.302 0.753 0.63 1.014 0.314 0.295-0.219 0.393-0.398 0.272-0.519-0.35-0.709-0.802-0.882-1.214-0.125-0.297-0.488-0.153-0.32 0.332 0.402 1.159 1.063 1.616 2.22 1.85 0.117 0.021 0.189 0.090 0.148 0.226-0.155 0.161-0.311 0.307-0.466 0.468 0.715 0.208 1.296 0.325 2.012 0.534 0.351-0.23 0.635-0.426 0.986-0.656 0.093-0.216 0.136-0.547 0.654-0.314 0.351-0.162 0.513-0.103 0.708 0.060-0.281 0.010-0.404 0.086-0.514 0.214-0.144 0.379-0.476 0.416-0.816 0.308-0.221 0.186-0.339 0.329-0.56 0.516 0.413-0.014 0.7-0.021 1.112-0.034 0.393-0.422 0.707-0.399 0.988-0.068 0.214 0.033 0.305 0.038 0.452 0.298-0.231-0.095-0.376-0.123-0.476-0.020-0.418 0.242-0.691 0.188-0.898 0-0.403 0.025-0.766 0.046-1.17 0.072 0.148 0.126 0.352 0.193 0.5 0.32 0.605-0.173 0.921 0.060 1.028 0.554 0.081 0.199 0.119 0.405 0.084 0.618-0.059-0.195-0.153-0.363-0.326-0.468-0.54 0.137-0.743-0.083-0.772-0.406-0.26-0.212-0.652-0.259-0.912-0.474-0.304 0.097-0.45 0.157-0.756 0.254-0.109 0.33-0.355 0.461-0.754 0.376-0.475 0.015-0.391 0.21-0.43 0.366-0.126-0.224-0.123-0.442 0.17-0.64 0.107-0.289 0.343-0.421 0.652-0.254 0.291-0.083 0.368-0.202 0.658-0.284-0.734-0.234-1.255-0.287-1.988-0.52-0.184 0.173-0.329 0.298-0.514 0.452-0.097 0.058-0.191 0.073-0.248 0-0.46-0.665-0.665-1.251-1.092-1.69-0.163-0.181-0.369-0.426-0.598-0.486-0.114-0.030-0.255-0.012-0.344 0.086s-0.16 0.278-0.13 0.546c0.043 0.385 0.136 0.507 0.244 0.738s0.24 0.373 0.376 0.55c0.272 0.354 0.63 0.56 0.842 0.698 0.424 0.277 0.604 0.156 0.932 0.138 0.424 0.048 0.537 0.254 0.19 0.54-0.325 0.169-0.617 0.19-0.854 0.146-0.204-0.038-0.442-0.301-0.612-0.442-0.191-0.221-0.508 0.041-0.292 0.298 0.393 0.467 0.786 0.775 1.27 0.768 0.509 0.069 0.414 0.355 0.076 0.494-0.608 0.251-1.157-0.219-1.436-0.528-0.215-0.235-0.368-0.245-0.33 0.12 0.214 0.66 0.506 0.915 0.982 0.948 0.386-0.036 0.391 0.262 0.108 0.464-0.644 0.446-1.11-0.313-1.328-0.772-0.155-0.414-0.393-0.217-0.418 0.124-0.003 0.456 0.203 0.828 0.754 1.294-0.422 0.672-0.914 1.356-1.336 2.030l-1.28-14.26 1.28-2.253c0.133-0.123 0.584-0.654 0.702-0.728 0.043-0.046 0.069-0.078 0.006-0.102-0.061-0.023-0.204-0.049-0.3-0.066 0.271-0.272 0.504-0.359 1.018-0.508-0.125-0.053-0.247-0.022-0.616-0.040 0.146-0.208 0.474-0.526 0.896-0.68-0.279-0.198-0.333-0.212-0.61-0.444 0.479-0.034 0.888-0.125 1.3-0.25 0.26-0.122 0.622-0.225 0.798-0.228zM24.481 6.779c-0.253 0-0.41 0.087-0.41 0.192 0 0.107 0.157 0.194 0.41 0.194 0.252 0 0.412-0.095 0.412-0.202 0-0.105-0.16-0.184-0.412-0.184z"></path>
</svg>
