<!-- Generated by IcoMoon.io -->
<svg version="1.1" xmlns="http://www.w3.org/2000/svg" width="43" height="32" viewBox="0 0 43 32">
<title>AOA</title>
<path fill="#f00" d="M0 0h42.667v16.238h-42.667z"></path>
<path fill="#000" d="M0 15.762h42.667v16.238h-42.667z"></path>
<path fill="#ffec00" d="M15.245 9.878c11.015 2.887 3.933 17.043-4.748 11.151l-0.588 0.903c5.109 3.644 10.171 0.711 11.593-3.091 1.486-3.919-0.501-9.432-6.167-10.002l-0.090 1.038z"></path>
<path fill="#ffec00" d="M11.33 22.055l1.449 0.675-0.676 1.446-1.449-0.675zM21.263 15.423h1.599v1.596h-1.599zM20.484 12.83l1.489-0.58 0.58 1.487-1.489 0.58zM18.757 10.884l1.136-1.123 1.125 1.134-1.136 1.123zM17.005 8.232l1.496 0.564-0.565 1.493-1.496-0.564zM21.073 18.001l1.484 0.593-0.593 1.482-1.484-0.592zM16.415 22.671l1.471-0.626 0.627 1.468-1.471 0.626zM13.781 22.855h1.599v1.596h-1.599zM16.534 15.126l-1.357-1-1.35 0.965 0.536-1.528-1.357-0.997 1.63-0.011 0.571-1.503 0.519 1.513 1.647-0.016-1.306 1.015 0.466 1.563z"></path>
<path fill="#fe0" d="M22.402 23.092c-0.081 0.028-0.415 0.826-0.645 1.217 0.12 0.034 0.171 0.040 0.242 0.068 0.91 0.32 1.359 0.612 1.746 1.167 0.193 0.186 0.469 0.195 0.68 0.046 0 0 0.186-0.074 0.429-0.335 0.198-0.301 0.146-0.541-0.092-0.744-0.73-0.53-1.527-0.927-2.359-1.42z"></path>
<path fill="#000" d="M24.35 24.856c0 0.159-0.129 0.288-0.289 0.288s-0.289-0.129-0.289-0.288 0.129-0.288 0.289-0.288 0.289 0.129 0.289 0.288zM22.925 23.945c0 0.159-0.129 0.288-0.289 0.288s-0.289-0.129-0.289-0.288 0.129-0.288 0.289-0.288 0.289 0.129 0.289 0.288zM23.651 24.41c0 0.159-0.129 0.288-0.289 0.288s-0.289-0.129-0.289-0.288 0.129-0.288 0.289-0.288 0.289 0.129 0.289 0.288z"></path>
<path fill="#fe0" d="M21.631 24.244c-2.838-1.618-5.821-3.368-8.659-4.986-1.25-0.776-1.312-2.226-0.478-3.325 0.087-0.156 0.189-0.117 0.234-0.035 0.098 0.535 0.398 1.088 0.758 1.433 2.98 1.892 5.849 3.72 8.781 5.708-0.23 0.384-0.407 0.821-0.637 1.206z"></path>
<path fill="#ffec00" d="M19.812 20.364l1.19 1.066-1.067 1.188-1.19-1.066z"></path>
</svg>
