<!-- Generated by IcoMoon.io -->
<svg version="1.1" xmlns="http://www.w3.org/2000/svg" width="43" height="32" viewBox="0 0 43 32">
<title>ARS</title>
<path fill="#00c4ff" d="M0-0.001h42.667v10.695h-42.667z"></path>
<path fill="#fff" d="M0 10.651h42.667v10.695h-42.667z"></path>
<path fill="#00c4ff" d="M0 21.302h42.667v10.695h-42.667z"></path>
<path fill="#ffd600" d="M24.225 16.133c0 1.573-1.301 2.848-2.907 2.848s-2.906-1.275-2.906-2.848 1.301-2.848 2.907-2.848 2.906 1.275 2.906 2.848z"></path>
<path fill="#efc000" d="M19.55 14.948c0.193-0.152 0.821-0.158 1.467 0.198 0.098-0.023 0.16-0.089 0.080-0.181-0.486-0.164-1.052-0.371-1.574-0.215-0.142 0.098-0.107 0.161 0.027 0.198z"></path>
<path fill="#efc000" d="M22.99 14.948c-0.193-0.152-0.821-0.158-1.467 0.198-0.098-0.023-0.16-0.089-0.080-0.181 0.486-0.164 1.052-0.371 1.574-0.215 0.142 0.098 0.107 0.161-0.027 0.198z"></path>
<path fill="#f0bf00" d="M19.293 15.457c0.637-0.396 1.479-0.19 1.832 0.026-0.516-0.095-0.525-0.138-0.898-0.146-0.264 0.009-0.652-0.017-0.934 0.121z"></path>
<path fill="#000" opacity="0.368" d="M20.585 15.606c-0.092 0.101-0.318 0.161-0.504 0.134s-0.262-0.131-0.17-0.232c0.092-0.101 0.318-0.161 0.504-0.134s0.262 0.131 0.17 0.232z"></path>
<path fill="#ffd700" d="M20.127 15.476c0.010 0.024-0.020 0.055-0.066 0.070s-0.091 0.008-0.1-0.015c-0.010-0.024 0.020-0.055 0.066-0.070s0.091-0.008 0.1 0.015z"></path>
<path fill="#ffd700" d="M20.337 19.251c-0.337 0.854 0.032 1.26-0.133 1.72-0.159 0.443-0.849 1.541-0.323 2.018 0.418 0.019-0.072-0.605 0.763-1.761 0.388-0.541-0.101-0.884 0.307-1.946 0.038-0.091-0.561-0.167-0.614-0.032z"></path>
<path fill="#ffd700" d="M21.050 19.315c-0.129 0.959-0.052 3.904 0.257 3.787 0.343 0.107 0.388-2.886 0.357-3.771-0.005-0.098-0.596-0.159-0.614-0.016z"></path>
<path fill="#f0bf00" d="M20.207 17.466c0.308-0.034 0.826-0.262 1.010-0.074 0.159-0.169 0.718 0.049 1.077 0.074-0.261 0.154-0.788 0.049-1.039 0.212-0.245-0.145-0.785-0.012-1.048-0.212z"></path>
<path fill="#f0bf00" d="M20.704 17.734c0.467 0.185 0.572 0.157 1.077 0.018-0.105 0.268-0.372 0.324-0.524 0.314-0.157-0.010-0.372 0.009-0.553-0.332z"></path>
<path fill="#ffd700" d="M19.744 18.987c-0.376 0.839-0.933 0.879-1.147 1.32-0.206 0.424-0.505 1.677-1.225 1.662-0.312-0.27 0.489-0.384 0.725-1.776 0.114-0.65 0.71-0.563 1.185-1.599 0.038-0.091 0.521 0.261 0.462 0.393z"></path>
<path fill="#ffd700" d="M18.367 17.691c-0.866 0.365-0.907 0.904-1.361 1.112-0.438 0.2-1.73 0.491-1.714 1.188 0.278 0.302 0.396-0.474 1.832-0.704 0.67-0.11 0.581-0.689 1.649-1.149 0.093-0.037-0.27-0.505-0.406-0.447z"></path>
<path fill="#ffd700" d="M18.095 17.084c-0.88 0.331-1.301-0.024-1.775 0.138-0.456 0.156-1.585 0.831-2.081 0.325-0.022-0.404 0.625 0.067 1.813-0.749 0.556-0.379 0.913 0.093 2.006-0.309 0.093-0.037 0.175 0.543 0.037 0.595z"></path>
<path fill="#ffd700" d="M20.372 19.179c-0.275 0.929-1.556 3.602-1.791 3.374-0.359-0.034 0.829-2.797 1.222-3.596 0.044-0.088 0.612 0.084 0.57 0.222z"></path>
<path fill="#ffd700" d="M19.158 18.591c-0.602 0.771-2.79 2.817-2.925 2.523-0.322-0.157 1.813-2.32 2.477-2.929 0.074-0.067 0.54 0.292 0.449 0.406z"></path>
<path fill="#ffd700" d="M18.4 17.605c-0.86 0.49-3.688 1.572-3.697 1.25-0.236-0.264 2.589-1.474 3.442-1.791 0.095-0.034 0.384 0.469 0.255 0.541z"></path>
<path fill="#ffd700" d="M24.608 16.412c0.989 0.125 4.029 0.051 3.907-0.249 0.111-0.332-2.978-0.376-3.891-0.346-0.101 0.004-0.164 0.577-0.017 0.595z"></path>
<path fill="#ffd700" d="M22.317 19.293c0.337 0.854-0.032 1.26 0.133 1.72 0.159 0.443 0.849 1.541 0.323 2.018-0.418 0.019 0.072-0.605-0.763-1.761-0.388-0.541 0.101-0.884-0.307-1.946-0.038-0.091 0.561-0.167 0.614-0.032z"></path>
<path fill="#ffd700" d="M22.934 19.029c0.376 0.839 0.933 0.879 1.147 1.32 0.206 0.424 0.505 1.677 1.225 1.662 0.312-0.27-0.489-0.384-0.725-1.776-0.114-0.65-0.71-0.563-1.185-1.599-0.038-0.091-0.521 0.261-0.462 0.393z"></path>
<path fill="#ffd700" d="M24.312 17.712c0.866 0.365 0.907 0.904 1.361 1.112 0.438 0.2 1.73 0.491 1.714 1.188-0.278 0.302-0.396-0.474-1.832-0.704-0.67-0.11-0.581-0.689-1.649-1.149-0.093-0.037 0.27-0.505 0.406-0.447z"></path>
<path fill="#ffd700" d="M24.559 17.084c0.88 0.331 1.301-0.024 1.775 0.138 0.456 0.156 1.585 0.831 2.081 0.325 0.022-0.404-0.625 0.067-1.813-0.749-0.556-0.379-0.913 0.093-2.006-0.309-0.093-0.037-0.175 0.543-0.037 0.595z"></path>
<path fill="#ffd700" d="M22.302 19.222c0.275 0.929 1.556 3.602 1.791 3.374 0.359-0.034-0.829-2.797-1.222-3.596-0.044-0.088-0.612 0.084-0.57 0.222z"></path>
<path fill="#ffd700" d="M23.462 18.591c0.602 0.771 2.79 2.817 2.925 2.523 0.322-0.157-1.813-2.32-2.477-2.929-0.074-0.067-0.54 0.292-0.449 0.406z"></path>
<path fill="#ffd700" d="M24.29 17.605c0.86 0.49 3.688 1.572 3.697 1.25 0.236-0.264-2.589-1.474-3.442-1.791-0.095-0.034-0.384 0.469-0.255 0.541z"></path>
<path fill="#ffd700" d="M18.036 15.852c-0.989-0.125-4.029-0.051-3.907 0.249-0.111 0.332 2.978 0.376 3.891 0.346 0.101-0.004 0.164-0.578 0.017-0.595z"></path>
<path fill="#ffd700" d="M20.329 12.97c-0.337-0.854 0.032-1.26-0.133-1.72-0.159-0.443-0.849-1.541-0.323-2.018 0.418-0.019-0.072 0.605 0.763 1.761 0.388 0.541-0.101 0.884 0.307 1.946 0.038 0.091-0.561 0.167-0.614 0.032z"></path>
<path fill="#ffd700" d="M19.71 13.234c-0.376-0.839-0.933-0.879-1.147-1.32-0.206-0.424-0.505-1.677-1.225-1.662-0.312 0.27 0.489 0.384 0.725 1.776 0.114 0.65 0.71 0.563 1.185 1.599 0.038 0.091 0.521-0.261 0.462-0.393z"></path>
<path fill="#ffd700" d="M18.334 14.551c-0.866-0.365-0.907-0.904-1.361-1.112-0.438-0.2-1.73-0.491-1.714-1.188 0.278-0.302 0.396 0.474 1.832 0.704 0.67 0.11 0.581 0.689 1.649 1.149 0.093 0.037-0.27 0.505-0.406 0.447z"></path>
<path fill="#ffd700" d="M18.086 15.179c-0.88-0.331-1.301 0.024-1.775-0.138-0.456-0.156-1.585-0.831-2.081-0.325-0.022 0.404 0.625-0.067 1.813 0.749 0.556 0.379 0.913-0.093 2.006 0.309 0.093 0.037 0.175-0.543 0.037-0.595z"></path>
<path fill="#ffd700" d="M20.343 13.042c-0.275-0.929-1.556-3.602-1.791-3.374-0.359 0.034 0.829 2.797 1.222 3.596 0.044 0.088 0.612-0.084 0.57-0.222z"></path>
<path fill="#ffd700" d="M19.183 13.672c-0.602-0.771-2.79-2.817-2.925-2.523-0.322 0.157 1.813 2.32 2.477 2.929 0.074 0.067 0.54-0.292 0.449-0.406z"></path>
<path fill="#ffd700" d="M18.355 14.657c-0.86-0.49-3.688-1.572-3.697-1.25-0.236 0.264 2.589 1.474 3.442 1.791 0.095 0.034 0.384-0.469 0.255-0.541z"></path>
<path fill="#ffd700" d="M21.59 12.947c0.129-0.959 0.052-3.905-0.257-3.787-0.343-0.107-0.388 2.886-0.357 3.771 0.005 0.098 0.596 0.159 0.614 0.016z"></path>
<path fill="#ffd700" d="M24.563 15.169c0.882-0.326 1.301 0.031 1.775-0.129 0.457-0.154 1.59-0.823 2.082-0.313 0.019 0.405-0.625-0.070-1.817 0.739-0.558 0.376-0.912-0.098-2.008 0.298-0.094 0.037-0.172-0.544-0.033-0.595z"></path>
<path fill="#ffd700" d="M24.291 14.566c0.866-0.364 0.907-0.904 1.362-1.111 0.438-0.2 1.73-0.49 1.715-1.187-0.278-0.302-0.396 0.473-1.832 0.703-0.67 0.11-0.581 0.688-1.65 1.148-0.093 0.037 0.269 0.505 0.406 0.448z"></path>
<path fill="#ffd700" d="M22.934 13.233c0.376-0.839 0.933-0.879 1.148-1.319 0.207-0.424 0.506-1.676 1.226-1.661 0.312 0.27-0.489 0.383-0.727 1.775-0.114 0.649-0.711 0.563-1.186 1.598-0.038 0.091-0.521-0.261-0.462-0.393z"></path>
<path fill="#ffd700" d="M22.285 12.997c0.342-0.852-0.025-1.261 0.143-1.72 0.161-0.442 0.858-1.536 0.335-2.016-0.417-0.021 0.069 0.606-0.773 1.757-0.391 0.539 0.096 0.884-0.319 1.944-0.038 0.091 0.56 0.17 0.614 0.035z"></path>
<path fill="#ffd700" d="M24.488 15.184c0.959-0.267 3.717-1.508 3.482-1.736-0.035-0.348-2.886 0.804-3.711 1.184-0.091 0.043 0.087 0.593 0.229 0.552z"></path>
<path fill="#ffd700" d="M23.84 14.056c0.796-0.584 2.907-2.704 2.603-2.835-0.162-0.312-2.394 1.757-3.022 2.4-0.069 0.072 0.301 0.523 0.419 0.435z"></path>
<path fill="#ffd700" d="M22.82 13.258c0.506-0.833 1.623-3.574 1.29-3.582-0.273-0.229-1.521 2.509-1.849 3.335-0.035 0.092 0.484 0.372 0.559 0.247z"></path>
<path fill="#00699d" opacity="0.867" d="M23.525 14.716h0.267"></path>
<path fill="#00699d" opacity="0.867" d="M23.592 14.883h0.267"></path>
<path fill="#00699d" opacity="0.867" d="M23.62 15.040h0.295"></path>
<path fill="#00699d" opacity="0.867" d="M23.706 15.187h0.295"></path>
<path fill="#00699d" opacity="0.867" d="M23.725 15.344h0.352"></path>
<path fill="#00699d" opacity="0.867" d="M23.716 15.501h0.391"></path>
<path fill="#00699d" opacity="0.867" d="M23.772 15.677h0.372"></path>
<path fill="#00699d" opacity="0.867" d="M23.752 15.852h0.362"></path>
<path fill="#00699d" opacity="0.867" d="M23.754 16.018h0.372"></path>
<path fill="#00699d" opacity="0.867" d="M23.657 16.212h0.467"></path>
<path fill="#00699d" opacity="0.867" d="M23.698 16.434h0.4"></path>
<path fill="#00699d" opacity="0.867" d="M23.688 16.591h0.4"></path>
<path fill="#00699d" opacity="0.867" d="M23.622 16.803h0.4"></path>
<path fill="#00699d" opacity="0.867" d="M23.612 16.988h0.4"></path>
<path fill="#00699d" opacity="0.867" d="M23.498 17.191h0.4"></path>
<path fill="#00699d" opacity="0.867" d="M23.384 17.358h0.4"></path>
<path fill="#00699d" opacity="0.867" d="M23.278 17.551h0.4"></path>
<path fill="#00699d" opacity="0.867" d="M23.155 17.737h0.4"></path>
<path fill="#00699d" opacity="0.867" d="M23.070 17.912h0.4"></path>
<path fill="#00699d" opacity="0.867" d="M22.888 18.124h0.4"></path>
<path fill="#00699d" opacity="0.867" d="M22.807 18.318h0.257"></path>
<path fill="#f0bf00" d="M23.335 15.435c-0.637-0.396-1.479-0.19-1.832 0.026 0.516-0.095 0.525-0.138 0.898-0.146 0.264 0.009 0.652-0.017 0.934 0.121z"></path>
<path fill="#000" opacity="0.368" d="M22.795 15.569c-0.095 0.097-0.329 0.154-0.521 0.128s-0.271-0.125-0.176-0.222c0.095-0.097 0.329-0.154 0.521-0.128s0.271 0.125 0.176 0.222z"></path>
<path fill="#ffd700" d="M22.338 15.435c0.009 0.023-0.020 0.055-0.066 0.070s-0.091 0.008-0.1-0.015c-0.010-0.023 0.020-0.055 0.066-0.070s0.091-0.008 0.1 0.015z"></path>
</svg>
