<!-- Generated by IcoMoon.io -->
<svg version="1.1" xmlns="http://www.w3.org/2000/svg" width="43" height="32" viewBox="0 0 43 32">
<title>AUD</title>
<path fill="#006" d="M0 0h42.667v32h-42.667z"></path>
<path fill="#fff" d="M0 0v1.863l20.469 14.803h2.576v-1.863l-20.469-14.803h-2.576zM23.046 0v1.863l-20.469 14.803h-2.576v-1.863l20.469-14.803h2.576z"></path>
<path fill="#fff" d="M9.602 0v16.667h3.841v-16.667h-3.841zM0 5.556v5.556h23.046v-5.556h-23.046z"></path>
<path fill="#c00" d="M0 6.667v3.333h23.046v-3.333h-23.046zM10.371 0v16.667h2.305v-16.667h-2.305zM0 16.667l7.682-5.556h1.718l-7.682 5.556h-1.718zM0 0l7.682 5.556h-1.718l-5.964-4.313v-1.242zM13.646 5.556l7.682-5.556h1.718l-7.682 5.556h-1.718zM23.046 16.667l-7.682-5.556h1.718l5.964 4.313v1.242z"></path>
<path fill="#fff" d="M19.984 26.168l-2.91 0.253 0.401 2.894-2.012-2.118-2.012 2.118 0.401-2.894-2.91-0.253 2.512-1.491-1.616-2.433 2.731 1.034 0.895-2.781 0.895 2.781 2.731-1.034-1.616 2.433zM32.435 28.835l-0.702-1.057 1.187 0.449 0.388-1.208 0.388 1.208 1.187-0.449-0.702 1.057 1.091 0.648-1.264 0.11 0.174 1.257-0.874-0.92-0.874 0.92 0.174-1.257-1.264-0.11zM32.435 10.029l-0.702-1.057 1.187 0.449 0.388-1.208 0.388 1.208 1.187-0.449-0.702 1.057 1.091 0.648-1.264 0.11 0.174 1.257-0.874-0.92-0.874 0.92 0.174-1.257-1.264-0.11zM25.383 17.669l-0.702-1.057 1.187 0.449 0.388-1.208 0.388 1.208 1.187-0.449-0.702 1.057 1.091 0.648-1.264 0.11 0.174 1.257-0.874-0.92-0.874 0.92 0.174-1.257-1.264-0.11zM38.706 15.788l-0.704-1.057 1.188 0.449 0.385-1.208 0.39 1.208 1.185-0.449-0.701 1.057 1.091 0.648-1.265 0.11 0.174 1.257-0.875-0.92-0.874 0.92 0.174-1.257-1.262-0.11zM36.129 21.329l-0.691 0.428 0.194-0.789-0.621-0.524 0.811-0.060 0.307-0.753 0.307 0.753 0.811 0.060-0.621 0.524 0.194 0.789z"></path>
</svg>
