<!-- Generated by IcoMoon.io -->
<svg version="1.1" xmlns="http://www.w3.org/2000/svg" width="43" height="32" viewBox="0 0 43 32">
<title>AWG</title>
<path fill="#39c" d="M0 0v32h48v-32h-48z"></path>
<path fill="#ff0" d="M0 21.333v1.778h48v-1.778h-48zM0 24.889v1.778h48v-1.778h-48z"></path>
<path fill="#9cc" d="M9.51 1.871l-0-0zM9.313 2.265l0.197 0.197-0.197-0.197zM9.707 2.265l0.197 0.197-0.197-0.197z"></path>
<path fill="#ccf" d="M9.313 2.462v0zM9.707 2.462v0z"></path>
<path fill="#6cc" d="M9.116 2.855l0.197 0.197-0.197-0.197z"></path>
<path fill="#c66" d="M9.51 2.855l-0-0z"></path>
<path fill="#6cc" d="M9.903 2.855l0.197 0.197-0.197-0.197z"></path>
<path fill="#ccf" d="M9.116 3.052v0zM9.903 3.052l0.197 0.197-0.197-0.197z"></path>
<path fill="#fcc" d="M9.313 3.249v0zM9.707 3.249v0z"></path>
<path fill="#6cc" d="M8.919 3.446l0.197 0.197-0.197-0.197z"></path>
<path fill="#c00" d="M9.477 2.271l-1.38 5.23-5.245 1.424 5.23 1.365 1.395 5.23 1.395-5.23 5.23-1.395-5.23-1.395-1.395-5.23z"></path>
<path fill="#6cc" d="M10.1 3.446v0z"></path>
<path fill="#9cf" d="M8.919 3.642l0.197 0.197-0.197-0.197zM10.1 3.642v0z"></path>
<path fill="#fcc" d="M9.116 3.839v0zM9.903 3.839l0.197 0.197-0.197-0.197z"></path>
<path fill="#69c" d="M8.723 4.036l0.197 0.197-0.197-0.197z"></path>
<path fill="#c33" d="M9.182 4.167v-0zM9.969 4.167l0.066 0.131-0.066-0.131z"></path>
<path fill="#69c" d="M10.297 4.036v0z"></path>
<path fill="#9cf" d="M8.723 4.233l0.197 0.197-0.197-0.197zM10.297 4.233v0z"></path>
<path fill="#fcc" d="M8.919 4.43l0.197 0.197-0.197-0.197zM10.1 4.43v0z"></path>
<path fill="#69c" d="M8.526 4.626v0zM10.494 4.626l0.197 0.197-0.197-0.197z"></path>
<path fill="#9cc" d="M8.526 4.823v0zM10.494 4.823v0z"></path>
<path fill="#cff" d="M8.526 5.020v0zM10.494 5.020v0z"></path>
<path fill="#69c" d="M8.329 5.217v0z"></path>
<path fill="#fcc" d="M8.723 5.217l0.197 0.197-0.197-0.197zM10.297 5.217v0z"></path>
<path fill="#69c" d="M10.691 5.217v0z"></path>
<path fill="#9cc" d="M8.329 5.414l0.197 0.197-0.197-0.197z"></path>
<path fill="#c33" d="M8.788 5.545l0.066 0.131-0.066-0.131zM10.363 5.545l0.066 0.131-0.066-0.131z"></path>
<path fill="#9cc" d="M10.691 5.414l0.197 0.197-0.197-0.197z"></path>
<path fill="#cff" d="M8.329 5.61l0.197 0.197-0.197-0.197zM10.691 5.61l0.197 0.197-0.197-0.197z"></path>
<path fill="#fcc" d="M8.526 5.807v0zM10.494 5.807v0z"></path>
<path fill="#9cc" d="M8.132 6.004l0.197 0.197-0.197-0.197z"></path>
<path fill="#c33" d="M8.591 6.135l0.066 0.131-0.066-0.131zM10.559 6.135v0z"></path>
<path fill="#9cc" d="M10.887 6.004l0 0z"></path>
<path fill="#ccf" d="M8.132 6.201v0zM10.887 6.201l0.197 0.197-0.197-0.197z"></path>
<path fill="#fcc" d="M8.329 6.398v0zM10.691 6.398v0z"></path>
<path fill="#9cc" d="M7.935 6.594l0.197 0.197-0.197-0.197z"></path>
<path fill="#c33" d="M8.394 6.726h0zM10.756 6.726v0z"></path>
<path fill="#9cc" d="M11.084 6.594l0.197 0.197-0.197-0.197z"></path>
<path fill="#ccf" d="M7.935 6.791v0zM11.084 6.791v0z"></path>
<path fill="#fcc" d="M8.132 6.988l0.197 0.197-0.197-0.197zM10.887 6.988l0.197 0.197-0.197-0.197z"></path>
<path fill="#9cc" d="M7.739 7.185v0z"></path>
<path fill="#c33" d="M8.132 7.185v0zM10.887 7.185l0.197 0.197-0.197-0.197z"></path>
<path fill="#9cc" d="M11.281 7.185v0zM7.148 7.382l0.197 0.197-0.197-0.197z"></path>
<path fill="#ccf" d="M7.345 7.382l0.197 0.197-0.197-0.197zM11.675 7.382v0z"></path>
<path fill="#9cc" d="M11.871 7.382l0.197 0.197-0.197-0.197zM6.558 7.579v0z"></path>
<path fill="#ccf" d="M6.754 7.579v0z"></path>
<path fill="#fcc" d="M7.542 7.579v0z"></path>
<path fill="#c33" d="M7.739 7.579v0zM11.281 7.579v0z"></path>
<path fill="#fcc" d="M11.478 7.579v0z"></path>
<path fill="#ccf" d="M12.265 7.579v0z"></path>
<path fill="#9cc" d="M12.462 7.579v0z"></path>
<path fill="#69c" d="M5.77 7.775l0.197 0.197-0.197-0.197z"></path>
<path fill="#9cc" d="M5.967 7.775v0z"></path>
<path fill="#cff" d="M6.164 7.775l0.197 0.197-0.197-0.197z"></path>
<path fill="#fcc" d="M6.951 7.775v0z"></path>
<path fill="#c33" d="M7.279 7.841v0zM11.806 7.841h-0z"></path>
<path fill="#fcc" d="M12.068 7.775v0z"></path>
<path fill="#cff" d="M12.856 7.775v0z"></path>
<path fill="#9cc" d="M13.052 7.775v0z"></path>
<path fill="#69c" d="M13.249 7.775l0.197 0.197-0.197-0.197zM5.18 7.972l0.197 0.197-0.197-0.197z"></path>
<path fill="#9cc" d="M5.377 7.972v0z"></path>
<path fill="#cff" d="M5.574 7.972v0z"></path>
<path fill="#fcc" d="M6.361 7.972v0z"></path>
<path fill="#c33" d="M6.689 8.038l0.131 0.066-0.131-0.066zM12.396 8.038l0.131 0.066-0.131-0.066z"></path>
<path fill="#fcc" d="M12.659 7.972v0z"></path>
<path fill="#cff" d="M13.446 7.972v0z"></path>
<path fill="#9cc" d="M13.643 7.972l0.197 0.197-0.197-0.197z"></path>
<path fill="#69c" d="M13.84 7.972v0zM4.59 8.169l0.197 0.197-0.197-0.197z"></path>
<path fill="#9cf" d="M4.786 8.169v0z"></path>
<path fill="#fcc" d="M5.77 8.169l0.197 0.197-0.197-0.197z"></path>
<path fill="#c33" d="M6.099 8.234v0zM12.987 8.235l0.131 0.066-0.131-0.066z"></path>
<path fill="#fcc" d="M13.249 8.169l0.197 0.197-0.197-0.197z"></path>
<path fill="#9cf" d="M14.233 8.169l0.197 0.197-0.197-0.197z"></path>
<path fill="#69c" d="M14.43 8.169v0z"></path>
<path fill="#6cc" d="M3.999 8.366v0z"></path>
<path fill="#9cf" d="M4.196 8.366v0z"></path>
<path fill="#fcc" d="M4.983 8.366v0zM14.036 8.366v0z"></path>
<path fill="#9cf" d="M14.824 8.366v0z"></path>
<path fill="#6cc" d="M15.020 8.366v0zM3.409 8.563v0z"></path>
<path fill="#ccf" d="M3.606 8.563v0z"></path>
<path fill="#fcc" d="M4.393 8.563v0z"></path>
<path fill="#c33" d="M4.721 8.628l0.131 0.066-0.131-0.066zM14.364 8.628l0.131 0.066-0.131-0.066z"></path>
<path fill="#fcc" d="M14.627 8.563l0.197 0.197-0.197-0.197z"></path>
<path fill="#ccf" d="M15.414 8.563v0z"></path>
<path fill="#6cc" d="M15.611 8.563v0z"></path>
<path fill="#9cc" d="M2.818 8.759v0z"></path>
<path fill="#ccf" d="M3.015 8.759l0.197 0.197-0.197-0.197z"></path>
<path fill="#fcc" d="M3.802 8.759v0zM15.217 8.759v0z"></path>
<path fill="#ccf" d="M16.004 8.759v0z"></path>
<path fill="#9cc" d="M16.201 8.759v0zM2.425 8.956l0.197 0.197-0.197-0.197z"></path>
<path fill="#c66" d="M3.409 8.956v0zM15.611 8.956v0z"></path>
<path fill="#9cc" d="M16.595 8.956v0zM2.818 9.153v0z"></path>
<path fill="#ccf" d="M3.015 9.153l0.197 0.197-0.197-0.197z"></path>
<path fill="#fcc" d="M3.802 9.153v0zM15.217 9.153v0z"></path>
<path fill="#ccf" d="M16.004 9.153v0z"></path>
<path fill="#9cc" d="M16.201 9.153v0z"></path>
<path fill="#6cc" d="M3.409 9.35l0.197 0.197-0.197-0.197z"></path>
<path fill="#ccf" d="M3.606 9.35l0.197 0.197-0.197-0.197z"></path>
<path fill="#fcc" d="M4.393 9.35l0.197 0.197-0.197-0.197z"></path>
<path fill="#c33" d="M4.721 9.415l0.131 0.066-0.131-0.066zM14.364 9.415v0z"></path>
<path fill="#fcc" d="M14.627 9.35l0.197 0.197-0.197-0.197z"></path>
<path fill="#ccf" d="M15.414 9.35l0.197 0.197-0.197-0.197z"></path>
<path fill="#6cc" d="M15.611 9.35l0.197 0.197-0.197-0.197zM3.999 9.547v0z"></path>
<path fill="#9cf" d="M4.196 9.547v0z"></path>
<path fill="#fcc" d="M4.983 9.547v0zM14.036 9.547v0z"></path>
<path fill="#9cf" d="M14.824 9.547v0z"></path>
<path fill="#6cc" d="M15.020 9.547v0z"></path>
<path fill="#69c" d="M4.59 9.743l0.197 0.197-0.197-0.197z"></path>
<path fill="#9cf" d="M4.786 9.743l0.197 0.197-0.197-0.197z"></path>
<path fill="#fcc" d="M5.77 9.743l0.197 0.197-0.197-0.197z"></path>
<path fill="#c33" d="M6.099 9.809v0zM12.987 9.809h-0z"></path>
<path fill="#fcc" d="M13.249 9.743l0.197 0.197-0.197-0.197z"></path>
<path fill="#9cf" d="M14.233 9.743l0.197 0.197-0.197-0.197z"></path>
<path fill="#69c" d="M14.43 9.743l0.197 0.197-0.197-0.197zM5.18 9.94l0.197 0.197-0.197-0.197z"></path>
<path fill="#9cc" d="M5.377 9.94v0z"></path>
<path fill="#cff" d="M5.574 9.94v0z"></path>
<path fill="#fcc" d="M6.361 9.94v0z"></path>
<path fill="#c33" d="M6.689 10.006v0zM12.396 10.006v0z"></path>
<path fill="#fcc" d="M12.659 9.94v0z"></path>
<path fill="#cff" d="M13.446 9.94v0z"></path>
<path fill="#9cc" d="M13.643 9.94l0.197 0.197-0.197-0.197z"></path>
<path fill="#69c" d="M13.84 9.94v0zM5.77 10.137l0.197 0.197-0.197-0.197z"></path>
<path fill="#9cc" d="M5.967 10.137v0z"></path>
<path fill="#cff" d="M6.164 10.137l0.197 0.197-0.197-0.197z"></path>
<path fill="#fcc" d="M6.951 10.137v0z"></path>
<path fill="#c33" d="M7.279 10.203v0zM11.806 10.203h-0z"></path>
<path fill="#fcc" d="M12.068 10.137v0z"></path>
<path fill="#cff" d="M12.856 10.137v0z"></path>
<path fill="#9cc" d="M13.052 10.137v0z"></path>
<path fill="#69c" d="M13.249 10.137l0.197 0.197-0.197-0.197z"></path>
<path fill="#9cc" d="M6.558 10.334l0.197 0.197-0.197-0.197z"></path>
<path fill="#ccf" d="M6.754 10.334l0.197 0.197-0.197-0.197z"></path>
<path fill="#fcc" d="M7.542 10.334l0.197 0.197-0.197-0.197z"></path>
<path fill="#c33" d="M7.739 10.334l0.197 0.197-0.197-0.197zM11.281 10.334l0.197 0.197-0.197-0.197z"></path>
<path fill="#fcc" d="M11.478 10.334l0.197 0.197-0.197-0.197z"></path>
<path fill="#ccf" d="M12.265 10.334l0.197 0.197-0.197-0.197z"></path>
<path fill="#9cc" d="M12.462 10.334l0.197 0.197-0.197-0.197zM7.148 10.531v0z"></path>
<path fill="#ccf" d="M7.345 10.531v0zM11.675 10.531v0z"></path>
<path fill="#9cc" d="M11.871 10.531v0zM7.739 10.727l0.197 0.197-0.197-0.197z"></path>
<path fill="#c33" d="M8.132 10.727l0.197 0.197-0.197-0.197zM10.887 10.727l0.197 0.197-0.197-0.197z"></path>
<path fill="#9cc" d="M11.281 10.727l0.197 0.197-0.197-0.197z"></path>
<path fill="#fcc" d="M8.132 10.924v0zM10.887 10.924l0.197 0.197-0.197-0.197z"></path>
<path fill="#ccf" d="M7.935 11.121v0z"></path>
<path fill="#c33" d="M8.394 11.252h0zM10.756 11.252v0z"></path>
<path fill="#ccf" d="M11.084 11.121v0z"></path>
<path fill="#9cc" d="M7.935 11.318v0zM11.084 11.318v0z"></path>
<path fill="#fcc" d="M8.329 11.515v0zM10.691 11.515v0z"></path>
<path fill="#ccf" d="M8.132 11.711v0z"></path>
<path fill="#c33" d="M8.591 11.843l0.066 0.131-0.066-0.131zM10.559 11.843v0z"></path>
<path fill="#ccf" d="M10.887 11.711l0.197 0.197-0.197-0.197z"></path>
<path fill="#9cc" d="M8.132 11.908v0zM10.887 11.908l0.197 0.197-0.197-0.197z"></path>
<path fill="#fcc" d="M8.526 12.105v0zM10.494 12.105v0z"></path>
<path fill="#cff" d="M8.329 12.302v0z"></path>
<path fill="#c33" d="M8.788 12.433h0zM10.363 12.433v0z"></path>
<path fill="#cff" d="M10.691 12.302v0z"></path>
<path fill="#9cc" d="M8.329 12.499v0zM10.691 12.499v0z"></path>
<path fill="#69c" d="M8.329 12.695v0z"></path>
<path fill="#fcc" d="M8.723 12.695l0.197 0.197-0.197-0.197zM10.297 12.695v0z"></path>
<path fill="#69c" d="M10.691 12.695v0z"></path>
<path fill="#cff" d="M8.526 12.892v0zM10.494 12.892l0.197 0.197-0.197-0.197z"></path>
<path fill="#9cc" d="M8.526 13.089l0.197 0.197-0.197-0.197zM10.494 13.089l0.197 0.197-0.197-0.197z"></path>
<path fill="#69c" d="M8.526 13.286v0zM10.494 13.286v0z"></path>
<path fill="#fcc" d="M8.919 13.483l0 0zM10.1 13.483l0.197 0.197-0.197-0.197z"></path>
<path fill="#9cf" d="M8.723 13.68l0.197 0.197-0.197-0.197z"></path>
<path fill="#c33" d="M9.182 13.811v0zM9.969 13.811v0z"></path>
<path fill="#9cf" d="M10.297 13.68v0z"></path>
<path fill="#69c" d="M8.723 13.876l0.197 0.197-0.197-0.197zM10.297 13.876v0z"></path>
<path fill="#fcc" d="M9.116 14.073l0.197 0.197-0.197-0.197zM9.903 14.073l0.197 0.197-0.197-0.197z"></path>
<path fill="#9cf" d="M8.919 14.27l0.197 0.197-0.197-0.197zM10.1 14.27v0z"></path>
<path fill="#6cc" d="M8.919 14.467v0zM10.1 14.467l0.197 0.197-0.197-0.197z"></path>
<path fill="#fcc" d="M9.313 14.664v0zM9.707 14.664v0z"></path>
<path fill="#ccf" d="M9.116 14.86v0zM9.903 14.86l0.197 0.197-0.197-0.197z"></path>
<path fill="#6cc" d="M9.116 15.057v0z"></path>
<path fill="#c66" d="M9.51 15.057l0.197 0.197-0.197-0.197z"></path>
<path fill="#6cc" d="M9.903 15.057l0.197 0.197-0.197-0.197z"></path>
<path fill="#ccf" d="M9.313 15.451v0zM9.707 15.451v0z"></path>
<path fill="#9cc" d="M9.313 15.648v0zM9.707 15.648v0zM9.51 16.041l0.197 0.197-0.197-0.197z"></path>
</svg>
