<!-- Generated by IcoMoon.io -->
<svg version="1.1" xmlns="http://www.w3.org/2000/svg" width="43" height="32" viewBox="0 0 43 32">
<title>AZN</title>
<path fill="#3f9c35" d="M0.007 0h42.667v32h-42.667z"></path>
<path fill="#ed2939" d="M0.007 0h42.667v21.333h-42.667z"></path>
<path fill="#00b9e4" d="M0.007 0h42.667v10.667h-42.667z"></path>
<path fill="#fff" d="M25.067 16c0 2.651-2.149 4.8-4.8 4.8s-4.8-2.149-4.8-4.8c0-2.651 2.149-4.8 4.8-4.8s4.8 2.149 4.8 4.8z"></path>
<path fill="#ed2939" d="M25.333 16c0 2.209-1.791 4-4 4s-4-1.791-4-4c0-2.209 1.791-4 4-4s4 1.791 4 4z"></path>
<path fill="#fff" d="M25.6 13.333l0.51 1.435 1.375-0.654-0.654 1.375 1.435 0.51-1.435 0.51 0.654 1.375-1.375-0.654-0.51 1.435-0.51-1.435-1.375 0.654 0.654-1.375-1.435-0.51 1.435-0.51-0.654-1.375 1.375 0.654 0.51-1.435z"></path>
</svg>
