<!-- Generated by IcoMoon.io -->
<svg version="1.1" xmlns="http://www.w3.org/2000/svg" width="43" height="32" viewBox="0 0 43 32">
<title>BAM</title>
<path fill="#009" d="M0 0h42.667v32h-42.667z"></path>
<path fill="#fc0" d="M0 0l42.667 32v-32h-42.667z"></path>
<path fill="#fff" d="M3.992 4.693l-1.525-1.108-1.525 1.108 0.583-1.792-1.525-1.108h1.885l0.582-1.793 0.583 1.792h1.885l-1.525 1.108zM7.214 6.999l-1.525 1.108 0.582-1.793-1.525-1.108h1.885l0.582-1.792 0.582 1.792h1.885l-1.525 1.108 0.582 1.793zM10.436 11.52l0.582-1.793-1.525-1.108h1.885l0.582-1.793 0.582 1.793h1.885l-1.525 1.108 0.582 1.793-1.525-1.108zM15.765 13.141l-1.525-1.108h1.885l0.582-1.793 0.582 1.793h1.885l-1.525 1.108 0.582 1.793-1.525-1.108-1.525 1.108zM18.987 15.446h1.885l0.582-1.793 0.582 1.793h1.885l-1.525 1.108 0.582 1.793-1.525-1.108-1.525 1.108 0.582-1.793zM25.619 18.859l0.582-1.793 0.582 1.793h1.885l-1.525 1.108 0.582 1.793-1.525-1.108-1.525 1.108 0.582-1.793-1.525-1.108zM30.947 20.48l0.582 1.793h1.885l-1.525 1.108 0.582 1.793-1.525-1.108-1.525 1.108 0.582-1.793-1.525-1.108h1.885zM35.694 23.894l0.583 1.793h1.885l-1.525 1.108 0.583 1.793-1.525-1.108-1.525 1.108 0.583-1.793-1.525-1.108h1.885zM41.023 29.1h1.885l-1.525 1.108 0.583 1.792-1.525-1.108-1.525 1.108 0.583-1.793-1.525-1.108h1.885l0.583-1.793z"></path>
</svg>
