<!-- Generated by IcoMoon.io -->
<svg version="1.1" xmlns="http://www.w3.org/2000/svg" width="43" height="32" viewBox="0 0 43 32">
<title>BBD</title>
<path fill="#00267f" d="M0 0h42.667v32h-42.667z"></path>
<path fill="#ffc726" d="M14.222 0h14.222v32h-14.222z"></path>
<path fill="#000" d="M21.318 9.035c-0.462 1.26-0.933 2.572-1.941 3.577 0.313-0.103 0.86-0.196 1.212-0.187v5.301l-1.497 0.222c-0.053-0.005-0.071-0.089-0.071-0.203-0.144-1.646-0.533-3.029-0.981-4.46-0.032-0.196-0.599-0.942-0.162-0.811 0.053 0.007 0.638 0.245 0.546 0.132-0.796-0.825-1.961-1.419-3.092-1.595-0.1-0.025-0.158 0.025-0.069 0.14 1.5 2.309 2.756 5.035 2.745 8.268 0.583 0 1.996-0.345 2.581-0.345v3.74h0.738l0.169-10.446z"></path>
<path fill="#000" d="M21.318 9.035c0.462 1.26 0.933 2.572 1.941 3.577-0.313-0.103-0.86-0.196-1.212-0.187v5.301l1.497 0.222c0.053-0.005 0.071-0.089 0.071-0.203 0.144-1.646 0.533-3.029 0.981-4.46 0.032-0.196 0.599-0.942 0.162-0.811-0.053 0.007-0.638 0.245-0.546 0.132 0.796-0.825 1.961-1.419 3.092-1.595 0.1-0.025 0.158 0.025 0.069 0.14-1.5 2.309-2.756 5.035-2.745 8.268-0.583 0-1.996-0.345-2.581-0.345v3.74h-0.738l-0.169-10.446z"></path>
</svg>
