<!-- Generated by IcoMoon.io -->
<svg version="1.1" xmlns="http://www.w3.org/2000/svg" width="43" height="32" viewBox="0 0 43 32">
<title>BIF</title>
<path fill="#00cf00" d="M-5.467 0l26.8 16-26.8 16zM48.133 0l-26.8 16 26.8 16z"></path>
<path fill="#f00" d="M-5.467 0l26.8 16 26.8-16zM-5.467 32l26.8-16 26.8 16z"></path>
<path fill="#fff" d="M48.133 0h-4.994l-48.606 29.019v2.981h4.994l48.606-29.019z"></path>
<path fill="#fff" d="M30.587 16c0 5.11-4.143 9.253-9.253 9.253s-9.253-4.143-9.253-9.253 4.143-9.253 9.253-9.253 9.253 4.143 9.253 9.253z"></path>
<path fill="#fff" d="M-5.467 0v2.981l48.606 29.019h4.994v-2.981l-48.606-29.019z"></path>
<path fill="#f00" d="M23.155 12.51l-1.203 0.020-0.622 1.028-0.62-1.030-1.201-0.026 0.581-1.051-0.578-1.055 1.201-0.021 0.624-1.029 0.62 1.031 1.201 0.026-0.583 1.051zM19.124 19.486l-1.203 0.020-0.622 1.028-0.62-1.029-1.201-0.026 0.581-1.052-0.578-1.055 1.201-0.021 0.624-1.029 0.62 1.031 1.201 0.026-0.583 1.051zM27.284 19.486l-1.203 0.020-0.622 1.028-0.62-1.029-1.201-0.026 0.581-1.052-0.578-1.055 1.201-0.021 0.624-1.029 0.62 1.031 1.201 0.026-0.583 1.051z"></path>
</svg>
