<!-- Generated by IcoMoon.io -->
<svg version="1.1" xmlns="http://www.w3.org/2000/svg" width="43" height="32" viewBox="0 0 43 32">
<title>BMD</title>
<path fill="#cf142b" d="M0 0h42.667v32h-42.667z"></path>
<path fill="#00247d" d="M0 0h21.333v10.667h-21.333z"></path>
<path fill="#fff" d="M0 0v1.193l18.948 9.474h2.385v-1.193l-18.948-9.474h-2.385zM21.333 0v1.193l-18.948 9.474h-2.385v-1.193l18.948-9.474h2.385z"></path>
<path fill="#fff" d="M8.889 0v10.667h3.556v-10.667h-3.556zM0 3.556v3.556h21.333v-3.556h-21.333z"></path>
<path fill="#cf142b" d="M0 4.267v2.133h21.333v-2.133h-21.333zM9.6 0v10.667h2.133v-10.667h-2.133zM0 10.667l7.111-3.556h1.59l-7.111 3.556h-1.59zM0 0l7.111 3.556h-1.59l-5.521-2.761v-0.795zM12.632 3.556l7.111-3.556h1.59l-7.111 3.556h-1.59zM21.333 10.667l-7.111-3.556h1.59l5.521 2.761v0.795z"></path>
<path fill="#fff" d="M36.922 9.884v9.034c0 2.413-4.824 3.197-4.824 3.197s-4.824-0.784-4.824-3.197v-9.034h9.648z"></path>
<path fill="#2f8f22" d="M36.922 18.918c0 2.413-4.824 3.197-4.824 3.197s-4.824-0.784-4.824-3.197c0 0 0-0.194 0.098-0.305 0 0-0.053 0.401 0.255 0.705 0 0-0.242-0.428-0.005-0.849 0 0-0.088 0.541 0.25 0.852 0 0-0.186-0.442 0.024-0.936 0 0-0.104 0.807 0.263 0.968 0 0 0.101-0.464-0.045-0.761 0 0 0.252 0.102 0.239 0.775 0 0 0.080-0.099 0.101-0.584 0 0 0.011 0.555 0.202 0.684 0 0 0.059-0.056-0.021-0.308s0.035-0.34 0.053-0.335c0 0-0.042 0.279 0.192 0.488 0 0-0.101-0.437 0.040-0.496 0 0-0.029 0.37 0.263 0.453 0 0 0.021-0.107-0.043-0.228 0 0-0.056-0.143-0.013-0.252 0 0 0.093 0.336 0.221 0.392 0 0-0.077-0.197-0.005-0.392 0 0 0.016 0.279 0.266 0.395 0 0-0.165-0.216-0.1-0.454l2.439 0.118 2.496-0.176 0.431-0.37s0.17 0.236-0.098 0.609c0 0 0.266-0.048 0.351-0.464 0 0 0.109 0.231-0.040 0.485 0 0 0.295-0.295 0.338-0.63 0 0 0.114 0.324-0.165 0.673 0 0 0.25-0.083 0.356-0.453 0 0 0.085 0.223-0.157 0.538 0 0 0.452-0.24 0.439-0.736 0 0 0.189 0.273-0.027 0.649 0 0 0.231-0.206 0.253-0.515 0 0 0.128 0.139-0.011 0.523 0 0 0.282-0.265 0.324-0.552 0 0 0.061 0.265-0.181 0.6 0 0 0.165-0.040 0.322-0.367 0 0 0.043 0.129-0.101 0.365 0 0 0.154-0.027 0.258-0.322 0 0 0.019 0.177-0.027 0.335 0 0 0.12-0.078 0.146-0.413 0 0 0.067 0.11 0.068 0.247s-0 0.047-0 0.047z"></path>
<path fill="#d40000" d="M34.438 13.696s-0.168 0.028-0.383-0.037c-0.215-0.066-0.302-0.039-0.369 0 0 0 0.087-0.173-0.125-0.31 0 0 0.069 0.175-0.027 0.256 0 0-0.043 0.040-0.093-0.020 0 0-0.074-0.076-0.153-0.135 0 0 0.181-0.063 0.148-0.247s-0.132-0.208-0.185-0.23c0 0 0.019 0.083 0 0.139 0 0-0.197-0.11 0.070-0.265s0.218-0.247 0.17-0.326c-0.048-0.079-0.15-0.166-0.201-0.197 0 0 0.053 0.083 0.044 0.154s-0.13 0.117-0.106-0.008c0.024-0.125-0.001-0.103-0.004-0.236 0 0 0.238 0.080 0.331-0.151 0 0 0.092-0.24-0.209-0.359 0 0 0.073 0.098 0.037 0.172 0 0-0.064 0.121-0.14 0.023s-0.124-0.117-0.116-0.232c0 0 0.272 0.038 0.198-0.259 0 0-0.044 0.197-0.397-0.068 0 0 0.23-0.236 0.141-0.426 0 0-0.028-0.087-0.278-0.036 0 0 0.217-0.137 0.125-0.253 0 0-0.047-0.078-0.249 0.024 0 0 0.078-0.135-0.12-0.281 0 0-0.133 0.070-0.203 0.134 0 0-0.136-0.172-0.222-0.24 0 0-0.157 0.060-0.197 0.24 0 0-0.073-0.087-0.239-0.127 0 0-0.080 0.147 0.024 0.276 0 0-0.077-0.003-0.218-0.064 0 0-0.161-0.076-0.137 0.062s0.036 0.169 0.068 0.233c0 0-0.361-0.084-0.346 0.111 0.011 0.135 0.061 0.252 0.173 0.35 0 0-0.202 0.264-0.375 0.066 0 0-0.060 0.064 0.069 0.233 0 0 0.129 0.142 0.023 0.232 0 0-0.142 0.114-0.211-0.107 0 0-0.23 0.229 0.041 0.405 0 0 0.174 0.099 0.352-0.054 0 0-0.054 0.44-0.225 0.355 0 0-0.102-0.075 0.081-0.165 0 0-0.264-0.034-0.307 0.222 0 0-0.033 0.204 0.198 0.277 0 0 0.178 0.064-0.007 0.202 0 0-0.13 0.099-0.045 0.247 0 0 0.102 0.162-0.157 0.178 0 0-0.141-0.001-0.191-0.020 0 0-0.057 0.106-0.017 0.226 0 0-0.129-0.096-0.423 0.010s-0.271 0.031-0.295 0.064c-0.024 0.032-0.081 0.141-0.081 0.141s0.154 0.188 0.157 0.184c0.003-0.004-0.029 0.214-0.029 0.214l0.076 0.036 0.605-0.269 0.614-0.32 0.494 0.030 0.313 0.075 0.411 0.030 0.295-0.157h0.427l0.469 0.234 0.536 0.32 0.279 0.049 0.215-0.011v-0.434l-0.105-0.157z"></path>
<path fill="#d40000" d="M29.567 14.203s0.234 0.119 0.332-0.025c0 0 0.128-0.243-0.153-0.328 0 0 0.152-0.183-0.011-0.352 0 0-0.086-0.090-0.235-0.024 0 0-0.062-0.129-0.207-0.125 0 0-0.128-0.002-0.171 0.139 0 0-0.176-0.072-0.273 0.032 0 0-0.162 0.181 0.064 0.324l0.162 0.015 0.159-0.074 0.178 0.051c0 0-0.046 0.18 0.156 0.367z"></path>
<path fill="#64b4d1" d="M34.789 13.775c0.282-0.027 0.381 0.211 0.381 0.211 0.148 0.347-0.166 0.532-0.166 0.532 0.024 0.078 0.027 0.179 0.027 0.179 0.441 0.054 0.364 0.55 0.364 0.55l-0.146-0.121c-0.255-0.099-0.518 0.118-0.707 0.483s-0.098 0.536-0.066 0.968c0.032 0.432 0.734 0.689 0.734 0.689s-0.332 0.855-0.548 1.405c-0.215 0.55-0.665 0.322-0.795 0.206s-0.163-0.052-0.229 0c-0.066 0.051 0.295 0.333-0.361 0.598s-0.771 0.469-0.88 0.536c-0.109 0.067-0.564 0.021-0.609-0.035s-0.019-0.056-0.189-0.161c-0.17-0.105-0.457-0.196-0.771-0.348s-0.306-0.349-0.303-0.389c0.003-0.040 0.109-0.367-0.258-0.107s-0.68-0.124-0.68-0.124c-0.072-0.094-0.377-0.914-0.377-0.914-0.082-0.306-0.245-0.662-0.245-0.662 0.008-0.003-0.016 0.038 0.255-0.118s0.393-0.414 0.486-0.67 0.003-0.694-0.032-0.783c-0.035-0.088-0.237-0.494-0.487-0.579s-0.418 0.126-0.418 0.126-0.077-0.496 0.364-0.55c0 0 0.003-0.102 0.027-0.18 0 0-0.314-0.185-0.166-0.532 0 0 0.1-0.238 0.381-0.211l-0.068 0.129s-0.071 0.708 0.965 0.233c1.036-0.475 1.005-0.563 1.595-0.265l0.431-0.008s0.622-0.288 0.821-0.164c0.199 0.124 0.917 0.526 0.917 0.526s0.694 0.26 0.829-0.22l-0.077-0.231z"></path>
<path fill="#fff" d="M31.672 16.843s-0.036-0.217-0.074-0.358c0 0-0.077-0.221 0.054-0.376l0.163-0.187s0.101-0.136 0.226-0.155c0 0 0.125-0.004 0.137-0.029s0.149-0.251 0.474 0c0 0 0.104-0.166 0.263-0.194 0 0 0.172-0.052 0.256 0.076 0 0 0.194-0.147 0.36 0.089 0 0 0.23-0.129 0.397 0.128 0 0 0.227-0.111 0.367 0.125s0.112 0.333 0.112 0.333l0.104 0.375 0.367 0.453-0.853 0.322h-0.383l-0.766 0.205-1.36 0.105-0.379-0.446 0.534-0.466z"></path>
<path fill="#d40000" d="M30.523 19.103s-0.203 0.012-0.307 0.064c-0.104 0.052-0.183 0.109-0.303 0.185 0 0-0.056 0.074-0.291 0.029 0 0-0.407-0.097-0.407 0.22 0 0-0.487 0.040-0.287 0.466 0 0 0.136 0.334 0.415 0.097 0 0-0.179 0.257 0.167 0.358 0 0 0.247 0.060 0.319-0.193 0 0 0.040-0.101-0.056-0.225 0 0 0.12-0.024 0.203-0.153 0 0-0.255 0.323 0.024 0.439 0 0 0.351 0.088 0.371-0.278 0 0-0.029-0.169 0.107-0.229 0 0 0.28-0.064 0.407-0.376 0 0-0.402-0.214-0.363-0.404zM29.701 15.896s-0.314-0.144-0.462 0c0 0-0.207-0.128-0.425 0 0 0-0.207 0.136-0.351 0.285 0 0-0.101 0.087-0.064 0.359 0 0 0.053 0.192 0.021 0.289 0 0-0.069-0.014-0.207 0.15 0 0-0.176 0.203-0.33 0.024 0 0 0.048 0.25 0.338 0.209 0 0-0.141 0.11-0.019 0.394 0 0 0.090 0.201-0.053 0.453 0 0 0.253-0.102 0.242-0.399 0 0-0.021-0.201 0.053-0.343 0 0-0.074 0.129 0.098 0.405 0 0 0.133 0.198 0.024 0.405 0 0 0.25-0.091 0.226-0.394s-0.175-0.177-0.077-0.456c0 0 0.024 0.143 0.098 0.215s0.17 0.193 0.13 0.394c0 0 0.149-0.185 0.114-0.375s-0.072-0.248-0.072-0.248l0.47-0.267 0.234-0.424 0.011-0.675z"></path>
<path fill="#000" d="M29.273 16.52s-0.101 0-0.157-0.048c0 0-0.059-0.040-0.093 0.024 0 0-0.053 0.091 0.045 0.131 0 0 0.122 0.062-0.072 0.185 0 0 0.231-0.083 0.138-0.196 0 0-0.101-0.072-0.064-0.099 0 0 0.011-0.021 0.051 0.005s0.12 0.016 0.151-0.003z"></path>
<path fill="#784421" d="M32.325 17.073l0.119-0.040-0.777-2.684-0.028 0.008z"></path>
<path fill="#000" d="M29.737 20.044s-0.183-0.103-0.335 0.018c0 0 0.015-0.067 0.131-0.097 0 0 0.063-0.177 0.238-0.161 0 0-0.072 0.086-0.167 0.158 0 0 0.101 0.010 0.133 0.082z"></path>
<path fill="#64b4d1" d="M29.091 20.47s-0.291-0.183-0.134-0.491c0 0 0.046-0.088 0.134-0.070 0 0 0.181 0.056 0.040 0.308 0 0-0.072 0.163-0.040 0.253zM29.681 20.76s-0.415-0.189-0.287-0.511c0 0 0.039-0.109 0.131-0.101 0 0 0.16 0.008 0.128 0.221 0 0-0.048 0.209 0.028 0.39z"></path>
<path fill="#000" d="M29.594 19.559s-0.125 0.092-0.175 0.154c0 0-0.051-0.063-0.117-0.101 0 0 0.077-0.010 0.117 0.024 0 0 0.064-0.062 0.175-0.077z"></path>
<path fill="#64b4d1" d="M29.962 20.679s0.325-0.082 0.265-0.418c0 0-0.032-0.147-0.169-0.127 0 0-0.166 0.042-0.058 0.256 0 0 0.064 0.152-0.038 0.289z"></path>
<path fill="#f5ce00" d="M31.431 13.576s0.209 0.064 0.323 0.111c0 0 0.303 0.137 0.688 0 0 0 0.26-0.103 0.295-0.111l-0.199 0.304-0.010 0.157 0.125 0.183s-0.075 0.030-0.298-0.107c0 0-0.247-0.191-0.542 0 0 0-0.161 0.109-0.297 0.107l0.191-0.214-0.074-0.193-0.201-0.237z"></path>
<path fill="#fff" d="M30.088 20.278s0.012-0.016-0.002-0.023c0 0-0.014-0.006-0.024 0.014 0 0-0.034 0.054-0.005 0.127 0 0 0.027 0.051 0.014 0.104 0 0-0.002 0.015 0.010 0.017 0 0 0.011-0.004 0.014-0.015 0 0 0.016-0.052-0.012-0.103 0 0-0.034-0.079 0.005-0.121z"></path>
<path fill="#d40000" d="M34.589 14.203s-0.234 0.119-0.332-0.025c0 0-0.128-0.243 0.153-0.328 0 0-0.153-0.183 0.011-0.352 0 0 0.086-0.090 0.235-0.024 0 0 0.062-0.129 0.207-0.125 0 0 0.128-0.002 0.171 0.139 0 0 0.176-0.072 0.273 0.032 0 0 0.161 0.181-0.064 0.324l-0.162 0.015-0.16-0.074-0.178 0.051c-0 0 0.046 0.18-0.156 0.367z"></path>
<path fill="#f5ce00" d="M32.737 14.014s-0.006 0.048-0.054 0.054c0 0-0.050 0.016-0.079-0.046 0 0-0.003-0.014-0.004-0.021-0.003-0.029-0.013-0.113 0.077-0.181 0 0 0.148-0.121 0.429 0.025 0 0 0.223 0.107 0.377 0.198 0 0 0.399 0.215 0.447 0.231 0 0 0.175 0.088 0.444 0.099 0 0 0.367 0.027 0.522-0.231 0 0 0.118-0.196 0-0.32 0 0-0.048-0.056-0.126-0.046-0.033 0.004-0.070 0.020-0.105 0.061 0 0-0.057 0.083 0.009 0.145 0 0 0.086 0.053 0.117-0.059 0 0 0.001-0.008 0.004 0.002 0.002 0.006 0.021 0.092-0.025 0.164 0 0-0.221 0.335-0.83-0.012l-0.803-0.45s-0.403-0.206-0.643 0.117c0 0-0.194 0.268 0.056 0.444 0 0 0.186 0.111 0.303-0.066 0 0 0.097-0.174-0.056-0.251 0 0-0.134-0.063-0.187 0.071s0.104 0.169 0.118 0.074c0 0 0.004-0.023 0.008-0.001z"></path>
<path fill="#e4cb5e" d="M29.554 15.396v-0.503c0-0.039 0-0.072 0.060-0.121s0.124-0.125 0.215 0.093c0 0 0.179-0.189 0.239-0.217 0 0 0.104-0.089 0.175 0.040 0 0 0.096-0.145 0.171-0.181 0 0 0.179-0.117 0.187 0.233l0.14-0.129s0.108-0.088 0.227 0.032c0 0 0.203 0.197 0.231 0.253 0 0 0.045 0.061 0.048 0.157 0 0-0.001 0.108 0.055 0.169 0 0 0.064 0.056 0.126 0.068 0 0 0.146 0.004 0.197 0.141 0 0 0.024-0.024 0.096 0.632v1.194l-0.805 0.961-1.292-0.37-0.514-0.213-0.116-0.378 0.498-0.322 0.271-0.732-0.088-0.515-0.124-0.294z"></path>
<path fill="#784421" d="M33.114 16.030l0.061-0.091 0.146-0.113s0.223 0.586 0.234 0.714v0.182s0.335 0.085 0.393 0.6l-0.276 0.509-0.433-0.241-0.125-0.091v-1.469z"></path>
<path fill="#fff" d="M29.010 20.053s0.016-0.021 0.005-0.030c0 0-0.007-0.010-0.026 0.014 0 0-0.088 0.098-0.018 0.25 0 0 0.008 0.022 0.022 0.015 0 0 0.012-0.006 0.001-0.024 0 0-0.063-0.125 0.016-0.224z"></path>
<path fill="#d40000" d="M33.642 19.103s0.203 0.012 0.307 0.064c0.104 0.052 0.183 0.109 0.303 0.185 0 0 0.056 0.074 0.291 0.029 0 0 0.407-0.097 0.407 0.22 0 0 0.486 0.040 0.287 0.466 0 0-0.136 0.334-0.415 0.097 0 0 0.179 0.257-0.167 0.358 0 0-0.247 0.060-0.319-0.193 0 0-0.040-0.101 0.056-0.225 0 0-0.12-0.024-0.203-0.153 0 0 0.255 0.323-0.024 0.439 0 0-0.351 0.088-0.371-0.278 0 0 0.029-0.169-0.107-0.229 0 0-0.279-0.064-0.407-0.376 0 0 0.402-0.214 0.363-0.404z"></path>
<path fill="#784421" d="M31.267 17.543l0.119-0.040-0.777-2.684-0.028 0.008z"></path>
<path fill="#fff" d="M29.531 20.569s-0.091-0.087-0.078-0.244c0 0 0.005-0.033-0.011-0.038 0 0-0.018-0.007-0.020 0.031 0 0-0.025 0.164 0.085 0.257 0 0 0.007 0.009 0.020 0.007 0 0 0.013-0.003 0.006-0.013z"></path>
<path fill="#f5ce00" d="M34.702 17.073c-0.355-0.201-0.432-0.648-0.432-0.648-0.086-0.444 0.088-0.796 0.088-0.796 0.229-0.485 0.622-0.575 0.622-0.575s-0.385 0.267-0.493 0.627c0 0-0.084 0.303-0.036 0.603s0.030 0.223 0.104 0.454l0.147 0.334z"></path>
<path fill="#784421" d="M33.175 15.939l-1.49 0.47-0.081 0.664c-0.353 0.512-1.072 0.603-1.072 0.603l0.559 0.595 1.074 0.225 0.563-0.434 0.51-0.472c-0.053-0.252-0.024-0.626-0.024-0.626 0-0.063 0.024-0.21 0.024-0.21s-0.088-0.606-0.064-0.815z"></path>
<path fill="#d40000" d="M34.47 15.896s0.314-0.144 0.463 0c0 0 0.207-0.128 0.425 0 0 0 0.207 0.136 0.351 0.285 0 0 0.101 0.087 0.064 0.359 0 0-0.053 0.192-0.021 0.289 0 0 0.069-0.014 0.207 0.15 0 0 0.175 0.203 0.33 0.024 0 0-0.048 0.25-0.338 0.209 0 0 0.141 0.11 0.019 0.394 0 0-0.090 0.201 0.053 0.453 0 0-0.253-0.102-0.242-0.399 0 0 0.021-0.201-0.053-0.343 0 0 0.074 0.129-0.098 0.405 0 0-0.133 0.198-0.024 0.405 0 0-0.25-0.091-0.226-0.394s0.175-0.177 0.077-0.456c0 0-0.024 0.143-0.098 0.215s-0.17 0.193-0.13 0.394c0 0-0.149-0.185-0.114-0.375s0.072-0.248 0.072-0.248l-0.471-0.267-0.234-0.424-0.011-0.675z"></path>
<path fill="#fff" d="M29.14 17.591s0.044-0.208 0.243-0.126c0 0 0.068-0.341 0.431-0.353s0.383 0.354 0.383 0.378c0 0 0.107-0.157 0.285-0.139 0 0 0.307-0.018 0.193 0.475l0.058 0.062s0.234-0.55 0.717-0.406c0 0 0.47 0.143 0.163 0.599 0 0 0.232 0.302 0.429 0.273s0.372-0.088 0.568-0.434c0.195-0.346 0.65-0.398 0.766-0.378s0.207 0.095 0.226 0.177c0 0 0.241-0.803 1.106-0.677l0.347 0.174 0.132 0.060-0.196 0.554-0.478 1.080-0.363 0.112-0.379-0.217-0.132 0.071-0.011 0.323-0.5 0.36-0.347 0.143-0.383 0.261-0.089 0.234s-0.211-0.089-0.45 0l-0.079-0.193-0.223-0.213-0.867-0.409-0.157-0.505-0.158-0.071-0.177 0.203-0.259 0.030-0.387-0.261-0.411-1.186z"></path>
<path fill="#f5ce00" d="M35.095 17.304c-0.576-0.177-0.734-0.796-0.734-0.796-0.118-0.464 0.072-0.871 0.072-0.871 0.263-0.618 0.708-0.618 0.708-0.618 0.223-0.006 0.25 0.185 0.25 0.185 0.021 0.135-0.074 0.184-0.074 0.184-0.153 0.083-0.249-0.029-0.249-0.029-0.064-0.083-0.015-0.157-0.015-0.157 0.039-0.055 0.114-0.031 0.114-0.031 0.059 0.018 0.053 0.093 0.053 0.093 0 0.002 0.002 0.002 0.002 0.002 0.003-0.001 0.002-0.002 0.002-0.002s0.013-0.091-0.076-0.101c0 0-0.173-0.038-0.377 0.216 0 0-0.268 0.342-0.267 0.784 0 0-0.034 0.83 0.831 1.045 0 0-0.094 0.135-0.259 0.621 0 0-0.187 0.625-0.366 0.963 0 0-0.238 0.482-0.768 0.285 0 0-0.316-0.139-0.315-0.368 0 0-0.022-0.209 0.167-0.225 0 0 0.185-0.014 0.183 0.145 0 0 0.005 0.172-0.197 0.133 0 0-0.071-0.015-0.058-0.084 0 0 0.011-0.062 0.097-0.035 0 0 0.003 0 0.003-0.001 0 0 0.001-0.001-0.002-0.002 0 0-0.033-0.015-0.068-0.003 0 0-0.031 0.010-0.034 0.059 0 0-0.002 0.039 0.040 0.061 0 0 0.051 0.018 0.091 0.014 0 0 0.054 0.108 0.175 0.145 0.169 0.051 0.308 0.002 0.393-0.066 0.093-0.074 0.153-0.203 0.17-0.235s0.173-0.38 0.29-0.755c0 0 0.102-0.323 0.184-0.492l0.032-0.066z"></path>
<path fill="#f5ce00" d="M33.469 18.878s0.108-0.015 0.108 0.081c0 0-0.007 0.14-0.177 0.11 0 0-0.169-0.037-0.109-0.225 0 0 0.040-0.133 0.199-0.114 0 0 0.154 0.007 0.222 0.218 0 0 0.052 0.178-0.037 0.331-0.099 0.171-0.35 0.283-0.47 0.332 0 0-0.485 0.19-0.629 0.299 0 0-0.222 0.165-0.124 0.318 0 0 0.038 0.058 0.095 0.058 0 0 0.065 0.003 0.076-0.063 0 0 0-0.001-0.001-0.003 0 0-0.001 0-0.001 0.002 0 0-0.005 0.041-0.040 0.056 0 0-0.047 0.024-0.097-0.018 0 0-0.053-0.050-0.009-0.128 0 0 0.057-0.096 0.191-0.039 0 0 0.118 0.058 0.070 0.184 0 0-0.043 0.115-0.185 0.115 0 0-0.107-0.004-0.176-0.075-0.107-0.112-0.113-0.33-0.018-0.443 0 0 0.089-0.12 0.268-0.193 0.104-0.042 0.299-0.127 0.502-0.207 0.143-0.056 0.274-0.123 0.359-0.224 0 0 0.076-0.084 0.098-0.229 0 0 0.021-0.109-0.045-0.132 0 0-0.034-0.015-0.070-0.010 0 0-0.001 0-0.001 0.001s-0.002 0.002 0.002 0.001z"></path>
<path fill="#f5ce00" d="M31.431 14.014s0.006 0.048 0.054 0.054c0 0 0.050 0.016 0.079-0.046 0 0 0.003-0.014 0.004-0.021 0.003-0.029 0.013-0.113-0.077-0.181 0 0-0.148-0.121-0.429 0.025 0 0-0.223 0.107-0.377 0.198 0 0-0.399 0.214-0.447 0.231 0 0-0.175 0.088-0.444 0.099 0 0-0.367 0.027-0.522-0.23 0 0-0.118-0.196 0-0.32 0 0 0.048-0.056 0.127-0.046 0.033 0.004 0.069 0.020 0.105 0.061 0 0 0.057 0.083-0.009 0.145 0 0-0.086 0.053-0.117-0.059 0 0-0.001-0.008-0.004 0.002-0.002 0.006-0.021 0.092 0.025 0.164 0 0 0.221 0.335 0.83-0.012l0.803-0.45s0.403-0.206 0.643 0.117c0 0 0.194 0.268-0.056 0.444 0 0-0.186 0.111-0.303-0.066 0 0-0.097-0.174 0.056-0.251 0 0 0.134-0.063 0.187 0.071s-0.104 0.169-0.118 0.074c0 0-0.004-0.023-0.008-0.001zM29.465 17.073c0.355-0.201 0.432-0.648 0.432-0.648 0.086-0.444-0.088-0.796-0.088-0.796-0.229-0.485-0.622-0.575-0.622-0.575s0.385 0.267 0.493 0.627c0 0 0.084 0.303 0.036 0.603s-0.030 0.223-0.104 0.454l-0.147 0.334z"></path>
<path fill="#f5ce00" d="M29.072 17.304c0.576-0.177 0.734-0.796 0.734-0.796 0.118-0.464-0.072-0.871-0.072-0.871-0.263-0.618-0.708-0.618-0.708-0.618-0.223-0.006-0.25 0.185-0.25 0.185-0.021 0.135 0.074 0.184 0.074 0.184 0.153 0.083 0.249-0.029 0.249-0.029 0.064-0.083 0.015-0.157 0.015-0.157-0.039-0.055-0.114-0.031-0.114-0.031-0.059 0.018-0.053 0.093-0.053 0.093-0 0.002-0.002 0.002-0.002 0.002-0.003-0.001-0.002-0.002-0.002-0.002s-0.013-0.091 0.076-0.101c0 0 0.173-0.038 0.377 0.216 0 0 0.268 0.342 0.267 0.784 0 0 0.034 0.83-0.831 1.045 0 0 0.094 0.135 0.259 0.621 0 0 0.187 0.625 0.366 0.963 0 0 0.238 0.482 0.768 0.285 0 0 0.316-0.139 0.315-0.368 0 0 0.022-0.209-0.167-0.225 0 0-0.185-0.014-0.183 0.145 0 0-0.005 0.172 0.197 0.133 0 0 0.071-0.015 0.058-0.084 0 0-0.011-0.062-0.097-0.035 0 0-0.003 0-0.003-0.001 0 0-0.001-0.001 0.002-0.002 0 0 0.033-0.015 0.068-0.003 0 0 0.031 0.010 0.034 0.059 0 0 0.002 0.039-0.040 0.061 0 0-0.051 0.018-0.091 0.014 0 0-0.054 0.108-0.175 0.145-0.169 0.051-0.308 0.002-0.393-0.066-0.093-0.074-0.153-0.203-0.17-0.235s-0.173-0.38-0.29-0.755c0 0-0.102-0.323-0.184-0.492l-0.032-0.066z"></path>
<path fill="#f5ce00" d="M30.698 18.878s-0.108-0.015-0.108 0.081c0 0 0.007 0.14 0.177 0.11 0 0 0.168-0.037 0.109-0.225 0 0-0.040-0.133-0.199-0.114 0 0-0.155 0.007-0.222 0.218 0 0-0.052 0.178 0.037 0.331 0.099 0.171 0.35 0.283 0.47 0.332 0 0 0.484 0.19 0.629 0.299 0 0 0.222 0.165 0.124 0.318 0 0-0.038 0.058-0.095 0.058 0 0-0.065 0.003-0.076-0.063 0 0-0-0.001 0.001-0.003 0 0 0.001 0 0.001 0.002 0 0 0.005 0.041 0.040 0.056 0 0 0.047 0.024 0.097-0.018 0 0 0.052-0.050 0.009-0.128 0 0-0.058-0.096-0.191-0.039 0 0-0.118 0.058-0.069 0.184 0 0 0.043 0.115 0.185 0.115 0 0 0.107-0.004 0.176-0.075 0.107-0.112 0.113-0.33 0.018-0.443 0 0-0.089-0.12-0.268-0.193-0.103-0.042-0.299-0.127-0.502-0.207-0.143-0.056-0.274-0.123-0.359-0.224 0 0-0.076-0.084-0.098-0.229 0 0-0.021-0.109 0.045-0.132 0 0 0.034-0.015 0.070-0.010 0 0 0.001 0 0.001 0.001s0.002 0.002-0.002 0.001z"></path>
<path fill="#784421" d="M30.406 15.253l0.012 0.044s0.334 0.014 0.514-0.213l-0.019-0.044s-0.291-0.015-0.506 0.212z"></path>
<path fill="#784421" d="M31.484 14.915l-0.013-0.038 0.571-0.217 0.013 0.038z"></path>
<path fill="#64b4d1" d="M34.483 20.76s0.415-0.189 0.287-0.511c0 0-0.039-0.109-0.131-0.101 0 0-0.16 0.008-0.128 0.221 0 0 0.048 0.209-0.028 0.39z"></path>
<path fill="#fff" d="M34.633 20.569s0.091-0.087 0.078-0.244c0 0-0.005-0.033 0.011-0.038 0 0 0.018-0.008 0.021 0.031 0 0 0.025 0.164-0.085 0.257 0 0-0.008 0.009-0.020 0.007 0 0-0.013-0.003-0.005-0.013z"></path>
<path fill="#64b4d1" d="M35.073 20.47s0.291-0.183 0.134-0.491c0 0-0.046-0.088-0.134-0.070 0 0-0.181 0.056-0.040 0.308 0 0 0.072 0.163 0.040 0.253z"></path>
<path fill="#fff" d="M35.146 20.053s-0.016-0.021-0.005-0.030c0 0 0.007-0.010 0.026 0.014 0 0 0.088 0.099 0.018 0.25 0 0-0.008 0.022-0.022 0.015 0 0-0.012-0.006-0.001-0.024 0 0 0.063-0.125-0.016-0.224z"></path>
<path fill="#64b4d1" d="M34.202 20.679s-0.325-0.082-0.265-0.418c0 0 0.032-0.147 0.169-0.127 0 0 0.166 0.042 0.058 0.256 0 0-0.064 0.152 0.038 0.289z"></path>
<path fill="#fff" d="M34.076 20.278s-0.012-0.016 0.002-0.023c0 0 0.014-0.006 0.024 0.014 0 0 0.034 0.054 0.005 0.127 0 0-0.027 0.051-0.014 0.104 0 0 0.002 0.015-0.010 0.017 0 0-0.012-0.004-0.014-0.015 0 0-0.016-0.052 0.012-0.103 0 0 0.034-0.079-0.005-0.121z"></path>
<path fill="#000" d="M34.435 20.044s0.183-0.103 0.335 0.018c0 0-0.015-0.067-0.131-0.097 0 0-0.063-0.177-0.238-0.161 0 0 0.072 0.086 0.167 0.158 0 0-0.101 0.010-0.133 0.082zM34.571 19.559s0.125 0.092 0.175 0.154c0 0 0.051-0.063 0.117-0.101 0 0-0.077-0.010-0.117 0.024 0 0-0.064-0.062-0.175-0.077z"></path>
<path fill="#000" d="M34.898 16.52s0.101 0 0.157-0.048c0 0 0.058-0.040 0.093 0.024 0 0 0.053 0.091-0.045 0.131 0 0-0.122 0.062 0.072 0.185 0 0-0.231-0.083-0.138-0.196 0 0 0.101-0.072 0.064-0.099 0 0-0.011-0.021-0.050 0.005s-0.12 0.016-0.152-0.003z"></path>
<path fill="#64b4d1" d="M35.035 14.079s0.046-0.062 0.027-0.248 0.143-0.208 0.205-0.154c0 0 0.064 0.056 0.005 0.174-0.034 0.068-0.089 0.156-0.237 0.229z"></path>
<path fill="#fff" d="M35.096 13.94s0.061-0.065 0.032-0.207c0 0-0-0.014 0.008-0.015 0 0 0.015-0.004 0.017 0.010 0 0 0.033 0.151-0.036 0.233 0 0-0.012 0.012-0.021 0 0 0-0.009-0.009 0-0.021z"></path>
<path fill="#64b4d1" d="M34.983 14.011s-0.005-0.075-0.135-0.203c-0.13-0.128-0.023-0.245 0.056-0.244 0 0 0.082 0.001 0.112 0.127 0.017 0.073 0.032 0.173-0.034 0.32z"></path>
<path fill="#fff" d="M34.963 13.848s0.002-0.092-0.115-0.188c0 0-0.010-0.011-0.004-0.017 0 0 0.009-0.012 0.020-0.003 0 0 0.127 0.101 0.13 0.212 0 0-0.001 0.018-0.016 0.014 0 0-0.013-0.001-0.014-0.017z"></path>
<path fill="#64b4d1" d="M34.807 13.955s-0.034-0.061-0.194-0.118c-0.16-0.057-0.117-0.197-0.050-0.227 0 0 0.070-0.031 0.145 0.063 0.043 0.054 0.095 0.133 0.099 0.282z"></path>
<path fill="#fff" d="M34.737 13.843s-0.036-0.084-0.183-0.121c0 0-0.013-0.006-0.011-0.014 0 0 0.003-0.015 0.017-0.011 0 0 0.157 0.038 0.206 0.137 0 0 0.006 0.017-0.009 0.019 0 0-0.012 0.005-0.020-0.009z"></path>
<path fill="#64b4d1" d="M34.908 14.016s-0.075 0.021-0.246-0.062c-0.172-0.083-0.247 0.061-0.217 0.138 0 0 0.031 0.080 0.164 0.066 0.077-0.008 0.18-0.028 0.299-0.142z"></path>
<path fill="#fff" d="M34.508 14.071s0.078 0.048 0.219-0.007c0 0 0.014-0.003 0.017 0.005 0 0 0.006 0.014-0.008 0.019 0 0-0.15 0.060-0.247 0.007 0 0-0.015-0.010-0.004-0.021 0 0 0.007-0.011 0.022-0.004z"></path>
<path fill="#64b4d1" d="M29.121 14.079s-0.046-0.062-0.027-0.248c0.019-0.186-0.143-0.208-0.205-0.154 0 0-0.064 0.056-0.005 0.174 0.034 0.068 0.089 0.156 0.237 0.229z"></path>
<path fill="#fff" d="M29.060 13.94s-0.061-0.065-0.032-0.207c0 0 0-0.014-0.008-0.015 0 0-0.015-0.004-0.017 0.010 0 0-0.033 0.151 0.036 0.233 0 0 0.012 0.012 0.021 0 0 0 0.009-0.009 0-0.021z"></path>
<path fill="#64b4d1" d="M29.173 14.011s0.005-0.075 0.135-0.203c0.13-0.128 0.023-0.245-0.056-0.244 0 0-0.082 0.001-0.112 0.127-0.017 0.073-0.032 0.173 0.034 0.32z"></path>
<path fill="#fff" d="M29.193 13.848s-0.002-0.092 0.115-0.188c0 0 0.010-0.011 0.004-0.017 0 0-0.009-0.012-0.020-0.003 0 0-0.127 0.101-0.13 0.212 0 0 0.001 0.018 0.016 0.014 0 0 0.013-0.001 0.014-0.017z"></path>
<path fill="#64b4d1" d="M29.349 13.955s0.034-0.061 0.194-0.118c0.16-0.057 0.117-0.197 0.049-0.227 0 0-0.070-0.031-0.145 0.063-0.043 0.054-0.095 0.133-0.099 0.282z"></path>
<path fill="#fff" d="M29.419 13.843s0.036-0.084 0.183-0.121c0 0 0.013-0.006 0.011-0.014 0 0-0.003-0.015-0.017-0.011 0 0-0.157 0.038-0.206 0.137 0 0-0.006 0.017 0.009 0.019 0 0 0.012 0.005 0.020-0.009z"></path>
<path fill="#64b4d1" d="M29.249 14.016s0.075 0.021 0.246-0.062c0.172-0.083 0.247 0.061 0.217 0.138 0 0-0.031 0.080-0.164 0.066-0.077-0.008-0.179-0.028-0.299-0.142z"></path>
<path fill="#fff" d="M29.648 14.071s-0.078 0.048-0.219-0.007c0 0-0.014-0.003-0.017 0.005 0 0-0.006 0.014 0.008 0.019 0 0 0.15 0.060 0.247 0.007 0 0 0.015-0.010 0.004-0.021 0 0-0.007-0.011-0.022-0.004z"></path>
<path fill="#000" d="M32.842 12.513s0.054 0.155 0.031 0.296c-0.021 0.126 0.008 0.158 0.053 0.183 0.039 0.021 0.13-0.016 0.141-0.115 0 0 0.108 0.21-0.102 0.352 0 0-0.151 0.093-0.278-0.031-0.045-0.044-0.065-0.164-0.043-0.275 0 0 0.033-0.151-0.022-0.307 0 0 0.086 0.092 0.064 0.274 0 0-0.044 0.327 0.198 0.311 0 0 0.167-0.002 0.172-0.205 0 0-0.063 0.072-0.141 0.048-0.055-0.017-0.106-0.070-0.097-0.154 0.009-0.088 0.034-0.242 0.022-0.376zM32.568 13.050s-0.013 0.259-0.25 0.322c0 0 0.033-0.047-0.020-0.176 0 0-0.052-0.075-0.048-0.192 0 0-0.075 0.059 0.011 0.214 0.052 0.094 0.007 0.206-0.009 0.21s0.391-0.054 0.316-0.379zM32.261 12.793s-0.057-0.064-0.061-0.213c-0.004-0.149-0.032-0.185-0.052-0.202 0 0 0.029 0.129 0.021 0.208s0.005 0.125 0.016 0.162c0 0-0.129 0.020-0.21-0.168-0.078-0.179-0.156-0.165-0.194-0.164 0 0 0.045 0.005 0.135 0.169s0.116 0.197 0.344 0.208zM31.657 12.404s0.074 0.178 0.077 0.272c0 0-0.173-0.058-0.219-0.208 0 0-0.185 0.063-0.117 0.276 0 0-0.159-0.056-0.231-0.186 0 0 0.089 0.067 0.172 0.097 0 0-0.009-0.172 0.206-0.236 0 0 0.032 0.154 0.14 0.19 0 0-0.008-0.096-0.027-0.205zM31.942 12.099s0.060 0.087 0.182 0.091c0.059 0.002 0.121-0.011 0.182-0.091 0 0-0.008 0.151-0.182 0.153 0 0-0.182 0.007-0.182-0.153zM31.188 13.134s0.091 0.082 0.11 0.11c0 0 0.064 0.062 0.119-0.018 0 0 0.070-0.129 0.156-0.126 0 0-0.061 0.042-0.129 0.164 0 0-0.018 0.045-0.069 0.050-0.024 0.002-0.054 0.010-0.099-0.037 0 0-0.039-0.048-0.086-0.142zM32.124 11.491c-0.182 0-0.029 0.141-0.029 0.141 0.004 0.223-0.175 0.292-0.297 0.227s-0.027-0.227-0.027-0.227-0.137 0.090-0.050 0.221c0.088 0.131 0.318 0.072 0.402-0.048 0.084 0.121 0.314 0.179 0.402 0.048s-0.050-0.221-0.050-0.221 0.095 0.162-0.027 0.227c-0.122 0.065-0.301-0.004-0.297-0.227 0 0 0.153-0.141-0.029-0.141zM32.234 11.25s0.064 0.109 0.050 0.273c0 0 0.058-0.165-0.050-0.273zM31.676 11.505s-0.014-0.119-0.13-0.129c0 0 0.098 0.070 0.13 0.129zM32.573 11.505s0.014-0.119 0.13-0.129c0 0-0.098 0.070-0.13 0.129zM31.492 11.686s0.092 0.028 0.148-0.040c0 0-0.106 0.028-0.148 0.040zM31.195 10.959s0.107-0.012 0.213 0.147c0 0-0.106 0.056-0.132 0.091 0 0 0-0.052 0.052-0.099 0 0-0.020-0.080-0.134-0.139zM32.982 10.959s-0.107-0.012-0.213 0.147c0 0 0.106 0.056 0.132 0.091 0 0 0-0.052-0.052-0.099 0 0 0.020-0.080 0.134-0.139zM32.158 11.077s0.096 0.026 0.215-0.040c0 0 0.147-0.078 0.241 0 0 0-0.082-0.036-0.239 0.040 0 0-0.157 0.086-0.217 0z"></path>
<path fill="#fff" d="M32.258 11.174s0.082-0.143 0.331-0.115c0 0-0.068 0.199-0.331 0.115z"></path>
<path fill="#784421" d="M32.479 11.129c0 0.034-0.022 0.062-0.049 0.062s-0.049-0.028-0.049-0.062c0-0.034 0.022-0.062 0.049-0.062s0.049 0.028 0.049 0.062z"></path>
<path fill="#000" d="M32.459 11.129c0 0.021-0.013 0.038-0.029 0.038s-0.029-0.017-0.029-0.038c0-0.021 0.013-0.038 0.029-0.038s0.029 0.017 0.029 0.038z"></path>
<path fill="#000" d="M31.724 10.868s0.157 0.010 0.253 0.070c0 0 0.102 0.060 0.217-0.026 0 0 0.126-0.072 0.206-0.173 0 0-0.192 0.133-0.264 0.153 0 0-0.066-0.050-0.092-0.123 0 0 0.010-0.054 0.114-0.155 0 0-0.14 0.042-0.167 0.161 0 0 0.026 0.072 0.080 0.129 0 0-0.026 0.012-0.094-0.030 0 0-0.148-0.050-0.253-0.006zM32.124 11.814c-0.136 0.118 0 0.106 0 0.106s0.136 0.012 0-0.106zM32.045 11.077s-0.096 0.026-0.215-0.040c0 0-0.148-0.078-0.241 0 0 0 0.082-0.036 0.239 0.040 0 0 0.157 0.086 0.217 0z"></path>
<path fill="#fff" d="M31.945 11.174s-0.082-0.143-0.331-0.115c0 0 0.068 0.199 0.331 0.115z"></path>
<path fill="#784421" d="M31.823 11.129c0 0.034-0.022 0.062-0.049 0.062s-0.049-0.028-0.049-0.062c0-0.034 0.022-0.062 0.049-0.062s0.049 0.028 0.049 0.062z"></path>
<path fill="#000" d="M31.803 11.129c0 0.021-0.013 0.038-0.029 0.038s-0.029-0.017-0.029-0.038c0-0.021 0.013-0.038 0.029-0.038s0.029 0.017 0.029 0.038z"></path>
</svg>
