<!-- Generated by IcoMoon.io -->
<svg version="1.1" xmlns="http://www.w3.org/2000/svg" width="43" height="32" viewBox="0 0 43 32">
<title>BND</title>
<path fill="#f7e017" d="M0 0h42.667v32h-42.667z"></path>
<path fill="#fff" d="M0 2.222v14.222l42.667 6.667v-7.556z"></path>
<path fill="#000" d="M0 9.778v6.667l42.667 13.333v-6.667z"></path>
<path fill="#cf1126" d="M20.255 25.321c-0.86-0.114-1.649-0.388-2.197-0.763-0.106-0.073-0.206-0.132-0.222-0.132s-0.029 0.081-0.029 0.181c0 0.283-0.114 0.426-0.4 0.5-0.274 0.071-0.692-0.072-1.030-0.353-0.351-0.291-0.756-0.513-1.098-0.602-0.282-0.074-0.657-0.062-0.928 0.029-0.126 0.042-0.269 0.102-0.319 0.132s-0.105 0.056-0.123 0.056c-0.048 0-0.041-0.304 0.009-0.402 0.066-0.128 0.229-0.253 0.42-0.323 0.096-0.035 0.175-0.080 0.175-0.1s-0.032-0.093-0.072-0.162c-0.129-0.226-0.076-0.444 0.149-0.616 0.23-0.176 0.62-0.206 0.964-0.075 0.087 0.033 0.168 0.060 0.18 0.060 0.045 0 0.018-0.064-0.107-0.245-0.144-0.211-0.172-0.315-0.155-0.565 0.023-0.317 0.282-0.577 0.599-0.6 0.259-0.019 0.42 0.068 0.801 0.432 1.14 1.087 2.38 1.686 3.825 1.848 0.365 0.041 1.099 0.019 1.53-0.046 1.301-0.196 2.612-0.85 3.635-1.814 0.284-0.267 0.42-0.338 0.652-0.339 0.202-0.001 0.344 0.064 0.489 0.224 0.132 0.147 0.177 0.286 0.163 0.508-0.009 0.143-0.032 0.213-0.117 0.351-0.125 0.204-0.104 0.223 0.144 0.127 0.335-0.131 0.748-0.070 0.971 0.141 0.196 0.186 0.215 0.372 0.062 0.625-0.056 0.092-0.101 0.179-0.101 0.193 0 0.025 0.042 0.037 0.246 0.070 0.266 0.043 0.419 0.24 0.419 0.543 0 0.091-0.011 0.164-0.025 0.164s-0.114-0.037-0.224-0.082c-0.31-0.128-0.487-0.161-0.849-0.159-0.276 0.002-0.371 0.015-0.564 0.077-0.295 0.096-0.61 0.282-0.867 0.511-0.283 0.252-0.461 0.332-0.737 0.33-0.256-0.003-0.431-0.077-0.524-0.223-0.049-0.078-0.056-0.126-0.044-0.303 0.008-0.115 0.006-0.209-0.003-0.209s-0.109 0.063-0.222 0.141c-0.295 0.203-0.483 0.303-0.821 0.437-1.030 0.408-2.517 0.584-3.655 0.433z"></path>
<path fill="#cf1126" d="M20.726 23.341c-1.715-0.165-3.355-1.058-4.353-2.474-1.083-1.477-1.424-3.427-1.094-5.211 0.176-0.812 0.53-1.624 1.135-2.202-0.482 1.022-0.645 2.194-0.388 3.302 0.4 2.211 2.268 4.083 4.504 4.407 0.884 0.256 1.799-0.014 2.644-0.289 1.864-0.657 3.284-2.426 3.457-4.404 0.148-1.070-0.016-2.183-0.498-3.152 0.275 0.145 0.622 0.715 0.826 1.098 0.711 1.378 0.744 3.029 0.325 4.5-0.568 1.871-1.998 3.51-3.889 4.106-0.858 0.28-1.771 0.366-2.669 0.319z"></path>
<path fill="#cf1126" d="M12.090 20.885c-0.112-0.018-0.236 0.093-0.194 0.209 0.081 0.117 0.221 0.174 0.347 0.23 0.302 0.121 0.63 0.168 0.954 0.16-0.112-0 0.038 0.001 0.080 0 0.257 0.001 0.512-0.046 0.753-0.132 0.134-0.047 0.305-0.090 0.36-0.238 0.054-0.097-0.044-0.193-0.142-0.174-0.137 0.030-0.264 0.092-0.4 0.127-0.292 0.082-0.6 0.114-0.902 0.089-0.221-0.027-0.436-0.098-0.64-0.184-0.071-0.031-0.138-0.077-0.216-0.087z"></path>
<path fill="#cf1126" d="M12.215 20.423c-0.114-0.017-0.211 0.114-0.164 0.218 0.087 0.127 0.234 0.194 0.371 0.253 0.239 0.095 0.498 0.135 0.754 0.128-0.097-0 0.033 0.001 0.070 0 0 0 0 0 0 0 0.229 0 0.448-0.046 0.647-0.13l-0.011 0.004c0.123-0.048 0.274-0.094 0.326-0.23 0.040-0.075 0.009-0.183-0.084-0.189-0.086-0.004-0.16 0.050-0.239 0.075-0.288 0.119-0.605 0.17-0.916 0.143-0.194-0.025-0.379-0.096-0.554-0.179-0.066-0.032-0.125-0.082-0.2-0.093z"></path>
<path fill="#cf1126" d="M12.368 19.981c-0.097-0.012-0.164 0.098-0.148 0.186 0.015 0.077 0.084 0.129 0.141 0.176 0.237 0.173 0.537 0.247 0.828 0.237-0.113-0 0.152 0.002 0.071-0 0.184-0.001 0.366-0.046 0.532-0.126 0.111-0.048 0.241-0.104 0.278-0.23 0.018-0.059 0.029-0.143-0.037-0.176-0.069-0.039-0.139 0.021-0.202 0.045-0.213 0.108-0.45 0.169-0.689 0.167-0.207 0.007-0.401-0.080-0.581-0.174-0.065-0.033-0.119-0.091-0.192-0.106z"></path>
<path fill="#cf1126" d="M10.735 13.453c-0.145 0.145-0.034 0.412-0.042 0.602 0.075 0.585 0.168 1.177 0.387 1.728 0.267 0.538 0.835 0.825 1.179 1.301 0.123 0.229 0.079 0.505 0.105 0.755 0.020 0.683 0.014 1.366 0.002 2.049 0.308 0.155 0.643 0.311 0.998 0.251 0.21-0.050 0.601-0.081 0.644-0.291-0.017-1.178-0.028-2.356-0.044-3.534-0.12-0.361-0.487-0.548-0.761-0.778-0.222-0.219-0.428-0.453-0.619-0.699l-0.012-0.016c-0.117-0.196-0.572-0.267-0.407 0.075 0.097 0.296 0.343 0.516 0.405 0.827 0.013 0.17 0.217 0.483 0.043 0.583-0.11-0.188-0.27-0.347-0.475-0.443-0.197-0.147-0.523-0.208-0.594-0.467-0.052-0.368-0.241-0.701-0.484-0.977 0.063-0.331 0-0.744-0.285-0.955l-0.041-0.009z"></path>
<path fill="#cf1126" d="M11.175 13.52c-0.132 0.021-0.127 0.189-0.066 0.277 0.065 0.191 0.082 0.398 0.047 0.596 0.234 0.274 0.415 0.602 0.47 0.962 0.001 0.135 0.144 0.18 0.236 0.247 0.216 0.138 0.46 0.238 0.653 0.41 0.041 0.043 0.071 0.090 0.043 0.002-0.030-0.113-0.046-0.238-0.134-0.324-0.122-0.131-0.273-0.247-0.45-0.287-0.015-0.183-0.102-0.351-0.182-0.513-0.089-0.155-0.182-0.32-0.335-0.421 0.006-0.271 0.002-0.555-0.115-0.805-0.034-0.064-0.085-0.141-0.165-0.144z"></path>
<path fill="#cf1126" d="M11.544 13.628c-0.092 0.027-0.074 0.14-0.045 0.21 0.044 0.192 0.051 0.39 0.047 0.586 0.168 0.133 0.274 0.327 0.37 0.515 0.060 0.126 0.117 0.256 0.14 0.394 0.137 0.045 0.256 0.131 0.363 0.226-0.042-0.128-0.137-0.227-0.2-0.344-0.069-0.122-0.135-0.249-0.164-0.386-0.131-0.14-0.204-0.339-0.175-0.531 0.006-0.212-0.063-0.432-0.205-0.592-0.036-0.035-0.079-0.074-0.131-0.077z"></path>
<path fill="#cf1126" d="M11.963 13.688c-0.050 0.009-0.080 0.056-0.107 0.095-0.010 0.039 0.037 0.081 0.045 0.123 0.043 0.106 0.069 0.229 0.069 0.358 0 0.037-0.002 0.074-0.006 0.11l0-0.004c-0.004 0.111 0.036 0.22 0.093 0.314 0.016-0.069 0.081-0.119 0.15-0.126 0.025-0.005 0.063 0.008 0.048-0.030-0.018-0.213-0.050-0.427-0.124-0.628-0.029-0.072-0.062-0.147-0.124-0.196-0.013-0.009-0.028-0.017-0.044-0.014z"></path>
<path fill="#cf1126" d="M30.577 20.885c0.112-0.018 0.236 0.093 0.194 0.209-0.081 0.117-0.221 0.174-0.347 0.23-0.302 0.121-0.63 0.168-0.954 0.16 0.112-0-0.038 0.001-0.080 0-0.257 0.001-0.512-0.046-0.753-0.132-0.134-0.047-0.305-0.090-0.36-0.238-0.054-0.097 0.044-0.193 0.142-0.174 0.137 0.030 0.264 0.092 0.4 0.127 0.292 0.082 0.6 0.114 0.902 0.089 0.221-0.027 0.436-0.098 0.64-0.184 0.071-0.031 0.138-0.077 0.216-0.087z"></path>
<path fill="#cf1126" d="M30.452 20.423c0.114-0.017 0.211 0.114 0.164 0.218-0.087 0.127-0.234 0.194-0.371 0.253-0.239 0.095-0.498 0.135-0.754 0.128 0.097-0-0.033 0.001-0.070 0-0 0-0 0-0 0-0.229 0-0.448-0.046-0.647-0.13l0.011 0.004c-0.123-0.048-0.274-0.094-0.326-0.23-0.040-0.075-0.009-0.183 0.084-0.189 0.086-0.004 0.16 0.050 0.239 0.075 0.288 0.119 0.605 0.17 0.916 0.143 0.194-0.025 0.379-0.096 0.554-0.179 0.066-0.032 0.125-0.082 0.2-0.093z"></path>
<path fill="#cf1126" d="M30.299 19.981c0.097-0.012 0.164 0.098 0.148 0.186-0.015 0.077-0.084 0.129-0.141 0.176-0.237 0.173-0.537 0.247-0.828 0.237 0.113-0-0.152 0.002-0.071-0-0.184-0.001-0.366-0.046-0.532-0.126-0.111-0.048-0.241-0.104-0.278-0.23-0.018-0.059-0.029-0.143 0.037-0.176 0.070-0.039 0.139 0.021 0.202 0.045 0.213 0.108 0.45 0.169 0.689 0.167 0.207 0.007 0.401-0.080 0.581-0.174 0.065-0.033 0.119-0.091 0.192-0.106z"></path>
<path fill="#cf1126" d="M31.932 13.453c0.145 0.145 0.034 0.412 0.042 0.602-0.075 0.585-0.168 1.177-0.387 1.728-0.267 0.538-0.835 0.825-1.179 1.301-0.123 0.229-0.079 0.505-0.105 0.755-0.020 0.683-0.014 1.366-0.002 2.049-0.308 0.155-0.643 0.311-0.998 0.251-0.21-0.050-0.601-0.081-0.644-0.291 0.017-1.178 0.028-2.356 0.044-3.534 0.12-0.361 0.487-0.548 0.761-0.778 0.222-0.219 0.428-0.453 0.619-0.699l0.012-0.016c0.117-0.196 0.572-0.267 0.407 0.075-0.097 0.296-0.343 0.516-0.405 0.827-0.013 0.17-0.217 0.483-0.043 0.583 0.11-0.188 0.27-0.347 0.475-0.443 0.197-0.147 0.523-0.208 0.594-0.467 0.052-0.368 0.241-0.701 0.484-0.977-0.063-0.331-0-0.744 0.285-0.955l0.041-0.009z"></path>
<path fill="#cf1126" d="M31.492 13.52c0.132 0.021 0.127 0.189 0.066 0.277-0.065 0.191-0.082 0.398-0.047 0.596-0.234 0.274-0.415 0.602-0.47 0.962-0.001 0.135-0.144 0.18-0.236 0.247-0.216 0.138-0.46 0.238-0.653 0.41-0.041 0.043-0.071 0.090-0.043 0.002 0.030-0.113 0.046-0.238 0.134-0.324 0.122-0.131 0.273-0.247 0.45-0.287 0.015-0.183 0.102-0.351 0.182-0.513 0.089-0.155 0.182-0.32 0.335-0.421-0.006-0.271-0.002-0.555 0.115-0.805 0.034-0.064 0.085-0.141 0.165-0.144z"></path>
<path fill="#cf1126" d="M31.123 13.628c0.092 0.027 0.074 0.14 0.045 0.21-0.044 0.192-0.051 0.39-0.047 0.586-0.169 0.133-0.274 0.327-0.37 0.515-0.060 0.126-0.117 0.256-0.14 0.394-0.137 0.045-0.256 0.131-0.363 0.226 0.042-0.128 0.137-0.227 0.2-0.344 0.069-0.122 0.135-0.249 0.164-0.386 0.131-0.14 0.204-0.339 0.175-0.531-0.006-0.212 0.063-0.432 0.205-0.592 0.036-0.035 0.078-0.074 0.131-0.077z"></path>
<path fill="#cf1126" d="M30.704 13.688c0.050 0.009 0.080 0.056 0.107 0.095 0.010 0.039-0.037 0.081-0.045 0.123-0.043 0.106-0.069 0.229-0.069 0.358 0 0.037 0.002 0.074 0.006 0.11l-0-0.004c0.004 0.111-0.036 0.22-0.093 0.314-0.016-0.069-0.081-0.119-0.151-0.126-0.025-0.005-0.063 0.008-0.048-0.030 0.018-0.213 0.050-0.427 0.124-0.628 0.029-0.072 0.062-0.147 0.124-0.196 0.013-0.009 0.028-0.017 0.044-0.014z"></path>
<path fill="#cf1126" d="M21.141 21.155c-0.6-0.057-1.141-0.494-1.326-1.067 0.010-0.099 0.133 0.055 0.191 0.066 0.109 0.060 0.227 0.11 0.352 0.118 0.158 0.068 0.256 0.224 0.407 0.305 0.070 0.055 0.318 0.162 0.272-0.012-0.058-0.091-0.098-0.206-0.048-0.309 0.084-0.184 0.213-0.345 0.344-0.499 0.096-0.032 0.16 0.157 0.228 0.22 0.095 0.146 0.209 0.324 0.153 0.505-0.054 0.067-0.090 0.269 0.055 0.201 0.179-0.079 0.325-0.211 0.473-0.334 0.13-0.091 0.296-0.097 0.432-0.176 0.063-0.016 0.194-0.142 0.222-0.072-0.075 0.199-0.199 0.378-0.333 0.543-0.216 0.247-0.508 0.432-0.835 0.485-0.193 0.035-0.391 0.043-0.587 0.028z"></path>
<path fill="#cf1126" d="M21.846 20.454c0.013-0.12-0.014-0.243-0.076-0.353-0.094-0.192-0.228-0.363-0.358-0.532-0.123-0.072-0.191 0.163-0.272 0.23-0.127 0.19-0.286 0.385-0.294 0.624-0.071 0.111-0.205-0.091-0.262-0.157-0.11-0.155-0.193-0.339-0.179-0.533-0.013-0.313 0.047-0.624 0.161-0.915 0.086-0.248 0.226-0.489 0.211-0.76 0.010-0.204-0.031-0.429-0.197-0.566-0.157-0.123 0.102-0.15 0.184-0.086 0.141 0.009 0.217 0.242 0.346 0.185 0.051-0.122 0.061-0.267 0.167-0.361 0.104-0.142 0.212 0.060 0.248 0.155 0.073 0.083-0.004 0.289 0.115 0.295 0.142-0.1 0.244-0.268 0.426-0.304 0.074-0.042 0.2-0.006 0.103 0.079-0.135 0.126-0.25 0.284-0.275 0.472-0.041 0.236 0.018 0.475 0.121 0.688 0.198 0.417 0.35 0.889 0.25 1.353-0.046 0.206-0.187 0.384-0.357 0.504-0.021 0.013-0.056 0.012-0.063-0.017z"></path>
<path fill="#cf1126" d="M21.633 17.317c-0.065-0.117-0.143-0.232-0.252-0.311-0.106-0-0.171 0.133-0.243 0.203-0.050 0.094-0.112 0.251-0.236 0.128-0.198-0.115-0.232-0.368-0.231-0.576-0.012-0.337 0.123-0.652 0.244-0.959 0.077-0.192 0.058-0.409 0.011-0.606-0.059-0.226-0.241-0.383-0.38-0.56 0.009-0.068 0.188-0.031 0.255-0.018 0.149 0.038 0.239 0.17 0.35 0.263 0.079-0.024 0.047-0.184 0.084-0.259 0.003-0.106 0.144-0.245 0.202-0.094 0.087 0.096-0.003 0.287 0.11 0.347 0.107-0.040 0.16-0.157 0.261-0.21 0.099-0.068 0.239-0.075 0.346-0.022 0.038 0.098-0.117 0.18-0.162 0.266-0.18 0.223-0.243 0.529-0.166 0.805 0.061 0.216 0.169 0.418 0.207 0.641 0.045 0.251 0.044 0.515-0.021 0.763-0.039 0.15-0.169 0.251-0.303 0.313-0.033-0.031-0.051-0.076-0.073-0.115z"></path>
<path fill="#cf1126" d="M20.961 14.529c-0.149-0.109-0.199-0.214-0.199-0.42 0-0.106 0.020-0.163 0.089-0.259 0.103-0.142 0.084-0.187-0.061-0.145-0.234 0.067-0.345 0.006-0.353-0.193-0.004-0.097 0.017-0.139 0.148-0.296 0.105-0.126 0.143-0.192 0.122-0.213s-0.144 0.087-0.399 0.346c-0.203 0.207-0.432 0.418-0.508 0.469-0.437 0.295-0.855 0.341-1.046 0.114-0.098-0.116-0.092-0.181 0.020-0.252 0.052-0.032 0.14-0.106 0.195-0.164 0.131-0.136 0.522-0.418 0.716-0.516 0.157-0.080 0.195-0.133 0.092-0.133-0.132 0-0.557 0.276-0.88 0.572-0.095 0.088-0.231 0.185-0.303 0.216-0.161 0.071-0.477 0.097-0.617 0.051-0.099-0.033-0.28-0.204-0.28-0.264 0-0.016 0.041-0.052 0.092-0.079s0.14-0.092 0.2-0.144c0.258-0.226 0.746-0.459 1.134-0.54 0.123-0.026 0.078-0.088-0.060-0.082-0.266 0.012-0.795 0.259-1.11 0.52-0.37 0.305-0.928 0.276-1.107-0.057-0.031-0.057-0.049-0.111-0.040-0.12s0.118-0.041 0.244-0.073c0.136-0.034 0.405-0.146 0.663-0.274 0.405-0.202 0.525-0.245 0.804-0.29 0.125-0.020 0.132-0.081 0.010-0.096-0.157-0.019-0.397 0.060-0.822 0.269-0.546 0.268-0.699 0.315-0.986 0.298-0.262-0.016-0.41-0.083-0.623-0.284-0.139-0.132-0.336-0.467-0.298-0.506 0.009-0.009 0.073 0 0.142 0.020 0.076 0.023 0.296 0.038 0.56 0.038 0.369 0.001 0.468-0.009 0.664-0.066 0.329-0.095 0.767-0.318 1.067-0.541 0.573-0.428 1.040-0.6 1.636-0.603 0.55-0.002 0.9 0.125 1.209 0.439 0.105 0.106 0.194 0.175 0.209 0.16s0.029-0.2 0.033-0.413c0 0 0.162-0.016 0.196 0.030 0 0.346 0.004 0.373 0.054 0.373 0.033 0 0.068-0.034 0.090-0.086 0.047-0.113 0.221-0.268 0.408-0.363 0.402-0.204 1.098-0.21 1.657-0.015 0.236 0.083 0.497 0.23 0.746 0.422s0.76 0.449 1.062 0.535c0.305 0.087 0.844 0.108 1.12 0.046 0.114-0.026 0.22-0.047 0.237-0.047 0.102 0-0.072 0.339-0.275 0.538-0.372 0.364-0.856 0.362-1.537-0.005-0.424-0.228-0.932-0.353-0.932-0.229 0 0.026 0.027 0.043 0.066 0.043 0.148 0 0.432 0.099 0.83 0.288 0.43 0.204 0.671 0.291 0.814 0.291 0.104 0 0.107 0.064 0.010 0.207-0.103 0.152-0.277 0.227-0.523 0.226-0.235-0.001-0.366-0.052-0.576-0.227-0.352-0.292-1.228-0.619-1.194-0.444 0.007 0.035 0.049 0.056 0.139 0.070 0.305 0.047 0.663 0.217 1.029 0.492 0.113 0.085 0.23 0.168 0.26 0.186 0.050 0.029 0.051 0.038 0.012 0.112-0.066 0.123-0.232 0.218-0.411 0.236-0.232 0.024-0.435-0.045-0.644-0.22-0.442-0.37-0.858-0.637-0.992-0.637-0.109 0-0.060 0.060 0.132 0.162 0.252 0.134 0.512 0.315 0.703 0.49 0.090 0.084 0.192 0.166 0.226 0.184 0.080 0.043 0.077 0.105-0.011 0.22-0.090 0.117-0.238 0.169-0.431 0.148-0.384-0.040-0.684-0.226-1.154-0.714-0.184-0.191-0.348-0.347-0.365-0.347-0.063 0-0.026 0.085 0.096 0.221 0.15 0.168 0.179 0.263 0.122 0.399-0.050 0.121-0.134 0.149-0.305 0.103-0.176-0.048-0.203-0.004-0.088 0.139 0.172 0.214 0.146 0.476-0.064 0.656-0.065 0.056-0.134 0.101-0.152 0.101s-0.064-0.048-0.103-0.106c-0.135-0.205-0.254-0.204-0.385 0.004-0.046 0.072-0.084 0.131-0.086 0.131s-0.064-0.045-0.137-0.099z"></path>
<path fill="#cf1126" d="M21.63 10.357l-0.228 0.18-0.204-0.154v1.233l0.432 0.005z"></path>
<path fill="#cf1126" d="M20.218 9.078c-0.045 0.583-0.193 0.989-0.399 1.438l0.493-0.457 0.343 0.408 0.372-0.415 0.379 0.35 0.364-0.364 0.379 0.443 0.329-0.364 0.557 0.4c-0.202-0.448-0.476-0.828-0.442-1.46-0.54 0.401-1.823 0.474-2.376 0.022z"></path>
<path fill="#cf1126" d="M21.198 8.78c-0.198 0.004-0.407 0.006-0.595 0.043-0.13 0.026-0.248 0.068-0.347 0.138 0.016 0.379 1.822 0.537 2.307 0.007-0.102-0.074-0.226-0.118-0.363-0.145-0.181-0.035-0.381-0.039-0.571-0.042 0 0.104 0.001 0.208 0.001 0.313l-0.432-0.001v-0.313z"></path>
<path fill="#cf1126" d="M21.551 6.843l-0.28 0.002v2.195l0.286 0.001z"></path>
<path fill="#cf1126" d="M21.551 6.9l-0.107 1.051 1.081 0.528-0.547-0.732 0.747-0.242zM21.43 6.626c-0.164 0-0.285 0.061-0.285 0.134s0.121 0.135 0.285 0.135 0.284-0.062 0.284-0.135-0.12-0.134-0.284-0.134z"></path>
<path fill="#f7e017" d="M20.936 25.059c0.177-0.059 0.278-0.166 0.351-0.373 0.036-0.103 0.060-0.21 0.054-0.238-0.015-0.066-0.092-0.063-0.176 0.008-0.058 0.048-0.065 0.073-0.048 0.172 0.042 0.249-0.046 0.311-0.517 0.361-0.047 0.005-0.182-0.003-0.301-0.018-0.224-0.028-0.304-0.006-0.223 0.062 0.024 0.020 0.087 0.048 0.138 0.061 0.126 0.032 0.588 0.011 0.722-0.034zM21.912 25.017c0.027-0.024 0.118-0.067 0.204-0.094 0.114-0.036 0.172-0.076 0.22-0.147 0.138-0.206 0.112-0.383-0.091-0.622-0.11-0.13-0.159-0.126-0.247 0.018-0.076 0.124-0.074 0.132 0.035 0.161 0.057 0.015 0.112 0.057 0.143 0.109 0.119 0.206 0.084 0.334-0.092 0.335-0.16 0.001-0.204 0.024-0.247 0.128-0.023 0.054-0.041 0.111-0.041 0.128 0 0.044 0.060 0.036 0.116-0.014zM21.592 24.784c0.030-0.082 0.041-0.229 0.037-0.529-0.002-0.228-0.011-0.422-0.020-0.431-0.027-0.027-0.158 0.058-0.176 0.113-0.009 0.028 0.006 0.094 0.032 0.146 0.041 0.080 0.046 0.154 0.034 0.465-0.016 0.394 0.010 0.46 0.092 0.236z"></path>
<path fill="#f7e017" d="M20.84 24.597c0.016-0.073 0.036-0.224 0.046-0.333s0.032-0.248 0.050-0.308c0.045-0.154-0-0.194-0.122-0.108l-0.090 0.064 0.019 0.221c0.017 0.199-0.014 0.57-0.060 0.714-0.012 0.038 0.005 0.028 0.056-0.030 0.040-0.047 0.087-0.146 0.102-0.22zM20.172 24.704c0.162-0.136 0.144-0.368 0.18-0.556-0.004-0.126 0.080-0.276 0.026-0.386-0.152 0.028-0.245 0.171-0.167 0.314 0.006 0.166 0.001 0.347-0.085 0.494-0.070 0.096-0.291 0.072-0.281-0.064 0.055-0.205-0.19-0.105-0.286-0.051-0.074 0.052-0.23 0.055-0.176-0.074-0.036-0.172-0.257-0.064-0.377-0.065-0.113-0.002-0.009-0.23-0.172-0.19-0.302-0.024-0.636 0.003-0.898-0.18-0.153-0.074-0.131-0.258-0.051-0.377 0.095-0.163 0.122-0.367 0.274-0.493 0.15-0.144-0.141-0.083-0.207-0.035-0.146 0.080-0.010 0.285-0.13 0.4-0.070 0.118-0.162 0.282-0.323 0.259-0.233-0.044-0.367-0.261-0.534-0.406-0.143-0.029-0.063 0.232 0.011 0.287 0.146 0.109 0.317 0.189 0.493 0.236 0.175-0.028 0.181 0.201 0.331 0.237 0.275 0.128 0.581 0.167 0.881 0.182 0.118 0.010 0.052 0.22 0.207 0.178 0.087 0.022 0.282-0.032 0.292 0.068-0.131 0.156 0.126 0.152 0.221 0.124 0.122-0.019 0.278-0.065 0.31 0.102 0.102 0.107 0.289 0.091 0.412 0.030 0.017-0.010 0.034-0.022 0.049-0.036z"></path>
<path fill="#f7e017" d="M17.516 23.359c0.049-0.063 0.123-0.189 0.164-0.282s0.101-0.198 0.135-0.234c0.078-0.084 0.035-0.136-0.092-0.108-0.067 0.015-0.094 0.039-0.105 0.097-0.038 0.188-0.106 0.381-0.167 0.471-0.11 0.163-0.113 0.169-0.068 0.169 0.024 0 0.083-0.051 0.132-0.113zM15.852 22.315c-0.124 0-0.13 0.079-0.008 0.121 0.059 0.020 0.108 0.070 0.148 0.15 0.118 0.235 0.188 0.277 0.501 0.304l0.201 0.018 0.010 0.122c0.005 0.068 0.021 0.124 0.036 0.124s0.093-0.034 0.172-0.074c0.148-0.075 0.288-0.249 0.288-0.357 0-0.071-0.118-0.147-0.225-0.147-0.048 0-0.138 0.038-0.21 0.090-0.224 0.162-0.464 0.129-0.595-0.082-0.108-0.174-0.22-0.27-0.319-0.27zM16.939 22.748c0.060 0 0.074 0.044 0.042 0.128-0.022 0.058-0.095 0.060-0.116 0.003-0.026-0.067 0.010-0.131 0.075-0.131zM25.371 22.475c-0.081 0.003-0.105 0.021-0.157 0.097-0.084 0.125-0.093 0.397-0.015 0.493 0.048 0.060 0.056 0.061 0.158 0.018 0.143-0.060 0.167-0.058 0.167 0.019-0.001 0.196-0.283 0.575-0.578 0.776-0.080 0.054-0.151 0.115-0.158 0.135-0.021 0.056 0.088 0.044 0.222-0.025 0.183-0.093 0.424-0.339 0.522-0.532 0.078-0.154 0.089-0.207 0.099-0.476 0.008-0.248 0.002-0.321-0.040-0.404-0.047-0.093-0.062-0.101-0.18-0.101-0.014 0-0.027-0-0.039 0zM25.38 22.648c0.061 0 0.072 0.014 0.079 0.102 0.006 0.073-0.007 0.117-0.047 0.154-0.055 0.050-0.060 0.049-0.108-0.025-0.068-0.105-0.026-0.231 0.076-0.231zM24.031 24.545c0.26-0.128 0.413-0.272 0.512-0.48 0.047-0.099 0.085-0.192 0.085-0.208 0-0.036-0.128-0.096-0.205-0.096s-0.092-0.053-0.059-0.199c0.032-0.143-0.007-0.321-0.069-0.321-0.023 0-0.063 0.033-0.089 0.074-0.041 0.063-0.043 0.089-0.013 0.18 0.044 0.135 0.009 0.236-0.112 0.322-0.057 0.041-0.089 0.088-0.089 0.134 0 0.039 0.005 0.070 0.011 0.070s0.069-0.033 0.14-0.072l0.13-0.072 0.076 0.060c0.042 0.033 0.076 0.087 0.076 0.12 0 0.158-0.451 0.424-0.761 0.449-0.165 0.013-0.193 0.008-0.25-0.049-0.047-0.047-0.060-0.086-0.048-0.141 0.009-0.042 0.025-0.119 0.036-0.171 0.028-0.138-0.031-0.119-0.133 0.042-0.084 0.133-0.109 0.275-0.062 0.349 0.039 0.061 0.296 0.119 0.477 0.108 0.114-0.007 0.227-0.039 0.347-0.097zM25.766 23.577c0.164-0.163 0.233-0.362 0.234-0.669l0-0.231 0.135-0.064c0.176-0.084 0.342-0.25 0.342-0.342 0-0.095-0.042-0.090-0.119 0.013-0.056 0.075-0.13 0.12-0.401 0.245-0.068 0.032-0.073 0.048-0.088 0.336-0.018 0.331-0.063 0.455-0.248 0.681-0.113 0.138-0.117 0.156-0.039 0.156 0.032 0 0.115-0.056 0.184-0.126zM23.985 23.392c0.016-0.048-0.075-0.081-0.114-0.043-0.016 0.016-0.021 0.045-0.010 0.063 0.026 0.041 0.108 0.028 0.124-0.020zM26.441 22.756c0.016-0.048-0.075-0.081-0.113-0.043-0.017 0.017-0.021 0.045-0.010 0.064 0.026 0.041 0.108 0.028 0.124-0.021zM23.485 21.035c-0.064 0.030-0.096 0.099-0.141 0.151-0.032 0.022-0.006 0.042 0.012 0.062 0.112 0.121 0.16 0.284 0.213 0.436 0.052 0.18 0.118 0.372 0.064 0.559-0.022 0.072-0.078 0.146-0.162 0.122-0.135-0.008-0.267-0.044-0.402-0.043-0.12 0.006-0.213 0.116-0.336 0.104-0.079 0.005-0.075-0.161-0.148-0.116-0.036 0.087-0.018 0.183-0.023 0.275 0.014 0.013 0.052 0.002 0.075 0.006h0.242c0.017 0.084 0.015 0.179 0.075 0.246 0.084 0.030 0.178 0.004 0.258-0.029 0.086-0.040 0.097-0.143 0.121-0.223 0.026-0.086 0.139-0.064 0.205-0.097 0.163-0.048 0.27-0.217 0.26-0.383-0.011-0.254-0.108-0.494-0.181-0.734-0.037-0.106-0.063-0.217-0.106-0.32-0.005-0.009-0.015-0.016-0.026-0.015zM23.082 22.489c0.090-0.006 0.13 0.105 0.111 0.179-0.034 0.1-0.157 0.036-0.182-0.036-0.046-0.065-0.018-0.151 0.071-0.143z"></path>
<path fill="#f7e017" d="M19.731 21.654c-0.040-0.001-0.086 0.014-0.131 0.046-0.236 0.165-0.296 0.361-0.136 0.437 0.118 0.056 0.088 0.123-0.097 0.216-0.265 0.132-0.5 0.116-0.944-0.068-0.109-0.045-0.138-0.028-0.112 0.072 0.024 0.098 0.114 0.152 0.337 0.203 0.24 0.055 0.53 0.037 0.717-0.043 0.091-0.039 0.199-0.121 0.29-0.22l0.144-0.159 0.168 0.021c0.207 0.025 0.211 0.028 0.211 0.127 0 0.079 0.004 0.080 0.195 0.098 0.107 0.010 0.248 0.020 0.314 0.020 0.084 0 0.132 0.015 0.16 0.054 0.037 0.052 0.060 0.055 0.372 0.027 0.292-0.027 0.35-0.024 0.482 0.020 0.094 0.032 0.197 0.045 0.275 0.036 0.224-0.025 0.533-0.208 0.578-0.343 0.005-0.016 0.087-0.045 0.18-0.064 0.226-0.045 0.236-0.095 0.025-0.121-0.092-0.012-0.229-0.045-0.305-0.075s-0.182-0.056-0.233-0.056c-0.114 0-0.221 0.071-0.221 0.144 0 0.048 0.017 0.053 0.152 0.039 0.127-0.013 0.164-0.006 0.23 0.047 0.044 0.035 0.073 0.076 0.064 0.090-0.030 0.048-0.294 0.169-0.411 0.188-0.078 0.012-0.141 0.004-0.203-0.028-0.103-0.053-0.254-0.061-0.282-0.016-0.012 0.020-0.044 0.007-0.089-0.035l-0.069-0.065-0.157 0.065c-0.16 0.066-0.218 0.064-0.218-0.012 0-0.035-0.047-0.039-0.282-0.024-0.259 0.017-0.286 0.012-0.335-0.042-0.045-0.050-0.046-0.067-0.014-0.118 0.029-0.047 0.029-0.068 0.001-0.096s-0.064-0.028-0.167 0c-0.258 0.069-0.331 0.030-0.331-0.171 0-0.121-0.069-0.194-0.158-0.196zM19.667 21.839c0.014 0 0.025 0.008 0.043 0.026 0.023 0.023 0.035 0.062 0.025 0.088-0.023 0.060-0.132 0.058-0.156-0.003-0.011-0.029 0.003-0.062 0.036-0.086 0.023-0.017 0.038-0.025 0.052-0.025z"></path>
<path fill="#f7e017" d="M19.204 22.027c0.157-0.1 0.153-0.092 0.176-0.368 0.016-0.195 0.013-0.21-0.040-0.21-0.077 0-0.117 0.084-0.117 0.245 0 0.103-0.016 0.149-0.071 0.204-0.131 0.131-0.455 0.071-0.496-0.091-0.014-0.056 0.004-0.106 0.072-0.202 0.142-0.201 0.11-0.251-0.064-0.098-0.12 0.104-0.141 0.108-0.118 0.017 0.021-0.083-0.023-0.116-0.12-0.092-0.050 0.012-0.077 0.044-0.089 0.104-0.012 0.059-0.039 0.092-0.086 0.104-0.079 0.020-0.213-0.055-0.213-0.118 0-0.047 0.201-0.292 0.459-0.56 0.097-0.101 0.177-0.196 0.177-0.21s-0.052-0.026-0.116-0.026c-0.093 0-0.116 0.010-0.116 0.053 0 0.029-0.13 0.2-0.289 0.379-0.332 0.373-0.359 0.451-0.195 0.551 0.132 0.081 0.301 0.075 0.434-0.016l0.108-0.073v0.133c0 0.17 0.034 0.231 0.167 0.301 0.168 0.088 0.37 0.078 0.536-0.028zM26.163 19.72c-0.123 0.073-0.027 0.228-0.008 0.33-0.050 0.14-0.23 0.177-0.361 0.203-0.185 0.031-0.317 0.186-0.387 0.351-0.038 0.107-0.131 0.273-0.231 0.11-0.087-0.089-0.248-0.159-0.351-0.055-0.079 0.075-0.098 0.185-0.128 0.285-0.046-0.077-0.067-0.191-0.165-0.215-0.157 0.022-0.1 0.22-0.026 0.301 0.067 0.095 0.131 0.22 0.066 0.333-0.058 0.136-0.258 0.227-0.376 0.111-0.11-0.058-0.036-0.265-0.145-0.276-0.053 0.039-0.058 0.255-0.144 0.138-0.062-0.1-0.029-0.238-0.105-0.328-0.089 0.011-0.161 0.165-0.131 0.248 0.119 0.161 0.168 0.362 0.215 0.554 0.029 0.077-0.004 0.232 0.068 0.263 0.050-0.123 0.004-0.264 0.043-0.388 0.116-0.015 0.246 0.038 0.368 0.010 0.175-0.023 0.31-0.17 0.371-0.327 0.019-0.118-0.004-0.238-0.007-0.356 0.138 0.021 0.281 0.021 0.414 0.066 0.066 0.101-0.021 0.242-0.039 0.352-0.069 0.225-0.245 0.388-0.416 0.538-0.072 0.042-0.081 0.155 0.025 0.094 0.23-0.098 0.401-0.307 0.5-0.532 0.072-0.173 0.014-0.367 0.061-0.544 0.069-0.133 0.237-0.105 0.36-0.105 0.128-0.005 0.237-0.154 0.194-0.278-0.041-0.144 0.112-0.214 0.216-0.265 0.138-0.070 0.244-0.212 0.234-0.371-0.006-0.082-0.002-0.237-0.113-0.244zM25.672 20.553c0.148 0.039-0.027 0.322-0.106 0.143-0.024-0.068 0.033-0.146 0.106-0.143zM24.985 20.756c0.193-0.011 0.124 0.27-0.039 0.142-0.084-0.042-0.057-0.148 0.039-0.142zM18.004 21.844c0.005-0.028-0.009-0.048-0.034-0.048-0.054 0-0.086 0.047-0.061 0.088 0.026 0.042 0.084 0.018 0.095-0.040zM20.264 21.591c0-0.041-0.016-0.057-0.050-0.050-0.076 0.014-0.084 0.11-0.010 0.11 0.041 0 0.060-0.019 0.060-0.060zM17.468 20.235c-0.090-0.019-0.147 0.058-0.178 0.131-0.067 0.113-0.15 0.229-0.271 0.289-0.087 0.024-0.182-0.009-0.257-0.054-0.090-0.045-0.069-0.152-0.108-0.227-0.065-0.051-0.18 0.022-0.177 0.101-0.007 0.106 0.092 0.167 0.174 0.208 0.070 0.043 0.171 0.067 0.199 0.153-0.002 0.074 0.028 0.158 0.117 0.13 0.1-0.002 0.126 0.121 0.086 0.194-0.041 0.083-0.069 0.18-0.049 0.272 0.048 0.040 0.097-0.068 0.132-0.099l0.071-0.094c0.178 0.010 0.355 0.032 0.533 0.026 0.127-0.002 0.235-0.081 0.315-0.172 0.114-0.119 0.208-0.259 0.338-0.362 0.093-0.023 0.043-0.197-0.054-0.147-0.087 0.033-0.115 0.131-0.175 0.194-0.103 0.125-0.208 0.251-0.338 0.349-0.094 0.039-0.203 0.022-0.3 0-0.040-0.035 0.080-0.064 0.097-0.104 0.056-0.056 0.122-0.108 0.154-0.181-0.031-0.067-0.125-0.073-0.192-0.074-0.164 0.020-0.289 0.157-0.454 0.17-0.126 0.004-0.060-0.132-0.004-0.178 0.111-0.131 0.23-0.255 0.346-0.383 0.033-0.039 0.152-0.077 0.076-0.132-0.027-0.010-0.055-0.010-0.083-0.010zM17.549 20.9c0.083 0.046-0.053 0.122-0.11 0.112-0.075 0.022-0.076-0.054-0.010-0.069 0.037-0.019 0.077-0.040 0.119-0.043zM17.294 21.074c0.047-0.001 0.146 0.044 0.053 0.073-0.064 0.050-0.137-0.051-0.053-0.073z"></path>
<path fill="#f7e017" d="M19.296 21.188c0-0.063-0.112-0.054-0.125 0.010-0.008 0.041 0.005 0.051 0.057 0.043 0.037-0.005 0.068-0.029 0.068-0.053zM24.276 20.748c0.012-0.060-0.072-0.1-0.116-0.056s-0.004 0.128 0.056 0.116c0.028-0.005 0.055-0.032 0.060-0.060zM16.525 20.137c0.078-0.067 0.079-0.072 0.045-0.219-0.048-0.207-0.045-0.229 0.034-0.248 0.1-0.025 0.352 0.11 0.408 0.219 0.044 0.084 0.042 0.090-0.032 0.158-0.080 0.073-0.079 0.159 0 0.159 0.066 0 0.248-0.172 0.248-0.234 0-0.086-0.202-0.288-0.361-0.363-0.099-0.046-0.197-0.068-0.312-0.068-0.204 0-0.232 0.044-0.177 0.282 0.065 0.279-0.023 0.316-0.248 0.106-0.167-0.156-0.232-0.318-0.232-0.574 0-0.274 0.105-0.41 0.342-0.442 0.157-0.021 0.153-0.058-0.008-0.082-0.236-0.036-0.435 0.122-0.51 0.403-0.084 0.312 0.108 0.691 0.449 0.887 0.178 0.102 0.249 0.105 0.353 0.016zM25.807 19.796c0.019-0.019 0.035-0.062 0.035-0.096s0.032-0.105 0.072-0.159c0.040-0.054 0.072-0.109 0.072-0.122 0-0.055-0.090-0.053-0.161 0.004-0.073 0.057-0.128 0.058-0.128 0.003 0-0.014 0.035-0.042 0.077-0.063 0.106-0.052 0.115-0.103 0.025-0.144-0.115-0.052-0.23 0.043-0.242 0.2-0.008 0.105 0.001 0.123 0.082 0.171 0.074 0.044 0.088 0.067 0.075 0.129-0.021 0.108 0.024 0.146 0.092 0.077zM26.68 19.697c0.064-0.057 0.116-0.123 0.116-0.144s0.055-0.080 0.123-0.128c0.192-0.138 0.234-0.277 0.148-0.491-0.033-0.084-0.138-0.2-0.366-0.405-0.175-0.158-0.336-0.288-0.357-0.288-0.062 0-0.051 0.229 0.012 0.249 0.114 0.036 0.183 0.083 0.362 0.244 0.208 0.188 0.304 0.364 0.252 0.461-0.050 0.095-0.117 0.065-0.3-0.132-0.096-0.104-0.192-0.188-0.212-0.188-0.021 0-0.036 0.038-0.036 0.090 0 0.066 0.035 0.128 0.13 0.234 0.155 0.172 0.17 0.276 0.054 0.368-0.042 0.033-0.085 0.060-0.096 0.060s-0.044-0.052-0.076-0.114c-0.065-0.132-0.462-0.551-0.521-0.551-0.027 0-0.040 0.034-0.040 0.1 0 0.080 0.016 0.109 0.080 0.142 0.079 0.041 0.273 0.237 0.469 0.473 0.056 0.068 0.111 0.122 0.123 0.123s0.073-0.047 0.137-0.104zM27.069 18.583c-0.026-0.083-0.558-0.631-0.613-0.631-0.028 0-0.037 0.034-0.031 0.121 0.008 0.106 0.019 0.124 0.092 0.143 0.045 0.012 0.186 0.122 0.312 0.244s0.236 0.215 0.244 0.206c0.009-0.009 0.007-0.046-0.004-0.083zM23.889 24.751c0 0.040-0.035 0.073-0.079 0.073s-0.079-0.032-0.079-0.073v0c0-0.040 0.035-0.073 0.079-0.073s0.079 0.032 0.079 0.073v0zM24.168 24.657c0 0.040-0.035 0.073-0.079 0.073s-0.079-0.032-0.079-0.073v0c0-0.040 0.035-0.073 0.079-0.073s0.079 0.032 0.079 0.073v0z"></path>
</svg>
