<!-- Generated by IcoMoon.io -->
<svg version="1.1" xmlns="http://www.w3.org/2000/svg" width="43" height="32" viewBox="0 0 43 32">
<title>BOB5</title>
<path fill="#a05a2c" d="M24.572 14.047c-0.038 0.037-6.506 6.497-6.534 6.525-0.014-0.011-0.042-0.032-0.070-0.053l-0.016-0.012c0.027-0.027 6.497-6.484 6.535-6.523-0.017-0.019 0.116 0.081 0.086 0.063z"></path>
<path fill="#e7e7e7" d="M24.979 13.635c-0.024 0.046-0.095 0.163-0.067 0.25-0.053-0.034-0.079-0.060-0.13-0.097 0.034 0.060 0.024 0.095-0.009 0.116-0.021 0.028-0.094 0.021-0.14 0.013 0.046 0.028 0.098 0.058 0.162 0.064s0.087 0.003 0.126 0.007c-0.039 0.021-0.142 0.055-0.213 0.066-0.036 0.006-0.105 0.012-0.136-0.007-0.038 0.037-0.124-0.024-0.086-0.063-0.017-0.019-0.019-0.050-0.023-0.091-0.005-0.046 0.005-0.126 0.044-0.201 0.006 0.038 0.018 0.077 0.032 0.113s0.044 0.064 0.074 0.095c-0.017-0.032-0.028-0.082 0.006-0.117s0.084-0.036 0.131-0.017c-0.042-0.032-0.073-0.051-0.123-0.088 0.052-0 0.218-0.064 0.273-0.097s0.229-0.17 0.326-0.254c-0.081 0.093-0.224 0.263-0.248 0.308z"></path>
<path fill="#a05a2c" d="M25.802 14.852c-0.049 0.027-8.342 4.708-8.379 4.728-0.016-0.022-0.047-0.063-0.062-0.083 0.034-0.020 8.33-4.697 8.379-4.726-0.010-0.022 0.086 0.106 0.062 0.081z"></path>
<path fill="#e7e7e7" d="M26.326 14.553c-0.038 0.038-0.144 0.135-0.145 0.225-0.040-0.045-0.057-0.076-0.094-0.124 0.013 0.066-0.007 0.097-0.046 0.11-0.029 0.022-0.097-0.002-0.139-0.021 0.036 0.038 0.076 0.079 0.135 0.1s0.083 0.023 0.119 0.036c-0.044 0.011-0.154 0.020-0.227 0.013-0.036-0.003-0.105-0.013-0.129-0.039-0.049 0.027-0.111-0.052-0.062-0.081-0.010-0.022-0.002-0.053 0.007-0.093 0.010-0.046 0.046-0.12 0.107-0.183-0.004 0.025-0.006 0.053-0.006 0.082 0 0.012 0 0.024 0.001 0.036l-0-0.002c0.002 0.037 0.022 0.072 0.040 0.109-0.006-0.035-0-0.085 0.044-0.111s0.092-0.014 0.131 0.014c-0.030-0.041-0.054-0.067-0.090-0.114 0.050 0.012 0.23-0.010 0.293-0.029s0.275-0.11 0.395-0.167c-0.107 0.070-0.3 0.2-0.337 0.238z"></path>
<path fill="#a05a2c" d="M25.088 14.499c-0.044 0.032-7.497 5.657-7.53 5.682-0.019-0.019-0.057-0.057-0.075-0.074 0.031-0.024 7.486-5.646 7.53-5.68-0.013-0.021 0.102 0.095 0.075 0.073z"></path>
<path fill="#e7e7e7" d="M25.558 14.14c-0.031 0.042-0.121 0.15-0.107 0.24-0.047-0.040-0.069-0.069-0.113-0.112 0.024 0.063 0.008 0.097-0.027 0.114-0.026 0.025-0.096 0.010-0.141-0.004 0.041 0.034 0.088 0.069 0.15 0.083s0.085 0.013 0.124 0.021c-0.042 0.016-0.149 0.038-0.222 0.040-0.036 0.001-0.106-0.001-0.134-0.023-0.044 0.032-0.119-0.038-0.075-0.073-0.013-0.021-0.010-0.052-0.008-0.093 0.003-0.046 0.026-0.124 0.076-0.194 0 0.041 0.005 0.081 0.014 0.119l-0.001-0.004c0.008 0.037 0.033 0.069 0.058 0.103-0.012-0.034-0.014-0.084 0.025-0.115s0.089-0.025 0.132-0.001c-0.036-0.037-0.064-0.060-0.108-0.102 0.051 0.006 0.226-0.038 0.286-0.064s0.254-0.142 0.364-0.212c-0.095 0.083-0.265 0.234-0.295 0.276z"></path>
<path fill="#a05a2c" d="M18.095 14.047c0.038 0.037 6.506 6.497 6.534 6.525 0.022-0.017 0.065-0.050 0.086-0.065-0.027-0.027-6.497-6.484-6.535-6.523 0.017-0.019-0.116 0.081-0.086 0.063z"></path>
<path fill="#e7e7e7" d="M17.688 13.635c0.024 0.046 0.095 0.163 0.067 0.25 0.053-0.034 0.079-0.060 0.13-0.097-0.034 0.060-0.024 0.095 0.009 0.116 0.021 0.028 0.094 0.021 0.14 0.013-0.046 0.028-0.098 0.058-0.162 0.064s-0.087 0.003-0.126 0.007c0.039 0.021 0.142 0.055 0.213 0.066 0.036 0.006 0.105 0.012 0.136-0.007 0.038 0.037 0.124-0.024 0.086-0.063 0.017-0.019 0.019-0.050 0.023-0.091 0.005-0.046-0.005-0.126-0.044-0.201-0.007 0.043-0.019 0.081-0.034 0.117l0.001-0.004c-0.014 0.035-0.044 0.064-0.074 0.095 0.017-0.032 0.028-0.082-0.006-0.117s-0.084-0.036-0.131-0.017c0.042-0.032 0.073-0.051 0.123-0.088-0.052-0-0.218-0.064-0.273-0.097s-0.229-0.17-0.326-0.254c0.081 0.093 0.224 0.263 0.248 0.308z"></path>
<path fill="#a05a2c" d="M16.865 14.852c0.049 0.027 8.342 4.708 8.379 4.728 0.016-0.022 0.047-0.063 0.062-0.083-0.034-0.020-8.33-4.697-8.379-4.726 0.010-0.022-0.086 0.106-0.062 0.081z"></path>
<path fill="#e7e7e7" d="M16.341 14.553c0.038 0.038 0.144 0.135 0.145 0.225 0.040-0.045 0.057-0.076 0.094-0.124-0.013 0.066 0.007 0.097 0.046 0.11 0.029 0.022 0.097-0.002 0.139-0.021-0.036 0.038-0.076 0.079-0.135 0.1s-0.083 0.023-0.119 0.036c0.044 0.011 0.154 0.020 0.227 0.013 0.036-0.003 0.105-0.013 0.129-0.039 0.049 0.027 0.111-0.052 0.062-0.081 0.010-0.022 0.002-0.053-0.007-0.093-0.010-0.046-0.046-0.12-0.107-0.183 0.006 0.037 0.008 0.078 0.005 0.116s-0.022 0.072-0.040 0.109c0.006-0.035 0-0.085-0.044-0.111s-0.092-0.014-0.131 0.014c0.030-0.041 0.054-0.067 0.090-0.114-0.050 0.012-0.23-0.010-0.293-0.029s-0.275-0.11-0.395-0.167c0.107 0.070 0.3 0.2 0.337 0.238z"></path>
<path fill="#a05a2c" d="M17.578 14.499c0.044 0.032 7.497 5.657 7.53 5.682 0.019-0.019 0.057-0.057 0.075-0.074-0.031-0.024-7.486-5.646-7.53-5.68 0.013-0.021-0.102 0.095-0.075 0.073z"></path>
<path fill="#e7e7e7" d="M17.108 14.14c0.031 0.042 0.121 0.15 0.107 0.24 0.047-0.040 0.069-0.069 0.113-0.112-0.024 0.063-0.008 0.097 0.027 0.114 0.026 0.025 0.096 0.010 0.141-0.004-0.041 0.034-0.088 0.069-0.15 0.083s-0.085 0.013-0.124 0.021c0.042 0.016 0.149 0.038 0.222 0.040 0.036 0.001 0.106-0.001 0.134-0.023 0.044 0.032 0.119-0.038 0.075-0.073 0.013-0.021 0.010-0.052 0.008-0.093-0.003-0.046-0.026-0.124-0.076-0.194-0 0.041-0.005 0.081-0.014 0.119l0.001-0.004c-0.008 0.037-0.033 0.069-0.058 0.103 0.012-0.034 0.014-0.084-0.025-0.115s-0.089-0.025-0.132-0.001c0.036-0.037 0.064-0.060 0.108-0.102-0.051 0.006-0.226-0.038-0.286-0.064s-0.254-0.142-0.364-0.212c0.095 0.083 0.265 0.234 0.295 0.276z"></path>
<path fill="#a05a2c" d="M23.171 14.678l-1.698 3.488c-0.084 0.065-0.154-0.022-0.178-0.013-0.102 0.114-0.242 0.138-0.272 0.164-0.118 0.161-0.053 0.291-0.046 0.302 0.088 0.119-0.104 0.235-0.097 0.272-0.038 0.067-0.18 0.052-0.209 0.133-0.006-0.009-0.289 0.555-0.319 0.615-0.042 0.033-0.243 0.408-0.243 0.408-0.141-0.002-0.682-0.348-0.693-0.342 0.304-0.487 1.034-1.233 1.019-1.281 0.205-0.347 0.533-0.723 0.673-0.721 0.2-0.105 0.297-0.376 0.258-0.438 0.153-0.004 0.237-0.095 0.248-0.1l1.253-2.505c0.105-0.034 0.089 0.008 0.122 0.069 0 0 0.067-0.080 0.062-0.090 0.059-0.029 0.117 0.012 0.118 0.038z"></path>
<path fill="#cce5e5" d="M23.236 13.917c-0.032 0.069 0.018 0.069 0.035 0.078l0.072 0.019c0.081 0.001 0.124 0.043 0.125 0.070l-1.996 4.082c-0.084 0.065-0.165-0.017-0.191-0.007l1.369-2.789s0.527-0.98 0.665-1.253l-0.181-0.077c-0.056-0.013-0.073-0.051-0.048-0.108l0.838-1.441-0.676 1.399-0.012 0.026"></path>
<path fill="#e7e7e7" d="M23.236 13.917c-0.032 0.069 0.018 0.069 0.035 0.078l0.072 0.019c0.081 0.001 0.124 0.043 0.125 0.070l-1.996 4.082c-0.084 0.065-0.165-0.017-0.191-0.007l1.369-2.789s0.527-0.98 0.665-1.253l-0.181-0.077c-0.056-0.013-0.073-0.051-0.048-0.108l0.838-1.441-0.676 1.399-0.012 0.026"></path>
<path fill="#cce5e5" d="M21.464 18.18c-0.088-0.031-0.38-0.303-0.667-0.255-0.218 0.254-0.349 0.513-0.388 0.548 0.267 0.22 0.442 0.329 0.507 0.362 0.043-0.027 0.066-0.102 0.066-0.102 0.055-0.061-0.013-0.116-0.013-0.116 0.007-0.164 0.127-0.278 0.248-0.286 0.152-0.012 0.109-0.025 0.128-0.025 0.070-0.040 0.119-0.125 0.119-0.125z"></path>
<path fill="#cce5e5" d="M23.021 15.074c0.053-0.018 0.077-0.078 0.051-0.135l-0.313-0.113s-0.037 0.006-0.068 0.049c-0.031 0.044 0.011 0.079 0.011 0.079l0.318 0.12"></path>
<path fill="#a05a2c" d="M22.711 14.804l-1.627 3.513c-0.083 0.067-0.155-0.020-0.178-0.010-0.099 0.116-0.239 0.141-0.268 0.169-0.115 0.163-0.047 0.292-0.040 0.303 0.091 0.118-0.1 0.237-0.091 0.273-0.036 0.067-0.179 0.054-0.207 0.136-0.006-0.009-0.278 0.559-0.306 0.62-0.042 0.033-0.235 0.412-0.235 0.412-0.141-0-0.689-0.338-0.7-0.332 0.294-0.491 1.009-1.249 0.993-1.296 0.198-0.35 0.518-0.731 0.659-0.731 0.198-0.108 0.29-0.38 0.249-0.442 0.153-0.006 0.235-0.098 0.246-0.104l1.202-2.523c0.104-0.036 0.089 0.007 0.124 0.067 0 0 0.065-0.081 0.061-0.091 0.059-0.030 0.117 0.010 0.118 0.036z"></path>
<path fill="#cce5e5" d="M22.761 14.043c-0.031 0.069 0.019 0.069 0.037 0.078l0.072 0.018c0.081 0 0.125 0.042 0.127 0.068l-1.912 4.111c-0.083 0.067-0.165-0.015-0.191-0.004l1.312-2.809s0.507-0.988 0.639-1.262l-0.183-0.075c-0.056-0.013-0.074-0.050-0.050-0.107l0.809-1.453-0.647 1.409-0.012 0.027"></path>
<path fill="#e7e7e7" d="M22.761 14.043c-0.031 0.069 0.019 0.069 0.037 0.078l0.072 0.018c0.081 0 0.125 0.042 0.127 0.068l-1.912 4.111c-0.083 0.067-0.165-0.015-0.191-0.004l1.312-2.809s0.507-0.988 0.639-1.262l-0.183-0.075c-0.056-0.013-0.074-0.050-0.050-0.107l0.809-1.453-0.647 1.409-0.012 0.027"></path>
<path fill="#cce5e5" d="M21.075 18.332c-0.089-0.030-0.386-0.297-0.672-0.245-0.213 0.257-0.339 0.518-0.377 0.554 0.271 0.216 0.449 0.323 0.515 0.355 0.042-0.028 0.063-0.103 0.063-0.103 0.054-0.062-0.015-0.116-0.015-0.116 0.004-0.164 0.121-0.28 0.242-0.29 0.151-0.015 0.109-0.026 0.128-0.027 0.069-0.041 0.116-0.127 0.116-0.127z"></path>
<path fill="#cce5e5" d="M22.569 15.203c0.053-0.018 0.075-0.079 0.048-0.136l-0.315-0.108s-0.036 0.007-0.067 0.050c-0.030 0.044 0.013 0.079 0.013 0.079l0.321 0.116"></path>
<path fill="#a05a2c" d="M19.514 14.623l1.715 3.523c0.085 0.066 0.156-0.023 0.18-0.013 0.103 0.115 0.244 0.139 0.274 0.166 0.119 0.162 0.054 0.294 0.047 0.305-0.089 0.12 0.105 0.237 0.098 0.275 0.038 0.068 0.182 0.052 0.211 0.134 0.006-0.009 0.292 0.561 0.322 0.622 0.043 0.033 0.246 0.413 0.246 0.413 0.142-0.002 0.689-0.351 0.7-0.346-0.307-0.492-1.044-1.246-1.029-1.294-0.207-0.351-0.538-0.731-0.68-0.728-0.202-0.106-0.3-0.379-0.261-0.442-0.155-0.004-0.24-0.096-0.25-0.101l-1.266-2.53c-0.106-0.035-0.090 0.008-0.124 0.069 0 0-0.067-0.081-0.063-0.091-0.060-0.029-0.118 0.012-0.119 0.039z"></path>
<path fill="#cce5e5" d="M19.448 13.855c0.033 0.070-0.018 0.070-0.036 0.079l-0.073 0.020c-0.082 0.001-0.126 0.044-0.126 0.070l2.016 4.123c0.085 0.066 0.167-0.017 0.193-0.007l-1.382-2.817s-0.532-0.99-0.671-1.265l0.183-0.078c0.057-0.014 0.074-0.052 0.049-0.109l-0.847-1.456 0.683 1.413 0.012 0.027"></path>
<path fill="#e7e7e7" d="M19.448 13.855c0.033 0.070-0.018 0.070-0.036 0.079l-0.073 0.020c-0.082 0.001-0.126 0.044-0.126 0.070l2.016 4.123c0.085 0.066 0.167-0.017 0.193-0.007l-1.382-2.817s-0.532-0.99-0.671-1.265l0.183-0.078c0.057-0.014 0.074-0.052 0.049-0.109l-0.847-1.456 0.683 1.413 0.012 0.027"></path>
<path fill="#cce5e5" d="M21.238 18.161c0.089-0.031 0.384-0.306 0.674-0.258 0.221 0.256 0.353 0.518 0.392 0.554-0.269 0.222-0.447 0.333-0.513 0.366-0.043-0.027-0.066-0.103-0.066-0.103-0.056-0.062 0.013-0.117 0.013-0.117-0.008-0.165-0.128-0.281-0.25-0.289-0.153-0.013-0.11-0.025-0.13-0.026-0.070-0.040-0.12-0.127-0.12-0.127z"></path>
<path fill="#cce5e5" d="M19.666 15.024c-0.054-0.018-0.077-0.079-0.052-0.136l0.316-0.114s0.037 0.006 0.069 0.049c0.031 0.044-0.011 0.080-0.011 0.080l-0.322 0.122"></path>
<path fill="#a05a2c" d="M19.967 14.804l1.627 3.513c0.083 0.067 0.155-0.020 0.178-0.010 0.099 0.116 0.239 0.141 0.268 0.169 0.115 0.163 0.047 0.292 0.040 0.303-0.091 0.118 0.1 0.237 0.091 0.273 0.036 0.067 0.179 0.054 0.207 0.136 0.006-0.009 0.278 0.559 0.306 0.62 0.042 0.033 0.235 0.412 0.235 0.412 0.141-0 0.689-0.338 0.7-0.332-0.294-0.491-1.009-1.249-0.993-1.296-0.198-0.35-0.518-0.731-0.659-0.731-0.198-0.108-0.29-0.38-0.249-0.442-0.153-0.006-0.235-0.098-0.246-0.104l-1.202-2.523c-0.104-0.036-0.089 0.007-0.124 0.067 0 0-0.065-0.081-0.061-0.091-0.059-0.030-0.117 0.010-0.118 0.036z"></path>
<path fill="#cce5e5" d="M19.917 14.043c0.031 0.069-0.019 0.069-0.037 0.078l-0.073 0.018c-0.081 0-0.125 0.042-0.126 0.068l1.912 4.111c0.083 0.067 0.165-0.015 0.191-0.004l-1.312-2.809s-0.507-0.988-0.639-1.262l0.183-0.075c0.056-0.013 0.074-0.050 0.050-0.107l-0.809-1.453 0.647 1.409 0.012 0.027"></path>
<path fill="#e7e7e7" d="M19.917 14.043c0.031 0.069-0.019 0.069-0.037 0.078l-0.073 0.018c-0.081 0-0.125 0.042-0.126 0.068l1.912 4.111c0.083 0.067 0.165-0.015 0.191-0.004l-1.312-2.809s-0.507-0.988-0.639-1.262l0.183-0.075c0.056-0.013 0.074-0.050 0.050-0.107l-0.809-1.453 0.647 1.409 0.012 0.027"></path>
<path fill="#cce5e5" d="M21.602 18.332c0.089-0.030 0.386-0.297 0.672-0.245 0.213 0.257 0.339 0.518 0.377 0.554-0.271 0.216-0.449 0.323-0.515 0.355-0.042-0.028-0.063-0.103-0.063-0.103-0.054-0.062 0.015-0.116 0.015-0.116-0.004-0.164-0.121-0.28-0.242-0.29-0.151-0.015-0.109-0.026-0.128-0.027-0.069-0.041-0.116-0.127-0.116-0.127z"></path>
<path fill="#cce5e5" d="M20.109 15.203c-0.053-0.018-0.075-0.079-0.048-0.136l0.315-0.108s0.036 0.007 0.067 0.050c0.030 0.044-0.013 0.079-0.013 0.079l-0.321 0.116"></path>
<path fill="#a05a2c" d="M21.017 16.711c0.035-0.039 2.342-2.499 2.369-2.527-0.052-0.035-0.082-0.055-0.111-0.076l0.020 0.014c-0.026 0.027-2.34 2.49-2.377 2.528-0.025-0.011 0.126 0.084 0.099 0.062z"></path>
<path fill="#e7e7e7" d="M23.321 14.147c-0.084-0.068-0.23-0.149-0.332-0.123-0.035-0.143 0.167-0.292 0.251-0.27-0.021 0.157 0.212 0.256 0.208 0.257l-0.127 0.136z"></path>
<path fill="#e7e7e7" d="M23.474 14.027c0.065 0.051 0.093 0.055 0.186 0.105 0.091 0.049 0.216-0.074 0.274-0.112 0 0 0.062 0.227-0.076 0.376s-0.304 0.181-0.435 0.137c0 0 0.173-0.169 0.102-0.243-0.069-0.071-0.094-0.077-0.163-0.122"></path>
<path fill="#007934" d="M20.545 19.354l-0.061 0.603s0.093-0.114 0.116-0.152c0.022-0.038 0.103-0.139 0.121-0.491 0 0-0.063-0.194-0.093-0.194-0.049-0.024-0.082 0.234-0.082 0.234zM20.693 18.011s-0.162 0.967-0.178 1.055c0 0.030 0.082 0.11 0.141-0.077l0.098-0.703s-0.044-0.187-0.061-0.275z"></path>
<path fill="#d52b1e" d="M21.058 18.971c-0.039-0.050-0.089-0.112-0.094-0.137l-0.025 0.213s0.135 0.098 0.115 0.287l0.026-0.038 0.015-0.075s0.028-0.126 0.028-0.201c0 0-0.028-0.012-0.065-0.049z"></path>
<path fill="#ffe000" d="M20.483 19.957s0.224-0.191 0.236-0.643l0.028-0.126s0.005 0.1 0.049 0.024c0.044-0.101 0.041-0.189 0.041-0.189s0.081-0.101 0.105 0.024c0 0-0.075 0.59-0.080 0.64-0.007 0.063-0.013 0.11-0.020 0.157l0.002-0.019s-0.044-0.075-0.089 0.001c-0.049 0.076-0.126 0.177-0.273 0.129zM20.754 18.286l-0.098 0.703s0.078 0.037 0.091 0.199c0.007 0.075 0.037 0.037 0.049 0.024 0.016-0.050 0.004-0.15 0.004-0.15l0.043-0.49s-0.085-0.224-0.089-0.287z"></path>
<path fill="#ffe000" d="M20.676 19.917l-0.014 0.176s0.067-0.001 0.112-0.077c0.052-0.076 0.071-0.189 0.071-0.189s-0.052-0.075-0.089 0.001c-0.036 0.063-0.080 0.089-0.080 0.089zM20.796 19.213c0.036-0.063 0.048-0.176 0.042-0.189l-0.045 0.038c0.015 0.075 0.004 0.15 0.004 0.15z"></path>
<path fill="#d52b1e" d="M21.016 19.142c-0.021-0.040-0.048-0.073-0.082-0.099l-0.001-0-0.099 0.791s-0.028 0.201-0.152 0.253c0 0 0.071 0.688 0.294 0.497 0.032-0.026 0.073-0.239 0.059-0.364-0.016-0.138-0.052-0.325-0.056-0.4-0.002-0.088 0.010-0.177 0.032-0.315 0.009-0.050 0.035-0.16 0.040-0.173 0.012-0.013-0.003-0.115-0.036-0.19z"></path>
<path fill="#d52b1e" d="M21.124 19.020s0.060 0.062 0.072 0.062c0.015-0-0.157 1.29-0.157 1.29s0.006-0.135-0.044-0.398c-0.041-0.213 0.012-0.5 0.058-0.637 0 0 0.054-0.040 0.071-0.316z"></path>
<path fill="#f7e214" d="M20.838 18.586s-0.033 0.364-0.041 0.477c0 0 0.113-0.165 0.142-0.015l0.025-0.213s-0.099-0.162-0.127-0.249z"></path>
<path fill="#007934" d="M20.751 19.187s-0.037-0.408-0.235-0.119c-0.008 0-0.018 0.162-0.007 0.201 0.006 0.052 0.061 0.116 0.084 0.155 0.043 0.064 0.089-0.014 0.089-0.014s0.045-0.065 0.068-0.221z"></path>
<path fill="#d52b1e" d="M17.837 18.005c-0.096-0.287 0.035-0.849 0.020-1.209-0.011-0.232 0.16-1.106 0.156-1.37l-0.941-0.588s-0.041 0.955-0.149 1.995c-0.097 0.534-0.097 1.022-0.027 1.43 0.1 0.58 0.198 0.818 0.432 1.063 0.416 0.43 1.311 0.182 1.311 0.182 0.754-0.156 1.188-0.631 1.188-0.631s-0.245 0.058-0.643 0.098c-0.871-0.061-1.214 0.157-1.241-0.737"></path>
<path fill="#f7e214" d="M20.359 18.584l0.015-0.006c-0.163 0.061-0.391 0.129-0.391 0.129l-0.531 0.041c-1.151 0.027-1.007-0.686-0.961-1.835 0.011-0.436 0.097-0.986 0.075-1.18l-0.771-0.442c-0.252 0.711-0.173 1.208-0.224 1.572-0.026 0.392-0.11 1.157 0.017 1.491 0.18 0.777 0.788 0.745 1.611 0.677 0.408-0.034 0.628-0.139 0.628-0.139l0.531-0.306"></path>
<path fill="#007a3d" d="M20.374 18.569c-0.16 0.083-0.394 0.144-0.394 0.144l-0.538 0.053c-0.834 0.071-1.323-0.515-1.216-1.84 0.001-0.468 0.016-0.676 0.177-1.3l0.459 0.269v0.043c-0.026 0.14-0.092 0.467-0.092 0.617 0 1.064 0.673 1.881 1.589 2.020l0.015-0.006"></path>
<path fill="#d52b1e" d="M18.517 17.655c-0.096-0.287 0.034-0.849 0.020-1.209-0.011-0.232 0.099-1.036 0.095-1.3l-0.88-0.658s-0.041 0.955-0.149 1.995c-0.097 0.534-0.172 1.189-0.099 1.596 0.118 0.667 0.439 0.854 0.497 0.906 0.449 0.4 1.464 0.361 1.565 0.325 0.725-0.259 1.041-0.72 1.041-0.72s-0.343-0.006-0.741 0.035c-0.871-0.061-1.31-0.025-1.338-0.918"></path>
<path fill="#ffe000" d="M21.039 18.234l0.015-0.006c-0.163 0.061-0.391 0.129-0.391 0.129l-0.531 0.041c-1.151 0.027-1.007-0.686-0.961-1.835 0.011-0.436 0.026-0.828 0.004-1.023l-0.69-0.503c-0.252 0.711-0.183 1.112-0.234 1.476-0.026 0.392-0.11 1.157 0.017 1.491 0.18 0.777 0.788 0.745 1.611 0.677 0.408-0.034 0.628-0.139 0.628-0.139l0.531-0.306"></path>
<path fill="#007934" d="M21.059 18.224c-0.16 0.083-0.394 0.144-0.394 0.144l-0.538 0.053c-0.834 0.071-1.323-0.515-1.216-1.84 0.001-0.468-0.015-0.501 0.147-1.125 0.256 0.166 0.744 0.583 0.744 0.583s-0.133 0.187-0.102 0.449c0 1.064 0.428 1.604 1.345 1.743l0.101-0.869"></path>
<path fill="#e8a30e" d="M17.078 14.931s-0.039 0.339-0.043 0.4c-0.018 0.294-0.010 0.516 0.004 0.655-0.001 0.015 0.057 0.367 0.037 0.385-0.068 0.077-0.070 0.086-0.141 0.029-0.010-0.012 0.031-0.372 0.034-0.421 0.007-0.053 0.018-0.474 0.026-0.657 0.001-0.073 0.063-0.43 0.063-0.43s0.008-0.076 0.020 0.039"></path>
<path fill="#f7e214" d="M17.071 14.812s-0.077 0.406-0.084 0.639c-0.010 0.283-0.022 0.362-0.018 0.527 0.003 0.011-0.028 0.213-0.037 0.3-0.006 0.045 0.007 0.012-0.001 0.015-0.058 0.035-0.097 0.007-0.132-0.021-0.010-0.008 0.093-0.252 0.096-0.302 0.055-0.717 0.159-1.137 0.159-1.137s-0.041 0.254 0.016-0.022"></path>
<path fill="#e8a30e" d="M17.071 14.812s-0.077 0.406-0.083 0.639c-0.010 0.283-0.022 0.363-0.018 0.527 0.003 0.011-0.028 0.213-0.037 0.3-0.006 0.045 0.007 0.012-0.001 0.015-0.058 0.035-0.097 0.007-0.132-0.021-0.010-0.008 0.093-0.252 0.096-0.302 0.055-0.717 0.158-1.137 0.158-1.137s-0.041 0.254 0.016-0.022v0zM17.038 15.966s-0.061 0.028-0.068 0.012M16.967 15.895s0.052-0.001 0.060-0.016M17.025 15.809s-0.038 0.025-0.049 0.009M17.024 15.706l-0.037 0.002M17.026 15.606l-0.041 0.001M17.020 15.464s-0.023 0.010-0.026-0.005M17.027 15.346l-0.033-0.001M16.962 15.982s-0.060 0.009-0.066-0.011M16.967 15.845s-0.059 0.005-0.062-0.014M16.969 15.745s-0.048 0.002-0.052-0.002M16.979 15.65l-0.048-0.002M16.978 15.535l-0.033-0.005M16.992 15.436s-0.030 0.006-0.036-0.009M16.995 15.321s-0.027 0.018-0.026-0.001M16.966 15.917s-0.059 0.001-0.058-0.018M17.758 14.581s-0.039 0.339-0.043 0.4c-0.018 0.294-0.010 0.516 0.004 0.655-0.001 0.015 0.057 0.367 0.037 0.385-0.068 0.077-0.070 0.086-0.141 0.029-0.010-0.012 0.031-0.372 0.034-0.421 0.007-0.053 0.018-0.474 0.026-0.657 0.001-0.073 0.063-0.43 0.063-0.43s0.008-0.076 0.020 0.039"></path>
<path fill="#e8a30e" d="M17.751 14.462s-0.077 0.406-0.084 0.639c-0.010 0.283-0.022 0.363-0.018 0.527 0.003 0.011-0.028 0.213-0.037 0.3-0.006 0.045 0.007 0.012-0.001 0.015-0.058 0.035-0.097 0.007-0.132-0.021-0.010-0.008 0.093-0.252 0.096-0.302 0.055-0.717 0.159-1.137 0.159-1.137l0.016-0.022"></path>
<path fill="#e8a30e" d="M18.289 14.084s0.031 0.343 0.012 0.536c-0.022 0.235-0.018 0.302-0.042 0.438-0.004 0.009 0.004 0.179 0.003 0.252 0.001 0.038-0.008 0.009-0.001 0.012 0.054 0.034 0.096 0.014 0.134-0.006 0.015-0.006-0.065-0.216-0.062-0.258 0.026-0.599-0.031-0.955-0.031-0.955l-0.013-0.019"></path>
<path fill="#e8a30e" d="M18.289 14.084s0.031 0.343 0.011 0.536c-0.022 0.235-0.018 0.302-0.042 0.438-0.004 0.009 0.004 0.179 0.003 0.252 0.001 0.038-0.008 0.009-0.001 0.012 0.053 0.034 0.096 0.014 0.134-0.006 0.015-0.006-0.065-0.217-0.062-0.258 0.026-0.599-0.030-0.955-0.030-0.955l-0.013-0.019zM18.266 15.062s0.058 0.012 0.067-0.003M18.281 14.948s0.059 0.009 0.060-0.007M18.286 14.866s0.047 0.005 0.052 0.002M18.287 14.786l0.048 0.002M18.3 14.69l0.033-0.002M18.302 14.608s0.025 0.007 0.034-0.005M18.308 14.512s0.025 0.017 0.025 0.001M18.27 15.008s0.059 0.005 0.060-0.010"></path>
<path fill="#e8a30e" d="M19.479 18.947c-0.015 0.204-0.49 0.438-0.845 0.008-0.379-0.3-0.297-0.759 0.004-0.823l3.641-3.551c0.146-0.080 0.16-0.156 0.233-0.233 0.153 0.162 0.469 0.454 0.642 0.594-0.105 0.088-0.19 0.171-0.214 0.24l-3.461 3.766z"></path>
<path fill="#007934" d="M22.122 19.354l0.061 0.603s-0.093-0.114-0.116-0.152c-0.022-0.038-0.103-0.139-0.121-0.491 0 0 0.063-0.194 0.093-0.194 0.049-0.024 0.082 0.234 0.082 0.234zM21.974 18.011s0.162 0.967 0.178 1.055c0 0.030-0.082 0.11-0.141-0.077l-0.098-0.703s0.044-0.187 0.061-0.275z"></path>
<path fill="#d52b1e" d="M21.608 18.971c0.039-0.050 0.089-0.112 0.094-0.137l0.025 0.213s-0.135 0.098-0.115 0.287l-0.026-0.038-0.015-0.075s-0.028-0.126-0.028-0.201c0 0 0.028-0.012 0.065-0.049z"></path>
<path fill="#ffe000" d="M22.184 19.957s-0.224-0.191-0.236-0.643l-0.028-0.126s-0.005 0.1-0.049 0.024c-0.044-0.101-0.041-0.189-0.041-0.189s-0.081-0.101-0.105 0.024c0 0 0.075 0.59 0.080 0.64 0.006 0.063 0.018 0.138 0.018 0.138s0.044-0.075 0.089 0.001c0.049 0.076 0.126 0.177 0.273 0.129zM21.913 18.286l0.098 0.703s-0.078 0.037-0.091 0.199c-0.007 0.075-0.037 0.037-0.049 0.024-0.016-0.050-0.004-0.15-0.004-0.15l-0.043-0.49s0.085-0.224 0.089-0.287z"></path>
<path fill="#ffe000" d="M21.99 19.917l0.014 0.176s-0.067-0.001-0.112-0.077c-0.052-0.076-0.071-0.189-0.071-0.189s0.052-0.075 0.089 0.001c0.036 0.063 0.080 0.089 0.080 0.089zM21.87 19.213c-0.036-0.063-0.048-0.176-0.042-0.189l0.045 0.038c-0.015 0.075-0.004 0.15-0.004 0.15z"></path>
<path fill="#d52b1e" d="M21.65 19.142c0.021-0.040 0.048-0.073 0.082-0.099l0.001-0 0.099 0.791s0.028 0.201 0.152 0.253c0 0-0.071 0.688-0.294 0.497-0.032-0.026-0.073-0.239-0.059-0.364 0.016-0.138 0.052-0.325 0.056-0.4 0.002-0.088-0.010-0.177-0.032-0.315-0.009-0.050-0.035-0.16-0.040-0.173-0.012-0.013 0.003-0.115 0.036-0.19z"></path>
<path fill="#d52b1e" d="M21.543 19.020s-0.060 0.062-0.072 0.062c-0.015-0 0.157 1.29 0.157 1.29s-0.006-0.135 0.044-0.398c0.041-0.213-0.012-0.5-0.058-0.637 0 0-0.054-0.040-0.071-0.316z"></path>
<path fill="#f7e214" d="M21.829 18.586s0.033 0.364 0.041 0.477c0 0-0.113-0.165-0.142-0.015l-0.025-0.213s0.099-0.162 0.127-0.249z"></path>
<path fill="#007934" d="M21.915 19.187s0.037-0.408 0.235-0.119c0.008 0 0.018 0.162 0.007 0.201-0.006 0.052-0.061 0.116-0.084 0.155-0.043 0.064-0.089-0.014-0.089-0.014s-0.045-0.065-0.068-0.221z"></path>
<path fill="#d52b1e" d="M24.83 18.005c0.096-0.287-0.035-0.849-0.020-1.209 0.011-0.232-0.16-1.106-0.156-1.37l0.941-0.588s0.041 0.955 0.149 1.995c0.097 0.534 0.097 1.022 0.027 1.43-0.1 0.58-0.198 0.818-0.432 1.063-0.416 0.43-1.311 0.182-1.311 0.182-0.754-0.156-1.188-0.631-1.188-0.631s0.245 0.058 0.643 0.098c0.871-0.061 1.214 0.157 1.241-0.737"></path>
<path fill="#f7e214" d="M22.308 18.584l-0.015-0.006c0.163 0.061 0.391 0.129 0.391 0.129l0.531 0.041c1.151 0.027 1.007-0.686 0.961-1.835-0.011-0.436-0.097-0.986-0.075-1.18l0.771-0.442c0.252 0.711 0.173 1.208 0.224 1.572 0.026 0.392 0.11 1.157-0.017 1.491-0.18 0.777-0.788 0.745-1.611 0.677-0.408-0.034-0.628-0.139-0.628-0.139l-0.531-0.306"></path>
<path fill="#007a3d" d="M22.293 18.569c0.16 0.083 0.394 0.144 0.394 0.144l0.538 0.053c0.834 0.071 1.323-0.515 1.216-1.84-0.001-0.468-0.016-0.676-0.177-1.3l-0.459 0.269v0.043c0.026 0.14 0.092 0.467 0.092 0.617 0 1.064-0.673 1.881-1.589 2.020l-0.015-0.006"></path>
<path fill="#d52b1e" d="M24.15 17.655c0.096-0.287-0.034-0.849-0.020-1.209 0.011-0.232-0.099-1.036-0.095-1.3l0.88-0.658s0.041 0.955 0.149 1.995c0.097 0.534 0.172 1.189 0.099 1.596-0.118 0.667-0.439 0.854-0.497 0.906-0.449 0.4-1.464 0.361-1.565 0.325-0.725-0.259-1.041-0.72-1.041-0.72s0.343-0.006 0.741 0.035c0.871-0.061 1.31-0.025 1.338-0.918"></path>
<path fill="#ffe000" d="M21.628 18.234l-0.015-0.006c0.163 0.061 0.391 0.129 0.391 0.129l0.531 0.041c1.151 0.027 1.007-0.686 0.961-1.835-0.011-0.436-0.026-0.828-0.004-1.023l0.69-0.503c0.252 0.711 0.183 1.112 0.234 1.476 0.026 0.392 0.11 1.157-0.017 1.491-0.18 0.777-0.788 0.745-1.611 0.677-0.408-0.034-0.628-0.139-0.628-0.139l-0.531-0.306"></path>
<path fill="#007934" d="M21.608 18.224c0.16 0.083 0.394 0.144 0.394 0.144l0.538 0.053c0.834 0.071 1.323-0.515 1.216-1.84-0.001-0.468 0.015-0.501-0.147-1.125-0.256 0.166-0.744 0.583-0.744 0.583s0.133 0.187 0.102 0.449c0 1.064-0.428 1.604-1.345 1.743l-0.101-0.869"></path>
<path fill="#f7e214" d="M25.588 14.931s0.039 0.339 0.043 0.4c0.018 0.294 0.010 0.516-0.004 0.655 0.001 0.015-0.057 0.367-0.037 0.385 0.068 0.077 0.070 0.086 0.141 0.029 0.010-0.012-0.031-0.372-0.034-0.421-0.007-0.053-0.018-0.474-0.026-0.657-0.001-0.073-0.063-0.43-0.063-0.43s-0.008-0.076-0.020 0.039"></path>
<path fill="#e8a30e" d="M25.588 14.931s0.039 0.339 0.043 0.4c0.018 0.294 0.009 0.516-0.004 0.655 0.001 0.015-0.069 0.504-0.047 0.386 0.068 0.077 0.081 0.106 0.153 0.049 0.010-0.012-0.032-0.393-0.035-0.442-0.007-0.053-0.018-0.474-0.026-0.657-0.001-0.073-0.063-0.43-0.063-0.43s-0.008-0.076-0.020 0.039l-0 0.001z"></path>
<path fill="#f7e214" d="M25.596 14.812s0.077 0.406 0.084 0.639c0.010 0.283 0.022 0.362 0.018 0.527-0.003 0.011 0.028 0.213 0.037 0.3 0.006 0.045-0.007 0.012 0.001 0.015 0.058 0.035 0.097 0.007 0.132-0.021 0.010-0.008-0.093-0.252-0.096-0.302-0.055-0.717-0.159-1.137-0.159-1.137s0.041 0.254-0.016-0.022"></path>
<path fill="#e8a30e" d="M25.596 14.812s0.077 0.406 0.083 0.639c0.010 0.283 0.022 0.363 0.018 0.527-0.003 0.011 0.028 0.213 0.037 0.3 0.006 0.045-0.007 0.012 0.001 0.015 0.058 0.035 0.097 0.007 0.132-0.021 0.010-0.008-0.093-0.252-0.096-0.302-0.055-0.717-0.158-1.137-0.158-1.137s0.041 0.254-0.016-0.022v0zM25.629 15.966s0.061 0.028 0.068 0.012M25.699 15.895s-0.052-0.001-0.060-0.016M25.642 15.809s0.038 0.025 0.049 0.009M25.643 15.706l0.037 0.002M25.641 15.606l0.041 0.001M25.647 15.464s0.023 0.010 0.026-0.005M25.64 15.346l0.033-0.001M25.705 15.982s0.060 0.009 0.066-0.011M25.7 15.845s0.059 0.005 0.062-0.014M25.697 15.745s0.048 0.002 0.052-0.002M25.688 15.65l0.048-0.002M25.688 15.535l0.033-0.005M25.675 15.436s0.030 0.006 0.036-0.009M25.672 15.321s0.027 0.018 0.026-0.001M25.701 15.917s0.059 0.001 0.058-0.018"></path>
<path fill="#f7e214" d="M24.909 14.581s0.039 0.339 0.043 0.4c0.018 0.294 0.010 0.516-0.004 0.655 0.001 0.015-0.057 0.367-0.037 0.385 0.068 0.077 0.070 0.086 0.141 0.029 0.010-0.012-0.031-0.372-0.034-0.421-0.007-0.053-0.018-0.474-0.026-0.657-0.001-0.073-0.063-0.43-0.063-0.43s-0.008-0.076-0.020 0.039"></path>
<path fill="#e8a30e" d="M24.909 14.581s0.039 0.339 0.043 0.4c0.018 0.294 0.009 0.516-0.004 0.655 0.001 0.015-0.069 0.504-0.047 0.386 0.068 0.077 0.081 0.106 0.153 0.049 0.010-0.012-0.032-0.393-0.035-0.442-0.007-0.053-0.018-0.474-0.026-0.657-0.001-0.073-0.063-0.43-0.063-0.43s-0.008-0.076-0.020 0.039l-0 0.001z"></path>
<path fill="#f7e214" d="M24.916 14.462s0.077 0.406 0.084 0.639c0.010 0.283 0.022 0.363 0.018 0.527-0.003 0.011 0.028 0.213 0.037 0.3 0.006 0.045-0.007 0.012 0.001 0.015 0.058 0.035 0.097 0.007 0.132-0.021 0.010-0.008-0.093-0.252-0.096-0.302-0.055-0.717-0.159-1.137-0.159-1.137l-0.016-0.022"></path>
<path fill="#e8a30e" d="M24.916 14.462s0.077 0.406 0.083 0.639c0.010 0.283 0.022 0.363 0.018 0.527-0.003 0.011 0.028 0.213 0.037 0.3 0.006 0.045-0.007 0.012 0.001 0.015 0.058 0.035 0.097 0.007 0.132-0.021 0.010-0.008-0.093-0.252-0.096-0.302-0.055-0.717-0.158-1.137-0.158-1.137l-0.016-0.022v0zM24.949 15.616s0.061 0.028 0.068 0.012M25.019 15.545s-0.052-0.001-0.060-0.016M24.962 15.459s0.038 0.025 0.049 0.009M24.963 15.356l0.037 0.002M24.961 15.256l0.041 0.001M24.967 15.114s0.023 0.010 0.026-0.005M24.96 14.996l0.033-0.001M25.025 15.632s0.060 0.008 0.066-0.011M25.020 15.494s0.059 0.005 0.062-0.014M25.018 15.395s0.048 0.002 0.052-0.002M25.008 15.3l0.048-0.002M25.008 15.185l0.033-0.005M24.995 15.086s0.030 0.006 0.036-0.009M24.992 14.971s0.027 0.018 0.026-0.001M25.021 15.567s0.059 0.001 0.058-0.018M24.378 14.084s-0.031 0.343-0.012 0.536c0.022 0.235 0.018 0.302 0.042 0.438 0.004 0.009-0.004 0.179-0.003 0.252-0.001 0.038 0.008 0.009 0.001 0.012-0.054 0.034-0.096 0.014-0.134-0.006-0.015-0.006 0.065-0.216 0.062-0.258-0.026-0.599 0.031-0.955 0.031-0.955l0.013-0.019"></path>
<path fill="#e8a30e" d="M24.378 14.084s-0.031 0.343-0.011 0.536c0.022 0.235 0.018 0.302 0.042 0.438 0.004 0.009-0.004 0.179-0.003 0.252-0.001 0.038 0.008 0.009 0.001 0.012-0.053 0.034-0.096 0.014-0.134-0.006-0.015-0.006 0.065-0.217 0.062-0.258-0.026-0.599 0.030-0.955 0.030-0.955l0.013-0.019zM24.4 15.062s-0.058 0.012-0.067-0.003M24.386 14.948s-0.059 0.009-0.060-0.007M24.38 14.866s-0.047 0.005-0.052 0.002M24.38 14.786l-0.048 0.002M24.367 14.69l-0.033-0.002M24.365 14.608s-0.025 0.007-0.034-0.005M24.359 14.512s-0.025 0.017-0.025 0.001M24.397 15.008s-0.059 0.005-0.060-0.010"></path>
<path fill="#d52b1e" d="M19.444 14.365c-0.002-0.14 0.13-0.221 0.15-0.235 0.065-0.044 0.109-0.082 0.248-0.1 0 0 0.010 0.029 0.009 0.054s-0.031 0.111-0.138 0.183c-0.109 0.074-0.269 0.098-0.269 0.098z"></path>
<path fill="#a05a2c" d="M19.443 14.312l1.976 2.565 0.094-0.093-2.016-2.606-0.054 0.133z"></path>
<path fill="#d52b1e" d="M19.412 13.811s0.214-0.022 0.186-0.144c-0.030-0.121-0.174-0.119-0.234-0.124-0.062-0.004-0.258 0.041-0.316 0.1-0.060 0.060-0.183 0.162-0.143 0.333s0.090 0.289 0.153 0.396c0.063 0.11 0.047 0.216 0.030 0.262-0.005 0.020-0.025 0.085 0.029 0.108 0.079 0.034 0.098 0.034 0.167-0.042 0.070-0.074 0.163-0.195 0.161-0.335s0.13-0.221 0.15-0.235c0.065-0.044 0.109-0.082 0.248-0.1 0 0-0.049-0.081-0.124-0.077-0.076 0.002-0.226-0.064-0.307-0.143z"></path>
<path fill="#e8a30e" d="M23.187 18.947c0.015 0.204 0.49 0.438 0.845 0.008 0.379-0.3 0.297-0.759-0.004-0.823l-3.641-3.551c-0.146-0.080-0.16-0.156-0.233-0.233-0.153 0.162-0.469 0.454-0.642 0.594 0.105 0.088 0.19 0.171 0.214 0.24l3.461 3.766z"></path>
<path fill="#007934" d="M22.643 11.701c0.118 0.189 0.294 0.531 0.342 0.792 0.088 0.483-0.050 1.018-0.47 1.396-0.343 0.308-0.88 0.403-1.105 0.449s-0.386 0.118-0.423 0.167c-0.002-0.035-0.007-0.070 0.030-0.105 0.106-0.047 0.279-0.075 0.52-0.124 0.483-0.1 0.991-0.281 1.268-0.808 0.361-0.688 0.146-1.228-0.167-1.765l0.005-0.003z"></path>
<path fill="#d52b1e" d="M22.776 13.749c-0 0-0 0-0.001 0.001-0.016 0.013-0.037 0.014-0.048 0.002-0.009-0.011-0.006-0.030 0.006-0.043l0-0c0.001-0.001 0.002-0.002 0.004-0.004 0.016-0.013 0.037-0.014 0.048-0.002s0.006 0.032-0.010 0.046l-0 0z"></path>
<path fill="#007934" d="M23.105 13.663c-0.072 0.043-0.143 0.054-0.2 0.073-0.044 0.015-0.12 0.039-0.146 0.049-0.025 0.009-0.064 0.027-0.097 0.042-0.053 0.024-0.11 0.090-0.11 0.090s0.081 0.084 0.177 0.072c0.075-0.009 0.113-0.030 0.151-0.048 0.039-0.019 0.038-0.041 0.095-0.082 0.063-0.045 0.106-0.134 0.131-0.196zM22.728 13.742c-0.023 0.036-0.078 0.033-0.11 0.028l-0.014 0.018c0.043 0.001 0.102 0.001 0.132-0.038-0.001-0.006-0.004-0.009-0.008-0.009z"></path>
<path fill="#007934" d="M23.104 13.666c-0.065 0.063-0.187 0.134-0.308 0.186s-0.265 0.069-0.333 0.068l-0.018 0.019c0.099-0.009 0.229-0.027 0.34-0.072 0.144-0.059 0.262-0.135 0.321-0.197l-0.001-0.004zM22.946 13.971c-0.13-0.005-0.201 0.036-0.322 0.062-0.113 0.025-0.245-0.034-0.318 0.075 0.294 0.19 0.506 0.062 0.639-0.137z"></path>
<path fill="#007934" d="M22.567 14.366c-0.051-0.008-0.111-0.020-0.169-0.027s-0.082-0.017-0.125-0.023c-0.071-0.010-0.152-0.109-0.403-0.033 0.097 0.223 0.428 0.27 0.697 0.083zM22.676 14.241c-0.256 0.051-0.557-0-0.676-0.070l-0.019 0.013c0.274 0.117 0.541 0.102 0.695 0.058zM22.941 13.971c-0.151 0.101-0.345 0.177-0.762 0.121l-0.006 0.014c0.571 0.049 0.627-0.056 0.767-0.135z"></path>
<path fill="#007934" d="M22.565 14.367c-0.199 0.007-0.311 0.096-0.684-0.088-0.030-0.015-0.071-0.025-0.095-0.037l-0.034 0.013c0.026 0.012 0.068 0.011 0.091 0.022 0.466 0.205 0.453 0.109 0.722 0.090z"></path>
<path fill="#d52b1e" d="M21.817 14.107c-0.017 0.009-0.027 0.027-0.021 0.040s0.027 0.019 0.047 0.011c0.001-0.001 0.002-0.001 0.003-0.002l-0 0c0.017-0.009 0.027-0.027 0.021-0.040s-0.027-0.019-0.047-0.011c-0.001 0.001-0.002 0.001-0.003 0.002l0-0z"></path>
<path fill="#007934" d="M21.81 14.15c-0.043 0.011-0.055 0.062-0.059 0.092l-0.022 0.008c0.011-0.040 0.027-0.094 0.075-0.11 0.006 0.002 0.008 0.006 0.006 0.010z"></path>
<path fill="#d52b1e" d="M23.061 12.454c-0 0-0 0.001-0 0.002-0.006 0.020-0.023 0.032-0.038 0.027s-0.024-0.023-0.019-0.043v-0c0-0 0-0.001 0-0.001 0.006-0.020 0.023-0.032 0.039-0.028s0.024 0.023 0.019 0.042v0z"></path>
<path fill="#007934" d="M22.775 13.544c-0.009-0.139-0.077 0.054-0.213-0.257-0.040-0.090-0.039-0.148-0.066-0.283 0.074 0.117 0.198 0.149 0.249 0.239 0.050 0.089 0.037 0.232 0.031 0.301z"></path>
<path fill="#007934" d="M22.565 13.146c0.085 0.115 0.2 0.252 0.206 0.395l0.013 0.005c-0.020-0.188-0.131-0.276-0.2-0.371l-0.019-0.029zM23.288 13.324c-0.063 0.051-0.128 0.070-0.18 0.096-0.040 0.020-0.073 0.046-0.097 0.059s-0.059 0.018-0.089 0.037c-0.047 0.030-0.139 0.135-0.139 0.135s0.087 0.071 0.141 0.060c0.157-0.030 0.203-0.093 0.282-0.15 0.061-0.050 0.065-0.169 0.081-0.236z"></path>
<path fill="#007934" d="M22.713 13.656l-0.015 0.022c0.090-0.009 0.234-0.095 0.329-0.144 0.129-0.065 0.201-0.114 0.255-0.206-0.061 0.092-0.142 0.144-0.263 0.203-0.101 0.049-0.246 0.132-0.307 0.125z"></path>
<path fill="#007934" d="M23.341 13.020c-0.052 0.061-0.114 0.090-0.16 0.123-0.036 0.026-0.064 0.057-0.085 0.073s-0.055 0.027-0.081 0.051c-0.041 0.037-0.102 0.146-0.102 0.146s0.044 0.046 0.095 0.026c0.158-0.020 0.205-0.095 0.264-0.23 0.033-0.070 0.066-0.121 0.069-0.19z"></path>
<path fill="#d52b1e" d="M22.769 13.297c0.001 0.001 0.001 0.003 0.002 0.004 0.010 0.018 0.029 0.027 0.043 0.019s0.018-0.029 0.009-0.047c0-0-0-0-0-0v0c-0.010-0.018-0.029-0.027-0.043-0.019-0.013 0.007-0.017 0.025-0.011 0.042l0 0z"></path>
<path fill="#007934" d="M22.834 13.439l-0.011 0.024c0.19-0.087 0.439-0.261 0.52-0.439-0.116 0.192-0.307 0.318-0.509 0.415zM23.384 12.727c-0.045 0.063-0.101 0.096-0.142 0.132-0.032 0.028-0.056 0.060-0.075 0.078s-0.050 0.030-0.072 0.055c-0.036 0.039-0.085 0.15-0.085 0.15s0.058 0.054 0.105 0.031c0.047-0.023 0.109-0.076 0.14-0.104 0.032-0.029 0.040-0.098 0.078-0.151 0.044-0.062 0.053-0.124 0.051-0.191z"></path>
<path fill="#007934" d="M23.248 12.923c-0.092 0.105-0.205 0.205-0.311 0.25l-0.008 0.024c0.173-0.098 0.245-0.186 0.322-0.271l-0.002-0.003zM23.319 12.546c-0.031 0.061-0.079 0.098-0.111 0.135-0.025 0.029-0.042 0.060-0.057 0.078s-0.042 0.034-0.059 0.059c-0.027 0.039-0.054 0.143-0.054 0.143s0.039 0.042 0.079 0.015c0.040-0.027 0.097-0.082 0.122-0.111 0.025-0.030 0.038-0.094 0.065-0.145 0.031-0.060 0.028-0.115 0.015-0.173zM23.028 12.473c-0.017 0.036-0.023 0.071-0.034 0.109l-0.004-0.027c0.009-0.029 0.016-0.060 0.030-0.087 0.003-0.001 0.006-0.001 0.009 0.005z"></path>
<path fill="#007934" d="M23.225 12.736c-0.068 0.104-0.158 0.207-0.25 0.263l-0.004 0.022c0.146-0.11 0.199-0.197 0.256-0.282l-0.003-0.003zM22.85 13.396c-0.008-0.033-0.014-0.059-0.036-0.089-0.003-0-0.006 0.001-0.006 0.004 0.020 0.032 0.028 0.060 0.034 0.099l0.008-0.014z"></path>
<path fill="#d52b1e" d="M22.792 12.088c0.010 0.010 0.012 0.024 0.005 0.032s-0.024 0.009-0.036-0.001c-0.001-0-0.001-0.001-0.002-0.001l0 0c-0.010-0.010-0.012-0.024-0.005-0.032s0.024-0.009 0.036 0.001c0.001 0 0.001 0.001 0.002 0.001l-0-0z"></path>
<path fill="#007934" d="M22.877 12.169c-0.024-0.021-0.053-0.039-0.083-0.058-0.003 0.001-0.004 0.004-0.003 0.007 0.034 0.022 0.065 0.043 0.090 0.067l-0.004-0.016zM23.245 12.192c-0.075 0.159-0.257 0.27-0.184 0.503 0.187 0.169 0.199-0.303 0.184-0.503z"></path>
<path fill="#007934" d="M22.642 11.732c-0.225 0.024-0.137-0.171-0.201-0.35 0.132 0.099 0.311 0.138 0.201 0.35zM22.788 12.029c-0.063-0.293-0.265-0.178-0.376-0.307 0.058 0.189 0.142 0.318 0.376 0.307zM22.879 12.302c-0.175-0.012-0.318-0.098-0.412-0.292 0.18 0.080 0.379 0.088 0.412 0.292z"></path>
<path fill="#007934" d="M22.875 13.255c-0.027-0.068-0.006-0.095-0.065-0.154-0.064-0.064-0.186-0.179-0.25-0.311-0.009 0.117-0.011 0.296 0.079 0.357 0.068 0.046 0.128 0.058 0.236 0.108zM22.586 13.738c-0.259-0.202-0.103-0.372-0.082-0.523 0.066 0.17 0.251 0.317 0.082 0.523z"></path>
<path fill="#007934" d="M22.59 13.789c0.011-0.205-0.045-0.382-0.082-0.568 0.034 0.196 0.083 0.393 0.065 0.584l0.017-0.016zM22.898 13.296c-0.027-0.126-0.275-0.209-0.336-0.501 0.051 0.29 0.302 0.363 0.327 0.527l0.009-0.026zM22.953 13.125l-0.007 0.032c-0.037-0.197-0.268-0.293-0.334-0.556 0.098 0.284 0.286 0.322 0.341 0.524zM22.999 12.831c-0.114-0.173-0.273-0.239-0.423-0.442 0.141 0.2 0.318 0.294 0.426 0.469l-0.003-0.027zM22.995 12.603c-0.125-0.054-0.255-0.204-0.391-0.478 0.089 0.203 0.202 0.387 0.391 0.509v-0.031z"></path>
<path fill="#007934" d="M22.937 12.335c-0.146-0.115-0.335-0.192-0.471-0.328 0.113 0.129 0.33 0.219 0.475 0.347l-0.004-0.019zM22.824 12.048c-0.147-0.1-0.29-0.131-0.412-0.321 0.099 0.186 0.255 0.233 0.418 0.335l-0.005-0.014zM23.245 12.196c-0.053 0.205-0.098 0.42-0.238 0.558l0.001-0.027c0.064-0.036 0.165-0.249 0.236-0.532zM23.074 11.852c-0.010 0.212-0.006 0.436-0.115 0.556l-0.008-0.024c0.112-0.090 0.102-0.33 0.124-0.532zM22.924 11.611c0.037 0.186 0.040 0.359-0.009 0.637l-0.011-0.020c0.031-0.164 0.066-0.332 0.020-0.617zM22.698 11.463c0.075 0.158 0.132 0.318 0.083 0.489l-0.013-0.019c0.058-0.157-0.010-0.314-0.070-0.47zM22.409 13.544c0.089 0.213-0.029 0.368-0.167 0.457-0.108-0.31 0.117-0.275 0.167-0.457z"></path>
<path fill="#d52b1e" d="M22.915 12.081c-0.001 0.015-0.011 0.027-0.023 0.027s-0.021-0.014-0.021-0.029c0-0.002 0-0.004 0.001-0.005l-0 0c0.002-0.013 0.012-0.023 0.022-0.023 0.012 0 0.021 0.014 0.021 0.029 0 0-0 0.001-0 0.001v-0z"></path>
<path fill="#007934" d="M22.902 12.197c0.002-0.031-0.001-0.066-0.005-0.101-0.003-0.002-0.005-0.001-0.007 0.002 0.004 0.041 0.005 0.077 0.002 0.112l0.010-0.013z"></path>
<path fill="#d52b1e" d="M22.855 12.059c0.001 0.003 0.001 0.006 0.001 0.009-0 0.014-0.009 0.025-0.018 0.025-0.008-0-0.014-0.007-0.016-0.017l-0-0c-0.001-0.003-0.001-0.006-0.001-0.009 0-0.014 0.009-0.025 0.018-0.025 0.008 0 0.014 0.007 0.016 0.017l0 0z"></path>
<path fill="#007934" d="M22.877 12.157c-0.007-0.026-0.019-0.051-0.032-0.077-0.003 0-0.004 0.002-0.005 0.005 0.014 0.030 0.025 0.058 0.032 0.088l0.004-0.016z"></path>
<path fill="#d52b1e" d="M22.98 12.458c0.002 0.015-0.006 0.028-0.017 0.030s-0.024-0.009-0.026-0.025c-0-0.002-0-0.003-0-0.005v0c-0.001-0.014 0.007-0.026 0.017-0.027 0.012-0.002 0.024 0.009 0.026 0.025 0 0.001 0 0.001 0 0.002v-0z"></path>
<path fill="#007934" d="M22.99 12.575c-0.004-0.031-0.014-0.065-0.025-0.098-0.003-0.001-0.005 0-0.006 0.003 0.012 0.039 0.021 0.075 0.024 0.11l0.007-0.015z"></path>
<path fill="#d52b1e" d="M22.907 12.482c0.001 0.001 0.003 0.003 0.004 0.005 0.009 0.014 0.008 0.030-0.002 0.037-0.009 0.006-0.023 0.002-0.032-0.009l-0-0c-0.001-0.001-0.002-0.002-0.002-0.003-0.009-0.014-0.008-0.030 0.002-0.037 0.009-0.006 0.021-0.002 0.030 0.007l0 0z"></path>
<path fill="#007934" d="M22.986 12.572c-0.022-0.023-0.050-0.044-0.078-0.064-0.003 0.001-0.004 0.004-0.003 0.007 0.032 0.024 0.061 0.048 0.085 0.074l-0.004-0.018z"></path>
<path fill="#d52b1e" d="M22.89 13.275c-0.004 0.015-0.016 0.024-0.027 0.022s-0.018-0.017-0.015-0.033c0-0.002 0.001-0.003 0.001-0.005l-0 0c0.005-0.013 0.016-0.021 0.026-0.019 0.012 0.003 0.018 0.017 0.015 0.033-0 0.001-0 0.001-0 0.002l0-0z"></path>
<path fill="#007934" d="M22.856 13.387c0.008-0.031 0.011-0.065 0.014-0.1-0.003-0.003-0.005-0.002-0.007 0-0.004 0.041-0.009 0.077-0.019 0.111l0.012-0.011z"></path>
<path fill="#d52b1e" d="M22.932 13.325c-0.011 0.010-0.015 0.025-0.007 0.034s0.024 0.009 0.036-0.001c0.001-0.001 0.003-0.002 0.004-0.003l-0 0c0.011-0.010 0.015-0.025 0.007-0.034s-0.024-0.009-0.036 0.001c-0.001 0.001-0.003 0.002-0.004 0.003l0-0z"></path>
<path fill="#007934" d="M22.848 13.406c0.024-0.021 0.053-0.039 0.083-0.058 0.003 0.001 0.004 0.004 0.003 0.007-0.034 0.022-0.065 0.043-0.090 0.067l0.004-0.016z"></path>
<path fill="#d52b1e" d="M22.714 13.661c-0.010 0.011-0.025 0.014-0.034 0.007s-0.008-0.024 0.002-0.036c0.001-0.001 0.002-0.003 0.004-0.004l-0 0c0.010-0.009 0.024-0.011 0.032-0.004 0.009 0.008 0.008 0.024-0.002 0.036-0 0-0.001 0.001-0.001 0.001l0-0z"></path>
<path fill="#007934" d="M22.632 13.744c0.021-0.023 0.040-0.053 0.059-0.082-0.001-0.003-0.004-0.004-0.007-0.003-0.022 0.034-0.044 0.064-0.068 0.089l0.016-0.004z"></path>
<path fill="#d52b1e" d="M22.59 13.634c-0.003 0.019 0.008 0.037 0.023 0.040s0.032-0.011 0.036-0.031c0-0.001 0-0.001 0-0.002v0c0.003-0.019-0.008-0.037-0.023-0.040s-0.032 0.011-0.036 0.031c-0 0.001-0 0.001-0 0.002v-0z"></path>
<path fill="#007934" d="M22.625 13.671c-0.016 0.040-0.004 0.056 0.005 0.073l-0.010 0.021c-0.014-0.023-0.019-0.049-0.007-0.097 0.006-0.002 0.010-0.001 0.012 0.003zM21.818 14.297c-0.044 0.004-0.067-0.021-0.081-0.048l-0.024-0c0.025 0.033 0.052 0.060 0.102 0.059 0.005-0.004 0.005-0.008 0.002-0.011z"></path>
<path fill="#d52b1e" d="M21.821 14.343c-0.020-0.004-0.034-0.019-0.032-0.034s0.022-0.025 0.043-0.022c0.001 0 0.001 0 0.002 0l-0-0c0.021 0.004 0.035 0.019 0.032 0.034s-0.022 0.025-0.043 0.022c-0.001-0-0.002-0-0.003-0.001l0 0z"></path>
<path fill="#d52b1e" d="M21.853 14.22c-0.005 0.002-0.012 0.002-0.018 0.001-0.018-0.003-0.032-0.017-0.029-0.031 0.002-0.009 0.010-0.016 0.021-0.019l0-0c0.005-0.001 0.011-0.001 0.017-0 0.018 0.003 0.032 0.017 0.029 0.031-0.002 0.009-0.009 0.015-0.019 0.018l-0 0z"></path>
<path fill="#007934" d="M21.727 14.253c0.033-0.010 0.065-0.028 0.097-0.045-0-0.004-0.003-0.006-0.007-0.007-0.037 0.020-0.073 0.036-0.111 0.047l0.021 0.005zM21.902 13.92c-0.009 0.082-0.074 0.157-0.133 0.215s-0.067 0.080-0.151 0.105c-0.081-0.185 0.19-0.221 0.284-0.319z"></path>
<path fill="#007934" d="M20.028 11.701c-0.118 0.189-0.294 0.531-0.342 0.792-0.088 0.483 0.050 1.018 0.47 1.396 0.343 0.308 0.88 0.403 1.105 0.449s0.386 0.118 0.423 0.167c0.002-0.035 0.007-0.070-0.030-0.105-0.106-0.047-0.279-0.075-0.52-0.124-0.483-0.1-0.991-0.281-1.268-0.808-0.361-0.688-0.146-1.228 0.167-1.765l-0.005-0.003z"></path>
<path fill="#007934" d="M20.94 14.239c-0.015 0.028-0.267 0.249-0.497 0.233-0.168-0.012-0.196-0.053-0.196-0.053s-0.016-0.042 0.134-0.072c0.151-0.031 0.412-0.134 0.559-0.108z"></path>
<path fill="#007934" d="M20.746 13.91c0.019 0.003 0.227 0.11 0.307 0.249 0.058 0.102 0.049 0.127 0.049 0.127s-0.015 0.017-0.087-0.065c-0.073-0.083-0.225-0.218-0.268-0.31z"></path>
<path fill="#007934" d="M20.018 11.723c-0.005-0.020 0.020-0.228 0.137-0.294 0.086-0.048 0.116-0.034 0.116-0.034s0.026 0.018-0.033 0.085c-0.059 0.067-0.139 0.211-0.22 0.244z"></path>
<path fill="#007934" d="M19.959 11.829c-0.010-0.014-0.068-0.197-0.015-0.315 0.038-0.087 0.063-0.093 0.063-0.093s0.023 0.001 0.009 0.087c-0.014 0.087-0.016 0.249-0.057 0.322z"></path>
<path fill="#007934" d="M19.958 11.831c0.015 0 0.181-0.049 0.259-0.14 0.057-0.067 0.053-0.086 0.053-0.086s-0.008-0.015-0.073 0.035c-0.065 0.051-0.195 0.128-0.239 0.19z"></path>
<path fill="#007934" d="M19.879 11.973c-0.011-0.014-0.087-0.208-0.058-0.348 0.021-0.103 0.042-0.114 0.042-0.114s0.020-0.003 0.020 0.095c-0 0.099 0.021 0.279-0.004 0.367z"></path>
<path fill="#007934" d="M19.82 12.105c-0.017-0.012-0.152-0.195-0.139-0.348 0.010-0.113 0.035-0.129 0.035-0.129s0.026-0.008 0.043 0.094c0.017 0.103 0.078 0.285 0.060 0.383z"></path>
<path fill="#007934" d="M19.748 12.276c-0.015-0.010-0.146-0.171-0.161-0.314-0.011-0.105 0.006-0.121 0.006-0.121s0.018-0.009 0.048 0.085c0.030 0.094 0.105 0.259 0.107 0.35z"></path>
<path fill="#007934" d="M19.882 11.974c0.017 0.004 0.213-0.017 0.303-0.115 0.066-0.072 0.062-0.098 0.062-0.098s-0.010-0.021-0.085 0.027c-0.076 0.049-0.228 0.116-0.279 0.185z"></path>
<path fill="#007934" d="M19.819 12.106c0.017 0.005 0.213-0.001 0.31-0.092 0.071-0.067 0.069-0.093 0.069-0.093s-0.009-0.022-0.087 0.021c-0.079 0.044-0.236 0.1-0.292 0.164z"></path>
<path fill="#007934" d="M19.757 12.278c0.018 0.005 0.228-0.010 0.328-0.112 0.073-0.075 0.069-0.102 0.069-0.102s-0.010-0.023-0.092 0.026c-0.083 0.050-0.248 0.117-0.305 0.188z"></path>
<path fill="#007934" d="M19.789 12.201s-0.019-0.037-0.019-0.071c-0-0.034 0.009-0.052 0.009-0.052l-0.013-0.008s-0.007 0.037-0.007 0.054c0 0.018 0.001 0.022 0.001 0.022s-0.024-0.021-0.029-0.032c-0.005-0.012-0.012-0.029-0.012-0.029l-0.012 0.005s0.011 0.036 0.020 0.043c0.032 0.025 0.052 0.074 0.052 0.074"></path>
<path fill="#000" d="M19.706 12.020c0 0 0 0 0 0 0.014-0.002 0.026 0.013 0.029 0.033s-0.007 0.037-0.020 0.039v0c0 0 0 0-0 0-0.014 0.002-0.026-0.013-0.029-0.033s0.007-0.037 0.020-0.039v0z"></path>
<path fill="#000" d="M19.789 12.020c0.013 0.005 0.018 0.023 0.011 0.042s-0.022 0.031-0.035 0.026c0 0 0 0 0 0v0c-0.013-0.005-0.018-0.023-0.011-0.042s0.022-0.031 0.035-0.026c0 0 0 0 0 0v0z"></path>
<path fill="#007934" d="M19.782 12.197s0.038-0.017 0.060-0.043c0.022-0.026 0.026-0.046 0.026-0.046l0.016 0.002s-0.018 0.033-0.029 0.046c-0.011 0.014-0.014 0.017-0.014 0.017s0.032-0.001 0.043-0.007c0.011-0.006 0.028-0.015 0.028-0.015l0.006 0.011s-0.031 0.021-0.043 0.021c-0.041-0.001-0.087 0.025-0.087 0.025"></path>
<path fill="#000" d="M19.96 12.109c-0.010-0.010-0.029-0.006-0.043 0.008s-0.018 0.033-0.009 0.043c0 0 0 0 0 0v0c0 0 0 0 0 0 0.009 0.010 0.029 0.006 0.043-0.008s0.018-0.033 0.009-0.043v0z"></path>
<path fill="#000" d="M19.896 12.057c-0.013-0.005-0.029 0.007-0.035 0.026s-0.002 0.038 0.011 0.042c0 0 0 0 0 0v0c0.013 0.005 0.029-0.007 0.035-0.026s0.002-0.038-0.011-0.042c0 0 0 0 0 0v0z"></path>
<path fill="#007934" d="M19.696 12.458c-0.016-0.009-0.163-0.168-0.188-0.316-0.018-0.108-0.002-0.126-0.002-0.126s0.018-0.011 0.055 0.085c0.037 0.096 0.127 0.263 0.135 0.357z"></path>
<path fill="#007934" d="M19.707 12.46c0.019 0.004 0.237-0.026 0.334-0.138 0.071-0.082 0.065-0.111 0.065-0.111s-0.012-0.024-0.094 0.033c-0.083 0.057-0.25 0.138-0.305 0.216z"></path>
<path fill="#007934" d="M19.678 12.642c0.019 0 0.234-0.062 0.335-0.177 0.074-0.084 0.069-0.109 0.069-0.109s-0.011-0.019-0.094 0.045c-0.084 0.064-0.252 0.163-0.31 0.24z"></path>
<path fill="#007934" d="M19.672 12.642c-0.022-0.007-0.225-0.15-0.256-0.303-0.022-0.112 0.001-0.134 0.001-0.134s0.027-0.015 0.076 0.080c0.050 0.096 0.17 0.257 0.179 0.357z"></path>
<path fill="#007934" d="M19.678 12.871c0.019-0.003 0.226-0.107 0.306-0.243 0.059-0.1 0.050-0.123 0.050-0.123s-0.014-0.017-0.087 0.063c-0.073 0.081-0.225 0.213-0.269 0.303z"></path>
<path fill="#007934" d="M19.668 12.879c-0.022-0.003-0.241-0.112-0.297-0.264-0.041-0.111-0.023-0.139-0.023-0.139s0.023-0.020 0.086 0.069c0.064 0.090 0.208 0.234 0.233 0.335z"></path>
<path fill="#007934" d="M19.672 12.774s-0.030-0.034-0.039-0.070c-0.009-0.036-0.005-0.057-0.005-0.057l-0.016-0.005s0.003 0.041 0.007 0.059c0.005 0.019 0.007 0.023 0.007 0.023s-0.031-0.015-0.039-0.026c-0.009-0.011-0.020-0.028-0.020-0.028l-0.011 0.009s0.021 0.035 0.033 0.040c0.041 0.018 0.075 0.065 0.075 0.065"></path>
<path fill="#000" d="M19.535 12.604c0-0 0-0 0.001-0 0.014-0.005 0.031 0.007 0.039 0.028s0.003 0.041-0.011 0.046c-0 0-0.001 0-0.001 0h0c-0 0-0 0-0.001 0-0.014 0.005-0.031-0.007-0.039-0.028s-0.003-0.041 0.011-0.046c0-0 0.001-0 0.001-0h-0z"></path>
<path fill="#000" d="M19.622 12.581c0 0 0 0 0 0 0.015 0.001 0.025 0.020 0.023 0.042s-0.016 0.038-0.030 0.037v0c-0 0-0 0-0-0-0.015-0.001-0.025-0.020-0.023-0.042s0.016-0.038 0.030-0.037c0 0 0 0 0 0h-0z"></path>
<path fill="#007934" d="M19.669 12.77s0.036-0.028 0.052-0.061c0.016-0.034 0.016-0.055 0.016-0.055l0.017-0.002s-0.010 0.039-0.019 0.057c-0.008 0.017-0.011 0.022-0.011 0.022s0.033-0.009 0.044-0.018c0.011-0.009 0.025-0.023 0.025-0.023l0.009 0.011s-0.027 0.031-0.040 0.033c-0.043 0.010-0.085 0.049-0.085 0.049"></path>
<path fill="#000" d="M19.835 12.63c-0-0-0-0-0-0-0.013-0.008-0.032 0.001-0.044 0.020s-0.010 0.040 0.002 0.048c0 0 0 0 0 0v0c0 0 0 0 0 0 0.013 0.008 0.032-0.001 0.044-0.020s0.010-0.040-0.002-0.048c-0-0-0-0-0-0v0z"></path>
<path fill="#000" d="M19.753 12.591c-0 0-0-0-0-0-0.015-0.001-0.028 0.015-0.031 0.037s0.008 0.041 0.023 0.042c0 0 0 0 0 0h-0c0 0 0 0 0 0 0.015 0.001 0.028-0.015 0.031-0.037s-0.008-0.041-0.023-0.042c-0 0-0-0-0-0h0z"></path>
<path fill="#007934" d="M19.695 13.082c-0.022-0.004-0.253-0.119-0.343-0.272-0.066-0.111-0.056-0.138-0.056-0.138s0.016-0.019 0.098 0.071c0.082 0.091 0.252 0.238 0.301 0.339z"></path>
<path fill="#007934" d="M19.71 13.078c0.025-0.003 0.264-0.123 0.326-0.289 0.045-0.122 0.025-0.153 0.025-0.153s-0.025-0.022-0.095 0.075c-0.070 0.098-0.228 0.256-0.256 0.367z"></path>
<path fill="#007934" d="M19.773 13.283c0.023-0.006 0.245-0.149 0.302-0.318 0.042-0.124 0.024-0.151 0.024-0.151s-0.023-0.019-0.088 0.084c-0.066 0.103-0.212 0.274-0.238 0.385z"></path>
<path fill="#007934" d="M19.756 13.283c-0.028 0.001-0.314-0.082-0.415-0.253-0.074-0.125-0.057-0.162-0.057-0.162s0.023-0.029 0.119 0.064c0.097 0.094 0.301 0.235 0.354 0.351z"></path>
<path fill="#007934" d="M20.010 13.713c0.018-0.012 0.173-0.205 0.185-0.371 0.009-0.122-0.012-0.14-0.012-0.14s-0.023-0.010-0.056 0.1c-0.033 0.111-0.119 0.305-0.118 0.411z"></path>
<path fill="#007934" d="M19.997 13.708c-0.029 0.009-0.353 0.001-0.507-0.142-0.112-0.105-0.106-0.147-0.106-0.147s0.016-0.035 0.143 0.032c0.128 0.068 0.382 0.155 0.47 0.257z"></path>
<path fill="#007934" d="M19.877 13.539c-0.025 0.001-0.315-0.069-0.454-0.214-0.102-0.106-0.097-0.138-0.097-0.138s0.014-0.025 0.128 0.054c0.115 0.080 0.343 0.199 0.423 0.298z"></path>
<path fill="#007934" d="M19.893 13.53c0.024-0.009 0.238-0.186 0.262-0.372 0.018-0.136-0.009-0.163-0.009-0.163s-0.030-0.017-0.078 0.099c-0.049 0.117-0.172 0.315-0.175 0.436z"></path>
<path fill="#007934" d="M19.829 13.431s-0.046-0.021-0.072-0.054c-0.026-0.033-0.031-0.057-0.031-0.057l-0.019 0.002s0.021 0.040 0.034 0.057c0.013 0.017 0.017 0.021 0.017 0.021s-0.038-0.002-0.052-0.009c-0.014-0.007-0.033-0.019-0.033-0.019l-0.007 0.014s0.037 0.027 0.052 0.027c0.050-0 0.105 0.033 0.105 0.033"></path>
<path fill="#000" d="M19.615 13.319c0-0 0-0 0.001-0.001 0.012-0.012 0.035-0.007 0.052 0.011s0.021 0.041 0.009 0.053c-0 0-0 0-0.001 0.001l0-0c-0 0-0 0-0.001 0.001-0.012 0.012-0.035 0.007-0.052-0.011s-0.021-0.041-0.009-0.053c0-0 0-0 0.001-0.001l-0 0z"></path>
<path fill="#000" d="M19.694 13.257c0-0 0-0 0.001-0 0.016-0.005 0.035 0.009 0.042 0.033s0.001 0.046-0.015 0.051c-0 0-0.001 0-0.001 0h0c-0 0-0 0-0.001 0-0.016 0.005-0.035-0.009-0.042-0.033s-0.001-0.046 0.015-0.051c0-0 0.001-0 0.001-0h-0z"></path>
<path fill="#007934" d="M19.835 13.429s0.024-0.044 0.026-0.086c0.001-0.042-0.009-0.064-0.009-0.064l0.016-0.010s0.007 0.045 0.006 0.067c-0.001 0.022-0.001 0.027-0.001 0.027s0.030-0.024 0.037-0.038c0.007-0.014 0.015-0.035 0.015-0.035l0.014 0.007s-0.014 0.044-0.026 0.052c-0.040 0.029-0.066 0.089-0.066 0.089"></path>
<path fill="#000" d="M19.942 13.212c-0-0-0-0-0.001-0-0.016-0.002-0.032 0.015-0.036 0.040s0.007 0.046 0.024 0.048c0 0 0 0 0.001 0h-0c0 0 0 0 0.001 0 0.016 0.002 0.032-0.015 0.036-0.040s-0.007-0.046-0.024-0.048c-0-0-0-0-0.001-0h0z"></path>
<path fill="#000" d="M19.841 13.208c-0 0-0 0-0 0-0.016 0.005-0.023 0.028-0.015 0.051s0.026 0.038 0.042 0.033c0-0 0-0 0-0h-0c0-0 0-0 0-0 0.016-0.005 0.023-0.028 0.015-0.051s-0.026-0.038-0.042-0.033c-0 0-0 0-0 0h0z"></path>
<path fill="#007934" d="M20.118 13.84c-0.020 0.013-0.283 0.071-0.451-0.016-0.123-0.064-0.131-0.099-0.131-0.099s0.002-0.032 0.124-0.002c0.124 0.030 0.355 0.051 0.457 0.117z"></path>
<path fill="#007934" d="M20.134 13.835c0.014-0.009 0.13-0.171 0.125-0.324-0.004-0.112-0.024-0.131-0.024-0.131s-0.021-0.011-0.039 0.087c-0.018 0.099-0.074 0.27-0.063 0.368z"></path>
<path fill="#007934" d="M20.369 14.022c-0.025 0.015-0.341 0.097-0.532 0.016-0.14-0.059-0.147-0.097-0.147-0.097s0.005-0.035 0.147-0.011c0.144 0.023 0.416 0.029 0.531 0.092z"></path>
<path fill="#007934" d="M20.384 14.021c0.014-0.020 0.081-0.255 0-0.377-0.059-0.089-0.095-0.087-0.095-0.087s-0.032 0.009-0.006 0.105c0.026 0.098 0.039 0.288 0.101 0.359z"></path>
<path fill="#007934" d="M20.223 13.91s-0.039 0.030-0.080 0.006c-0.042-0.024-0.057-0.047-0.057-0.047l-0.020 0.010s0.040 0.034 0.061 0.047c0.021 0.013 0.027 0.015 0.027 0.015s-0.042 0.014-0.060 0.012c-0.018-0.002-0.044-0.006-0.044-0.006l-0.002 0.018s0.050 0.008 0.067 0.007c0.016-0.001 0.102-0.034 0.102-0.034"></path>
<path fill="#000" d="M19.964 13.916c0 0 0 0 0 0 0.008-0.017 0.035-0.022 0.061-0.011s0.040 0.035 0.032 0.052v0c0 0 0 0 0 0-0.008 0.017-0.035 0.022-0.061 0.011s-0.040-0.035-0.032-0.052v0z"></path>
<path fill="#000" d="M20.023 13.815c0.015-0.012 0.041-0.005 0.059 0.017s0.021 0.049 0.006 0.061c0 0 0 0 0 0v0c-0.015 0.012-0.041 0.005-0.059-0.017s-0.021-0.049-0.006-0.061c0 0 0 0 0 0v0z"></path>
<path fill="#007934" d="M20.23 13.936s0.033-0.037 0.011-0.080c-0.022-0.043-0.044-0.060-0.044-0.060l0.011-0.019s0.032 0.042 0.043 0.064c0.011 0.022 0.013 0.028 0.013 0.028s0.017-0.041 0.016-0.059c-0.001-0.018-0.004-0.044-0.004-0.044l0.018-0.001s0.004 0.051 0.002 0.067c-0.002 0.016-0.041 0.1-0.041 0.1"></path>
<path fill="#000" d="M20.248 13.676c0 0 0 0 0 0-0.018 0.007-0.024 0.034-0.015 0.060s0.032 0.042 0.050 0.036v0c0 0 0 0 0 0 0.018-0.007 0.024-0.034 0.015-0.060s-0.032-0.042-0.050-0.036v0zM20.144 13.728c-0.013 0.014-0.007 0.041 0.013 0.060s0.048 0.024 0.061 0.010c0 0 0 0 0 0v0c0.013-0.014 0.007-0.041-0.013-0.060s-0.048-0.024-0.061-0.010c0 0 0 0 0 0v0z"></path>
<path fill="#007934" d="M20.554 14.124c-0.017 0.023-0.281 0.195-0.492 0.153-0.155-0.031-0.175-0.071-0.175-0.071s-0.009-0.040 0.134-0.050c0.144-0.010 0.401-0.074 0.534-0.033z"></path>
<path fill="#007934" d="M20.718 14.17s-0.031 0.047-0.085 0.037c-0.054-0.011-0.080-0.031-0.080-0.031l-0.017 0.018s0.056 0.023 0.084 0.029c0.028 0.006 0.035 0.006 0.035 0.006s-0.041 0.031-0.061 0.036c-0.020 0.004-0.050 0.009-0.050 0.009l0.004 0.020s0.058-0.010 0.075-0.017c0.017-0.007 0.099-0.075 0.099-0.075"></path>
<path fill="#000" d="M20.438 14.27c0-0 0-0 0-0.001 0.002-0.022 0.030-0.037 0.062-0.034s0.057 0.023 0.055 0.045c-0 0-0 0-0 0.001v-0c0 0-0 0-0 0.001-0.002 0.022-0.030 0.037-0.062 0.034s-0.057-0.023-0.055-0.045c0-0 0-0 0-0.001v0zM20.465 14.139c0-0 0-0.001 0-0.001 0.011-0.019 0.043-0.021 0.071-0.004s0.041 0.046 0.030 0.065c-0 0-0 0.001-0.001 0.001l0-0c0 0 0 0 0 0-0.011 0.019-0.043 0.021-0.071 0.004s-0.041-0.046-0.030-0.065v0z"></path>
<path fill="#007934" d="M20.632 14.147c0.012-0.022 0.051-0.263-0.060-0.372-0.081-0.080-0.12-0.073-0.12-0.073s-0.035 0.013 0.010 0.105c0.045 0.093 0.089 0.279 0.171 0.34z"></path>
<path fill="#007934" d="M20.758 14.205s0.015-0.055-0.030-0.088c-0.044-0.033-0.076-0.039-0.076-0.039l0.002-0.025s0.054 0.026 0.077 0.044c0.023 0.017 0.028 0.022 0.028 0.022s-0.004-0.051-0.014-0.069c-0.010-0.018-0.027-0.043-0.027-0.043l0.018-0.010s0.031 0.050 0.037 0.068c0.006 0.018 0.010 0.124 0.010 0.124"></path>
<path fill="#000" d="M20.645 13.928c0 0 0 0-0 0-0.015 0.016-0.008 0.047 0.016 0.069s0.055 0.027 0.070 0.011v0c0 0 0-0 0-0 0.015-0.016 0.008-0.047-0.016-0.069s-0.055-0.027-0.070-0.011v0zM20.564 14.036c0 0 0 0 0 0-0.006 0.021 0.014 0.046 0.045 0.055s0.061 0 0.068-0.021v0c0 0 0 0 0 0 0.006-0.021-0.014-0.046-0.045-0.055s-0.061-0-0.068 0.021v0z"></path>
<path fill="#452c25" d="M21.274 13.933s-0.156 0.362-0.102 0.398c0 0 0.158-0.281 0.297-0.388 0.072-0.068 0.116 0.001 0.126-0.059s-0.19-0.146-0.19-0.146l-0.128 0.18z"></path>
<path fill="#452c25" d="M20.704 14.209s-0.227 0.395-0.167 0.4c0.059 0.005 0.302-0.504 0.302-0.504l-0.083 0.014-0.052 0.090z"></path>
<path fill="#452c25" d="M20.773 14.098s-0.237 0.389-0.178 0.395c0.059 0.006 0.315-0.495 0.315-0.495l-0.083 0.012-0.054 0.088z"></path>
<path fill="#452c25" d="M20.821 14.031s-0.27 0.365-0.211 0.377c0.059 0.012 0.357-0.465 0.357-0.465l-0.084 0.004-0.062 0.083z"></path>
<path fill="#452c25" d="M20.893 13.967s-0.316 0.325-0.26 0.344c0.056 0.020 0.415-0.411 0.415-0.411l-0.084-0.007-0.072 0.074z"></path>
<path fill="#452c25" d="M20.904 13.849s-0.276 0.361-0.218 0.373c0.058 0.013 0.364-0.458 0.364-0.458l-0.084 0.003-0.063 0.082z"></path>
<path fill="#452c25" d="M20.834 14.159s-0.27 0.366-0.211 0.377c0.059 0.012 0.357-0.465 0.357-0.465l-0.084 0.004-0.062 0.083z"></path>
<path fill="#452c25" d="M21.003 14.057s-0.156 0.362-0.102 0.398c0 0 0.196-0.219 0.247-0.392s0-0.012 0-0.012l-0.014-0.189-0.128 0.18z"></path>
<path fill="#452c25" d="M20.922 14.025s-0.316 0.325-0.26 0.344c0.056 0.020 0.416-0.411 0.416-0.411l-0.084-0.007-0.072 0.074z"></path>
<path fill="#452c25" d="M20.947 14.069s-0.316 0.325-0.26 0.344c0.056 0.020 0.415-0.411 0.415-0.411l-0.084-0.007-0.072 0.074z"></path>
<path fill="#452c25" d="M20.972 14.121s-0.316 0.325-0.26 0.344c0.056 0.020 0.415-0.411 0.415-0.411l-0.084-0.007-0.072 0.074z"></path>
<path fill="#452c25" d="M20.988 13.994s-0.201 0.385-0.149 0.363c0.052-0.022 0.256-0.312 0.279-0.376s0.015-0.131 0.015-0.131l-0.156 0.096 0.013 0.075z"></path>
<path fill="#452c25" d="M20.989 13.867s0.167-0.307-0.001 0.058c-0.168 0.365-0.231 0.305-0.231 0.305-0.013-0.021 0.146-0.268 0.146-0.268s0.118-0.19 0.147-0.208z"></path>
<path fill="#452c25" d="M21.169 13.826s0.186-0.305-0 0.058c-0.186 0.363-0.259 0.302-0.259 0.302-0.015-0.021 0.163-0.266 0.163-0.266s0.132-0.189 0.164-0.206z"></path>
<path fill="#e8a30e" d="M23.521 16.738c0 0.006 0 0.012 0 0.019 0 1.359-0.98 2.461-2.188 2.461s-2.188-1.102-2.188-2.461c0-0.007 0-0.014 0-0.020v0.001c-0-0.006-0-0.012-0-0.019 0-1.359 0.98-2.461 2.188-2.461s2.188 1.102 2.188 2.461c0 0.007-0 0.014-0 0.020v-0.001z"></path>
<path fill="#d52b1e" d="M20.967 15.024c-0.024 0.094 0.002 0.171 0.048 0.243 0.035 0.056 0.059 0.116 0.058 0.18-0.018 0.010-0.033 0.020-0.048 0.030l0.002-0.001-0.37-0.246 0.248 0.366c-0.003 0.005-0.008 0.011-0.012 0.017l-0.001 0.002c-0.070-0.032-0.137-0.038-0.2-0.026-0.089 0.017-0.165-0.001-0.244-0.048 0.049 0.083 0.123 0.119 0.207 0.138 0.065 0.015 0.124 0.041 0.168 0.087-0.004 0.014-0.008 0.032-0.012 0.050l-0 0.003-0.436 0.088 0.435 0.083c0.001 0.007 0.003 0.015 0.004 0.022-0.072 0.027-0.124 0.070-0.16 0.123-0.051 0.075-0.117 0.116-0.206 0.138 0.094 0.024 0.171-0.003 0.243-0.049 0.056-0.035 0.116-0.059 0.18-0.058 0.009 0.016 0.019 0.031 0.029 0.046l-0.246 0.37 0.366-0.249c0.006 0.004 0.012 0.009 0.019 0.013-0.032 0.070-0.038 0.137-0.026 0.2 0.017 0.089-0.002 0.164-0.049 0.243 0.083-0.049 0.119-0.123 0.138-0.207 0.015-0.065 0.041-0.124 0.087-0.168 0.018 0.005 0.035 0.009 0.053 0.012l0.088 0.436 0.083-0.435c0.007-0.001 0.015-0.003 0.022-0.004 0.027 0.072 0.070 0.124 0.123 0.16 0.075 0.051 0.115 0.117 0.138 0.206 0.024-0.094-0.003-0.171-0.049-0.243-0.035-0.056-0.058-0.116-0.057-0.181 0.016-0.009 0.031-0.019 0.046-0.029l0.37 0.246-0.249-0.366c0.004-0.006 0.009-0.012 0.013-0.018 0.071 0.032 0.137 0.038 0.2 0.026 0.089-0.017 0.164 0.002 0.243 0.049-0.049-0.083-0.123-0.119-0.207-0.138-0.065-0.015-0.123-0.041-0.168-0.087 0.005-0.017 0.009-0.035 0.012-0.053l0.436-0.088-0.435-0.083c-0.002-0.011-0.003-0.018-0.005-0.026l0.001 0.003c0.072-0.027 0.124-0.070 0.16-0.123 0.051-0.075 0.117-0.115 0.206-0.138-0.094-0.024-0.171 0.002-0.244 0.048-0.056 0.035-0.116 0.058-0.181 0.057-0.010-0.018-0.020-0.033-0.030-0.048l0.001 0.002 0.246-0.37-0.366 0.248c-0.004-0.003-0.010-0.008-0.017-0.012l-0.002-0.001c0.032-0.070 0.038-0.137 0.026-0.2-0.017-0.089 0.001-0.165 0.049-0.244-0.083 0.049-0.119 0.123-0.138 0.207-0.015 0.065-0.041 0.124-0.088 0.169-0.014-0.004-0.032-0.008-0.050-0.012l-0.003-0-0.088-0.436-0.083 0.435c-0.007 0.001-0.015 0.003-0.022 0.004-0.027-0.072-0.070-0.124-0.123-0.16-0.075-0.051-0.115-0.117-0.138-0.206z"></path>
</svg>
