<!-- Generated by IcoMoon.io -->
<svg version="1.1" xmlns="http://www.w3.org/2000/svg" width="43" height="32" viewBox="0 0 43 32">
<title>BRL</title>
<path fill="#229e45" d="M0 0h42.667v32h-42.667z"></path>
<path fill="#f8e509" d="M21.427 29.062l20.099-13.045-20.221-13.080-20.165 13.111 20.286 13.013z"></path>
<path fill="#2b49a3" d="M30.185 16c0 4.689-3.807 8.489-8.503 8.489s-8.503-3.801-8.503-8.489 3.807-8.489 8.503-8.489c4.696 0 8.503 3.801 8.503 8.489z"></path>
<path fill="#ffffef" d="M18.887 21.085l-0.263-0.152-0.273 0.135 0.061-0.303-0.211-0.222 0.301-0.035 0.142-0.272 0.126 0.281 0.297 0.054-0.223 0.209zM24.585 22.528l-0.263-0.152-0.273 0.135 0.061-0.303-0.211-0.222 0.301-0.035 0.141-0.272 0.126 0.281 0.297 0.054-0.223 0.209zM22.129 20.223l-0.227-0.131-0.236 0.117 0.053-0.262-0.182-0.192 0.26-0.030 0.122-0.235 0.109 0.243 0.257 0.047-0.193 0.18zM27.884 19.394l-0.223-0.129-0.231 0.115 0.052-0.257-0.179-0.188 0.256-0.030 0.12-0.231 0.107 0.239 0.252 0.046-0.189 0.177zM22.025 17.669l-0.263-0.152-0.273 0.135 0.061-0.303-0.211-0.222 0.301-0.035 0.142-0.272 0.126 0.281 0.297 0.054-0.223 0.209zM15.009 15.035l-0.263-0.152-0.273 0.135 0.061-0.303-0.211-0.222 0.301-0.035 0.141-0.272 0.126 0.281 0.297 0.054-0.223 0.209zM15.852 18.539l-0.263-0.152-0.273 0.135 0.061-0.303-0.211-0.222 0.301-0.035 0.142-0.272 0.126 0.281 0.297 0.054-0.223 0.209zM24.608 13.745l-0.232-0.134-0.241 0.119 0.054-0.268-0.186-0.196 0.266-0.031 0.125-0.24 0.112 0.249 0.263 0.048-0.197 0.184zM24.126 16.024l-0.183-0.105-0.19 0.094 0.043-0.211-0.147-0.155 0.21-0.025 0.098-0.189 0.088 0.196 0.207 0.038-0.155 0.145zM14.618 19.174l-0.175-0.101-0.182 0.090 0.041-0.202-0.141-0.148 0.201-0.024 0.094-0.182 0.084 0.188 0.199 0.036-0.149 0.139zM27.932 19.981l-0.143-0.076-0.148 0.067 0.033-0.151-0.115-0.111 0.164-0.018 0.077-0.136 0.069 0.141 0.162 0.027-0.121 0.104z"></path>
<path fill="#ffffef" d="M14.618 19.174l-0.175-0.101-0.182 0.090 0.041-0.202-0.141-0.148 0.201-0.024 0.094-0.182 0.084 0.188 0.199 0.036-0.149 0.139z"></path>
<path fill="#ffffef" d="M14.618 19.174l-0.175-0.101-0.182 0.090 0.041-0.202-0.141-0.148 0.201-0.024 0.094-0.182 0.084 0.188 0.199 0.036-0.149 0.139zM17.41 19.173l-0.175-0.101-0.182 0.090 0.041-0.202-0.141-0.148 0.201-0.024 0.094-0.181 0.084 0.188 0.199 0.036-0.149 0.139zM17.063 20.102l-0.175-0.101-0.182 0.090 0.041-0.203-0.141-0.148 0.201-0.024 0.094-0.182 0.084 0.188 0.198 0.036-0.149 0.139zM22.86 18.411l-0.175-0.101-0.182 0.090 0.041-0.202-0.141-0.148 0.201-0.024 0.094-0.182 0.084 0.188 0.198 0.036-0.149 0.139zM21.159 18.41l-0.175-0.101-0.182 0.090 0.041-0.202-0.141-0.148 0.201-0.024 0.094-0.182 0.084 0.188 0.199 0.036-0.149 0.139zM16.544 17.817l-0.11-0.063-0.114 0.056 0.026-0.127-0.088-0.093 0.126-0.015 0.059-0.114 0.053 0.118 0.124 0.023-0.093 0.087zM27.716 20.715l-0.175-0.101-0.182 0.090 0.041-0.202-0.141-0.148 0.201-0.024 0.094-0.182 0.084 0.188 0.199 0.036-0.149 0.139zM26.299 20.901l-0.145-0.084-0.151 0.075 0.034-0.168-0.117-0.123 0.167-0.020 0.078-0.151 0.070 0.156 0.164 0.030-0.123 0.116zM26.968 20.885l-0.135-0.078-0.141 0.070 0.031-0.156-0.109-0.115 0.155-0.018 0.073-0.14 0.065 0.145 0.153 0.028-0.115 0.108zM28.887 19.21l-0.13-0.075-0.135 0.067 0.030-0.15-0.104-0.11 0.15-0.017 0.070-0.135 0.063 0.139 0.147 0.027-0.111 0.104zM26.283 21.846l-0.17-0.093-0.177 0.083 0.040-0.186-0.137-0.136 0.195-0.022 0.092-0.167 0.082 0.172 0.193 0.033-0.144 0.128zM26.292 22.609l-0.155-0.093-0.161 0.083 0.036-0.186-0.125-0.136 0.178-0.022 0.084-0.167 0.075 0.172 0.176 0.033-0.132 0.128zM25.006 20.884l-0.13-0.075-0.135 0.067 0.030-0.15-0.105-0.11 0.149-0.018 0.070-0.135 0.063 0.14 0.148 0.027-0.111 0.104zM23.799 20.884l-0.13-0.075-0.135 0.067 0.030-0.15-0.105-0.11 0.15-0.018 0.070-0.135 0.063 0.14 0.147 0.027-0.111 0.104zM21.752 19.094l-0.13-0.075-0.135 0.067 0.030-0.15-0.105-0.11 0.15-0.018 0.070-0.135 0.063 0.14 0.147 0.027-0.111 0.104zM21.98 22.744l-0.11-0.064-0.115 0.057 0.026-0.127-0.089-0.093 0.127-0.015 0.060-0.114 0.053 0.118 0.125 0.023-0.094 0.088zM18.887 16.84l-0.263-0.152-0.273 0.135 0.061-0.303-0.211-0.222 0.301-0.035 0.142-0.272 0.126 0.281 0.297 0.054-0.223 0.209z"></path>
<path fill="#fff" d="M29.625 19.054c0.13-0.339 0.297-0.85 0.386-1.319-4.516-3.967-9.551-6-15.912-5.581-0.228 0.437-0.411 0.895-0.565 1.39 7.538-0.719 13.062 2.618 16.091 5.51z"></path>
<path fill="#309e3a" d="M27.594 16.824l0.161 0.088c-0.025 0.057-0.032 0.107-0.021 0.15s0.042 0.081 0.089 0.113c0.050 0.034 0.095 0.049 0.134 0.045s0.070-0.020 0.089-0.049c0.010-0.014 0.015-0.030 0.015-0.049 0-0.003-0-0.006-0-0.009l0 0c-0.002-0.020-0.013-0.044-0.033-0.072-0.014-0.019-0.048-0.058-0.102-0.118-0.069-0.077-0.111-0.143-0.124-0.196-0.019-0.075-0.007-0.143 0.034-0.204 0.027-0.039 0.062-0.069 0.107-0.088s0.096-0.024 0.149-0.013c0.054 0.010 0.111 0.036 0.17 0.076 0.097 0.066 0.155 0.137 0.175 0.212s0.008 0.15-0.038 0.223l-0.16-0.099c0.020-0.044 0.025-0.083 0.015-0.115s-0.037-0.063-0.081-0.093c-0.045-0.031-0.087-0.045-0.125-0.044-0 0-0 0-0 0-0.024 0-0.045 0.012-0.057 0.031l-0 0c-0.012 0.018-0.015 0.039-0.009 0.063 0.009 0.030 0.045 0.080 0.108 0.149s0.107 0.126 0.13 0.17c0.024 0.044 0.034 0.089 0.032 0.137s-0.019 0.095-0.052 0.144c-0.030 0.044-0.071 0.078-0.119 0.099l-0.002 0.001c-0.051 0.022-0.105 0.027-0.162 0.016s-0.12-0.040-0.187-0.086c-0.097-0.066-0.157-0.14-0.179-0.22s-0.008-0.168 0.040-0.262zM26.829 16.322l0.165 0.081c-0.023 0.058-0.028 0.109-0.015 0.151s0.045 0.079 0.093 0.109c0.052 0.032 0.097 0.045 0.136 0.040s0.069-0.023 0.087-0.052c0.009-0.013 0.014-0.029 0.014-0.046 0-0.004-0-0.009-0.001-0.013l0 0c-0.003-0.020-0.015-0.044-0.036-0.071-0.015-0.018-0.050-0.056-0.106-0.114-0.072-0.074-0.116-0.138-0.132-0.191-0.022-0.074-0.013-0.142 0.026-0.205 0.025-0.040 0.061-0.072 0.103-0.091l0.001-0.001c0.045-0.021 0.095-0.028 0.149-0.019s0.112 0.032 0.173 0.069c0.099 0.062 0.161 0.13 0.184 0.205s0.014 0.15-0.028 0.224l-0.164-0.092c0.018-0.045 0.022-0.083 0.010-0.115s-0.039-0.062-0.084-0.090c-0.046-0.029-0.089-0.042-0.127-0.039-0.025 0.002-0.043 0.013-0.056 0.034-0.011 0.019-0.014 0.040-0.006 0.063 0.010 0.030 0.048 0.078 0.114 0.145s0.112 0.121 0.137 0.164c0.025 0.043 0.038 0.088 0.038 0.135s-0.015 0.096-0.046 0.146c-0.028 0.045-0.068 0.081-0.115 0.104l-0.002 0.001c-0.050 0.024-0.104 0.032-0.162 0.022s-0.121-0.036-0.19-0.078c-0.1-0.062-0.163-0.133-0.188-0.213s-0.015-0.168 0.029-0.263zM25.882 16.068l0.485-0.798 0.589 0.361-0.082 0.135-0.429-0.263-0.108 0.177 0.399 0.245-0.082 0.134-0.399-0.244-0.132 0.217 0.444 0.272-0.082 0.134-0.604-0.37zM24.503 14.935l0.072-0.14 0.36 0.186-0.17 0.331c-0.053 0.016-0.119 0.020-0.199 0.011-0.082-0.009-0.157-0.032-0.225-0.067l0.003 0.002c-0.087-0.045-0.153-0.102-0.198-0.171-0.041-0.061-0.065-0.136-0.065-0.217 0-0.005 0-0.010 0-0.015l-0 0.001c0.003-0.091 0.027-0.175 0.067-0.25l-0.002 0.003c0.044-0.087 0.102-0.154 0.173-0.203s0.15-0.073 0.238-0.073c0.067-0 0.14 0.020 0.219 0.061 0.103 0.053 0.172 0.116 0.207 0.19s0.043 0.152 0.020 0.237l-0.182-0.055c0.009-0.047 0.004-0.090-0.017-0.13s-0.054-0.073-0.102-0.098c-0.073-0.038-0.143-0.045-0.21-0.020s-0.123 0.082-0.17 0.173c-0.051 0.099-0.067 0.184-0.049 0.256s0.063 0.126 0.134 0.162c0.035 0.018 0.073 0.029 0.115 0.034s0.081 0.003 0.117-0.003l0.054-0.105-0.191-0.099zM18.486 13.443l0.136-0.924 0.278 0.041 0.075 0.655 0.257-0.606 0.279 0.041-0.136 0.925-0.173-0.025 0.107-0.728-0.29 0.701-0.179-0.027-0.076-0.755-0.107 0.728-0.173-0.025zM17.546 13.334l0.087-0.931 0.687 0.065-0.014 0.157-0.5-0.047-0.019 0.206 0.465 0.044-0.015 0.157-0.465-0.044-0.024 0.253 0.518 0.049-0.015 0.157-0.705-0.067z"></path>
<path fill="#309e3a" d="M14.433 12.752c0.003-0.095 0.019-0.175 0.049-0.239 0.024-0.049 0.054-0.090 0.090-0.126l0-0c0.038-0.037 0.079-0.064 0.123-0.081 0.059-0.023 0.126-0.034 0.202-0.032 0.137 0.004 0.245 0.050 0.325 0.137s0.118 0.208 0.114 0.36c-0.004 0.151-0.048 0.268-0.132 0.351s-0.194 0.122-0.331 0.118c-0.138-0.004-0.247-0.049-0.327-0.136s-0.117-0.205-0.113-0.354z"></path>
<path fill="#f7ffff" d="M14.628 12.75c-0.003 0.106 0.019 0.187 0.066 0.243s0.108 0.085 0.183 0.087c0.075 0.002 0.137-0.023 0.186-0.076s0.076-0.134 0.079-0.242c0.003-0.107-0.018-0.188-0.064-0.241s-0.106-0.082-0.184-0.084c-0.077-0.002-0.141 0.023-0.19 0.075s-0.075 0.131-0.078 0.239z"></path>
<path fill="#309e3a" d="M15.537 13.234l0.011-0.934 0.396 0.005c0.1 0.001 0.172 0.010 0.216 0.028s0.081 0.047 0.108 0.091 0.040 0.092 0.039 0.148c-0.001 0.070-0.022 0.128-0.064 0.173s-0.103 0.073-0.185 0.084c0.040 0.024 0.074 0.051 0.099 0.080s0.062 0.080 0.106 0.153l0.112 0.184-0.225-0.003-0.133-0.205c-0.047-0.073-0.080-0.119-0.097-0.138s-0.036-0.032-0.056-0.040c-0.020-0.007-0.051-0.011-0.095-0.012l-0.038-0.001-0.005 0.39-0.188-0.002z"></path>
<path fill="#fff" d="M15.732 12.697l0.139 0.002c0.090 0.001 0.147-0.002 0.169-0.009s0.040-0.020 0.053-0.039 0.020-0.042 0.020-0.070c0-0.031-0.008-0.057-0.025-0.076s-0.040-0.032-0.070-0.038c-0.015-0.002-0.061-0.004-0.137-0.005l-0.147-0.002-0.003 0.237z"></path>
<path fill="#309e3a" d="M16.6 12.346l0.343 0.017c0.077 0.004 0.136 0.013 0.176 0.027 0.054 0.019 0.1 0.051 0.135 0.093l0 0c0.037 0.043 0.064 0.095 0.081 0.156s0.024 0.134 0.019 0.222c-0.004 0.077-0.017 0.143-0.039 0.197-0.027 0.067-0.063 0.12-0.108 0.16-0.034 0.030-0.079 0.053-0.136 0.068-0.042 0.011-0.098 0.015-0.167 0.011l-0.353-0.018 0.047-0.933z"></path>
<path fill="#fff" d="M16.78 12.512l-0.031 0.618 0.14 0.007c0.052 0.003 0.090 0.002 0.114-0.003 0.031-0.006 0.057-0.018 0.077-0.035s0.039-0.046 0.054-0.087c0.015-0.041 0.024-0.098 0.028-0.17s0-0.128-0.011-0.167c-0.011-0.039-0.027-0.070-0.049-0.093s-0.050-0.039-0.085-0.048c-0.026-0.007-0.077-0.013-0.154-0.017l-0.084-0.004z"></path>
<path fill="#309e3a" d="M21.175 14.015l0.217-0.909 0.293 0.071c0.111 0.027 0.182 0.049 0.214 0.066 0.049 0.026 0.085 0.066 0.109 0.121s0.027 0.117 0.010 0.189c-0.013 0.056-0.035 0.1-0.064 0.133s-0.062 0.057-0.099 0.071c-0.036 0.014-0.071 0.021-0.105 0.020-0.046-0.002-0.11-0.013-0.193-0.033l-0.119-0.029-0.082 0.343-0.183-0.044z"></path>
<path fill="#fff" d="M21.539 13.303l-0.062 0.258 0.1 0.024c0.072 0.017 0.121 0.024 0.148 0.021 0.052-0.007 0.094-0.045 0.105-0.096l0-0.001c0.008-0.033 0.005-0.063-0.009-0.089s-0.036-0.046-0.063-0.058l-0.001-0c-0.021-0.010-0.064-0.022-0.13-0.038l-0.088-0.021z"></path>
<path fill="#309e3a" d="M22.040 14.274l0.309-0.881 0.373 0.132c0.094 0.033 0.159 0.065 0.196 0.096s0.062 0.071 0.073 0.12 0.008 0.1-0.010 0.152c-0.023 0.066-0.062 0.114-0.116 0.144s-0.121 0.036-0.202 0.020c0.030 0.036 0.053 0.072 0.069 0.107s0.033 0.095 0.051 0.179l0.047 0.21-0.212-0.075-0.061-0.237c-0.021-0.085-0.037-0.139-0.048-0.162s-0.024-0.043-0.040-0.056c-0.016-0.013-0.045-0.027-0.086-0.042l-0.036-0.013-0.129 0.368-0.177-0.063z"></path>
<path fill="#fff" d="M22.396 13.828l0.131 0.046c0.085 0.030 0.139 0.045 0.163 0.046s0.045-0.006 0.063-0.020c0.018-0.013 0.032-0.033 0.041-0.060 0.010-0.030 0.011-0.056 0.001-0.080s-0.027-0.043-0.054-0.058c-0.014-0.007-0.056-0.023-0.128-0.049l-0.138-0.049-0.078 0.224z"></path>
<path fill="#309e3a" d="M23.134 14.24c0.028-0.091 0.065-0.163 0.112-0.216 0.034-0.039 0.074-0.071 0.118-0.096l0.002-0.001c0.046-0.025 0.093-0.040 0.14-0.044 0.063-0.006 0.13 0.002 0.203 0.025 0.131 0.041 0.223 0.114 0.276 0.221s0.058 0.232 0.013 0.377c-0.045 0.144-0.119 0.245-0.222 0.302s-0.22 0.065-0.351 0.024c-0.132-0.041-0.225-0.115-0.278-0.22s-0.057-0.229-0.013-0.371z"></path>
<path fill="#fff" d="M23.322 14.292c-0.031 0.101-0.032 0.185-0.002 0.252s0.081 0.111 0.153 0.133c0.072 0.022 0.138 0.015 0.2-0.022s0.109-0.108 0.141-0.211c0.032-0.102 0.033-0.186 0.004-0.25s-0.080-0.108-0.154-0.131c-0.074-0.023-0.142-0.016-0.203 0.021s-0.107 0.106-0.139 0.209z"></path>
<path fill="#309e3a" d="M24.954 15.541l0.428-0.83 0.351 0.182c0.088 0.046 0.149 0.087 0.181 0.123s0.051 0.079 0.056 0.129-0.006 0.1-0.031 0.149c-0.032 0.062-0.077 0.104-0.134 0.126s-0.125 0.019-0.203-0.009c0.025 0.040 0.043 0.079 0.053 0.116s0.019 0.099 0.026 0.184l0.017 0.214-0.2-0.104-0.028-0.243c-0.010-0.087-0.018-0.143-0.025-0.167s-0.018-0.045-0.032-0.061c-0.014-0.016-0.041-0.033-0.079-0.053l-0.034-0.018-0.178 0.346-0.167-0.087z"></path>
<path fill="#fff" d="M25.367 15.148l0.124 0.064c0.080 0.042 0.132 0.064 0.155 0.068s0.045 0 0.065-0.011c0.020-0.011 0.036-0.029 0.049-0.054 0.014-0.028 0.018-0.054 0.012-0.079s-0.021-0.047-0.046-0.065c-0.013-0.009-0.053-0.031-0.121-0.066l-0.13-0.068-0.109 0.211z"></path>
<path fill="#309e3a" d="M28.407 17.247c0.053-0.079 0.109-0.137 0.169-0.175 0.041-0.026 0.089-0.046 0.14-0.057l0.003-0.001c0.023-0.005 0.050-0.008 0.078-0.008 0.024 0 0.048 0.002 0.071 0.007l-0.002-0c0.062 0.012 0.124 0.040 0.187 0.082 0.114 0.077 0.181 0.174 0.201 0.291s-0.012 0.239-0.097 0.365c-0.084 0.125-0.184 0.2-0.299 0.225s-0.229-0.002-0.343-0.079c-0.115-0.078-0.182-0.175-0.203-0.291s0.011-0.236 0.094-0.359z"></path>
<path fill="#fff" d="M28.572 17.35c-0.059 0.088-0.084 0.168-0.074 0.241s0.046 0.13 0.108 0.172c0.062 0.042 0.128 0.054 0.198 0.037s0.136-0.072 0.196-0.162c0.060-0.089 0.085-0.168 0.075-0.238s-0.046-0.127-0.11-0.17-0.131-0.057-0.2-0.039c-0.069 0.017-0.133 0.071-0.193 0.16z"></path>
<path fill="#309e3a" d="M20.122 13.635l0.15-0.656 0.485 0.112-0.025 0.111-0.352-0.081-0.034 0.145 0.328 0.076-0.025 0.11-0.328-0.075-0.041 0.178 0.365 0.084-0.025 0.111-0.497-0.114z"></path>
</svg>
