<!-- Generated by IcoMoon.io -->
<svg version="1.1" xmlns="http://www.w3.org/2000/svg" width="43" height="32" viewBox="0 0 43 32">
<title>BTN</title>
<path fill="#ffd520" d="M0.007 0h42.673v32h-42.673z"></path>
<path fill="#ff4e12" d="M0.007 32h42.673v-32z"></path>
<path fill="#fff" d="M23.026 10.005c-0.266-0.094-0.438 0.043-0.429 0.386s0.189 0.541 0.455 0.412l-0.026-0.798z"></path>
<path fill="#fff" d="M23.26 9.362c-0.222-0.175-0.428-0.1-0.53 0.228s0.005 0.573 0.298 0.536l0.232-0.764z"></path>
<path fill="#fff" d="M23.629 8.739c-0.191-0.208-0.407-0.167-0.56 0.14s-0.087 0.566 0.209 0.577l0.352-0.717zM23.387 11.765c-0.326 0.12-0.361 0.567-0.154 0.841s0.584 0.326 0.79 0l-0.635-0.842z"></path>
<path fill="#fff" d="M23.009 10.82c-0.309-0.103-0.588 0.312-0.635 0.687-0.060 0.472-0.73 0.627-0.36 1.339 0.077-0.455 0.378-0.704 0.618-0.721s0.601-0.069 0.756-0.361l-0.378-0.944zM23.988 12.658c-0.361 0.086-0.412 0.567-0.155 0.91 0.22 0.294 0.91 0.223 0.893-0.069l-0.738-0.841zM25.010 15.551c0.017-0.309-0.481-0.429-0.721-0.369s-0.7-0.009-0.807-0.266c-0.086 0.206 0.039 0.429 0.386 0.541 0.263 0.084 0.258 0.275 0.18 0.361 0.198 0.034 0.781 0.034 0.962-0.266z"></path>
<path fill="#fff" d="M24.726 13.577c-0.352-0.155-0.561 0.081-0.695 0.309-0.198 0.335-0.807-0.094-1.013 0.352 0.279-0.12 0.563 0.136 0.695 0.223 0.378 0.249 1.108 0.172 1.211-0.412l-0.198-0.472z"></path>
<path fill="#fff" d="M24.932 13.988c-0.352 0.266-0.489 0.584-0.481 0.798s0.309 0.687 0.635 0.713c0.189-0.386 0.283-1.202-0.155-1.511zM23.473 15.645c0-0.129 0.189-0.18 0.318-0.137s0.326 0.172 0.258 0.309l-0.575-0.172zM21.532 14.941c-0.034-0.155 0.215-0.421 0.55-0.275s0.378 0.429 0.24 0.541l-0.79-0.266z"></path>
<path fill="#fff" d="M22.348 15.225c-0.026-0.086 0.215-0.257 0.627-0.155s0.513 0.368 0.498 0.575l-1.125-0.421zM21.49 14.941c0.215-0.163 0.133-0.472-0.060-0.567-0.352-0.172-0.223-0.618-0.446-0.704s-0.438-0.24-0.446-0.395c-0.112 0.215-0.043 0.412 0.112 0.549s-0.12 0.695 0.077 0.841l0.764 0.275zM16.887 14.821c-0.18-0.283-0.61-0.232-0.79-0.034s-0.155 0.489 0.017 0.618l0.773-0.584zM17.918 14.401c-0.069-0.378-0.524-0.421-0.773-0.326s-0.421 0.472-0.258 0.747l1.030-0.421z"></path>
<path fill="#fff" d="M18.605 14.349c0.163-0.318-0.155-0.79-0.515-0.859-0.301-0.057-0.657-0.056-0.773-0.352-0.073 0.258 0.12 0.421 0.343 0.567s-0.043 0.524 0.318 0.738l0.627-0.094z"></path>
<path fill="#fff" d="M18.571 14.36c-0.075-0.228 0.077-0.53 0.386-0.509s0.484 0.245 0.348 0.526l-0.734-0.017z"></path>
<path fill="#fff" d="M19.257 14.377c-0.042-0.236 0.151-0.514 0.453-0.45s0.445 0.311 0.271 0.569l-0.724-0.119z"></path>
<path fill="#fff" d="M19.939 14.485c-0.031-0.238 0.176-0.506 0.475-0.427s0.429 0.333 0.242 0.582l-0.718-0.155zM14.758 18.419c-0.575 0-0.716 0.137-0.798 0.73-0.103 0.738 0.902 0.824 0.798-0.73z"></path>
<path fill="#fff" d="M15.016 17.646c-0.884-0.335-1.365 1.065-2.241 0.816 0.313 0.498 1.073 0.001 1.356 0.052 0.481 0.086 1.52-0.094 0.884-0.867zM14.441 19.561c-0.438-0.197-0.91 0.472-0.824 0.764 0.109 0.371 1.108 0.069 0.824-0.764zM12.397 22.445c0.24 0.068 0.532 0.206 0.481 0.67s-0.927 1.408-1.717 1.46c-0.79 0.052-1.073 1.004-1.751 0.738 0.635-0.12 0.635-0.841 1.133-1.064-0.361-0.129-0.55 0.687-1.013 0.687s-0.687 0.738-1.254 0.687c-0.567-0.051-0.626 0.899-1.76 0.91-0.867 0.008-1.94 1.022-2.327 0.584 0.841-0.12 1.181-0.586 1.683-1.099 0.807-0.824 1.717-0.455 2.026-1.185-0.331 0.226-0.74 0.361-1.18 0.361-0.014 0-0.027-0-0.041-0l0.002 0c-0.528-0.011-1.108 0.841-1.7 0.464 0.343-0.043 0.567-0.189 0.927-0.567 0.369-0.387 0.911-0.137 1.339-0.532 0.67-0.618 1.245-0.103 1.889-0.876-0.18-0.086-0.567-0.026-0.927 0.163s-0.824-0.129-1.236 0.094c0.052-0.506 1.013-0.217 1.614-0.567 0.678-0.395 1.241-0.279 1.777-0.232-0.747-0.004-1.039-0.713-2.069-0.507-0.449 0.090-0.807-0.618-1.254-0.258 0.013-0.266 0.481-0.481 0.962-0.223s0.675-0.225 1.631 0.378c0.395 0.249 1.073-0.155 1.502 0.112-0.056-0.163-0.301-0.266-0.588-0.245 0.18-0.369 1.344-0.322 1.85 0.047z"></path>
<path fill="#fff" d="M13.162 21.887c-0.378-0.292-0.901 0.060-1.262-0.077 0 0.24 0.12 0.601 0.515 0.738 0.12-0.086 0.661-0.558 0.747-0.661z"></path>
<path fill="#fff" d="M13.754 21.054c-0.592-0.3-0.695 0.446-1.159 0.292 0.017 0.215 0.189 0.481 0.567 0.541l0.592-0.833z"></path>
<path fill="#fff" d="M14.106 20.376c-0.876-0.343-0.987 0.498-1.502 0.335 0.12 0.292 0.859 0.446 1.236 0.343l0.266-0.678zM15.308 16.693c-0.232-0.326-0.721-0.060-0.798 0.326s0.112 0.927 0.438 0.807l0.361-1.133z"></path>
<path fill="#fff" d="M15.9 15.662c-0.404-0.094-0.867-0.052-0.816 0.343-0.155 0.069-0.197 0.575 0.223 0.687l0.592-1.030z"></path>
<path fill="#fff" d="M16.166 15.396c-0.395-0.464-0.835-0.453-1.082-0.258-0.455 0.361-0.897 0.155-0.91 0.515 0.275-0.21 0.515 0.043 0.738-0.034s0.386 0.352 1.005 0.172l0.249-0.395zM15.213 22.325c0.060 0.112 0.429 0.163 0.61-0.026 0.239-0.25-0.026-0.944-0.404-0.996s-0.412 0.781-0.206 1.022z"></path>
<path fill="#fff" d="M14.784 22.342c0.541 0.197 0.773-0.249 0.481-0.532-0.077 0.094-0.361 0.438-0.481 0.532z"></path>
<path fill="#fff" d="M12.758 23.081c-0.103 0.309-0.635 0.361-1.236 1.322s-1.176 0.558-1.322 1.219c0.721-0.584 1.288-0.196 1.717-0.773 0.653-0.876 1.19-0.75 1.442-1.339 0.361-0.841 1.94-0.824 2.026-2.146-0.532-0.103-2.215 1.322-2.627 1.717zM26.306 10.099c0.687 0.223 0.704 1.116 1.494 1.408s0.867 0.996 1.511 0.824c-0.601-0.163-0.558-0.859-1.185-1.030-0.735-0.201-1.013-1.322-1.597-1.494M29.457 14.761c0.12 0.275 0.103 0.764-0.326 0.893 0.232 0.146 0.575 0.009 0.764-0.309-0.283 0.627-0.094 1.193 0.352 1.305-0.215-0.438 0.266-0.644 0.112-0.927 0.283 0.12 0.532 0.507 0.524 0.747 0.369-0.412-0.275-0.962-0.154-1.348l-1.271-0.361zM25.010 19.174c-0.421-0.369-0.6 0.097-0.807-0.064-0.193-0.15-0.451-0.172-0.549-0.021 0.361 0.013 0.184 0.292 0.884 0.361-0.7 0.047-0.571 0.829-1.039 0.79 0.498 0.472 0.756-0.421 1.159-0.275-0.12 0.034 0.189 0.318-0.026 0.695 0.348-0.009 0.489-0.489 0.532-0.738l-0.155-0.747zM15.746 23.183c-0.155-0.129-0.601-0.189-0.773-0.086s-0.112 0.129 0.094 0.146c0.206 0.017 0.472 0.35 0.026 0.369-0.206 0.008-0.137 0.506-0.567 0.541 0.176 0.215 0.678 0.073 0.859-0.163-0.034 0.193 0.223 0.369 0.12 0.601 0.318 0.034 0.133-0.644 0.635-0.61-0.206 0.026-0.12 0.489 0.24 0.369-0.215 0.103-0.103 0.352 0.137 0.292-0.154 0.052-0.206 0.249 0.009 0.361 0.206-0.283-0.026-1.296-0.781-1.82zM34.445 13.71c0.657 0 1.19-0.533 1.19-1.19s-0.533-1.19-1.19-1.19c-0.657 0-1.19 0.533-1.19 1.19s0.533 1.19 1.19 1.19z"></path>
<path fill="#fff" d="M28.229 15.148c0.361-0.343 0.91-0.515 1.288-0.258s1.631 0.567 2.25 0.137c0.618-0.429 0.91-0.653 1.185-0.601 0.206 0.309 0.455 0.455 0.764 0.481 0.094 0.103 0.429 0.189 0.618 0.163 0.275 0.069 0.61-0.017 0.876-0.309 0.412 0.060 0.798-0.249 0.944-0.713 0.438-0.052 0.464-0.541 0.189-0.867-0.258-0.051-0.060-0.919-0.996-0.747 0.395 0.24 0.094 0.721 0.421 0.944-0.223 0-0.511 0.094-0.58 0.429 0.086-0.232-0.013-0.386-0.073-0.438 0.009-0.197-0.429-0.683-0.841-0.507 0.296 0.064 0.129 0.541 0.344 0.721-0.155 0.009-0.318 0.086-0.412 0.223-0.112-0.197-0.506-0.404-0.747-0.421 0-0.069-0.013-0.206-0.043-0.275-0.107-0.206-0.198-0.451-0.155-0.764-0.206 0.223-0.378 0.532-0.481 0.756-0.326-0.223-1.133 0.103-1.511 0.189s-1.648-0.12-1.94-0.429c-0.292-0.309-0.858-0.498-1.391-0.652-0.732-0.212-0.738-1.013-1.546-1.563-0.017 0.996 1.494 4.155 1.837 4.499zM19.815 22.737c0.635 0 1.15-0.515 1.15-1.15s-0.515-1.15-1.15-1.15c-0.635 0-1.15 0.515-1.15 1.15s0.515 1.15 1.15 1.15z"></path>
<path fill="#fff" d="M17.068 21.853c0.232 0.301 0.627 0.283 0.79 0.258 0.137 0.36 0.575 0.352 0.764 0.549s0.833 0.18 1.022 0.069c-0.172-0.017-0.395-0.12-0.61-0.3-0.259-0.218-0.137-0.653-0.343-0.807 0.155-0.172 0.18-0.455 0.146-0.567 0.163-0.094 0.283-0.249 0.3-0.326 0.283-0.017 0.532-0.163 0.635-0.275 0.146 0.137 0.515-0.043 0.713 0.189 0.043-0.567-0.498-0.867-0.859-0.678-0.146-0.077-0.532-0.026-0.601 0.077-0.12-0.052-0.455 0.12-0.61 0.232 0.172-0.094 0.197-0.378 0.129-0.481 0.146-0.060 0.309-0.258 0.326-0.404 0.206 0.034 0.515-0.103 0.652-0.069-0.223-0.292-0.592-0.395-0.97-0.369-0.391 0.022-0.558 0.296-0.61 0.592-0.232 0.137-0.309 0.601-0.223 0.764-0.133-0.004-0.258 0.125-0.309 0.197-0.18-0.077-0.438-0.133-0.622-0.133M16.87 19.904c-0.077-0.223 0.025-0.424 0.077-0.601 0.133-0.451 0.052-0.567-0.352-0.507-0.034 0.215 0.172 0.919 0.275 1.107z"></path>
<path fill="#fff" d="M16.574 18.822c0.103 0.103 0.468 0.15 0.507-0.176 0.044-0.375-0.107-0.519-0.434-0.373-0.026 0.086-0.056 0.438-0.073 0.549z"></path>
<path fill="#fff" d="M16.652 18.26c0.137 0.056 0.434 0.167 0.597-0.15 0.137-0.266-0.043-0.472-0.326-0.455-0.069 0.077-0.206 0.352-0.27 0.605z"></path>
<path fill="#fff" d="M16.905 17.629c0.034 0.103 0.386 0.446 0.644 0.197s0.258-0.618-0.129-0.756c-0.103 0.017-0.412 0.378-0.515 0.558z"></path>
<path fill="#fff" d="M17.42 17.071c0.077 0.215 0.318 0.584 0.764 0.412s0.258-0.73 0.052-0.841c-0.12 0.009-0.61 0.232-0.816 0.429z"></path>
<path fill="#fff" d="M18.236 16.642c-0.034 0.189 0 0.704 0.61 0.695s0.438-0.721 0.283-0.824c-0.249 0-0.67 0.009-0.893 0.129z"></path>
<path fill="#fff" d="M19.154 16.538c-0.069 0.146-0.223 1.107 0.97 0.841 0.154-0.034 0.558-0.919-0.97-0.841z"></path>
<path fill="#fff" d="M19.806 16.624c-0.12 0.12 0.189 1.090 0.996 0.927s0.129-1.082-0.996-0.927z"></path>
<path fill="#fff" d="M20.493 16.77c-0.129 0.266 0.065 1.056 1.060 1.056 0.902 0-0.047-1.039-1.060-1.056z"></path>
<path fill="#fff" d="M21.275 17.002c-0.065 0.148-0.144 0.985 1.030 1.056 0.85 0.052 0.644-1.15-1.030-1.056z"></path>
<path fill="#fff" d="M22.537 17.354c-0.146 0.258-0.3 0.901 0.987 0.953 0.825 0.033 0.318-0.936-0.987-0.953z"></path>
<path fill="#fff" d="M23.61 17.551c-0.189 0.258-0.050 0.763 0.429 0.859 0.601 0.12 0.687-0.446 0.275-0.721s-0.704-0.137-0.704-0.137z"></path>
<path fill="#fff" d="M24.194 17.671c-0.137 0.24-0.052 0.824 0.858 0.824 0.189 0 0.91-0.738-0.858-0.824zM17.146 28.868c0.738 0 1.336-0.598 1.336-1.336s-0.598-1.336-1.336-1.336c-0.738 0-1.336 0.598-1.336 1.336s0.598 1.336 1.336 1.336z"></path>
<path fill="#fff" d="M26.941 9.447c-0.103 0.103-0.318 0.412-0.361 0.532-0.446 1.339 0.745 2.34 1.442 3.778 0.55 1.133 0.481 2.919-0.378 4.052-0.294 0.388-0.206 0.498-0.584 0.893-0.145 0.151-0.309 0.343-0.258 0.893 0.24-0.086 0.584 0.137 0.652 0.326 0.172-0.086 0.412-0.052 0.498 0.051 0.292-0.137 0.532-0.069 0.79 0.206 0.223-0.034 0.464 0 0.687 0.24 0.12-0.24 0.361-0.326 0.532-0.275-0.017-0.309 0.292-0.532 0.567-0.412-0.086-0.412 0.292-0.721 0.653-0.601 0.309-0.24 0.927-0.258 1.236 0.103-0.55-0.155-0.532 0.429-0.996 0.378 0.12 0.343-0.189 0.541-0.498 0.652 0.197-0.094 0.412-0.206 0.481-0.086 0.172-0.15 0.515-0.094 0.601-0.017 0.227-0.073 0.446-0.017 0.549 0.258 0.309 0.189 0.515 0.67 0.292 1.030-0.069-0.378-0.326-0.361-0.429-0.515-0.24 0.086-0.481 0.086-0.55-0.069-0.137 0.137-0.601 0.258-0.807 0.052-0.077 0.309-0.344 0.567-0.653 0.567 0.086 0.24-0.154 0.653-0.343 0.859 0.292 0.154 0.206 0.498 0.137 0.704 0.446 0.069 0.069 0.464 0.841 0.721-0.378 0.12-1.116 0-1.219-0.464-0.378-0.017-0.635-0.395-0.618-0.79-0.292-0.275-0.335-0.67 0.069-0.944-0.344 0.103-0.532-0.446-1.030-0.223-0.248 0.111-0.901-0.077-0.893-0.309-0.103 0.172-0.73 0.103-0.816-0.189-0.206 0.112-0.687-0.077-0.678-0.361-0.266 0.12-0.627-0.094-0.61-0.369-0.249-0.034-0.275-0.258-0.258-0.446-0.223-0.103-0.163-0.318-0.077-0.575-0.154-0.172-0.086-0.412 0.034-0.635-0.172-0.172-0.137-0.378-0.086-0.618-0.824-0.069-1.857-0.267-4.224-0.996-3.572-1.099-4.533 1.477-3.743 3.091 0.911 1.862-0.103 2.267 0.206 3.658 0.326 0.069 0.498 0.343 0.481 0.635 0.193 0.008 0.331 0.189 0.262 0.532 0.163-0.030 0.374 0.017 0.511 0.154 0.12-0.223 0.515-0.275 0.721-0.017 0.446-0.034 0.67 0.326 0.653 0.773 0.24 0.429 0.154 0.953-0.103 1.288 0.026-0.18 0-0.438-0.008-0.592-0.016-0.284-0.412-0.344-0.369-0.575-0.206 0.017-0.404-0.094-0.472-0.249-0.12 0.103-0.292 0.137-0.438 0.086 0.232 0.103 0.412 0.515 0.343 0.79 0.12 0.206 0.094 0.584-0.052 0.747-0.069 0.335-0.326 0.455-0.661 0.309 0.189-0.12 0.258-0.335 0.249-0.515-0.12-0.103-0.18-0.3-0.189-0.421-0.335 0.052-0.798-0.232-0.884-0.344-0.738 0-1.336 0.598-1.336 1.336-0.034-0.275-0.382-0.546-0.339-0.777-0.206-0.635 0.086-1.228 0.927-1.348-0.103-0.24 0.258-0.49 0.12-0.764-0.175-0.351-0.498-0.807-0.979-1.339 0.292-0.498 0.206-1.168 0.034-1.58-0.247-0.592-0.481-0.446-1.357 0.515-1.427 1.567-3.331 1.133-5.014 2.164-0.447 0.274-0.893 0.378-0.412-0.103s1.751-0.962 2.576-1.374c1.543-0.772 2.85-2.061 3.366-4.567 1.21-5.891 5.666-3.949 8.482-2.85 2.644 1.032 2.164-1.305 0.824-2.713-1.61-1.692-1.288-3.022-0.532-4.087 1.356-0.189 3.958 0.283 3.434 0.738z"></path>
<path fill="#fff" d="M31.724 23.919c0.812 0 1.47-0.658 1.47-1.469s-0.658-1.47-1.47-1.47c-0.812 0-1.47 0.658-1.47 1.47s0.658 1.469 1.47 1.469z"></path>
<path fill="#fff" d="M26.452 6.871c-0.687-0.343-2.112-0.979-2.516-0.464 0.369-0.155 1.451 0.009 2.344 0.833l0.172-0.369z"></path>
<path fill="#fff" d="M26.868 6.835c-0.794-0.925-1.262-0.718-1.833-1.037-0.536-0.299-1.391-0.361-1.556 0.116 0.784-0.382 1.503 0.205 1.945 0.276 0.607 0.097 0.95 0.567 1.127 0.783l0.317-0.138zM29.86 6.716c-0.412-0.944-1.294-0.698-1.683-1.099-0.566-0.584-2-1.125-2.593-0.721 1.305-0.069 1.861 0.899 2.558 1.236 0.498 0.24 1.030 0.756 1.717 0.584z"></path>
<path fill="#fff" d="M28.315 6.613c-0.704-0.876-1.786-1.648-2.284-1.357 0.652 0.034 0.858 0.489 1.322 0.781s0.258 0.713 0.962 0.575zM24.966 8.159c-0.738-0.275-2.181-0.412-2.85 0.429 1.116 0.189 2.799 0.086 2.85-0.429z"></path>
<path fill="#fff" d="M24.829 8.485c-0.738-0.343-1.315 0.136-2.009 0.069-1.322-0.129-2.266-0.052-2.387 0.584 0.756-0.678 2.026-0.12 2.541-0.258s2.421-0.017 3.022 0.24c-0.309-0.378-0.79-0.481-1.168-0.635zM27.147 6.519c-0.172-0.567-0.163-1.168 0.687-1.125-0.215-0.266-1.004-0.404-1.133 0.592-0.936-0.687-1.958-0.807-2.146-0.215 0.481-0.412 1.228-0.112 2.12 0.902 0.077-0.043 0.283-0.129 0.472-0.155z"></path>
<path fill="#fff" d="M25.86 7.3c-0.532-0.343-1.254-0.901 0.009-1.125-0.541-0.292-1.331-0.163-1.245 0.833-1.442-0.584-2.478-0.387-2.696 0.189-0.24 0.635 0.653 0.987 0.807 0.584-0.163 0.069-0.721-0.12-0.429-0.481s1.788-0.090 3.211 0.653c0.395 0.206 1.751 0.172 0.343-0.653z"></path>
<path fill="#fff" d="M25.482 8.245c-0.411-0.839-1.743-0.077-2.011-0.889-0.367 1.19 1.894 0.531 2.011 0.889zM33.956 9.155c0.279 0.139 0.521-0.079 0.094-0.251 0.28 0.139 0.523-0.074 0.096-0.246 0.28 0.139 0.523-0.074 0.096-0.245-0.114 0.115-0.277 0.535-0.286 0.742zM34.101 7.541c0.618-0.652-0.051-0.876 0.704-1.545 0.618-0.548 0.118-0.913 0.704-1.339 0.189-0.137 0.601-0.412 0.635-0.687 0.249 0.618-0.773 0.704-0.704 1.7 0.044 0.634-0.385 0.579-0.549 1.648-0.034 0.223-0.189 0.721-0.79 0.223z"></path>
<path fill="#fff" d="M34.377 7.833c0.343-0.738 0.738-0.724 0.927-1.013 0.361-0.549 1.125 0.094 1.769-0.395-0.112 0.695-0.979 0.446-1.356 0.893s-0.687 0.653-1.339 0.515z"></path>
<path fill="#fff" d="M34.462 8.073c0.601-0.481 1.044-0.16 1.46-0.412 1.047-0.635 1.468 0.129 2.404-0.172-0.249 0.601-1.631 0.086-2.232 0.532s-2.713 0.876-1.631 0.052zM32.711 11.499c-0.009-0.275-0.266-0.627-0.627-0.67s-0.515-0.421-0.79-0.438c-0.275-0.017-0.455-0.567-0.833-0.558s-0.532 0.498 0.352 0.944c0.884 0.446 1.863 0.962 1.898 0.721zM31.595 11.731c-0.378 0.017-0.429 0.567-0.79 0.584 0.498 0.266 0.858-0.12 1.116-0.464l-0.326-0.12z"></path>
<path fill="#fff" d="M31.904 11.799c-0.326 0.275-0.421 0.85 0.052 1.013-0.283-0.391 0.498-0.567 0.258-0.927l-0.309-0.086z"></path>
<path fill="#fff" d="M32.23 11.817c-0.258 0.498 0.404 0.558 0.232 0.936 0.378-0.086 0.438-0.798 0.094-0.987l-0.326 0.051z"></path>
<path fill="#fff" d="M29.706 10.751c0.618-0.034 1.184 0.3 1.563 0.841 0.24 0.343 1.047 0.481 1.322 0.206s0.12-0.859-0.567-0.67c-0.172-0.292-0.67-0.189-0.91-0.429s-1.168-0.927-1.408 0.052z"></path>
<path fill="#fff" d="M32.024 11.13c-0.163 0.034-0.215 0.318-0.112 0.464M32.376 11.301c0.052 0.086 0.017 0.206-0.009 0.266M30.685 10.778c0.318 0.017 0.378 0.249 0.721 0.335"></path>
<path fill="#fff" d="M30.475 9.996c1.097 0.275 1.968 0.515 2.507 0.824s1.376 0.395 2.107 0.189c0.731-0.206 2.142-0.395 2.072 0.515 0.383-0.455-0.104-0.944-1.080-1.030 0.018-0.446-0.46-0.85-0.804-0.584 0.318-0.043 0.592 0.549-0.035 0.79 0.122-0.446-0.322-0.85-0.784-0.653 0.296 0.086 0.595 0.582-0.067 0.773-0.418 0.12-1.027-0.034-1.48-0.309s-2.995-1.271-2.438-0.515z"></path>
<path fill="#fff" d="M33.243 9.55c-0.343 0.155-0.12 0.515-0.652 0.721s-0.902 0.678-0.781 1.082c0.361-0.79 0.996-0.756 1.219-1.065s0.55-0.764 0.215-0.738z"></path>
<path fill="#fff" d="M33.338 9.601c-0.017 0.627-0.51 0.398-0.318 1.279 0.060 0.275 0.172 0.721-0.017 1.168 0.554-0.403 0.198-1.251 0.446-1.571 0.12-0.155 0.275-0.395 0.335-0.601-0.129 0.361-0.12 1.030 0.232 1.202-0.283-0.67 0.764-1.219 0.043-1.992-0.103 0.189-0.429 0.524-0.721 0.515zM31.586 8.974c0.086 0.129 0.172 0.455 0.094 0.635 0.172-0.103 0.421-0.369 0.498-0.549 0.352 0.052 0.489 0.489 0.155 0.678 0.206 0 0.558 0 0.755-0.232-0.24-0.266-0.987-0.678-1.502-0.532z"></path>
<path fill="#fff" d="M26.246 7.743c-0.056-0.051-0.149-0.099-0.318-0.133-0.52-0.107-0.251-0.575 0.191-0.571 0.944-1.030 1.474-0.236 2.625-0.562 0.403-0.114 0.679-0.080 0.898 0.014 0.515-0.343 1.119-0.247 1.557 0.156 0.049-0.077 0.114-0.136 0.206-0.162 0.403-0.112 0.73 0.232 0.841 0.678 0.314-0.058 0.674 0.097 0.91 0.312 0.327-0.168 0.552-0.175 0.635-0.003 0.292-0.137 0.67-0.224 0.859 0.24s-0.446 0.326-0.55 1.305c-0.064 0.604-0.738 0.841-1.271 0.481-0.852-0.577-1.683-0.67-2.095 0.206s-0.735 1.385-1.734 1.099c-0.36-0.103-0.824 0.034-1.116 0.429s-0.738 0.026-1.271 0.069c0.67-0.103 0.413-0.271 0.996-0.309 0.532-0.034 0.395-0.532 0.738-0.601-1.339 0.343-1.288-0.155-2.387 0.189 0.481-0.618 1.236-0.275 1.614-0.635-0.996-0.017-1.441-0.668-1.889-0.395-0.704 0.429-0.395 1.651-2.232 1.545-0.893-0.051-1.46 0.069-1.992 0.601 0.927-1.923 2.189-0.867 2.799-1.477 0.361-0.361 0.635-0.635 0.824-0.979 0.066-0.121 0.156-0.19 0.269-0.217-1.528-0.481-0.604-1.23 0.89-1.281z"></path>
<path fill="#fff" d="M33.791 7.473c0.023 0.048 0.035 0.111 0.035 0.188 0 0.378-0.567 0.395-0.601 0.953-0.018 0.292-0.052 0.455-0.249 0.421s-0.369-0.343-0.18-0.704"></path>
<path fill="#fff" d="M26.529 7.18c-0.142-0.1-0.284-0.141-0.412-0.142M29.639 6.488c0.455 0.197 0.676 0.669 1.337 0.692 0.636 0.022 1.030 0.944 2.095 0.343 0.029-0.016 0.057-0.031 0.084-0.046M31.2 6.647c-0.095 0.151-0.116 0.362-0.090 0.546M29.122 8.588c-0.807 0-1.013 0.412-1.013 0.807s0.378 0.91 1.048 0.91c0.67 0 1.030-0.412 1.030-0.859s-0.412-0.859-1.065-0.859z"></path>
<path fill="#fff" d="M29.268 10.288c-0.017-0.223-0.421-0.189-0.404-0.361s0.223-0.24 0.223-0.481 0.36-0.258 0.481-0.069c0.12 0.189 0.481 0.558 0.558 0.369M29.569 9.378c-0.189 0.189-0.275 0.575-0.026 0.876M29.826 9.67c-0.060 0.129-0.077 0.326-0.008 0.446"></path>
<path fill="#fff" d="M31.466 8.056c-0.215-0.532-0.764-0.61-1.056-0.343-0.243 0.221-0.249 0.798 0.275 0.919 0.18-0.215 0.532-0.498 0.781-0.575zM31.23 7.721c-0.309-0.275-0.764 0.245-0.352 0.721M25.35 9.022c0.207-0.049 0.509 0.052 0.973 0.27 0.292 0.137 1.168 0.429 1.717 0.137-0.567 0.206-0.996-0.652-1.425-0.549s-1.215 0.262-1.545-0.052c0.807 0.052 1.241-0.588 2.163-0.034 0.258 0.155 0.584 0.258 0.876 0.24-0.755-0.91-1.751-0.326-1.854-1.065 0.455 0.489 1.567-0.112 2.134 0.807M26.418 8.107c-0.106-0.132-0.058-0.264-0.172-0.368"></path>
<path fill="#000" d="M32.256 7.163c-0.189-0.202-0.601-0.043-0.485 0.365 0.090-0.189 0.283-0.348 0.485-0.365zM31.089 8.263c0.13-0.094 0.264-0.172 0.377-0.207-0.062-0.153-0.151-0.268-0.254-0.349-0.098-0.068-0.38 0.312-0.124 0.556z"></path>
<path fill="#fff" d="M32.238 7.163c-0.189 0.035-0.358 0.146-0.467 0.365"></path>
</svg>
