<!-- Generated by IcoMoon.io -->
<svg version="1.1" xmlns="http://www.w3.org/2000/svg" width="43" height="32" viewBox="0 0 43 32">
<title>BYN</title>
<path fill="#b20000" d="M0 0h64.007v21.257h-64.007z"></path>
<path fill="#429f00" d="M0 21.257h64.007v10.743h-64.007z"></path>
<path fill="#fff" d="M0 0h7.086v32h-7.086z"></path>
<path fill="#b20000" d="M0.337 0.543h0.337v0.543h-0.337zM1.35 0.543h1.012v0.543h-1.012zM1.687 0h0.337v0.542h-0.337zM3.374 0h0.338v0.542h-0.338zM4.724 0.543h1.012v0.543h-1.012zM5.062 0h0.337v0.542h-0.337z"></path>
<path fill="#b20000" d="M1.012 1.085h0.675v0.542h-0.675zM2.025 1.085h0.675v0.542h-0.675zM4.387 1.085h0.675v0.542h-0.675zM5.399 1.085h0.675v0.542h-0.675zM0.674 1.627h0.675v0.542h-0.675zM2.362 1.627h0.675v0.542h-0.675zM4.049 1.627h0.675v0.542h-0.675zM5.736 1.627h0.675v0.542h-0.675zM6.411 0.543h0.337v0.543h-0.337zM0.337 2.17h0.675v0.542h-0.675zM2.699 2.17h0.675v0.542h-0.675zM6.074 2.17h0.675v0.542h-0.675zM0.674 3.797h0.675v0.543h-0.675zM1.012 4.339h0.675v0.542h-0.675zM2.362 3.797h0.675v0.543h-0.675zM2.025 4.339h0.675v0.542h-0.675zM1.35 4.882h1.012v0.542h-1.012z"></path>
<path fill="#b20000" d="M1.687 5.424h0.337v0.542h-0.337zM4.049 3.797h0.675v0.542h-0.675zM4.387 4.339h0.675v0.542h-0.675zM5.736 3.797h0.675v0.543h-0.675zM5.399 4.339h0.675v0.542h-0.675zM4.724 4.882h1.012v0.542h-1.012z"></path>
<path fill="#b20000" d="M5.062 5.424h0.337v0.542h-0.337zM3.374 4.882h0.338v0.542h-0.338zM0 4.882h0.337v0.542h-0.337zM6.748 4.882h0.337v0.542h-0.337zM1.687 7.594h0.337v0.542h-0.337z"></path>
<path fill="#b20000" d="M1.35 8.136h1.012v0.542h-1.012zM1.012 8.678h1.687v0.542h-1.687zM5.062 7.594h0.337v0.542h-0.337z"></path>
<path fill="#b20000" d="M4.724 8.136h1.012v0.542h-1.012zM4.387 8.678h1.687v0.542h-1.687zM4.724 11.39h1.687v0.542h-1.687zM4.049 9.221h2.362v0.543h-2.362zM0.674 9.221h2.362v0.543h-2.362zM1.012 11.932h1.012v0.542h-1.012zM0.674 11.39h1.687v0.542h-1.687zM5.399 10.305h1.687v0.542h-1.687zM5.062 11.932h1.012v0.542h-1.012z"></path>
<path fill="#b20000" d="M1.35 12.475h0.337v0.543h-0.337zM5.399 12.475h0.337v0.543h-0.337zM0 10.305h1.687v0.542h-1.687zM3.037 11.39h1.012v0.542h-1.012zM3.374 11.932h0.338v0.542h-0.338zM2.362 10.305h2.362v0.542h-2.362zM3.711 2.17h0.675v0.542h-0.675z"></path>
<path fill="#b20000" d="M3.037 2.712h1.012v0.542h-1.012z"></path>
<path fill="#b20000" d="M2.699 3.255h0.675v0.542h-0.675zM3.711 3.255h0.675v0.542h-0.675zM0 2.712h0.675v0.542h-0.675z"></path>
<path fill="#b20000" d="M0.337 3.255h0.675v0.542h-0.675zM6.411 2.712h0.675v0.542h-0.675zM6.074 3.255h0.675v0.542h-0.675zM0 8.136h0.337v0.542h-0.337zM6.748 8.136h0.337v0.542h-0.337zM3.037 12.475h1.012v0.543h-1.012z"></path>
<path fill="#b20000" d="M2.699 13.017h0.675v0.542h-0.675zM3.711 13.017h0.675v0.542h-0.675zM2.362 13.56h0.675v0.542h-0.675zM4.049 13.56h0.675v0.542h-0.675z"></path>
<path fill="#b20000" d="M2.025 14.102h0.675v0.543h-0.675zM4.387 14.102h0.675v0.543h-0.675zM1.687 14.644h0.675v0.542h-0.675zM4.724 14.644h0.675v0.542h-0.675z"></path>
<path fill="#b20000" d="M1.012 15.187h1.012v0.542h-1.012zM5.062 15.187h1.012v0.542h-1.012z"></path>
<path fill="#b20000" d="M5.736 14.644h0.675v0.542h-0.675zM6.074 14.102h0.675v0.543h-0.675z"></path>
<path fill="#b20000" d="M6.411 13.56h0.675v0.542h-0.675zM0.674 14.644h0.675v0.542h-0.675zM0.337 14.102h0.675v0.543h-0.675z"></path>
<path fill="#b20000" d="M0 13.56h0.675v0.542h-0.675zM1.35 15.729h0.337v0.542h-0.337zM5.399 15.729h0.337v0.542h-0.337zM3.374 14.102h0.338v0.543h-0.338zM2.362 15.729h0.337v0.542h-0.337zM4.387 15.729h0.337v0.542h-0.337zM3.374 15.729h0.338v0.542h-0.338zM0 15.729h0.337v0.542h-0.337zM6.748 15.729h0.337v0.542h-0.337zM3.374 8.136h0.338v0.542h-0.338zM1.687 2.712h0.337v0.542h-0.337zM5.062 2.712h0.337v0.542h-0.337zM3.037 6.509h1.012v0.542h-1.012z"></path>
<path fill="#b20000" d="M2.362 7.051h1.012v0.542h-1.012z"></path>
<path fill="#b20000" d="M2.699 7.594h0.337v0.542h-0.337zM2.025 6.509h0.675v0.542h-0.675z"></path>
<path fill="#b20000" d="M2.362 5.966h1.012v0.542h-1.012z"></path>
<path fill="#b20000" d="M2.699 5.424h0.337v0.542h-0.337zM3.711 5.966h1.012v0.542h-1.012z"></path>
<path fill="#b20000" d="M4.049 5.424h0.337v0.542h-0.337zM4.387 6.509h0.675v0.542h-0.675z"></path>
<path fill="#b20000" d="M3.711 7.051h1.012v0.542h-1.012z"></path>
<path fill="#b20000" d="M4.049 7.594h0.337v0.542h-0.337zM5.399 6.509h0.675v0.542h-0.675z"></path>
<path fill="#b20000" d="M5.736 5.966h1.012v0.542h-1.012z"></path>
<path fill="#b20000" d="M6.411 6.509h0.675v0.542h-0.675z"></path>
<path fill="#b20000" d="M5.736 7.051h1.012v0.542h-1.012z"></path>
<path fill="#b20000" d="M6.074 7.594h0.338v0.542h-0.338zM6.074 5.424h0.338v0.542h-0.338zM0 6.509h0.675v0.542h-0.675z"></path>
<path fill="#b20000" d="M0.337 5.966h1.012v0.542h-1.012z"></path>
<path fill="#b20000" d="M1.012 6.509h0.675v0.542h-0.675z"></path>
<path fill="#b20000" d="M0.337 7.051h1.012v0.542h-1.012z"></path>
<path fill="#b20000" d="M0.674 7.594h0.337v0.542h-0.337zM0.674 5.424h0.337v0.542h-0.337zM0.337 9.763h1.35v0.542h-1.35zM2.025 9.763h1.35v0.542h-1.35zM3.711 9.763h1.35v0.542h-1.35zM5.399 9.763h1.35v0.542h-1.35zM2.699 10.848h1.687v0.543h-1.687zM0.337 10.848h1.687v0.543h-1.687zM5.062 10.848h1.687v0.543h-1.687zM6.748 13.017h0.337v0.542h-0.337zM0 13.017h0.337v0.542h-0.337zM0.337 31.458h0.337v-0.542h-0.337zM1.35 31.458h1.012v-0.542h-1.012z"></path>
<path fill="#b20000" d="M1.687 32h0.337v-0.542h-0.337zM3.374 32h0.338v-0.542h-0.338zM4.724 31.458h1.012v-0.542h-1.012z"></path>
<path fill="#b20000" d="M5.062 32h0.337v-0.542h-0.337zM1.012 30.915h0.675v-0.542h-0.675zM2.025 30.915h0.675v-0.542h-0.675zM4.387 30.915h0.675v-0.542h-0.675zM5.399 30.915h0.675v-0.542h-0.675zM2.362 30.373h0.675v-0.542h-0.675zM4.049 30.373h0.675v-0.542h-0.675zM5.736 30.373h0.675v-0.542h-0.675zM6.411 31.458h0.337v-0.542h-0.337zM0.337 29.831h0.675v-0.542h-0.675z"></path>
<path fill="#b20000" d="M2.699 29.831h0.675v-0.542h-0.675zM6.074 29.831h0.675v-0.542h-0.675zM0.674 28.204h0.675v-0.543h-0.675zM1.012 27.661h0.675v-0.542h-0.675zM2.362 28.204h0.675v-0.543h-0.675zM2.025 27.661h0.675v-0.542h-0.675zM1.35 27.118h1.012v-0.542h-1.012z"></path>
<path fill="#b20000" d="M1.687 26.577h0.337v-0.542h-0.337zM4.049 28.204h0.675v-0.543h-0.675zM4.387 27.661h0.675v-0.542h-0.675zM5.736 28.204h0.675v-0.543h-0.675zM5.399 27.661h0.675v-0.542h-0.675zM4.724 27.118h1.012v-0.542h-1.012z"></path>
<path fill="#b20000" d="M5.062 26.577h0.337v-0.542h-0.337zM3.374 27.118h0.338v-0.542h-0.338zM0 27.118h0.337v-0.542h-0.337zM6.748 27.118h0.337v-0.542h-0.337zM1.687 24.407h0.337v-0.543h-0.337z"></path>
<path fill="#b20000" d="M1.35 23.865h1.012v-0.543h-1.012zM1.012 23.322h1.687v-0.543h-1.687zM5.062 24.407h0.337v-0.543h-0.337z"></path>
<path fill="#b20000" d="M4.724 23.865h1.012v-0.543h-1.012zM4.387 23.322h1.687v-0.543h-1.687zM4.724 20.611h1.687v-0.543h-1.687zM4.049 22.78h2.362v-0.542h-2.362zM0.674 22.78h2.362v-0.542h-2.362zM1.012 20.068h1.012v-0.543h-1.012zM0.674 20.611h1.687v-0.543h-1.687zM5.399 21.695h1.687v-0.543h-1.687zM5.062 20.068h1.012v-0.543h-1.012zM0 21.695h1.687v-0.543h-1.687zM3.037 20.611h1.012v-0.543h-1.012zM3.374 20.068h0.338v-0.543h-0.338zM2.362 21.695h2.362v-0.543h-2.362zM3.711 29.831h0.675v-0.542h-0.675zM3.037 29.288h1.012v-0.542h-1.012zM2.699 28.746h0.675v-0.543h-0.675zM3.711 28.746h0.675v-0.543h-0.675zM0 29.288h0.675v-0.542h-0.675zM0.337 28.746h0.675v-0.543h-0.675zM6.411 29.288h0.675v-0.542h-0.675zM6.074 28.746h0.675v-0.543h-0.675zM0 23.865h0.337v-0.543h-0.337zM6.748 23.865h0.337v-0.543h-0.337zM2.699 18.984h0.675v-0.543h-0.675zM3.711 18.984h0.675v-0.543h-0.675zM2.362 18.441h0.675v-0.543h-0.675zM4.049 18.441h0.675v-0.543h-0.675zM2.025 17.898h0.675v-0.543h-0.675zM4.387 17.898h0.675v-0.543h-0.675z"></path>
<path fill="#b20000" d="M1.687 17.357h0.675v-0.543h-0.675zM4.724 17.357h0.675v-0.543h-0.675zM1.012 16.814h1.012v-0.543h-1.012zM5.062 16.814h1.012v-0.543h-1.012zM5.736 17.357h0.675v-0.543h-0.675z"></path>
<path fill="#b20000" d="M6.074 17.898h0.675v-0.543h-0.675zM6.411 18.441h0.675v-0.543h-0.675zM0.674 17.357h0.675v-0.543h-0.675z"></path>
<path fill="#b20000" d="M0.337 17.898h0.675v-0.543h-0.675zM0 18.441h0.675v-0.543h-0.675zM1.35 16.271h0.337v-0.542h-0.337zM3.374 17.898h0.338v-0.543h-0.338zM3.374 23.865h0.338v-0.543h-0.338zM1.687 29.288h0.337v-0.542h-0.337zM5.062 29.288h0.337v-0.542h-0.337zM3.037 25.492h1.012v-0.542h-1.012zM2.362 24.949h1.012v-0.542h-1.012zM2.699 24.407h0.337v-0.543h-0.337zM2.025 25.492h0.675v-0.542h-0.675z"></path>
<path fill="#b20000" d="M2.362 26.034h1.012v-0.542h-1.012zM2.699 26.577h0.337v-0.542h-0.337zM3.711 26.034h1.012v-0.542h-1.012zM4.049 26.577h0.337v-0.542h-0.337z"></path>
<path fill="#b20000" d="M4.387 25.492h0.675v-0.542h-0.675zM3.711 24.949h1.012v-0.542h-1.012zM4.049 24.407h0.337v-0.543h-0.337zM5.399 25.492h0.675v-0.542h-0.675z"></path>
<path fill="#b20000" d="M5.736 26.034h1.012v-0.542h-1.012z"></path>
<path fill="#b20000" d="M6.411 25.492h0.675v-0.542h-0.675zM5.736 24.949h1.012v-0.542h-1.012zM6.074 24.407h0.338v-0.543h-0.338zM6.074 26.577h0.338v-0.542h-0.338zM0 25.492h0.675v-0.542h-0.675z"></path>
<path fill="#b20000" d="M0.337 26.034h1.012v-0.542h-1.012z"></path>
<path fill="#b20000" d="M1.012 25.492h0.675v-0.542h-0.675zM0.337 24.949h1.012v-0.542h-1.012zM0.674 24.407h0.337v-0.543h-0.337zM0.674 26.577h0.337v-0.542h-0.337zM0.337 22.238h1.35v-0.543h-1.35zM2.025 22.238h1.35v-0.543h-1.35zM3.711 22.238h1.35v-0.543h-1.35zM5.399 22.238h1.35v-0.543h-1.35zM2.699 21.153h1.687v-0.543h-1.687zM0.337 21.153h1.687v-0.543h-1.687zM5.062 21.153h1.687v-0.543h-1.687zM6.748 18.984h0.337v-0.543h-0.337zM0 18.984h0.337v-0.543h-0.337zM3.037 16.271h0.337v0.543h-0.337zM3.711 16.271h0.337v0.543h-0.337zM3.711 15.187h0.337v0.542h-0.337zM3.037 15.187h0.337v0.542h-0.337zM0.674 29.831h0.675v0.543h-0.675zM5.399 19.526h0.337v-0.543h-0.337zM1.35 19.526h0.337v-0.543h-0.337zM3.037 18.983h1.012v0.542h-1.012z"></path>
</svg>
