<!-- Generated by IcoMoon.io -->
<svg version="1.1" xmlns="http://www.w3.org/2000/svg" width="43" height="32" viewBox="0 0 43 32">
<title>BZD</title>
<path fill="#ce1126" d="M0 0h42.667v32h-42.667z"></path>
<path fill="#003f87" d="M0 2.286h42.667v27.428h-42.667z"></path>
<path fill="#fff" d="M33.905 16c0 6.943-5.628 12.571-12.571 12.571s-12.571-5.628-12.571-12.571c0-6.943 5.628-12.571 12.571-12.571s12.571 5.628 12.571 12.571z"></path>
<path fill="#007f00" d="M20.129 4.879c0.942-1.011 1.795 0.157 1.772 0.704s-0.973 1.755-1.833 0.783c0.891 0.228 1.157-0.768 1.608-0.778-0.451 0.010-0.635-0.977-1.546-0.709zM10.32 12.808c-0.495-1.287 0.937-1.527 1.421-1.264s1.153 1.644-0.105 1.978c0.601-0.692-0.181-1.37 0.010-1.775-0.191 0.405-1.163 0.132-1.326 1.061zM31.463 11.535c1.291 0.506 0.502 1.717-0.020 1.894s-2-0.265-1.399-1.413c0.108 0.907 1.141 0.793 1.313 1.206-0.173-0.413 0.687-0.941 0.106-1.687zM14.586 25.161c-1.381-0.137-0.955-1.516-0.501-1.828s1.998-0.286 1.734 0.98c-0.353-0.843-1.315-0.454-1.595-0.805 0.279 0.351-0.403 1.091 0.361 1.652zM28.542 24.163c0.020 1.377-1.409 1.114-1.773 0.702s-0.514-1.937 0.784-1.822c-0.804 0.444-0.305 1.348-0.624 1.664 0.32-0.315 1.138 0.273 1.613-0.544zM11.326 10.191c-0.126-1.372 1.319-1.218 1.713-0.835s0.662 1.892-0.641 1.876c0.767-0.504 0.2-1.368 0.494-1.706-0.294 0.339-1.156-0.186-1.566 0.665zM12.806 23.059c-1.368-0.23-0.85-1.576-0.376-1.857s2.012-0.152 1.664 1.094c-0.295-0.865-1.281-0.541-1.536-0.91 0.255 0.369-0.476 1.062 0.248 1.673zM23.619 4.936c1.243-0.613 1.621 0.779 1.404 1.283s-1.538 1.297-1.994 0.086c0.751 0.527 1.357-0.31 1.782-0.16-0.425-0.15-0.244-1.137-1.192-1.208zM26.264 25.887c-0.616 1.234-1.766 0.353-1.9-0.179s0.434-1.956 1.536-1.265c-0.92 0.031-0.892 1.062-1.321 1.197 0.429-0.136 0.887 0.759 1.685 0.246zM32.298 13.976c1.044 0.907-0.109 1.784-0.661 1.777s-1.794-0.918-0.839-1.797c-0.205 0.89 0.805 1.127 0.828 1.574-0.022-0.447 0.966-0.656 0.672-1.553zM14.767 6.723c0.312-1.342 1.636-0.749 1.89-0.263s0.034 2.002-1.199 1.584c0.887-0.241 0.62-1.237 1.006-1.468-0.386 0.231-1.040-0.535-1.697 0.147zM10.663 18.223c-1.216-0.664-0.279-1.766 0.261-1.876s1.951 0.514 1.208 1.577c0.008-0.913-1.030-0.929-1.149-1.361 0.118 0.432-0.802 0.847-0.32 1.66zM28.233 7.583c1.374-0.197 1.295 1.242 0.931 1.654s-1.869 0.756-1.921-0.536c0.548 0.734 1.387 0.126 1.743 0.399-0.357-0.274 0.126-1.156-0.753-1.517zM20.42 27.208c-1.267 0.562-1.588-0.844-1.35-1.339s1.59-1.233 1.996-0.004c-0.729-0.558-1.369 0.254-1.787 0.088 0.418 0.167 0.197 1.146 1.141 1.255zM31.789 19.525c0.572 1.255-0.844 1.58-1.343 1.346s-1.25-1.572-0.014-1.981c-0.558 0.726 0.263 1.357 0.097 1.773 0.166-0.416 1.154-0.201 1.26-1.138zM10.112 15.484c-0.796-1.128 0.535-1.707 1.069-1.569s1.522 1.316 0.383 1.944c0.413-0.816-0.511-1.285-0.425-1.724-0.086 0.439-1.096 0.409-1.026 1.35zM17.598 26.373c-1.302 0.476-1.527-0.949-1.256-1.426s1.67-1.124 1.992 0.13c-0.689-0.605-1.383 0.162-1.789-0.032 0.406 0.194 0.118 1.156 1.053 1.329zM17.222 5.436c0.772-1.145 1.797-0.123 1.861 0.421s-0.685 1.884-1.688 1.058c0.916 0.087 1.022-0.938 1.466-1.018-0.444 0.080-0.781-0.866-1.639-0.461zM30.567 22.248c0.083 1.375-1.356 1.177-1.738 0.782s-0.603-1.912 0.699-1.855c-0.783 0.48-0.242 1.361-0.547 1.69 0.305-0.33 1.15 0.221 1.586-0.617zM30.213 9.285c1.36 0.273 0.799 1.602 0.316 1.868s-2.016 0.088-1.628-1.146c0.267 0.874 1.263 0.581 1.506 0.958-0.243-0.377 0.51-1.046-0.195-1.68zM12.984 8.316c0.013-1.377 1.435-1.081 1.789-0.66s0.468 1.948-0.827 1.803c0.814-0.425 0.337-1.341 0.664-1.649-0.327 0.308-1.131-0.3-1.625 0.506zM11.264 20.73c-1.238-0.622-0.34-1.756 0.197-1.884s1.967 0.448 1.261 1.535c-0.023-0.913-1.062-0.894-1.195-1.321 0.133 0.427-0.772 0.874-0.263 1.67zM26.133 6.068c1.298-0.486 1.534 0.936 1.268 1.416s-1.661 1.138-1.993-0.113c0.694 0.599 1.381-0.174 1.789 0.017-0.408-0.191-0.128-1.155-1.064-1.32zM23.377 27.053c-1.010 0.947-1.779-0.275-1.719-0.82s1.091-1.687 1.883-0.66c-0.873-0.286-1.207 0.69-1.658 0.67 0.45 0.020 0.566 1.016 1.494 0.81zM32.225 16.52c0.947 1.007-0.289 1.765-0.837 1.702s-1.692-1.091-0.653-1.872c-0.294 0.865 0.687 1.202 0.664 1.648 0.023-0.447 1.028-0.557 0.825-1.479z"></path>
<path fill="#005800" d="M20.068 6.367c0.891 0.228 1.114-0.756 1.565-0.766-0.263 0.314-0.949 1.115-1.565 0.766zM20.129 4.879c0.942-1.011 1.795 0.157 1.772 0.704-0.765-1.333-1.004-1.128-1.772-0.704zM11.636 13.521c0.601-0.692-0.189-1.327 0.002-1.732 0.167 0.373 0.586 1.339-0.002 1.732zM10.32 12.808c-0.495-1.287 0.937-1.527 1.421-1.264-1.543 0.090-1.464 0.394-1.421 1.264zM30.044 12.017c0.108 0.907 1.114 0.757 1.286 1.171-0.39-0.13-1.391-0.475-1.286-1.171zM31.463 11.535c1.291 0.506 0.502 1.717-0.020 1.894 0.975-1.19 0.696-1.337 0.020-1.894zM15.82 24.314c-0.353-0.843-1.279-0.427-1.559-0.778 0.411 0.019 1.469 0.080 1.559 0.778zM14.586 25.161c-1.381-0.137-0.955-1.516-0.501-1.828-0.611 1.409-0.302 1.475 0.501 1.828zM27.553 23.044c-0.804 0.444-0.282 1.31-0.601 1.626-0.028-0.408-0.087-1.457 0.601-1.626zM28.542 24.163c0.020 1.377-1.409 1.114-1.773 0.702 1.481 0.442 1.511 0.13 1.773-0.702zM12.398 11.232c0.767-0.504 0.18-1.328 0.474-1.667 0.059 0.404 0.199 1.446-0.474 1.667zM11.326 10.191c-0.126-1.372 1.319-1.218 1.713-0.835-1.51-0.328-1.516-0.014-1.713 0.835zM14.094 22.296c-0.295-0.865-1.248-0.512-1.502-0.881 0.409 0.047 1.46 0.179 1.502 0.881zM12.806 23.059c-1.368-0.23-0.85-1.576-0.376-1.857-0.706 1.365-0.401 1.451 0.376 1.857zM23.030 6.305c0.751 0.527 1.312-0.314 1.737-0.164-0.358 0.201-1.287 0.708-1.737 0.164zM23.619 4.936c1.243-0.613 1.621 0.779 1.404 1.283-0.238-1.516-0.535-1.408-1.404-1.283zM25.9 24.444c-0.92 0.031-0.854 1.038-1.283 1.174 0.163-0.375 0.593-1.336 1.283-1.174zM26.264 25.887c-0.616 1.234-1.766 0.353-1.9-0.179 1.114 1.064 1.285 0.8 1.9 0.179zM30.799 13.956c-0.205 0.89 0.792 1.085 0.814 1.532-0.324-0.252-1.149-0.912-0.814-1.532zM32.298 13.976c1.044 0.907-0.109 1.784-0.661 1.777 1.322-0.795 1.108-1.027 0.661-1.777zM15.458 8.044c0.887-0.241 0.589-1.206 0.975-1.436-0.071 0.402-0.266 1.436-0.975 1.436zM14.767 6.723c0.312-1.342 1.636-0.749 1.89-0.263-1.332-0.78-1.436-0.483-1.89 0.263zM12.131 17.923c0.008-0.913-1.008-0.891-1.126-1.322 0.371 0.177 1.319 0.645 1.126 1.322zM10.663 18.223c-1.216-0.664-0.279-1.766 0.261-1.876-1.119 1.059-0.86 1.239-0.261 1.876zM27.242 8.7c0.548 0.734 1.346 0.108 1.702 0.382-0.404 0.080-1.445 0.274-1.702-0.382zM28.233 7.583c1.374-0.197 1.295 1.242 0.931 1.654 0.251-1.514-0.066-1.504-0.931-1.654zM21.066 25.865c-0.729-0.557-1.324 0.26-1.742 0.093 0.366-0.186 1.315-0.654 1.742-0.093zM20.42 27.208c-1.267 0.562-1.588-0.844-1.35-1.339 0.175 1.524 0.477 1.429 1.35 1.339zM30.432 18.891c-0.558 0.726 0.269 1.313 0.103 1.729-0.189-0.363-0.666-1.302-0.103-1.729zM31.789 19.525c0.572 1.255-0.844 1.58-1.343 1.346 1.535-0.181 1.437-0.48 1.343-1.346zM11.563 15.859c0.413-0.816-0.508-1.241-0.423-1.68 0.254 0.322 0.897 1.157 0.423 1.68zM10.112 15.484c-0.796-1.128 0.535-1.707 1.069-1.569-1.475 0.46-1.323 0.735-1.069 1.569zM18.333 25.076c-0.689-0.605-1.339 0.171-1.745-0.023 0.378-0.161 1.356-0.565 1.745 0.023zM17.598 26.373c-1.302 0.476-1.527-0.949-1.256-1.426 0.071 1.533 0.378 1.457 1.256 1.426zM17.395 6.915c0.916 0.087 0.982-0.92 1.425-0.999-0.21 0.351-0.762 1.249-1.425 0.999zM17.222 5.436c0.772-1.145 1.797-0.123 1.861 0.421-0.966-1.198-1.17-0.958-1.861-0.421zM29.527 21.174c-0.783 0.48-0.221 1.322-0.526 1.651-0.046-0.406-0.154-1.452 0.526-1.651zM30.567 22.248c0.083 1.375-1.356 1.177-1.738 0.782 1.499 0.375 1.515 0.061 1.738-0.782zM28.901 10.006c0.267 0.874 1.231 0.551 1.473 0.928-0.407-0.059-1.453-0.224-1.473-0.928zM30.213 9.285c1.36 0.273 0.799 1.602 0.316 1.868 0.749-1.342 0.448-1.438-0.316-1.868zM13.946 9.458c0.814-0.425 0.313-1.303 0.64-1.611 0.018 0.408 0.052 1.459-0.64 1.611zM12.984 8.316c0.013-1.377 1.435-1.081 1.789-0.66-1.469-0.477-1.507-0.165-1.789 0.66zM12.721 20.381c-0.023-0.913-1.038-0.856-1.171-1.284 0.377 0.165 1.341 0.6 1.171 1.284zM11.264 20.73c-1.238-0.622-0.34-1.756 0.197-1.884-1.082 1.096-0.817 1.268-0.197 1.884zM25.408 7.37c0.694 0.599 1.337-0.182 1.745 0.009-0.377 0.164-1.352 0.576-1.745-0.009zM26.133 6.068c1.298-0.486 1.534 0.936 1.268 1.416-0.084-1.532-0.391-1.454-1.268-1.416zM23.541 25.574c-0.873-0.286-1.164 0.681-1.614 0.661 0.284-0.296 1.024-1.050 1.614-0.661zM23.377 27.053c-1.010 0.947-1.779-0.275-1.719-0.82 0.672 1.381 0.925 1.191 1.719 0.82zM30.735 16.351c-0.294 0.865 0.679 1.158 0.655 1.605-0.296-0.283-1.051-1.021-0.655-1.605zM32.225 16.52c0.947 1.007-0.289 1.765-0.837 1.702 1.396-0.66 1.207-0.912 0.837-1.702z"></path>
<path fill="#730000" d="M23.27 8.022s0.039-0.091 0.111-0.039c0.065 0.052 0.085 0.28 0.085 0.28l-0.104 0.052s0.059-0.084-0.091-0.293zM22.678 10.067s0.052-0.072-0.020-0.228l0.104-0.033s0.039 0.124-0.013 0.261l-0.072-0M24.481 9.708l-0.247 0.15 0.124 0.059 0.299-0.176-0.176-0.033M21.167 10.678c-0.065 0.052-0.072 0.143-0.111 0.195-0.032 0.052-0.13 0.124-0.137 0.202-0.013 0.078-0.019 0.13 0.013 0.234 0.039 0.104 0.202 0.566 0.137 0.918-0.072 0.352-0.045 0.501-0.019 0.554s0.104 0.195 0.15 0.195c0.104-0.013 0.059-0.046 0.098-0.111 0.098-0.169 0-1.478-0.046-1.843-0.032-0.28-0.163-0.534-0.176-0.56-0.013-0.033-0.039-0.117-0.059-0.169-0.098-0.235-0.215-0.436-0.215-0.925 0 0-0.319 0.072-0.592-0.547-0.143-0.313-0.352-0.28-0.599-0.384l0.111-0.072s0.208 0.104 0.313 0.104c0.104 0 0.072-0.208 0.072-0.208l0.104-0.104v0.456c0 0.208 0.286 0.495 0.456 0.58 0.104 0.052 0.241-0.163 0.208-0.371s0-0.488 0-0.488l0.143 0.085s-0.052 0.091-0.039 0.143c0.019 0.052 0.091-0.052 0.143-0.104 0 0 0.013 0.013 0.065 0.013 0 0-0.104 0.176-0.156 0.267-0.052 0.085-0.052 0.417-0.052 0.541s0.046 0.41 0.046 0.501c0 0.065 0.124 0.332 0.221 0.495 0.032 0.065 0.111 0.234 0.111 0.234 0.078 0.124 0.085 0.208 0.13 0.313 0.026 0.052 0.072 0.202 0.104 0.462 0.013 0.065 0.026 0.313 0.046 0.475 0.019 0.156 0.15 0.033 0.306-0.078 0.156-0.117 0.156-0.397 0.156-0.397s0.124-0.104 0.104-0.046c-0.013 0.065 0.065 0.13 0.065 0.13-0.098 0.221-0.039 0.195 0.059 0.189 0.098-0.013 0.436-0.267 0.436-0.267 0.046-0.013 0.248-0.013 0.215 0-0.039 0.020-0.091 0.117-0.091 0.117l0.221-0.026c-0.078 0.059-0.371 0.228-0.436 0.267-0.072 0.046-0.423 0.215-0.573 0.274-0.15 0.065-0.443 0.208-0.456 0.358-0.007 0.15 0.019 0.554 0 0.684-0.013 0.13-0.065 0.71-0.065 0.71h-0.697s0.137-0.508-0.007-0.645c-0.137-0.143-0.456-0.56-0.664-0.704-0.208-0.137 0.137-0.032 0.137-0.032v-0.143l0.319 0.384s0.553-0.488 0-1.153c-0.176-0.208-0.352-0.527-0.488-0.56-0.143-0.039-0.215-0.072-0.456 0-0.247 0.072-0.84 0.072-1.087-0.319l0.208-0.033 0.176-0.072s-0.072 0.247 0.423 0.247c0.488 0 0.56 0 0.521-0.456l0.143-0.072 0.104 0.104s-0.072 0.247-0.033 0.352c0.033 0.104 0.208 0.176 0.345 0.28 0.059 0.046 0.104 0.052 0.143 0.052 0.059-0.007 0.072-0.007 0.15-0.085 0.117-0.13 0.091-0.124 0.208-0.228 0 0 0.059-0.091 0.072-0.104l0.072 0.189h-0z"></path>
<path fill="#730000" d="M21.271 10.333c0.026-0.026 0.078-0.124 0.124-0.208 0.078-0.13 0.169-0.208 0.273-0.371 0.098-0.15 0.137-0.371 0.098-0.527l0.091 0.052 0.007 0.247s0.124-0.104 0.176-0.13l0.052 0.026s-0.391 0.404-0.755 1.055l-0.065-0.143 0-0zM17.847 8.979c0.052 0.091 0.104 0.267 0.26 0.404l0.104-0.033s-0.241-0.28-0.241-0.404l-0.124 0.033M18.458 8.822s0.032 0.332-0.052 0.456l0.104-0.052s0.072-0.228 0.052-0.352l-0.104-0.052v-0zM21.89 7.774s-0.020 0.469 0.072 0.755l0.124-0.039s-0.019-0.085 0.085-0.124c0.104-0.032 0.352-0.137 0.475-0.241l-0.039-0.104s-0.189 0.15-0.28 0.189c-0.085 0.033-0.137 0.072-0.208 0.052s-0.156-0.137-0.104-0.404l-0.124-0.085M23.27 9.962s-0.032 0.332-0.013 0.475l0.111 0.026s-0.026-0.397 0.046-0.43l-0.143-0.072M23.765 10.21s-0.124 0.215-0.267 0.234l0.228-0.046s0.065-0.033 0.163-0.137l-0.124-0.052"></path>
<path fill="#289400" d="M21.773 9.226l0.085 0.052 0.091 0.013s0.098 0.091 0.208 0.176c0.085 0.072 0.085-0.013 0.085-0.013l0.052 0.208h0.072s-0.020 0.137-0.020 0.208l0.124-0.104 0.143 0.124s0.104-0.091 0.156-0.091c0.052 0 0.072-0.052 0.072-0.052h0.007c-0.345-0.163-0.495-0.332-0.391-0.508 0.169-0.293 0.449-0.104 0.54-0.065l1.263 0.677s0.085-0.052 0.026-0.104c-0.065-0.052-0.091-0.182-0.072-0.234s0.163 0.163 0.234 0.182c0.072 0.020 0.234 0.046 0.234 0.046l-0.006-0.065s0.208 0.143 0.208 0.215c0 0 0.15-0.078 0.098-0.124s0.228 0.111 0.247 0.196l0.059-0.065c-0.007 0 0.020-0.208 0.091-0.306 0.065-0.098 0.137-0.124 0.137-0.124s0.065-0.111 0.13-0.111c0 0-0.065-0.045-0.091-0.098-0.032-0.052-0.111-0.078-0.111-0.078s0.098-0.072 0.124-0.104c0.026-0.039 0.052-0.046 0.052-0.046s-0.15-0.124-0.254-0.143c0 0-0.007-0.169-0.137-0.182h0.059s-0.098-0.182-0.189-0.189c0 0 0.059-0.065 0.111-0.072 0 0-0.111-0.143-0.26-0.091l0.098-0.039s-0.072-0.078-0.293-0.039c0 0 0.019-0.091-0.078-0.163 0 0-0.085 0.006-0.085 0.072 0 0-0.078-0.072-0.176-0.072s0.033 0.104 0.033 0.104-0.13-0.085-0.208-0.059c0 0 0.033-0.15-0.052-0.228 0 0-0.097 0.052-0.124 0.117l-0.026-0.065s-0.13 0.156-0.156 0.111c-0.020-0.026-0.039-0.137-0.039-0.137l-0.078 0.117 0.013-0.163s-0.091 0.052-0.163 0.221c0 0-0.091 0.085-0.091 0.163 0 0-0.072-0.085-0.137 0-0.059 0.091 0 0.072 0 0.072s-0.026 0.032-0.091 0.045l0.013 0.052s-0.085-0.045-0.15-0.026l0.032 0.078s-0.169 0.013-0.176-0.124c0 0-0.143-0.072-0.163 0.006l-0.104 0.065s-0.033-0.065-0.091-0.078c-0.065-0.020-0.013 0.084-0.013 0.084s-0.019-0.078-0.098-0.117c-0.078-0.032-0.013 0.072-0.013 0.072s-0.104-0.085-0.052-0.15c0 0-0.098 0.091-0.052 0.176l-0.065 0.045s-0.033-0.032-0.026-0.059c0.007-0.026-0.111 0.078-0.111 0.078s-0.072-0.169 0-0.169c0.007 0-0.124-0.007-0.143 0.143 0 0-0.085 0.006-0.163 0.032-0.085 0.026 0.059 0.085 0.059 0.085s-0.124-0.026-0.195 0.013l0.046 0.059s-0.046-0.046-0.156-0.007c-0.117 0.032 0.026 0.052 0.026 0.052s-0.117-0.026-0.176 0c-0.059 0.026 0.020 0.072 0.020 0.072s-0.215-0.065-0.247-0.045c-0.032 0.019 0.072 0.124 0.072 0.124s-0.13 0.033-0.156 0.13l0.117 0.045s-0.052 0.026-0.078 0.078c-0.026 0.052 0.078 0.026 0.078 0.026s-0.143 0.104-0.143 0.182c0 0 0.104 0.033 0.182-0.045s0.026-0.052 0.026-0.052l0.006 0.052s0.15-0.065 0.15-0.104c0-0.033-0.026 0.052-0.026 0.052l0.15-0.078 0.098 0.065v-0h0z"></path>
<path fill="#289400" d="M21.649 7.195l-0.033-0.143 0.332 0.039 0.059-0.137s0.156 0.072 0.208 0.124c0 0 0.306-0.078 0.397-0.045l-0.039 0.143s0.28 0.019 0.371 0.052c0.085 0.033-0.039 0.104-0.039 0.104s0.319 0.039 0.456 0.124c0.143 0.085 0.143 0.156 0.072 0.176l0.176 0.28s-0.28 0.032-0.332 0.104c-0.052 0.072-0.104-0.072-0.104-0.072l-0.052 0.195s-0.176-0.091-0.247-0.156c0 0-0.085 0.104-0.033 0.156l-0.319-0.208s-0.137-0.019-0.137 0.104c0 0-0.156-0.176-0.195-0.228l-0.176 0.052s-0.052-0.072-0.117-0.091c-0.072-0.013-0.020 0.091-0.020 0.091l-0.104-0.124-0.104-0.123s-0.091 0.123-0.163 0.123c-0.065 0-0.065-0.085-0.052-0.143 0.020-0.052-0.208-0.065-0.228 0 0 0-0.065-0.26 0.176-0.332l0.247-0.065zM20.386 8.087l-0.111 0.104-0.065-0.032-0.13 0.143-0.026-0.078-0.072 0.117-0.111-0.039-0.052 0.085-0.098-0.020s-0.085 0.078-0.137 0.098c-0.052 0.013 0-0.117 0-0.117s-0.078 0.13-0.137 0.13c-0.052 0-0.032-0.059-0.032-0.059s-0.032 0.084-0.098 0.098c-0.059 0.007-0.033-0.065-0.033-0.065l-0.104 0.078v-0.065l-0.046-0.019s0.026-0.117 0.072-0.143c0.046-0.026-0.046-0.104-0.046-0.104l0.046-0.052s-0.13-0.033-0.13-0.006c0 0 0.065-0.176 0.156-0.209l0.007-0.195s0.091-0.078 0.176-0.085c0.091-0.013-0.026-0.15-0.026-0.15l0.208-0.123 0.026-0.15 0.319 0.026 0.065-0.137 0.254 0.065 0.215-0.111 0.156 0.182 0.234 0.020s-0.007 0.163-0.007 0.208c0 0 0.28 0.085 0.313 0.111 0 0-0.052 0.169-0.052 0.202 0 0 0.195-0.052 0.254-0.039 0 0 0.020 0.182 0.026 0.228 0 0 0.332 0.104 0.352 0.163 0 0-0.072 0.045-0.111 0.104 0 0 0.039 0.202 0.039 0.267l-0.026 0.039s-0.098-0.091-0.176-0.104l-0.065 0.143-0.117-0.078-0.072 0.007s-0.059-0.072-0.104-0.072l-0.007-0.065-0.091 0.059s-0.143-0.072-0.143-0.117c0-0.039 0.007-0.104 0.007-0.104l-0.15 0.104s-0.032-0.078-0.026-0.111c0.007-0.033-0.059 0.078-0.059 0.078s-0.078-0.137-0.072-0.163l-0.020 0.111s-0.156-0.052-0.176-0.156v-0z"></path>
<path fill="#289400" d="M18.302 8.725s0.274 0.137 0.274 0.202c0 0 0.072-0.143 0.033-0.195l0.104 0.072s0.032-0.13-0.007-0.169c-0.033-0.033 0.234-0.143 0.293 0.033 0 0 0.163-0.169-0.15-0.313 0 0-0.026-0.104 0.163-0.078 0 0-0.013-0.065-0.059-0.091h0.182s-0.111-0.091-0.274-0.117c-0.156-0.026-0.059-0.046-0.065-0.078-0.013-0.033 0-0.15 0-0.15s-0.091-0.032-0.163 0.007l0.026-0.033s-0.169-0.045-0.234-0.006c0 0-0.098-0.039-0.085-0.143 0 0-0.098-0.006-0.143 0.098 0 0-0.091 0.104-0.215 0.104-0.026 0-0.117-0.052-0.117-0.052l-0.078 0.182-0.124-0.007 0.039 0.072s-0.189-0.052-0.247 0c0 0 0.072 0.111 0.052 0.189 0 0-0.15 0.026-0.182 0.052-0.039 0.026 0.052 0.045 0.052 0.045s-0.169 0.052-0.208 0.104l0.065 0.052-0.078 0.104 0.065 0.013s-0.111 0.033-0.169 0.052c-0.059 0.019 0.104 0.033 0.104 0.033l-0.078 0.072 0.124 0.019s-0.098 0.261-0.104 0.384c0 0 0.15-0.182 0.189-0.195l-0.117 0.195s0.221-0.072 0.241-0.104c0.019-0.039 0.039-0.071 0.039-0.071l0.007 0.111s0.085-0.117 0.098-0.163c0.007-0.045 0.137 0.046 0.137 0.046v-0.065s0.117 0.039 0.156 0.046c0.046 0.006 0.052-0.020 0.052-0.020l0.111-0.013-0.020 0.091s0.078-0.052 0.098-0.104c0.013-0.052 0.052 0 0.052 0l0.052-0.208h0.111l0 0.001zM17.41 9.65l0.104 0.215c-0.085 0.006-0.208 0.104-0.208 0.104 0.019 0.358-0.072 0.339-0.072 0.339 0.026 0.065-0.017 0.186-0.017 0.186l0.518-0.31 0.006-0.033 0.612-0.287 0.019 0.032 0.176-0.098 0.124 0.325-0.124 0.072c0.007 0.111 0.137 0.306 0.137 0.306l0.163-0.039 0.176-0.065s0.007 0.098 0.007 0.065c0-0.026 0.189-0.091 0.189-0.091l0.085 0.085c0.065-0.007 0.182-0.163 0.182-0.163l0.137 0.052s0.046-0.078 0.046-0.137c0-0.052 0.169-0.052 0.169-0.052l0.117 0.085 0.15-0.124s0.046 0.091 0.104 0.104c0.065 0.007 0.228 0.13 0.228 0.104s0.072-0.169 0.072-0.169l0.273 0.111c-0.039-0.124-0.13-0.273-0.13-0.273s0.13-0.104 0.104-0.13c-0.026-0.026-0.104 0-0.104 0l0.078-0.156h-0.104l0.032-0.039-0.169-0.072 0.091-0.182c-0.039-0.046-0.488-0.137-0.488-0.137l0.104-0.098s-0.052-0.078-0.104-0.078c-0.052 0-0.326 0.006-0.339-0.019-0.007-0.026-0.117-0.124-0.117-0.124l-0.169 0.124-0.085-0.026-0.15 0.059s0 0.084-0.020 0.026c-0.019-0.052-0.156-0.189-0.156-0.189-0.026 0.045-0.202 0.254-0.202 0.254s-0.026 0.111-0.085 0.033c-0.065-0.078-0.202-0.163-0.221-0.098-0.020 0.072-0.143 0.137-0.169 0.117s-0.169-0.007-0.182 0.032c-0.007 0.045-0.163 0.163-0.163 0.163-0.098-0.045-0.254-0.019-0.254-0.019s-0.046 0.072-0.052 0.13l-0.319 0.084zM20.353 12.287v-0.137l0.156 0.104 0.091-0.104 0.117 0.117 0.072-0.117v0.189l0.176-0.156 0.104 0.045v-0.15s0.124-0.209 0.072-0.247l0.104-0.032s-0.176-0.176-0.228-0.209c-0.052-0.039-0.124-0.039-0.124-0.039s-0.137-0.137-0.228-0.176c-0.085-0.033-0.137 0.039-0.137 0.039s-0.052-0.104-0.143-0.124c-0.084-0.019-0.084 0.072-0.084 0.072s-0.065-0.065-0.15-0.098c-0.085-0.039-0.026 0.078-0.026 0.078l-0.3-0.091 0.039 0.091-0.28-0.071 0.032 0.104-0.195-0.033-0.013 0.085-0.28 0.052 0.052 0.091-0.176-0.072v0.124l-0.195 0.072 0.072 0.065s-0.26 0.124-0.313 0.163c-0.052 0.033 0.104 0.104 0.104 0.104l-0.28-0.039 0.104 0.091-0.247 0.228 0.176 0.124-0.104 0.156 0.26 0.052 0.104 0.176 0.215-0.039v0.195l0.313-0.247s0.228 0.202 0.247 0.143c0.013-0.052 0.013-0.228 0.013-0.228h0.111v-0.176l0.085 0.072 0.143-0.209 0.189 0.261 0.143-0.332 0.209 0.033zM21.63 11.5l-0.033-0.3-0.091 0.091 0.039-0.28-0.143-0.026 0.052-0.273-0.104-0.052 0.026-0.13 0.104-0.078 0.189-0.182 0.436 0.007 0.052-0.143 0.313 0.052c0.052 0.059 0.215-0.117 0.215-0.117h0.065l0.072 0.137s0.228-0.033 0.332 0.039l-0.124 0.169 0.228 0.019 0.156 0.033 0.163-0.052 0.208-0.013 0.052 0.085h0.195l-0.065 0.078 0.254 0.117-0.052 0.052s0.143 0.052 0.247 0.052h0.052s0.052 0.124-0.020 0.176c0 0 0.072 0.176 0.228 0.208s0.156 0.033 0.176 0.072c0.020 0.033 0 0.208-0.176 0.208v0.176s-0.137 0.124-0.156 0.176l-0.104-0.072s-0.091 0.104-0.091 0.176c0 0-0.228-0.3-0.313-0.313-0.091-0.019-0.072 0.169-0.072 0.169l-0.247-0.208-0.033 0.143-0.208-0.176-0.124 0.084-0.221-0.228-0.215 0.026 0.085-0.111h-0.26l-0.052-0.228-0.039 0.189-0.156-0.104-0.202 0.221s-0.026-0.026-0.059-0.13c-0.032-0.104-0.124 0.124-0.124 0.124l-0.072-0.163-0.085 0.163s-0.072-0.124-0.143-0.163c-0.065-0.033-0.137 0.195-0.156 0.3l0 0zM21.669 12.183l0.013-0.104 0.371-0.143 0.313-0.117 0.156-0.072 0.072 0.124 0.091-0.176 0.143 0.182 0.078-0.098 0.124 0.091h0.104l0.020 0.137s0.26 0.019 0.28-0.032c0.020-0.052 0.052 0.176 0.052 0.176l0.247 0.033 0.052 0.28s0.124 0.261 0.085 0.365c-0.033 0.111-0.137-0.137-0.137-0.137s-0.019 0.195-0.039 0.247c-0.013 0.052-0.332-0.052-0.332-0.052l-0.137 0.26s-0.143-0.208-0.208-0.208c-0.072 0-0.072 0.208-0.072 0.208s-0.208-0.247-0.3-0.352c-0.085-0.104-0.104 0.104-0.104 0.104s-0.137-0.228-0.137-0.293c0-0.072-0.124-0.143-0.124-0.143s-0.215 0.247-0.371 0.313c0 0 0.020-0.156-0.032-0.208s-0.208 0.104-0.208 0.104-0.111-0.241 0-0.488l0.001-0z"></path>
<path fill="#9dd7ff" d="M18.875 19.874c-0.149-0.247-0.283-0.533-0.387-0.833l-0.010-0.033 2.819-2.481 2.819 2.475c-0.098 0.286-0.228 0.593-0.41 0.886l-0.023 0.036c-0.052-0.019-0.212-0.082-0.212-0.082s-0.091 0.085-0.163 0.091c-0.098 0.013-0.182-0.084-0.182-0.084s-0.124 0.104-0.247 0.084c-0.124-0.013-0.176-0.091-0.176-0.091s-0.13 0.104-0.221 0.085c-0.085-0.020-0.143-0.078-0.143-0.078s-0.078 0.098-0.189 0.078c-0.104-0.020-0.202-0.078-0.202-0.078s-0.163 0.071-0.267 0.085c-0.104 0.020-0.195-0.091-0.195-0.091s-0.137 0.091-0.189 0.091c-0.052 0-0.247-0.091-0.247-0.091s-0.202 0.065-0.273 0.065c-0.065 0-0.267-0.085-0.267-0.085s-0.189 0.052-0.273 0.052c-0.091 0-0.221-0.052-0.221-0.052s-0.156 0.072-0.241 0.052c-0.091-0.019-0.163-0.052-0.163-0.052s-0.169 0.072-0.28 0.052c-0.104-0.019-0.228-0.091-0.228-0.091s-0.020 0.052-0.221 0.091h-0.007z"></path>
<path fill="#fff" d="M21.297 13.674v2.852l-2.819 2.494c-0.273-0.794-0.293-1.504-0.293-1.81v-3.536h3.112"></path>
<path fill="#ffd83c" d="M21.297 13.674v2.852l2.813 2.494c0.273-0.794 0.293-1.504 0.293-1.81v-3.536h-3.106"></path>
<path fill="#730000" d="M19.479 19.281c0.212 0.115 0.14 0.079 0.579 0.234 0.358 0.124 0.775 0.182 1.38 0.182 0.53 0 0.828-0.042 0.996-0.088 0.174-0.050 0.215-0.12 0.215-0.12l-0.436 0.443s-1.753 0.095-2.071-0.111c-0.124-0.065-0.391-0.28-0.664-0.54v0z"></path>
<path fill="#ff0018" d="M20.67 18.038l-0.365 0.117 0.365 0.039v-0.156M21.354 17.77l-0.384 0.143 0.384 0.013v-0.156M22.051 17.875l-0.384 0.143 0.384 0.019v-0.163zM22.279 18.702c-0.020-0.078 0.228-0.072 0.228-0.072s0.072 0.26 0 0.423l-0.208-0.039s0.020-0.176-0.020-0.313z"></path>
<path fill="#fff" d="M19.655 19.21l0.684-0.664-0.033 0.397s-0.352 0.228-0.352 0.391l-0.3-0.124M20.019 19.347s0.072-0.208 0.267-0.312l-0.020 0.417-0.247-0.104zM21.002 18.194s0.28-0.039 0.488 0c0 0-0.033 0.28 0 0.332 0 0-0.384-0.091-0.54 0.052 0 0-0.052-0.26 0.052-0.384zM20.41 18.266s0.28-0.039 0.488 0c0 0-0.052 0.313-0.020 0.365 0 0-0.313-0.176-0.469-0.033 0 0-0.104-0.215 0-0.332z"></path>
<path fill="#fff" d="M20.39 18.63s0.28-0.032 0.488 0c0 0-0.033 0.28 0 0.332 0 0-0.365-0.085-0.521 0.052 0 0-0.072-0.26 0.033-0.384zM20.95 18.578s0.404-0.052 0.612-0.019c0 0-0.085 0.228 0.020 0.384 0 0-0.436-0.117-0.599 0.019 0 0-0.137-0.26-0.032-0.384zM20.358 19.014l0.54 0.039s-0.052 0.397-0.020 0.449c0 0-0.436-0.104-0.521 0.039 0 0-0.143-0.365 0-0.527h0v0zM20.97 19.014s0.469-0.033 0.684 0c0 0-0.124 0.3 0.013 0.56 0 0-0.612-0.176-0.697-0.033 0 0-0.143-0.365 0-0.527h0zM21.686 18.194s0.28-0.039 0.488 0c0 0-0.032 0.28 0 0.332 0 0-0.384-0.091-0.54 0.052-0 0-0.052-0.26 0.052-0.384zM21.686 18.578s0.28-0.033 0.488 0c0 0-0.032 0.28 0 0.332 0 0-0.384-0.085-0.54 0.052-0 0-0.052-0.261 0.052-0.384zM21.719 18.982s0.28-0.039 0.495 0c0 0-0.072 0.436-0.039 0.488 0 0-0.319-0.15-0.469-0.019 0 0-0.091-0.345 0.013-0.469z"></path>
<path fill="#fff" d="M22.298 19.014s0.091 0.332 0.208 0.371l-0.156 0.189s-0.189-0.137-0.208-0.293c0 0 0.124-0.143 0.156-0.267z"></path>
<path fill="#006ac8" d="M23.694 19.913c-0.449 0.749-1.185 1.452-2.396 1.888-1.231-0.443-1.979-1.178-2.422-1.921l0.007-0.007c0.202-0.039 0.221-0.091 0.221-0.091s0.124 0.072 0.228 0.091c0.111 0.019 0.28-0.052 0.28-0.052s0.072 0.033 0.163 0.052c0.085 0.019 0.241-0.052 0.241-0.052s0.13 0.052 0.221 0.052c0.085 0 0.273-0.052 0.273-0.052s0.202 0.085 0.267 0.085c0.072 0 0.273-0.065 0.273-0.065s0.195 0.091 0.247 0.091c0.052 0 0.189-0.091 0.189-0.091s0.091 0.111 0.195 0.091c0.104-0.013 0.267-0.085 0.267-0.085s0.098 0.059 0.202 0.078c0.111 0.020 0.189-0.078 0.189-0.078s0.059 0.059 0.143 0.078c0.091 0.020 0.221-0.085 0.221-0.085s0.052 0.078 0.176 0.091c0.124 0.020 0.247-0.084 0.247-0.084s0.084 0.098 0.182 0.084c0.072-0.007 0.163-0.091 0.163-0.091s0.163 0.052 0.221 0.072z"></path>
<path fill="#5ac800" d="M19.539 20.348s-0.018 0.043-0.188 0.080c-0.004-0-0.046 0.010-0.046 0.010 0.016-0.003 0.028-0.005 0.042-0.008-0.006 0.002-0.019 0.007-0.048 0.016 0.192 0.277 0.48 0.529 0.779 0.731s0.644 0.443 1.231 0.615c0.617-0.241 0.781-0.332 1.184-0.602 0.403-0.294 0.613-0.478 0.838-0.78-0.176 0.1-0.151 0.101-0.242 0.088-0.091-0.019-0.158-0.086-0.158-0.086s-0.083 0.099-0.194 0.086c-0.111-0.019-0.208-0.086-0.208-0.086s-0.145 0.098-0.288 0.092c-0.111-0.007-0.202-0.104-0.202-0.104s-0.254 0.084-0.306 0.084c-0.059 0-0.24-0.084-0.24-0.084s-0.124 0.078-0.196 0.078c-0.078 0-0.286-0.092-0.286-0.092s-0.195 0.052-0.286 0.052c-0.091 0-0.228-0.052-0.228-0.052s-0.162 0.072-0.26 0.052c-0.091-0.019-0.164-0.052-0.164-0.052s-0.181 0.072-0.292 0.052c-0.111-0.019-0.242-0.090-0.242-0.090z"></path>
<path fill="#ffd800" d="M21.31 21.793c0.637-0.265 0.752-0.337 1.137-0.573-0.067 0.002-0.263-0.061-0.192-0.081 0 0-0.078 0.071-0.156 0.071-0.072 0-0.28-0.091-0.28-0.091s-0.195 0.052-0.286 0.052c-0.091 0-0.228-0.052-0.228-0.052s-0.169 0.071-0.26 0.052c-0.091-0.019-0.163-0.052-0.163-0.052s-0.189 0.071-0.293 0.052c-0.111-0.019-0.241-0.091-0.241-0.091s-0.16 0.085-0.261 0.095c0.308 0.225 0.632 0.446 1.223 0.619z"></path>
<path fill="#b34b00" d="M20.878 16.598c0.127-0.103 0.199-0.202 0.157-0.279-0.048-0.066-0.122 0.041-0.206 0.016 0 0-0.126-0.078-0.161-0.134-0.074-0.082-0.169-0.156-0.223-0.226-0.058-0.065-0.276-0.353-0.608-0.685-0.095-0.062-0.074-0.298-0.142-0.371-0.006-0.051-0.663-0.701-0.897-0.937-0.095-0.070-0.145-0.115-0.311 0.036-0.132 0.119-0.179 0.241-0.006 0.389l0.855 0.777c0.125 0.121 0.299 0.143 0.372 0.206l0.869 0.889c0.109 0.095 0.162 0.162 0.1 0.242-0.069 0.133 0.005 0.151 0.020 0.155 0.010 0.005 0.071 0.005 0.112-0.026l0.069-0.052z"></path>
<path fill="#fff" d="M19.92 14.67c0.014-0.027 0.044-0.094 0.076-0.168 0.013-0.029 0.253-0.412 0.373-0.424 0 0 0.747 0.544 0.748 0.551 0.003 0.029-0.324 0.518-0.353 0.481-0 0-0.876-0.368-0.844-0.44z"></path>
<path fill="#ccb8c8" d="M20.396 14.798c-0.102-0.079-0.272-0.157-0.408-0.248l-0.061 0.128c0.049 0.055 0.671 0.344 0.773 0.4 0 0-0.118-0.136-0.304-0.28z"></path>
<path fill="#782121" d="M18.474 16.863l1.702-2.106c0.032-0.029 0.19-0.031 0.211 0.132l-1.611 2.196c0 0-0.184-0.018-0.301-0.223z"></path>
<path fill="#730000" d="M24.177 16.886c-0.059 0.046-0.158 0.058-0.158 0.058-0.111-0.13-0.202-0.267-0.358-0.436l-1.7-2.090 0.176-0.169 1.53 1.791c0.046 0.046 0.313 0.326 0.567 0.658 0 0 0.022 0.13-0.057 0.19z"></path>
<path fill="#fff" d="M22.541 14.684l-0.274-0.326s-0.208 0.026-0.247 0.137c0 0-0.15 0.247-0.547 0.274 0 0 0.111 0.462 0.573 0.71 0 0 0.169-0.475 0.332-0.56-0 0 0.169-0.124 0.163-0.234z"></path>
<path fill="#730000" d="M21.857 16.129c-0.039-0.013-0.078 0-0.137 0.033-0.052 0.033-0.117 0.019-0.111-0.046 0.007-0.059 0-0.052 0.072-0.098 0.104-0.059 0.241-0.065 0.326-0.033l-0.15 0.143M23.713 14.28c-0.013-0.045-0.026-0.091 0.020-0.15 0.046-0.052 0.046-0.143-0.065-0.098s-0.15 0.169-0.058 0.358l0.104-0.111h0z"></path>
<path fill="#fff" d="M21.818 16.168l1.927-1.915 0.475 0.508s-0.098-0.039-0.137-0.013c-0.033 0.026 0.039 0.124 0.039 0.124s-0.091-0.033-0.13-0.007c-0.046 0.026 0 0.137 0 0.137s-0.078-0.059-0.117-0.033c-0.032 0.026 0 0.15 0 0.15s-0.104-0.032-0.13-0.007c-0.026 0.026 0 0.137 0 0.137s-0.104-0.052-0.156 0c-0.052 0.052 0.026 0.124 0.026 0.124s-0.13-0.052-0.182 0.026c-0.052 0.078 0.007 0.15 0.007 0.15s-0.104-0.052-0.13-0.026c-0.026 0.026 0 0.15 0 0.15s-0.091-0.052-0.15 0.013c-0.059 0.072 0.007 0.13 0.007 0.13s-0.085-0.052-0.13-0.026c-0.046 0.026 0.013 0.15 0.013 0.15s-0.085-0.059-0.143 0c-0.059 0.065 0 0.13 0 0.13s-0.072-0.065-0.143 0c-0.065 0.072 0 0.143 0 0.143s-0.104-0.052-0.143 0c-0.046 0.052 0.013 0.124 0.013 0.124s-0.078-0.046-0.13-0.020c-0.052 0.026 0 0.143 0 0.143s-0.078-0.085-0.111-0.039c-0.039 0.046 0.007 0.156 0.007 0.156s-0.072-0.085-0.111-0.039c-0.046 0.039 0.026 0.137 0.026 0.137s-0.13-0.059-0.098-0.059z"></path>
<path fill="#7e4b7e" d="M23.635 14.41l-0.15 0.15 0.033 0.514s0.033-0.15 0.078-0.046c0 0 0.013-0.124 0.046-0.104-0.026-0.013-0.007-0.514-0.006-0.514zM23.355 14.69l-0.111 0.104 0.039 0.515s0.033-0.195 0.078-0.039c0 0-0.007-0.13-0.007-0.176 0 0.033 0-0.404 0-0.404zM22.19 15.843l-0.104 0.111 0.026 0.313s0.032-0.202 0.078-0.046c0 0-0.013-0.13-0.013-0.176 0 0.033 0.013-0.202 0.013-0.202z"></path>
<path fill="#289400" d="M14.467 20.226c0.098 0.045 0-0.319 0.032-0.456 0.039-0.143 0.319 0.352 0.456 0.417 0.143 0.072 1.016-0.345 1.016-0.345l0.208-0.391 0.111 0.319s0.241-0.28 0.313-0.384c0.072-0.104 0 0.208-0.072 0.313s0.208 0.143 0.176 0.352c-0.032 0.208 0.28-0.143 0.28-0.143l0.807 0.072s0.137-0.488 0.352-0.768l0.065 0.313 0.332-0.339c0.371 0.977 1.153 2.038 2.754 2.618 1.504-0.547 2.279-1.517 2.682-2.442l0.449 0.463s0.352-0.104 0.417-0.143c0.072-0.033 0.827 0.267 0.827 0.267s0.137 0.052 0.208 0.104c0.072 0.052 0.019-0.228 0.019-0.228s0.384 0.072 0.352 0.28c0 0 0.085-0.195 0.156-0.228s0.241 0.176 0.28 0.247c0.033 0.065 0.86 0.169 0.977 0.241 0 0 0.091 0.104 0.091 0.176 0 0 0.176-0.020 0.313-0.020 0 0-0.104 0.052-0.104 0.163 0 0.104-0.052 0.189-0.156 0.241s0 0.091 0.137 0.104c0.143 0.019 0 0.195-0.28 0.3 0 0-0.065 0.156 0.052 0.208 0 0-0.241 0.020-0.28-0.052 0 0-0.084 0.163-0.084 0.247 0 0-0.26-0.085-0.332-0.124 0 0-0.104 0.104-0.033 0.156 0 0-0.475-0.052-0.566-0.228 0 0-0.169 0.052-0.137 0.111 0 0-0.332-0.228-0.436-0.228l-0.072 0.117s-0.228-0.137-0.3-0.137c-0.065 0-0.013 0.104-0.013 0.104l-0.319-0.195-0.124 0.195s-0.261-0.124-0.332-0.176c-0.065-0.052-0.085 0.104-0.137 0.124 0 0-0.104-0.143-0.247-0.124 0 0-0.052 0.176-0.032 0.228 0 0-0.404-0.085-0.475-0.104s-0.032 0.085 0 0.156c0 0-0.3-0.085-0.365-0.137l-0.019 0.137s-0.247-0.020-0.299-0.072l-0.156 0.215h-0.228l-0.052 0.189s-0.436-0.123-0.475-0.052c-0.032 0.071 0.020 0.176 0.020 0.176l-0.384-0.052-0.032 0.156s-0.443-0.137-0.547-0.072c0 0-0.137 0.143-0.228 0.176-0.084 0.039 0-0.052 0-0.052l-0.137-0.189s-0.156 0.085-0.247 0.052c-0.085-0.039-0.365 0.137-0.456 0.085 0 0 0-0.124-0.071-0.156-0.065-0.033-0.189-0.033-0.241 0.052 0 0-0.052-0.072-0.143-0.208-0.085-0.143-0.208 0.013-0.208 0.013l-0.020-0.169-0.241-0.020c-0.143-0.020-0.176-0.143-0.176-0.143s-0.371 0.039-0.423 0.020l0.091-0.085s-0.508 0.104-0.612 0.065c-0.111-0.033 0.117-0.176 0.117-0.176s-0.469-0.117-0.56-0.137c-0.085-0.020-0.593 0.084-0.664 0.084s-0.104-0.117-0.104-0.117-0.124 0.104-0.228 0.137c0 0-0.085-0.208-0.032-0.228 0 0-0.332 0.091-0.352 0.176 0 0-0.085-0.137-0.072-0.195 0 0-0.156 0.247-0.228 0.299s-0.013-0.124-0.013-0.124-0.195 0.247-0.267 0.267v-0.176s-0.56 0.3-0.716 0.261c0 0 0-0.124 0.052-0.156l-0.352-0.020c-0.084-0.013-0.189-0.052-0.28-0.072-0.085-0.013 0.124-0.104 0.267-0.065 0 0-0.391-0.143-0.508-0.072 0 0-0.052-0.143 0.156-0.195 0 0-0.267-0.26-0.423-0.241 0 0 0.176-0.104 0.319-0.052 0 0-0.163-0.443-0.267-0.495 0 0 0.371-0.065 0.475-0.013l0-0z"></path>
<path fill="#730000" d="M13.927 12.587l4.74-2.455c0.023-0.127-0.049-0.227-0.124-0.326-1.356 0.665-2.589 1.471-4.095 1.96-0.085 0.033-0.833 0.345-1.218 0.808-0.122 0.122-0.131 0.302-0.131 0.302s0.009 0.207 0.053 0.263c0 0 0.011 0.057 0.082 0.102-0.001 0 0.044 0.022 0.075 0.011 0.034 0.006 0.090 0.006 0.169-0.131 0.078-0.13 0.332-0.43 0.449-0.534z"></path>
<path fill="#fff" d="M17.742 10.158l0.612-0.293s0.208 0.156 0.189 0.332c0 0 0.046 0.404 0.547 0.684 0 0-0.423 0.527-1.166 0.573 0 0 0.085-0.696-0.071-0.898 0 0-0.026 0.025-0.015-0.010 0.022-0.068-0.015-0.3-0.11-0.351-0.012-0.006 0.008-0.025 0.013-0.037z"></path>
<path fill="#b34b00" d="M22.819 9.885l1.741 0.853c0.349 0.17 0.474 0.013 0.671 0.098l3.436 1.75c0.295 0.129 0.46 0.17 0.417 0.323-0.007 0.242 0.115 0.246 0.148 0.248 0.024 0.006 0.14-0.011 0.189-0.075 0.036-0.042 0.038-0.046 0.038-0.046 0.039-0.039 0.032-0.042 0.044-0.060 0.144-0.208 0.225-0.388 0.073-0.506-0.173-0.081-0.193 0.103-0.375 0.083 0 0-0.326-0.124-0.443-0.208-0.216-0.118-0.517-0.257-0.586-0.334-0.219-0.041-1.871-0.97-2.806-1.436-0.1-0.084-0.155-0.395-0.352-0.499-0.058-0.084-1.324-0.662-1.987-0.993-0.244-0.091-0.381-0.154-0.557 0.146-0.153 0.294-0.116 0.454 0.348 0.655z"></path>
<path fill="#000" d="M17.156 10.568c-0.013 0.039-0.046 0.013-0.046 0.026-0.026 0.137-0.020 0.208-0.052 0.286-0.046 0.091-0.208 0.176-0.202 0.169-0.13 0.039-0.286 0.195-0.54 0.052-0.013-0.006-0.026-0.020-0.039-0.033 0 0 0.072 0.267-0.189 0.397-0.091 0.046-1.009 0.528-1.009 0.528s-0.098 0.176-0.033 0.417c0.007 0.039 0.020 0.072-0.020 0.098-0.059 0.045-0.169 0.176-0.234 0.384 0 0-0.195-0.085-0.195-0.208s0.078-0.189 0.098-0.28c0.019-0.085 0.072-0.299 0.046-0.365-0.026-0.072-0.143-0.098-0.189-0.124-0.039-0.026-0.091 0.026-0.085 0.085 0.007 0.065 0.052 0.052 0.104 0.065 0 0-0.059 0.124-0.052 0.215l-0.592 0.306s0.078 0.104 0.104 0.15c0.026 0.046 0.085 0.651 0.26 0.938s0.234 0.208 0.273 0.247c0.033 0.033 0.085 0.085 0.13 0.124 0.046 0.033 0.247 0.052 0.287-0.059 0.046-0.104 0.078-0.169 0.202-0.267s0.378-0.345 0.378-0.456c0 0 0.15 0.43 0.13 0.788 0 0 0.547 0.111 1.035 0.124 0.488 0.007 0.736-0.098 0.736-0.098s0.065-0.41 0.039-0.488c0 0 0.078 0.267 0.137 0.358 0.065 0.111 0.137 0.338 0.28 0.352 0.137 0.006 0.254-0.137 0.267-0.195v-0.43h0.553c0-0.006 0.247 0.091 0.326 0.078 0.078-0.007 0.124-0.078 0.052-0.104l-0.026-0.019c0.072 0 0.163 0.045 0.163 0.045h0.273c0.007-0.006 0-0.026-0.007-0.033-0.020-0.078-0.163-0.143-0.267-0.189-0.104-0.039-0.221-0.085-0.3-0.091-0.124-0.013-0.208-0.006-0.397 0.026-0.052 0.006-0.247 0.026-0.371 0.085-0.033 0.020-0.065 0.026-0.052-0.059 0.020-0.091 0.013-0.501-0.084-0.677-0.072-0.124-0.065-0.228-0.052-0.332 0.007-0.104 0.013-0.462 0-0.567-0.020-0.104-0.163-0.248-0.423-0.28-0.247-0.033-0.456-0.235-0.469-0.397-0.020-0.163 0.026-0.462 0.052-0.592"></path>
<path fill="#000" d="M16.049 9.832c-0.046 0.208-0.046 0.391-0.039 0.592 0.007 0.137 0.072 0.293 0.13 0.43 0.039 0.091 0.091 0.195 0.176 0.248 0.228 0.15 0.443-0.013 0.567-0.065 0.059-0.020 0.15-0.104 0.176-0.156 0.032-0.078 0.019-0.137 0.052-0.286-0.007 0.006 0.052-0.026 0.046-0.026 0.059-0.098 0.046-0.13 0.078-0.195s-0.039-0.137-0.117-0.124c0.039-0.124 0.065-0.261 0.026-0.378-0.013-0.039 0.033-0.143-0.039-0.117-0.293 0.117-0.638 0.091-0.951 0.091-0.026 0-0.046-0.052-0.085-0.045-0.007 0-0.013 0.019-0.020 0.032"></path>
<path fill="#000" d="M16.023 9.942c-0.033-0.026-0.039-0.084 0-0.208 0.046-0.123 0-0.13 0.072-0.202s0.052-0.104 0.098-0.124c0.046-0.013 0.182-0.013 0.228-0.033 0.039-0.020 0.098-0.046 0.189-0.059 0.098-0.020 0.293-0.013 0.384 0.039 0.098 0.052 0.163 0.182 0.221 0.228 0.065 0.045 0.104 0.234 0.091 0.508-0.020 0.273-0.072 0.221-0.072 0.221s-0.078-0.13-0.143-0.020c0 0 0-0.104 0.013-0.182 0.007-0.078-0.039-0.221 0.007-0.319 0 0-0.371 0.117-0.56 0.111-0.195-0.013-0.469-0.059-0.482-0.104l-0.046 0.143"></path>
<path fill="#fff" d="M16.212 9.715c-0.020-0.039-0.117-0.182-0.039-0.228 0.072-0.039 0.026 0.176 0.124 0.221 0 0-0.033 0.098-0.085 0.007l-0 0z"></path>
<path fill="#fff" d="M16.043 10.249c0.046-0.006 0.098-0.059 0.202 0.020 0.072 0.046-0.117 0.091-0.085 0.085-0.084 0.013-0.111-0.033-0.117-0.072 0-0.013-0.013-0.033 0-0.033h-0zM16.577 10.301c0.046-0.091 0.117-0.072 0.182-0.052s0.046 0.007 0.104 0.039c-0.072 0.013-0.052 0.019-0.104 0.045-0.059 0.026-0.111 0.039-0.15 0.013-0.013-0.013-0.046-0.033-0.046-0.059-0 0.006 0.007 0.013 0.013 0.013z"></path>
<path fill="#000" d="M16.134 10.327c0.026 0 0.046-0.026 0.046-0.052 0-0.033-0.020-0.059-0.046-0.059-0.032 0-0.052 0.026-0.052 0.059 0 0.026 0.019 0.052 0.052 0.052zM16.688 10.34c0.026 0 0.046-0.026 0.046-0.059s-0.026-0.052-0.052-0.052c-0.026 0-0.046 0.019-0.046 0.052s0.026 0.059 0.052 0.059z"></path>
<path fill="#000" d="M15.88 12.671c0.039 0 0.072-0.026 0.072-0.059 0-0.026-0.032-0.052-0.072-0.052-0.033 0-0.065 0.026-0.065 0.052 0 0.032 0.033 0.059 0.065 0.059zM17.358 12.691c0.033 0 0.065-0.026 0.065-0.059s-0.032-0.052-0.065-0.052c-0.039 0-0.072 0.020-0.072 0.052s0.033 0.059 0.072 0.059z"></path>
<path fill="#fff" d="M15.288 15.348c0.078-0.508 0.319-0.931 0.325-0.97 0 0 0.247 0.052 0.677 0.091 0.423 0.045 0.54 0.026 0.736 0.013 0.189-0.019 0.436-0.052 0.436-0.052s0.078 0.156 0.085 0.313c0.020 0.332 0.143 1.771 0.156 2.155 0 0 0.052 0.228 0.052 0.788 0 0.612 0.169 1.856 0.169 2.52l-0.169 0.033s-0.925 0.072-0.925-0.052c0-0.137-0.052-1.732 0.085-2.696 0 0-0.032-0.189-0.085-0.352-0.052-0.156-0.28-0.645-0.28-0.749 0 0-0.364 1.029-0.384 1.205-0.019 0.163-0.072 2.455-0.104 2.644 0 0-0.527 0.404-0.599 0.443-0.072 0.033-0.579-0.215-0.592-0.28-0.020-0.072 0.052-0.847 0.293-2.123 0.091-0.456 0.039-0.54 0.039-0.664s0.007-1.758 0.085-2.266l0-0z"></path>
<path fill="#9b5f00" d="M15.568 14.365s0-0.208 0.078-0.313c0 0 0.221 0.046 0.534 0.078 0.319 0.033 0.573 0.059 0.807 0.033s0.475-0.085 0.475-0.085 0.065 0.306 0.032 0.352c0 0-0.254 0.052-0.534 0.065-0.287 0.019-0.762-0.026-0.924-0.052-0.215-0.026-0.404-0.065-0.469-0.078z"></path>
<path fill="#fff" d="M15.769 14.39l0.039-0.313 0.065 0.006-0.013 0.326-0.091-0.020M17.182 14.13l0.007 0.352 0.078-0.013-0.007-0.358-0.078 0.020M16.179 14.13l-0.026 0.339h0.046l0.046-0.339h-0.065"></path>
<path fill="#ffa54b" d="M15.047 20.532c-0.020 0.085-0.052 0.202-0.065 0.352 0 0.032-0.032 0.208 0.065 0.215 0.072 0.007 0.091-0.182 0.091-0.182s-0.065 0.208 0.020 0.235c0.117 0.026 0.13-0.228 0.13-0.228-0.013 0.072-0.091 0.254 0.020 0.273 0.117 0.020 0.15-0.247 0.15-0.247s-0.098 0.267 0.020 0.274c0.111 0.006 0.111-0.261 0.111-0.261s-0.059 0.319 0.098 0.293c0.085-0.013 0.104-0.124 0.124-0.189 0.026-0.098 0.085-0.221 0.013-0.423-0.052-0.15-0.032-0.189-0.032-0.189s-0.182 0.137-0.326 0.228c-0.065 0.039-0.417-0.15-0.417-0.15zM16.948 20.252c-0.032-0.020-0.026 0.117-0.039 0.182-0.007 0.065 0.013 0.208 0.234 0.196 0.215-0.020 0.43-0.065 0.566-0.033 0.137 0.039 0.338 0.046 0.449 0.046s0.182-0.013 0.234-0.033c0.046-0.019 0.143 0.026 0.189 0.026s0.117-0.072 0.111-0.117c-0.007-0.085-0.085-0.085-0.195-0.091-0.104-0.013-0.247-0.033-0.319-0.059s-0.202-0.098-0.365-0.13c0 0-0.313 0.013-0.377 0.013s-0.449 0.019-0.489 0z"></path>
<path fill="#ffb366" d="M13.699 12.15c-0.032 0.020-0.072-0.13 0.026-0.189 0 0 0.026-0.124 0.13-0.137 0 0 0.085-0.117 0.208-0.104 0 0 0.143-0.098 0.195-0.085 0.052 0.007 0.182 0.137 0.189 0.182 0.013 0.046 0 0.124-0.033 0.156-0.039 0.039-0.065-0.007-0.072-0.059 0 0 0.026 0.098-0.052 0.137-0.078 0.046-0.072 0.013-0.078-0.039 0 0-0.020 0.104-0.072 0.117-0.052 0.020-0.085-0.026-0.124-0.026 0 0 0.065 0.052 0.020 0.091-0.046 0.033-0.098 0.019-0.13-0.007-0.033-0.033-0.072-0.117-0.208-0.039l0-0z"></path>
<path fill="#000" d="M25.438 10.568c0.046-0.020 0.033 0.039 0.039 0.059 0.020 0.085 0.020 0.176 0.052 0.254 0.039 0.072 0.052 0.098 0.117 0.13 0.104 0.059 0.41 0.228 0.625 0.091 0.017-0.009 0.032-0.020 0.046-0.033l-0 0s-0.078 0.267 0.189 0.397c0.085 0.045 1.003 0.527 1.003 0.527s0.098 0.176 0.039 0.417c-0.013 0.039-0.026 0.072 0.013 0.098 0.065 0.045 0.169 0.176 0.241 0.384 0 0 0.189-0.085 0.189-0.208s-0.078-0.189-0.098-0.28c-0.013-0.085-0.065-0.3-0.039-0.365 0.026-0.072 0.137-0.098 0.182-0.124s0.098 0.026 0.085 0.085c-0.007 0.065-0.052 0.052-0.104 0.065 0 0 0.065 0.124 0.052 0.215l0.599 0.306s-0.078 0.104-0.104 0.15c-0.033 0.046-0.091 0.651-0.267 0.938s-0.234 0.208-0.267 0.247c-0.039 0.033-0.091 0.085-0.137 0.124-0.039 0.033-0.241 0.052-0.286-0.059-0.046-0.104-0.078-0.169-0.202-0.267s-0.378-0.345-0.378-0.456c0 0-0.15 0.43-0.13 0.788 0 0-0.54 0.111-1.035 0.124-0.488 0.007-0.736-0.098-0.736-0.098s-0.065-0.41-0.039-0.488c0 0-0.078 0.267-0.13 0.358-0.072 0.111-0.143 0.339-0.28 0.352-0.143 0.007-0.254-0.137-0.273-0.195v-0.43h-0.553c0-0.006-0.241 0.091-0.326 0.078-0.078-0.007-0.117-0.078-0.052-0.104l0.026-0.019c-0.072 0-0.163 0.045-0.163 0.045h-0.273c0-0.006 0.007-0.026 0.007-0.033 0.020-0.078 0.163-0.143 0.273-0.189 0.104-0.039 0.215-0.085 0.293-0.091 0.124-0.013 0.208-0.006 0.397 0.026 0.052 0.006 0.254 0.026 0.371 0.085 0.032 0.019 0.072 0.026 0.052-0.059-0.020-0.091-0.078-0.358 0.020-0.534 0.065-0.124 0.059-0.228 0.052-0.332-0.013-0.111-0.072-0.358-0.072-0.469 0-0.365 0.28-0.514 0.527-0.593 0.273-0.084 0.456-0.176 0.443-0.338-0.007-0.169 0.039-0.449 0.013-0.58"></path>
<path fill="#000" d="M26.539 9.832c0.059 0.215 0.072 0.267 0.072 0.339 0 0.078-0.033 0.091-0.007 0.176 0.046 0.156-0.046 0.326-0.156 0.508-0.052 0.084-0.091 0.195-0.176 0.247-0.215 0.137-0.475-0.026-0.612-0.085-0.072-0.032-0.111-0.084-0.13-0.137-0.026-0.078-0.033-0.15-0.052-0.254 0-0.020 0.007-0.078-0.039-0.059-0.078-0.091-0.065-0.13-0.098-0.195s0.059-0.137 0.13-0.124c-0.039-0.124-0.059-0.261-0.020-0.378 0.013-0.039-0.032-0.143 0.033-0.117 0.293 0.117 0.638 0.091 0.951 0.091 0.026 0 0.045-0.052 0.084-0.045 0.006-0 0.013 0.020 0.019 0.033"></path>
<path fill="#000" d="M26.565 9.942c0.032-0.026 0.013-0.15-0.020-0.28-0.013-0.065-0.065-0.091-0.137-0.163s-0.098-0.072-0.143-0.091c-0.039-0.013-0.13-0.013-0.176-0.033-0.039-0.020-0.143-0.007-0.241 0.006-0.13 0.019-0.202 0.013-0.299 0.065s-0.176 0.111-0.208 0.208c-0.026 0.072-0.072 0.163-0.052 0.436 0.013 0.273 0.065 0.221 0.065 0.221s0.072-0.104 0.117-0.039c0 0-0.007-0.143-0.020-0.228-0.007-0.078 0-0.176 0.033-0.293 0 0 0.299 0.111 0.579 0.111 0.195 0 0.449-0.020 0.456-0.065l0.045 0.143h-0z"></path>
<path fill="#fff" d="M26.546 10.249c-0.046-0.006-0.065-0.059-0.202 0.020-0.072 0.039 0.117 0.091 0.091 0.085 0.078 0.013 0.104-0.033 0.111-0.072-0-0.013 0.013-0.033-0-0.033zM26.012 10.301c0-0.052-0.117-0.072-0.182-0.052s-0.039 0.007-0.098 0.039c0.065 0.013 0.046 0.019 0.098 0.045 0.058 0.026 0.072 0.052 0.15 0.013 0.020-0.007 0.046-0.033 0.052-0.059-0.006 0.006-0.013 0.013-0.020 0.013z"></path>
<path fill="#000" d="M26.461 10.327c-0 0-0 0-0.001 0-0.028 0-0.051-0.023-0.051-0.051 0-0 0-0.001 0-0.001v0c0-0.033 0.020-0.059 0.052-0.059 0.026 0 0.046 0.026 0.046 0.059 0 0.026-0.020 0.052-0.046 0.052zM25.901 10.34c-0.026 0-0.046-0.026-0.046-0.059s0.026-0.052 0.052-0.052 0.046 0.019 0.046 0.052c0 0.033-0.019 0.059-0.052 0.059z"></path>
<path fill="#000" d="M26.711 12.671c-0.039 0-0.072-0.026-0.072-0.059 0-0.026 0.032-0.052 0.072-0.052 0.033 0 0.065 0.026 0.065 0.052 0 0.032-0.032 0.059-0.065 0.059zM25.233 12.691c-0.033 0-0.065-0.026-0.065-0.059s0.032-0.052 0.065-0.052c0.039 0 0.072 0.020 0.072 0.052s-0.033 0.059-0.072 0.059z"></path>
<path fill="#fff" d="M27.303 15.348c-0.078-0.508-0.319-0.931-0.326-0.97 0 0-0.247 0.052-0.677 0.091-0.423 0.045-0.54 0.026-0.736 0.013-0.189-0.019-0.436-0.052-0.436-0.052s-0.078 0.156-0.085 0.313c-0.020 0.332-0.143 1.771-0.156 2.155 0 0-0.052 0.228-0.052 0.788 0 0.612-0.169 1.856-0.169 2.52l0.169 0.033s0.925 0.072 0.925-0.052c0-0.137 0.052-1.732-0.085-2.696 0 0 0.032-0.189 0.085-0.352 0.052-0.156 0.28-0.645 0.28-0.749 0 0 0.364 1.029 0.384 1.205 0.019 0.163 0.072 2.455 0.104 2.644 0 0 0.527 0.404 0.599 0.443 0.072 0.033 0.579-0.215 0.593-0.28 0.020-0.072-0.052-0.847-0.293-2.123-0.091-0.456-0.039-0.54-0.039-0.664s-0.007-1.758-0.085-2.266l-0-0z"></path>
<path fill="#9b5f00" d="M27.023 14.365s0-0.208-0.078-0.313c0 0-0.221 0.046-0.534 0.078-0.319 0.033-0.573 0.059-0.807 0.033s-0.475-0.085-0.475-0.085-0.065 0.306-0.032 0.352c0 0 0.254 0.052 0.534 0.065 0.287 0.019 0.762-0.026 0.924-0.052 0.215-0.026 0.404-0.065 0.469-0.078z"></path>
<path fill="#fff" d="M26.822 14.39l-0.039-0.313-0.065 0.006 0.013 0.326 0.091-0.020M25.409 14.13l-0.007 0.352-0.078-0.013 0.007-0.358 0.078 0.020M26.411 14.13l0.026 0.339h-0.046l-0.046-0.339h0.065"></path>
<path fill="#ffa54b" d="M27.544 20.532c0.020 0.085 0.052 0.202 0.065 0.352 0 0.032 0.032 0.208-0.065 0.215-0.072 0.007-0.091-0.182-0.091-0.182s0.065 0.208-0.020 0.235c-0.117 0.026-0.13-0.228-0.13-0.228 0.013 0.072 0.091 0.254-0.020 0.273-0.117 0.020-0.15-0.247-0.15-0.247s0.098 0.267-0.020 0.274c-0.111 0.006-0.111-0.261-0.111-0.261s0.059 0.319-0.098 0.293c-0.085-0.013-0.104-0.124-0.124-0.189-0.026-0.098-0.085-0.221-0.013-0.423 0.052-0.15 0.032-0.189 0.032-0.189s0.182 0.137 0.326 0.228c0.065 0.039 0.417-0.15 0.417-0.15zM25.643 20.252c0.032-0.020 0.026 0.117 0.039 0.182 0.007 0.065-0.013 0.208-0.234 0.196-0.215-0.020-0.43-0.065-0.566-0.033-0.137 0.039-0.338 0.046-0.449 0.046s-0.182-0.013-0.234-0.033c-0.046-0.019-0.143 0.026-0.189 0.026s-0.117-0.072-0.111-0.117c0.007-0.085 0.085-0.085 0.195-0.091 0.104-0.013 0.247-0.033 0.319-0.059s0.202-0.098 0.365-0.13c0 0 0.313 0.013 0.377 0.013s0.449 0.019 0.489 0z"></path>
<path fill="#730000" d="M28.798 12.385c0.032 0.013 0.124-0.13 0.032-0.195 0 0-0.032-0.124-0.137-0.13 0 0-0.085-0.124-0.208-0.104 0 0-0.137-0.098-0.189-0.091-0.059 0.013-0.189 0.143-0.195 0.189-0.007 0.039 0 0.117 0.032 0.156 0.039 0.033 0.065-0.007 0.072-0.065 0 0-0.026 0.098 0.052 0.143s0.072 0.006 0.078-0.045c0 0 0.020 0.104 0.072 0.124s0.085-0.026 0.124-0.026c0 0-0.065 0.052-0.020 0.085 0.046 0.039 0.098 0.019 0.13-0.007 0.039-0.026 0.020-0.111 0.156-0.033z"></path>
<path fill="#730000" d="M28.201 11.953c-0.057 0.046-0.118 0.115-0.122 0.146-0.007 0.039-0 0.117 0.032 0.156 0.035 0.030 0.061-0.001 0.070-0.050-0.004 0.030-0.005 0.094 0.054 0.128 0.078 0.045 0.072 0.006 0.078-0.046 0 0 0.020 0.105 0.072 0.124s0.085-0.026 0.124-0.026c0 0-0.066 0.051-0.020 0.084 0.046 0.039 0.097 0.020 0.13-0.006 0.039-0.026 0.019-0.11 0.156-0.032 0.017 0.007 0.051-0.029 0.066-0.074l-0.492-0.354-0.148-0.050z"></path>
<path fill="#5ac800" d="M15.9 20.714l-0.013-0.3 0.124 0.104 0.032-0.228c0.052-0.013 0.137 0.091 0.137 0.091l-0.013-0.228 0.189 0.208s-0.013-0.176 0.052-0.28c0 0 0.143 0.124 0.143 0.267 0 0.124 0.124-0.176 0.124-0.176 0.033 0.104 0.104 0.332 0.104 0.332l0.085-0.124 0.072 0.26 0.156-0.228 0.124 0.267 0.28-0.020 0.033 0.156 0.124-0.137 0.163 0.104s0.137-0.039 0.208-0.039c0.072 0 0.156 0.091 0.156 0.091s0.052-0.091 0.104-0.124c0.052-0.032 0.124 0.052 0.143 0.104l0.104-0.189s0.137 0.137 0.156 0.189c0 0 0.019-0.156 0.052-0.208s0.085 0.020 0.124 0.085l0.085-0.28s0.091 0.019 0.156 0.124c0.071 0.104 0.071-0.156 0.071-0.156s0.156 0.208 0.195 0.352c0 0-1.078 0.37-1.838 0.269-0.895-0.119-1.632-0.288-1.632-0.288zM23.29 20.682s0.052-0.143 0.124-0.215c0 0 0.137 0.163 0.137 0.215 0 0 0.039-0.020 0.111-0.072l0.104 0.104 0.124-0.084 0.117 0.104 0.215-0.091 0.085 0.091 0.332-0.039 0.124 0.052 0.117-0.15 0.111 0.117 0.176-0.176s0.085 0.072 0.104 0.124c0 0 0.143-0.071 0.176-0.124 0 0 0.137-0.052 0.156 0.033 0 0 0.085-0.065 0.078-0.137s0.098-0.020 0.13 0.072c0 0 0.039-0.143 0.143-0.156 0 0 0.072 0.084 0.052 0.241 0 0 0.156-0.124 0.228-0.137 0 0 0.033 0.176-0.020 0.332 0 0 0.163-0.267 0.195-0.176 0.013 0.052 0.052 0.228 0.013 0.351l0.143-0.091 0.052 0.176 0.156-0.033s-0.924 0.142-1.795 0.059c-0.871-0.083-1.688-0.391-1.688-0.391zM22.646 21.328c0.042-0.026-0.291 0.685-1.099 0.723-1.124 0.053-2.085-0.508-2.085-0.508s0.117-0.195 0.189-0.248c0 0 0.156 0.124 0.208 0.28 0 0 0.020-0.104 0.072-0.195 0 0 0.195 0.091 0.228 0.215 0 0 0.072-0.124 0.124-0.156 0.052-0.039 0.104 0.137 0.104 0.241 0 0 0.124-0.13 0.195-0.137 0 0 0.137 0.065 0.176 0.293 0 0 0.13-0.124 0.176-0.104 0 0 0.156 0.104 0.117 0.247-0.019 0.078 0.156-0.091 0.371-0.143l0.189 0.143s0.176-0.234 0.228-0.313c0 0 0.143 0.052 0.143 0.137 0 0 0.065-0.248 0.117-0.274 0.052-0.033 0.124 0.078 0.124 0.15 0 0 0.020-0.189 0.124-0.228 0 0 0.104 0.072 0.104 0.143-0-0 0.11-0.215 0.195-0.267z"></path>
<path fill="#fff" d="M21.297 24.127c1.465 0.013 2.331-0.521 2.806-0.84 1.113-0.749 1.348-0.775 1.53-0.762 0.208 0.020 0.514 0.091 0.527 0.274 0.020 0.28-0.436 0.404-0.697 0.404-0.267 0-0.964-0.176-0.964-0.176l-0.182 0.124c0.124 0.059 1.55 0.534 1.823 0.085 0.28-0.456 0.56-1.192 0.56-1.192s-0.313-0.56-1.009-0.56c-0.703 0-1.387 0.443-1.843 0.775s-1.029 0.788-2.552 0.788c-1.524 0-2.103-0.456-2.559-0.788s-1.14-0.775-1.836-0.775c-0.703 0-1.016 0.56-1.016 0.56s0.28 0.736 0.56 1.192c0.273 0.449 1.699-0.026 1.823-0.085l-0.176-0.124s-0.703 0.176-0.964 0.176c-0.267 0-0.723-0.124-0.703-0.404 0.013-0.182 0.319-0.254 0.527-0.274 0.182-0.013 0.417 0.013 1.53 0.762 0.476 0.319 1.342 0.834 2.813 0.84z"></path>
<path fill="#fff" d="M18.94 22.401s0-0.124-0.020-0.306c-0.026-0.235-0.163-0.293-0.273-0.261-0.072 0.026-0.215 0.202-0.215 0.202v0.007c-0.057-0.040-0.123-0.081-0.191-0.118l-0.011-0.005c0.052-0.059 0.352-0.241 0.423-0.241 0.065 0 0.964 0.365 1.25 0.612 0.072 0.065 0.124 0.469 0.085 0.599-0.482-0.124-0.794-0.306-1.048-0.482v-0.007zM18.51 23.313s-0.195 0.195-0.202 0.553c-0.007 0.423 0.299 0.443 0.501 0.436 0.241-0.007 0.436-0.143 0.43-0.593 0 0-0.397-0.169-0.729-0.397zM23.648 22.401s0.007-0.124 0.026-0.306c0.026-0.235 0.156-0.293 0.267-0.261 0.072 0.026 0.215 0.202 0.215 0.202v0.007c0.065-0.046 0.13-0.085 0.202-0.124-0.052-0.059-0.351-0.241-0.417-0.241-0.072 0-0.97 0.365-1.257 0.612-0.065 0.065-0.117 0.469-0.085 0.599 0.488-0.124 0.794-0.306 1.048-0.482v-0.007zM24.078 23.313s0.195 0.195 0.202 0.553c0.013 0.423-0.3 0.443-0.501 0.436-0.241-0.007-0.43-0.143-0.43-0.593 0 0 0.397-0.169 0.729-0.397z"></path>
<path fill="#69f" d="M18.087 23.026s-0.697 0.176-0.957 0.176c-0.267 0-0.723-0.124-0.703-0.404 0.013-0.182 0.319-0.254 0.527-0.273 0.156-0.013 0.358 0.006 1.133 0.501zM24.501 23.026s0.697 0.176 0.964 0.176c0.26 0 0.716-0.124 0.697-0.404-0.013-0.182-0.319-0.254-0.527-0.273-0.156-0.013-0.358 0.006-1.133 0.501zM18.94 22.407c-0.072-0.052-0.143-0.104-0.209-0.156-0.098-0.072-0.195-0.137-0.3-0.208 0 0 0.143-0.182 0.215-0.202 0.111-0.039 0.247 0.019 0.273 0.254 0.020 0.182 0.020 0.313 0.020 0.313zM18.465 24.244c0.124 0.072 0.26 0.065 0.345 0.059 0.241-0.007 0.436-0.143 0.43-0.593 0 0 0.299 0.15 0.788 0.267 0 0 0.078 0.098 0.091 0.293 0.020 0.163-0.091 0.339-0.221 0.326 0 0-0.684-0.124-1.1-0.195-0.241-0.045-0.332-0.156-0.332-0.156zM23.648 22.407c0.072-0.052 0.143-0.104 0.215-0.156 0.091-0.072 0.189-0.137 0.293-0.208 0 0-0.143-0.182-0.215-0.202-0.111-0.039-0.241 0.019-0.267 0.254-0.020 0.182-0.026 0.313-0.026 0.313zM24.123 24.244c-0.124 0.072-0.26 0.065-0.345 0.059-0.241-0.007-0.43-0.143-0.43-0.593 0 0-0.3 0.15-0.781 0.267 0 0-0.085 0.098-0.098 0.293-0.013 0.163 0.098 0.339 0.221 0.326 0 0 0.69-0.124 1.1-0.195 0.241-0.045 0.332-0.156 0.332-0.156z"></path>
<path fill="#000" d="M17.401 22.091c0.009 0.015 0.015 0.031 0.018 0.047 0.001 0.007 0.001 0.014 0.001 0.022 0 0.012-0.001 0.023-0.004 0.035l0-0.001c-0.008 0.047-0.037 0.087-0.076 0.109l-0.001 0c-0.042 0.025-0.091 0.032-0.144 0.021-0.027-0.005-0.052-0.014-0.074-0.026l0.001 0.001c-0.023-0.011-0.042-0.025-0.059-0.040l0 0c-0.007 0.008-0.015 0.017-0.022 0.025-0.010-0.002-0.021-0.004-0.031-0.006 0.010-0.063 0.020-0.126 0.030-0.189l0.032 0.006c0.002 0.024 0.006 0.047 0.011 0.067s0.013 0.040 0.025 0.059c0.011 0.018 0.024 0.033 0.041 0.045s0.037 0.021 0.061 0.026c0.018 0.004 0.034 0.004 0.049 0.002s0.027-0.006 0.036-0.014c0.010-0.007 0.018-0.016 0.025-0.027s0.011-0.023 0.014-0.038c0.001-0.006 0.002-0.013 0.002-0.020 0-0.016-0.003-0.031-0.009-0.045l0 0.001c-0.009-0.022-0.025-0.039-0.048-0.054-0.005-0.004-0.022-0.015-0.040-0.026l-0.014-0.008c-0.020-0.012-0.038-0.023-0.053-0.034-0.028-0.020-0.050-0.042-0.062-0.069s-0.016-0.057-0.009-0.093c0.004-0.021 0.012-0.039 0.024-0.056s0.027-0.030 0.046-0.041c0.018-0.011 0.038-0.018 0.060-0.022 0.009-0.002 0.020-0.002 0.030-0.002 0.013 0 0.026 0.001 0.038 0.004l-0.001-0c0.025 0.005 0.048 0.013 0.067 0.025s0.036 0.024 0.050 0.038c0.007-0.008 0.014-0.015 0.021-0.023l0.031 0.006-0.032 0.183-0.032-0.006c-0.002-0.022-0.004-0.043-0.008-0.064-0.004-0.022-0.011-0.041-0.019-0.059l0.001 0.001c-0.008-0.017-0.020-0.032-0.034-0.044s-0.034-0.020-0.057-0.025c-0.006-0.001-0.013-0.002-0.020-0.002-0.018 0-0.035 0.005-0.049 0.014l0-0c-0.020 0.013-0.033 0.030-0.037 0.053s-0.002 0.044 0.006 0.062c0.008 0.018 0.022 0.034 0.042 0.048 0.017 0.013 0.035 0.024 0.052 0.034s0.033 0.020 0.049 0.031c0.014 0.010 0.028 0.020 0.041 0.031s0.023 0.024 0.032 0.037M18.2 22.203c-0.007-0.003-0.017-0.007-0.031-0.012s-0.026-0.007-0.037-0.006c-0.011 0.001-0.022 0.009-0.034 0.024-0.014 0.017-0.026 0.036-0.037 0.056l-0.001 0.002c-0.039 0.071-0.078 0.142-0.117 0.213-0.015 0.027-0.034 0.047-0.056 0.061s-0.047 0.022-0.072 0.024c-0.025 0.003-0.049 0.001-0.073-0.005s-0.045-0.015-0.064-0.025l0.001 0.001c-0.030-0.016-0.054-0.035-0.073-0.055s-0.033-0.042-0.041-0.064c-0.007-0.016-0.011-0.035-0.011-0.055 0-0.003 0-0.007 0-0.010l-0 0c0.001-0.021 0.007-0.041 0.017-0.059l0.16-0.289c0.004-0.007 0.006-0.014 0.007-0.022l0-0c0-0.007-0.003-0.015-0.008-0.024-0.005-0.008-0.011-0.014-0.018-0.020l-0-0c-0.008-0.007-0.015-0.012-0.020-0.016 0.004-0.008 0.009-0.016 0.013-0.024 0.069 0.038 0.138 0.076 0.207 0.114l-0.014 0.024c-0.007-0.003-0.015-0.007-0.026-0.010-0.007-0.003-0.015-0.005-0.024-0.007l-0.001-0c-0.009-0.001-0.017 0-0.023 0.005s-0.012 0.011-0.016 0.018l-0 0c-0.050 0.090-0.1 0.18-0.149 0.27-0.007 0.013-0.013 0.028-0.018 0.044-0.004 0.011-0.006 0.024-0.006 0.037 0 0.005 0 0.009 0.001 0.013l-0-0.001c0.002 0.018 0.009 0.034 0.020 0.051s0.031 0.032 0.058 0.047c0.025 0.014 0.049 0.022 0.071 0.024s0.041-0.001 0.058-0.009c0.016-0.007 0.030-0.016 0.042-0.028s0.021-0.024 0.028-0.038l0.111-0.201c0.014-0.026 0.024-0.047 0.029-0.066s0.006-0.031 0.001-0.041c-0.005-0.010-0.014-0.021-0.026-0.032-0.009-0.008-0.019-0.016-0.029-0.023l-0.001-0.001 0.014-0.024 0.203 0.112c-0.008 0.015-0.012 0.023-0.017 0.031l0.003-0.006M18.487 22.7c0.009 0.018 0.014 0.037 0.014 0.058s-0.006 0.042-0.018 0.065c-0.012 0.021-0.028 0.038-0.048 0.050l-0.001 0c-0.018 0.010-0.039 0.017-0.062 0.018l-0 0c-0.022 0.002-0.043-0-0.066-0.006-0.025-0.007-0.047-0.016-0.067-0.027l0.001 0.001-0.232-0.134 0.014-0.024c0.006 0.003 0.014 0.006 0.026 0.011s0.020 0.007 0.026 0.008c0.002 0 0.003 0 0.005 0 0.006 0 0.012-0.002 0.018-0.005l-0 0c0.007-0.005 0.012-0.011 0.016-0.018l0-0c0.067-0.116 0.134-0.232 0.2-0.348 0.004-0.007 0.007-0.014 0.008-0.022l0-0c0-0 0-0.001 0-0.001 0-0.009-0.003-0.016-0.008-0.023l0 0c-0.005-0.008-0.012-0.015-0.019-0.021l-0-0c-0.008-0.007-0.014-0.012-0.020-0.016 0.005-0.008 0.009-0.016 0.014-0.024 0.075 0.043 0.151 0.087 0.227 0.13 0.018 0.010 0.033 0.021 0.048 0.034s0.026 0.028 0.035 0.044c0.009 0.016 0.014 0.033 0.015 0.052s-0.004 0.038-0.015 0.058c-0.009 0.016-0.021 0.029-0.035 0.040l-0 0c-0.014 0.010-0.029 0.016-0.046 0.019-0.009 0.002-0.020 0.003-0.031 0.003-0.006 0-0.013-0-0.019-0.001l0.001 0c-0.019-0.002-0.037-0.006-0.055-0.011l0.002 0c-0.001 0.001-0.001 0.002-0.002 0.003 0.015 0.012 0.029 0.024 0.041 0.037l0 0c0.014 0.016 0.026 0.032 0.034 0.049zM18.446 22.579c0.014-0.005 0.026-0.012 0.036-0.022s0.020-0.022 0.029-0.038c0.015-0.027 0.020-0.052 0.014-0.076s-0.025-0.045-0.057-0.063c-0.007-0.004-0.017-0.009-0.028-0.016s-0.021-0.011-0.028-0.015c-0.036 0.062-0.072 0.124-0.107 0.186l0.044 0.025c0.019 0.011 0.037 0.018 0.053 0.021s0.031 0.002 0.045-0.003zM18.405 22.761c0.016-0.028 0.020-0.057 0.011-0.087s-0.031-0.055-0.068-0.076c-0.015-0.008-0.027-0.016-0.037-0.021l-0.023-0.012-0.098 0.171c-0.004 0.006-0.006 0.014-0.006 0.022s0.002 0.014 0.005 0.020l-0-0c0.007 0.014 0.022 0.027 0.043 0.039 0.034 0.020 0.066 0.025 0.096 0.016s0.055-0.033 0.078-0.072zM19.665 23.049c-0.009-0.003-0.020-0.006-0.030-0.008l-0.001-0c-0.007-0.002-0.015-0.003-0.024-0.003-0.005 0-0.010 0-0.014 0.001l0.001-0c-0.011 0.002-0.021 0.011-0.032 0.027s-0.021 0.037-0.032 0.062l-0.096 0.223c-0.012 0.028-0.029 0.051-0.050 0.067-0.020 0.015-0.043 0.026-0.068 0.031l-0.001 0c-0.025 0.005-0.049 0.005-0.073 0.002-0.056-0.009-0.105-0.032-0.144-0.066l0 0c-0.021-0.019-0.037-0.038-0.048-0.059-0.010-0.018-0.016-0.040-0.017-0.063v-0c-0.001-0.021 0.003-0.042 0.011-0.061l0.13-0.304c0.003-0.007 0.005-0.015 0.005-0.023v-0c-0.002-0.009-0.005-0.017-0.011-0.023l0 0c-0.006-0.007-0.012-0.013-0.020-0.018l-0-0c-0.009-0.006-0.016-0.011-0.022-0.014 0.004-0.009 0.007-0.017 0.011-0.026l0.217 0.093c-0.004 0.008-0.007 0.017-0.011 0.026-0.007-0.003-0.016-0.005-0.026-0.007l-0.002-0c-0.007-0.002-0.016-0.004-0.025-0.004l-0.001-0c-0.010-0.001-0.017 0.002-0.023 0.007s-0.010 0.012-0.014 0.020l-0 0c-0.041 0.095-0.081 0.189-0.121 0.284-0.006 0.014-0.011 0.029-0.014 0.045s-0.004 0.033-0 0.050c0.004 0.017 0.012 0.033 0.025 0.049s0.034 0.029 0.062 0.041c0.027 0.012 0.051 0.017 0.073 0.017s0.041-0.005 0.057-0.015c0.015-0.009 0.029-0.019 0.039-0.032s0.018-0.026 0.025-0.040l0.090-0.211c0.012-0.027 0.019-0.050 0.022-0.068s0.002-0.032-0.003-0.041c-0.006-0.010-0.016-0.020-0.029-0.029-0.009-0.007-0.020-0.014-0.030-0.020l-0.001-0.001 0.011-0.026c0.071 0.030 0.142 0.061 0.213 0.091-0.004 0.008-0.008 0.017-0.011 0.025M20.278 23.768l-0.24-0.070 0.008-0.027c0.009 0.002 0.020 0.004 0.034 0.007s0.024 0.003 0.030 0.002c0.009-0.002 0.016-0.006 0.022-0.012l-0 0c0.006-0.006 0.010-0.013 0.012-0.021l0-0 0.113-0.391c-0.001-0-0.003-0.001-0.005-0.001l-0.001-0c-0.105 0.135-0.213 0.269-0.318 0.404-0.006-0.002-0.012-0.004-0.019-0.006-0.013-0.173-0.029-0.345-0.042-0.518-0.001-0-0.003-0.001-0.005-0.001l-0-0c-0.031 0.107-0.062 0.214-0.093 0.321-0.009 0.031-0.014 0.055-0.014 0.072s0.002 0.031 0.008 0.040c0.004 0.007 0.014 0.015 0.031 0.025s0.027 0.016 0.032 0.017l-0.008 0.027c-0.073-0.021-0.146-0.042-0.22-0.063l0.008-0.027c0.012 0.002 0.025 0.004 0.038 0.005s0.024-0 0.033-0.004c0.011-0.005 0.020-0.013 0.028-0.027s0.016-0.038 0.026-0.072l0.079-0.275c0.004-0.011 0.006-0.023 0.006-0.036 0-0.002-0-0.003-0-0.005v0c-0.001-0.011-0.004-0.021-0.009-0.030l0 0c-0.007-0.009-0.015-0.017-0.024-0.023l-0-0c-0.009-0.006-0.020-0.012-0.032-0.015l-0.001-0 0.008-0.027 0.185 0.054c0.012 0.15 0.028 0.299 0.040 0.448 0.076-0.1 0.154-0.199 0.23-0.299 0.009-0.011 0.017-0.023 0.024-0.036 0.005-0.007 0.009-0.016 0.013-0.024l0-0.001c0.059 0.017 0.118 0.034 0.177 0.051l-0.008 0.027c-0.008-0.002-0.017-0.003-0.027-0.004l-0.001-0c-0.007-0.001-0.014-0.002-0.022-0.002-0.001 0-0.003 0-0.004 0h0c-0.009 0-0.017 0.004-0.022 0.010l-0 0c-0.005 0.006-0.009 0.013-0.011 0.021l-0 0c-0.037 0.129-0.075 0.258-0.112 0.387-0.002 0.005-0.003 0.010-0.003 0.016 0 0.003 0 0.005 0.001 0.008l-0-0c0.001 0.007 0.006 0.014 0.013 0.021 0.004 0.004 0.011 0.008 0.023 0.014s0.020 0.009 0.027 0.012l-0.008 0.027M20.86 23.592c0.015 0.013 0.027 0.029 0.035 0.048s0.012 0.041 0.008 0.067c-0.003 0.026-0.012 0.047-0.025 0.065s-0.031 0.031-0.050 0.041c-0.019 0.010-0.040 0.016-0.063 0.020s-0.047 0.004-0.071 0.001c-0.089-0.011-0.177-0.022-0.266-0.033l0.003-0.028c0.006 0 0.016 0 0.028 0 0.001 0 0.002 0 0.003 0 0.009 0 0.017-0.001 0.025-0.003l-0.001 0c0.008-0.002 0.015-0.006 0.019-0.013l0-0c0.004-0.006 0.007-0.014 0.008-0.022v-0c0.017-0.133 0.033-0.266 0.050-0.399 0-0.003 0.001-0.006 0.001-0.008 0-0.006-0.001-0.011-0.002-0.016l0 0c-0.003-0.008-0.009-0.014-0.016-0.019l-0-0c-0.007-0.005-0.016-0.009-0.025-0.012l-0.001-0c-0.010-0.003-0.017-0.006-0.024-0.007 0.001-0.009 0.002-0.019 0.003-0.028 0.086 0.011 0.173 0.022 0.259 0.033 0.020 0.003 0.039 0.007 0.057 0.013s0.034 0.015 0.049 0.027c0.014 0.011 0.026 0.025 0.034 0.042s0.010 0.037 0.008 0.059c-0.002 0.019-0.008 0.036-0.017 0.050s-0.021 0.026-0.035 0.036l-0 0c-0.013 0.009-0.029 0.016-0.045 0.021s-0.034 0.009-0.052 0.010l-0.001 0-0.001 0.004c0.016 0.004 0.033 0.010 0.053 0.018s0.036 0.019 0.050 0.032zM20.774 23.496c0.011-0.010 0.020-0.021 0.025-0.034s0.009-0.028 0.011-0.047c0.004-0.030-0.002-0.055-0.016-0.075s-0.040-0.031-0.077-0.036c-0.013-0.002-0.035-0.004-0.057-0.006l-0.007-0.001c-0.009 0.071-0.018 0.142-0.027 0.214 0.017 0.002 0.033 0.004 0.050 0.006 0.022 0.003 0.041 0.002 0.057-0.001s0.029-0.010 0.040-0.020zM20.807 23.68c0.004-0.033-0.004-0.061-0.023-0.085s-0.050-0.038-0.092-0.044c-0.017-0.002-0.031-0.004-0.043-0.005s-0.020-0.002-0.026-0.002l-0.025 0.196c-0 0.002-0.001 0.004-0.001 0.007 0 0.013 0.006 0.025 0.016 0.033l0 0c0.012 0.010 0.031 0.016 0.055 0.019 0.039 0.005 0.071-0.002 0.094-0.022s0.039-0.052 0.044-0.096zM21.569 23.856h-0.153c-0.033-0.053-0.064-0.097-0.091-0.136s-0.057-0.077-0.089-0.118h-0.058v0.177c0 0.009 0.002 0.017 0.004 0.024s0.009 0.012 0.019 0.016c0.005 0.002 0.013 0.003 0.025 0.005s0.022 0.002 0.030 0.003v0.028h-0.239v-0.028c0.006-0 0.015-0.002 0.028-0.003s0.020-0.003 0.025-0.005c0.007-0.003 0.013-0.008 0.017-0.015l0-0c0.003-0.006 0.005-0.014 0.005-0.022 0-0.001-0-0.002-0-0.003v0-0.404c0-0.009-0.001-0.017-0.004-0.025s-0.009-0.012-0.019-0.016c-0.007-0.003-0.016-0.005-0.025-0.007l-0.001-0c-0.011-0.002-0.020-0.003-0.027-0.004v-0.028h0.261c0.024 0 0.046 0.002 0.067 0.007s0.041 0.013 0.058 0.024l-0.001-0c0.016 0.011 0.030 0.024 0.039 0.041s0.015 0.037 0.015 0.061c0 0.022-0.003 0.041-0.010 0.057s-0.017 0.031-0.030 0.043c-0.012 0.012-0.027 0.021-0.042 0.029l-0.001 0c-0.017 0.008-0.035 0.015-0.055 0.021 0.027 0.037 0.051 0.067 0.070 0.092s0.041 0.055 0.068 0.091c0.015 0.022 0.036 0.040 0.059 0.053l0.001 0c0.007 0.004 0.016 0.006 0.026 0.008s0.019 0.003 0.026 0.003c-0 0.009-0 0.018-0 0.028zM21.36 23.44c0-0.034-0.010-0.060-0.029-0.081s-0.047-0.030-0.083-0.030h-0.068v0.239h0.052c0.037 0 0.068-0.011 0.092-0.035s0.037-0.055 0.037-0.095zM22.222 23.814l-0.235 0.018c-0.001-0.009-0.001-0.019-0.002-0.028 0.021-0.003 0.038-0.007 0.051-0.012s0.020-0.010 0.019-0.016c-0-0.002-0.001-0.005-0.001-0.009s-0.002-0.006-0.003-0.009l0 0c-0.018-0.041-0.038-0.081-0.056-0.121l-0.198 0.015c-0.004 0.012-0.009 0.028-0.013 0.045l-0.001 0.004c-0.004 0.014-0.007 0.027-0.010 0.039-0.002 0.008-0.004 0.017-0.005 0.027l-0 0.001c-0.001 0.007-0.001 0.013-0.001 0.017 0.001 0.011 0.010 0.018 0.027 0.023s0.036 0.006 0.057 0.006l0.002 0.028-0.213 0.016c-0.001-0.009-0.001-0.019-0.002-0.028 0.007-0.001 0.015-0.003 0.025-0.007s0.018-0.007 0.025-0.012c0.010-0.008 0.018-0.016 0.023-0.024s0.010-0.019 0.015-0.033c0.022-0.072 0.049-0.153 0.076-0.243s0.053-0.17 0.074-0.24l0.032-0.002c0.074 0.156 0.151 0.31 0.225 0.466 0.005 0.010 0.010 0.018 0.015 0.024s0.013 0.012 0.023 0.017c0.006 0.003 0.014 0.006 0.025 0.007s0.018 0.003 0.025 0.002c0.001 0.010 0.001 0.019 0.002 0.028zM21.977 23.604c-0.034-0.070-0.069-0.139-0.102-0.209-0.022 0.074-0.046 0.148-0.068 0.222 0.057-0.004 0.113-0.009 0.17-0.013zM23.025 23.163c-0.023 0.006-0.032 0.008-0.042 0.011l0.013-0.003c-0.011-0.019-0.028-0.037-0.051-0.055s-0.043-0.026-0.059-0.024c-0.008 0.001-0.018 0.003-0.029 0.005s-0.024 0.006-0.038 0.010c-0.031 0.008-0.061 0.017-0.092 0.025l0.059 0.217 0.063-0.017c0.019-0.005 0.034-0.011 0.043-0.018s0.017-0.015 0.022-0.025c0.004-0.007 0.006-0.017 0.007-0.030s0.001-0.026-0.002-0.040l0.029-0.008c0.019 0.071 0.038 0.142 0.057 0.212-0.009 0.002-0.019 0.005-0.029 0.008-0.005-0.014-0.011-0.026-0.019-0.037l0 0.001c-0.009-0.013-0.016-0.022-0.023-0.027-0.009-0.007-0.021-0.012-0.034-0.012h-0c-0.016 0-0.031 0.003-0.045 0.007l0.001-0-0.063 0.017c0.017 0.062 0.034 0.124 0.050 0.186 0.002 0.008 0.006 0.015 0.011 0.021s0.012 0.009 0.022 0.011c0.004 0.001 0.013 0.001 0.027-0.001s0.024-0.003 0.030-0.004c0.002 0.009 0.005 0.018 0.007 0.027-0.079 0.021-0.158 0.043-0.237 0.064-0.002-0.009-0.005-0.018-0.007-0.027 0.008-0.002 0.018-0.006 0.030-0.011s0.020-0.008 0.024-0.011c0.007-0.005 0.011-0.012 0.013-0.019 0.001-0.003 0.001-0.007 0.001-0.010 0-0.005-0.001-0.010-0.002-0.015l0 0-0.106-0.389c-0.002-0.008-0.006-0.015-0.010-0.022l0 0c-0.005-0.005-0.012-0.009-0.022-0.011-0.006-0.001-0.014-0.001-0.021-0.001-0.003 0-0.006 0-0.009 0l0-0c-0.011 0-0.021 0.001-0.031 0.003l0.001-0-0.007-0.027 0.429-0.116c0.012 0.045 0.024 0.090 0.037 0.135M23.656 23.115c0.021 0.052 0.041 0.103 0.062 0.155l-0.399 0.193-0.012-0.025c0.006-0.003 0.013-0.008 0.024-0.015 0.008-0.004 0.014-0.010 0.020-0.015v0c0.005-0.006 0.009-0.013 0.009-0.021v-0c-0-0.009-0.002-0.018-0.006-0.025l0 0-0.174-0.36c-0.004-0.008-0.008-0.014-0.014-0.019l-0-0c-0.006-0.004-0.013-0.007-0.020-0.007-0.001 0-0.002 0-0.003 0h0c-0.007-0.001-0.016 0-0.027 0.002-0.010 0.002-0.019 0.004-0.028 0.007l0.001-0-0.012-0.025 0.215-0.104 0.012 0.025c-0.009 0.005-0.017 0.010-0.025 0.016l0-0c-0.010 0.007-0.017 0.013-0.020 0.017-0.006 0.005-0.010 0.012-0.010 0.021 0 0.001 0 0.001 0 0.002v-0c0 0.009 0.002 0.017 0.006 0.024l-0-0 0.163 0.338c0.007 0.015 0.014 0.027 0.020 0.035s0.013 0.013 0.021 0.015c0.007 0.002 0.017 0.001 0.028-0.004s0.027-0.010 0.047-0.020c0.009-0.004 0.018-0.009 0.027-0.014s0.018-0.011 0.026-0.016c0.008-0.006 0.014-0.012 0.020-0.017 0.005-0.004 0.009-0.010 0.011-0.017l0-0c0.004-0.016 0.008-0.037 0.011-0.066s0.003-0.050 0.001-0.067c0.009-0.004 0.017-0.008 0.026-0.012M23.954 22.561c0.038 0.011 0.070 0.028 0.098 0.051l-0.001-0c0.031 0.025 0.057 0.055 0.080 0.093 0.020 0.033 0.035 0.072 0.043 0.113l0 0.002c0.006 0.038 0.004 0.075-0.004 0.11s-0.024 0.065-0.045 0.094c-0.021 0.029-0.047 0.052-0.080 0.071-0.034 0.020-0.069 0.033-0.105 0.037s-0.071 0.002-0.105-0.009c-0.037-0.011-0.069-0.029-0.096-0.051l0 0c-0.031-0.025-0.056-0.055-0.076-0.088l-0.001-0.002c-0.021-0.033-0.036-0.072-0.043-0.114l-0-0.002c-0.002-0.013-0.003-0.029-0.003-0.045 0-0.023 0.003-0.046 0.008-0.067l-0 0.002c0.008-0.035 0.024-0.066 0.045-0.095s0.048-0.052 0.079-0.070c0.029-0.018 0.064-0.031 0.101-0.036l0.001-0c0.011-0.002 0.024-0.003 0.037-0.003 0.024 0 0.047 0.003 0.070 0.010l-0.002-0zM24.104 22.933c0-0.001 0-0.003 0-0.004 0-0.029-0.005-0.058-0.014-0.084l0.001 0.002c-0.009-0.029-0.024-0.060-0.043-0.092s-0.040-0.060-0.064-0.086l0 0c-0.023-0.024-0.047-0.041-0.071-0.053-0.021-0.011-0.045-0.017-0.072-0.017-0.001 0-0.002 0-0.003 0h0c-0.025 0-0.050 0.008-0.075 0.022-0.027 0.016-0.047 0.036-0.059 0.060s-0.018 0.050-0.018 0.078c0 0.027 0.005 0.055 0.016 0.085s0.024 0.060 0.041 0.089c0.019 0.032 0.040 0.060 0.061 0.083s0.045 0.040 0.069 0.053c0.024 0.013 0.049 0.018 0.074 0.019s0.051-0.007 0.077-0.023c0.024-0.014 0.044-0.034 0.056-0.056s0.020-0.048 0.020-0.076zM24.807 22.552c-0.041 0.029-0.083 0.059-0.125 0.088-0.057-0.024-0.109-0.042-0.153-0.058s-0.091-0.029-0.14-0.044l-0.048 0.034 0.103 0.145c0.005 0.007 0.012 0.013 0.017 0.017s0.015 0.005 0.025 0.002c0.005-0.001 0.013-0.005 0.024-0.010s0.019-0.011 0.026-0.015l0.016 0.023c-0.065 0.046-0.13 0.092-0.195 0.138l-0.016-0.023c0.005-0.004 0.012-0.010 0.021-0.018s0.015-0.014 0.018-0.019c0.003-0.005 0.006-0.011 0.006-0.018 0-0.001-0-0.003-0-0.004l0 0c-0.001-0.009-0.005-0.017-0.010-0.024l0 0c-0.078-0.11-0.156-0.22-0.234-0.33-0.005-0.007-0.011-0.013-0.017-0.017l-0-0c-0.006-0.004-0.014-0.005-0.024-0.002-0.019 0.006-0.035 0.013-0.050 0.023l0.001-0-0.016-0.023 0.213-0.151c0.017-0.012 0.037-0.023 0.057-0.032l0.002-0.001c0.018-0.008 0.038-0.013 0.060-0.014l0-0c0.020-0.001 0.038 0.002 0.056 0.010s0.034 0.022 0.048 0.042c0.013 0.018 0.021 0.035 0.025 0.052s0.005 0.034 0.001 0.052c-0.004 0.018-0.010 0.035-0.019 0.049l0-0.001c-0.010 0.019-0.021 0.035-0.033 0.050l0-0.001c0.044 0.014 0.081 0.025 0.11 0.035s0.066 0.021 0.108 0.035c0.017 0.006 0.037 0.010 0.058 0.010 0.008 0 0.015-0.001 0.023-0.002l-0.001 0c0.008-0.001 0.016-0.004 0.026-0.009s0.017-0.009 0.023-0.012c0.005 0.008 0.011 0.015 0.016 0.023zM24.395 22.333c-0.020-0.028-0.044-0.043-0.071-0.049s-0.056 0.003-0.085 0.024c-0.018 0.013-0.037 0.026-0.055 0.039l0.139 0.196c0.014-0.010 0.028-0.020 0.043-0.030 0.030-0.021 0.049-0.048 0.055-0.081s-0.002-0.066-0.024-0.098zM25.273 22.2c0.016 0.053 0.031 0.105 0.047 0.158-0.147 0.055-0.294 0.109-0.441 0.164-0.003-0.009-0.007-0.018-0.010-0.026 0.007-0.003 0.017-0.008 0.029-0.014s0.020-0.011 0.023-0.014c0.006-0.005 0.010-0.012 0.011-0.020l0-0c0-0.002 0-0.003 0-0.005 0-0.007-0.001-0.013-0.004-0.019l0 0c-0.047-0.126-0.093-0.251-0.14-0.377-0.003-0.008-0.007-0.015-0.012-0.020l0 0c-0.005-0.005-0.013-0.008-0.023-0.009-0.008-0.001-0.018 0-0.030 0.002s-0.022 0.003-0.029 0.006c-0.003-0.009-0.007-0.018-0.010-0.026l0.411-0.153 0.047 0.126c-0.009 0.004-0.019 0.007-0.028 0.010-0.012-0.017-0.030-0.033-0.054-0.048s-0.045-0.021-0.061-0.017c-0.012 0.003-0.021 0.005-0.030 0.009l0.002-0.001c-0.011 0.004-0.023 0.008-0.037 0.013l-0.083 0.031c0.026 0.069 0.052 0.139 0.077 0.208 0.020-0.007 0.040-0.015 0.060-0.022 0.019-0.007 0.033-0.014 0.040-0.021s0.013-0.016 0.016-0.026l0-0c0.003-0.009 0.004-0.020 0.004-0.034s-0.002-0.025-0.005-0.036c0.009-0.003 0.019-0.007 0.028-0.010l0.076 0.206c-0.009 0.004-0.019 0.007-0.028 0.010-0.007-0.013-0.014-0.025-0.022-0.035l0 0c-0.009-0.011-0.017-0.019-0.025-0.023-0.009-0.006-0.019-0.009-0.031-0.009-0.001 0-0.002 0-0.002 0h0c-0.011 0-0.025 0.004-0.041 0.010l-0.060 0.022c0.019 0.053 0.039 0.105 0.058 0.158 0.006 0.016 0.012 0.027 0.017 0.036 0.005 0.007 0.012 0.013 0.020 0.016l0 0c0.008 0.002 0.018 0.002 0.030-0.001s0.028-0.008 0.049-0.016c0.008-0.003 0.019-0.007 0.033-0.012s0.025-0.009 0.033-0.014c0.009-0.005 0.018-0.010 0.028-0.016s0.015-0.012 0.017-0.019c0.007-0.016 0.013-0.039 0.016-0.067s0.006-0.049 0.004-0.061c0.009-0.003 0.018-0.007 0.027-0.010M25.747 21.812c0.028 0.023 0.052 0.050 0.070 0.085s0.031 0.073 0.037 0.117c0.006 0.044 0.004 0.085-0.006 0.123s-0.026 0.072-0.048 0.101l0-0.001c-0.021 0.028-0.047 0.051-0.078 0.069s-0.064 0.029-0.101 0.034c-0.039 0.005-0.076 0.003-0.111-0.008s-0.067-0.026-0.093-0.049c-0.028-0.023-0.050-0.051-0.067-0.083l-0.001-0.002c-0.018-0.033-0.031-0.071-0.036-0.111l-0-0.002c-0.002-0.014-0.003-0.031-0.003-0.048 0-0.027 0.003-0.053 0.009-0.078l-0 0.002c0.009-0.037 0.026-0.070 0.047-0.099 0.042-0.056 0.106-0.094 0.178-0.104l0.001-0c0.011-0.002 0.024-0.003 0.037-0.003 0.025 0 0.049 0.003 0.073 0.010l-0.002-0c0.035 0.010 0.066 0.025 0.093 0.047zM25.74 22.213c0.012-0.026 0.019-0.054 0.022-0.085s0.001-0.064-0.004-0.101c-0.005-0.038-0.014-0.073-0.026-0.106l0.001 0.003c-0.011-0.029-0.026-0.055-0.044-0.077l0 0c-0.016-0.019-0.037-0.034-0.061-0.044l-0.001-0c-0.016-0.007-0.035-0.010-0.055-0.010-0.008 0-0.016 0.001-0.024 0.002l0.001-0c-0.032 0.004-0.058 0.015-0.078 0.032s-0.036 0.039-0.047 0.065c-0.010 0.025-0.016 0.052-0.018 0.084s-0.002 0.064 0.003 0.098c0.005 0.037 0.013 0.071 0.024 0.1s0.025 0.055 0.043 0.076c0.017 0.022 0.037 0.036 0.061 0.047s0.050 0.013 0.080 0.009c0.028-0.003 0.053-0.014 0.074-0.030l-0 0c0.021-0.016 0.037-0.037 0.048-0.061l0-0.001z"></path>
</svg>
