<!-- Generated by IcoMoon.io -->
<svg version="1.1" xmlns="http://www.w3.org/2000/svg" width="43" height="32" viewBox="0 0 43 32">
<title>CAD</title>
<path fill="#fff" d="M10.012 0h22.642v32h-22.642z"></path>
<path fill="#bf0a30" d="M-1.309 0h11.321v32h-11.321zM32.654 0h11.321v32h-11.321zM13.398 15.463l-0.879 0.3 4.091 3.59c0.309 0.923-0.108 1.195-0.373 1.679l4.441-0.564-0.116 4.47 0.92-0.026-0.201-4.432 4.446 0.527c-0.275-0.581-0.52-0.89-0.265-1.819l4.088-3.402-0.715-0.259c-0.585-0.451 0.253-2.174 0.379-3.261 0 0-2.387 0.821-2.544 0.391l-0.608-1.168-2.172 2.386c-0.237 0.057-0.338-0.037-0.394-0.238l1.003-4.985-1.589 0.894c-0.133 0.057-0.266 0.008-0.354-0.147l-1.528-3.066-1.576 3.184c-0.119 0.114-0.238 0.127-0.336 0.050l-1.513-0.849 0.908 4.946c-0.072 0.196-0.245 0.252-0.449 0.145l-2.076-2.359c-0.272 0.435-0.456 1.146-0.815 1.305-0.359 0.149-1.561-0.301-2.367-0.477 0.275 0.993 1.136 2.644 0.591 3.185z"></path>
</svg>
