<!-- Generated by IcoMoon.io -->
<svg version="1.1" xmlns="http://www.w3.org/2000/svg" width="53" height="32" viewBox="0 0 53 32">
<title>CVE</title>
<path fill="#fff" d="M0 14.565h52.909v12.873h-52.909v-12.873z"></path>
<path fill="#081873" d="M0.042 0h52.872v16.041h-52.872v-16.041z"></path>
<path fill="#081873" d="M0.057 24.116h53.259v7.884h-53.259v-7.883z"></path>
<path fill="#de3929" d="M0.057 18.909h52.872v2.478h-52.872v-2.478z"></path>
<path fill="#ffce08" d="M15.897 24.948l0.416 1.279h1.345l-1.088 0.791 0.416 1.279-1.088-0.791-1.088 0.791 0.416-1.279-1.088-0.791h1.345z"></path>
<path fill="#ffce08" d="M27.521 15.656l0.416 1.279h1.345l-1.088 0.791 0.416 1.279-1.088-0.791-1.088 0.791 0.416-1.279-1.088-0.791h1.345z"></path>
<path fill="#ffce08" d="M13.232 20.966l0.416 1.279h1.345l-1.088 0.791 0.416 1.279-1.088-0.791-1.088 0.791 0.416-1.279-1.088-0.791h1.345z"></path>
<path fill="#ffce08" d="M27.521 20.591l0.416 1.279h1.345l-1.088 0.791 0.416 1.279-1.088-0.791-1.088 0.791 0.416-1.279-1.088-0.791h1.345z"></path>
<path fill="#ffce08" d="M24.578 11.761l0.416 1.279h1.345l-1.088 0.791 0.416 1.279-1.088-0.791-1.088 0.791 0.416-1.279-1.088-0.791h1.345z"></path>
<path fill="#ffce08" d="M20.136 10.214l0.416 1.279h1.345l-1.088 0.791 0.416 1.279-1.088-0.791-1.088 0.791 0.416-1.279-1.088-0.791h1.345z"></path>
<path fill="#ffce08" d="M15.693 11.674l0.416 1.279h1.345l-1.088 0.791 0.416 1.279-1.088-0.791-1.088 0.791 0.416-1.279-1.088-0.791h1.345z"></path>
<path fill="#ffce08" d="M13.101 15.656l0.416 1.279h1.345l-1.088 0.791 0.416 1.279-1.088-0.791-1.088 0.791 0.416-1.279-1.088-0.791h1.345z"></path>
<path fill="#ffce08" d="M20.136 26.275l0.416 1.279h1.345l-1.088 0.791 0.416 1.279-1.088-0.791-1.088 0.791 0.416-1.279-1.088-0.791h1.345z"></path>
<path fill="#ffce08" d="M24.856 24.948l0.416 1.279h1.345l-1.088 0.791 0.416 1.279-1.088-0.791-1.088 0.791 0.416-1.279-1.088-0.791h1.345z"></path>
</svg>
