<!-- Generated by IcoMoon.io -->
<svg version="1.1" xmlns="http://www.w3.org/2000/svg" width="43" height="32" viewBox="0 0 43 32">
<title>DOP3</title>
<path fill="#003994" d="M20.441 14.132c-0.371 0.007-0.868 0.032-1.194 0.22-0.216 0.125-0.193 0.476 0.094 0.467v0.030h-0.063v0.030l0.471-0.12v-0.030h-0.189v-0.030h0.22l-0.063-0.12 1.131-0.12-0.063-0.209c0.422-0.051 0.757-0.014 1.163 0.090v0.030l-0.251-0.060c0.029 0.13 0.176 0.097 0.283 0.060l-0.314 0.060v0.030l0.723 0.065 0.754 0.174v0.030l-0.409-0.060v0.030l0.503 0.149-0.094-0.090v-0.030l0.126 0.15c0.199 0.008 0.349 0.053 0.471 0.209l-0.44-0.179 0.251 0.568h0.031v-0.090h0.031v0.090l0.283-0.060c-0.073-0.301-0.199-0.657-0.503-0.807 0.027-0.115-0-0.165-0.094-0.239 0.117 0.23-0.078 0.325-0.251 0.149l-0.063 0.060 0.063-0.209-0.189 0.179 0.031-0.209h-0.031l-0.031 0.179-0.094-0.090-0.031 0.090-0.503-0.060v-0.269l0.063 0.090h0.032v-0.090l0.157 0.090h0.031l0.628 0.030 0.031 0.239h0.031l0.094-0.209c-0.363-0.153-0.8-0.202-1.194-0.209 0.021-0.203-0.203-0.24-0.377-0.265-0.3-0.043-1.223-0.149-1.257 0.265z"></path>
<path fill="#295284" d="M20.984 13.9v0zM21.046 13.9v0zM21.235 13.9v0z"></path>
<path fill="#9c9494" d="M22.114 14.020v0zM20.386 14.049l0.031 0.030-0.031-0.030z"></path>
<path fill="#bd9c29" d="M19.496 14.359v0zM19.569 14.349l0.032 0.030-0.031-0.030z"></path>
<path fill="#6b735a" d="M22.523 14.409v0zM22.649 14.409v0zM22.712 14.409v0z"></path>
<path fill="#ad9431" d="M19.842 14.448v0zM19.915 14.438l0.032 0.030-0.031-0.030z"></path>
<path fill="#003994" d="M19.035 14.648c-0.090 0.094-0.218 0.199-0.157 0.329-0.167 0.090-0.196 0.285-0.251 0.448l0.346 0.060 0.251-0.568-0.346 0.030v-0.030l0.314-0.030-0.157-0.239z"></path>
<path fill="#00216b" d="M18.878 14.797v0zM19.129 14.797l0.031 0.030-0.031-0.030z"></path>
<path fill="#00216b" d="M22.869 14.797v0zM23.026 14.797h-0z"></path>
<path fill="#00216b" d="M23.152 14.827v0zM23.277 14.827v0zM23.654 14.827h-0z"></path>
<path fill="#cecece" d="M19.224 14.946v0zM23.277 14.946l0.063 0.060-0.063-0.060z"></path>
<path fill="#bdbdbd" d="M19.475 15.006v0.030h3.614l-1.1-0.030h-2.514zM23.34 15.006v0z"></path>
<path fill="#003994" d="M19.506 15.036l0.264 0.329 0.019 1.166h0.283c0-0.372 0.083-0.753-0.189-1.047l0.377 0.239-0.157-0.448 0.88 0.837-0.66-1.017 0.628 0.807h0.032v-0.867h-1.477z"></path>
<path fill="#de2110" d="M21.549 15.036v0.837l0.66-0.777-0.66 1.017 0.911-0.837-0.189 0.419 0.377-0.239c-0.203 0.372-0.189 0.65-0.189 1.076h0.283l0.019-1.166 0.264-0.329h-1.477z"></path>
<path fill="#9c9494" d="M18.658 15.515v0zM18.878 15.515h-0z"></path>
<path fill="#001010" d="M20.355 15.515v0zM20.606 15.515l0.031 0.030-0.031-0.030z"></path>
<path fill="#428c00" d="M19.067 15.544l-0.063 0.239h-0.031l0.063-0.209h-0.031l-0.031 0.239 0.126-0.060-0.157 0.239 0.126-0.090-0.157 0.12-0.031 0.149h0.031l0.314-0.359-0.094 0.030v-0.030l0.094-0.030v-0.030h-0.126l-0.031-0.209z"></path>
<path fill="#319400" d="M23.592 15.544l0.031 0.628h0.031l0.094-0.538h-0.031l-0.063 0.359h-0.031l-0.031-0.448z"></path>
<path fill="#001039" d="M20.449 15.604v0zM20.669 15.604h-0z"></path>
<path fill="#ffce08" d="M21.235 15.634v0.149h-0.126v0.090h0.126v0.359h0.031l0.031-0.359h0.157v-0.090h-0.157v-0.149h-0.063z"></path>
<path fill="#428c00" d="M18.784 15.664c-0.085 0.183-0.074 0.294 0 0.478h0.063l0.063-0.448h-0.031l-0.031 0.359h-0.063v-0.389z"></path>
<path fill="#002984" d="M20.072 15.694v0.837h-0.283v0.030l0.314-0.030v0.149h0.031c0-0.258 0.103-0.778-0.063-0.987z"></path>
<path fill="#001010" d="M20.135 15.694v0zM20.198 15.694h0z"></path>
<path fill="#00216b" d="M20.481 15.724v0zM20.575 15.724h0z"></path>
<path fill="#319400" d="M23.246 15.724l0.251 0.957h-0.031c-0.050-0.168-0.249-0.805-0.503-0.568 0.337 0.014 0.448 0.584 0.503 0.837h0.031l0.408-1.196h-0.031l-0.314 0.777h-0.031c-0.085-0.254-0.078-0.613-0.283-0.807z"></path>
<path fill="#00216b" d="M20.292 15.754v0zM20.512 15.754h-0z"></path>
<path fill="#294200" d="M18.815 15.784v0.090h0.031l-0.031-0.090zM19.035 15.784h-0zM19.182 15.794v0z"></path>
<path fill="#294200" d="M18.689 15.814v0zM18.941 15.814v0zM19.004 15.814v0z"></path>
<path fill="#311000" d="M21.675 15.814v0zM21.863 15.814h0z"></path>
<path fill="#103900" d="M18.973 15.844l-0.031 0.090h0.031v-0.090zM19.098 15.844v0z"></path>
<path fill="#397b00" d="M18.92 15.893v0zM18.972 15.873h-0z"></path>
<path fill="#294200" d="M18.92 15.953v0zM19.004 15.933h-0z"></path>
<path fill="#428c00" d="M19.475 16.382h-0.031v-0.329h-0.031l-0.031 0.149h-0.031v-0.149h-0.031l-0.189 0.688h0.031l0.063-0.12h0.031l-0.063 0.149h0.031l0.157-0.209-0.126 0.269h0.031l0.318-0.448 0.059-0.448c-0.205 0.094-0.189 0.255-0.189 0.448z"></path>
<path fill="#297b00" d="M23.749 15.963v0zM23.812 15.963h0z"></path>
<path fill="#297b00" d="M23.874 15.993v0zM23.937 15.993l-0.189 0.12v0.030l0.063 0.030 0.126-0.179z"></path>
<path fill="#103900" d="M18.878 16.023v0zM18.941 16.023h0z"></path>
<path fill="#294200" d="M19.58 16.043v0zM19.633 16.023v0.209h0.031l-0.031-0.209z"></path>
<path fill="#8c8c8c" d="M22.020 16.023v0.807h0.031l-0.031-0.807zM22.963 16.023v0z"></path>
<path fill="#efefef" d="M19.098 16.053v0zM19.255 16.053l0.031 0.030-0.031-0.030z"></path>
<path fill="#184a00" d="M23.434 16.143v0zM23.592 16.143l0.063 0.060-0.063-0.060z"></path>
<path fill="#9c9494" d="M21.706 16.172v0zM21.8 16.172h0z"></path>
<path fill="#296300" d="M23.592 16.172v0.090h0.031l-0.031-0.090zM23.654 16.172v0z"></path>
<path fill="#428c00" d="M18.689 16.232l0.063 0.12-0.094-0.060c0.031 0.121 0.063 0.194 0.189 0.239v0.030l-0.126-0.030 0.063 0.090-0.094-0.030 0.283 0.269 0.031-0.12 0.094 0.060-0.189-0.179v-0.030l0.094 0.030c-0.046-0.181-0.139-0.302-0.314-0.389z"></path>
<path fill="#294200" d="M19.192 16.232v0.269h0.031l-0.031-0.269zM19.329 16.252h-0z"></path>
<path fill="#de2110" d="M21.738 16.262l-0.126 0.090 0.126 0.389-0.22 0.060 0.031 0.12 0.22-0.030-0.031-0.628z"></path>
<path fill="#319400" d="M23.089 16.322l0.251 0.957h-0.031v-0.060h-0.031l0.031 0.269h-0.031v-0.060h-0.031v0.239h-0.031c-0.003-0.305-0.123-0.577-0.283-0.837l-0.063 0.060v0.030c0.23 0.219 0.301 0.687 0.314 0.987h-0.063l-0.126-0.628h-0.031l0.094 0.837h-0.031l-0.126-0.628h-0.032l0.094 0.957h-0.031l-0.063-0.777h-0.031l0.063 0.777h-0.032l-0.031-0.419h-0.031l0.031 0.508h-0.031l-0.031-0.419h-0.031l-0.094 0.568 0.346-0.030v-0.030l-0.22-0.030v-0.030l0.817 0.209v-0.030l-0.377-0.12v-0.030l0.566 0.12c-0.177-0.215-0.403-0.18-0.66-0.15v-0.030l0.723 0.030v-0.030l-0.503-0.12v-0.030l0.503 0.030v-0.030c-0.359-0.078-0.539-0.033-0.817 0.209l0.063-0.299h-0.031l-0.031 0.090h-0.031l0.157-0.448h0.031l-0.031 0.329 0.723-0.269v-0.030l-0.66 0.179c0.252-0.197 0.616-0.364 0.943-0.389v-0.030c-0.376 0-0.578 0.086-0.88 0.299 0.236-0.293 0.604-0.323 0.943-0.448v-0.030c-0.427 0.032-0.629 0.129-0.974 0.359 0.213-0.203 0.577-0.556 0.911-0.478l-0.063-0.149c-0.289 0.065-0.541 0.225-0.754 0.419 0.146-0.196 0.661-0.738 0.911-0.718-0.254-0.222-0.742 0.455-0.911 0.598l0.691-0.747-0.597 0.508 0.66-0.837v-0.030c-0.313 0.11-0.405 0.482-0.628 0.688l0.471-0.747c-0.21 0.144-0.381 0.418-0.44 0.658-0.145 0.017-0.094 0.245-0.094 0.359h-0.031c0-0.363-0.044-0.805-0.283-1.106z"></path>
<path fill="#397b00" d="M19.444 16.352v0zM19.601 16.352l0.031 0.030-0.031-0.030z"></path>
<path fill="#dedede" d="M21.486 16.352v0zM21.549 16.352h0z"></path>
<path fill="#efefef" d="M21.392 16.382l0.063 0.179h0.031l-0.094-0.179zM21.486 16.382v0z"></path>
<path fill="#103900" d="M23.497 16.412v0zM23.56 16.412h0zM23.654 16.412h0zM23.78 16.412h0z"></path>
<path fill="#8c8c8c" d="M21.109 16.591v0.030l0.157-0.030h-0.157zM21.423 16.561v0z"></path>
<path fill="#294200" d="M19.255 16.591v0zM19.318 16.591h0z"></path>
<path fill="#8c8c8c" d="M22.429 16.591v0.389h0.031l-0.031-0.389zM22.743 16.591v0.448h0.031l-0.031-0.448z"></path>
<path fill="#8c8c8c" d="M21.235 16.621v0.030h0.094l-0.094-0.030zM21.361 16.621l-0.094 0.060v0.030l0.094-0.090zM21.455 16.621h0z"></path>
<path fill="#cecece" d="M21.518 16.621v0zM21.643 16.621h0z"></path>
<path fill="#294200" d="M19.287 16.651v0zM19.349 16.651h0z"></path>
<path fill="#185200" d="M23.152 16.651v0zM23.246 16.651h0z"></path>
<path fill="#397b00" d="M18.815 16.741v0zM19.004 16.741h0zM19.067 16.741v0z"></path>
<path fill="#428c00" d="M19.279 17.076h-0.031c-0.006-0.171-0.073-0.281-0.251-0.329 0.004 0.091 0.070 0.447 0.22 0.329h0.031l-0.063 0.269c0.094-0.099 0.481-0.448 0.313-0.601-0.144-0.131-0.218 0.267-0.219 0.332z"></path>
<path fill="#297b00" d="M23.215 16.771v0zM23.277 16.771h0z"></path>
<path fill="#dedede" d="M19.79 16.83v0zM20.387 16.83h-0z"></path>
<path fill="#de2110" d="M21.266 16.86v0.030h0.094c-0.241 0.374-0.065 0.877-0.031 1.286h0.031c0.088-0.366 0.096-0.893 0-1.256l0.126 0.060 0.031-0.12-0.031-0.030-0.22 0.030z"></path>
<path fill="#185200" d="M23.34 16.86v0zM23.403 16.86h0z"></path>
<path fill="#428c00" d="M19.506 17.129l0.063-0.030v0.030l-0.22 0.179c0.195-0.074 0.294-0.176 0.377-0.359l-0.094 0.060 0.063-0.12-0.189 0.239z"></path>
<path fill="#428c00" d="M18.784 16.92v0.149h-0.031l-0.031-0.090h-0.031l0.031 0.299h-0.031l-0.031-0.329h-0.031l-0.031 0.239h-0.031l-0.157-0.12 0.094 0.179h-0.031l-0.126-0.149c0.106 0.354 0.256 0.305 0.508 0.504 0.093 0.074 0.152 0.234 0.215 0.333l-0.126-0.090 0.063 0.090-0.157-0.090 0.189 0.179 0.031-0.090h0.032c-0.079 0.143-0.219 0.16-0.377 0.179v-0.030l0.063-0.060 0.157 0.030c-0.113-0.113-0.254-0.132-0.408-0.090l0.189 0.15v0.030l-0.189 0.209 0.377-0.060-0.031 0.060h0.031l-0.189 0.090v0.030c0.318-0.039 0.356-0.145 0.534-0.359-0.025 0.096-0.025 0.15 0.063 0.209l-0.049-0.357 0.426-0.48-0.157 0.12 0.126-0.179c-0.178 0.035-0.255 0.16-0.251 0.329l-0.189 0.179h-0.031c0.067-0.188 0.249-0.295 0.189-0.508-0.164 0.116-0.211 0.259-0.22 0.448l-0.126-0.598 0.031 0.12h-0.031v-0.060h-0.031l0.031 0.419h-0.031c-0.098-0.229-0.012-0.689-0.22-0.837z"></path>
<path fill="#294200" d="M19.067 16.95v0zM19.224 16.95l0.031 0.030-0.031-0.030z"></path>
<path fill="#cecece" d="M20.167 16.98v0zM21.078 16.98l0.032 0.030-0.031-0.030z"></path>
<path fill="#294200" d="M18.564 17.010v0zM18.658 17.010v0.090h0.031l-0.031-0.090z"></path>
<path fill="#de2110" d="M20.135 17.010v0.478h-0.031l-0.031-0.419h-0.283v0.867l0.126-0.060 0.063 0.209 0.157-0.090 0.031 0.329 0.283-0.090c0.132 0.090 0.217 0.090 0.283-0.060h0.063l0.189 0.179-0.031-0.568-0.566-0.030v-0.030l0.534 0.030v-0.090c-0.396-0.009-0.44-0.247-0.44-0.568l-0.346-0.090z"></path>
<path fill="#294200" d="M19.255 17.039v0.090h0.031l-0.031-0.090zM19.392 17.059v0zM19.507 17.039l0.031 0.030-0.031-0.030z"></path>
<path fill="#297b00" d="M23.34 17.039v0zM23.403 17.039h0z"></path>
<path fill="#295200" d="M18.564 17.069v0zM18.794 17.089l0.010 0.020-0.011-0.020zM18.878 17.069v0z"></path>
<path fill="#003994" d="M22.46 17.069c0 0.554-0.324 0.759-0.88 0.718l-0.031 0.568c0.119-0.002 0.286 0.007 0.314-0.12l0.126 0.090 0.126-0.12-0.031 0.12 0.063-0.060h0.031l0.189-0.030-0.031 0.090 0.094-0.12 0.063 0.060h0.094v-0.090l0.063 0.030 0.032-0.269c0.159-0.133 0.063-0.669 0.063-0.867h-0.283z"></path>
<path fill="#397b00" d="M18.564 17.099v0zM18.658 17.099v0.060h0.063v-0.060h-0.063z"></path>
<path fill="#103900" d="M23.497 17.099v0zM23.623 17.099v0zM23.749 17.099v0z"></path>
<path fill="#397b00" d="M18.344 17.129v0zM18.438 17.129h0z"></path>
<path fill="#294200" d="M18.574 17.149v0zM18.794 17.149l0.010 0.020-0.011-0.020z"></path>
<path fill="#397b00" d="M19.255 17.129v0zM19.444 17.159v0.030h0.094l-0.094-0.030zM19.538 17.129h-0zM19.601 17.129l0.031 0.030-0.031-0.030z"></path>
<path fill="#103900" d="M22.994 17.159v0zM23.12 17.159v0zM23.56 17.159v0z"></path>
<path fill="#295200" d="M18.47 17.189v0zM18.595 17.189v0zM18.784 17.189h0z"></path>
<path fill="#297b00" d="M23.026 17.219v0zM23.12 17.219h0z"></path>
<path fill="#7b0008" d="M21.392 17.249v0zM21.455 17.249h0z"></path>
<path fill="#397b00" d="M18.627 17.279v0zM18.784 17.279l-0.031 0.060h0.063l-0.031-0.060z"></path>
<path fill="#8c8c8c" d="M18.92 17.388v0zM18.972 17.368h-0z"></path>
<path fill="#bdbdbd" d="M19.412 17.369v0zM19.664 17.369l0.031 0.030-0.031-0.030z"></path>
<path fill="#297b00" d="M23.78 17.369v0zM24.052 17.379v0zM24.126 17.369l0.031 0.030-0.031-0.030z"></path>
<path fill="#397b00" d="M18.47 17.428v0zM18.564 17.428l0.094 0.060v-0.030l-0.094-0.030z"></path>
<path fill="#295200" d="M18.721 17.548v0zM18.815 17.548h0z"></path>
<path fill="#a51008" d="M20.261 17.638v0zM20.701 17.638l0.031 0.030-0.031-0.030z"></path>
<path fill="#295200" d="M19.161 17.667v0zM19.255 17.667v0zM19.35 17.667l-0.063 0.12h0.031l0.031-0.12z"></path>
<path fill="#00184a" d="M20.952 17.757v0zM21.088 17.777l0.010 0.020-0.011-0.020z"></path>
<path fill="#00215a" d="M20.984 17.817v0zM21.078 17.817h0z"></path>
<path fill="#397b00" d="M19.213 17.857v0zM19.318 17.847l0.031 0.030-0.032-0.030z"></path>
<path fill="#397b00" d="M19.067 17.966l-0.031 0.090h0.031v-0.090zM19.224 17.966l0.031 0.030-0.031-0.030z"></path>
<path fill="#428c00" d="M19.381 17.966c-0.074 0.192-0.055 0.307 0.063 0.478h0.031v-0.478h-0.031v0.359h-0.063v-0.359z"></path>
<path fill="#428c00" d="M19.821 17.996l-0.031 0.478 0.094-0.090h0.031l-0.031 0.12c0.246-0.070 0.291-0.229 0.22-0.449l-0.157 0.329h-0.031v-0.389h-0.031l-0.063 0.329v-0.329z"></path>
<path fill="#103900" d="M19.004 18.026v0zM19.13 18.026h0z"></path>
<path fill="#941808" d="M19.946 18.026v0zM20.041 18.026h0z"></path>
<path fill="#184a00" d="M22.775 18.056v0zM22.837 18.056h0z"></path>
<path fill="#295200" d="M19.035 18.146v0zM19.192 18.146l0.031 0.030-0.031-0.030z"></path>
<path fill="#397b00" d="M19.685 18.156v0zM19.852 18.146v0.090h0.031l-0.031-0.090z"></path>
<path fill="#185200" d="M22.869 18.176v0zM22.963 18.176v0zM23.12 18.176h0z"></path>
<path fill="#001039" d="M22.429 18.236v0zM22.523 18.236h0z"></path>
<path fill="#294200" d="M18.658 18.266v0zM18.91 18.266l0.031 0.030-0.031-0.030z"></path>
<path fill="#295200" d="M19.852 18.266v0zM19.915 18.266h0z"></path>
<path fill="#428c00" d="M20.732 18.266l-0.063 0.179-0.094-0.060 0.094 0.239h0.031v-0.12h0.031v0.209c0.152-0.096 0.132-0.266 0.094-0.419h-0.031v0.299h-0.031l-0.031-0.329z"></path>
<path fill="#397b00" d="M18.627 18.296v0zM18.847 18.296v0.090h0.031l-0.031-0.090z"></path>
<path fill="#294200" d="M19.925 18.315v0zM20.009 18.295h-0zM20.135 18.295v0z"></path>
<path fill="#103900" d="M23.403 18.296v0zM23.592 18.296h0z"></path>
<path fill="#185200" d="M22.932 18.325v0zM22.995 18.325h0z"></path>
<path fill="#295200" d="M19.769 18.405v0zM19.884 18.385h-0z"></path>
<path fill="#428c00" d="M20.23 18.385l0.031 0.209 0.157 0.12 0.22 0.030 0.031-0.030c-0.023-0.081-0.28-0.431-0.314-0.239l-0.063-0.090h-0.063z"></path>
<path fill="#319400" d="M22.272 18.385l-0.22 0.359c0.246-0.003 0.352-0.128 0.377-0.359h-0.031l-0.22 0.329 0.094-0.329z"></path>
<path fill="#428c00" d="M19.098 18.475v0.030h0.283v0.030h-0.283v0.030h0.063v0.030c-0.172 0.009-0.259 0.070-0.346 0.209l0.534-0.030v0.030c-0.145 0.044-0.356 0.028-0.409 0.179 0.201-0.078 0.491-0.105 0.597-0.299l-0.189 0.090 0.094-0.12-0.283-0.030v-0.030l0.503 0.030v0.030h-0.094v0.030l0.408-0.030v-0.030h-0.094v-0.030h0.189v-0.030l-0.251 0.060-0.723-0.15z"></path>
<path fill="#397b00" d="M19.873 18.455v0zM20.009 18.445l0.031 0.030-0.031-0.030z"></path>
<path fill="#397b00" d="M20.418 18.505v0zM20.607 18.505h0z"></path>
<path fill="#296300" d="M22.303 18.505v0zM22.398 18.505h0z"></path>
<path fill="#294200" d="M20.418 18.534v0zM20.607 18.534l0.031 0.090h0.031l-0.063-0.090z"></path>
<path fill="#185200" d="M22.554 18.534v0zM22.649 18.534h0z"></path>
<path fill="#8c8c8c" d="M20.858 18.564v0zM21.267 18.564l0.031 0.030-0.032-0.030z"></path>
<path fill="#297b00" d="M22.9 18.564v0zM23.026 18.564v0zM23.623 18.564v0z"></path>
<path fill="#295200" d="M20.512 18.594v0.060h0.063l-0.063-0.060zM20.826 18.594v0z"></path>
<path fill="#185200" d="M22.617 18.624v0zM23.005 18.644l0.011 0.020-0.010-0.020z"></path>
<path fill="#397b00" d="M18.847 18.714v0zM18.972 18.714v0.060h0.094v-0.060h-0.094z"></path>
<path fill="#9c9494" d="M23.843 18.714v0zM18.784 18.744l-0.063 0.090 0.063-0.090z"></path>
<path fill="#de2110" d="M19.978 19.282v-0.030l-0.189 0.030v-0.030c0.85-0.257 2.104-0.257 2.954 0v0.030l-0.157-0.030c0.155 0.225 0.579 0.086 0.439-0.176-0.12-0.223-0.558-0.25-0.784-0.28-0.639-0.087-1.342-0.094-1.98 0.006-0.227 0.035-0.503 0.054-0.684 0.205-0.129 0.108-0.082 0.326 0.090 0.374 0.106 0.030 0.225-0.050 0.311-0.098z"></path>
<path fill="#103900" d="M22.272 18.744v0zM22.429 18.744h-0zM22.555 18.744h0z"></path>
<path fill="#297b00" d="M23.152 18.744v0zM23.34 18.744h0z"></path>
<path fill="#397b00" d="M18.973 18.804v0.060h0.063v-0.060h-0.063zM19.203 18.824h-0z"></path>
<path fill="#296300" d="M23.005 18.853v0zM23.277 18.833h0z"></path>
<path fill="#397b00" d="M18.941 18.864v0zM19.224 18.864h-0z"></path>
<path fill="#ada5a5" d="M19.35 18.864v0zM19.632 18.864l0.032 0.030-0.031-0.030z"></path>
<path fill="#f7b508" d="M20.481 18.864v0zM20.575 18.864h0zM20.816 18.874v0z"></path>
<path fill="#ef7b08" d="M20.921 18.893v0zM20.983 18.893v0zM21.078 18.893v0z"></path>
<path fill="#dedede" d="M19.035 18.953v0zM19.538 18.953h-0z"></path>
<path fill="#ffce08" d="M20.994 18.973v0zM21.088 18.973l0.011 0.020-0.010-0.020z"></path>
<path fill="#e75a10" d="M19.821 19.013v0zM20.009 19.013h0z"></path>
<path fill="#f7b508" d="M20.984 19.013v0zM21.078 19.013h0z"></path>
<path fill="#de3110" d="M20.889 19.043v0zM20.973 19.053v0zM21.099 19.053v0zM21.486 19.043v0z"></path>
<path fill="#de3110" d="M21.738 19.043v0.030h0.094l-0.094-0.030zM21.895 19.043v0z"></path>
<path fill="#e75a10" d="M22.366 19.073v0zM22.429 19.073h0z"></path>
<path fill="#631808" d="M20.858 19.342v0.12h0.031l-0.031-0.12zM21.141 19.342v0.12h0.032l-0.031-0.12z"></path>
<path fill="#ad1810" d="M21.643 19.342l-0.094 0.149h0.094v-0.060l0.063 0.030v-0.12h-0.063z"></path>
<path fill="#ad1810" d="M20.669 19.372v0zM21.36 19.372v0.060h0.063v-0.060h-0.063z"></path>
<path fill="#b51010" d="M19.632 19.491v0zM19.884 19.491l0.031 0.030-0.031-0.030z"></path>
<path fill="#9c9494" d="M19.475 19.671v0zM20.638 19.671l0.031 0.030-0.031-0.030z"></path>
<path fill="#b51010" d="M23.592 19.701v0zM23.749 19.701h-0z"></path>
<path fill="#8c8c8c" d="M18.878 19.761v0zM20.732 19.761h-0z"></path>
<path fill="#dedede" d="M23.78 19.88v0zM18.689 19.91l0.063 0.060-0.063-0.060z"></path>
<path fill="#ecca5e" opacity="0.99" d="M20.225 14.401l0.051-0.014c0.003 0.009 0.009 0.016 0.016 0.020l0 0c0.007 0.004 0.017 0.005 0.029 0.004 0.013-0.002 0.023-0.005 0.029-0.010 0.003-0.003 0.005-0.007 0.005-0.012 0-0.001-0-0.002-0-0.002v0c-0-0.004-0.002-0.007-0.005-0.009l-0-0c-0.003-0.002-0.009-0.003-0.018-0.004-0.043-0.004-0.070-0.009-0.082-0.015-0.017-0.008-0.026-0.021-0.028-0.039-0.002-0.016 0.003-0.030 0.015-0.043s0.032-0.020 0.060-0.024c0.027-0.003 0.047-0.001 0.061 0.005s0.024 0.018 0.031 0.033l-0.047 0.014c-0.003-0.007-0.008-0.012-0.014-0.015l-0-0c-0.006-0.003-0.015-0.004-0.025-0.003-0.014 0.002-0.023 0.004-0.028 0.009-0.004 0.003-0.005 0.007-0.005 0.011s0.003 0.006 0.006 0.008c0.005 0.003 0.022 0.005 0.050 0.008s0.048 0.008 0.060 0.015c0.012 0.007 0.019 0.019 0.021 0.034 0.002 0.017-0.003 0.032-0.017 0.046s-0.034 0.023-0.064 0.026c-0.026 0.003-0.048 0-0.065-0.008s-0.029-0.021-0.035-0.038l-0-0zM19.997 14.385c-0-0.004-0.001-0.008-0.001-0.012 0-0.013 0.003-0.026 0.008-0.037l-0 0.001c0.006-0.016 0.017-0.029 0.031-0.039s0.031-0.016 0.050-0.018c0.029-0.003 0.055 0.003 0.076 0.019s0.033 0.038 0.037 0.065c0.004 0.028-0.003 0.052-0.020 0.073s-0.039 0.032-0.068 0.036c-0.018 0.002-0.035 0-0.052-0.006s-0.031-0.016-0.041-0.029l-0-0c-0.010-0.014-0.017-0.031-0.020-0.053zM20.050 14.382c0.002 0.018 0.009 0.032 0.019 0.040s0.022 0.012 0.036 0.011c0.013-0.001 0.024-0.008 0.032-0.018l0-0c0.008-0.011 0.011-0.025 0.008-0.044s-0.009-0.031-0.019-0.040c-0.008-0.007-0.018-0.011-0.030-0.011-0.002 0-0.004 0-0.006 0l0-0c-0.013 0.001-0.025 0.008-0.032 0.018l-0 0c-0.008 0.011-0.011 0.025-0.008 0.044zM19.89 14.281l-0.006-0.045 0.051-0.006 0.006 0.045-0.051 0.006zM19.917 14.491l-0.024-0.185 0.051-0.006 0.024 0.185-0.051 0.006zM19.614 14.267l0.099-0.011c0.022-0.003 0.040-0.003 0.052-0.001 0.016 0.003 0.031 0.009 0.043 0.019s0.023 0.023 0.031 0.038 0.013 0.035 0.017 0.059c0.003 0.021 0.002 0.039-0.001 0.055-0.004 0.019-0.012 0.035-0.023 0.049l0-0c-0.008 0.010-0.020 0.018-0.035 0.025-0.011 0.005-0.027 0.009-0.047 0.011l-0.102 0.012-0.033-0.255zM19.674 14.304l0.022 0.169 0.040-0.005c0.015-0.002 0.026-0.004 0.032-0.006 0.009-0.003 0.015-0.007 0.020-0.013s0.009-0.014 0.011-0.026c0.002-0.012 0.002-0.028-0.001-0.047s-0.006-0.035-0.011-0.045c-0.004-0.009-0.011-0.017-0.018-0.023l-0-0c-0.008-0.005-0.017-0.008-0.026-0.009h-0c-0.008-0.001-0.023 0-0.045 0.003l-0.024 0.003z"></path>
<path fill="#ecca5e" d="M20.336 15.111l0.764 0.955-0.037 0.043-0.764-0.955zM22.303 15.038l-0.854 1.129-0.065-0.023 0.854-1.129zM20.139 15.3l0.904 0.837-0.030 0.048-0.904-0.837zM19.93 15.494l0.993 0.741-0.024 0.050-0.993-0.741zM22.431 15.349l-0.895 0.846-0.049-0.029 0.895-0.846zM22.629 15.505l-1.002 0.729-0.045-0.035 1.002-0.729z"></path>
<path fill="#7b5a00" opacity="0.564" d="M22.028 15.389l0.207-0.263-0.025-0.018-0.182 0.281z"></path>
<path fill="#7b5a00" opacity="0.475" d="M21.559 16.010l0.207-0.263-0.025-0.018-0.182 0.281z"></path>
<path fill="#7b5a00" opacity="0.68" d="M21.793 15.712l0.207-0.263-0.025-0.018-0.182 0.281z"></path>
<path fill="#7b5a00" opacity="0.525" d="M22.277 15.744l0.29-0.179-0.017-0.025-0.273 0.204z"></path>
<path fill="#7b5a00" opacity="0.398" d="M21.897 15.85l0.258-0.219-0.021-0.022-0.237 0.242z"></path>
<path fill="#428c00" d="M19.454 18.025h-0.031c-0.006-0.171-0.073-0.281-0.251-0.329 0.004 0.091 0.070 0.447 0.22 0.329h0.031l-0.063 0.269c0.094-0.099 0.481-0.448 0.313-0.601-0.144-0.131-0.218 0.267-0.219 0.332zM19.214 15.885h-0.031c-0.006-0.171-0.073-0.281-0.251-0.329 0.004 0.091 0.070 0.447 0.22 0.329h0.031l-0.063 0.269c0.094-0.099 0.481-0.448 0.313-0.601-0.144-0.131-0.218 0.267-0.219 0.332z"></path>
<path fill="#ecca5e" opacity="0.99" d="M23.29 14.55l-0.048-0.005 0.003-0.027c-0.009 0.010-0.020 0.017-0.031 0.021-0.008 0.003-0.016 0.004-0.026 0.004-0.003 0-0.006-0-0.008-0l0 0c-0.022-0.002-0.040-0.013-0.054-0.032s-0.019-0.044-0.015-0.074c0.004-0.031 0.014-0.054 0.032-0.069s0.038-0.021 0.062-0.018c0.022 0.002 0.040 0.013 0.053 0.032l0.011-0.092 0.051 0.006-0.031 0.255zM23.165 14.439c-0.002 0.020-0.001 0.034 0.003 0.044 0.006 0.013 0.018 0.022 0.032 0.023h0c0.001 0 0.003 0 0.005 0 0.011 0 0.020-0.004 0.027-0.011v0c0.009-0.009 0.015-0.023 0.018-0.042 0.003-0.021 0-0.037-0.006-0.047s-0.017-0.016-0.029-0.018h-0c-0.002-0-0.003-0-0.005-0-0.011 0-0.020 0.004-0.027 0.011l0-0c-0.009 0.008-0.015 0.021-0.017 0.040zM22.958 14.383l-0.046-0.013c0.007-0.017 0.018-0.029 0.032-0.037s0.033-0.009 0.059-0.007c0.023 0.002 0.040 0.007 0.050 0.013s0.018 0.014 0.021 0.022c0.004 0.008 0.004 0.023 0.002 0.044l-0.007 0.057c-0.002 0.016-0.003 0.028-0.002 0.036s0.003 0.016 0.006 0.026l-0.051-0.006c-0.001-0.004-0.002-0.009-0.003-0.014l-0-0.001c-0-0.003-0.001-0.005-0.001-0.006-0.010 0.007-0.020 0.012-0.030 0.015s-0.021 0.004-0.033 0.003c-0.020-0.002-0.035-0.009-0.045-0.021s-0.014-0.025-0.012-0.041c0.001-0.010 0.005-0.019 0.011-0.027s0.014-0.013 0.024-0.016c0.010-0.003 0.024-0.006 0.042-0.007 0.025-0.002 0.042-0.004 0.051-0.006l0.001-0.005c0.001-0.009-0-0.016-0.005-0.021s-0.013-0.008-0.027-0.009c-0.009-0.001-0.017 0-0.022 0.003s-0.010 0.008-0.015 0.017zM23.022 14.43c-0.007 0.001-0.017 0.003-0.032 0.004s-0.024 0.003-0.029 0.005c-0.007 0.004-0.011 0.009-0.012 0.016-0 0.001-0 0.002-0 0.003 0 0.006 0.002 0.012 0.006 0.016v-0c0.005 0.006 0.012 0.009 0.019 0.010h0c0.009 0.001 0.018-0.001 0.028-0.006 0.006-0.003 0.011-0.008 0.014-0.015l0-0c0.002-0.004 0.003-0.012 0.005-0.024l0.001-0.010zM22.891 14.319l-0.005 0.039-0.035-0.004-0.009 0.075c-0.002 0.015-0.003 0.024-0.002 0.027s0.002 0.005 0.004 0.007c0.002 0.002 0.005 0.003 0.009 0.003 0.005 0 0.012-0 0.021-0.002l-0 0.038c-0.012 0.004-0.026 0.004-0.042 0.003-0.009-0.001-0.017-0.003-0.025-0.007l0 0c-0.006-0.003-0.011-0.008-0.015-0.013l-0-0c-0.003-0.006-0.005-0.013-0.005-0.020v-0c-0-0.006 0-0.017 0.003-0.035l0.010-0.081-0.024-0.003 0.005-0.039 0.024 0.003 0.004-0.037 0.055-0.023-0.008 0.065 0.035 0.004zM22.682 14.483l-0.051-0.006 0.023-0.185 0.048 0.005-0.003 0.026c0.010-0.012 0.018-0.019 0.025-0.022s0.015-0.004 0.023-0.003c0.012 0.001 0.023 0.006 0.033 0.013l-0.021 0.041c-0.008-0.006-0.016-0.010-0.023-0.011-0.001-0-0.003-0-0.004-0-0.006 0-0.011 0.002-0.015 0.004l0-0c-0.005 0.003-0.010 0.009-0.014 0.019s-0.008 0.030-0.012 0.062l-0.007 0.057zM22.545 14.408l0.050 0.014c-0.008 0.016-0.020 0.029-0.036 0.037l-0 0c-0.015 0.008-0.034 0.010-0.055 0.008-0.034-0.004-0.057-0.017-0.071-0.040-0.011-0.018-0.015-0.040-0.011-0.066 0.004-0.031 0.015-0.054 0.034-0.069s0.041-0.022 0.067-0.019c0.029 0.003 0.051 0.015 0.065 0.035s0.019 0.049 0.014 0.086l-0.129-0.014c-0.001 0.015 0.001 0.026 0.008 0.035s0.016 0.014 0.028 0.015c0.008 0.001 0.015-0 0.021-0.004s0.011-0.010 0.015-0.019zM22.554 14.359c0.001-0.014-0.001-0.025-0.008-0.034s-0.015-0.013-0.025-0.014h-0c-0.002-0-0.003-0-0.005-0-0.009 0-0.018 0.003-0.024 0.009l0-0c-0.008 0.007-0.013 0.017-0.015 0.030l0.077 0.008zM22.194 14.429l0.031-0.255 0.051 0.006-0.011 0.092c0.018-0.015 0.038-0.022 0.059-0.020 0.024 0.003 0.042 0.013 0.056 0.031s0.018 0.042 0.015 0.073c-0.004 0.032-0.015 0.055-0.033 0.070-0.014 0.012-0.032 0.020-0.051 0.020-0.015 0-0.030-0.004-0.041-0.012l0 0c-0.010-0.007-0.019-0.016-0.025-0.026l-0-0-0.003 0.027-0.048-0.005zM22.257 14.338c-0.002 0.019-0.001 0.034 0.004 0.043 0.007 0.014 0.018 0.022 0.033 0.023 0.001 0 0.003 0 0.004 0 0.010 0 0.020-0.004 0.026-0.011v0c0.009-0.008 0.015-0.022 0.017-0.042 0.003-0.021 0-0.037-0.006-0.047s-0.017-0.016-0.029-0.018h-0c-0.002-0-0.003-0-0.005-0-0.011 0-0.020 0.004-0.027 0.011l0-0c-0.009 0.008-0.015 0.021-0.017 0.040zM22.118 14.208l0.006-0.045 0.051 0.006-0.006 0.045-0.051-0.006zM22.092 14.417l0.023-0.185 0.051 0.006-0.023 0.185-0.051-0.006zM21.865 14.392l0.031-0.253 0.054 0.006-0.026 0.21 0.135 0.015-0.005 0.043-0.189-0.021z"></path>
<path fill="#428c00" d="M18.894 16.481h-0.031c-0.006-0.171-0.073-0.281-0.251-0.329 0.004 0.091 0.070 0.447 0.22 0.329h0.031l-0.063 0.269c0.094-0.099 0.481-0.448 0.313-0.601-0.144-0.131-0.218 0.267-0.219 0.332z"></path>
<path fill="#fac349" d="M20.004 15.531c0 0.023-0.026 0.042-0.058 0.042s-0.058-0.019-0.058-0.042c0-0.023 0.026-0.042 0.058-0.042s0.058 0.019 0.058 0.042zM20.201 15.323c0 0.023-0.026 0.042-0.058 0.042s-0.058-0.019-0.058-0.042c0-0.023 0.026-0.042 0.058-0.042s0.058 0.019 0.058 0.042zM20.382 15.129c0 0.023-0.026 0.042-0.058 0.042s-0.058-0.019-0.058-0.042c0-0.023 0.026-0.042 0.058-0.042s0.058 0.019 0.058 0.042zM22.318 15.053c0 0.023-0.026 0.042-0.058 0.042s-0.058-0.019-0.058-0.042c0-0.023 0.026-0.042 0.058-0.042s0.058 0.019 0.058 0.042zM22.456 15.323c0 0.023-0.026 0.042-0.058 0.042s-0.058-0.019-0.058-0.042c0-0.023 0.026-0.042 0.058-0.042s0.058 0.019 0.058 0.042zM22.66 15.496c0 0.023-0.026 0.042-0.058 0.042s-0.058-0.019-0.058-0.042c0-0.023 0.026-0.042 0.058-0.042s0.058 0.019 0.058 0.042z"></path>
<path fill="#ecca5e" opacity="0.99" d="M21.641 14.035l-0.047-0.008c0.005-0.018 0.015-0.031 0.028-0.040s0.032-0.013 0.058-0.012c0.023 0 0.040 0.003 0.051 0.008s0.019 0.012 0.024 0.020c0.005 0.008 0.007 0.023 0.007 0.044l-0.001 0.057c-0 0.016 0 0.028 0.002 0.036s0.005 0.016 0.009 0.025l-0.051-0c-0.001-0.004-0.003-0.008-0.005-0.013l-0-0.001c-0.001-0.002-0.001-0.004-0.002-0.006l0 0c-0.009 0.008-0.018 0.014-0.029 0.018s-0.021 0.006-0.032 0.006c-0.020-0-0.036-0.006-0.048-0.016-0.010-0.009-0.017-0.023-0.017-0.038 0-0.001 0-0.001 0-0.002v0c0-0 0-0 0-0 0-0.021 0.012-0.038 0.030-0.046l0-0c0.010-0.004 0.023-0.008 0.041-0.011 0.024-0.004 0.041-0.008 0.050-0.012v-0.005c0-0.009-0.002-0.016-0.007-0.020s-0.014-0.006-0.028-0.006c-0.009 0-0.016 0.002-0.022 0.005s-0.009 0.009-0.013 0.018zM21.71 14.075c-0.007 0.002-0.017 0.004-0.032 0.007s-0.024 0.006-0.028 0.008c-0.007 0.004-0.010 0.010-0.010 0.017s0.003 0.013 0.008 0.018c0.005 0.005 0.012 0.008 0.020 0.008 0 0 0 0 0.001 0h-0c0.009 0 0.018-0.003 0.027-0.008 0.006-0.004 0.010-0.010 0.012-0.016 0.001-0.004 0.002-0.012 0.002-0.024l0-0.010zM21.499 13.951l0-0.046 0.052 0.001-0 0.046-0.052-0.001zM21.497 14.163l0.002-0.186 0.052 0-0.002 0.186-0.052-0.001zM21.399 14.162l-0.052-0 0.002-0.186 0.048 0-0 0.026c0.008-0.012 0.016-0.021 0.022-0.024s0.014-0.006 0.022-0.006c0 0 0.001 0 0.001 0h-0c0.012 0 0.023 0.003 0.034 0.010l-0.016 0.043c-0.009-0.005-0.017-0.008-0.024-0.008s-0.013 0.002-0.018 0.006c-0.005 0.004-0.009 0.011-0.012 0.020s-0.005 0.031-0.005 0.062l-0.001 0.057zM21.316 13.975l-0 0.039-0.035-0-0.001 0.075c-0 0.015 0 0.024 0.001 0.027s0.002 0.004 0.005 0.006c0.002 0.002 0.005 0.002 0.009 0.002 0.005 0 0.012-0.001 0.021-0.004l0.004 0.038c-0.012 0.005-0.026 0.007-0.041 0.007-0.009 0-0.018-0.002-0.025-0.005s-0.012-0.007-0.016-0.012l-0-0c-0.004-0.006-0.006-0.012-0.007-0.019l-0-0c-0.001-0.006-0.001-0.017-0.001-0.035l0.001-0.081-0.024-0 0-0.039 0.024 0 0-0.037 0.052-0.028-0.001 0.066 0.035 0zM21.055 14.029l-0.047-0.008c0.006-0.018 0.015-0.031 0.028-0.040s0.032-0.013 0.058-0.012c0.023 0 0.040 0.003 0.051 0.008s0.019 0.012 0.024 0.020c0.004 0.008 0.007 0.023 0.006 0.044l-0.001 0.057c-0 0.016 0 0.028 0.002 0.036s0.005 0.016 0.009 0.025l-0.051-0c-0.001-0.004-0.003-0.008-0.005-0.013l-0-0.001-0.002-0.006c-0.009 0.008-0.018 0.014-0.029 0.018s-0.021 0.006-0.032 0.006c-0.020-0-0.036-0.006-0.048-0.016-0.010-0.009-0.017-0.023-0.017-0.038 0-0.001 0-0.001 0-0.002v0c0-0.011 0.003-0.020 0.008-0.028s0.013-0.014 0.022-0.019c0.010-0.004 0.023-0.008 0.041-0.011 0.024-0.004 0.041-0.008 0.050-0.012l0-0.005c0-0.009-0.002-0.016-0.007-0.020s-0.014-0.006-0.028-0.006c-0.009 0-0.016 0.002-0.022 0.005s-0.009 0.009-0.013 0.018zM21.123 14.070c-0.007 0.002-0.017 0.004-0.032 0.007s-0.024 0.006-0.028 0.008c-0.007 0.004-0.010 0.010-0.010 0.017 0 0 0 0 0 0 0 0.007 0.003 0.013 0.008 0.017l0 0c0.005 0.005 0.012 0.008 0.021 0.008 0.009 0 0.018-0.003 0.027-0.008 0.006-0.004 0.010-0.010 0.012-0.016 0.001-0.004 0.002-0.012 0.002-0.024l0-0.010zM20.764 14.156l0.003-0.257 0.087 0.001c0.033 0 0.055 0.002 0.065 0.004 0.015 0.004 0.028 0.012 0.039 0.026s0.015 0.030 0.015 0.050c-0 0.016-0.003 0.029-0.009 0.040s-0.014 0.019-0.023 0.025c-0.009 0.006-0.019 0.010-0.028 0.012-0.013 0.002-0.032 0.003-0.057 0.003l-0.036-0-0.001 0.097-0.055-0.001zM20.82 13.943l-0.001 0.073 0.030 0c0.021 0 0.036-0.001 0.043-0.004s0.013-0.007 0.017-0.012c0.004-0.005 0.006-0.012 0.006-0.020 0-0 0-0 0-0v0c0-0 0-0.001 0-0.002 0-0.008-0.003-0.016-0.009-0.022l0 0c-0.006-0.006-0.013-0.010-0.022-0.012l-0-0c-0.006-0.001-0.019-0.002-0.039-0.002l-0.026-0zM20.928 18.886l-0.036-0.001c0.002-0.014 0.007-0.025 0.015-0.033s0.022-0.013 0.041-0.016c0.017-0.002 0.030-0.002 0.039 0s0.016 0.007 0.020 0.012c0.004 0.005 0.008 0.016 0.010 0.032l0.006 0.043c0.002 0.012 0.004 0.021 0.006 0.027s0.006 0.011 0.010 0.017l-0.038 0.006c-0.001-0.002-0.003-0.006-0.005-0.010-0.001-0.002-0.002-0.003-0.002-0.004-0.006 0.007-0.012 0.012-0.019 0.017s-0.015 0.007-0.023 0.008c-0.015 0.002-0.027 0-0.037-0.007s-0.016-0.016-0.017-0.027l-0-0c-0-0.002-0.001-0.004-0.001-0.007 0-0.005 0.001-0.011 0.003-0.015l-0 0c0.003-0.007 0.008-0.012 0.014-0.016l0-0c0.007-0.004 0.016-0.009 0.029-0.013 0.017-0.006 0.029-0.011 0.036-0.014l-0.001-0.004c-0.001-0.007-0.004-0.012-0.008-0.014s-0.011-0.003-0.021-0.002c-0.006 0.001-0.011 0.003-0.015 0.006l0-0c-0.004 0.004-0.006 0.009-0.007 0.015l-0 0zM20.984 18.908c-0.005 0.002-0.012 0.005-0.022 0.009s-0.017 0.007-0.020 0.009c-0.004 0.004-0.006 0.009-0.006 0.014s0.004 0.009 0.008 0.012c0.005 0.003 0.010 0.004 0.016 0.003 0.007-0.001 0.014-0.005 0.019-0.009v0c0.004-0.003 0.006-0.008 0.007-0.013v-0c0.001-0.003 0-0.009-0.001-0.018l-0.001-0.007zM20.87 18.893l-0.037 0.012c-0.002-0.006-0.006-0.012-0.011-0.015l-0-0c-0.004-0.002-0.008-0.003-0.013-0.003-0.002 0-0.004 0-0.005 0l0-0c-0.009 0.001-0.017 0.006-0.021 0.013l-0 0c-0.005 0.007-0.006 0.018-0.003 0.033 0.003 0.016 0.007 0.028 0.014 0.034s0.015 0.008 0.025 0.007c0.007-0.001 0.013-0.004 0.017-0.008l0-0c0.004-0.005 0.006-0.012 0.007-0.022l0.039 0.001c-0.001 0.017-0.007 0.030-0.017 0.041s-0.024 0.016-0.043 0.019c-0.021 0.003-0.039-0.001-0.054-0.012s-0.024-0.028-0.027-0.050c-0.004-0.023-0-0.041 0.010-0.056s0.027-0.023 0.048-0.027c0.018-0.003 0.032-0.001 0.044 0.005s0.021 0.016 0.028 0.030zM20.656 18.863l-0.005-0.034 0.038-0.006 0.005 0.034-0.038 0.006zM20.681 19.020l-0.022-0.138 0.038-0.006 0.022 0.138-0.038 0.006zM20.603 19.031l-0.030-0.19 0.038-0.006 0.030 0.19-0.038 0.006zM20.431 19.056l-0.030-0.19 0.038-0.006 0.011 0.069c0.010-0.014 0.023-0.023 0.039-0.025 0.018-0.003 0.033 0.001 0.047 0.012s0.022 0.027 0.026 0.050c0.004 0.023 0.001 0.042-0.009 0.057-0.010 0.016-0.028 0.026-0.048 0.026-0.006 0-0.012-0.001-0.018-0.003l0 0c-0.009-0.003-0.017-0.008-0.024-0.015v0l0.003 0.020-0.036 0.005zM20.458 18.978c0.002 0.014 0.006 0.025 0.012 0.031s0.014 0.011 0.024 0.011c0.002 0 0.003-0 0.005-0l-0 0c0.009-0.001 0.016-0.006 0.020-0.013l0-0c0.005-0.008 0.006-0.019 0.004-0.034s-0.007-0.027-0.014-0.033c-0.005-0.005-0.012-0.008-0.020-0.008-0.002 0-0.003 0-0.005 0l0-0c-0.009 0.001-0.017 0.006-0.021 0.013l-0 0c-0.005 0.008-0.006 0.018-0.004 0.032zM20.357 19.067l-0.003-0.021c-0.004 0.008-0.011 0.015-0.018 0.020l-0 0c-0.008 0.006-0.017 0.009-0.026 0.010s-0.019 0.001-0.027-0.002c-0.008-0.003-0.015-0.008-0.019-0.015l-0-0c-0.005-0.007-0.008-0.017-0.010-0.030l-0.014-0.087 0.038-0.006 0.010 0.063c0.003 0.019 0.006 0.031 0.008 0.035s0.005 0.007 0.009 0.009l0 0c0.003 0.001 0.007 0.002 0.010 0.002 0.002 0 0.003-0 0.005-0l-0 0c0.006-0.001 0.012-0.004 0.017-0.008l-0 0c0.004-0.004 0.007-0.009 0.009-0.014l0-0c0.001-0.005 0-0.018-0.003-0.038l-0.009-0.058 0.038-0.006 0.022 0.138-0.036 0.005zM20.068 18.967l0.036-0.005 0.003 0.020c0.004-0.008 0.009-0.014 0.016-0.020s0.016-0.009 0.025-0.010c0.017-0.002 0.032 0.002 0.046 0.013s0.022 0.027 0.026 0.050c0.004 0.023 0.001 0.042-0.009 0.056s-0.023 0.023-0.040 0.025c-0.002 0-0.005 0.001-0.008 0.001-0.005 0-0.010-0.001-0.015-0.002l0 0c-0.009-0.003-0.016-0.007-0.023-0.013l0 0 0.011 0.070-0.038 0.006-0.030-0.19zM20.117 19.028c0.003 0.015 0.008 0.026 0.015 0.033 0.006 0.005 0.013 0.008 0.021 0.008 0.002 0 0.003-0 0.005-0l-0 0c0.009-0.001 0.016-0.006 0.020-0.013l0-0c0.005-0.008 0.006-0.019 0.004-0.035-0.002-0.014-0.007-0.025-0.014-0.031-0.005-0.005-0.012-0.008-0.020-0.008-0.002 0-0.003 0-0.005 0l0-0c-0.009 0.001-0.017 0.006-0.022 0.014l-0 0c-0.005 0.008-0.007 0.018-0.004 0.032zM20.013 19.071l0.039 0.001c-0.003 0.014-0.009 0.025-0.018 0.034s-0.022 0.014-0.038 0.016c-0.025 0.004-0.045-0.002-0.060-0.015-0.012-0.011-0.019-0.026-0.022-0.045-0.004-0.023-0-0.042 0.010-0.056s0.025-0.024 0.044-0.026c0.022-0.003 0.040 0.001 0.054 0.013s0.024 0.032 0.028 0.060l-0.096 0.014c0.002 0.011 0.006 0.019 0.013 0.024s0.015 0.007 0.024 0.006c0.006-0.001 0.011-0.003 0.014-0.007v0c0.004-0.004 0.006-0.010 0.007-0.016v-0zM20.009 19.034c-0.002-0.011-0.006-0.018-0.012-0.023-0.005-0.004-0.010-0.006-0.017-0.006-0.002 0-0.003 0-0.005 0l0-0c-0.008 0.001-0.015 0.005-0.019 0.012l-0 0c-0.004 0.007-0.006 0.015-0.004 0.025l0.057-0.008zM19.734 19.157l-0.030-0.19 0.085-0.012c0.021-0.003 0.037-0.004 0.047-0.002s0.019 0.007 0.026 0.015 0.012 0.017 0.014 0.029c0.002 0.014-0 0.027-0.008 0.037s-0.020 0.018-0.037 0.023c0.009 0.004 0.017 0.008 0.024 0.013s0.016 0.014 0.028 0.028l0.030 0.034-0.048 0.007-0.036-0.037c-0.013-0.013-0.021-0.022-0.026-0.025s-0.008-0.005-0.013-0.006l-0-0c-0.002-0-0.005-0-0.008-0-0.005 0-0.009 0-0.013 0.001l0-0-0.008 0.001 0.013 0.079-0.040 0.006zM19.757 19.041l0.030-0.004c0.019-0.003 0.031-0.005 0.036-0.008s0.008-0.005 0.010-0.010l0-0c0.001-0.003 0.002-0.007 0.002-0.010 0-0.002-0-0.003-0-0.005l0 0c-0.001-0.006-0.004-0.011-0.008-0.015l-0-0c-0.004-0.003-0.010-0.005-0.016-0.005-0 0-0 0-0.001 0h0c-0.003 0-0.013 0.001-0.030 0.004l-0.032 0.005 0.008 0.048zM22.752 19.061l-0.034-0.011c0.006-0.013 0.014-0.022 0.025-0.027s0.025-0.006 0.044-0.004c0.017 0.002 0.030 0.006 0.037 0.011s0.013 0.011 0.015 0.017c0.003 0.006 0.003 0.017 0 0.033l-0.007 0.043c-0.002 0.012-0.003 0.021-0.002 0.027s0.002 0.012 0.004 0.019l-0.038-0.005c-0.001-0.003-0.001-0.006-0.002-0.011-0-0.002-0-0.004-0.001-0.004-0.007 0.005-0.014 0.008-0.023 0.011l-0 0c-0.008 0.002-0.016 0.003-0.025 0.001-0.015-0.002-0.026-0.007-0.034-0.016-0.006-0.007-0.009-0.015-0.009-0.025 0-0.002 0-0.004 0.001-0.007l-0 0c0.002-0.015 0.013-0.028 0.027-0.032l0-0c0.009-0.003 0.020-0.004 0.032-0.004h0c0.018-0.001 0.031-0.002 0.039-0.004l0.001-0.004c0.001-0.007 0-0.012-0.003-0.016s-0.010-0.006-0.020-0.007c-0.002-0-0.003-0-0.005-0-0.004 0-0.008 0.001-0.011 0.002l0-0c-0.004 0.002-0.008 0.006-0.011 0.012zM22.799 19.098c-0.005 0.001-0.013 0.002-0.024 0.002s-0.018 0.002-0.022 0.004c-0.006 0.003-0.009 0.007-0.009 0.012-0 0.001-0 0.002-0 0.003 0 0.004 0.002 0.008 0.004 0.011l-0-0c0.004 0.004 0.009 0.007 0.014 0.008h0c0.001 0 0.003 0 0.004 0 0.006 0 0.012-0.002 0.017-0.004l-0 0c0.005-0.002 0.009-0.006 0.011-0.011l0-0c0.002-0.005 0.003-0.011 0.004-0.017l0-0 0.001-0.007zM22.67 19.148l-0.038-0.005 0.010-0.071c0.002-0.015 0.003-0.025 0.002-0.029s-0.003-0.008-0.006-0.011l-0-0c-0.003-0.003-0.008-0.005-0.013-0.005h-0c-0.007-0.001-0.013 0-0.019 0.003s-0.010 0.007-0.013 0.012l-0 0c-0.003 0.005-0.005 0.016-0.008 0.031l-0.009 0.063-0.038-0.005 0.020-0.138 0.036 0.005-0.003 0.020c0.015-0.014 0.032-0.020 0.051-0.017 0.009 0.001 0.016 0.004 0.023 0.008s0.011 0.008 0.014 0.013l0 0c0.003 0.005 0.005 0.010 0.005 0.016v0c0.001 0.006 0 0.014-0.001 0.025l-0.013 0.086zM22.425 19.017l-0.034-0.011c0.006-0.013 0.014-0.022 0.025-0.027s0.025-0.006 0.044-0.004c0.017 0.002 0.030 0.006 0.037 0.011s0.013 0.011 0.015 0.017c0.003 0.006 0.003 0.018 0 0.033l-0.007 0.043c-0.002 0.012-0.003 0.021-0.002 0.027s0.002 0.012 0.004 0.019l-0.038-0.005c-0.001-0.003-0.001-0.007-0.002-0.011l-0-0.001c-0-0.002-0-0.003-0.001-0.005l0 0c-0.007 0.005-0.015 0.009-0.023 0.011-0.005 0.001-0.010 0.002-0.016 0.002-0.003 0-0.006-0-0.009-0.001l0 0c-0.015-0.002-0.026-0.007-0.034-0.016-0.006-0.007-0.009-0.015-0.009-0.024 0-0.002 0-0.005 0.001-0.007l-0 0c0.002-0.015 0.013-0.028 0.027-0.032l0-0c0.008-0.002 0.018-0.004 0.032-0.005 0.018-0.001 0.031-0.002 0.039-0.004l0.001-0.004c0.001-0.007 0-0.012-0.003-0.016s-0.010-0.006-0.020-0.007c-0.002-0-0.003-0-0.005-0-0.004 0-0.008 0.001-0.011 0.002l0-0c-0.004 0.002-0.008 0.006-0.011 0.012zM22.472 19.054c-0.005 0.001-0.013 0.002-0.024 0.002s-0.018 0.002-0.022 0.004c-0.005 0.003-0.009 0.007-0.009 0.012-0 0.001-0 0.002-0 0.003 0 0.004 0.002 0.008 0.004 0.011l-0-0c0.004 0.004 0.009 0.007 0.014 0.008h0c0.001 0 0.003 0 0.004 0 0.006 0 0.012-0.002 0.017-0.004l-0 0c0.005-0.002 0.009-0.006 0.011-0.011l0-0c0.001-0.003 0.003-0.009 0.004-0.018l0.001-0.007zM22.367 19.008l-0.039 0.001c0-0 0-0 0-0.001 0-0.006-0.002-0.012-0.006-0.017l0 0c-0.004-0.004-0.010-0.007-0.017-0.008h-0c-0.002-0-0.003-0-0.005-0-0.007 0-0.014 0.003-0.019 0.007l0-0c-0.007 0.006-0.011 0.016-0.013 0.030-0.002 0.016-0.001 0.028 0.004 0.036s0.012 0.012 0.022 0.013c0.001 0 0.003 0 0.005 0 0.005 0 0.010-0.001 0.014-0.004l-0 0c0.005-0.003 0.009-0.010 0.013-0.019l0.037 0.011c-0.006 0.016-0.016 0.027-0.028 0.034s-0.028 0.009-0.047 0.007c-0.021-0.003-0.037-0.011-0.048-0.026s-0.014-0.033-0.011-0.055c0.003-0.023 0.012-0.040 0.027-0.051s0.033-0.015 0.054-0.012c0.018 0.002 0.031 0.008 0.041 0.017s0.015 0.021 0.018 0.036zM22.172 18.922l0.005-0.034 0.038 0.005-0.005 0.034-0.038-0.005zM22.149 19.079l0.020-0.138 0.038 0.005-0.020 0.138-0.038-0.005zM22.11 19.073l-0.038-0.005 0.010-0.071c0.002-0.015 0.003-0.025 0.002-0.029s-0.003-0.009-0.007-0.011l-0-0c-0.003-0.003-0.008-0.005-0.013-0.005h-0c-0.007-0.001-0.013 0-0.019 0.003s-0.010 0.007-0.013 0.012c-0.003 0.006-0.005 0.016-0.008 0.031l-0.009 0.063-0.038-0.005 0.020-0.138 0.036 0.005-0.003 0.020c0.015-0.014 0.032-0.020 0.051-0.017 0.009 0.001 0.016 0.004 0.023 0.007s0.011 0.008 0.014 0.013l0 0c0.003 0.005 0.005 0.010 0.005 0.016v0c0 0.002 0 0.004 0 0.006 0 0.007-0.001 0.013-0.002 0.019l0-0.001-0.013 0.086zM21.923 18.888l0.005-0.034 0.038 0.005-0.005 0.034-0.038-0.005zM21.9 19.045l0.020-0.138 0.038 0.005-0.020 0.138-0.038-0.005zM21.668 18.874l0.035 0.005-0.003 0.019c0.015-0.013 0.031-0.018 0.048-0.016 0.009 0.001 0.017 0.004 0.023 0.009s0.011 0.011 0.014 0.019c0.008-0.007 0.015-0.011 0.023-0.014s0.016-0.003 0.024-0.002c0.011 0.001 0.019 0.005 0.026 0.010s0.012 0.012 0.014 0.020l0 0c0.002 0.006 0.002 0.016-0 0.029l-0.013 0.088-0.038-0.005 0.012-0.079c0.002-0.014 0.002-0.023 0-0.027-0.003-0.006-0.008-0.009-0.015-0.010-0.001-0-0.002-0-0.004-0-0.011 0-0.020 0.006-0.025 0.015l-0 0c-0.003 0.006-0.005 0.015-0.007 0.028l-0.010 0.066-0.038-0.005 0.011-0.076c0.002-0.013 0.003-0.022 0.002-0.026s-0.002-0.007-0.005-0.010v0c-0.003-0.003-0.007-0.004-0.011-0.004h-0c-0.001-0-0.003-0-0.004-0-0.005 0-0.009 0.001-0.013 0.003l0-0c-0.005 0.002-0.010 0.007-0.012 0.012l-0 0c-0.003 0.005-0.005 0.015-0.007 0.028l-0.010 0.067-0.038-0.005 0.020-0.138zM21.481 18.917c0.002-0.012 0.007-0.023 0.015-0.034s0.018-0.018 0.030-0.022c0.012-0.004 0.026-0.006 0.040-0.004 0.022 0.003 0.039 0.012 0.051 0.028s0.017 0.034 0.014 0.054c-0.003 0.021-0.013 0.037-0.029 0.049s-0.035 0.016-0.056 0.013c-0.013-0.002-0.026-0.006-0.037-0.014s-0.019-0.017-0.024-0.029c-0.005-0.012-0.006-0.026-0.003-0.042zM21.52 18.924c-0.002 0.014-0 0.025 0.006 0.033s0.014 0.013 0.024 0.014c0.002 0 0.003 0 0.005 0 0.008 0 0.016-0.003 0.022-0.008l-0 0c0.008-0.006 0.013-0.017 0.015-0.030s0-0.024-0.006-0.033c-0.005-0.008-0.014-0.013-0.023-0.014h-0c-0.002-0-0.003-0-0.005-0-0.008 0-0.016 0.003-0.022 0.008l0-0c-0.008 0.006-0.013 0.016-0.015 0.030zM21.306 18.772l0.074 0.010c0.017 0.002 0.029 0.005 0.038 0.009 0.011 0.005 0.020 0.012 0.028 0.022s0.012 0.021 0.015 0.034c0.003 0.013 0.003 0.028 0 0.046-0.002 0.016-0.006 0.029-0.012 0.040-0.006 0.012-0.015 0.023-0.026 0.031l-0 0c-0.008 0.006-0.018 0.009-0.031 0.012-0.009 0.001-0.021 0.001-0.036-0.001l-0.076-0.010 0.028-0.191zM21.341 18.809l-0.019 0.126 0.030 0.004c0.011 0.002 0.020 0.002 0.025 0.001 0.007-0 0.012-0.003 0.018-0.006l-0 0c0.005-0.003 0.009-0.009 0.013-0.017s0.007-0.020 0.009-0.034c0.002-0.015 0.002-0.026 0.001-0.035s-0.004-0.014-0.009-0.020l0 0c-0.005-0.005-0.010-0.009-0.017-0.011l-0-0c-0.005-0.002-0.016-0.004-0.033-0.006l-0.018-0.002z"></path>
</svg>
