<!-- Generated by IcoMoon.io -->
<svg version="1.1" xmlns="http://www.w3.org/2000/svg" width="43" height="32" viewBox="0 0 43 32">
<title>EGP</title>
<path fill="#000" d="M0 21.333h42.667v10.667h-42.667z"></path>
<path fill="#fff" d="M0 10.667h42.667v10.667h-42.667z"></path>
<path fill="#ce1126" d="M0 0h42.667v10.667h-42.667z"></path>
<path fill="#fff" d="M21.376 16.128l3.653 3.391-0.26-6.158c-0.038-0.933-0.849-0.719-1.438-0.383-0.597 0.383-1.278 0.383-1.997 0.13-0.719 0.253-1.4 0.253-1.997-0.13-0.589-0.337-1.4-0.551-1.438 0.383l-0.26 6.158 3.739-3.391z"></path>
<path fill="#c09300" d="M18.318 13.146l-0.252 5.99-0.429 0.382 0.26-6.158c0.122-0.084 0.337-0.214 0.421-0.214zM18.831 13.575l-0.214 5.011-0.428 0.438 0.26-5.786c0.084 0.084 0.337 0.291 0.383 0.337zM19.298 13.957l-0.168 4.179-0.344 0.337 0.214-4.768c0.084 0.084 0.252 0.207 0.298 0.252zM19.803 14.172l-0.168 3.562-0.337 0.273 0.168-3.965c0.084 0.038 0.253 0.13 0.337 0.13zM20.27 14.172l-0.122 2.968-0.344 0.337 0.13-3.267c0.084 0 0.298 0 0.337-0.038z"></path>
<path fill="#c09300" d="M24.348 13.146l0.252 5.99 0.429 0.382-0.26-6.158c-0.122-0.084-0.337-0.214-0.421-0.214zM23.835 13.575l0.214 5.011 0.428 0.438-0.26-5.786c-0.084 0.084-0.337 0.291-0.383 0.337zM23.368 13.957l0.168 4.179 0.344 0.337-0.214-4.768c-0.084 0.084-0.252 0.207-0.298 0.252zM22.863 14.172l0.168 3.562 0.337 0.273-0.168-3.965c-0.084 0.038-0.253 0.13-0.337 0.13zM22.397 14.172l0.122 2.968 0.344 0.337-0.13-3.267c-0.084 0-0.298 0-0.337-0.038z"></path>
<path fill="#c09300" d="M21.502 16.803l0.513 2.334-0.168 0.168-0.176-0.13-0.291-2.081 0.122 2.081-0.168 0.214-0.168-0.214 0.122-2.081-0.291 2.081-0.176 0.13-0.168-0.168 0.513-2.334h0.337z"></path>
<path fill="#fff" d="M20.185 15.778l-1.018 3.611 1.4 0.214 0.597-2.716-0.979-1.109z"></path>
<path fill="#fff" d="M22.481 15.778l1.018 3.611-1.4 0.214-0.597-2.716 0.979-1.109z"></path>
<path fill="#fff" d="M21.333 21.003c1.064 0 2.081-0.084 2.678-0.252 0.253-0.046 0.253-0.176 0.253-0.344 0.253-0.084 0.122-0.382 0.298-0.382-0.176 0.046-0.214-0.298-0.428-0.252 0-0.299-0.298-0.337-0.551-0.253-0.505 0.169-1.4 0.207-2.25 0.207-0.849-0.038-1.737-0.038-2.25-0.207-0.252-0.084-0.551-0.046-0.551 0.253-0.214-0.046-0.253 0.298-0.428 0.252 0.176 0 0.046 0.298 0.298 0.382 0 0.168 0 0.299 0.26 0.344 0.589 0.168 1.607 0.252 2.67 0.252z"></path>
<path fill="#fff" d="M19.887 19.389c0.344 0.046 0.727 0.084 1.025 0.046 0.168 0 0.291 0.291-0.046 0.337-0.298 0.038-0.765 0-1.018-0.046-0.214-0.038-0.681-0.122-0.979-0.207-0.298-0.13-0.084-0.382 0.084-0.344 0.26 0.084 0.597 0.168 0.934 0.214zM22.779 19.389c-0.344 0.046-0.727 0.084-1.018 0.046-0.176 0-0.299 0.291 0.038 0.337 0.298 0.038 0.765 0 1.018-0.046 0.214-0.038 0.681-0.122 0.979-0.207 0.299-0.13 0.084-0.382-0.084-0.344-0.26 0.084-0.597 0.168-0.933 0.214z"></path>
<path fill="#fff" d="M18.831 19.221c-0.26-0.046-0.383 0.252-0.298 0.421 0.038-0.084 0.214-0.084 0.253-0.168 0.046-0.13-0.038-0.13 0.046-0.252zM19.849 20.003c0-0.168 0.168-0.147 0.168-0.316 0-0.084-0.046-0.214-0.13-0.214s-0.168 0.084-0.168 0.168c-0.038 0.168 0.13 0.194 0.13 0.362zM21.060 19.519c0.252 0 0.227 0.337 0.105 0.505 0-0.122-0.214-0.168-0.214-0.252 0-0.13 0.193-0.13 0.109-0.253zM23.835 19.221c0.26-0.046 0.383 0.252 0.298 0.421-0.038-0.084-0.214-0.084-0.252-0.168-0.046-0.13 0.038-0.13-0.046-0.252zM22.817 20.003c0-0.168-0.168-0.147-0.168-0.316 0-0.084 0.046-0.214 0.13-0.214s0.168 0.084 0.168 0.168c0.038 0.168-0.13 0.194-0.13 0.362zM21.606 19.519c-0.252 0-0.227 0.337-0.105 0.505 0-0.122 0.214-0.168 0.214-0.252 0-0.13-0.193-0.13-0.109-0.253z"></path>
<path fill="#fff" d="M18.915 19.305c0.084 0 0.214 0.038 0.253 0.084l-0.253-0.084zM19.336 19.435c0.046 0 0.214 0.038 0.298 0.084l-0.299-0.084zM20.866 19.603c-0.084 0-0.252 0-0.298 0.038l0.298-0.038zM20.4 19.603c-0.046-0.046-0.214-0.046-0.298 0h0.298zM23.751 19.305c-0.084 0-0.207 0.038-0.253 0.084l0.253-0.084zM23.33 19.435c-0.046 0-0.214 0.038-0.298 0.084l0.299-0.084zM21.8 19.603c0.084 0 0.253 0 0.298 0.038l-0.299-0.038zM22.266 19.603c0.046-0.046 0.214-0.046 0.298 0h-0.299z"></path>
<path fill="#c09300" d="M18.845 19.978c-0.028-0.005-0.043-0.028-0.036-0.055 0.009-0.033 0.035-0.051 0.059-0.042 0.016 0.006 0.044 0.034 0.044 0.045 0 0.012-0.015 0.040-0.021 0.040-0.003 0-0.007 0.002-0.010 0.005-0.005 0.006-0.022 0.009-0.036 0.007zM21.774 20.187c-0.011-0.004-0.027-0.028-0.027-0.039 0-0.021 0.031-0.054 0.050-0.054 0.009-0 0.035 0.013 0.044 0.023 0.017 0.018 0.014 0.048-0.008 0.064-0.011 0.008-0.043 0.011-0.058 0.006zM21.793 20.319c-0.022-0.008-0.031-0.019-0.032-0.043-0.002-0.026 0.001-0.030 0.028-0.045l0.019-0.011 0.018 0.008c0.026 0.011 0.037 0.024 0.038 0.041 0.001 0.019-0.013 0.038-0.034 0.047-0.019 0.009-0.020 0.009-0.037 0.003z"></path>
<path fill="#c09300" d="M19.080 19.738c-0.018-0.001-0.044 0.016-0.058 0.025-0.035 0.008-0.075 0.029-0.108 0.007-0.033-0.010-0.077-0.002-0.082 0.038 0.008 0.035 0.057 0.055 0.087 0.032 0.022-0.029 0.082-0.046 0.088 0.003-0.024 0.037-0.022 0.086-0.042 0.125-0.003 0.024-0.014 0.048-0.027 0.068-0.025 0.003-0.051-0-0.072 0.015-0.033 0.002-0.067 0.018-0.087 0.047-0.021 0.031-0.042 0.062-0.048 0.1 0.006 0.039 0.050 0.050 0.083 0.052 0.036 0.010 0.071 0.023 0.107 0.033 0.058 0.013 0.112 0.034 0.17 0.047 0.084 0.025 0.173 0.037 0.258 0.060 0.009 0.003 0.017 0.006 0.027 0.007 0.035 0.007 0.054-0.031 0.057-0.060 0.018-0.062 0.031-0.125 0.048-0.187 0.012-0.025 0.027-0.081-0.022-0.068-0.027 0.016-0.051 0.041-0.085 0.043-0.047 0.003-0.020 0.050-0.002 0.070 0.004 0.031-0.006 0.069-0.027 0.093-0.028 0.018-0.063-0.003-0.092-0.010-0.031 0.001-0.092-0.015-0.063-0.057 0.010-0.031 0.011-0.065 0.023-0.095 0.016-0.033 0.018-0.068 0.025-0.103-0.019-0.041-0.052 0.014-0.078 0.018-0.018 0.012-0.086 0.018-0.050 0.050 0.031 0.023 0.007 0.064 0.002 0.093-0.002 0.041-0.045 0.051-0.078 0.042-0.034-0.002-0.080-0.026-0.052-0.063 0.006-0.031 0.017-0.061 0.023-0.092 0.013-0.037 0.023-0.073 0.037-0.11 0.006-0.033 0.018-0.064 0.033-0.093 0.001-0.037 0.026-0.068 0.025-0.105-0.003-0.018-0.011-0.025-0.022-0.025zM18.888 20.125c0.001-0 0.002-0 0.003-0 0.003 0 0.006 0.001 0.008 0.002l-0-0c0.013 0.006 0.014 0.017 0 0.028-0.006 0.005-0.013 0.010-0.015 0.010-0.025-0.002-0.032-0.006-0.033-0.015s0.002-0.010 0.018-0.018c0.005-0.003 0.011-0.005 0.018-0.007l0.001-0zM18.833 20.393c-0.026-0.025-0.022-0.043 0.017-0.072 0.017-0.012 0.027-0.011 0.046 0.006 0.029 0.027 0.031 0.044 0.005 0.067-0.013 0.011-0.018 0.014-0.033 0.014s-0.020-0.002-0.034-0.015zM18.995 20.442c-0.020-0.005-0.035-0.023-0.035-0.045 0-0.005 0.001-0.009 0.002-0.014l-0 0c0.007-0.023 0.011-0.025 0.045-0.026 0.038-0 0.046 0.006 0.046 0.039 0 0.019-0.001 0.023-0.011 0.032s-0.023 0.013-0.037 0.013c-0.004 0-0.007-0-0.011-0.001l0 0zM23.748 20.446c-0.012-0.010-0.015-0.015-0.015-0.027-0-0.022 0.012-0.038 0.040-0.050 0.036-0.016 0.051-0.014 0.065 0.010 0.018 0.032 0.017 0.045-0.004 0.067-0.012 0.012-0.014 0.013-0.042 0.013s-0.030-0.001-0.044-0.012zM19.211 20.507c-0.019-0.005-0.029-0.020-0.030-0.043-0-0.018 0.001-0.021 0.014-0.030 0.008-0.006 0.021-0.012 0.031-0.013 0.014-0.002 0.019-0.001 0.031 0.007 0.029 0.021 0.036 0.041 0.019 0.061-0.018 0.021-0.035 0.026-0.064 0.018zM20.381 20.56c-0.004-0.005-0.014-0.009-0.015-0.015 0.002-0.030 0.003-0.060 0.013-0.088 0.005-0.028 0.001-0.057 0.010-0.084 0.010-0.049 0.010-0.1 0.021-0.149 0.001-0.025 0.003-0.051 0.010-0.075 0.008-0.038 0.001-0.079 0.012-0.117-0.001-0.014 0.015-0.052 0.030-0.030 0.021 0.031 0.049 0.056 0.076 0.081 0.023 0.013 0.002 0.033-0.014 0.040-0.022 0.009-0.028 0.033-0.026 0.055-0.003 0.022-0.012 0.043-0.013 0.066-0.005 0.033-0.004 0.067-0.008 0.1-0.010 0.033-0.006 0.067-0.009 0.101 0.001 0.021-0.010 0.041-0.008 0.062-0.003 0.022-0.004 0.048-0.022 0.063-0.018 0.009-0.043 0.007-0.057-0.008zM21.965 20.037c-0.026 0.019-0.049 0.042-0.072 0.065-0.032 0.024 0.026 0.038 0.033 0.058 0.008 0.031 0.008 0.065 0.010 0.097 0.009 0.029 0.014 0.061 0.012 0.092-0.003 0.033-0.046 0.026-0.065 0.045-0.026 0.011-0.037 0.037-0.057 0.055-0.013 0.026-0.017 0.057-0.018 0.087 0.002 0.024-0.016 0.051 0 0.072 0.002 0.003 0.005 0.007 0.007 0.010 0.005 0.008 0.018 0.002 0.027 0.003 0.027-0.002 0.055 0.003 0.080-0.008 0.065-0.011 0.13-0.012 0.195-0.015 0.040 0.001 0.078-0.013 0.118-0.012 0.031 0.007 0.045-0.027 0.045-0.052-0.018-0.035-0.002-0.076-0.017-0.112-0.013-0.036-0.008-0.076-0.013-0.113-0.001-0.029-0.038-0.040-0.057-0.018-0.018 0.018-0.048 0.022-0.062 0.045-0.016 0.032 0.033 0.032 0.042 0.057 0.009 0.025 0.006 0.052 0.008 0.078 0.006 0.032-0.028 0.033-0.050 0.037-0.029 0.011-0.069 0.018-0.085-0.017-0.010-0.026-0.009-0.053-0.012-0.080-0.001-0.048-0.012-0.094-0.015-0.142-0.003-0.058-0.013-0.117-0.017-0.175-0.001-0.024-0.004-0.064-0.038-0.057zM21.931 20.477l0.017 0.002 0.002 0.020 0.002 0.020-0.022 0.007c-0.006 0.002-0.013 0.004-0.021 0.005l-0.001 0c-0.004-0.002-0.007-0.005-0.010-0.007l0 0c-0.012-0.009-0.009-0.021 0.007-0.037 0.009-0.009 0.013-0.011 0.027-0.010zM20.333 19.982c-0.020 0.007-0.046 0.037-0.067 0.037-0.047 0.003-0.040 0.049-0.007 0.065 0.004 0.014 0 0.031 0.002 0.047 0.007 0.042-0.020 0.076-0.015 0.118-0.002 0.046-0.016 0.092-0.018 0.138-0.013 0.048-0.013 0.098-0.022 0.147-0.006 0.044-0.037 0.028-0.065 0.017-0-0.019-0.001-0.038-0.002-0.057 0.012-0.044-0.023-0.056-0.058-0.062-0.037 0.003-0.055-0.028-0.047-0.060 0.016-0.019 0.055-0.014 0.080-0.017 0.052 0.011 0.050-0.059 0.023-0.083-0.018-0.034-0.064-0.049-0.077-0.083 0.005-0.046-0.026-0.092-0.063-0.115-0.058-0.004-0.102 0.046-0.123 0.095-0.024 0.007-0.048 0.014-0.072 0.023-0.038 0.009-0.092 0.075-0.040 0.1 0.029 0.008 0.117 0.028 0.078 0.068-0.022 0.038-0.064 0.038-0.102 0.028-0.039 0-0.082-0.019-0.080-0.063-0.008-0.040-0.007-0.083-0.025-0.12-0.008-0.045-0.059-0.034-0.062 0.007-0.039 0.028-0.034 0.075-0.007 0.108 0.017 0.039 0 0.084-0.017 0.12-0.010 0.047-0.062 0.048-0.098 0.063-0.018 0.007-0.087-0.004-0.062 0.035 0.040 0.014 0.088 0.027 0.13 0.017 0.044-0.005 0.082-0.035 0.103-0.073 0.029-0.030 0.080-0.014 0.118-0.015 0.041-0 0.083 0.029 0.123 0.010 0.012-0.030 0.065-0.080 0.082-0.028-0.003 0.046 0.038 0.071 0.080 0.065 0.046-0.003 0.029 0.033 0.028 0.060 0.003 0.050 0.035 0.076 0.077 0.097 0.014 0.004 0.029 0.003 0.043 0 0.040-0.013 0.083-0.030 0.095-0.075 0.016-0.036 0.017-0.077 0.028-0.115 0.009-0.060 0.022-0.121 0.023-0.182 0.015-0.055 0.011-0.114 0.022-0.17 0.007-0.042 0.012-0.083 0.017-0.125-0.005-0.022-0.015-0.026-0.027-0.022zM19.971 20.204c0.008 0.001 0.012 0.011 0.013 0.028 0.001 0.020 0.011 0.035 0.023 0.038 0.010 0.002 0.009 0.013-0.002 0.020-0.006 0.004-0.017 0.007-0.037 0.007-0.031-0-0.050-0.008-0.067-0.025l-0.010-0.010 0.015-0.010c0.008-0.006 0.021-0.018 0.030-0.027 0.015-0.015 0.025-0.023 0.033-0.022zM23.493 19.784c-0.032 0.002-0.062 0.006-0.091 0.014l0.003-0.001c-0.055-0.003-0.083 0.055-0.030 0.083 0.032 0.082 0.082-0.017 0.133-0.010 0.077 0.015 0.083 0.098 0.095 0.16 0.004 0.062 0.022 0.122 0.040 0.18 0.051 0.057-0.038 0.093-0.077 0.048-0.033-0.035-0.102-0.079-0.142-0.030-0.048 0.020-0.050 0.085-0.090 0.103-0.064 0.020-0.073-0.060-0.107-0.093-0.031-0.044-0.091-0.048-0.14-0.063-0.023-0.046-0.011-0.125-0.058-0.157-0.040 0.016-0.113 0.091-0.052 0.125 0.060 0.051-0.026 0.075-0.053 0.11-0.039 0.043-0.045 0.103-0.052 0.158-0.067 0.037-0.080-0.042-0.088-0.092-0.005-0.059-0.055-0.042-0.090-0.020-0.051 0.021-0.076 0.069-0.112 0.107-0.004 0.035 0.002 0.072 0.002 0.108 0.012 0.043 0.064 0.023 0.097 0.020 0.052-0.022 0.074 0.033 0.032 0.065-0.028 0.036-0.118 0.017-0.11 0.075 0.029 0.003 0.059 0.002 0.088 0 0.058-0.016 0.121-0.057 0.127-0.122 0.008-0.057 0.089-0.046 0.133-0.058 0.055-0.016 0.122-0.020 0.135 0.050 0.038 0.040 0.12 0.085 0.162 0.030 0.042-0.026 0.063-0.071 0.060-0.12-0.009-0.042 0.068-0.043 0.087-0.020 0.028 0.046 0.115 0.032 0.157 0.007 0.045-0.033 0.054-0.091 0.118-0.092 0.095-0.028 0.194-0.045 0.287-0.080 0.075-0.016-0.011-0.064-0.030-0.092-0.057-0.028-0.107 0.088-0.172 0.030-0.050-0.038-0.046-0.111-0.065-0.167-0.013-0.072-0.009-0.156-0.062-0.213-0.036-0.038-0.085-0.047-0.135-0.045zM23.13 20.289c0.007-0 0.014 0.003 0.027 0.010 0.023 0.013 0.040 0.034 0.040 0.052 0 0.011-0.003 0.012-0.020 0.020-0.011 0.005-0.022 0.010-0.027 0.010-0.010-0-0.033-0.019-0.033-0.027 0-0.003-0.003-0.015-0.007-0.025-0.006-0.017-0.005-0.017 0.003-0.028 0.006-0.007 0.010-0.012 0.017-0.012zM23.478 20.307c0.020-0.001 0.032 0.005 0.040 0.020 0.010 0.018 0.003 0.031-0.022 0.042-0.011 0.005-0.022 0.009-0.023 0.008s-0.011-0.005-0.020-0.012c-0.014-0.009-0.017-0.014-0.017-0.025-0-0.017 0.019-0.032 0.042-0.033zM23.001 20.312c0.006-0.001 0.011 0.002 0.018 0.008 0.010 0.008 0.013 0.015 0.015 0.032 0.002 0.012 0.002 0.027 0 0.033-0.003 0.012-0.003 0.012-0.030 0.012-0.034 0-0.037-0.003-0.037-0.035 0.001-0.020 0.001-0.026 0.012-0.037 0.009-0.009 0.016-0.012 0.022-0.013zM22.708 20.389c0.012 0.003 0.021 0.012 0.023 0.023l0 0c0.003 0.017 0 0.025-0.013 0.032-0.012 0.006-0.039 0.008-0.047 0.003-0.004-0.003-0.007-0.006-0.010-0.010l-0-0c-0.004-0.006-0.003-0.010 0.002-0.013 0.003-0.003 0.007-0.006 0.007-0.008s0.004-0.009 0.008-0.015c0.005-0.008 0.014-0.012 0.024-0.012 0.002 0 0.004 0 0.006 0.001l-0-0zM23.201 20.452c0.010 0 0.018 0.003 0.023 0.008 0.010 0.009 0.009 0.021-0.002 0.030-0.007 0.006-0.046 0.005-0.060 0-0.006-0.002-0.008-0.005-0.008-0.012-0-0.007 0.002-0.012 0.015-0.018 0.011-0.005 0.022-0.008 0.032-0.008zM22.286 20.709c-0.005-0.003-0.013-0.006-0.005-0.012 0.009-0.016 0.028-0.022 0.044-0.028 0.030-0.014 0.054-0.034 0.073-0.059l0-0.001c0.003-0.018 0.023-0.027 0.023-0.046 0-0.025 0.002-0.051-0.004-0.076-0.007-0.023-0.024-0.040-0.044-0.052-0.014-0.011-0.036-0.014-0.041-0.033-0.003-0.018 0.014-0.032 0.019-0.049 0.012-0.022 0.022-0.046 0.035-0.068 0.014-0.015 0.035-0.001 0.042 0.014 0.010 0.015 0.019 0.031 0.024 0.048 0.016 0.018 0.030 0.038 0.036 0.062 0.008 0.017 0.020 0.032 0.020 0.052 0 0.022 0.012 0.042 0.012 0.064 0.001 0.030 0.001 0.061-0.010 0.089-0.007 0.016-0.022 0.025-0.032 0.039-0.017 0.016-0.036 0.031-0.058 0.039-0.015 0.005-0.024 0.023-0.044 0.018-0.027 0.001-0.055 0.004-0.082-0 0.002 0.003-0.008-0.005-0.007-0.003zM21.92 20.733c-0.013-0.013-0.016-0.019-0.016-0.032s0.002-0.018 0.015-0.031c0.023-0.024 0.035-0.024 0.075-0.004 0.038 0.019 0.052 0.021 0.055 0.007s0.026-0.026 0.047-0.026c0.001-0 0.002-0 0.003-0 0.011 0 0.021 0.004 0.029 0.011l-0-0c0.013 0.010 0.014 0.012 0.014 0.036s-0 0.026-0.015 0.039c-0.015 0.013-0.017 0.014-0.036 0.012-0.023-0.002-0.037-0.013-0.041-0.031-0.003-0.013-0.007-0.017-0.011-0.007-0.001 0.003-0.007 0.006-0.013 0.008-0.011 0.003-0.029 0.014-0.042 0.027-0.005 0.005-0.014 0.007-0.028 0.007-0.019 0-0.022-0.001-0.036-0.016zM20.863 20.258c-0.035 0-0.074 0.030-0.078 0.065 0.008 0.040 0.041 0.079 0.020 0.122 0.015 0.054-0.041 0.075-0.078 0.043-0.023-0.052-0.034-0.109-0.068-0.155-0.043-0.012-0.062 0.056-0.092 0.080 0.015 0.040 0.058 0.076 0.063 0.127 0.010 0.049-0.019 0.103-0.062 0.128-0.037 0.035-0.087 0.022-0.132 0.030-0.055 0.032 0.040 0.044 0.065 0.045 0.056 0.006 0.114-0.002 0.155-0.043 0.041-0.020 0.038-0.090 0.087-0.098 0.085-0.004 0.169 0.013 0.253 0.015 0.045 0.011 0.115-0.005 0.147 0.028 0 0.059 0.050 0.095 0.098 0.118 0.027 0.007 0.055-0.026 0.082-0.032 0.052-0.016 0.036-0.080 0.067-0.105 0.088-0.005 0.177-0.004 0.265-0.005 0.017 0 0.022-0.023 0.033-0.033-0.002-0.034-0.003-0.068-0.008-0.102-0.017-0.043 0.003-0.098-0.028-0.135-0.044-0.012-0.082 0.028-0.127 0.032-0.049 0.022-0.091 0.068-0.093 0.123-0.029 0.048-0.076-0.009-0.060-0.048-0.002-0.017 0.004-0.038-0.002-0.053-0.027-0.032-0.074-0.022-0.112-0.027-0.054 0.002-0.107-0.010-0.162-0.008-0.048-0.004-0.097 0.004-0.143-0.008-0.055-0.002-0.047-0.055-0.057-0.093-0.009-0.006-0.020-0.010-0.031-0.010-0.001 0-0.001 0-0.002 0h0zM20.97 20.455c0.018 0 0.036 0.003 0.053 0.005 0.023 0.004 0.047-0.008 0.070 0 0.052 0.009 0.104 0.007 0.157 0.012 0.014-0 0.024 0.010 0.033 0.018 0 0.036 0 0.074 0 0.11-0.002 0.014 0.004 0.032-0.008 0.042-0.004 0.003-0.008 0.005-0.013 0.007l-0 0c-0.015-0.004-0.030-0.013-0.037-0.027-0.002-0.019 0.001-0.038 0.002-0.057-0-0.005 0.002-0.013 0-0.017-0.011-0.008-0.024-0.013-0.038-0.013h-0c-0.045-0.002-0.090-0.005-0.135-0.007-0.038-0.002-0.077 0.003-0.113-0.007-0.014-0.005-0.033-0.003-0.042-0.018-0.013-0.015 0.006-0.032 0.018-0.038 0.014-0.006 0.031-0.010 0.048-0.010 0.002 0 0.003 0 0.005 0h-0zM21.571 20.468c0.009-0 0.011 0.003 0.015 0.018 0.002 0.010 0.005 0.022 0.007 0.027 0.002 0.006-0.001 0.008-0.010 0.012-0.026 0.010-0.053 0.009-0.062-0.003-0.004-0.006 0.001-0.023 0.008-0.030 0.015-0.014 0.033-0.023 0.042-0.023z"></path>
<path fill="#fff" d="M21.332 17.452c1.741-1.339 1.592-3.3 1.592-3.3-0.046 0.009-0.090 0.014-0.135 0.014-0.365 0-1.236-0.209-1.439-0.474-0.218 0.24-1.108 0.474-1.471 0.474-0.046 0-0.092-0.005-0.135-0.014 0 0-0.152 1.961 1.589 3.3z"></path>
<path fill="#fff" d="M22.785 14.296c-0.015 0.001-0.030 0.001-0.045 0.001-0.331 0-1.1-0.17-1.396-0.424-0.31 0.235-1.092 0.424-1.417 0.424-0.016-0-0.032-0.002-0.047-0.005l0.002 0c-0.001 0.074 0.003 0.151 0.008 0.221 0.017 0.261 0.063 0.524 0.133 0.776 0.219 0.794 0.668 1.47 1.311 1.982 0.644-0.513 1.092-1.188 1.312-1.983 0.070-0.252 0.116-0.515 0.133-0.776 0.005-0.069 0.008-0.144 0.008-0.216z"></path>
<path fill="#c09300" d="M20.767 14.135c-0.313 0.098-0.652 0.162-0.84 0.162-0.015 0-0.030-0.002-0.045-0.005-0.001 0.074 0.004 0.152 0.008 0.222 0.020 0.284 0.066 0.549 0.138 0.802l-0.007-0.027c0.147 0.535 0.4 1.015 0.745 1.428v-2.582zM21.866 14.13v2.627c0.362-0.422 0.626-0.918 0.778-1.47 0.065-0.226 0.112-0.491 0.131-0.763l0.001-0.012c0.004-0.069 0.009-0.144 0.008-0.217-0.015 0.001-0.030 0.002-0.045 0.002-0.199 0-0.556-0.062-0.873-0.167z"></path>
<path fill="#fff" d="M21.99 13.498c0.036 0.002-0.048-0.19-0.048-0.19 0.094 0.096 0.45 0.119 0.45 0.119-0.213-0.094-0.427-0.805-0.401-1.372 0.023-0.569-0.081-0.793-0.165-0.876-0.107-0.107-0.45-0.201-0.675-0.213-0.128-0.006-0.107 0.096-0.107 0.096-0.236-0.061-0.473-0.084-0.579-0.013-0.1 0.067-0.121 0.402-0.048 0.343 0.178-0.142 0.332-0.013 0.439 0.142 0.094 0.136 0.088 0.521-0.048 0.97-0.142 0.473-0.531 0.945-0.531 0.945 0.211 0 0.508-0.188 0.508-0.188l-0.071 0.295c0.224-0.107 0.401-0.272 0.401-0.272l0.213 0.224c0.071-0.094 0.213-0.224 0.213-0.224s0.178 0.188 0.45 0.213z"></path>
<path fill="#c09300" d="M20.911 11.713c-0.010-0.077-0.029-0.138-0.057-0.178-0.107-0.155-0.261-0.284-0.439-0.142 0 0 0.061-0.188 0.19-0.194 0.1-0.006 0.328 0.075 0.529 0.418 0 0-0.148-0.033-0.184-0.002-0.067 0.059-0.040 0.098-0.040 0.098z"></path>
<path fill="#c09300" d="M20.397 11.161c0.015-0.048 0.038-0.092 0.067-0.111 0.107-0.071 0.343-0.048 0.579 0.013 0 0-0.021-0.102 0.107-0.096 0.226 0.013 0.569 0.107 0.675 0.213 0.025 0.027 0.054 0.067 0.079 0.127h-0.004c-0.052-0.073-0.201-0.069-0.236-0.065-0.057 0.006-0.092 0.004-0.167 0.023-0.036 0.008-0.090 0.019-0.119 0.042-0.023 0.019-0.042 0.088-0.077 0.088-0.057 0-0.052-0.015-0.067-0.031-0.019-0.023-0.029-0.057-0.048-0.054-0.058 0.011-0.153-0.036-0.272-0.13s-0.165-0.117-0.32-0.107c-0.153 0.013-0.201 0.098-0.201 0.098l0.004-0.010z"></path>
<path fill="#fff" d="M21.333 11.236c0 0.035-0.028 0.063-0.063 0.063s-0.063-0.028-0.063-0.063c0-0.035 0.028-0.063 0.063-0.063s0.063 0.028 0.063 0.063z"></path>
</svg>
