<!-- Generated by IcoMoon.io -->
<svg version="1.1" xmlns="http://www.w3.org/2000/svg" width="43" height="32" viewBox="0 0 43 32">
<title>ERN</title>
<path fill="#be0027" d="M-0 0h42.667v32h-42.667z"></path>
<path fill="#b4d7f4" d="M-0 32l42.667-0.020-0.002-15.98-42.665 16z"></path>
<path fill="#239e46" d="M-0 0l42.667 0.020-0.002 15.98-42.665-16z"></path>
<path fill="#f3e295" d="M12.415 24.027c-0.714 0.197-1.124 0.751-1.113 1.274l3.515-0.014c0.032-0.562-0.43-1.081-1.134-1.286 3.442-0.071 6.432-1.36 6.975-2.188-0.538-0.233-1.159 0.142-1.603 0.056 1.052-0.486 4.205-2.527 3.692-4.714-0.398 1.215-1.605 2.22-2.119 2.49 1.178-1.788 2.786-3.65 1.391-5.092 0.070 0.836-0.531 1.755-0.797 1.824 0.683-1.889 1.335-4.262-0.145-5.826 0.194 0.565 0.116 2.16-0.152 2.231-0.082-1.285-0.302-3.987-1.655-3.949 0.43 0.383 0.618 1.427 0.627 2.481-0.308-0.723-0.659-1.267-1.408-1.8-0.606-1.163-1.685-2.126-2.764-2.817 0.121 0.846 0.221 1.514 1.403 2.392-0.616-0.038-1.232-1.207-1.891-1.239-0.524-0.025-0.935 0.475-1.791 0.187 0.095 0.283 0.494 0.408 0.578 0.617-0.183 0.127-0.619-0.020-0.98-0.208 0.498 0.678 1.269 1.077 1.924 0.942 0.779-0.15 1.614-0.070 2.41 0.383-0.203 0.104-0.995 0.104-1.503 0.040 0.462 0.468 0.771 0.777 1.574 0.772 0.717-0.005 1.093-0.383 1.277-0.149 0.45 0.533 0.752 1.066 1.129 1.693-0.831 0.092-0.581-0.94-1.506-1.468-0.52 1.077 0.598 2.353 1.359 2.883 0.010 0.809 0.129 1.486 0.472 2.102 0.231 0.434 0.53 0.879 0.418 1.859-0.456-0.332-0.901-1.451-0.737-2.34-0.57 0.156-0.793 1.158-0.524 1.663 0.201 0.384 0.335 1.12 0.103 1.449-0.226 0.306-0.249 0.272-0.246 0.93 0.008 0.393-0.212 0.859-0.57 1.183 0.075-0.277 0.16-0.754 0.077-1.052-0.283 0.48-0.993 0.977-1.216 1.493-0.22 0.517-0.275 1.413-1.337 1.62-1.367 0.271-1.838 0.508-2.718 0.868-0.098-0.668 0.194-2.061 0.753-1.981 0.545 0.097 2.199-0.57 1.607-1.963-0.117 0.439-0.507 0.867-0.928 0.886 0.455-0.591 1.268-1.202 0.872-2.191-0.22 0.421-0.566 0.925-1.090 1.209 0.562-1.077 0.065-1.4-0.602-0.512-0.252 0.342-0.405 1.028-0.565 1.9-0.262-0.709-0.245-1.642-0.556-2.399-0.325-0.819 0.431-1.035 0.786-0.97 0.87 0.232 2.325 0.232 2.217-1.206-0.376 0.486-1.035 0.637-1.747 0.462 0.8-0.584 1.431-1.682 0.54-2.256-0.030 0.608-0.5 1.29-1.129 1.604-0.147-0.513-0.147-1.058-0.021-1.655-0.351 0.369-0.607 1.138-0.811 2.011-0.015-0.863 0.148-1.485 0.269-1.95 0.184-0.678 0.64-0.237 1.339-0.187 0.673 0.038 1.599-0.334 1.422-1.246-0.23 0.361-0.701 0.501-1.183 0.463 0.58-0.351 1.591-0.976 1.036-1.936-0.233 0.364-0.308 0.675-0.982 0.787 0.176-0.406 0.206-0.98 0.729-1.207-0.933-0.186-1.467 0.426-1.739 1.385-0.11-0.665-0.241-0.91-0.267-1.396 0.504-0.56 0.557-1.656-0.535-1.901-0.065 0.565-0.046 0.7 0.079 1.16-0.513-0.305-1.235-0.473-1.716-0.042 0.326 0.352 0.83 0.661 1.608 0.278-0.184 0.601-0.661 0.498-1.317 0.269 0.401 0.753 0.907 0.887 1.466 0.8 0.293 0.771 0.305 1.357-0.549 2.48 0.039-0.698-0.010-1.218-0.565-1.782-0.475-0.465-0.861 0.020-0.119 1.055-0.451-0.332-0.96-1.005-1.114-1.678-0.149 0.832-0.015 1.812 0.446 2.361-0.218 0.233-0.465-0.025-0.832-0.594 0.139 1.822 0.916 2.173 1.96 1.767 0.030 1 0.030 1.926 0.089 3.134-0.609-0.876-1.381-1.53-1.812-1.693-0.134 0.49 0.371 1.129 0.654 1.485-0.431-0.089-1.366-0.802-1.366-0.802-0.094 0.812 0.956 1.564 1.634 1.901-0.797-0.035-1.149-0.337-1.663-0.832 0.010 2.253 2.441 1.861 2.896 1.515 0.059 1.109 0.144 2.391 0.204 3.5-0.687-0.12-0.633-0.327-1.221-0.381-1.632-0.064-2.926-1.959-3.355-3.353-0.123 0.229-0.025 0.47-0.138 0.751-0.265-0.684-0.603-1.568-1.057-1.979 0.116 0.399 0.128 0.804 0.088 1.55-0.156-0.483-0.301-0.631-0.311-1.198 0.010-0.435 0.42-0.757 0.397-1.369-0.017-0.447-0.425-1.416-0.485-2.166-0.197 0.772-0.321 1.586-0.624 2.064 0.15-0.824 0.102-1.393 0.356-1.948 0.294-0.584 0.543-1.106 0.348-1.695-0.188 0.228-0.123 0.435-0.594 0.988-0.102-0.602 0.609-1.565 1.3-1.952 0.487-0.257 1.101-1.174 0.701-1.804-0.458 0.329-0.664 0.773-1.311 1.533 0.462-1.804 1.661-2.276 3.096-2.282 0.318-0.002 0.958-0.116 1.138-0.537-0.405 0.156-0.883 0.176-1.309 0.091 0.31-0.455 0.962-0.396 1.57-0.398 0.477-0.002 1.221-0.067 1.522-0.746-0.582 0.252-1.489 0.304-2.060 0.126 0.909-0.471 2.332-0.521 3.062-1.139-0.832-0.621-2.914 0.145-4.229 1.046 0.367-0.336 0.948-0.932 1.269-1.413-0.719-0.345-2.538 1.67-3.164 2.867-0.595 0.336-0.833 0.863-1.064 1.23 0.317-1.072 0.351-1.849 0.615-2.731-2.040 0.702-1.192 4.471-1.636 5.373 0.052-0.996 0.010-2.274-0.4-2.934-0.628 0.479-0.679 3.301-0.089 5.649-0.213-0.629-0.615-1.215-0.744-1.98-0.93 1.696 0.545 3.697 1.778 5.277-0.929-0.484-1.847-1.524-2.45-2.396 0.166 3.035 3.336 3.666 3.828 4.412-0.668-0.311-1.945-0.926-2.487-0.282 0.882 0.204 1.586 0.439 2.153 0.811 0.823 1.027 2.38 1.476 5.094 1.59z"></path>
</svg>
