<!-- Generated by IcoMoon.io -->
<svg version="1.1" xmlns="http://www.w3.org/2000/svg" width="43" height="32" viewBox="0 0 43 32">
<title>ETB</title>
<path fill="#ffc621" d="M-11.082 0.219h65.042v31.208h-65.042z"></path>
<path fill="#ef2118" d="M-11.208 21.463h65.129v10.622h-65.129z"></path>
<path fill="#298c08" d="M-11.082 0h65.048v11.28h-65.048z"></path>
<path fill="#006bc6" d="M27.049 16.579c0 3.731-3.025 6.756-6.756 6.756s-6.756-3.025-6.756-6.756c0-3.731 3.025-6.756 6.756-6.756s6.756 3.025 6.756 6.756z"></path>
<path fill="#ffc621" d="M17.258 11.794l-0.403 0.283 1.472 2.069 0.393-0.25-1.462-2.102zM19.101 16.678l-0.605-0.422 0.25-0.794-3.016 0.042-0.873-0.668 4.117-0.044 0.764-2.313 0.41 0.935-1.047 3.265zM23.897 12.249l-0.392-0.299-1.528 2.029 0.357 0.299 1.562-2.029zM19.798 15.482l0.22-0.705 0.833-0.002-0.951-2.862 0.373-1.034 1.286 3.911 2.435 0.029-0.768 0.674-3.428-0.011zM25.48 18.688l0.164-0.465-2.4-0.831-0.175 0.432 2.41 0.864zM21.144 15.779l0.738-0.008 0.257 0.792 2.432-1.784 1.099 0.038-3.327 2.425 0.72 2.327-0.877-0.524-1.042-3.266zM19.907 22.176l0.493 0.007 0.023-2.54-0.465-0.028-0.050 2.56zM21.282 17.14l0.242 0.697-0.669 0.496 2.466 1.736 0.314 1.053-3.359-2.381-1.976 1.424 0.217-0.998 2.764-2.029zM14.81 17.954l0.146 0.471 2.422-0.765-0.118-0.451-2.45 0.745zM20.025 17.702l-0.588 0.446-0.679-0.482-0.887 2.882-0.904 0.625 1.224-3.931-1.966-1.438 1.016-0.103 2.785 2z"></path>
</svg>
