<!-- Generated by IcoMoon.io -->
<svg version="1.1" xmlns="http://www.w3.org/2000/svg" width="48" height="32" viewBox="0 0 48 32">
<title>EUR</title>
<path fill="#039" d="M0 0h48v32h-48v-32z"></path>
<path fill="#fc0" d="M24 3.556l-0.549 1.691 0.845 0.275z"></path>
<path fill="#fc0" d="M24 3.556l0.549 1.691-0.845 0.275z"></path>
<path fill="#fc0" d="M25.691 4.784h-1.778v0.889z"></path>
<path fill="#fc0" d="M25.691 4.784l-1.438 1.045-0.522-0.719z"></path>
<path fill="#fc0" d="M25.045 6.772l-0.549-1.691-0.845 0.275z"></path>
<path fill="#fc0" d="M25.045 6.772l-1.438-1.045 0.522-0.719z"></path>
<path fill="#fc0" d="M22.309 4.784h1.778v0.889z"></path>
<path fill="#fc0" d="M22.309 4.784l1.438 1.045 0.522-0.719z"></path>
<path fill="#fc0" d="M22.955 6.772l0.549-1.691 0.845 0.275z"></path>
<path fill="#fc0" d="M22.955 6.772l1.438-1.045-0.522-0.719z"></path>
<path fill="#fc0" d="M24 24.889l-0.549 1.691 0.845 0.275z"></path>
<path fill="#fc0" d="M24 24.889l0.549 1.691-0.845 0.275z"></path>
<path fill="#fc0" d="M25.691 26.117h-1.778v0.889z"></path>
<path fill="#fc0" d="M25.691 26.117l-1.438 1.045-0.522-0.719z"></path>
<path fill="#fc0" d="M25.045 28.105l-0.549-1.691-0.845 0.275z"></path>
<path fill="#fc0" d="M25.045 28.105l-1.438-1.045 0.522-0.719z"></path>
<path fill="#fc0" d="M22.309 26.117h1.778v0.889z"></path>
<path fill="#fc0" d="M22.309 26.117l1.438 1.045 0.522-0.719z"></path>
<path fill="#fc0" d="M22.955 28.105l0.549-1.691 0.845 0.275z"></path>
<path fill="#fc0" d="M22.955 28.105l1.438-1.045-0.522-0.719z"></path>
<path fill="#fc0" d="M13.333 14.222l-0.549 1.691 0.845 0.275z"></path>
<path fill="#fc0" d="M13.333 14.222l0.549 1.691-0.845 0.275z"></path>
<path fill="#fc0" d="M15.024 15.451h-1.778v0.889z"></path>
<path fill="#fc0" d="M15.024 15.451l-1.438 1.045-0.522-0.719z"></path>
<path fill="#fc0" d="M14.378 17.438l-0.549-1.691-0.845 0.275z"></path>
<path fill="#fc0" d="M14.378 17.438l-1.438-1.045 0.522-0.719z"></path>
<path fill="#fc0" d="M11.643 15.451h1.778v0.889z"></path>
<path fill="#fc0" d="M11.643 15.451l1.438 1.045 0.522-0.719z"></path>
<path fill="#fc0" d="M12.288 17.438l0.549-1.691 0.845 0.275z"></path>
<path fill="#fc0" d="M12.288 17.438l1.438-1.045-0.522-0.719z"></path>
<path fill="#fc0" d="M17.622 8.201l1.438-1.045-0.522-0.719z"></path>
<path fill="#fc0" d="M17.622 8.201l0.549-1.691 0.845 0.275z"></path>
<path fill="#fc0" d="M16.976 6.213l1.438 1.045 0.522-0.719z"></path>
<path fill="#fc0" d="M16.976 6.213h1.778v0.889z"></path>
<path fill="#fc0" d="M18.667 4.985l-0.549 1.691 0.845 0.275z"></path>
<path fill="#fc0" d="M18.667 4.985l0.549 1.691-0.845 0.275z"></path>
<path fill="#fc0" d="M19.712 8.201l-1.438-1.045 0.522-0.719z"></path>
<path fill="#fc0" d="M19.712 8.201l-0.549-1.691-0.845 0.275z"></path>
<path fill="#fc0" d="M20.357 6.213l-1.438 1.045-0.522-0.719z"></path>
<path fill="#fc0" d="M20.357 6.213h-1.778v0.889z"></path>
<path fill="#fc0" d="M15.807 12.105l-0.549-1.691-0.845 0.275z"></path>
<path fill="#fc0" d="M15.807 12.105l-1.438-1.045 0.522-0.719z"></path>
<path fill="#fc0" d="M13.717 12.105l1.438-1.045-0.522-0.719z"></path>
<path fill="#fc0" d="M13.717 12.105l0.549-1.691 0.845 0.275z"></path>
<path fill="#fc0" d="M13.072 10.117l1.438 1.045 0.522-0.719z"></path>
<path fill="#fc0" d="M13.072 10.117h1.778v0.889z"></path>
<path fill="#fc0" d="M16.453 10.117l-1.438 1.045-0.522-0.719z"></path>
<path fill="#fc0" d="M16.453 10.117h-1.778v0.889z"></path>
<path fill="#fc0" d="M14.762 8.889l0.549 1.691-0.845 0.275z"></path>
<path fill="#fc0" d="M14.762 8.889l-0.549 1.691 0.845 0.275z"></path>
<path fill="#fc0" d="M16.453 20.784h-1.778v0.889z"></path>
<path fill="#fc0" d="M16.453 20.784l-1.438 1.045-0.522-0.719z"></path>
<path fill="#fc0" d="M15.807 22.772l-0.549-1.691-0.845 0.275z"></path>
<path fill="#fc0" d="M15.807 22.772l-1.438-1.045 0.522-0.719z"></path>
<path fill="#fc0" d="M13.717 22.772l1.438-1.045-0.522-0.719z"></path>
<path fill="#fc0" d="M13.717 22.772l0.549-1.691 0.845 0.275z"></path>
<path fill="#fc0" d="M14.762 19.556l0.549 1.691-0.845 0.275z"></path>
<path fill="#fc0" d="M14.762 19.556l-0.549 1.691 0.845 0.275z"></path>
<path fill="#fc0" d="M13.072 20.784h1.778v0.889z"></path>
<path fill="#fc0" d="M13.072 20.784l1.438 1.045 0.522-0.719z"></path>
<path fill="#fc0" d="M20.357 24.688h-1.778v0.889z"></path>
<path fill="#fc0" d="M20.357 24.688l-1.438 1.045-0.522-0.719z"></path>
<path fill="#fc0" d="M19.712 26.676l-0.549-1.691-0.845 0.275z"></path>
<path fill="#fc0" d="M19.712 26.676l-1.438-1.045 0.522-0.719z"></path>
<path fill="#fc0" d="M17.622 26.676l1.438-1.045-0.522-0.719z"></path>
<path fill="#fc0" d="M17.622 26.676l0.549-1.691 0.845 0.275z"></path>
<path fill="#fc0" d="M18.667 23.46l0.549 1.691-0.845 0.275z"></path>
<path fill="#fc0" d="M18.667 23.46l-0.549 1.691 0.845 0.275z"></path>
<path fill="#fc0" d="M16.976 24.688h1.778v0.889z"></path>
<path fill="#fc0" d="M16.976 24.688l1.438 1.045 0.522-0.719z"></path>
<path fill="#fc0" d="M45.333 14.222l-0.549 1.691 0.845 0.275z"></path>
<path fill="#fc0" d="M44.288 17.438l1.438-1.045-0.522-0.719z"></path>
<path fill="#fc0" d="M45.333 14.222l0.549 1.691-0.845 0.275z"></path>
<path fill="#fc0" d="M43.643 15.451h1.778v0.889z"></path>
<path fill="#fc0" d="M44.288 17.438l0.549-1.691 0.845 0.275z"></path>
<path fill="#fc0" d="M47.024 15.451h-1.778v0.889z"></path>
<path fill="#fc0" d="M47.024 15.451l-1.438 1.045-0.522-0.719z"></path>
<path fill="#fc0" d="M46.378 17.438l-0.549-1.691-0.845 0.275z"></path>
<path fill="#fc0" d="M46.378 17.438l-1.438-1.045 0.522-0.719z"></path>
<path fill="#fc0" d="M30.378 8.201l-0.549-1.691-0.845 0.275z"></path>
<path fill="#fc0" d="M29.333 4.985l-0.549 1.691 0.845 0.275z"></path>
<path fill="#fc0" d="M30.378 8.201l-1.438-1.045 0.522-0.719z"></path>
<path fill="#fc0" d="M31.024 6.213l-1.438 1.045-0.522-0.719z"></path>
<path fill="#fc0" d="M29.333 4.985l0.549 1.691-0.845 0.275z"></path>
<path fill="#fc0" d="M28.288 8.201l1.438-1.045-0.522-0.719z"></path>
<path fill="#fc0" d="M28.288 8.201l0.549-1.691 0.845 0.275z"></path>
<path fill="#fc0" d="M27.643 6.213l1.438 1.045 0.522-0.719z"></path>
<path fill="#fc0" d="M27.643 6.213h1.778v0.889z"></path>
<path fill="#fc0" d="M32.193 12.105l1.438-1.045-0.522-0.719z"></path>
<path fill="#fc0" d="M34.928 10.117h-1.778v0.889z"></path>
<path fill="#fc0" d="M32.193 12.105l0.549-1.691 0.845 0.275z"></path>
<path fill="#fc0" d="M34.283 12.105l-1.438-1.045 0.522-0.719z"></path>
<path fill="#fc0" d="M34.928 10.117l-1.438 1.045-0.522-0.719z"></path>
<path fill="#fc0" d="M31.547 10.117l1.438 1.045 0.522-0.719z"></path>
<path fill="#fc0" d="M31.547 10.117h1.778v0.889z"></path>
<path fill="#fc0" d="M33.238 8.889l-0.549 1.691 0.845 0.275z"></path>
<path fill="#fc0" d="M33.238 8.889l0.549 1.691-0.845 0.275z"></path>
<path fill="#fc0" d="M31.547 20.784l1.438 1.045 0.522-0.719z"></path>
<path fill="#fc0" d="M34.283 22.772l-0.549-1.691-0.845 0.275z"></path>
<path fill="#fc0" d="M31.547 20.784h1.778v0.889z"></path>
<path fill="#fc0" d="M32.193 22.772l0.549-1.691 0.845 0.275z"></path>
<path fill="#fc0" d="M34.283 22.772l-1.438-1.045 0.522-0.719z"></path>
<path fill="#fc0" d="M33.238 19.556l-0.549 1.691 0.845 0.275z"></path>
<path fill="#fc0" d="M33.238 19.556l0.549 1.691-0.845 0.275z"></path>
<path fill="#fc0" d="M34.928 20.784h-1.778v0.889z"></path>
<path fill="#fc0" d="M34.928 20.784l-1.438 1.045-0.522-0.719z"></path>
<path fill="#fc0" d="M27.643 24.688l1.438 1.045 0.522-0.719z"></path>
<path fill="#fc0" d="M30.378 26.676l-0.549-1.691-0.845 0.275z"></path>
<path fill="#fc0" d="M27.643 24.688h1.778v0.889z"></path>
<path fill="#fc0" d="M28.288 26.676l0.549-1.691 0.845 0.275z"></path>
<path fill="#fc0" d="M30.378 26.676l-1.438-1.045 0.522-0.719z"></path>
<path fill="#fc0" d="M29.333 23.46l-0.549 1.691 0.845 0.275z"></path>
<path fill="#fc0" d="M29.333 23.46l0.549 1.691-0.845 0.275z"></path>
<path fill="#fc0" d="M31.024 24.688h-1.778v0.889z"></path>
<path fill="#fc0" d="M31.024 24.688l-1.438 1.045-0.522-0.719z"></path>
</svg>
