<!-- Generated by IcoMoon.io -->
<svg version="1.1" xmlns="http://www.w3.org/2000/svg" width="47" height="32" viewBox="0 0 47 32">
<title>EUR1</title>
<path fill="#009" d="M0.046 0.046h47.059v31.906h-47.059v-31.906z"></path>
<path fill="#fc0" d="M34.892 17.299l-1.024-0.768-1.068 0.763 0.414-1.21-1.055-0.781 1.279 0.020 0.416-1.245 0.377 1.222 1.312 0.011-1.047 0.736 0.395 1.251z"></path>
<path fill="#fc0" d="M33.505 12.123l-1.024-0.768-1.068 0.763 0.414-1.21-1.055-0.781 1.279 0.020 0.416-1.245 0.377 1.222 1.312 0.011-1.047 0.736 0.395 1.251z"></path>
<path fill="#fc0" d="M31.21 13.564l-1.024-0.768-1.068 0.763 0.414-1.21-1.055-0.781 1.279 0.020 0.416-1.245 0.377 1.222 1.312 0.011-1.047 0.736 0.395 1.251z"></path>
<path fill="#fc0" d="M29.716 15.858l-1.024-0.768-1.068 0.763 0.414-1.21-1.055-0.781 1.279 0.020 0.416-1.245 0.377 1.222 1.312 0.011-1.047 0.736 0.395 1.251z"></path>
<path fill="#fc0" d="M29.77 18.686l-1.024-0.768-1.068 0.763 0.414-1.21-1.055-0.781 1.279 0.020 0.416-1.245 0.377 1.222 1.312 0.011-1.047 0.736 0.395 1.251z"></path>
<path fill="#fc0" d="M31.050 21.034l-1.024-0.768-1.068 0.763 0.414-1.21-1.055-0.781 1.279 0.020 0.416-1.245 0.377 1.222 1.312 0.011-1.047 0.736 0.395 1.251z"></path>
<path fill="#fc0" d="M33.505 22.474l-1.024-0.768-1.068 0.763 0.414-1.21-1.055-0.781 1.279 0.020 0.416-1.245 0.377 1.222 1.312 0.011-1.047 0.736 0.395 1.251z"></path>
<path fill="#fc0" d="M36.279 22.581l-1.024-0.768-1.068 0.763 0.414-1.21-1.055-0.781 1.279 0.020 0.416-1.245 0.377 1.222 1.312 0.011-1.047 0.736 0.395 1.251z"></path>
<path fill="#fc0" d="M38.627 21.14l-1.024-0.768-1.068 0.763 0.414-1.21-1.055-0.781 1.279 0.020 0.416-1.245 0.377 1.222 1.312 0.011-1.047 0.736 0.395 1.251z"></path>
<path fill="#fc0" d="M40.067 18.686l-1.024-0.768-1.068 0.763 0.414-1.21-1.055-0.781 1.279 0.020 0.416-1.245 0.377 1.222 1.312 0.011-1.047 0.736 0.395 1.251z"></path>
<path fill="#fc0" d="M40.067 15.912l-1.024-0.768-1.068 0.763 0.414-1.21-1.055-0.781 1.279 0.020 0.416-1.245 0.377 1.222 1.312 0.011-1.047 0.736 0.395 1.251z"></path>
<path fill="#fc0" d="M38.733 13.457l-1.024-0.768-1.068 0.763 0.414-1.21-1.055-0.781 1.279 0.020 0.416-1.245 0.377 1.222 1.312 0.011-1.047 0.736 0.395 1.251z"></path>
</svg>
