<!-- Generated by IcoMoon.io -->
<svg version="1.1" xmlns="http://www.w3.org/2000/svg" width="43" height="32" viewBox="0 0 43 32">
<title>FJD</title>
<path fill="#68bfe5" d="M0 0v32h42.667v-31.995l-42.667-0.005z"></path>
<path fill="#fff" d="M28.059 12.882v9.090c0 2.973 5.372 4.739 5.372 4.739s5.372-1.766 5.372-4.739v-9.090z"></path>
<path fill="#d21034" d="M32.687 16.076v4.093h-4.627v1.489h4.628v4.769l0.745 0.283 0.745-0.283v-4.769h4.627v-1.489h-4.627v-4.093z"></path>
<path fill="#d21034" d="M28.059 12.882h10.744v3.51h-10.744z"></path>
<path fill="#fff" d="M29.524 15.022c0 0.268-0.27 0.486-0.604 0.486s-0.604-0.218-0.604-0.486c0-0.268 0.27-0.486 0.604-0.486s0.604 0.218 0.604 0.486z"></path>
<path fill="#fff" d="M29.457 14.77c0 0.15-0.24 0.271-0.537 0.271s-0.537-0.121-0.537-0.271c0-0.15 0.24-0.271 0.537-0.271s0.537 0.121 0.537 0.271z"></path>
<path fill="#fff" d="M29.457 15.313c0 0.15-0.24 0.271-0.537 0.271s-0.537-0.121-0.537-0.271c0-0.15 0.24-0.271 0.537-0.271s0.537 0.121 0.537 0.271z"></path>
<path fill="#fff" d="M29.457 15.022c0 0.15-0.24 0.271-0.537 0.271s-0.537-0.121-0.537-0.271c0-0.15 0.24-0.271 0.537-0.271s0.537 0.121 0.537 0.271z"></path>
<path fill="#ffd100" d="M38.537 15.697l-0.088-0.243s-0.241-0.098-0.259-0.226c-0.043-0.341-0.165-0.469-0.347-0.518s-0.304 0.031-0.304 0.031c-0.055 0.079-0.329 0.079-0.481 0.085s-0.155-0.066-0.155-0.066c-0.118 0.001-0.168-0.086-0.168-0.086-0.077-0.155-0.135-0.212-0.173-0.232 0.198 0.003 0.346-0.088 0.569-0.322 0.243-0.256 0.417-0.157 0.417-0.157-0.118 0.239 0.039 0.218 0.039 0.218 0.323-0.164 0.043-0.578-0.055-0.56s-0.125-0.047-0.125-0.047c0.003 0.074-0.108 0.104-0.108 0.104 0.083-0.473-0.199-0.599-0.199-0.599-0.043 0.043-0.067 0.128-0.067 0.128-0.079 0.286-0.341 0.244-0.633 0.103s-1.072 0.146-1.315 0.244c-0.244 0.097-0.688 0.25-1.090 0.024s-0.499-0.183-0.658-0.14c-0.158 0.043-0.438 0.11-0.542 0.055s-0.222-0.058-0.222-0.058c0.028-0.016-0.016-0.082-0.016-0.082-0.122-0.164 0.016-0.265 0.016-0.265s-0.227 0.064-0.137 0.451l0.041 0.058s0.030 0.122 0.098 0.158l-0.002 0.027s0.057-0.027 0.075 0.052c0.019 0.079 0.104 0.006 0.14-0.061 0 0-0.061 0.353 0.378 0.438 0 0-0.049-0.055-0.031-0.091s-0.055-0.067-0.049-0.122c0.006-0.055-0.109-0.079-0.018-0.122s0.134-0.128 0.329-0.012c0.195 0.116 0.347 0.092 0.347 0.092s-0.119-0.244-0.053-0.244c0.065 0 0.36 0.365 0.505 0.347s0.425-0.182 0.565-0.121c0 0 0.012-0.073 0.548-0.164s1.197-0.358 1.445-0.124c0 0 0.029 0.185 0.132 0.234 0 0-0.019 0.384-0.682 0.17l-0.241-0.063s-0.037-0.116-1.299 0.208c0 0-0.074 0.026-0.123 0.063s-0.116-0.018-0.366 0.073c-0.249 0.092-1.181 0.396-1.754 0.286l-0.001 0.002c-0.126-0.038-0.244-0.018-0.249-0.038-0.006-0.024 0.067 0.006 0.067 0.006-0.043-0.049-0.061-0.053-0.061-0.053-0.481-0.053-0.396-0.27-0.396-0.27l0.025 0.067c0.079-0.103-0.031-0.347-0.031-0.347l-0.005 0.001c-0.001-0.009-0.003-0.017-0.005-0.024l0 0.002 0.040-0.027c0.231-0.195 0.499-0.231 0.499-0.231-0.158-0.195-0.494-0.091-0.494-0.091 0.006-0.237-0.091-0.512-0.091-0.512-0.329 0.037-0.518 0.311-0.518 0.311-0.012-0.244-0.323-0.383-0.323-0.383 0.116 0.14 0.043 0.475 0.043 0.475l0.012 0.006c-0.019-0.001-0.031 0-0.031 0l-0.007 0.072-0.011-0.005s-0.116 0.043-0.25 0.347c0 0-0.014 0.072-0.065 0.137-0-0.008 0-0.016-0.001-0.025 0 0-0.15 0.196-0.495 0 0 0-0.47-0.279-0.635-0.268s-0.274 0.088-0.263 0.134c0 0-0.377-0.031-0.506 0.186 0 0-0.284 0.103-0.041 0.336 0 0 0.033 0.101 0.103 0.155 0 0-0.010-0.212 0.041-0.15 0 0 0.013 0.021 0.039 0.036 0.007 0.030 0.030 0.112 0.080 0.154l0.036-0.012c0.006-0.053 0.017-0.12 0.029-0.148l0.012 0.002c-0.002 0.002-0.003 0.002-0.005 0.004l0.067 0.103 0.077-0.041c0.036-0.005 0.083 0.031 0.083 0.031l0.088-0.072c-0.001-0.001-0.001-0.001-0.002-0.002 0.086 0.014 0.11-0.153 0.11-0.153 0.078 0.020 0.15-0.002 0.212-0.040 0.038 0.139 0.345 0.288 0.345 0.288l0.013-0.001c-0.026 0.017-0.042 0.029-0.042 0.029 0.14 0.098 0.402 0.073 0.402 0.073-0.11 0.043-0.094 0.245-0.094 0.245-0.064 0.026-0.070 0.090-0.070 0.090 0.213 0.085 0.359 0.015 0.359 0.015 0.012 0.069-0.006 0.077-0.006 0.077-0.085 0.183-0.122 0.359-0.122 0.359 0.002 0.001 0.004 0.001 0.006 0.002-0.003 0.005-0.006 0.009-0.008 0.014 0 0-0.372 0.129-0.537 0.31 0 0-0.016-0.052-0.062-0.052s-0.191-0.119-0.258-0.139c-0.067-0.021-0.165 0.021-0.191-0.010-0.023-0.028-0.013-0.24-0.058-0.274l0.001 0-0.047-0.129c-0.031 0.067-0.16 0.052-0.16 0.052-0.005 0.003-0.025 0.018-0.053 0.038-0.026 0.001-0.055-0.007-0.055-0.007-0.013 0.003-0.026 0.040-0.036 0.076l-0.016 0.012v-0.036c-0.026 0.021-0.077-0.010-0.098-0.010-0.010 0-0.023 0.030-0.033 0.060-0.053 0.010-0.122 0.012-0.122 0.012-0.021 0.010-0.005 0.17-0.005 0.17-0.15 0.083-0.077 0.206-0.077 0.206 0.083 0.403 0.769 0.222 0.821 0.274s0.17 0.062 0.232 0.062c0.062 0 0.139 0.15 0.227 0.165s0-0.119 0.407-0.216c0.407-0.097 0.542-0.264 0.542-0.264 0.127-0.025 0.163-0.179 0.172-0.242 0.001 0.029 0.005 0.061 0.009 0.097 0.018 0.14-0.078 0.191-0.078 0.191l0.353-0.106c0.14-0.037 0.122-0.158 0.122-0.158 0.134 0.384 0.378 0.408 0.378 0.408 0.049-0.146 0.043-0.189 0.043-0.189l0.11-0.006c0.004-0.083-0.068-0.143-0.111-0.171l0.172 0.104 0.067-0.012c0 0.061 0.091 0.116 0.091 0.116l0.012-0.079c0.079 0.104 0.225 0.067 0.225 0.067-0.004-0.022-0.008-0.042-0.014-0.060l0.001 0.003c0.312 0.193 0.811-0.053 0.811-0.053 0.134 0.030 0.152-0.049 0.152-0.049 0.152 0.018 0.188-0.086 0.188-0.086 0.358-0.031 0.61-0.286 0.61-0.286 0.176-0.012 0.182-0.138 0.182-0.138s0.177 0.035 0.348-0.178c0.396-0.566 0.988-0.271 0.988-0.271l-0.342 0.022c-0.895-0.006-0.524 0.603-0.524 0.603l0.055-0.006c0.085 0.018 0.377 0.25 0.27 0.422-0.002 0.003-0.004 0.006-0.006 0.009-0.182 0.25-0.52 0.012-0.617-0.199-0.098-0.213-0.293-0.164-0.293-0.164s-0.505 0.085-0.298 0.487l0.008 0c0.004 0.098 0.065 0.21 0.246 0.321 0.101 0.143 0.434 0.158 0.679 0.105 0.114-0.025 0.714-0.283 0.714-0.283 0.044-0.131 0.193-0.101 0.327-0.289s-0.189-0.256-0.262-0.359c-0.073-0.104 0.018-0.085 0.018-0.085 0.292 0.158 0.317-0.347 0.317-0.347 0.031 0.292 0.286 0.371 0.286 0.371 0.158-0.158 0.043-0.481 0.043-0.481 0.378 0.676 0.606 0.568 0.606 0.568-0.203-0.126-0.101-0.294-0.101-0.294 0.182 0.719 0.932 0.091 0.932 0.091-0.037 0.103 0 0.164 0.067 0.231s0.146 0.097 0.11 0.219c-0.037 0.122-0.384 0.097-0.384 0.097s-0.341-0.018-0.311 0.268c0.018 0.067 0.243 0.091 0.329 0.073 0 0-0.035 0.008 0.091 0.025 0.042 0.005 0.093 0.006 0.145 0.005 0.145-0.004 0.3-0.029 0.3-0.029 0.195-0.043 0.164-0.11 0.164-0.11 0.298-0.055 0.329-0.256 0.329-0.256z"></path>
<path fill="#000" d="M28.642 14.45c0-0 0.016-0.038 0.046-0.042 0.023-0.003 0.051 0.014 0.081 0.050l0.016-0.012c-0.001-0.001-0.080-0.117-0.049-0.199 0.014-0.036 0.049-0.062 0.105-0.074l-0.004-0.020c-0.062 0.014-0.102 0.043-0.119 0.087-0.006 0.015-0.009 0.031-0.009 0.049 0 0 0 0.001 0 0.001v-0c0 0.040 0.014 0.081 0.029 0.112-0.018-0.011-0.036-0.016-0.052-0.013-0.031 0.005-0.045 0.027-0.054 0.041zM38.041 16.045c-0.203 0.032-0.502 0.050-0.526-0.011-0.004-0.011-0.005-0.055 0.162-0.163l-0.019-0.030c-0.139 0.091-0.195 0.156-0.176 0.206 0.043 0.111 0.479 0.047 0.566 0.034zM34.149 16.162c-0.046-0.071-0.026-0.168 0.062-0.289l-0.029-0.021c-0.097 0.134-0.118 0.245-0.063 0.33z"></path>
<path fill="#000" d="M33.874 15.856c0.004 0.123 0.091 0.237 0.257 0.338l0.019-0.030c-0.155-0.095-0.236-0.199-0.24-0.309-0.006-0.169 0.172-0.299 0.174-0.301l-0.021-0.029c-0.008 0.006-0.196 0.143-0.189 0.331zM37.345 15.901c-0.056 0.082-0.037 0.182-0.036 0.186l0.035-0.007c-0-0.001-0.017-0.090 0.031-0.16 0.029-0.042 0.075-0.069 0.137-0.081l-0.006-0.035c-0.072 0.014-0.126 0.046-0.161 0.096zM29.394 14.343l-0.011-0.003-0.002 0.011c-0 0.001-0.016 0.109-0.065 0.139-0.014 0.008-0.029 0.009-0.046 0.003l-0.083-0.051c-0.017-0.015-0.031-0.025-0.055-0.018-0.015-0.020-0.024-0.045-0.024-0.072 0-0.006 0-0.011 0.001-0.017l-0 0.001c0.006-0.049 0.040-0.096 0.101-0.14l-0.012-0.017c-0.067 0.048-0.104 0.099-0.11 0.154-0.007 0.063 0.029 0.107 0.031 0.108l0.005 0.006 0.007-0.003c0.019-0.008 0.024-0.003 0.042 0.013l0.090 0.055c0.023 0.008 0.044 0.007 0.063-0.005 0.051-0.030 0.069-0.119 0.073-0.143 0.216 0.046 0.39-0.216 0.398-0.228l-0.017-0.011c-0.002 0.003-0.179 0.272-0.386 0.218z"></path>
<path fill="#000" d="M28.876 14.303c-0.011 0.044-0.003 0.087 0.022 0.128 0.024 0.039 0.047 0.060 0.072 0.063 0.030 0.004 0.054-0.018 0.075-0.037 0.015-0.014 0.030-0.028 0.042-0.027l0.019 0.013 0.016-0.013-0.033-0.020c-0.021-0.002-0.038 0.015-0.057 0.032s-0.038 0.035-0.058 0.032c-0.018-0.002-0.037-0.020-0.057-0.053-0.022-0.036-0.029-0.074-0.019-0.112 0.023-0.096 0.139-0.167 0.14-0.168l-0.010-0.017c-0.005 0.003-0.124 0.076-0.149 0.18zM28.579 15.679c0.010-0.037 0.039-0.069 0.085-0.095-0.009 0.001 0.045 0.045 0.092 0.040l0.030-0.016c0.012 0.011 0.093 0.084 0.093 0.177 0 0.020-0.004 0.040-0.012 0.060l0.019 0.008c0.059-0.14-0.089-0.263-0.091-0.265l-0.005-0.004-0.009 0.006-0.026 0.014c-0.038 0.004-0.088-0.036-0.088-0.037-0.063 0.027-0.095 0.063-0.106 0.106zM29.267 15.323c-0.045 0.004-0.169 0.027-0.209 0.092-0.015 0.023-0.017 0.049-0.006 0.077l0.016 0.043c0.039 0.104 0.079 0.211 0.122 0.235l0.010-0.018c-0.037-0.021-0.078-0.129-0.113-0.225l-0.016-0.043c-0.008-0.022-0.007-0.041 0.004-0.059 0.033-0.053 0.145-0.078 0.193-0.082 0.028-0.002 0.038 0.103 0.043 0.165l0.020-0.002c-0.008-0.092-0.017-0.188-0.065-0.184z"></path>
<path fill="#000" d="M28.927 15.425c-0.026 0.023-0.021 0.058-0.020 0.060 0 0.010 0.012 0.269 0.135 0.323l0.008-0.019c-0.111-0.049-0.123-0.303-0.123-0.306 0-0.002-0.004-0.027 0.014-0.043 0.019-0.017 0.056-0.018 0.107-0.004l0.005-0.020c-0.059-0.016-0.102-0.014-0.127 0.008z"></path>
<path fill="#000" d="M28.83 15.446c-0.054 0.038-0.052 0.146-0.052 0.151l0.020-0c0-0.001-0.002-0.102 0.043-0.134 0.017-0.012 0.039-0.012 0.067-0.001l0.008-0.019c-0.034-0.014-0.063-0.013-0.086 0.003z"></path>
<path fill="#000" d="M31.761 14.015c0.001 0.002 0.058 0.131 0.058 0.235 0 0.019-0.009 0.032-0.013 0.048-0.002-0.006-0.022-0.061-0.022-0.061l-0.017 0.044c-0.001 0.002-0.023 0.061 0.017 0.128 0.053 0.088 0.186 0.144 0.394 0.167h-0c0 0 0.003 0.002 0.003 0.003-0.009 0.001-0.015 0.004-0.017 0.005l-0.008 0.007 0.001 0.018c0.005 0.022 0.030 0.023 0.079 0.025 0.008 0 0.022 0.002 0.031 0.003 0.012 0.003 0.025 0.007 0.025 0.007l-0.004-0.005c0.047 0.003 0.101 0.015 0.159 0.037-0.013 0.003-0.044 0.011-0.044 0.011l0.051 0.020c0.004 0.002 0.383 0.154 0.54 0.279-0.045 0.039-0.235 0.181-0.565 0.1l-0.055-0.014 0.037 0.043c0.002 0.003 0.217 0.249 0.261 0.398-0.075 0.001-0.363-0.002-0.463-0.087l-0.026 0.024c0.001 0.002 0.138 0.203 0.169 0.359-0.039 0.005-0.133 0.009-0.188-0.064l-0.026-0.033-0.014 0.090c-0.027-0.020-0.061-0.050-0.061-0.083v-0.021l-0.081 0.015-0.167-0.101c-0.007-0.005-0.016-0.010-0.025-0.015l-0.002-0.001c-0-0-0.002-0.001-0.002-0.001l-0.001-0.001-0.017 0.031s0.020 0.012 0.026 0.015c0.036 0.023 0.097 0.074 0.103 0.141-0.026 0.002-0.108 0.006-0.108 0.006l0.002 0.019v0.003c0 0.011-0.004 0.058-0.038 0.163-0.051-0.012-0.238-0.077-0.348-0.393l-0.034 0.008c0 0.001 0.001 0.005 0.001 0.012 0 0.029-0.010 0.101-0.109 0.127-0.001 0-0.184 0.055-0.286 0.086 0.019-0.027 0.037-0.065 0.037-0.119 0-0.012-0.001-0.024-0.002-0.037-0.006-0.046-0.010-0.084-0.010-0.116 0-0.067 0.016-0.106 0.062-0.134l-0.016-0.032c-0.004 0.002-0.426 0.169-0.636 0.1 0.010-0.041 0.045-0.184 0.116-0.338l-0.009 0.009c0.014-0.006 0.028-0.027 0.016-0.096l-0.004-0.023-0.021 0.010c-0.001 0.001-0.135 0.060-0.329-0.010 0.004-0.016 0.014-0.044 0.055-0.061l0.012-0.005-0.001-0.013c0-0-0-0.009-0-0.024 0-0.052 0.008-0.175 0.083-0.204l-0.008-0.034c-0.002 0-0.229 0.018-0.366-0.058 0.036-0.025 0.112-0.071 0.2-0.083l0.014-0.002 0.001-0.014c0-0.001 0-0.005 0-0.012 0-0.018-0.007-0.054-0.023-0.090 0.052 0.015 0.115 0.028 0.137 0.011l0.008-0.006-0.006-0.137-0.036 0.002 0.005 0.114c-0.022 0.001-0.079-0.010-0.135-0.028l-0.055-0.017 0.035 0.045c0.029 0.037 0.032 0.082 0.033 0.103-0.124 0.023-0.221 0.1-0.225 0.103l-0.018 0.015 0.019 0.013c0.106 0.074 0.273 0.081 0.358 0.079-0.050 0.057-0.059 0.152-0.059 0.199 0 0.010 0 0.012 0 0.017-0.060 0.033-0.070 0.094-0.070 0.097l-0.001 0.013 0.012 0.005c0.183 0.073 0.308 0.038 0.35 0.022 0 0.006 0.002 0.013 0.002 0.017 0 0.017-0.003 0.022-0.003 0.022-0.090 0.188-0.127 0.367-0.128 0.369l-0.003 0.015 0.014 0.005c0.17 0.068 0.474-0.025 0.609-0.072-0.018 0.031-0.028 0.065-0.028 0.108 0 0.036 0.004 0.076 0.010 0.121 0.002 0.011 0.002 0.022 0.002 0.032 0 0.101-0.068 0.139-0.072 0.141l0.014 0.033 0.353-0.106c0.082-0.021 0.112-0.069 0.125-0.11 0.139 0.33 0.358 0.36 0.367 0.361l0.014 0.001 0.004-0.013c0.034-0.101 0.042-0.153 0.043-0.178 0.086-0.004 0.123-0.006 0.161-0.008l-0.052 0.002 0.001-0.016c0-0.003 0-0.005 0-0.008 0-0.029-0.009-0.055-0.022-0.078 0.022 0.013 0.061 0.037 0.061 0.037l0.058-0.011c0.015 0.059 0.085 0.105 0.094 0.111l0.023 0.014s0.008-0.054 0.012-0.077c0.087 0.078 0.211 0.055 0.217 0.053l0.016-0.004-0.002-0.016c-0.018-0.119-0.098-0.261-0.145-0.337 0.155 0.070 0.437 0.065 0.45 0.065l0.021-0.001-0.004-0.021c-0.025-0.125-0.181-0.322-0.247-0.401 0.364 0.068 0.559-0.12 0.567-0.129l0.013-0.014-0.014-0.012c-0.122-0.106-0.404-0.23-0.517-0.277l0.040-0.010-0.039-0.022c-0.095-0.053-0.195-0.060-0.263-0.063l-0-0.001c-0.043-0.049-0.065-0.057-0.070-0.058-0.246-0.027-0.336-0.096-0.369-0.149-0.003-0.004-0.001-0.007-0.003-0.012 0.005-0.007 0.011-0.014 0.011-0.014 0.024-0.031 0.032-0.072 0.032-0.116 0-0.113-0.057-0.242-0.061-0.249l-0.033 0.015z"></path>
<path fill="#000" d="M30.63 13.943c-0.001 0.004-0.027 0.138-0.142 0.201-0.086 0.047-0.2 0.044-0.339-0.012l-0.016-0.006 0.002 0.017c0 0.003 0.009 0.083 0.084 0.141 0.062 0.048 0.151 0.065 0.262 0.053-0.037 0.044-0.157 0.197-0.157 0.346 0 0.008 0 0.016 0.001 0.023 0.015 0.011 0.203 0.062 0.29-0.049 0.003 0.048 0.017 0.2 0.076 0.26 0.033 0.033 0.040 0.080 0.040 0.118 0 0.034-0.006 0.061-0.006 0.061l-0.007 0.027 0.023-0.017c0.007-0.005 0.18-0.132 0.235-0.297-0 0 0.028-0.042 0.081-0.059-0.001 0.007-0.002 0.015-0.002 0.025 0 0.064 0.028 0.18 0.214 0.251l0.015 0.006-0.001-0.016c-0.001-0.008-0.001-0.018-0.001-0.028 0-0.001 0-0.003 0-0.004v0c0-0.047 0.006-0.133 0.051-0.177 0.029-0.029 0.038-0.062 0.038-0.091 0-0.022-0.005-0.041-0.010-0.054 0.038 0.010 0.127 0.038 0.163 0.106 0.053 0.099 0.237 0.020 0.244 0.017l-0.006-0.019c-0.001 0-0.077 0.017-0.126-0.016-0.021-0.015-0.034-0.037-0.039-0.067l-0.009-0.102c-0.002-0.046-0.008-0.076-0.032-0.101 0.024-0.002 0.073-0.001 0.094 0.044 0.033 0.072 0.144 0.079 0.149 0.079l0.038 0.002-0.032-0.021c-0.001-0.001-0.097-0.065-0.081-0.148l0.014-0.061c0.026-0.11 0.070-0.294 0.035-0.407l-0.019 0.006c0.009 0.028 0.012 0.062 0.012 0.097 0 0.1-0.028 0.219-0.047 0.299l-0.014 0.062c-0.001 0.007-0.002 0.015-0.002 0.023 0 0 0 0.001 0 0.001v-0c0 0.054 0.035 0.095 0.062 0.12-0.033-0.007-0.078-0.023-0.095-0.061-0.027-0.059-0.099-0.061-0.133-0.055l-0.024 0.005 0.020 0.014c0.032 0.022 0.033 0.047 0.036 0.102l0.009 0.105c0.005 0.036 0.021 0.063 0.047 0.081 0.023 0.015 0.049 0.018 0.074 0.020-0.055 0.014-0.13 0.023-0.157-0.027-0.051-0.095-0.19-0.12-0.196-0.121l-0.021-0.004 0.011 0.019c0.001 0.002 0.016 0.029 0.016 0.063 0 0.024-0.007 0.052-0.032 0.077-0.049 0.050-0.057 0.14-0.057 0.19 0 0.010 0 0.011 0.001 0.017-0.159-0.067-0.188-0.166-0.188-0.222 0-0.024 0.005-0.040 0.005-0.042l0.005-0.016-0.016 0.003c-0.077 0.013-0.11 0.076-0.111 0.078-0.044 0.133-0.164 0.238-0.208 0.273 0.002-0.012 0.003-0.026 0.003-0.040v-0c0-0.041-0.009-0.094-0.047-0.132-0.063-0.063-0.072-0.265-0.072-0.267l-0.001-0.036-0.018 0.032c-0.070 0.126-0.275 0.065-0.277 0.065-0.009-0.159 0.171-0.362 0.173-0.364l0.019-0.021-0.028 0.004c-0.118 0.017-0.209 0.001-0.271-0.047-0.035-0.027-0.061-0.066-0.073-0.109l-0-0.001c0.136 0.051 0.251 0.054 0.339 0.005 0.123-0.068 0.15-0.207 0.151-0.213 0.129-0.293 0.242-0.339 0.243-0.339l-0.007-0.019c-0.005 0.002-0.121 0.048-0.256 0.352z"></path>
<path fill="#000" d="M30.925 13.509l-0.009 0-0.105 0.144 0.031 0.003c0.569 0.055 0.869 0.398 0.872 0.402l0.013 0.015 0.103-0.112-0.008-0.012c-0.288-0.454-0.892-0.441-0.899-0.441zM30.934 13.544c0.070 0 0.588 0.016 0.851 0.414-0.013 0.014-0.041 0.045-0.057 0.062-0.061-0.064-0.353-0.336-0.853-0.395 0.074-0.105 0.093-0.131 0.113-0.157l-0.054 0.077z"></path>
<path fill="#000" d="M30.843 13.809c-0.049 0.066-0.094 0.164-0.094 0.21 0 0.009 0.002 0.016 0.005 0.020 0 0 0.002 0.001 0.003 0.001-0.059 0.053-0.094 0.142-0.094 0.242 0 0.055 0.010 0.113 0.030 0.167l0.011 0.031c0.056 0.152 0.104 0.283 0.345 0.206 0.232-0.074 0.242-0.089 0.3-0.186l0.015-0.025c0.032-0.052 0.067-0.062 0.104-0.073 0.044-0.013 0.090-0.027 0.13-0.106l0.039-0.059c0.042-0.058 0.095-0.13 0.101-0.223l-0.020-0.001c-0.006 0.086-0.057 0.156-0.097 0.212l-0.041 0.062c-0.036 0.072-0.076 0.084-0.118 0.096-0.039 0.012-0.079 0.024-0.115 0.082l-0.015 0.025c-0.056 0.093-0.063 0.105-0.289 0.177-0.223 0.071-0.264-0.040-0.32-0.193l-0.011-0.031c-0.064-0.169-0.014-0.34 0.069-0.401l0.028-0.021-0.039 0.004c-0-0.002-0.001-0.003-0.001-0.006 0-0.028 0.030-0.116 0.090-0.198 0.051-0.070 0.172-0.139 0.174-0.14l-0.010-0.018c-0.005 0.003-0.126 0.072-0.18 0.146z"></path>
<path fill="#000" d="M30.734 14.421c0.040 0.028 0.096 0.026 0.164 0 0 0.024 0.006 0.075 0.048 0.113 0.049 0.044 0.131 0.052 0.244 0.025l-0.005-0.020c-0.105 0.025-0.181 0.018-0.225-0.021-0.047-0.042-0.041-0.109-0.041-0.109l0.002-0.017-0.016 0.007c-0.068 0.029-0.121 0.031-0.158 0.006-0.066-0.046-0.061-0.166-0.061-0.168l-0.020-0.001c-0 0.005-0.006 0.133 0.070 0.186z"></path>
<path fill="#000" d="M30.863 14.259c-0.029 0.007-0.037 0.031-0.037 0.050 0 0.005 0 0.009 0.001 0.012 0.005 0.052 0.062 0.087 0.114 0.102 0.050 0.015 0.112 0.015 0.136-0.016 0.010-0.012 0.017-0.035-0.004-0.071-0.078-0.132-0.203-0.080-0.21-0.078zM30.947 14.404c-0.045-0.013-0.095-0.042-0.099-0.086-0.001-0.004-0.006-0.033 0.020-0.039l0.002-0.001c0.005-0.002 0.116-0.050 0.186 0.069 0.012 0.021 0.015 0.037 0.006 0.048-0.015 0.020-0.064 0.023-0.115 0.009zM30.861 14.259c0-0 0.002-0.001 0.002-0.001l-0.002 0.001zM30.933 14.524c-0.013 0.111-0.005 0.114 0.003 0.117l0.007 0.002 0.008-0.009 0.065-0.085-0.081-0.038-0.002 0.014zM30.952 14.541l0.033 0.015c-0.009 0.011-0.025 0.033-0.037 0.049 0-0.017 0.002-0.040 0.005-0.065zM30.765 14.435l-0.004 0.105 0.088-0.107-0.084-0.009-0 0.011zM30.785 14.446l0.024 0.003c-0.009 0.010-0.014 0.017-0.026 0.031 0.001-0.016 0.001-0.025 0.001-0.034z"></path>
<path fill="#000" d="M30.707 14.401c0.001 0.001 0.066 0.129 0.077 0.175 0.007 0.029 0.045 0.063 0.090 0.080s0.087 0.014 0.118-0.008l0.059-0.049c0.020-0.019 0.026-0.024 0.042-0.021l0.003-0.020c-0.027-0.004-0.040 0.008-0.059 0.027l-0.056 0.047c-0.035 0.024-0.077 0.014-0.099 0.005-0.042-0.015-0.072-0.046-0.077-0.066-0.012-0.049-0.076-0.174-0.079-0.179l-0.018 0.009zM30.791 14.020c-0.072 0.033-0.102 0.12-0.103 0.124l0.019 0.007c0-0.001 0.029-0.083 0.093-0.112 0.031-0.014 0.066-0.014 0.104 0.001l0.008-0.019c-0.043-0.017-0.084-0.018-0.12-0.001zM31.274 14.248c0.006 0.004 0.141 0.107 0.063 0.232l0.017 0.011c0.088-0.141-0.067-0.258-0.068-0.26l-0.012 0.017zM30.866 14.268s-0.021 0.077 0.087 0.104c0 0-0.101-0.001-0.108-0.027s0.001-0.084 0.021-0.077zM31.196 14.36c0 0.007-0.005 0.012-0.012 0.012s-0.012-0.005-0.012-0.012v0c0-0.007 0.006-0.012 0.012-0.012s0.012 0.005 0.012 0.012zM31.208 14.408c0 0.007-0.005 0.012-0.012 0.012s-0.012-0.005-0.012-0.012c0-0 0-0 0-0v0c0 0 0 0 0 0 0-0.007 0.005-0.012 0.012-0.012v0c0.007 0 0.012 0.006 0.012 0.012z"></path>
<path fill="#000" d="M31.139 14.384c0 0.007-0.005 0.012-0.012 0.012s-0.012-0.005-0.012-0.012c0-0.007 0.005-0.012 0.012-0.012s0.012 0.005 0.012 0.012z"></path>
<path fill="#000" d="M31.16 14.456c0 0 0 0 0 0.001 0 0.007-0.005 0.012-0.012 0.012s-0.012-0.005-0.012-0.012c0-0 0-0.001 0-0.001v0c0-0.007 0.005-0.012 0.012-0.012s0.012 0.005 0.012 0.012zM30.845 14.132c0 0.007-0.005 0.012-0.012 0.012s-0.012-0.005-0.012-0.012v0c0-0.006 0.006-0.012 0.012-0.012s0.012 0.006 0.012 0.012z"></path>
<path fill="#000" d="M30.857 14.18c0 0.007-0.005 0.012-0.012 0.012s-0.012-0.005-0.012-0.012c0-0.007 0.005-0.012 0.012-0.012s0.012 0.005 0.012 0.012z"></path>
<path fill="#000" d="M30.788 14.156c0 0.007-0.005 0.012-0.012 0.012s-0.012-0.005-0.012-0.012c0-0.007 0.005-0.012 0.012-0.012s0.012 0.005 0.012 0.012z"></path>
<path fill="#000" d="M30.808 14.228c-0 0.007-0.006 0.012-0.012 0.012v0c-0.007 0-0.012-0.005-0.012-0.012s0.005-0.012 0.012-0.012v0c0.007 0 0.012 0.005 0.012 0.012v0zM31.019 13.805s0.156 0.096 0.006 0.276c0 0 0.074-0.055 0.081-0.149s-0.053-0.169-0.087-0.127zM31.617 14.064c-0.050 0.026-0.122-0.022-0.159-0.067s-0.111-0.057-0.157 0.026c-0.046 0.083-0.113 0.114-0.113 0.114s0.065-0.039 0.133-0.111c0.067-0.072 0.106-0.014 0.172 0.021s0.076 0.043 0.122 0.024l0.003-0.006z"></path>
<path fill="#000" d="M31.604 14.076c-0.021 0.015-0.058 0.028-0.098-0.004s-0.073-0.076-0.124-0.050c-0.050 0.026-0.146 0.098-0.146 0.098s0.155-0.107 0.185-0.084c0.030 0.023 0.099 0.080 0.142 0.063s0.041-0.023 0.041-0.023z"></path>
<path fill="#000" d="M31.485 14.141c-0.049-0.037-0.098 0.044-0.139 0.034s-0.075-0.079-0.075-0.079 0.039 0.072 0.093 0.056c0.054-0.017 0.092-0.050 0.125-0.025s-0.004 0.014-0.004 0.014z"></path>
<path fill="#000" d="M31.409 14.151c-0.097 0.010-0.106-0.080-0.106-0.081s0.031 0.079 0.116 0.065l-0.010 0.017z"></path>
<path fill="#000" d="M31.406 14.090c0.006 0.024 0.005 0.036-0.021 0.036s-0.044-0.009-0.044-0.034c0-0.025 0.061-0.017 0.065-0.002zM31.058 13.955c0 0.017-0.014 0.030-0.031 0.030s-0.020-0.012-0.020-0.028c0-0.017 0.003-0.032 0.020-0.032s0.031 0.014 0.031 0.030z"></path>
<path fill="#000" d="M30.951 13.847s0.166 0.002 0.084 0.209c0 0 0.063-0.103 0.024-0.178s-0.102-0.056-0.102-0.056-0.015 0.014-0.005 0.024z"></path>
<path fill="#000" d="M30.946 13.93c-0 0.042 0.027 0.085 0.082 0.127l0.013-0.016c-0.050-0.039-0.075-0.076-0.075-0.111s0.027-0.056 0.027-0.056l-0.012-0.016c-0.001 0.001-0.035 0.027-0.036 0.072z"></path>
<path fill="#000" d="M30.983 13.965c0.007 0.024 0.026 0.042 0.055 0.054l0.008-0.019c-0.023-0.009-0.038-0.023-0.043-0.040-0.011-0.035 0.018-0.076 0.018-0.077l-0.017-0.012c-0.002 0.002-0.035 0.050-0.021 0.094zM31.21 14.080s0.031 0.067-0.014 0.139c-0.045 0.072-0.044 0.068-0.044 0.068s0.054-0.099 0.034-0.141c-0.020-0.041 0.024-0.067 0.024-0.067zM31.855 14.78c0.17 0.032 0.554 0.333 0.558 0.336l0.022-0.028c-0.016-0.012-0.395-0.31-0.574-0.343l-0.007 0.035zM32.007 15.205c0.011 0.151 0.176 0.245 0.183 0.249l0.017-0.031c-0.002-0.001-0.155-0.088-0.165-0.22l-0.035 0.003zM31.598 15.237c0 0.169 0.159 0.375 0.166 0.383l0.028-0.022c-0.002-0.002-0.158-0.204-0.158-0.361h-0.036zM31.060 15.256c0.028 0.056 0.025 0.084 0.018 0.098-0.008 0.016-0.026 0.018-0.026 0.018l0.004 0.036c0.013-0.002 0.039-0.011 0.053-0.036 0.017-0.031 0.011-0.075-0.017-0.131l-0.032 0.016z"></path>
<path fill="#fff" d="M28.638 14.42s0.010 0.113 0.098 0.181c0 0-0.010-0.124 0.016-0.176 0 0-0.046-0.052-0.114-0.005zM28.813 14.492s0.021 0.103 0.083 0.15l0.036-0.010s0.015-0.129 0.036-0.145c0.021-0.015-0.088 0.046-0.155 0.005z"></path>
<path fill="#fff" d="M28.968 14.487l0.067 0.103 0.077-0.041-0.015-0.124s-0.046-0.010-0.129 0.062z"></path>
<path fill="#fff" d="M29.283 14.508l-0.088 0.072s-0.046-0.036-0.083-0.031l0.016-0.114s0.062-0.046 0.155 0.072zM28.658 15.576s-0.015-0.16 0.005-0.17c0 0 0.062 0.021 0.088-0.005 0 0 0.036 0.129 0.026 0.181s-0.072 0.031-0.119-0.005zM29.056 15.411s-0.005-0.134 0.021-0.15c0 0 0.129 0.016 0.16-0.051l0.046 0.129s-0.145-0.016-0.227 0.072z"></path>
<path fill="#fff" d="M28.917 15.436s0.026-0.139 0.052-0.144c0 0 0.067 0.021 0.088-0.005l-0.005 0.17s0.005-0.072-0.134-0.021zM28.767 15.457s0.031-0.124 0.052-0.124 0.072 0.031 0.098 0.010v0.093s-0.114-0.026-0.129 0.129l-0.021-0.108z"></path>
<path fill="#00a651" d="M30.779 18.027s0.351 0.326 0.259 0.61c0 0 0.225-0.485-0.017-0.627s-0.251-0.033-0.242 0.017z"></path>
<path fill="#964b36" d="M30.336 18.344s-0.092 0.126 0.008 0.217c0 0-0.108 0.158-0.025 0.292 0 0-0.067 0.142-0.050 0.292 0 0-0.059 0.234 0.067 0.343 0 0 0.134 0.067 0.192 0.008 0 0 0.117-0.175 0.042-0.359 0 0 0.084-0.15-0.008-0.342 0 0 0.025-0.109-0.050-0.234 0 0 0.050-0.084 0.008-0.15 0 0-0.167-0.176-0.184-0.067z"></path>
<path fill="#00a651" d="M30.436 17.934s-0.418-0.802-0.71-0.835c-0.292-0.033-0.309-0.317-0.309-0.317s0.033 0.134 0.267 0.134 0.685 0.326 0.735 0.576c0.050 0.251 0.1 0.217 0.1 0.217l-0.084 0.225z"></path>
<path fill="#00a651" d="M30.436 17.876s0.15-1.011 0.81-1.028c0.66-0.017 0.443 0.050 0.601-0.059 0 0-0.443 0.234-0.718 0.267s-0.501 0.568-0.493 0.668c0.008 0.1-0.15 0.292-0.226 0.226s0.025-0.075 0.025-0.075z"></path>
<path fill="#00a651" d="M30.587 18.252s0.15-0.401 0.409-0.267c0 0-0.201-0.384-0.56-0.050 0 0 0.159 0.217 0.15 0.317zM30.085 17.851s0.217 0.894-0.117 1.17c0 0 0.008-0.459-0.192-0.735s0.2-0.576 0.309-0.435z"></path>
<path fill="#00a651" d="M30.11 18.010s0.393 0.376 0.418 0.501c0.025 0.125 0.117-0.376-0.067-0.518s-0.384-0.167-0.384-0.167l0.033 0.184z"></path>
<path fill="#964b36" d="M29.386 18.995s0.036 0.158 0.132 0.188c0 0 0.005 0.117 0.092 0.153 0 0-0.046 0.097 0.031 0.158 0 0-0.015 0.194 0.056 0.234 0 0 0.173-0.010 0.234-0.061 0 0 0.036-0.127-0.061-0.255 0 0 0.015-0.122-0.082-0.188 0 0 0.031-0.163-0.092-0.224 0 0-0.020-0.133-0.097-0.199 0 0-0.148 0.209-0.214 0.194z"></path>
<path fill="#00a651" d="M29.579 18.801s-0.514-0.188-0.8 0.082c0 0 0.438 0.061 0.494 0.148s0.326-0.143 0.306-0.229z"></path>
<path fill="#00a651" d="M29.422 19.122s-0.041-0.036-0.092-0.071c-0.051-0.036-0.484-0.153-0.545 0.265 0 0-0.158-0.413 0.071-0.469s0.413 0.076 0.565 0.275M29.083 18.269s0.159 0.342 0.217 0.359c0.058 0.017 0.1-0.042 0.1-0.042s-0.209-0.309-0.317-0.318zM28.966 17.743s-0.134-0.443-0.292-0.326c-0.159 0.117-0.117 0.434-0.117 0.434s-0.317-0.326-0.134-0.585c0.184-0.259 0.543 0.025 0.543 0.476z"></path>
<path fill="#964b36" d="M29.325 18.653s0 0.084 0.059 0.108c0.059 0.025 0.167 0.067 0.167 0.017s-0.083-0.242-0.117-0.217c-0.033 0.025-0.092 0.025-0.109 0.092z"></path>
<path fill="#00a651" d="M29.225 18.135s-0.017-0.384 0.234-0.526c0 0 0.050 0.009 0.075-0.067 0 0-0.201 0.484-0.142 0.727l-0.008 0.033"></path>
<path fill="#00a651" d="M29.275 17.667s0.451-0.936 1.003-0.61c0 0-0.576 0.117-0.785 0.526l-0.209 0.309-0.008-0.225z"></path>
<path fill="#00a651" d="M29.033 18.010s-0.134-0.627-0.217-0.71c-0.084-0.084-0.226-0.175-0.393-0.034 0 0 0.292-0.259 0.602-0.042s0.242 0.56 0.242 0.56l-0.033 0.434-0.209-0.192"></path>
<path fill="#00a651" d="M29.517 18.753s-0.551-1.044-0.91-0.301c0 0-0.067 0.192 0.008 0.267 0 0-0.201-0.15-0.109-0.518s0.702-0.2 0.877 0.1c0.175 0.301 0.226 0.451 0.201 0.468s-0.067-0.017-0.067-0.017zM31.071 19.054s0.401-0.827 0.635-0.451c0 0 0.067 0.184-0.034 0.259 0 0-0.159-0.192-0.3 0.042s-0.084 0.217-0.084 0.217-0.15 0.042-0.217-0.067z"></path>
<path fill="#00a651" d="M31.672 18.862s0.217 0.117 0.142 0.351c0 0 0.292-0.56-0.109-0.61 0 0 0.075 0.176-0.034 0.259zM31.698 18.294s0.526 0.15 0.543 0.376c0 0 0.092-0.435-0.209-0.568 0 0-0.359 0.059-0.334 0.192z"></path>
<path fill="#00a651" d="M31.932 17.6c0.226-0.443 0.51 0.142 0.51 0.142s0.1-0.459-0.184-0.543c-0.284-0.084-0.468 0.977-0.468 0.977l-0.334 0.075s0.092-0.927 0.593-1.011l0.058 0.008"></path>
<path fill="#00a651" d="M31.531 17.868s-0.317-0.652-0.535-0.718c-0.217-0.067 0.117-0.167 0.251-0.042s0.384 0.284 0.359 0.618l-0.075 0.142zM31.205 18.762s0.092-0.443 0.342-0.576c0.251-0.134 0.485-0.083 0.485-0.083s-0.301 0.067-0.351 0.217c-0.050 0.15-0.134 0.159-0.134 0.159l-0.342 0.284z"></path>
<path fill="#964b36" d="M31.071 19.054s-0.142 0.267-0.109 0.309c0 0-0.15 0.217-0.092 0.326 0 0 0.15 0.117 0.217 0.067 0 0 0.175-0.242 0.125-0.376 0 0 0.117-0.159 0.075-0.259 0 0-0.175 0.008-0.217-0.067z"></path>
<path fill="#000" d="M30.337 18.577c0.009 0.005 0.094 0.046 0.151 0.027l0.041-0.035-0.032-0.016c-0.021 0.041-0.113 0.007-0.143-0.008l-0.016 0.032zM30.323 18.836l-0.007 0.035c0.007 0.001 0.177 0.034 0.258-0.038l-0.024-0.027c-0.068 0.060-0.225 0.030-0.227 0.029zM30.28 19.131l-0.021 0.029c0.002 0.002 0.199 0.142 0.325-0.011l-0.028-0.023c-0.105 0.127-0.27 0.010-0.277 0.005zM29.515 19.174l0.007 0.019c0.007-0.003 0.174-0.070 0.185-0.192l-0.020-0.002c-0.010 0.11-0.17 0.174-0.172 0.175zM29.609 19.326l0.001 0.020c0.006-0.001 0.161-0.012 0.187-0.12l-0.020-0.005c-0.023 0.093-0.168 0.104-0.169 0.105zM29.641 19.484l-0.001 0.021c0.007 0 0.18 0.009 0.239-0.086l-0.017-0.011c-0.052 0.085-0.218 0.077-0.22 0.077zM30.95 19.376c0.003 0.003 0.077 0.077 0.164 0.073 0.043-0.002 0.080-0.021 0.112-0.058l-0.027-0.023c-0.025 0.029-0.054 0.044-0.086 0.046-0.071 0.003-0.138-0.062-0.138-0.063l-0.025 0.025z"></path>
<path fill="#964b36" d="M36.138 19.987c-0.011 0.004-0.020 0.010-0.027 0.018l-0 0 0.027-0.018zM36.752 19.833c-0.006-0.015-0.010-0.009-0.018-0.016-0.011-0.009-0.018-0.039-0.028-0.050-0.006-0.007-0.013-0-0.019-0.002-0.014-0.032-0.031-0.065-0.046-0.095 0.003-0.004 0.004-0.009 0.004-0.014v0c-0.003-0.013-0.006-0.021-0.009-0.030l0.001 0.004c-0.004-0.007-0.011-0.003-0.015-0.013s-0.001-0.031-0.003-0.043c-0.001-0.010-0.005-0.016-0.005-0.031 0.001-0.013 0.007-0.027 0.007-0.038-0-0.007-0.008-0.022-0.011-0.028-0.010-0.024-0.018-0.046-0.019-0.076-0.001-0.027 0.004-0.043 0.006-0.066 0.003-0.028-0.012-0.041-0.012-0.067 0-0.020 0.008-0.042 0.011-0.059 0.003-0.024 0.003-0.059 0.001-0.083-0.002-0.024-0.008-0.038-0.005-0.064 0.001-0.007 0.004-0.012 0.005-0.021-0-0.007-0-0.013-0-0.019v-0.038c0-0.012 0.001-0.026 0-0.038-0.001-0.010-0.007-0.020-0.007-0.028 0-0.014 0.009-0.020 0.007-0.038-0.001-0.013-0.003-0.016-0.006-0.028-0.006-0.022-0.002-0.044-0.005-0.067-0.002-0.011-0.005-0.015-0.006-0.028-0.001-0.015 0.003-0.020 0.005-0.031s0.003-0.025 0.002-0.036c-0.002-0.014-0.008-0.023-0.006-0.038l-0.005 0.168c-0.004-0.146-0.010-0.282-0.010-0.282l-0.222-0.104s-0.019 0.408-0.014 0.465c0.004 0.057 0.024 0.447 0.014 0.494s-0.033 0.285-0.033 0.285-0.109 0.076-0.151 0.161c-0.043 0.086-0.033 0.114-0.047 0.114l0.106-0.016-0.079 0.053c0.005-0.002 0.012-0.004 0.018-0.004 0.012 0 0.023 0.004 0.031 0.011l-0-0c0.002 0.001 0.014 0.012 0.015 0.012 0.004 0 0.010-0.011 0.015-0.012 0.016-0.006 0.030 0.025 0.046 0.023 0.008-0.001 0.020-0.010 0.027-0.019 0.006-0.008 0.008-0.021 0.014-0.026s0.019 0.001 0.024 0.001c0.016 0 0.031 0 0.047 0 0.021-0.001 0.037-0.030 0.057-0.046 0.018-0.015 0.031-0.020 0.050-0.019 0.021 0.002 0.040 0.021 0.061 0.022 0.016 0.001 0.027 0.003 0.040-0.014 0.009-0.012 0.015-0.029 0.024-0.041l0.053-0.008c0.010 0.004 0.021 0.009 0.030 0.009 0.013-0.001 0.027-0.002 0.041-0 0.005 0.001 0.015 0.013 0.019 0.010 0.003-0.002 0.008-0.018 0.010-0.023-0.001-0.006-0.003-0.022-0.005-0.028z"></path>
<path fill="#964b36" d="M36.302 19.979c0.013 0 0.026-0.003 0.037 0.007l0.005 0.010c0.002 0.001 0.004 0.002 0.007 0.002 0.002 0 0.003-0 0.004-0.001l-0 0c0.008 0.005 0.009 0.008 0.017 0.010s0.016-0 0.024-0c0.010 0 0.014 0.004 0.024 0.007 0.016 0.007 0.026 0 0.040-0.010 0.016-0.012 0.022-0.003 0.037 0.012 0.011 0.011 0.009 0.010 0.019 0.002 0.002-0.004 0.003-0.007 0.005-0.010 0.005-0.002 0.010-0.004 0.016-0.004 0.009-0.004 0.017-0.004 0.025-0.007s0.015-0.013 0.024-0.011c0.008 0.002 0.017 0.008 0.024 0.010 0.006 0.002 0.011 0.005 0.016 0.008l-0-0c0.011-0.022 0.034-0.028 0.049-0.039s0.030 0.002 0.047 0.002c0.009 0 0.013-0.005 0.019-0.007s0.015 0.001 0.022-0.002c0.007-0.003 0.009-0.010 0.017-0.011 0.015-0.002 0.032 0.023 0.047 0.027 0.008 0.003 0.048 0.012 0.042-0.017-0.006-0.027-0.030-0.008-0.035-0.028-0.003-0.011 0.003-0.027-0.001-0.039-0.003-0.011-0.015-0.024-0.023-0.027-0.009-0.003-0.015 0.007-0.022-0.001-0.007-0.006-0.009-0.029-0.015-0.037-0.008 0.006-0.012 0.011-0.022 0.009-0.011-0.003-0.010-0.007-0.019-0.017-0.019-0.023-0.029 0.014-0.046 0.008-0.013-0.004-0.025-0.037-0.035-0.050-0.005-0.007-0.021-0.030-0.029-0.025-0.013 0.009-0.001 0.034-0.008 0.045-0.005 0.008-0.022-0-0.029 0.001-0.010 0.002-0.012 0.005-0.019 0.017-0.015 0.024-0.023 0.043-0.046 0.041-0.011-0.001-0.019-0.012-0.029-0.008s-0.018 0.016-0.030 0.018c-0.003 0-0.006 0.001-0.009 0.001-0.007 0-0.014-0.001-0.020-0.003l0 0c-0.009-0.004-0.018-0.020-0.026-0.024-0.002-0.002-0.004-0.003-0.007-0.003-0.001 0-0.003 0-0.004 0.001l0-0c-0.002-0.001-0.006-0.004-0.010-0.006l-0.003-0.002c-0.014-0.004-0.013-0.003-0.018 0.015-0.003 0.011-0.004 0.023-0.009 0.033-0.004 0.009-0.013 0.020-0.018 0.026-0.010 0.010-0.014 0.008-0.027 0.011-0.010 0.003-0.023 0.019-0.029-0.001-0.008-0.030 0.022-0.075-0.011-0.068-0.009 0.002-0.014 0.004-0.019 0.017-0.006 0.015-0.001 0.025-0.004 0.041-0.004 0.021-0.043 0.055-0.035 0.074 0.005 0.013 0.023-0.007 0.028-0.004 0.008 0.006 0.006 0.019 0.011 0.027 0.012 0.018 0.047-0.028 0.049-0.003M36.159 19.817c0-0.003-0.001-0.005-0.001-0.008-0.009-0.002-0.020-0.012-0.029-0.012s-0.024 0.019-0.030 0.029c-0.017 0.029-0.012 0.067-0.041 0.067-0.007-0-0.024-0.005-0.030-0.001-0.011 0.008-0.004 0.031-0.004 0.046s0.007 0-0.001 0.019c-0.002 0.005-0.009 0.007-0.011 0.014-0.006 0.025 0.015 0.017 0.024 0.017 0.023-0 0.047-0 0.070 0 0.014 0 0.022-0.005 0.036-0.010 0.009-0.003 0.027-0.003 0.034-0.010 0.005-0.008 0.009-0.017 0.012-0.026l0-0.001c0.002-0.010-0.002-0.021 0.001-0.029 0.004-0.014 0.016-0.009 0.018-0.028 0.006-0.046-0.044-0.012-0.036-0.057"></path>
<path fill="#000" d="M36.721 18.527c0 0.060-0.041 0.108-0.092 0.108s-0.092-0.048-0.092-0.108c0-0.060 0.041-0.109 0.092-0.109s0.092 0.049 0.092 0.109zM36.42 18.393c0 0.060-0.041 0.108-0.092 0.108s-0.092-0.049-0.092-0.108c0-0.060 0.041-0.109 0.092-0.109s0.092 0.049 0.092 0.109z"></path>
<path fill="#000" d="M36.579 18.434c0 0.060-0.041 0.108-0.092 0.108s-0.092-0.048-0.092-0.108c0-0.060 0.041-0.109 0.092-0.109s0.092 0.049 0.092 0.109z"></path>
<path fill="#000" d="M36.425 18.534c0 0.060-0.041 0.109-0.092 0.109s-0.092-0.049-0.092-0.109c0-0.060 0.041-0.108 0.092-0.108s0.092 0.048 0.092 0.108z"></path>
<path fill="#000" d="M36.568 18.617c0 0.060-0.041 0.109-0.092 0.109s-0.092-0.049-0.092-0.109c0-0.060 0.041-0.108 0.092-0.108s0.092 0.049 0.092 0.108z"></path>
<path fill="#00a651" d="M36.612 17.432s0.927-1.295 1.921 0.050c0 0 0.008 0.134-0.084 0.276l-0.025-0.109-0.058 0.017-0.017-0.067-0.109-0.008 0.034-0.142-0.117 0.092 0.017-0.1-0.134 0.134 0.017-0.284-0.142 0.242 0.017-0.167-0.050 0.075-0.030-0.097-0.045 0.097-0.067-0.050v0.067l-0.117-0.1-0.042 0.134-0.058-0.142-0.017 0.1-0.059-0.117-0.008 0.125-0.192-0.084 0.042 0.117-0.092-0.067 0.017 0.067-0.125-0.025 0.008 0.075-0.134-0.025 0.025 0.067-0.184-0.025 0.067 0.075-0.019 0.031s1.004-0.331 1.071 0.922l-0.184 0.092 0.050-0.1-0.050-0.034-0.15-0.117 0.042-0.159-0.050 0.017-0.008-0.092-0.025 0.017-0.059-0.092-0.017 0.033-0.042-0.109-0.042 0.075-0.025-0.184-0.067 0.117-0.009-0.067-0.025 0.042-0.083-0.1-0.025 0.067-0.034-0.050-0.025 0.058-0.092-0.084v0.067l-0.058-0.050-0.025 0.033-0.142-0.075-0.009 0.067-0.075-0.067-0.025 0.067s0.911 0.518 0.627 1.362l-0.050 0.109-0.016-0.284-0.084 0.15 0.058-0.326-0.058 0.058-0.009-0.125-0.075 0.125-0.025-0.142-0.033 0.042-0.050-0.217-0.042 0.092-0.067-0.242-0.050 0.1-0.033-0.209-0.033 0.125-0.1-0.184-0.017 0.075-0.058-0.15-0.034 0.050s-0.167-0.009-0.217-0.050c-0.050-0.042-0.192 0.251-0.192 0.251l0.017-0.175-0.058 0.117v-0.117l-0.109 0.351-0.025-0.251-0.058 0.217-0.025-0.067-0.017 0.092-0.033-0.034-0.029 0.099-0.055-0.040v0.134l-0.050-0.067-0.042 0.2-0.025-0.083v0.092l-0.042-0.050-0.042 0.201-0.058-0.083-0.008 0.142 0.025 0.109-0.067-0.033 0.025 0.175s-0.259-0.484 0.050-0.952c0.309-0.468 0.727-0.593 0.727-0.593l-0.042-0.042-0.008-0.042-0.251 0.125 0.008-0.075-0.067 0.058-0.017-0.083-0.042 0.075-0.008-0.033-0.059 0.092-0.034-0.134-0.042 0.159-0.039-0.111-0.086 0.236v-0.175l-0.067 0.184-0.025-0.201-0.050 0.234v-0.209l-0.075 0.209-0.050-0.2-0.033 0.192-0.050-0.15-0.050 0.225-0.075-0.201-0.042 0.301-0.050-0.117-0.008 0.217-0.058-0.134 0.058 0.284-0.075-0.109 0.025 0.175-0.109-0.192 0.008 0.226-0.059-0.075-0.025 0.084s-0.025-0.869 0.568-1.036c0.593-0.167 0.978 0.050 0.978 0.050l-0.226-0.184 0.025-0.059h-0.083l0.033-0.067-0.175 0.008 0.050-0.067-0.134 0.017v-0.042l-0.084 0.067 0.033-0.075-0.117 0.075-0.007-0.111-0.060 0.095-0.033-0.1-0.268 0.267 0.075-0.276-0.050 0.059-0.008-0.059-0.075 0.117-0.017-0.084-0.034 0.1-0.025-0.117-0.058 0.117-0.059-0.108-0.025 0.142-0.042-0.075-0.050 0.109-0.067-0.067-0.009 0.067-0.134-0.058 0.033 0.1-0.1-0.083-0.025 0.134-0.058-0.067-0.042 0.167-0.042-0.159-0.042 0.125s0.522-1.342 1.844-0.467c0 0 0.144 0.141 0.177 0.241s0.008 0.017 0.008 0.017l-0.025-0.927 0.050 0.401 0.033-0.142-0.008 0.209 0.133-0.292s-0.159 0.485-0.1 0.66c0 0 0.059-0.56 0.259-0.627l-0.184 0.401 0.058-0.008-0.042 0.084h0.050l-0.061 0.133-0.031 0.068 0.033 0.067 0.050-0.051z"></path>
<path fill="#000" d="M36.475 17.977l0.026 0.024c0.004-0.004 0.086-0.092 0.225 0.025l0.023-0.027c-0.166-0.14-0.273-0.023-0.274-0.022zM36.434 17.522l-0.005 0.032 0.064-0.027c-0.010 0.018-0.044 0.077-0.044 0.077l0.096-0.032-0.119 0.156 0.028 0.022 0.19-0.248-0.118 0.039 0.051-0.089-0.102 0.044c0.007-0.041 0.021-0.127 0.021-0.127l-0.035-0.006-0.026 0.159z"></path>
<path fill="#000" d="M36.257 17.532s0.023 0.052 0.041 0.090c-0.008-0.003-0.065-0.026-0.065-0.026l0.193 0.341s0.023-0.030 0.025-0.032c-0.019 0.050-0.039 0.1-0.039 0.1l0.033 0.013 0.083-0.214-0.031-0.017-0.067 0.086c-0.018-0.032-0.085-0.15-0.116-0.206 0.004 0.001 0.053 0.021 0.053 0.021l-0.053-0.118 0.072 0.045v-0.127h-0.036v0.063l-0.118-0.074 0.024 0.054zM36.136 17.96l0.014 0.033c0.052-0.022 0.095-0.026 0.128-0.010 0.038 0.018 0.050 0.058 0.050 0.058l0.034-0.009c-0-0.002-0.016-0.055-0.068-0.081-0.042-0.020-0.095-0.017-0.158 0.010zM36.286 18.321l-0.029-0.187 0.035-0.006 0.029 0.187zM36.542 18.291l-0.048-0.143 0.034-0.011 0.048 0.143zM36.636 18.396l-0.036-0.143 0.035-0.009 0.036 0.143z"></path>
<path fill="#00a651" d="M29.505 22.682s-0.157-0.071-0.228-0.019c-0.071 0.052-0.061 0.128-0.123 0.123 0 0 0.237 0.052 0.29-0.010s0.062-0.081 0.062-0.081M29.533 22.748s-0.103 0.138-0.067 0.219c0.036 0.081 0.112 0.088 0.094 0.147 0 0 0.102-0.22 0.053-0.285s-0.065-0.077-0.065-0.077M29.36 22.366s-0.164 0.051-0.183 0.137c-0.019 0.086 0.039 0.137-0.010 0.174 0 0 0.212-0.119 0.21-0.2s-0.007-0.101-0.007-0.101M29.456 22.423s0.078-0.154 0.029-0.227c-0.049-0.074-0.126-0.067-0.118-0.129 0 0-0.063 0.235-0.003 0.29s0.078 0.065 0.078 0.065M29.295 22.367s0.004-0.172-0.072-0.217c-0.076-0.045-0.142-0.006-0.162-0.065 0 0 0.045 0.239 0.123 0.263s0.099 0.025 0.099 0.025M29.576 22.654s0.18-0.062 0.195 0.133c0.014 0.195-0.010 0.128-0.010 0.128s-0.095-0.209-0.199-0.242l0.014-0.019z"></path>
<path fill="#000" d="M29.53 22.751c0 0.004 0.019 0.151 0.019 0.151l0.025-0.003-0.019-0.147c0.001 0 0.062-0.324 0.062-0.324l-0.025-0.005-0.062 0.327z"></path>
<path fill="#000" d="M29.366 22.703l-0.008 0.024c0.086 0.030 0.207-0.064 0.212-0.068l-0.016-0.020c-0.001 0.001-0.114 0.090-0.187 0.064zM29.592 22.513l-0.403-0.204 0.016-0.032 0.403 0.204z"></path>
<path fill="#000" d="M29.3 22.468l-0.025-0.025 0.081-0.081 0.025 0.025zM29.441 22.428l-0.085-0.185 0.032-0.015 0.085 0.185zM29.56 22.655l0.002 0.036c0.11-0.007 0.137 0.064 0.137 0.064l0.035-0.007c-0.004-0.020-0.048-0.101-0.174-0.093z"></path>
<path fill="#fff" d="M31.411 22.737c0.135-0.075 0.162-0.339 0.162-0.339-0.032 0.097-0.28 0.194-0.28 0.194 0.183-0.113 0.403-0.624 0.403-0.624-0.059 0.183-0.538 0.334-0.845 0.506s-0.145 0.667-0.145 0.667c-0.086-0.059-0.253-0.323-0.285-0.554s-0.124-0.323-0.334-0.35c-0.21-0.027-0.334 0.21-0.334 0.21l-0.312 0.162 0.317 0.011s0.226 0.075 0.226 0.253c0 0.178-0.199 0.888 0.129 1.286 0.228 0.277 1.071 0.436 1.071 0.436"></path>
<path fill="#fff" d="M30.793 23.286s0.065-0.318 0.274-0.307c0.21 0.011 0.269-0.237 0.393-0.274s0.764-0.21 0.834-0.517c0 0-0.059 0.506-0.646 0.759 0 0 0.473-0.156 0.527-0.258 0 0-0.21 0.452-0.721 0.522 0 0 0.479-0.038 0.549-0.167 0 0-0.215 0.285-0.57 0.323 0 0 0.328 0.134 0.414 0.021 0 0-0.178 0.21-0.398 0.226l0.059 0.016s-0.21 0.248-0.441 0.081c-0.231-0.167-0.237 0.043-0.237 0.043"></path>
<path fill="#fff" d="M31.27 23.764s0.27 0.452 0.297 0.694c0 0 0.517 0.571 0.71 0.603 0 0-0.092 0.038-0.258-0.102 0 0 0.14 0.145 0.167 0.151s-0.113-0.011-0.135-0.049c0 0 0.059 0.086 0.097 0.097s-0.038-0.011-0.038-0.011-0.070-0.011-0.102-0.038c-0.032-0.027-0.011 0.070-0.011 0.070s-0.081-0.022-0.108-0.048c-0.027-0.027 0.011 0.059 0.011 0.059l-0.070-0.016-0.048 0.032s-0.005 0.032-0.038 0.005c-0.032-0.027-0.091 0-0.091 0s-0.043 0.038-0.065 0.011c-0.021-0.027-0.103 0.104-0.103 0.104l-0.339-0.818"></path>
<path fill="#000" d="M31.592 25.248l-0.428-0.815 0.045-0.024 0.428 0.815zM31.966 25.193l-0.733-0.82 0.038-0.034 0.733 0.82zM32.133 25.121l-0.836-0.779 0.035-0.037 0.836 0.779z"></path>
<path fill="#000" d="M30.038 22.496s-0.055-0.098-0.102-0.061c-0.047 0.037-0.075 0.043-0.083 0.041 0 0 0.048 0.003 0.075-0.023s0.073-0.010 0.11 0.043zM29.742 22.451s0.030 0.062 0.030 0.063c-0.003 0-0.034 0.1-0.034 0.1l0.024 0.008 0.033-0.109c-0.001-0.009-0.031-0.073-0.031-0.073l-0.023 0.011z"></path>
<path fill="#000" d="M30.025 22.481s-0.041 0.048-0.096 0.034l-0.055-0.014s0.047 0.003 0.079 0.004c0.031 0.001 0.072-0.015 0.073-0.024z"></path>
<path fill="#000" d="M30.012 22.491s-0.050-0.053-0.084-0.038c0 0 0.060-0.019 0.094 0.032l-0.010 0.006z"></path>
<path fill="#000" d="M30.004 22.481s-0.057 0.039-0.12-0.004l-0.004-0.003 0.008-0.003c0 0 0.079 0.033 0.115 0.010z"></path>
<path fill="#000" d="M29.972 22.472c0 0.009-0.008 0.017-0.017 0.017s-0.017-0.008-0.017-0.017c0-0.009 0.008-0.017 0.017-0.017s0.017 0.008 0.017 0.017z"></path>
<path fill="#000" d="M30.001 23.975s-0.044 0.081-0.021 0.13c0.023 0.049 0.128 0.074 0.142 0.139s0.049 0.065 0.098 0.056c0.049-0.009 0.058-0.012 0.058-0.012s-0.205-0.11-0.259-0.286l-0.018-0.028z"></path>
<path fill="#964b36" d="M36.627 22.319s0.373-0.492 0.704-0.363c0.331 0.129 0.546 0.192 0.546 0.192s0.006 0.331-0.17 0.331c-0.176 0-0.344-0.331-0.504-0.233s-0.292 0.233-0.302 0.279c-0.010 0.046-0.424 0.057-0.274-0.207z"></path>
<path fill="#964b36" d="M35.21 24.692s-0.103 0.108-0.057 0.134c0.047 0.026 0.139-0.005 0.139-0.041s-0.062-0.103-0.083-0.093z"></path>
<path fill="#964b36" d="M35.128 24.795s-0.191-0.109-0.341 0.15c-0.15 0.258-0.274 0.677-0.362 0.734s0.853-0.413 0.863-0.61c0 0 0.062-0.253-0.036-0.248s-0.103 0.016-0.124-0.026z"></path>
<path fill="#964b36" d="M35.154 24.826s-0.196 0.046-0.238 0.325c-0.041 0.279-0.315 0.424-0.331 0.434M37.877 22.148s-0.299 0.104-0.247 0.311"></path>
<path fill="#fff200" d="M35.583 22.753s0.010-0.708 0.589-0.677c0.11 0.010 0.057 0.139 0.057 0.139s0.125-0.088 0.182 0.052c0 0 0.182-0.083 0.203 0.098 0 0 0.198-0.026 0.172 0.134 0 0 0.135-0.031 0.13 0.083 0 0 0.156-0.062 0.141 0.098 0 0 0.172-0.114 0.146 0.093 0 0 0.177-0.124 0.239 0.083s-0.177 0.646-0.412 0.76"></path>
<path fill="#000" d="M37.19 22.796c0.001 0.006 0.078 0.554-0.233 0.755l0.011 0.017c0.322-0.208 0.243-0.769 0.242-0.775l-0.020 0.003zM36.816 23.397l0.014 0.015c0.197-0.192 0.239-0.708 0.241-0.73l-0.020-0.002c-0 0.005-0.043 0.531-0.235 0.717zM36.632 23.274l0.020 0.002c0.025-0.319 0.275-0.684 0.277-0.687l-0.017-0.011c-0.003 0.004-0.255 0.373-0.281 0.697zM36.487 23.181l0.020 0.002c0.036-0.385 0.29-0.674 0.292-0.676l-0.015-0.014c-0.003 0.003-0.261 0.296-0.297 0.688zM36.286 23.053l0.020 0.001c0.020-0.454 0.318-0.677 0.321-0.679l-0.012-0.017c-0.003 0.002-0.309 0.231-0.329 0.695zM36.1 22.94l0.020-0.001c-0.015-0.413 0.303-0.661 0.306-0.663l-0.012-0.016c-0.003 0.003-0.329 0.256-0.314 0.68zM35.764 22.788l0.020 0.003c0.055-0.448 0.454-0.564 0.458-0.565l-0.006-0.020c-0.004 0.001-0.415 0.121-0.472 0.582z"></path>
<path fill="#00a651" d="M35.241 23.612s-0.098-0.657 0.295-0.863c0 0 0.073-0.016 0.114 0.078 0 0 0.207-0.088 0.212 0.088 0 0 0.103-0.083 0.129 0.031 0 0 0.222-0.046 0.181 0.119 0 0 0.186-0.052 0.17 0.108 0 0 0.186-0.067 0.155 0.072 0 0 0.196-0.046 0.15 0.114 0 0 0.243-0.026 0.171 0.145 0 0 0.181-0.046 0.139 0.093 0 0 0.238 0.041 0.129 0.191s-0.382 0.377-0.651 0.475"></path>
<path fill="#00a651" d="M35.030 24.273s-0.16-0.548 0.145-0.687c0 0 0.057-0.016 0.067 0.041 0 0 0.067-0.088 0.119-0.010 0 0 0.155-0.072 0.191 0.041 0 0 0.103-0.088 0.155 0.041 0 0 0.098-0.041 0.098 0.062 0 0 0.134-0.057 0.134 0.067 0 0 0.129-0.052 0.103 0.088 0 0 0.196 0.031 0.14 0.124 0 0 0.176 0.046 0.109 0.119 0 0 0.191-0.021 0.088 0.108 0 0 0.145-0.046 0.062 0.114s-0.341 0.336-0.522 0.356"></path>
<path fill="#00a651" d="M35.221 24.707s-0.341-0.331-0.181-0.429c0 0 0.072 0.021 0.098 0.093 0 0 0.083-0.119 0.129 0.005 0 0 0.124-0.041 0.124 0.042l0.098 0.072s0.114-0.010 0.093 0.062c0 0 0.124-0.016 0.119 0.052 0 0 0.109 0.005 0.098 0.077 0 0 0.186 0.031 0.103 0.124 0 0-0.326 0.067-0.553-0.026 0 0-0.119-0.041-0.129-0.072z"></path>
<path fill="#000" d="M36.39 24.16l0.007 0.019c0.202-0.078 0.553-0.557 0.568-0.577l-0.016-0.012c-0.004 0.005-0.362 0.495-0.559 0.57zM36.276 24.073l0.010 0.018c0.176-0.098 0.526-0.562 0.541-0.582l-0.016-0.012c-0.004 0.005-0.362 0.48-0.534 0.576zM36.176 24.032l0.013 0.016c0.186-0.154 0.456-0.663 0.468-0.685l-0.018-0.010c-0.003 0.005-0.28 0.527-0.463 0.679zM36.084 23.915l0.020 0.003c0.035-0.257 0.397-0.663 0.4-0.667l-0.015-0.014c-0.015 0.017-0.369 0.414-0.405 0.677zM35.361 23.602l0.020-0.002c-0.030-0.364 0.274-0.764 0.277-0.768l-0.016-0.012c-0.003 0.004-0.312 0.411-0.281 0.782zM35.552 23.634l0.020-0.004c-0.050-0.291 0.294-0.706 0.297-0.71l-0.016-0.013c-0.014 0.017-0.354 0.426-0.302 0.727zM35.846 23.741l0.020-0.001c-0.010-0.333 0.309-0.666 0.313-0.67l-0.015-0.014c-0.003 0.003-0.329 0.343-0.318 0.684zM35.144 24.344l0.019-0.007c-0.116-0.307 0.085-0.701 0.087-0.705l-0.018-0.009c-0.002 0.004-0.207 0.406-0.088 0.722zM35.278 24.364l0.019-0.006c-0.101-0.313 0.070-0.733 0.072-0.737l-0.019-0.008c-0.002 0.004-0.176 0.431-0.073 0.751zM35.832 24.677l0.007 0.019c0.33-0.119 0.545-0.419 0.548-0.422l-0.017-0.012c-0.002 0.003-0.214 0.299-0.538 0.415zM35.764 24.605l0.008 0.019c0.263-0.119 0.508-0.45 0.511-0.453l-0.016-0.012c-0.003 0.003-0.244 0.33-0.503 0.446zM35.701 24.58l0.012 0.017c0.206-0.149 0.47-0.531 0.473-0.535l-0.017-0.011c-0.003 0.004-0.265 0.383-0.468 0.53zM35.371 24.388l0.020-0.003c-0.045-0.329 0.167-0.718 0.17-0.722l-0.018-0.010c-0.002 0.004-0.218 0.4-0.172 0.735zM35.514 24.477l0.014 0.015c0.212-0.192 0.285-0.708 0.287-0.73l-0.020-0.003c-0.001 0.005-0.074 0.531-0.281 0.718z"></path>
<path fill="#000" d="M35.659 24.538l0.012 0.016c0.3-0.217 0.381-0.633 0.381-0.637l-0.020-0.004c-0.001 0.004-0.081 0.412-0.373 0.624zM35.694 23.642c0 0.019 0.001 0.039 0.003 0.058-0-0.002-0.227 0.735-0.227 0.735l0.019 0.006 0.228-0.739c-0.035-0.357 0.279-0.747 0.282-0.751l-0.016-0.013c-0.003 0.004-0.289 0.359-0.289 0.703z"></path>
<path fill="#000" d="M35.932 23.822c-0.003 0.010-0.072 0.515-0.344 0.701l0.012 0.017c0.28-0.191 0.348-0.689 0.351-0.71 0.121-0.144 0.399-0.648 0.402-0.653l-0.018-0.010c-0.003 0.005-0.28 0.507-0.402 0.655zM35.128 24.373c0.002 0.011 0.047 0.261 0.1 0.35l0.018-0.010c-0.050-0.085-0.096-0.34-0.097-0.343l-0.020 0.004zM35.257 24.376c0.002 0.125 0.003 0.33-0.004 0.348l0.019 0.007c0.010-0.026 0.006-0.301 0.006-0.355l-0.020 0z"></path>
<path fill="#000" d="M35.268 24.734l0.019 0.008c0.087-0.19 0.114-0.321 0.115-0.323l-0.020-0.004c-0 0.001-0.027 0.13-0.113 0.318z"></path>
<path fill="#000" d="M35.288 24.74l0.010 0.018c0.162-0.094 0.2-0.258 0.201-0.265l-0.020-0.004c-0 0.002-0.037 0.162-0.192 0.252z"></path>
<path fill="#000" d="M35.318 24.754l0.002 0.020c0.159-0.016 0.267-0.209 0.272-0.217l-0.018-0.010c-0.001 0.002-0.108 0.192-0.256 0.207z"></path>
<path fill="#000" d="M35.334 24.764l0.001 0.020c0.255-0.016 0.37-0.168 0.374-0.175l-0.016-0.012c-0.001 0.001-0.114 0.151-0.359 0.166z"></path>
<path fill="#000" d="M35.352 24.769l-0.004 0.020c0.014 0.003 0.339 0.072 0.45-0.097l-0.017-0.011c-0.103 0.158-0.426 0.089-0.429 0.089z"></path>
<path fill="none" stroke="#000" stroke-linejoin="miter" stroke-linecap="butt" stroke-miterlimit="4.8" stroke-width="0.1861" d="M28.059 12.882v9.090c0 2.973 5.372 4.739 5.372 4.739s5.372-1.766 5.372-4.739v-9.090z"></path>
<path fill="#002868" d="M0 0v16.023h23.869v-16.023h-23.869z"></path>
<path fill="#fff" d="M0 0v1.791l9.266 6.22-9.266 6.22v1.791h2.669l9.266-6.22 9.266 6.22h2.668v-1.791l-9.266-6.22 9.266-6.22v-1.791h-2.668l-9.266 6.22-9.266-6.22h-2.669z"></path>
<path fill="#ce1126" d="M0 0v1.194l10.155 6.817-10.155 6.817v1.194h1.779l10.155-6.817 10.156 6.817h1.779v-1.194l-10.155-6.817 10.155-6.817v-1.194h-1.779l-10.156 6.817-10.155-6.817h-1.779z"></path>
<path fill="#fff" d="M9.945 0v5.341h-9.945v5.341h9.945v5.341h3.978v-5.341h9.945v-5.341h-9.945v-5.341h-3.978z"></path>
<path fill="#ce1126" d="M10.741 0v6.409h-10.741v3.205h10.741v6.409h2.387v-6.409h10.741v-3.205h-10.741v-6.409h-2.387z"></path>
</svg>
