<!-- Generated by IcoMoon.io -->
<svg version="1.1" xmlns="http://www.w3.org/2000/svg" width="43" height="32" viewBox="0 0 43 32">
<title>FKP</title>
<path fill="#006" d="M0 0h42.667v32h-42.667z"></path>
<path fill="#006" d="M0 0h26.667v13.333h-26.667z"></path>
<path fill="#fff" d="M0 0v1.704l21.142 13.538h2.661v-1.704l-21.143-13.538h-2.661zM23.804 0v1.704l-21.142 13.538h-2.661v-1.704l21.142-13.538h2.661z"></path>
<path fill="#fff" d="M9.918 0v15.242h3.967v-15.242h-3.967zM0 5.081v5.081h23.804v-5.081h-23.804z"></path>
<path fill="#c00" d="M0 6.097v3.048h23.804v-3.048h-23.804zM10.712 0v15.242h2.38v-15.242h-2.38zM0 15.242l7.935-5.081h1.774l-7.934 5.081h-1.774zM0 0l7.935 5.081h-1.774l-6.16-3.945v-1.136zM14.095 5.081l7.935-5.081h1.774l-7.934 5.081h-1.774zM23.804 15.242l-7.935-5.081h1.774l6.16 3.945v1.136z"></path>
<path fill="#000" stroke="#fff" stroke-linejoin="miter" stroke-linecap="butt" stroke-miterlimit="4" stroke-width="0.6667" d="M26.387 23.618c-0.057 0.001-0.111 0.006-0.165 0.016l0.006-0.001c-0.264 0.046-0.681 0.907-0.912 1.411-0.36 0.44-0.553 0.782-0.704 1.036-0.059 0.099-0.15 0.213-0.122 0.344-0.546 0.134-0.573 0.602-0.573 0.785 0 0.193 0.061 0.29 0.061 0.29l0.327 0.612 0.002 0.007c0.348 0.719 0.863 1.687 1.151 1.767 0.409 0.114 1.468-0.277 2.262-0.948 1.302 0.536 2.97 0.98 4.834 0.98s3.529-0.444 4.831-0.98c0.794 0.671 1.853 1.062 2.262 0.948 0.289-0.081 0.805-1.055 1.153-1.774l0.327-0.612s0.061-0.097 0.061-0.29c0-0.182-0.029-0.651-0.575-0.785 0.027-0.131-0.061-0.245-0.119-0.344-0.153-0.255-0.345-0.601-0.709-1.046-0.231-0.505-0.647-1.356-0.909-1.402-0.37-0.064-1.168 0.123-1.168 0.188 0 0.002-0.004 0.035-0.005 0.039l-1.602 1.513c0 0.043 0.085 1.138 0.385 2.106-1.072 0.39-2.389 0.666-3.932 0.666s-2.864-0.275-3.937-0.666c0.3-0.968 0.388-2.063 0.388-2.106l-1.601-1.513c-0-0.004-0.005-0.037-0.005-0.039 0-0.056-0.611-0.209-1.012-0.202zM26.797 25.497c0.201-0.003 0.416 0.163 0.592 0.349-0.006 0.036-0.012 0.074-0.020 0.107-0.049 0.224-0.132 0.52-0.249 0.829-0.458-0.268-0.831-0.546-1.116-0.804 0.174-0.185 0.453-0.436 0.748-0.478 0.014-0.002 0.029-0.002 0.044-0.002zM38.306 25.497c0.015 0 0.029 0 0.044 0.002 0.295 0.041 0.577 0.293 0.751 0.478-0.285 0.259-0.66 0.539-1.119 0.807-0.117-0.31-0.2-0.607-0.249-0.831-0.007-0.034-0.013-0.071-0.020-0.107 0.177-0.186 0.39-0.351 0.592-0.349zM25.358 27.632c0.213 0.163 0.491 0.349 0.826 0.546-0.093 0.059-0.192 0.103-0.295 0.127-0.138 0.032-0.283 0.026-0.429-0.005-0.046-0.113-0.084-0.255-0.095-0.446-0.004-0.063-0.006-0.14-0.007-0.218l-0-0.004zM39.747 27.632c-0.001 0.068-0.005 0.142-0.010 0.222-0.011 0.191-0.047 0.333-0.093 0.446-0.147 0.031-0.294 0.037-0.431 0.005-0.103-0.024-0.2-0.068-0.292-0.127 0.335-0.197 0.613-0.383 0.826-0.546z"></path>
<path fill="#000" d="M27.605 26.107s-0.555-0.898-1.018-0.834c-0.462 0.064-0.894 0.642-0.925 0.674s-0.709-0.738-0.678-0.77c0.031-0.032 0.709-1.7 1.079-1.765s1.169 0.123 1.169 0.187 0.373 2.508 0.373 2.508z"></path>
<path fill="#000" d="M28.838 25.145c0 0.064-0.185 2.438-0.987 3.273s-2.097 1.348-2.559 1.219c-0.462-0.128-1.511-2.535-1.511-2.535s1.11 1.155 1.942 0.962c0.833-0.192 1.326-1.636 1.48-2.342s0.031-2.085 0.031-2.085l1.603 1.508z"></path>
<path fill="#000" d="M37.317 26.107s0.555-0.898 1.018-0.834c0.462 0.064 0.894 0.642 0.925 0.674s0.709-0.738 0.678-0.77c-0.031-0.032-0.709-1.7-1.079-1.765s-1.169 0.123-1.169 0.187-0.373 2.508-0.373 2.508z"></path>
<path fill="#000" d="M36.084 25.145c0 0.064 0.185 2.438 0.987 3.273s2.097 1.348 2.559 1.219c0.462-0.128 1.511-2.535 1.511-2.535s-1.11 1.155-1.942 0.962c-0.833-0.192-1.326-1.636-1.48-2.342s-0.031-2.085-0.031-2.085l-1.603 1.508z"></path>
<path fill="#000" d="M25.333 25.022c-0.37 0.451-0.567 0.8-0.721 1.058s-0.064 0.617 0.293 1.129c0.384 0.552 3.539 2.708 7.649 2.708s7.265-2.156 7.649-2.708c0.356-0.512 0.444-0.871 0.29-1.128s-0.349-0.607-0.719-1.058c0 0.677-2.614 3.122-7.22 3.122s-7.22-2.446-7.22-3.122z"></path>
<path fill="#000" d="M39.572 29.279c0.062-0.096 0.709-1.219 0.709-1.219l-0.355-0.261c-0.109 0.318-0.508 0.421-0.57 0.806s0.278 0.77 0.216 0.674z"></path>
<path fill="#000" d="M40.215 28.931s0.123-0.545-0.277-0.61c-0.401-0.064-0.613 0.305-0.555 0.16 0.065-0.161 0.308-0.321 0.339-0.866s-0.031-0.834-0.031-0.834 0.154-0.706 0.802-0.61c0.647 0.096 0.678 0.61 0.678 0.802s-0.062 0.289-0.062 0.289l-0.894 1.668z"></path>
<path fill="#000" d="M37.887 27.089l0.132 0.23 0.089-0.055-0.059-0.152 0.011-0.030 0.155-0.096 0.404 0.707-0.010 0.034-0.080 0.059 0.036 0.064 0.385-0.24-0.036-0.064-0.087 0.046-0.034-0.007-0.405-0.707 0.155-0.096 0.029 0.005 0.101 0.126 0.089-0.056-0.132-0.23-0.743 0.464zM36.936 27.634l0.032 0.066 0.081-0.034 0.032 0.010 0.347 0.718-0.011 0.033-0.074 0.048 0.032 0.066 0.379-0.2-0.032-0.066-0.084 0.036-0.032-0.010-0.165-0.341 0.387-0.204 0.165 0.341-0.010 0.032-0.077 0.049 0.032 0.066 0.378-0.199-0.032-0.066-0.081 0.034-0.032-0.010-0.347-0.718 0.011-0.033 0.074-0.048-0.032-0.066-0.378 0.199 0.032 0.066 0.084-0.036 0.031 0.011 0.143 0.296-0.387 0.204-0.143-0.296 0.011-0.033 0.077-0.049-0.032-0.066-0.379 0.2zM36.714 28.244l0.020 0.071 0.109-0.026 0.029 0.013 0.085 0.296c-0.037 0.014-0.063 0.025-0.078 0.029-0.221 0.069-0.4-0.041-0.475-0.302-0.073-0.254 0.016-0.446 0.23-0.513 0.029-0.010 0.063-0.015 0.097-0.015 0.010 0 0.020 0 0.030 0.001l-0.001-0 0.029 0.019 0.071 0.145 0.105-0.033-0.071-0.246c-0.116 0.001-0.222 0.017-0.317 0.047-0.319 0.1-0.468 0.363-0.382 0.66 0.087 0.302 0.351 0.447 0.653 0.352 0.105-0.033 0.206-0.086 0.305-0.16l-0.097-0.338 0.017-0.028 0.081-0.033-0.020-0.071-0.42 0.131zM35.825 29.078l0.429-0.135-0.021-0.071-0.098 0.023-0.030-0.016-0.232-0.772 0.017-0.027 0.094-0.038-0.021-0.071-0.429 0.135 0.021 0.071 0.097-0.023 0.029 0.013 0.232 0.772-0.016 0.030-0.092 0.037 0.021 0.071zM33.505 29.458l0.754-0.069-0.023-0.27-0.096 0.009-0.010 0.162-0.016 0.026-0.326 0.030-0.033-0.392 0.183-0.017 0.021 0.019 0.023 0.107 0.083-0.008-0.030-0.35-0.083 0.008-0.005 0.11-0.018 0.023-0.183 0.017-0.031-0.359 0.28-0.026 0.020 0.018 0.032 0.131 0.098-0.009-0.020-0.237-0.708 0.065 0.006 0.074 0.086-0 0.024 0.019 0.069 0.804-0.020 0.026-0.085 0.015 0.006 0.074zM32.382 28.463l0.001 0.074 0.082 0.006 0.023 0.024 0.014 0.804-0.022 0.025-0.082 0.009 0.001 0.074 0.399-0.007-0.001-0.074-0.085-0.006-0.023-0.024-0.007-0.381 0.407-0.007 0.007 0.381-0.021 0.025-0.084 0.009 0.001 0.074 0.398-0.007-0.001-0.074-0.082-0.006-0.023-0.024-0.014-0.804 0.022-0.025 0.082-0.009-0.001-0.074-0.398 0.007 0.001 0.074 0.085 0.006 0.022 0.024 0.006 0.331-0.408 0.007-0.006-0.331 0.022-0.025 0.084-0.009-0.001-0.074-0.399 0.007zM31.525 28.434l-0.003 0.268 0.097 0.001 0.024-0.162 0.023-0.019 0.169 0.002-0.008 0.823-0.024 0.024-0.092 0.006-0.001 0.074 0.422 0.005 0.001-0.074-0.092-0.009-0.024-0.024 0.008-0.823 0.169 0.002 0.021 0.020 0.022 0.162 0.097 0.001 0.003-0.268-0.814-0.010zM30.226 29.29l0.737 0.037 0.012-0.271-0.093-0.005-0.030 0.159-0.019 0.023-0.319-0.016 0.017-0.393 0.178 0.009 0.018 0.022 0.009 0.109 0.081 0.004 0.015-0.351-0.081-0.004-0.019 0.108-0.020 0.020-0.178-0.009 0.016-0.36 0.273 0.014 0.017 0.021 0.015 0.134 0.096 0.005 0.010-0.237-0.692-0.034-0.003 0.074 0.083 0.012 0.021 0.022-0.035 0.806-0.023 0.023-0.084 0.003-0.003 0.074zM28.537 28.853l0.391 0.132 0.022-0.071-0.085-0.037-0.014-0.030 0.236-0.768 0.027-0.013 0.090 0.022 0.022-0.071-0.391-0.132-0.022 0.071 0.084 0.036 0.015 0.027-0.236 0.768-0.028 0.016-0.089-0.022-0.022 0.071zM27.841 28.583c0.068 0.056 0.147 0.101 0.233 0.131l0.005 0.002c0.215 0.072 0.385-0.007 0.438-0.178 0.026-0.085 0.008-0.177-0.051-0.256-0.060-0.081-0.123-0.126-0.155-0.167-0.055-0.069-0.079-0.125-0.058-0.191 0.024-0.079 0.101-0.117 0.197-0.085 0.042 0.014 0.070 0.031 0.089 0.052l0.012 0.026-0.024 0.157 0.094 0.032 0.072-0.233c-0.073-0.060-0.15-0.105-0.231-0.132-0.187-0.063-0.347 0.020-0.396 0.18-0.022 0.071-0.012 0.152 0.031 0.228 0.041 0.073 0.095 0.118 0.139 0.164 0.077 0.083 0.108 0.151 0.084 0.229-0.024 0.079-0.105 0.116-0.211 0.080-0.042-0.014-0.078-0.035-0.11-0.060l0.001 0.001-0.010-0.027 0.032-0.18-0.1-0.034-0.080 0.261zM26.956 28.213l0.666 0.333 0.111-0.244-0.084-0.042-0.087 0.134-0.026 0.014-0.288-0.144 0.162-0.355 0.161 0.081 0.009 0.028-0.033 0.104 0.073 0.037 0.144-0.317-0.073-0.037-0.057 0.092-0.026 0.010-0.161-0.081 0.148-0.325 0.247 0.123 0.008 0.026-0.036 0.13 0.087 0.044 0.098-0.214-0.626-0.313-0.031 0.067 0.073 0.045 0.011 0.029-0.332 0.728-0.030 0.012-0.079-0.031-0.030 0.067zM26.844 27l-0.335-0.231-0.039 0.062 0.066 0.055 0.006 0.033-0.422 0.671-0.031 0.008-0.074-0.042-0.039 0.062 0.335 0.231c0.115 0.079 0.213 0.12 0.322 0.108 0.142-0.014 0.264-0.097 0.358-0.246 0.167-0.265 0.12-0.526-0.147-0.71zM26.704 27.005l0.067 0.046c0.183 0.126 0.199 0.302 0.049 0.539s-0.311 0.293-0.494 0.167l-0.067-0.046 0.444-0.706zM29.376 28.051l-0.015 0.073 0.078 0.025 0.017 0.026-0.163 0.789-0.026 0.019-0.081-0.010-0.015 0.073 0.379 0.084 0.015-0.073-0.080-0.025-0.017-0.028 0.069-0.333 0.023 0.005c0.136 0.030 0.158 0.101 0.17 0.251 0.007 0.076 0.005 0.145 0.063 0.22 0.027 0.035 0.073 0.064 0.13 0.077 0.040 0.009 0.086 0.015 0.134 0.018l0.002 0 0.015-0.071-0.017-0.004c-0.090-0.020-0.126-0.051-0.137-0.139-0.010-0.080-0.004-0.162-0.033-0.236-0.021-0.054-0.061-0.092-0.122-0.123 0.158 0.002 0.255-0.066 0.283-0.202 0.034-0.164-0.055-0.277-0.264-0.323l-0.409-0.090zM29.634 28.196l0.062 0.014c0.13 0.029 0.185 0.112 0.16 0.233-0.028 0.136-0.109 0.183-0.253 0.152-0.015-0.003-0.031-0.007-0.048-0.012l0.080-0.386zM34.574 28.282l0.012 0.073 0.089-0.007 0.027 0.017 0.126 0.796-0.020 0.028-0.086 0.022 0.012 0.073 0.418-0.071-0.012-0.073-0.092 0.008-0.028-0.020-0.053-0.336 0.025-0.004c0.15-0.026 0.198 0.032 0.266 0.166 0.035 0.068 0.059 0.133 0.145 0.179 0.040 0.022 0.098 0.031 0.161 0.020 0.057-0.011 0.106-0.023 0.154-0.040l-0.008 0.002-0.011-0.072-0.019 0.003c-0.099 0.017-0.147 0.002-0.191-0.075-0.040-0.070-0.064-0.148-0.121-0.206-0.042-0.042-0.097-0.062-0.17-0.066 0.162-0.060 0.236-0.162 0.214-0.299-0.026-0.166-0.159-0.235-0.388-0.196l-0.45 0.077zM34.891 28.316l0.068-0.012c0.144-0.025 0.23 0.031 0.249 0.154 0.022 0.138-0.044 0.213-0.202 0.24-0.016 0.003-0.034 0.006-0.054 0.008l-0.061-0.39z"></path>
<path fill="#000" d="M25.353 29.279c-0.062-0.096-0.709-1.219-0.709-1.219l0.355-0.261c0.109 0.318 0.508 0.421 0.57 0.806s-0.278 0.77-0.216 0.674z"></path>
<path fill="#000" d="M24.707 28.931s-0.123-0.545 0.277-0.61c0.401-0.064 0.613 0.305 0.555 0.16-0.065-0.161-0.308-0.321-0.339-0.866s0.031-0.834 0.031-0.834-0.154-0.706-0.802-0.61c-0.647 0.096-0.678 0.61-0.678 0.802s0.062 0.289 0.062 0.289l0.894 1.668z"></path>
<path fill="#0072c4" opacity="0.996" d="M32.534 27.443s-7.442-2.183-7.399-10.486l0.057-10.976h14.684l0.058 10.913c0.043 8.304-7.399 10.55-7.399 10.55z"></path>
<path fill="#bcbcbc" d="M26.154 8.598c0.012 0 0.102-0.085 0.185-0.161 0.115-0.058 0.222-0.139 0.339-0.193 0.087-0.050 0.259-0.090 0.338-0.129 0.104-0.054 0.188-0.117 0.277-0.225 0.011-0.144 0.031-0.247 0.031-0.418 0.122-0.059 0.231-0.116 0.339-0.161 0.154-0.043 0.187-0.105 0.339-0.129 0.097-0.034 0.258-0.032 0.4-0.032 0.153 0 0.25 0.109 0.387 0.135 0.163 0.066 0.239 0.111 0.369 0.225 0.073 0.093 0.119 0.169 0.244 0.239 0.099 0.051 0.192 0.128 0.308 0.161 0.127 0.074 0.24 0.116 0.338 0.225 0.090 0.064 0.128 0.16 0.215 0.225 0.102 0.084 0.198 0.16 0.308 0.225 0.132 0.088 0.263 0.155 0.476 0.136 0.113-0.007 0.235-0.020 0.369 0.005 0.151 0 0.298-0.003 0.431 0.032 0.157 0 0.284 0.021 0.431 0.032 0.138 0.026 0.278 0.032 0.431 0.032 0.133 0.035 0.28 0.032 0.431 0.032h0.862c0.157 0 0.316 0.006 0.431 0.032 0.155 0 0.289-0.015 0.431-0.032 0.167 0 0.295-0.031 0.462-0.032h0.523c0.134 0.037 0.306 0.062 0.4 0.129 0.123 0.035 0.185 0.094 0.308 0.129 0.094 0.048 0.238 0.125 0.308 0.225 0.087 0.091 0.176 0.221 0.246 0.354 0.086 0.124 0.118 0.265 0.185 0.418 0.035 0.147 0.060 0.287 0.062 0.45 0.033 0.14 0.031 0.293 0.031 0.451-0.035 0.147-0.043 0.31-0.092 0.451-0.005 0.157-0.037 0.299-0.062 0.418-0.027 0.132-0.060 0.216-0.062 0.386v0.451c-0.011 0.148-0.043 0.256-0.061 0.418-0.074 0.141-0.146 0.305-0.215 0.483-0.102 0.071-0.191 0.173-0.246 0.258-0.066 0.041-0.104 0.102-0.092 0.129 0.123 0.043 0.092 0.128 0.092 0.29 0.016 0.124 0.028 0.278 0.062 0.418 0.011 0.154 0.044 0.247 0.092 0.354 0.049 0.063 0.058 0.032-0.062 0.032-0.089 0.070-0.179 0.033-0.215-0.097-0.072-0.087-0.095-0.191-0.123-0.354-0.017-0.149-0.041-0.294-0.092-0.386-0.016-0.181-0.064-0.18-0.246-0.193-0.087-0.077-0.201-0.097-0.369-0.097s-0.182-0.017-0.185 0.161v0.451c-0.029 0.131-0.092 0.236-0.123 0.354-0.092 0.067-0.14 0.18-0.246 0.257-0.051 0.146-0.125 0.172-0.277 0.193-0.053-0.067-0.14-0.153-0.185-0.225 0.086-0.145 0.161-0.166 0.216-0.322 0.065-0.128 0.104-0.211 0.154-0.322-0.066-0.101-0.125-0.147-0.185-0.29-0.051-0.078-0.121-0.245-0.154-0.354-0.101-0.035-0.26-0.041-0.339-0.097-0.149-0.035-0.191 0.129-0.369 0.129h-0.431c-0.191 0-0.238 0.106-0.4 0.097-0.048 0.015-0.163-0.007-0.339 0-0.129 0.045-0.283 0.032-0.431 0.032-0.156-0.002-0.284-0.038-0.4-0.064-0.141-0.039-0.282-0.078-0.431-0.096-0.181 0-0.248 0.014-0.369 0.096-0.096 0.057-0.235 0.187-0.339 0.257-0.044 0.107-0.066 0.288-0.123 0.418-0.033 0.126-0.086 0.205-0.123 0.322-0.042 0.109-0.081 0.221-0.092 0.386-0.010 0.217-0.058 0.19-0.185 0.129-0.053-0.090-0.137-0.188-0.185-0.29 0.028-0.164 0.060-0.245 0.062-0.418-0.030-0.125-0.1-0.121-0.185-0.032 0 0.169 0.008 0.298-0.062 0.386-0.035 0.133-0.090 0.19-0.185 0.257-0.046 0.119-0.148 0.174-0.246 0.225-0.016-0.005 0-0.043 0-0.129-0.074-0.147-0.005-0.269-0.005-0.451 0.002-0.162-0.007-0.27 0.040-0.418 0-0.156-0.072-0.304-0.096-0.418-0.057-0.12-0.090-0.179-0.246-0.225-0.11-0.044-0.268-0.102-0.339-0.193-0.089-0.116-0.146-0.164-0.277-0.225-0.142-0.051-0.21-0.098-0.308-0.161-0.095-0.105-0.172-0.15-0.215-0.29-0.064-0.099-0.075-0.283-0.123-0.418-0.010-0.141-0.051-0.273-0.092-0.386-0.018-0.141-0.041-0.245-0.092-0.386-0.017-0.132-0.055-0.271-0.092-0.418 0-0.157 0.003-0.311-0.031-0.451v-0.45c-0.022-0.13-0.030-0.32-0.062-0.418 0-0.175-0.019-0.274-0.062-0.386-0.070-0.114-0.076-0.165-0.185-0.193-0.078 0.1-0.208 0.141-0.369 0.161-0.113-0.026-0.272-0.043-0.4-0.097-0.123-0.030-0.208-0.079-0.308-0.129-0.055-0.084-0.12-0.179-0.185-0.257-0.019-0.168-0.056-0.255-0.062-0.418 0-0.123 0.003-0.058 0.123-0.225z"></path>
<path fill="#fefefe" d="M27.977 9.757h0.196c0.069 0.024 0.182 0.023 0.283 0.023-0.015 0.119-0.028 0.153-0.131 0.182-0.104 0.027-0.178 0.041-0.283 0.046-0.083 0-0.111-0.018-0.087 0.046 0.076 0.037 0.124 0.064 0.239 0.068h0.305c0.104 0 0.214-0.009 0.305 0.023 0.038 0.057 0.002 0.127-0.044 0.159-0.031 0.051-0.14 0.079-0.022 0.091 0.107 0.004 0.193 0.023 0.305 0.023 0.124-0.009 0.185-0.033 0.283-0.091 0.069-0.036 0.121-0.084 0.174-0.137 0.091-0.070 0.147-0.12 0.283-0.137 0.027 0.041-0.008 0.082-0.065 0.114-0.047 0.072-0.106 0.119-0.196 0.205-0.044 0.067-0.107 0.108-0.174 0.182-0.093 0.047-0.134 0.091-0.218 0.159-0.106 0.090-0.152 0.132-0.283 0.137-0.068-0.039-0.177-0.045-0.283-0.045-0.071 0.041-0.183 0.064-0.065 0.114h0.305c0.024 0.040-0.030 0.074-0.109 0.091-0.066 0.040-0.142 0.066-0.239 0.114-0.126 0-0.193-0.010-0.261 0.068 0 0.138 0 0.159 0.087 0.205 0.118 0 0.176 0.019 0.283 0.023h0.305c0.122-0.004 0.237-0.016 0.348-0.046 0.102-0.014 0.146-0.052 0.261-0.068-0.013 0.11-0.029 0.123-0.131 0.159-0.022 0.063-0.071 0.096-0.044 0.137 0.104-0.001 0.21-0.020 0.283-0.046 0.075-0.035 0.173-0.098 0.261-0.114 0.094-0.046 0.211-0.089 0.174 0.046-0.019 0.108-0.076 0.11-0.13 0.182-0.118 0.002-0.152 0.032-0.239 0.091-0.092 0.026-0.208 0.094-0.305 0.159 0.062-0.032 0.188-0.023 0.283-0.023 0.104 0 0.214 0.009 0.305-0.023 0.111-0.026 0.149-0.065 0.239-0.091 0.104-0.071 0.122-0.104 0.218-0.182 0.069-0.064 0.143-0.076 0.261-0.046 0.023 0.109-0.042 0.18-0.065 0.273-0.081 0.069-0.125 0.126-0.218 0.182-0.075 0.051-0.13 0.093-0.218 0.137-0.113 0.024-0.201 0.093-0.305 0.137-0.067 0.084-0.136 0.070-0.261 0.023-0.128-0.022-0.154-0.063-0.283-0.068-0.072 0.053-0.118 0.072-0.152 0.182-0.049 0.056-0.117 0.141-0.174 0.182-0.059 0.063-0.115 0.117-0.174 0.159-0.036 0.104-0.086 0.138-0.131 0.205 0.035 0.028 0.137 0.028 0.196 0.045 0.105 0 0.206-0.005 0.283-0.023 0.107-0.004 0.165-0.023 0.283-0.023 0.123-0.002 0.172-0.031 0.283-0.068 0.044-0.057 0.099-0.127 0.174-0.136 0.125 0.044 0.242 0.079 0.392 0.136-0.031 0-0.010-0.007 0 0.023 0.048-0.057 0.081-0.149 0.109-0.25-0.009-0.091-0.038-0.184 0-0.25 0.035 0.045 0.056 0.055 0.109 0.046 0.006-0.015 0-0.126 0-0.205 0.030-0.031 0.092-0.023 0.152-0.023 0.090 0 0.119-0.025 0.13 0.068 0.083 0.12 0.16 0.25 0.196 0.387 0.095-0.035 0.087-0.073 0.087-0.205v-0.319c-0.044-0.078-0.111-0.174-0.174-0.273 0.002-0.153 0.006-0.158 0.152-0.159 0.141-0.046 0.176 0.044 0.218 0.182 0.026 0.096 0.043 0.228 0.087 0.296 0.013-0.061 0.018-0.197 0.043-0.25 0.004-0.13 0.034-0.226 0.065-0.341 0.055 0.037 0.094 0.090 0.13 0.159 0.028 0.117 0.039 0.189 0.087 0.296 0.022 0.13 0.043 0.239 0.087 0.364 0.049 0.117 0.052 0.135 0.196 0.137 0.119 0 0.198 0.019 0.283 0.045 0.068 0.066 0.161 0.12 0.239 0.159 0.078-0.021 0.009-0.071 0.087-0.091 0.060-0.056 0.083-0.152 0.087-0.273-0.008-0.102-0.022-0.175-0.022-0.296-0.017-0.080-0.022-0.185-0.022-0.296-0.021-0.060-0.034-0.169 0-0.228 0.139 0.002 0.151 0.019 0.196 0.114-0.004 0.112-0.022 0.172-0.022 0.296v0.728c0.043 0.124 0.010 0.116 0.087 0.046 0.031-0.069 0.045-0.176 0.087-0.273 0.013-0.098 0.062-0.102 0.087-0.182v-0.319c-0.022-0.094-0.035-0.224 0-0.296 0.073-0.073 0.142-0.068 0.261-0.068 0.030 0.074 0.022 0.163 0.022 0.25 0.034 0.098-0 0.168 0.109 0.182 0.067 0.060 0.124 0.056 0.174 0.159 0.060 0.137 0.044 0.112 0.131 0.023-0.006-0.13-0.057-0.181-0.065-0.296 0.047-0.037 0.126-0.020 0.174 0 0.054 0.117 0.077 0.192 0.152 0.296 0.033 0.121 0.081 0.176 0.131 0.273v-0.182c0-0.117 0.018-0.207 0.022-0.319 0-0.119-0-0.206-0.044-0.273-0.038-0.085-0.044-0.178-0.044-0.319 0-0.087-0.018-0.116 0.044-0.091 0.063 0.044 0.116 0.118 0.174 0.159 0.043 0.074 0.086 0.145 0.109 0.273 0.028 0.071 0.063 0.269 0.087 0.114-0.022-0.090-0.073-0.181-0.087-0.296-0.025-0.101-0.070-0.176-0.087-0.296 0.037 0.052 0.094 0.085 0.152 0.114 0.065 0.056 0.131 0.058 0.196 0.137 0.044 0.082 0.108 0.202 0.174 0.296 0.070 0.144 0.119 0.318 0.174 0.478 0.012-0.041-0.001-0.186-0.044-0.273-0.025-0.099-0.064-0.144-0.065-0.273 0.025 0.048 0.054 0.048 0.065 0.114 0.043 0.066 0.072 0.139 0.109 0.227 0.058 0.050 0.105 0.182 0.152 0.25 0.044 0.121 0.1 0.236 0.152 0.364v-0.25c-0.005-0.133-0.043-0.207-0.065-0.341-0.030-0.095-0.022-0.21-0.022-0.318 0.046-0.034 0.068 0.023 0.087 0.068 0.072 0.051 0.091 0.108 0.174 0.205 0.041 0.077 0.119 0.2 0.174 0.273 0.059 0.051 0.121 0.174 0.174 0.25 0.022 0.098 0.070 0.21 0.109 0.319 0.038 0.104 0.104 0.207 0.131 0.296 0.008-0.098 0.028-0.117 0.109-0.159 0.018-0.087 0.042-0.11 0.087-0.182 0.091-0.135 0.050-0.153 0-0.273-0.035-0.104-0.031-0.189-0.065-0.296-0.058-0.162-0.092-0.263-0.065-0.432 0.068-0.052 0.1 0.034 0.131 0.114 0.016 0.079 0.027 0.198 0.044 0.296 0.037 0.086 0.082 0.158 0.152 0.228 0.022 0.124 0.067 0.227 0.109 0.341v-0.023c0-0.11 0.005-0.215 0.022-0.296l-0.022 0.296c0-0.11 0.005-0.215 0.022-0.296v-0.637c0.001-0.119 0.022-0.172 0.022-0.296 0.024-0.099 0.022-0.207 0.022-0.319 0-0.13-0.010-0.194-0.044-0.296-0.009-0.133-0.060-0.222-0.109-0.319v-0.091c0.086 0.071 0.126 0.087 0.131 0.228 0.047 0.047 0.058 0.144 0.109 0.114 0.042-0.065 0.073-0.134 0.087-0.228-0.050-0.098-0.065-0.136-0.065-0.273 0.074-0.027 0.112-0.032 0.131 0.068 0.006 0.072 0.049 0.171 0.065 0.046-0.016-0.077-0.023-0.209-0.065-0.273-0.002-0.139-0.015-0.201-0.087-0.296-0.077-0.049-0.151-0.108-0.218-0.159-0.042-0.065-0.11-0.126-0.152-0.182-0.041-0.061-0.121-0.132-0.196-0.159-0.105-0.053-0.151-0.086-0.283-0.091h0.022c0.037 0.077 0.087 0.115 0.131 0.182l-0.131-0.182c0.037 0.077 0.087 0.115 0.131 0.182 0.066 0.067 0.146 0.142 0.196 0.205 0.108 0.045 0.15 0.155 0.196 0.296 0 0.040 0.001 0.036-0.022 0.068-0.055 0.033-0.114 0.005-0.152-0.045-0.090-0.044-0.157-0.116-0.218-0.159-0.092-0.085-0.13-0.083-0.087 0.045 0.031 0.103 0.081 0.148-0.044 0.114-0.081-0.071-0.146-0.126-0.239-0.182-0.094-0.107-0.138-0.179-0.196-0.296-0.053-0.061-0.133-0.181-0.218-0.273-0.103-0.052-0.212-0.149-0.305-0.091 0.046 0.040 0.136 0.157 0.196 0.228 0.097 0.061 0.161 0.115 0.218 0.205 0.087 0.080 0.139 0.126 0.196 0.25 0.067 0.118 0.12 0.222 0.131 0.364v-0.023c-0.090-0.022-0.163-0.064-0.218-0.137l0.218 0.137c-0.090-0.022-0.163-0.064-0.218-0.137-0.091-0.027-0.218-0.088-0.261-0.137-0.080-0.042-0.112-0.078-0.174-0.159-0.092-0.123-0.18-0.215-0.305-0.318 0.003 0.063 0.010 0.085 0.044 0.114 0.045 0.103 0.11 0.154 0.196 0.228 0.035 0.077 0.064 0.146 0.065 0.273 0.041 0.116 0.061 0.231 0.065 0.364-0.023 0.015-0.111-0.006-0.152-0.046-0.080-0.063-0.118-0.135-0.196-0.205-0.035-0.055-0.124-0.184-0.174-0.228-0.037-0.113-0.079-0.186-0.131-0.296-0.048-0.113-0.094-0.172-0.196-0.273-0.014 0.033 0.007 0.149 0.044 0.227 0.015 0.118 0.044 0.165 0.044 0.296 0.027 0.147 0.022 0.301 0.022 0.455-0.088-0.022-0.097-0.062-0.131-0.136-0.049-0.054-0.092-0.117-0.131-0.182-0.056-0.048-0.108-0.175-0.152-0.228-0.021-0.115-0.050-0.222-0.065-0.341-0.022-0.111-0.036-0.090-0.087-0.045-0.025 0.081-0.037 0.132-0.109 0.159 0-0.127 0.005-0.163-0.065-0.25-0.031 0.081-0.057 0.142-0.065 0.25v0.319c0 0.135-0.008 0.257-0.022 0.364-0.056-0.034-0.062-0.104-0.109-0.136-0.037-0.111-0.066-0.149-0.109-0.25-0.045-0.092-0.044-0.169-0.044-0.296-0.049 0.031-0.088 0.073-0.109 0.159-0.022 0.069-0.038 0.206-0.065 0.273-0.050 0.052-0.075 0.006-0.109-0.023-0.024-0.117-0.066-0.162-0.109-0.228-0.038-0.081-0.044-0.175-0.044-0.296-0.005-0.134-0.029-0.166-0.087-0.227-0.116-0.014-0.191-0.038-0.261 0.023-0.063 0.093-0.052 0.124 0.022 0.159 0.022 0.069 0.040 0.173 0.044 0.273 0.030 0.094 0.032 0.219 0.044 0.319-0.008 0.147-0.024 0.29-0.109 0.387 0-0.105 0.001-0.224-0.022-0.296-0.053-0.059-0.098-0.122-0.152-0.228-0.046-0.094-0.088-0.172-0.109-0.273 0-0.115 0.004-0.222-0.044-0.296-0.024-0.055-0.068-0.115-0.109-0.091-0.019 0.087-0.052 0.197-0.087 0.296-0.030 0.095-0.022 0.21-0.022 0.319-0.002 0.135 0.004 0.181-0.109 0.205-0.043 0.072-0.087 0.12-0.131 0.227-0.057 0.049-0.090 0.147-0.174 0.182-0.030-0.031-0.022-0.096-0.022-0.159-0.008-0.104-0.021-0.194-0.065-0.296-0.019-0.070-0.044-0.264-0.044-0.091-0.005 0.14-0.042 0.24-0.043 0.387-0.015 0.129-0.015 0.184-0.109 0.159-0.030-0.031-0.022-0.096-0.022-0.159-0.005-0.13-0.040-0.152-0.065-0.273-0.023-0.072-0.022-0.191-0.022-0.296 0-0.115 0.010-0.214 0.022-0.318v0.023c-0.076 0.091-0.116 0.14-0.174 0.25l0.174-0.25c-0.076 0.091-0.116 0.14-0.174 0.25-0.038 0.093-0.080 0.171-0.152 0.205-0.028-0.089-0.022-0.193-0.022-0.296-0.004-0.128-0.023-0.244-0.044-0.364v0.023c-0.031 0.064-0.037 0.189-0.044 0.273l0.044-0.273c-0.031 0.064-0.037 0.189-0.044 0.273-0.034 0.165-0.036 0.341-0.087 0.501-0.021 0.075-0.037-0.015-0.087-0.046-0.040-0.083-0.079-0.166-0.087-0.273-0.023-0.097-0.013-0.223-0.044-0.319-0.006 0.124-0.039 0.21-0.043 0.341-0.046-0.031-0.072-0.064-0.109-0.114-0.034-0.104-0.064-0.163-0.065-0.296 0.031-0.064 0.022-0.196 0.022-0.296v0.023c-0.012 0.091-0.030 0.243-0.065 0.319-0.036-0.087-0.025-0.121-0.087-0.159-0.039-0.086-0.043-0.146-0.022-0.273 0.046-0.070 0.064-0.128 0.065-0.25-0.096 0.015-0.131 0.049-0.196 0.091-0.058 0.054-0.13 0.108-0.218 0.159-0.029 0.084-0.077 0.127-0.152 0.182-0.038 0.080-0.079 0.128-0.152 0.228-0.046 0.104-0.086 0.171-0.174 0.273-0.089 0.031-0.155 0.054-0.218 0-0.062-0.007-0.034-0.037-0.065-0.091 0.021-0.118 0.118-0.156 0.174-0.227 0.069-0.049 0.083-0.105 0.152-0.205 0.036-0.077 0.125-0.169 0.196-0.25 0.102-0.053 0.129-0.102 0.131-0.25v0.136c-0.034 0.095-0.13 0.149-0.218 0.205-0.087 0.093-0.131 0.093-0.239 0.068-0.115-0.039-0.16 0.014-0.283 0.023-0.095 0.062-0.175 0.086-0.261 0.159-0.075 0.064-0.135 0.117-0.196 0.182-0.049 0.054-0.139 0.088-0.196 0.114-0.047 0.044-0.173 0.118-0.239 0.159-0.118 0.050-0.137 0.074-0.087 0.023l-0.022 0.023zM26.092 9.241c0.065 0.078 0.35 0.271 0.185 0.257 0.126-0.009 0.213 0.004 0.285-0.015 0.043-0.024 0.091-0.032 0.152 0 0.101 0 0.115-0.087 0.055-0.153-0.018-0.075-0.27-0.054-0.316-0.098-0.119-0.012-0.013-0.029 0.022-0.068 0.078-0.027 0.159-0.008 0.261 0 0.076 0.028 0.156 0.055 0.261 0.068 0.11 0 0.213 0.004 0.283-0.046 0-0.108 0.020-0.133-0.087-0.136-0.106 0-0.21-0.002-0.305 0.023-0.123 0-0.177-0.012-0.239-0.068-0.068-0.008-0.024-0.039-0.065-0.068-0.029-0.075-0.043-0.11 0.065-0.114 0.083 0.051 0.144 0.079 0.239 0.046 0.053-0.048 0.146-0.074 0.196-0.137 0.101 0.006 0.152 0.027 0.196 0.114 0.067 0.044 0.016 0.086 0.109 0.091 0.111 0.012 0.217 0.030 0.305 0-0.028-0.079-0.001-0.095 0.065-0.137 0.106 0 0.206-0.005 0.283-0.023-0.037 0.1-0.041 0.185-0.065 0.296 0.092-0.042 0.138-0.062 0.152-0.182 0.011-0.132 0.045-0.131 0.174-0.137 0.036 0.038-0.003 0.068-0.022 0.114-0.048 0.11-0.077 0.162-0.174 0.273 0.030 0.031 0.092 0.023 0.152 0.023 0.122 0 0.203-0.024 0.305-0.068 0.102-0.035 0.136-0.067 0.152-0.182 0.101-0.057 0.15-0.086 0.283-0.091 0.108-0.024 0.209-0.059 0.305-0.114 0.064-0.023 0.107-0.106 0.152-0.136 0.027-0.038 0.022-0.112 0.022-0.182-0.031-0.035-0.1-0.041-0.152-0.068-0.106-0.013-0.201-0.036-0.305 0-0.099 0.026-0.204 0.048-0.305 0.068-0.088-0.051-0.161-0.107-0.261-0.137-0.057-0.087-0.092-0.088 0.022-0.159 0.090-0.041 0.181-0.066 0.261-0.045 0.087 0.012 0.172 0.023 0.283 0.023-0.038-0.094-0.051-0.136-0.022-0.25 0.031-0.062 0.070-0.165 0.087-0.023 0 0.131 0.030 0.208 0.065 0.319 0.063 0.050 0.096 0 0.152-0.046 0.015-0.041 0.044-0.255 0-0.137l0.001 0.002c0.048 0.074 0.114 0.136 0.195 0.18 0.115-0.002 0.144 0.005 0.152-0.114 0.083 0 0.058 0.020 0.057-0.096-0.116-0.033-0.209-0.11-0.308-0.161-0.125-0.070-0.171-0.146-0.245-0.239-0.13-0.114-0.206-0.16-0.369-0.225-0.138-0.026-0.234-0.135-0.387-0.135-0.142 0-0.303-0.002-0.4 0.032-0.151 0.024-0.185 0.085-0.339 0.129-0.107 0.045-0.216 0.102-0.338 0.161 0 0.171-0.020 0.274-0.031 0.418-0.089 0.109-0.173 0.171-0.277 0.225-0.079 0.039-0.251 0.078-0.338 0.129-0.117 0.054-0.223 0.135-0.339 0.193-0.083 0.075-0.173 0.161-0.185 0.161-0.12 0.168-0.123 0.102-0.123 0.225 0.006 0.164 0.042 0.25 0.062 0.418z"></path>
<path fill="#bcbcbc" d="M26.779 8.483c-0.007 0-0.072 0.045-0.131 0.091-0.096 0.051-0.198 0.138-0.261 0.182-0.050 0.040-0.050 0.057-0.109 0.068 0.104-0.015 0.15-0.041 0.239-0.091 0.113-0.014 0.223-0.038 0.283-0.091 0.057-0.020-0.004-0.111-0.022-0.159zM27.781 7.413c0.012 0 0.038 0.071 0.087 0.114 0.031 0.087 0.060 0.149 0.065 0.25 0.027-0.111 0.072-0.201 0.087-0.319-0.034-0.060-0.036-0.088-0.131-0.091 0 0.061 0.007 0.021-0.109 0.045z"></path>
<path fill="#c4c4c2" d="M27.169 8.215c-0.049 0 0.086-0.050 0.131-0.068 0.036-0.079 0.064-0.134 0.131-0.181 0.109 0.009 0.163 0.041 0.218 0.113 0.092 0.026 0.125 0.072 0.24 0.091 0.043 0.038 0.101 0.042 0 0.068-0.068 0.038-0.154 0.045-0.261 0.045-0.112 0.008-0.193 0.034-0.262 0.068-0.146 0-0.123 0.005-0.196-0.136z"></path>
<path fill="#bcbcbc" d="M28.172 7.436v0.023c0-0.061-0.001-0.030 0.022 0.091 0.036 0.076 0.044 0.158 0.044 0.273 0.057-0.043 0.105-0.128 0.131-0.205 0-0.18-0.024-0.169-0.196-0.182zM28.977 10.053h0.022c-0.064 0-0.028 0.004 0.087-0.068 0.074-0.052 0.135-0.129 0.239-0.159 0.101-0.083 0.178-0.121 0.283-0.159 0.051-0.024 0.096-0.067 0.152-0.023-0.016 0.112-0.035 0.155-0.131 0.205-0.049 0.065-0.127 0.103-0.196 0.137-0.071 0.033-0.149 0.034-0.174 0.114-0.118 0.054-0.133 0.045-0.283-0.046zM29.391 10.713c0.039-0.031 0.175-0.173 0.239-0.227 0.073-0.1 0.146-0.177 0.218-0.228 0.063-0.098 0.145-0.163 0.196-0.25 0.060-0.076 0.105-0.141 0.174-0.227 0 0.099-0.009 0.231 0.022 0.296 0 0.137-0.015 0.175-0.065 0.273-0.049 0.081-0.086 0.134-0.196 0.182-0.099 0.055-0.158 0.074-0.239 0.136-0.062 0.040-0.126 0.079-0.196 0.114-0.062 0.028-0.034 0.016-0.152-0.068zM28.716 11.236h0.022c-0.064 0-0.028 0.004 0.087-0.068 0.093-0.097 0.167-0.131 0.283-0.182 0.088-0.007 0.195-0.030 0.261-0.068 0.053-0.010 0.089-0.043 0.131 0 0.068 0.097 0.087 0.124-0.022 0.182-0.052 0.046-0.144 0.093-0.217 0.114-0.054 0.047-0.162 0.050-0.261 0.068-0.089 0-0.138 0.010-0.174-0.046l0.174 0.045c-0.089 0-0.138 0.010-0.283-0.046zM29.652 11.236v-0.023c0 0.064-0.003 0.030 0.044-0.091 0.082-0.127 0.112-0.198 0.218-0.228 0.049-0.062 0.135-0.079 0.239-0.114 0.039 0.068 0.009 0.148 0 0.228-0.028 0.085-0.106 0.145-0.152 0.205-0.068 0.048-0.096 0.095-0.196 0.114-0.083 0-0.039-0.002-0.152-0.091z"></path>
<path fill="#000" d="M27.519 8.277c0 0.063-0.049 0.114-0.109 0.114s-0.109-0.051-0.109-0.114c0-0.063 0.049-0.114 0.109-0.114s0.109 0.051 0.109 0.114z"></path>
<path fill="#005120" opacity="0.992016" d="M27.843 14.477h0.087c-0.273 0-0.11-0.019 0.349 0.363 0.192-0.167 0.19-0.189 0.349 0.091 0.092 0.159 0.119-0.016 0.261-0.181 0.069 0.33 0.113 0.675 0.349 0.363 0.269 0 0.552-0.023 0.698 0.091 0.177 0.341 0.119-0.058 0.262 0.091 0.384 0.048 0.377-0.343 0.795-0.444 0.26 0.338 0.374 0.078 0.698-0.091 0.241 0.070 0.467 0.45 0.513 0.081 0.197-0.334 0.214-0.306 0.349 0 0.191 0.179 0.272-0.090 0.436-0.181 0.292 0.178 0.617 0.202 1.046 0.091 0.073 0.302 0.256 0.171 0.436 0.091 0.386 0.169 0.52 0.22 0.959 0 0.217-0.267 0.094 0.008 0.261 0.181 0.325-0.105 0.236-0.127 0.611-0.091 0.377 0 0.407-0.010 0.523-0.272 0.189 0.197 0.258 0.339 0.523 0.091 0.407 0.012 0.281 0.053 0.523-0.091 0.179 0.413 0.221 0.115 0.436 0.272-0.141 0.373-0.358 0.548-0.611 0.726-0.168 0.289-0.273 0.601-0.611 0.726-0.246 0.262-0.509 0.413-0.785 0.635-0.378 0.098-0.794 0.091-1.221 0.091h-3.663c-0.26 0.136-0.687 0.2-1.047 0.272-0.402 0-0.858 0.005-1.134-0.091-0.187-0.194-0.515-0.412-0.698-0.635-0.185-0.155-0.19-0.458-0.349-0.635-0.146-0.26-0.191-0.666-0.349-0.908v-0.635z"></path>
<path fill="#005120" opacity="0.992016" d="M36.302 15.294v0.091c0-0.254 0.011-0.119-0.174 0.363-0.038 0.117-0.12 0.144-0.262 0.181M35.518 15.657h0.087c-0.323 0.317-0.54 0.464-0.611 0.817l0.611-0.817c-0.323 0.317-0.54 0.464-0.611 0.817M34.296 15.204c0 0.008-0.012 0.324-0.087 0.454M33.948 15.838v0zM33.25 15.294v0c0.029 0 0.058 0 0 0z"></path>
<path fill="#fff" d="M27.574 15.956c-1.047 0-1.394 1.094-2.441 1.094-0.020 0-0.039-0.002-0.059-0.002v0.066c-0.004 0.758 0.056 1.465 0.164 2.124 0.966-0.071 1.324-1.094 2.335-1.094 1.047 0 1.396 1.096 2.443 1.096s1.396-1.096 2.443-1.096 1.396 1.096 2.443 1.096 1.396-1.096 2.443-1.096c1.008 0 1.368 1.016 2.328 1.092 0.115-0.677 0.176-1.405 0.172-2.186v-0.002c-0.020 0.001-0.039 0.002-0.059 0.002-1.047 0-1.394-1.094-2.441-1.094s-1.396 1.094-2.443 1.094-1.396-1.094-2.443-1.094-1.396 1.094-2.443 1.094-1.396-1.094-2.443-1.094zM27.574 20.227c-0.814 0-1.206 0.66-1.832 0.954 0.235 0.64 0.497 1.186 0.803 1.702l-0.026-0.047c0.297-0.225 0.613-0.419 1.055-0.419 1.046-0.001 1.396 1.093 2.443 1.093s1.396-1.094 2.443-1.094c1.047 0 1.396 1.094 2.443 1.094s1.396-1.094 2.443-1.094c0.431 0 0.743 0.186 1.035 0.405 0.281-0.467 0.543-1.011 0.757-1.578l0.023-0.070c-0.616-0.298-1.008-0.947-1.815-0.947-1.047 0-1.396 1.094-2.443 1.094s-1.396-1.094-2.443-1.094c-1.047 0-1.396 1.094-2.443 1.094s-1.396-1.094-2.443-1.094zM32.46 24.497c-1.047 0-1.396 1.097-2.443 1.097-0.99 0-1.356-0.98-2.279-1.087 1.233 1.373 2.631 2.205 3.584 2.661 0.322-0.25 0.656 0.304 1.138 0.304 0.479 0 0.811-0.557 1.131-0.309 0.943-0.459 2.324-1.292 3.549-2.652-0.892 0.13-1.262 1.082-2.237 1.082-1.047 0-1.396-1.096-2.443-1.096z"></path>
<path fill="#dd8b59" d="M32.147 23.472c0-0.030 0.086-7.461 0.086-7.461s0.257-0.030 0.257 0-0.029 7.432-0.057 7.461-0.315 0.059-0.286 0zM34.949 16.337c0 0.060-0.057 6.272-0.057 6.272l-0.2 0.238 0.057-6.51h0.2z"></path>
<path fill="#dd8b59" d="M28.975 22.253s0.286 3.062 3.573 2.973 4.202-3.092 4.202-3.092-1.401-0.060-1.429-0.060c-0.029 0-1.143 1.427-2.572 1.397s-1.887-0.387-2.201-0.684c-0.314-0.297-0.6-0.743-0.6-0.743l-1.658-0.684 0.086 0.654 0.6 0.238zM37.849 21.934c-0.029-0.089-0.099-0.395-0.099-0.395v-0.357l0.158-0.361s-2.487 0.37-2.487 0.4c0-0.034-0.015 0.704-0.015 0.704l2.443 0.009z"></path>
<path fill="#dd8b59" d="M29.975 22.045c0.029-0.178 0.029-5.559 0.029-5.559l-0.172-0.030-0.029 5.499 0.172 0.089zM25.887 20.291l2.172 1.1-0.057 0.149s-2.087-1.011-2.087-1.040c0-0.030 0.029-0.149-0.029-0.208z"></path>
<path fill="#dd8b59" d="M26.888 19.964c0 0.089 0.314 1.902 0.314 1.902s0.2 0.030 0.2 0-0.343-1.873-0.343-1.873l-0.171-0.030zM28.889 20.023c0.114 0 2.058-0.327 2.058-0.327l-0.029 0.327-1.915 0.208-0.114-0.208z"></path>
<path fill="#fecf3e" d="M29.175 17.556c0.057 0 0.686 0.327 0.943 0.238s0.086-0.297 0.143-0.297c0.057 0 0.257 0.148 0.372 0.030s0.2-0.476 0.143-0.446c-0.057 0.030-1.572 0.594-1.601 0.476z"></path>
<path fill="#dd8b59" d="M28.918 18.299c0.114 0.030 2.344-0.624 2.344-0.624s0 0.208-0.029 0.208-2.315 0.624-2.315 0.624v-0.208z"></path>
<path fill="#fecf3e" d="M34.091 17.378s0.143 0.357 0.286 0.297 0.286-0.178 0.286-0.178 0.114 0.297 0.314 0.238c0.2-0.059 0.315-0.387 0.315-0.387s0.2 0.060 0.286 0.030c0.086-0.030 0.2-0.505 0.2-0.505l-1.686 0.505zM33.919 20.261c-0.029 0.059 0.143 0.208 0.286 0.208s0.2-0.208 0.229-0.149c0.029 0.060 0.029 0.327 0.4 0.238s0.372-0.357 0.372-0.357-0.114 0.089 0.143 0.119c0.257 0.030 0.514-0.386 0.486-0.386s-1.858 0.357-1.915 0.327z"></path>
<path fill="#dd8b59" d="M29.004 17.437c-0.029 0.119 0.029 0.268 0.029 0.268l1.858-0.654s0.086-0.149 0-0.149-1.915 0.595-1.886 0.535zM31.462 17.021c0.057 0 1.915-0.624 1.915-0.624s0.029 0.268 0 0.268-1.743 0.535-1.743 0.535l-0.172-0.178z"></path>
<path fill="#fecf3e" d="M33.919 18.33s-0.286 0.327-0.2 0.773c0.086 0.446 0.2 0.832 0.229 0.832s0.343-0.595 0.686-0.624 0.972 0.327 0.972 0.327-0.086-0.713-0.057-1.040c0.029-0.327 0.514-0.892 0.514-0.892l-2.144 0.624z"></path>
<path fill="#dd8b59" d="M31.318 17.794s-0.057 0.268-0.029 0.268 2.43-0.654 2.43-0.654v-0.178l-2.401 0.565z"></path>
<path fill="#b6b6b4" opacity="0.996" d="M28.232 21.391s-0.572-0.089-0.543 0.059c0.029 0.149 0.286 0.297 0.314 0.387s-0.086 0.416 0.086 0.387c0.172-0.030 0.343-0.149 0.343-0.238s-0.029-0.505-0.029-0.505l-0.172-0.089z"></path>
<path fill="#dd8b59" d="M31.404 19.904v0.208l2.058-0.297-0.057-0.149-2.001 0.238z"></path>
<path fill="#fecf3e" d="M28.975 20.261c0.029 0 0 0.268 0.229 0.208s0.286-0.208 0.286-0.208 0.057 0.327 0.372 0.297c0.314-0.030 0.486-0.387 0.486-0.387s0.029 0.268 0.229 0.178 0.257-0.297 0.257-0.297l-1.801 0.268-0.057-0.059zM28.975 18.508s-0.257 0.089-0.172 0.624 0.286 0.832 0.314 0.832c0.029 0 0.257-0.505 0.6-0.595s0.943 0.268 0.943 0.268-0.057-0.476 0.029-0.921c0.086-0.446 0.372-0.773 0.372-0.773s-2.001 0.565-2.087 0.565z"></path>
<path fill="#dd8b59" d="M33.777 20.053l0.029 0.178s2.058-0.268 2.058-0.297c0-0.030 0-0.208-0.029-0.208s-2.030 0.357-2.058 0.327zM33.748 18.151l0.029 0.208 2.43-0.684s0.057-0.178 0.029-0.178-2.43 0.743-2.487 0.654z"></path>
<path fill="#fecf3e" d="M31.519 17.111c0.114 0.030 0.314 0.327 0.429 0.268s0.286-0.238 0.286-0.238-0.029 0.357 0.2 0.297c0.229-0.059 0.257-0.297 0.257-0.297s0.172 0.089 0.314 0c0.143-0.089 0.286-0.535 0.229-0.535s-1.658 0.535-1.715 0.505zM31.462 17.973c0 0.059-0.286 0.535-0.2 0.981s0.257 0.862 0.286 0.862 0.457-0.476 0.829-0.565c0.371-0.089 0.914 0.297 0.886 0.297s-0.143-0.446-0.143-0.773c0-0.327 0.429-1.338 0.429-1.338l-2.087 0.535zM31.462 20.113c0 0.030 0.086 0.238 0.286 0.238s0.229-0.208 0.229-0.208-0.029 0.357 0.286 0.327c0.314-0.030 0.429-0.357 0.429-0.357s0.029 0.178 0.286 0.089c0.257-0.089 0.6-0.387 0.572-0.387s-2.058 0.387-2.087 0.297z"></path>
<path fill="#000" d="M31.707 18.977c0.084 0.003 0.149 0.077 0.146 0.165s-0.074 0.156-0.158 0.153v0c-0.084-0.003-0.149-0.077-0.146-0.165s0.074-0.156 0.158-0.153v0z"></path>
<path fill="#000" d="M32.739 18.7c0.084 0.003 0.149 0.077 0.146 0.165s-0.074 0.156-0.158 0.153v0c-0.084-0.003-0.149-0.077-0.146-0.165s0.074-0.156 0.158-0.153v0z"></path>
<path fill="#000" d="M32.223 19.272c0.084 0.003 0.149 0.077 0.146 0.165s-0.074 0.156-0.158 0.153v0c-0.084-0.003-0.149-0.077-0.146-0.165s0.074-0.156 0.158-0.153v0z"></path>
<path fill="#be0f17" opacity="0.996" d="M32.223 18.404c0.084 0.003 0.149 0.077 0.146 0.165s-0.074 0.156-0.158 0.153v0c-0.084-0.003-0.149-0.077-0.146-0.165s0.074-0.156 0.158-0.153v0z"></path>
<path fill="#000" d="M30.847 23.408c0 0.123-0.096 0.223-0.214 0.223s-0.214-0.1-0.214-0.223v0c0-0.123 0.096-0.223 0.214-0.223s0.214 0.1 0.214 0.223v0zM31.904 23.884c0 0.107-0.083 0.193-0.186 0.193s-0.186-0.087-0.186-0.193v0c0-0.107 0.083-0.193 0.186-0.193s0.186 0.087 0.186 0.193v0zM33.248 24.003c0 0.107-0.083 0.193-0.186 0.193s-0.186-0.087-0.186-0.193v0c0-0.107 0.083-0.193 0.186-0.193s0.186 0.087 0.186 0.193v0zM34.42 23.542c0 0.098-0.070 0.178-0.157 0.178s-0.157-0.080-0.157-0.178c0-0.098 0.070-0.178 0.157-0.178s0.157 0.080 0.157 0.178zM35.363 22.962c0 0.090-0.083 0.164-0.186 0.164s-0.186-0.073-0.186-0.164c0-0.090 0.083-0.164 0.186-0.164s0.186 0.073 0.186 0.164z"></path>
<path fill="#f00" opacity="0.996" d="M29.818 16.586c-0.086 0.060-1.515 0.416-1.315 0.387s1.343 0.297 1.315 0.208 0-0.535 0-0.595zM32.247 16.14c-0.057 0-0.886 0.327-0.857 0.327s0.943 0.268 0.915 0.208c-0.029-0.059-0.029-0.446-0.057-0.535zM34.734 16.438c-0.057 0.030-1.029 0.268-0.857 0.297s0.829 0.268 0.829 0.208c0-0.060 0-0.476 0.029-0.505z"></path>
<path fill="#dd8b59" d="M35.206 22.075l2.715 0.060 0.029-0.208-2.801-0.030 0.057 0.178zM35.321 21.331c0.314 0 2.687-0.476 2.687-0.476s0.086-0.297 0-0.297-2.687 0.565-2.687 0.565v0.208z"></path>
<path fill="#000" d="M32.223 18.838c0.084 0.003 0.149 0.077 0.146 0.165s-0.074 0.156-0.158 0.153v0c-0.084-0.003-0.149-0.077-0.146-0.165s0.074-0.156 0.158-0.153v0z"></path>
</svg>
