<!-- Generated by IcoMoon.io -->
<svg version="1.1" xmlns="http://www.w3.org/2000/svg" width="43" height="32" viewBox="0 0 43 32">
<title>GBP</title>
<path fill="#006" d="M-10.709 0h64.172v32.086h-64.172z"></path>
<path fill="#fff" d="M-10.709 0v3.587l56.998 28.499h7.174v-3.587l-56.998-28.499h-7.174zM53.463 0v3.587l-56.998 28.499h-7.174v-3.587l56.998-28.499h7.174z"></path>
<path fill="#fff" d="M16.029 0v32.086h10.695v-32.086h-10.695zM-10.709 10.695v10.695h64.172v-10.695h-64.172z"></path>
<path fill="#c00" d="M-10.709 12.834v6.417h64.172v-6.417h-64.172zM18.168 0v32.086h6.417v-32.086h-6.417zM-10.709 32.086l21.391-10.695h4.783l-21.391 10.695h-4.783zM-10.709 0l21.391 10.695h-4.783l-16.608-8.304v-2.392zM27.289 10.695l21.391-10.695h4.783l-21.391 10.695h-4.783zM53.463 32.086l-21.391-10.695h4.783l16.608 8.304v2.392z"></path>
</svg>
