<!-- Generated by IcoMoon.io -->
<svg version="1.1" xmlns="http://www.w3.org/2000/svg" width="43" height="32" viewBox="0 0 43 32">
<title>GEL</title>
<path fill="#fff" d="M0 0h42.667v32h-42.667z"></path>
<path fill="#f00" d="M18.133 0h6.4v32h-6.4z"></path>
<path fill="#f00" d="M0 12.8h42.667v6.4h-42.667z"></path>
<path fill="#f00" d="M9.79 24.877c0.068-1.122 0.265-2.077 0.265-2.077s-0.656 0.067-0.988 0.067c-0.327 0-0.988-0.067-0.988-0.067s0.196 0.955 0.265 2.077c-1.122-0.068-2.077-0.265-2.077-0.265s0.067 0.494 0.067 0.988c0 0.494-0.067 0.988-0.067 0.988s0.955-0.196 2.077-0.265c-0.068 1.122-0.265 2.077-0.265 2.077s0.494-0.067 0.988-0.067c0.494 0 0.988 0.067 0.988 0.067s-0.196-0.955-0.265-2.077c1.121 0.068 2.077 0.265 2.077 0.265s-0.067-0.656-0.067-0.988c0-0.327 0.067-0.988 0.067-0.988s-0.955 0.196-2.077 0.265zM34.323 5.677c0.068-1.122 0.265-2.077 0.265-2.077s-0.656 0.067-0.988 0.067c-0.327 0-0.988-0.067-0.988-0.067s0.196 0.955 0.265 2.077c-1.122-0.068-2.077-0.265-2.077-0.265s0.067 0.494 0.067 0.988c0 0.494-0.067 0.988-0.067 0.988s0.955-0.196 2.077-0.265c-0.068 1.122-0.265 2.077-0.265 2.077s0.494-0.067 0.988-0.067c0.494 0 0.988 0.067 0.988 0.067s-0.196-0.955-0.265-2.077c1.122 0.068 2.077 0.265 2.077 0.265s-0.067-0.656-0.067-0.988c0-0.327 0.067-0.988 0.067-0.988s-0.955 0.196-2.077 0.265zM9.79 5.677c0.068-1.122 0.265-2.077 0.265-2.077s-0.656 0.067-0.988 0.067c-0.327 0-0.988-0.067-0.988-0.067s0.196 0.955 0.265 2.077c-1.122-0.068-2.077-0.265-2.077-0.265s0.067 0.494 0.067 0.988c0 0.494-0.067 0.988-0.067 0.988s0.955-0.196 2.077-0.265c-0.068 1.122-0.265 2.077-0.265 2.077s0.494-0.067 0.988-0.067c0.494 0 0.988 0.067 0.988 0.067s-0.196-0.955-0.265-2.077c1.121 0.068 2.077 0.265 2.077 0.265s-0.067-0.656-0.067-0.988c0-0.327 0.067-0.988 0.067-0.988s-0.955 0.196-2.077 0.265zM34.323 24.877c0.068-1.122 0.265-2.077 0.265-2.077s-0.656 0.067-0.988 0.067c-0.327 0-0.988-0.067-0.988-0.067s0.196 0.955 0.265 2.077c-1.122-0.068-2.077-0.265-2.077-0.265s0.067 0.494 0.067 0.988c0 0.494-0.067 0.988-0.067 0.988s0.955-0.196 2.077-0.265c-0.068 1.122-0.265 2.077-0.265 2.077s0.494-0.067 0.988-0.067c0.494 0 0.988 0.067 0.988 0.067s-0.196-0.955-0.265-2.077c1.122 0.068 2.077 0.265 2.077 0.265s-0.067-0.656-0.067-0.988c0-0.327 0.067-0.988 0.067-0.988s-0.955 0.196-2.077 0.265z"></path>
</svg>
