<!-- Generated by IcoMoon.io -->
<svg version="1.1" xmlns="http://www.w3.org/2000/svg" width="43" height="32" viewBox="0 0 43 32">
<title>GIP</title>
<path fill="#da000c" d="M0 0h42.667v32h-42.667z"></path>
<path fill="#fff" d="M0 0h42.667v21.438h-42.667z"></path>
<path fill="#000" d="M13.905 14.538h8v5.499h-8z"></path>
<path fill="#da000c" d="M18.061 19.233h-4.884l-1.082 0.712v0.755h5.966M16.017 16.074c0.703 0 1.277 0.586 1.277 1.309v1.848h0.918v-7h-5.035v7h1.563v-1.848c0-0.694 0.564-1.309 1.277-1.309z"></path>
<path fill="#000" d="M14.899 7.495h2.315v4.245h-2.315z"></path>
<path fill="#da000c" d="M17.208 11.082h-2.026v-0.719h-1.486v0.719h-1.008v-0.719h-0.602v1.305h5.121M12.689 11.663h4.371v0.567h-4.371zM14.423 5.953v4.41h0.759v-1.211c0-0.454 0.32-0.825 0.768-0.848 0.014-0.001 0.028 0 0.043 0 0 0 0 0 0 0 0.468 0 0.848 0.379 0.848 0.848v1.211h0.723v-4.41zM14.15 5.356v0.598h3.656v-0.598zM13.681 4.211v1.144h4.387v-1.145h-0.676v0.582h-0.817v-0.582h-1.246v0.582h-0.816v-0.582zM12.095 19.945h5.989M21.958 19.602h-4.055l-1.223 0.59v0.879h5.277"></path>
<path fill="#da000c" d="M16.68 20.19h5.404"></path>
<path fill="#000" d="M28.762 14.538h-8v5.499h8z"></path>
<path fill="#da000c" d="M24.606 19.233h4.884l1.082 0.712v0.755h-5.966M26.65 16.074c-0.703 0-1.277 0.586-1.277 1.309v1.848h-0.918v-7h5.035v7h-1.563v-1.848c0-0.694-0.564-1.309-1.277-1.309z"></path>
<path fill="#000" d="M27.767 7.495h-2.315v4.245h2.315z"></path>
<path fill="#da000c" d="M25.458 11.082h2.026v-0.719h1.486v0.719h1.008v-0.719h0.602v1.305h-5.121M29.978 11.663h-4.371v0.567h4.371zM28.243 5.953v4.41h-0.759v-1.211c0-0.454-0.32-0.825-0.768-0.848-0.014-0.001-0.028 0-0.043 0-0 0-0 0-0 0-0.468 0-0.848 0.379-0.848 0.848v1.211h-0.723v-4.41zM28.517 5.356v0.598h-3.656v-0.598zM28.986 4.211v1.144h-4.387v-1.145h0.676v0.582h0.817v-0.582h1.246v0.582h0.816v-0.582zM30.572 19.945h-5.989M20.708 19.602h4.055l1.223 0.59v0.879h-5.277"></path>
<path fill="#da000c" d="M25.987 20.19h-5.404"></path>
<path fill="#f8d80e" d="M23.495 18.754c-0.332 0.11-0.632 0.296-0.934 0.469-0.387 0.229-0.763 0.478-1.113 0.762-0.123 0.081-0.241 0.17-0.336 0.284-0.128 0.11-0.258 0.257-0.233 0.439 0.006 0.080 0.109-0.095 0.177-0.103 0.078-0.045 0.172-0.072 0.272-0.072 0.043 0 0.084 0.005 0.124 0.014l-0.004-0.001c0.159-0.168 0.364-0.28 0.541-0.426 0.375-0.28 0.779-0.521 1.191-0.745 0.143-0.074 0.288-0.148 0.441-0.2l-0.125-0.422z"></path>
<path fill="#f8d80e" d="M21.883 19.674v0.489M22.185 19.461v0.485M22.487 19.273v0.482M22.79 19.087v0.497"></path>
<path fill="#f8d80e" d="M19.195 18.77l-0.148 0.414c0.692 0.262 1.351 0.61 1.975 1.008 0.212 0.144 0.433 0.283 0.6 0.481 0.037 0.101-0.064 0.186-0.164 0.155-0.091-0.031-0.182-0.067-0.278-0.001-0.138 0.063-0.263 0.267-0.053 0.336 0.29 0.195 0.76 0.11 0.899-0.23 0.073-0.175 0.077-0.399-0.064-0.543-0.258-0.296-0.6-0.501-0.927-0.709-0.586-0.352-1.197-0.672-1.838-0.911z"></path>
<path fill="#f8d80e" d="M21.090 19.754l-0.039 0.418M21.437 19.968l-0.108 0.409M21.809 20.252l-0.226 0.317M21.923 21.023l-0.326-0.175M22.024 20.679l-0.374 0.035M21.541 21.221l-0.026-0.329M21.404 20.845l-0.309 0.228M19.918 19.117v0.389M20.704 19.53v0.442M20.311 19.324v0.415"></path>
<path fill="#f8d80e" d="M18.806 28.445v1.004h0.629v-0.504h0.855v0.504h0.676v-1.004zM18.806 29.828v1.008h2.16v-1.008h-0.676v0.504h-0.855v-0.504z"></path>
<path fill="#f8d80e" d="M20.965 24.206h0.624v7.265h-0.624z"></path>
<path fill="#f8d80e" d="M20.965 24.835h0.624v6.258h-0.624z"></path>
<path fill="#f8d80e" d="M21.277 22.426l1.328 0.773-1.328 0.77-1.328-0.77zM19.499 22.922h-0.348v0.555h0.348l1.777 1.031 1.777-1.031h0.348v-0.555h-0.348l-1.777-1.031z"></path>
<path fill="#f8d80e" d="M21.251 20.535c-0.302 0.043-0.528 0.341-0.512 0.642 0.001 0.467-0.002 0.934 0.002 1.402 0.016 0.301 0.279 0.571 0.584 0.573 0.248 0.023 0.497-0.122 0.601-0.348l-0.215-0.129c-0.055 0.148-0.215 0.24-0.371 0.223-0.204 0.006-0.37-0.193-0.352-0.392 0.001-0.464-0.003-0.928 0.002-1.393 0.011-0.189 0.192-0.344 0.381-0.325 0.078-0.023 0.186 0.084 0.234-0.008 0.073-0.104-0.052-0.185-0.121-0.242-0.077-0.011-0.157-0.001-0.234-0.004zM21.974 21.023c-0.049 0.093-0.152 0.149-0.234 0.198v0.939l0.25 0.145c-0.001-0.401 0.002-0.801-0.001-1.201-0.004-0.025-0.001-0.063-0.014-0.080z"></path>
<path fill="#000" d="M19.434 4.794h3.666v6.657h-3.666z"></path>
<path fill="#da000c" d="M19.177 4.797v5.57h1.164v-1.652c0-0.381 0.244-0.91 0.992-0.91s0.992 0.529 0.992 0.91v1.652h1.164v-5.571zM21.154 5.422h0.359v1.906h-0.359zM20.122 5.797h0.363v1.394h-0.363zM22.181 5.797h0.363v1.394h-0.363zM18.783 3.996v0.793h5.101v-0.793zM18.302 3.074v0.922h6.063v-0.922h-0.762v0.508h-0.859v-0.508h-0.98v0.508h-0.859v-0.508h-0.98v0.508h-0.86v-0.508zM17.177 12.23v0.574h8.313v-0.574z"></path>
<path fill="#da000c" d="M16.837 10.363v1.867h8.992v-1.867h-0.852v0.719h-1.133v-0.719h-1.52v0.719h-1.984v-0.719h-1.52v0.719h-1.133v-0.719z"></path>
<path fill="#da000c" d="M17.919 12.805v6.793h1.605v-2.543c0-1.198 0.8-1.762 1.809-1.762 0.97 0 1.809 0.564 1.809 1.762v2.543h1.605v-6.793z"></path>
</svg>
