<!-- Generated by IcoMoon.io -->
<svg version="1.1" xmlns="http://www.w3.org/2000/svg" width="43" height="32" viewBox="0 0 43 32">
<title>GTQ</title>
<path fill="#4997d0" d="M0 0h42.667v32h-42.667z"></path>
<path fill="#fff" d="M14.222 0h14.222v32h-14.222z"></path>
<path fill="#406325" d="M21.605 19.775c-0.035-0.056-0.094-0.090-0.146-0.118-0.343-0.18-0.685-0.26-1.072-0.322-0.089-0.015-0.179-0.099-0.271-0.142-0.221-0.105-0.466-0.146-0.68-0.253-0.015-0.006-0.069-0.039-0.094-0.069-0.085-0.099-0.239-0.129-0.335-0.221-0.37-0.35-0.764-0.672-0.968-1.135-0.248-0.564-0.556-1.146-0.514-1.788 0.027-0.406-0.033-0.816 0.067-1.202 0.148-0.573 0.337-1.14 0.685-1.614l-0.058 0.036c-0.35 0.474-0.539 1.041-0.687 1.614-0.1 0.386-0.040 0.796-0.067 1.202-0.042 0.642 0.267 1.223 0.514 1.79 0.204 0.461 0.599 0.783 0.968 1.135 0.096 0.090 0.25 0.12 0.335 0.221 0.025 0.028 0.081 0.062 0.094 0.069 0.214 0.107 0.46 0.148 0.681 0.251 0.092 0.045 0.181 0.127 0.271 0.142 0.387 0.062 0.728 0.144 1.072 0.322 0.054 0.028 0.11 0.062 0.146 0.118l0.060-0.036"></path>
<path fill="#67923d" d="M18.060 17.405c-0.124-0.28-0.061-0.96-0.009-1.046 0.295 0.578 0.197 1.055 0.009 1.046zM20.098 19.423c-0.315 0.016-0.916 0.413-0.972 0.506 0.67 0.005 1.068-0.325 0.972-0.506zM20.429 19.232c-0.304-0.242-0.631-1.052-0.624-1.178 0.672 0.481 0.842 1.079 0.624 1.178z"></path>
<path fill="#67923d" d="M20.205 19.235c-0.309-0.188-0.702-0.894-0.708-1.011 0.676 0.364 0.898 0.895 0.708 1.011zM19.513 18.933c0.044-0.348-0.252-1.077-0.337-1.155-0.131 0.732 0.133 1.226 0.337 1.155zM18.3 17.854c-0.102-0.251-0.027-0.859 0.021-0.933 0.245 0.52 0.145 0.943-0.021 0.933zM17.69 14.44c0.16-0.295 0.817-0.698 0.933-0.708-0.301 0.647-0.802 0.881-0.933 0.708z"></path>
<path fill="#67923d" d="M17.722 14.193c0.095-0.324 0.661-0.856 0.772-0.89-0.166 0.697-0.608 1.030-0.772 0.89zM18.958 18.599c-0.222-0.274-0.356-1.061-0.324-1.172 0.501 0.556 0.535 1.121 0.324 1.172zM17.685 16.979c-0.307 0.048-0.949-0.206-1.019-0.282 0.646-0.14 1.079 0.092 1.019 0.282zM17.586 16.549c0.037-0.248 0.385-0.703 0.46-0.74-0.049 0.531-0.331 0.827-0.46 0.74zM19.867 19.15c-0.377 0.019-1.095 0.494-1.161 0.605 0.801 0.006 1.276-0.388 1.161-0.605z"></path>
<path fill="#406325" d="M18.063 17.399c0.188 0.009 0.285-0.462-0.012-1.039 0.054 0.548 0.054 0.992 0.012 1.039zM18.56 18.287c-0.199-0.243-0.861-0.503-0.965-0.495 0.395 0.537 0.884 0.671 0.965 0.495zM17.474 15.932c-0.051-0.357-0.548-1.009-0.655-1.065 0.067 0.763 0.469 1.187 0.655 1.065zM17.847 17.457c-0.222-0.164-0.843-0.238-0.931-0.21 0.451 0.369 0.898 0.376 0.931 0.21zM17.431 16.353c-0.128-0.253-0.658-0.599-0.751-0.609 0.245 0.55 0.647 0.753 0.751 0.609zM17.553 14.24c0.040-0.337-0.246-1.042-0.326-1.118-0.127 0.708 0.13 1.185 0.326 1.118zM17.751 13.577c0.118-0.289 0.034-0.997-0.023-1.085-0.285 0.6-0.17 1.095 0.023 1.085z"></path>
<path fill="#406325" d="M17.974 13.237c0.139-0.212 0.185-0.786 0.155-0.865-0.322 0.432-0.309 0.842-0.155 0.865zM18.239 12.964c0.196-0.155 0.41-0.689 0.404-0.775-0.433 0.309-0.543 0.704-0.404 0.775zM17.525 14.884c0.005 0.039-0.043-0.364-0.447-0.814 0.018 0.659 0.278 0.908 0.447 0.814zM18.973 18.697c-0.274-0.203-1.039-0.299-1.145-0.263 0.558 0.46 1.106 0.469 1.145 0.263zM19.509 18.929c-0.202 0.071-0.464-0.419-0.335-1.15 0.125 0.62 0.275 1.114 0.335 1.15zM20.1 19.425c0.094 0.181-0.298 0.508-0.968 0.503 0.531-0.217 0.944-0.438 0.968-0.503zM20.429 19.226c0.216-0.1 0.049-0.691-0.623-1.172 0.382 0.587 0.642 1.094 0.623 1.172z"></path>
<path fill="#406325" d="M20.203 19.23c0.19-0.119-0.031-0.642-0.706-1.006 0.418 0.497 0.715 0.932 0.706 1.006zM18.301 17.853c0.166 0.010 0.265-0.412 0.021-0.93 0.032 0.488 0.019 0.888-0.021 0.93zM17.69 14.442c0.131 0.173 0.625-0.058 0.926-0.708-0.452 0.415-0.854 0.714-0.926 0.708z"></path>
<path fill="#406325" d="M17.727 14.193c0.164 0.14 0.602-0.191 0.768-0.888-0.36 0.5-0.695 0.877-0.768 0.888zM18.959 18.597c0.211-0.050 0.176-0.613-0.322-1.168 0.223 0.596 0.356 1.1 0.322 1.168zM17.676 16.976c0.063-0.188-0.369-0.416-1.013-0.278 0.545 0.098 0.98 0.224 1.013 0.278zM17.59 16.549c0.129 0.084 0.408-0.207 0.457-0.739-0.208 0.408-0.407 0.723-0.457 0.739zM19.865 19.157c0.114 0.217-0.354 0.607-1.157 0.601 0.635-0.26 1.128-0.524 1.157-0.601z"></path>
<path fill="#406325" d="M17.749 17.169c-0.118-0.278-0.658-0.687-0.755-0.704 0.22 0.606 0.633 0.851 0.755 0.704z"></path>
<path fill="#67923d" d="M17.441 14.841c0.181-0.207 0.776-0.406 0.871-0.394-0.357 0.463-0.797 0.556-0.871 0.394zM18.555 18.289c-0.080 0.174-0.564 0.041-0.962-0.496 0.484 0.304 0.9 0.512 0.962 0.496zM17.471 15.932c-0.186 0.121-0.583-0.299-0.653-1.062 0.294 0.587 0.579 1.039 0.653 1.062zM17.845 17.458c-0.034 0.166-0.475 0.16-0.927-0.21 0.477 0.151 0.877 0.237 0.927 0.21zM17.425 16.349c-0.104 0.144-0.502-0.056-0.747-0.607 0.364 0.354 0.689 0.611 0.747 0.607zM17.548 14.236c-0.197 0.069-0.452-0.404-0.324-1.111 0.119 0.599 0.264 1.074 0.324 1.111zM17.747 13.575c-0.191 0.010-0.305-0.481-0.021-1.081-0.037 0.569-0.023 1.033 0.021 1.081zM17.971 13.234c-0.154-0.023-0.165-0.429 0.156-0.861-0.122 0.443-0.184 0.816-0.156 0.861zM18.237 12.964c-0.139-0.073-0.031-0.464 0.402-0.771-0.246 0.384-0.414 0.719-0.402 0.771z"></path>
<path fill="#67923d" d="M17.522 14.884c-0.169 0.094-0.426-0.156-0.444-0.814 0.227 0.519 0.382 0.791 0.444 0.814zM18.97 18.698c-0.039 0.206-0.584 0.196-1.141-0.262 0.585 0.19 1.078 0.297 1.141 0.262zM18.607 18.277c-0.179-0.193-0.318-0.771-0.3-0.855 0.401 0.389 0.454 0.807 0.3 0.855zM17.857 17.166c-0.159-0.257-0.172-0.929-0.13-1.020 0.367 0.525 0.322 1.004 0.13 1.020zM17.74 17.17c-0.122 0.147-0.53-0.096-0.75-0.704 0.361 0.405 0.688 0.703 0.75 0.704z"></path>
<path fill="#406325" d="M17.439 14.845c0.072 0.161 0.509 0.068 0.866-0.395-0.532 0.302-0.743 0.433-0.866 0.395zM17.854 17.159c0.193-0.016 0.237-0.491-0.13-1.015 0.118 0.527 0.168 0.963 0.13 1.015zM18.608 18.275c0.154-0.048 0.1-0.464-0.298-0.852 0.196 0.432 0.32 0.8 0.298 0.852z"></path>
<path fill="#406325" d="M17.521 15.634c0.091-0.373-0.076-1.004-0.191-1.136-0.21 0.686-0.011 1.182 0.191 1.136z"></path>
<path fill="#67923d" d="M17.508 15.723c-0.262 0.060-0.384-0.535-0.181-1.203 0.048 0.602 0.126 1.162 0.181 1.203z"></path>
<path fill="#67923d" d="M17.455 15.721c-0.025-0.335 0.308-1.026 0.396-1.098 0.090 0.702-0.198 1.169-0.396 1.098z"></path>
<path fill="#406325" d="M17.46 15.716c0.196 0.073 0.482-0.389 0.393-1.092-0.156 0.59-0.331 1.056-0.393 1.092z"></path>
<path fill="#67923d" d="M17.517 16.145c0-0.338 0.376-0.988 0.469-1.050 0.037 0.718-0.281 1.148-0.469 1.050z"></path>
<path fill="#406325" d="M17.521 16.152c0.188 0.098 0.503-0.327 0.465-1.046-0.196 0.571-0.402 1.018-0.465 1.046z"></path>
<path fill="#ba1f3e" d="M17.685 13.834c0 0.027-0.022 0.048-0.048 0.048s-0.048-0.022-0.048-0.048c0-0.027 0.022-0.048 0.048-0.048s0.048 0.022 0.048 0.048z"></path>
<path fill="#ba1f3e" d="M18.057 13.559c0 0.027-0.022 0.048-0.048 0.048s-0.048-0.022-0.048-0.048c0-0.027 0.022-0.048 0.048-0.048s0.048 0.022 0.048 0.048z"></path>
<path fill="#ba1f3e" d="M17.896 13.409c0 0.027-0.022 0.048-0.048 0.048s-0.048-0.022-0.048-0.048c0-0.027 0.022-0.048 0.048-0.048s0.048 0.022 0.048 0.048z"></path>
<path fill="#ba1f3e" d="M17.501 16.583c0 0.031-0.025 0.057-0.057 0.057s-0.057-0.025-0.057-0.057c0-0.031 0.025-0.057 0.057-0.057s0.057 0.025 0.057 0.057z"></path>
<path fill="#ba1f3e" d="M17.614 15.873c0 0.031-0.025 0.057-0.057 0.057s-0.057-0.025-0.057-0.057c0-0.031 0.025-0.057 0.057-0.057s0.057 0.025 0.057 0.057z"></path>
<path fill="#ba1f3e" d="M18.2 17.532c0 0.031-0.025 0.057-0.057 0.057s-0.057-0.025-0.057-0.057c0-0.031 0.025-0.057 0.057-0.057s0.057 0.025 0.057 0.057z"></path>
<path fill="#ba1f3e" d="M17.941 17.619c0 0.031-0.025 0.057-0.057 0.057s-0.057-0.025-0.057-0.057c0-0.031 0.025-0.057 0.057-0.057s0.057 0.025 0.057 0.057z"></path>
<path fill="#ba1f3e" d="M19.91 19.006c0 0.031-0.025 0.057-0.057 0.057s-0.057-0.025-0.057-0.057c0-0.031 0.025-0.057 0.057-0.057s0.057 0.025 0.057 0.057z"></path>
<path fill="#ba1f3e" d="M20.040 19.321c0 0.031-0.025 0.057-0.057 0.057s-0.057-0.025-0.057-0.057c0-0.031 0.025-0.057 0.057-0.057s0.057 0.025 0.057 0.057z"></path>
<path fill="#406325" d="M21.084 19.771c0.035-0.056 0.094-0.090 0.146-0.118 0.343-0.18 0.685-0.26 1.072-0.322 0.089-0.015 0.179-0.099 0.271-0.142 0.221-0.105 0.466-0.146 0.681-0.253 0.015-0.006 0.069-0.039 0.094-0.069 0.085-0.099 0.239-0.129 0.335-0.221 0.37-0.35 0.764-0.672 0.968-1.135 0.248-0.564 0.556-1.146 0.514-1.788-0.027-0.406 0.033-0.816-0.067-1.202-0.148-0.573-0.337-1.14-0.685-1.614l0.058 0.036c0.35 0.474 0.539 1.041 0.687 1.614 0.1 0.386 0.040 0.796 0.067 1.202 0.042 0.642-0.267 1.223-0.514 1.79-0.204 0.462-0.599 0.783-0.968 1.135-0.096 0.090-0.25 0.12-0.335 0.221-0.025 0.028-0.081 0.062-0.094 0.069-0.214 0.107-0.46 0.148-0.681 0.251-0.092 0.045-0.181 0.127-0.271 0.142-0.387 0.062-0.728 0.144-1.072 0.322-0.054 0.028-0.11 0.062-0.146 0.118l-0.060-0.037"></path>
<path fill="#406325" d="M24.607 17.538c0.122-0.33-0-1.104-0.066-1.198-0.295 0.683-0.148 1.222 0.066 1.198z"></path>
<path fill="#406325" d="M24.291 17.851c0.102-0.251 0.027-0.859-0.021-0.933-0.245 0.52-0.145 0.943 0.021 0.933zM25.038 14.555c-0.146-0.271-0.75-0.641-0.856-0.65 0.276 0.594 0.736 0.809 0.856 0.65z"></path>
<path fill="#406325" d="M24.967 14.199c-0.080-0.27-0.551-0.713-0.643-0.742 0.138 0.581 0.507 0.858 0.643 0.742zM25.178 14.864c-0.157-0.18-0.674-0.352-0.756-0.342 0.31 0.402 0.692 0.483 0.756 0.342zM25.053 16.923c0.273 0.043 0.843-0.183 0.904-0.25-0.573-0.124-0.958 0.082-0.904 0.25zM25.047 16.672c-0.002-0.251-0.284-0.749-0.354-0.797-0.025 0.533 0.213 0.865 0.354 0.797z"></path>
<path fill="#406325" d="M25.065 16.064c-0-0.338-0.376-0.988-0.469-1.050-0.037 0.718 0.281 1.148 0.469 1.050zM22.714 19.409c0.199 0.245 0.873 0.495 0.982 0.485-0.391-0.544-0.892-0.669-0.982-0.485z"></path>
<path fill="#67923d" d="M24.603 17.53c-0.214 0.024-0.36-0.508-0.062-1.19-0.022 0.631 0.011 1.139 0.062 1.19zM22.231 19.471c0.315 0.016 0.916 0.413 0.972 0.506-0.671 0.005-1.068-0.325-0.972-0.506zM22.231 19.118c0.093-0.354 0.667-0.943 0.778-0.984-0.16 0.761-0.611 1.135-0.778 0.984zM23.176 18.93c-0.044-0.348 0.252-1.077 0.337-1.155 0.131 0.732-0.133 1.226-0.337 1.155zM24.13 18.284c0.199-0.243 0.861-0.503 0.965-0.495-0.395 0.537-0.884 0.671-0.965 0.495zM25.276 15.916c0.040-0.281 0.432-0.795 0.516-0.839-0.053 0.601-0.369 0.934-0.516 0.839z"></path>
<path fill="#67923d" d="M24.757 17.608c0.259-0.191 0.982-0.277 1.084-0.245-0.525 0.43-1.047 0.438-1.084 0.245zM25.213 16.518c0.135-0.266 0.692-0.63 0.789-0.64-0.258 0.579-0.68 0.791-0.789 0.64zM25.147 14.493c-0.004-0.339 0.355-1.010 0.443-1.077 0.052 0.717-0.254 1.165-0.443 1.077zM24.839 13.341c-0.103-0.235-0.049-0.818-0.004-0.892 0.247 0.487 0.163 0.896 0.004 0.892zM24.651 13.245c-0.234-0.208-0.473-0.878-0.463-0.982 0.522 0.412 0.639 0.905 0.463 0.982z"></path>
<path fill="#67923d" d="M25.168 14.78c-0.014 0.036 0.131-0.342 0.632-0.68-0.178 0.634-0.491 0.812-0.632 0.68zM23.653 18.775c0.311-0.23 1.179-0.339 1.299-0.299-0.633 0.522-1.254 0.532-1.299 0.299zM24.289 17.849c-0.166 0.010-0.265-0.412-0.021-0.93-0.032 0.488-0.019 0.888 0.021 0.93zM25.038 14.557c-0.12 0.159-0.573-0.053-0.85-0.649 0.415 0.381 0.784 0.655 0.85 0.649zM24.963 14.199c-0.136 0.116-0.502-0.159-0.64-0.74 0.3 0.416 0.579 0.731 0.64 0.74zM25.18 14.867c-0.062 0.14-0.442 0.059-0.752-0.343 0.462 0.262 0.645 0.376 0.752 0.343zM25.061 16.921c-0.056-0.167 0.327-0.37 0.9-0.247-0.484 0.087-0.87 0.199-0.9 0.247zM25.043 16.672c-0.139 0.065-0.375-0.262-0.351-0.795 0.149 0.433 0.303 0.772 0.351 0.795z"></path>
<path fill="#67923d" d="M25.061 16.071c-0.188 0.098-0.502-0.327-0.465-1.046 0.196 0.571 0.402 1.018 0.465 1.046zM22.72 19.407c0.090-0.184 0.584-0.061 0.977 0.484-0.489-0.3-0.91-0.502-0.977-0.484z"></path>
<path fill="#406325" d="M23.18 18.926c0.202 0.071 0.464-0.419 0.335-1.15-0.125 0.62-0.275 1.114-0.335 1.15z"></path>
<path fill="#406325" d="M23.637 18.693c0.193-0.296 0.247-1.091 0.204-1.199-0.442 0.604-0.418 1.17-0.204 1.199zM22.229 19.473c-0.094 0.181 0.298 0.508 0.968 0.503-0.531-0.217-0.944-0.438-0.968-0.503zM22.236 19.115c0.168 0.148 0.614-0.22 0.774-0.981-0.361 0.552-0.699 0.969-0.774 0.981zM24.134 18.286c0.080 0.174 0.564 0.041 0.962-0.496-0.484 0.304-0.9 0.512-0.962 0.496zM25.278 15.916c0.147 0.095 0.459-0.236 0.514-0.836-0.232 0.462-0.456 0.818-0.514 0.836zM24.759 17.609c0.040 0.193 0.553 0.186 1.081-0.244-0.556 0.176-1.022 0.276-1.081 0.244zM25.219 16.514c0.109 0.151 0.527-0.059 0.785-0.638-0.383 0.372-0.724 0.642-0.785 0.638zM25.152 14.489c0.188 0.090 0.492-0.353 0.44-1.071-0.181 0.584-0.376 1.041-0.44 1.071zM24.843 13.34c0.157 0.004 0.241-0.401-0.006-0.889 0.042 0.467 0.041 0.848 0.006 0.889zM24.655 13.24c0.177-0.077 0.059-0.565-0.463-0.977 0.288 0.49 0.482 0.914 0.463 0.977zM25.171 14.781c0.141 0.132 0.451-0.047 0.629-0.681-0.347 0.448-0.564 0.674-0.629 0.681zM23.656 18.777c0.045 0.233 0.663 0.222 1.295-0.297-0.664 0.216-1.223 0.338-1.295 0.297z"></path>
<path fill="#406325" d="M23.962 18.433c0.145-0.219 0.19-0.812 0.158-0.892-0.333 0.448-0.318 0.87-0.158 0.892zM24.833 17.162c0.159-0.257 0.172-0.929 0.13-1.020-0.367 0.525-0.322 1.004-0.13 1.020z"></path>
<path fill="#67923d" d="M23.635 18.691c-0.215-0.028-0.237-0.592 0.202-1.194-0.161 0.616-0.243 1.131-0.202 1.194zM25.198 15.654c-0.042-0.345 0.177-0.895 0.295-1.001 0.114 0.639-0.118 1.064-0.295 1.001zM23.961 18.431c-0.16-0.022-0.173-0.442 0.157-0.889-0.124 0.458-0.187 0.842-0.157 0.889zM24.999 13.798c-0.096-0.261 0.001-0.891 0.055-0.968 0.235 0.545 0.117 0.983-0.055 0.968zM22.417 19.138c0.11-0.36 0.72-0.937 0.836-0.974-0.193 0.774-0.67 1.135-0.836 0.974zM24.841 17.29c0.118-0.278 0.658-0.687 0.755-0.704-0.22 0.606-0.633 0.851-0.755 0.704zM24.836 17.155c-0.193-0.016-0.237-0.491 0.13-1.015-0.118 0.527-0.168 0.963-0.13 1.015z"></path>
<path fill="#406325" d="M25.2 15.735c0.229 0.082 0.403-0.44 0.293-1.063-0.108 0.536-0.239 1.032-0.293 1.063z"></path>
<path fill="#406325" d="M25.234 15.717c0.025-0.335-0.308-1.026-0.396-1.098-0.090 0.702 0.198 1.169 0.396 1.098zM25.002 13.796c0.17 0.015 0.288-0.419 0.053-0.964 0.015 0.509-0.013 0.922-0.053 0.964zM22.422 19.135c0.168 0.161 0.639-0.196 0.831-0.971-0.393 0.549-0.754 0.961-0.831 0.971zM24.851 17.291c0.122 0.147 0.53-0.096 0.75-0.704-0.361 0.405-0.688 0.703-0.75 0.704z"></path>
<path fill="#67923d" d="M25.229 15.713c-0.196 0.073-0.482-0.389-0.393-1.092 0.156 0.59 0.331 1.056 0.393 1.092z"></path>
<path fill="#ba1f3e" d="M25.143 13.996c0 0.027-0.022 0.048-0.048 0.048s-0.048-0.022-0.048-0.048c0-0.027 0.022-0.048 0.048-0.048s0.048 0.022 0.048 0.048z"></path>
<path fill="#ba1f3e" d="M25.311 14.525c0 0.027-0.022 0.048-0.048 0.048s-0.048-0.022-0.048-0.048c0-0.027 0.022-0.048 0.048-0.048s0.048 0.022 0.048 0.048z"></path>
<path fill="#ba1f3e" d="M25.379 16.191c0 0.031-0.025 0.057-0.057 0.057s-0.057-0.025-0.057-0.057c0-0.031 0.025-0.057 0.057-0.057s0.057 0.025 0.057 0.057z"></path>
<path fill="#ba1f3e" d="M25.152 15.88c0 0.031-0.025 0.057-0.057 0.057s-0.057-0.025-0.057-0.057c0-0.031 0.025-0.057 0.057-0.057s0.057 0.025 0.057 0.057z"></path>
<path fill="#ba1f3e" d="M24.497 17.652c0 0.031-0.025 0.057-0.057 0.057s-0.057-0.025-0.057-0.057c0-0.031 0.025-0.057 0.057-0.057s0.057 0.025 0.057 0.057z"></path>
<path fill="#ba1f3e" d="M24.777 17.773c0 0.031-0.025 0.057-0.057 0.057s-0.057-0.025-0.057-0.057c0-0.031 0.025-0.057 0.057-0.057s0.057 0.025 0.057 0.057z"></path>
<path fill="#ba1f3e" d="M22.892 19.212c0 0.031-0.025 0.057-0.057 0.057s-0.057-0.025-0.057-0.057c0-0.031 0.025-0.057 0.057-0.057s0.057 0.025 0.057 0.057z"></path>
<path fill="#ba1f3e" d="M22.581 19.435c0 0.031-0.025 0.057-0.057 0.057s-0.057-0.025-0.057-0.057c0-0.031 0.025-0.057 0.057-0.057s0.057 0.025 0.057 0.057z"></path>
<path fill="#ba1f3e" d="M24.806 13.745c0 0.027-0.022 0.048-0.048 0.048s-0.048-0.022-0.048-0.048c0-0.027 0.022-0.048 0.048-0.048s0.048 0.022 0.048 0.048z"></path>
<path fill="#8c959d" d="M19.3 17.612c-0.006 0.047 0.037 0.104 0.095 0.092 0.017-0.004 0.028-0.026 0.006-0.022-0.019 0.005-0.039-0.003-0.053-0.017s-0.024-0.033-0.024-0.055c0-0.011 0.002-0.021 0.007-0.031l-0 0c-0.010 0.011-0.020 0.022-0.029 0.032h-0z"></path>
<path fill="#8c959d" d="M19.433 17.704c-0.045 0.052-0.114 0.075-0.152 0.037-0.025-0.025-0.035-0.054-0.021-0.085-0.020 0.021-0.037 0.040-0.050 0.055 0.002 0.004 0.032 0.058 0.076 0.078 0.054 0.024 0.132-0.012 0.179-0.070 0.033-0.040 0.069-0.108 0.043-0.16-0.016-0.032-0.055-0.063-0.087-0.075-0.016 0.017-0.031 0.033-0.046 0.049 0.023-0.011 0.051-0.006 0.075 0.014 0.057 0.046 0.024 0.111-0.017 0.158v0z"></path>
<path fill="#485654" d="M19.433 17.704c-0.014 0.017-0.031 0.031-0.051 0.042l-0.001 0c-0.020 0.010-0.043 0.017-0.065 0.014-0.012-0.002-0.023-0.006-0.032-0.013l0 0c-0.009-0.007-0.016-0.016-0.022-0.025l-0-0c-0.006-0.009-0.010-0.020-0.011-0.032l-0-0c-0.001-0.012 0.002-0.023 0.006-0.034l0.005 0.004-0.049 0.055 0.001-0.004c0.012 0.021 0.028 0.042 0.046 0.058 0.009 0.008 0.020 0.015 0.031 0.019 0.009 0.004 0.020 0.006 0.032 0.006 0.001 0 0.002-0 0.003-0h-0c0.024-0.001 0.048-0.009 0.070-0.021s0.041-0.028 0.057-0.046l0-0c0.016-0.019 0.031-0.039 0.042-0.062s0.018-0.047 0.017-0.071c-0.001-0.013-0.004-0.024-0.010-0.035l0 0c-0.006-0.011-0.014-0.021-0.022-0.029v0c-0.017-0.017-0.037-0.031-0.060-0.041l-0.001-0 0.004-0.001-0.046 0.049-0.004-0.005c0.011-0.005 0.022-0.006 0.034-0.005s0.022 0.005 0.032 0.011c0.019 0.011 0.035 0.029 0.041 0.051s0 0.045-0.009 0.064c-0.010 0.020-0.023 0.038-0.037 0.054l0-0v0zM19.433 17.704c0.014-0.017 0.026-0.035 0.035-0.054s0.013-0.042 0.007-0.062c-0.006-0.020-0.022-0.037-0.040-0.047s-0.041-0.014-0.060-0.004l-0.004-0.005 0.045-0.049 0.002-0.002 0.002 0.001c0.024 0.009 0.046 0.024 0.064 0.043 0.009 0.009 0.017 0.019 0.024 0.031s0.010 0.025 0.011 0.038c0.002 0.027-0.006 0.052-0.017 0.076-0.012 0.024-0.026 0.045-0.043 0.064l0-0c-0.017 0.019-0.038 0.036-0.060 0.048s-0.048 0.021-0.074 0.022c-0.001 0-0.002 0-0.003 0-0.013 0-0.025-0.003-0.037-0.007l0.001 0c-0.013-0.006-0.024-0.013-0.033-0.021l0 0c-0.019-0.017-0.035-0.037-0.047-0.059l-0.001-0.001-0.001-0.002 0.002-0.002 0.050-0.054 0.006 0.003c-0.004 0.010-0.007 0.020-0.006 0.031s0.004 0.021 0.010 0.030c0.006 0.009 0.013 0.018 0.021 0.025s0.018 0.011 0.029 0.013c0.022 0.004 0.044-0.002 0.064-0.012s0.038-0.024 0.053-0.041z"></path>
<path fill="#6c301e" d="M22.9 13.745l-1.784 1.756c-0.136 0.135-1.687 1.617-1.827 1.75-0.049 0.059-0.188 0.216-0.203 0.238-0.095 0.103-0.197 0.237-0.32 0.357-0.022 0.028-0.051 0.017-0.077 0.033-0.081 0.047-0.164 0.128-0.225 0.194l-0.543 0.6c-0.035 0.038-0.044 0.061-0.021 0.083l0.294 0.393c0.055 0.054 0.117 0.082 0.142 0.036 0.14-0.242 0.487-0.612 0.618-0.904 0.078-0.175 0.177-0.491 0.247-0.568 0.086-0.096 0.319-0.344 0.525-0.565 0.014-0.015 0.028-0.030 0.041-0.044l0.042-0.045c1.045-1.064 2.254-2.358 3.134-3.269-0.035-0.034-0.013-0.014-0.046-0.046z"></path>
<path fill="#8c959d" d="M19.195 17.249c-0.054 0.002-0.090-0.031-0.127-0.062 0.052 0.015 0.104 0.035 0.153 0.015l-0.027 0.047z"></path>
<path fill="#b2b6ba" d="M24.758 12.449l-1.414 1.165c-0.014 0.017-0.028 0.012-0.041 0l-0.129-0.107c0-0.002 0.001-0.003 0.001-0.005 0-0.007-0.001-0.014-0.004-0.021l0.063-0.064c0.008-0.010 0.005-0.014-0.005-0.024-0.008-0.008-0.015-0.016-0.026-0.027-0.010-0.008-0.018-0.002-0.029 0.008l-0.064 0.066c-0.033 0.001-0.059 0.028-0.060 0.061-0.855 0.832-1.591 1.575-2.442 2.394l-1.003 0.958c-0.036 0.046-0.191 0.129-0.293 0.196-0.036 0.024-0.068 0.045-0.081 0.069l-0.082 0.242c-0.026 0.053-0.108 0.178-0.112 0.186 0.105 0.106 0.1 0.098 0.172 0.166 0.081-0.090 0.297-0.316 0.494-0.527 0.016-0.017 0.017-0.019 0.037-0.043-0.015-0.022-0.041-0.054-0.062-0.073-0.016-0.016-0.034-0.032-0.052-0.047l-0.002-0.002c-0.011-0.009-0.021-0.017-0.028-0.024s0.011-0.020 0.019-0.029c1.176-1.137 2.443-2.386 3.479-3.404 0.005 0.002 0.011 0.002 0.017 0.002 0.010 0 0.020-0.002 0.029-0.007l-0 0 0.124 0.143c0.029 0.029 0.054 0.028 0.077 0.018l1.416-1.268z"></path>
<path fill="#485654" d="M19.153 17.351c0.009 0.001 0.018 0.002 0.027 0.001s0.018-0.003 0.026-0.007l-0 0-0.001 0.001c0.031-0.11 0.053-0.18 0.077-0.25l-0.012 0.039 0 0.001c-0.009-0.010-0.019-0.019-0.032-0.022 0.013 0.003 0.025 0.011 0.034 0.020l0 0-0 0.001c-0.010 0.035-0.021 0.071-0.032 0.106s-0.022 0.070-0.034 0.105l-0 0.001-0 0c-0.008 0.004-0.017 0.006-0.027 0.006h-0c-0.010-0-0.019-0.001-0.028-0.003l0.001 0z"></path>
<path fill="#485654" d="M19.599 16.995c-0.014-0.011-0.027-0.022-0.040-0.034s-0.025-0.024-0.037-0.037l-0-0.001c0.014 0.011 0.027 0.023 0.040 0.035s0.025 0.024 0.037 0.038z"></path>
<path fill="#8c959d" d="M22.319 14.181l0.155 0.152 0.029-0.026-0.155-0.152-0.029 0.026z"></path>
<path fill="#67923d" d="M19.285 18.905c-0.35-0.148-1.195-0.030-1.299 0.041 0.724 0.356 1.313 0.203 1.299-0.041zM23.241 19.053c0.35-0.148 1.195-0.030 1.299 0.041-0.724 0.355-1.313 0.203-1.299-0.041z"></path>
<path fill="#406325" d="M19.278 18.91c0.014 0.245-0.568 0.395-1.292 0.040 0.68 0.041 1.235 0.017 1.292-0.040zM23.248 19.057c-0.014 0.245 0.568 0.395 1.292 0.040-0.68 0.041-1.235 0.018-1.292-0.040z"></path>
<path fill="#b2b6ba" d="M22.6 18.666c-0.921-1.339-2.311-2.427-3.382-3.022 0.158-0.007 0.509 0.172 0.652 0.264 1.064 0.686 1.969 1.591 2.918 2.659-0.056 0.055-0.093 0.088-0.153 0.136l-0.035-0.037z"></path>
<path fill="#8c959d" d="M22.691 18.656l-0.064 0.062c-1.023-1.316-2.449-2.575-3.408-3.072 1.337 0.616 2.462 1.856 3.468 3.007l0.004 0.004z"></path>
<path fill="#485654" d="M22.692 18.656l-0.065 0.062-0-0c-0.237-0.303-0.488-0.595-0.75-0.877-0.264-0.285-0.531-0.551-0.807-0.806l-0.010-0.009c-0.283-0.261-0.575-0.511-0.88-0.745-0.129-0.1-0.282-0.211-0.438-0.317l-0.031-0.020c-0.16-0.106-0.324-0.207-0.495-0.295l0.004-0.009c0.351 0.162 0.682 0.364 0.994 0.59s0.608 0.476 0.89 0.739c0.282 0.263 0.552 0.539 0.815 0.822s0.517 0.573 0.771 0.863zM22.692 18.656c-0.255-0.289-0.511-0.578-0.774-0.86s-0.533-0.558-0.816-0.821c-0.282-0.262-0.578-0.512-0.89-0.737s-0.643-0.427-0.994-0.588l0.004-0.009c0.171 0.089 0.335 0.19 0.495 0.296s0.316 0.22 0.469 0.337c0.305 0.235 0.598 0.485 0.88 0.747 0.285 0.265 0.551 0.531 0.807 0.807l0.009 0.010c0.261 0.283 0.511 0.576 0.746 0.88l-0-0 0.065-0.062z"></path>
<path fill="#fab81c" d="M23 18.448c-0.088 0.023-0.166 0.056-0.234 0.099-0.010 0.062-0.087 0.131-0.159 0.147-0.013-0.017-0.016-0.022-0.026-0.034-0.001-0.001-0.003-0.002-0.005-0.002s-0.002 0-0.003 0.001h0c-0.006 0.003-0.015 0.008-0.025 0.015-0.027-0.005-0.059 0.009-0.074 0.043-0.017 0.043 0.017 0.1 0.054 0.137 0.041 0.032 0.062 0.048 0.109 0.041 0.048-0.010 0.075-0.054 0.086-0.068 0.165 0.2 0.29 0.308 0.499 0.473 0.093 0.001 0.143-0.058 0.112-0.125-0.010-0.022-0.037-0.037-0.059-0.029 0.002-0.007 0.001-0.014 0-0.020 0.109-0.101 0.156-0.226 0.041-0.439-0.099-0.179-0.209-0.24-0.315-0.239h-0.001zM23.278 18.649c0.019 0.033 0.031 0.061 0.046 0.091 0.066 0.133 0.009 0.293-0.104 0.343-0.005-0-0.004-0.001-0.009 0.001 0.018-0.031-0.037-0.096-0.065-0.073 0.013-0.034-0.030-0.090-0.065-0.075 0.018-0.031-0.024-0.085-0.063-0.067 0.020-0.034-0.014-0.083-0.055-0.074 0.012-0.036-0.019-0.078-0.060-0.071 0.004-0.032-0.007-0.050-0.023-0.064 0.049-0.038 0.104-0.096 0.153-0.122 0.121-0.052 0.196 0.048 0.246 0.112z"></path>
<path fill="#fab81c" d="M23.329 18.79c-0.023-0.011-0.034-0.034-0.026-0.049s0.031-0.019 0.054-0.008c0.023 0.011 0.036 0.033 0.028 0.048s-0.033 0.020-0.056 0.009z"></path>
<path fill="#fab81c" d="M23.315 18.745c-0.023-0.011-0.034-0.034-0.026-0.049s0.031-0.019 0.054-0.008c0.023 0.011 0.036 0.033 0.028 0.048s-0.033 0.020-0.056 0.009z"></path>
<path fill="#fab81c" d="M23.288 18.694c-0.023-0.011-0.034-0.034-0.026-0.049s0.031-0.019 0.054-0.008c0.023 0.011 0.036 0.033 0.028 0.048s-0.033 0.020-0.056 0.009z"></path>
<path fill="#fab81c" d="M23.253 18.649c-0.023-0.011-0.034-0.034-0.026-0.049s0.031-0.019 0.054-0.008c0.023 0.011 0.036 0.033 0.028 0.048s-0.033 0.020-0.056 0.009z"></path>
<path fill="#fab81c" d="M23.207 18.605c-0.023-0.011-0.034-0.034-0.026-0.049 0.001-0.002 0-0.006 0.002-0.005 0.009 0.005 0.029 0.008 0.027-0.006-0.003-0.005-0.006-0.010-0.003-0.006 0.007 0 0.021 0.006 0.028 0.010 0.023 0.011 0.036 0.033 0.028 0.048s-0.033 0.020-0.056 0.009v-0z"></path>
<path fill="#fab81c" d="M22.723 18.827c0.030-0.079 0.091-0.152 0.156-0.169zM22.733 18.838c0.056 0.012 0.147-0.055 0.169-0.115zM22.786 18.902c0.074 0.017 0.146-0.054 0.175-0.107zM22.853 18.973c0.087 0.003 0.141-0.059 0.166-0.106zM22.92 19.041c0.074 0 0.141-0.060 0.162-0.108zM22.985 19.103c0.080-0.003 0.137-0.040 0.161-0.092zM23.057 19.166c0.074 0.004 0.133-0.040 0.153-0.083zM23.137 19.23c0.074 0.004 0.12-0.041 0.139-0.084z"></path>
<path fill="#6c301e" d="M22.723 18.827c0.014-0.040 0.033-0.074 0.059-0.104l-0 0c0.013-0.015 0.027-0.029 0.044-0.041s0.035-0.021 0.054-0.025c-0.019 0.006-0.036 0.016-0.052 0.028s-0.030 0.026-0.042 0.041c-0.026 0.030-0.046 0.064-0.062 0.1zM22.733 18.838c0.018 0.003 0.036-0.002 0.052-0.009 0.018-0.007 0.033-0.016 0.047-0.027l-0.001 0c0.015-0.010 0.028-0.022 0.040-0.036s0.023-0.028 0.030-0.044c-0.005 0.017-0.016 0.033-0.027 0.047s-0.025 0.026-0.040 0.037c-0.014 0.010-0.030 0.019-0.047 0.025l-0.001 0c-0.017 0.006-0.036 0.010-0.054 0.005zM22.786 18.902c0.018 0.003 0.036 0.002 0.053-0.004s0.033-0.014 0.048-0.024c0.015-0.010 0.028-0.023 0.040-0.036s0.023-0.028 0.033-0.043c-0.009 0.017-0.019 0.032-0.030 0.046l0-0c-0.012 0.014-0.025 0.026-0.040 0.037l-0.001 0c-0.014 0.010-0.031 0.018-0.048 0.024l-0.001 0c-0.018 0.005-0.037 0.005-0.055 0zM22.853 18.973c0.018-0 0.036-0.003 0.052-0.009l-0.001 0c0.017-0.006 0.033-0.013 0.046-0.023l-0.001 0c0.015-0.010 0.027-0.021 0.038-0.034l0-0c0.012-0.013 0.022-0.027 0.031-0.042-0.015 0.032-0.038 0.059-0.066 0.079l-0.001 0c-0.015 0.010-0.031 0.018-0.048 0.022s-0.035 0.006-0.052 0.005zM22.92 19.041c0.034-0.002 0.066-0.015 0.094-0.034 0.014-0.009 0.027-0.021 0.038-0.033s0.022-0.026 0.030-0.041c-0.006 0.016-0.016 0.030-0.027 0.043s-0.024 0.024-0.038 0.034c-0.013 0.009-0.028 0.017-0.045 0.023l-0.001 0c-0.016 0.005-0.034 0.008-0.051 0.007zM22.985 19.103c0.018-0.002 0.034-0.005 0.050-0.009l-0.002 0c0.017-0.004 0.032-0.010 0.046-0.018l-0.001 0.001c0.014-0.007 0.028-0.017 0.039-0.028s0.021-0.024 0.029-0.039c-0.006 0.015-0.015 0.029-0.026 0.041s-0.025 0.022-0.040 0.030c-0.026 0.013-0.057 0.021-0.090 0.021-0.002 0-0.004-0-0.005-0h0zM23.057 19.166c0.015-0 0.031-0.002 0.045-0.005 0.016-0.004 0.030-0.009 0.043-0.016l-0.001 0c0.013-0.007 0.026-0.016 0.037-0.026s0.021-0.022 0.028-0.036c-0.006 0.015-0.015 0.028-0.026 0.038l-0 0c-0.011 0.011-0.023 0.020-0.037 0.027l-0.001 0c-0.014 0.007-0.029 0.012-0.044 0.015s-0.031 0.004-0.046 0.002zM23.137 19.23c0.015-0 0.030-0.002 0.044-0.006l-0.001 0c0.029-0.008 0.053-0.023 0.072-0.044l0-0c0.009-0.010 0.018-0.022 0.024-0.034l0-0.001c-0.011 0.028-0.030 0.051-0.055 0.066l-0.001 0c-0.012 0.007-0.025 0.013-0.040 0.016l-0.001 0c-0.008 0.002-0.017 0.003-0.027 0.003-0.006 0-0.012-0-0.017-0.001l0.001 0z"></path>
<path fill="#406325" d="M18.189 13.334c0.32-0.105 0.832-0.687 0.866-0.796-0.693 0.185-1.011 0.637-0.866 0.796zM24.666 13.543c-0.076-0.313-0.59-0.845-0.692-0.885 0.123 0.674 0.53 1.011 0.692 0.885z"></path>
<path fill="#67923d" d="M18.189 13.334c-0.148-0.159 0.169-0.607 0.86-0.792-0.487 0.373-0.853 0.719-0.86 0.792zM24.666 13.543c-0.163 0.129-0.565-0.207-0.688-0.879 0.318 0.492 0.619 0.867 0.688 0.879z"></path>
<path fill="#000" d="M20.098 16.805s-0.274 0.029-0.35-0.348c-0.082-0.404 0.236-0.447 0.236-0.447s0.36-0.035 0.584-0.040l0.1 0.798-0.569 0.037z"></path>
<path fill="#000" d="M20.134 16.683s-0.177 0.034-0.214-0.247c-0.026-0.199 0.097-0.227 0.097-0.227l0.41 0.069 0.002 0.366-0.296 0.038z"></path>
<path fill="#000" d="M20.018 16.209s0.262-0.019 0.4-0.037l0.057 0.254-0.316 0.020s-0.022-0.229-0.141-0.237z"></path>
<path fill="#000" d="M19.963 16.016s0.337-0.083 0.379 0.288c0.011 0.097-0.042 0.319-0.207 0.378l0.617-0.065-0.056-0.667-0.208 0.017s-0.441 0.015-0.525 0.048z"></path>
<path fill="#f9f0aa" d="M20.098 16.805c0.002 0 2.307-0.155 2.543-0.145 0.7-0.384-0.003-1.892-0.593-2.735 0.067-0.19-1.327-0.617-1.958-0.579-0.079 0.005-0.156 0.010-0.229 0.016-0.342 0.036-0.346 0.475-0.206 0.752 0.135 0.269 1.347 2.45 0.495 2.681l-0.052 0.011z"></path>
<path fill="#000" d="M22.569 14.815c-0.156-0.325-0.344-0.638-0.521-0.891 0.067-0.19-1.327-0.617-1.958-0.579-0.079 0.005-0.156 0.010-0.229 0.016-0.342 0.036-0.346 0.475-0.206 0.752 0.043 0.084 0.191 0.357 0.349 0.699"></path>
<path fill="#000" d="M20.224 15.331c0.247 0.651 0.385 1.339-0.073 1.463l-0.052 0.011c0.002 0 2.307-0.155 2.543-0.145 0.379-0.208 0.346-0.747 0.143-1.331"></path>
<path fill="#000" d="M19.885 13.489c-0.165 0-0.207 0.158-0.205 0.259 0.006 0.263 0.205 0.275 0.205 0.275l0.265-0.015 0.127-0.541-0.392 0.022z"></path>
<path fill="#000" d="M19.885 13.49l0.392-0.022 0.040 0.404-0.342 0.015s0.111-0.323-0.090-0.397z"></path>
<path fill="#000" d="M22.050 13.924c0.297-0.048 0.293-0.448 0.090-0.608-0.689-0.025-1.595-0.006-2.25 0.043 0.075-0.002 0.282 0.017 0.305 0.289 0.011 0.127-0.052 0.244-0.136 0.31-0.082 0.065-0.174 0.065-0.174 0.065 0.011 0.004 0.096 0 0.16-0.004 0.033-0.002 0.113-0.012 0.136-0.015 0.934-0.123 1.866-0.081 1.866-0.081l0.004 0-0-0z"></path>
<path fill="#b07e09" d="M20.377 14.552c-0.006-0.015-0.014-0.033-0.032-0.036-0.011 0.001-0.029-0.002-0.025-0.017 0.010-0.005 0.024-0.002 0.035-0.003 0.025 0 0.049-0.005 0.074-0.007 0.015 0.004 0.012 0.024-0.005 0.021-0.018 0.004-0.008 0.025-0.003 0.036 0.020 0.046 0.039 0.092 0.059 0.138 0.006 0.013 0.017 0.025 0.032 0.027s0.034 0.002 0.048-0.005c0.014-0.009 0.011-0.028 0.009-0.042-0.006-0.016 0.024-0.013 0.022 0.002 0.006 0.019 0.012 0.038 0.020 0.056-0.001 0.009-0.012 0.006-0.019 0.007-0.044 0.003-0.088 0.006-0.132 0.010-0.014-0.001-0.035 0.012-0.044-0.004-0.005-0.017 0.023-0.008 0.026-0.021-0-0.015-0.009-0.027-0.014-0.041-0.017-0.041-0.035-0.082-0.052-0.122zM20.591 14.537c-0.006-0.014-0.013-0.032-0.031-0.035-0.011-0.001-0.029-0.001-0.027-0.017 0.007-0.007 0.020-0.003 0.030-0.004 0.026 0.001 0.052-0.004 0.078-0.006 0.013-0.001 0.018 0.023 0.001 0.020-0.016 0.001-0.017 0.018-0.010 0.029 0.021 0.051 0.043 0.101 0.064 0.152 0.005 0.011 0.011 0.024 0.024 0.026 0.011 0.002 0.029-0.001 0.031 0.014-0.002 0.012-0.019 0.005-0.028 0.007-0.023-0.002-0.046 0.001-0.069 0.005-0.010 0.003-0.024 0.001-0.025-0.012 0.002-0.012 0.026-0.003 0.027-0.018-0.002-0.014-0.010-0.027-0.015-0.041l-0.050-0.12zM20.789 14.569c0.004 0.010 0.018 0.003 0.026 0.003 0.012-0.001 0.024-0.010 0.023-0.023-0.002-0.020-0.012-0.040-0.028-0.053-0.015-0.011-0.035-0.009-0.052-0.007-0.001 0.007 0.004 0.014 0.006 0.020l0.025 0.059zM20.819 14.639c0.007 0.016 0.012 0.033 0.025 0.045 0.011 0.008 0.025 0.004 0.037 0.003 0.013-0.001 0.021-0.015 0.017-0.027-0.006-0.028-0.025-0.058-0.055-0.064-0.006-0.001-0.013-0.002-0.020-0.002s-0.014 0.001-0.021 0.002l0.001-0c-0.001 0.006 0.004 0.013 0.006 0.019l0.010 0.024zM20.729 14.534c-0.007-0.016-0.014-0.034-0.031-0.041-0.011-0.004-0.029 0.001-0.031-0.014 0.003-0.013 0.025-0.004 0.036-0.007 0.038-0.001 0.078-0.012 0.115-0 0.033 0.008 0.062 0.036 0.064 0.071 0.001 0.017-0.012 0.030-0.026 0.037-0.002-0.006 0.016 0.003 0.023 0.004 0.026 0.008 0.050 0.026 0.061 0.051 0.009 0.018 0.016 0.041 0.002 0.058-0.016 0.018-0.042 0.018-0.064 0.019-0.033 0.001-0.067 0.001-0.1 0.008-0.012 0.002-0.020-0.021-0.004-0.020 0.016-0.001 0.018-0.018 0.011-0.030l-0.057-0.135zM21.058 14.449c0.015-0.002 0.016 0.014 0.020 0.024 0.004 0.013 0.012 0.024 0.015 0.037-0.012 0.012-0.022-0.006-0.028-0.016-0.006-0.011-0.017-0.021-0.031-0.020-0.002-0-0.004-0-0.006-0-0.017 0-0.034 0.001-0.050 0.003l0.002-0c-0.006 0.007 0.003 0.018 0.005 0.026 0.008 0.020 0.016 0.040 0.025 0.060 0.012-0.001 0.028 0.001 0.036-0.009 0.003-0.010-0.012-0.033 0.009-0.028 0.013 0.008 0.012 0.027 0.018 0.039 0.006 0.017 0.017 0.032 0.022 0.050-0.012 0.013-0.023-0.006-0.028-0.016-0.008-0.015-0.028-0.014-0.043-0.013-0.011-0.002-0.003 0.008-0.002 0.013 0.010 0.022 0.017 0.045 0.029 0.066 0.009 0.015 0.029 0.013 0.044 0.012s0.033-0.001 0.041-0.015c0.010-0.011-0.012-0.033 0.006-0.037 0.015-0.001 0.015 0.017 0.019 0.027 0.003 0.012 0.008 0.024 0.013 0.037-0.001 0.009-0.012 0.006-0.019 0.007-0.045 0.003-0.091 0.005-0.136 0.008-0.013 0-0.036 0.011-0.040-0.009 0.001-0.013 0.029-0.006 0.025-0.024-0.003-0.015-0.011-0.029-0.017-0.044-0.017-0.040-0.033-0.080-0.050-0.12-0.006-0.013-0.016-0.028-0.032-0.028-0.011 0.002-0.027-0.006-0.021-0.018 0.015-0.003 0.032-0.001 0.047-0.002l0.123-0.007zM21.161 14.508c-0.007-0.015-0.013-0.034-0.030-0.041-0.011-0.003-0.032 0.001-0.031-0.018 0.011-0.008 0.029-0.001 0.043-0.004 0.036-0 0.072-0.011 0.107 0 0.037 0.010 0.067 0.043 0.070 0.082 0.001 0.018-0.014 0.033-0.030 0.038-0.013 0.001 0.010 0.004 0.014 0.009 0.028 0.014 0.048 0.039 0.063 0.066 0.003 0.010 0.023 0.031 0.026 0.011-0.001-0.022 0.028-0.003 0.022 0.012 0 0.016-0.016 0.026-0.030 0.026-0.021 0.002-0.040-0.010-0.051-0.028-0.019-0.025-0.031-0.054-0.056-0.074-0.010-0.007-0.025-0.012-0.037-0.007-0.003 0.006 0.003 0.012 0.005 0.018 0.008 0.018 0.014 0.038 0.024 0.054 0.009 0.014 0.026 0.016 0.041 0.016 0.016 0.004 0.012 0.026-0.005 0.019-0.026 0-0.052-0.002-0.078 0.003-0.012 0.006-0.038 0-0.029-0.016 0.013-0.001 0.030-0.008 0.021-0.023-0.015-0.039-0.031-0.077-0.046-0.115l-0.011-0.028zM21.223 14.548c0.006 0.014 0.026 0.006 0.038 0.005 0.016-0.004 0.016-0.023 0.010-0.035-0.007-0.021-0.017-0.046-0.040-0.053-0.012-0.002-0.038-0.009-0.039 0.007 0.008 0.024 0.019 0.047 0.028 0.070l0.002 0.005zM21.544 14.624c0.005 0.012 0.009 0.027 0.024 0.029 0.011 0.003 0.030-0.001 0.032 0.015-0.002 0.012-0.020 0.005-0.028 0.006-0.024-0.002-0.048 0-0.072 0.004-0.010 0.003-0.024-0.001-0.023-0.014 0.006-0.009 0.029-0.002 0.028-0.018-0.004-0.018-0.012-0.034-0.018-0.051-0.017-0.043-0.034-0.086-0.051-0.128-0.004-0.014-0.020-0.013-0.031-0.012s-0.030 0.003-0.030 0.018c-0.004 0.010 0.010 0.027-0.002 0.033-0.013 0.003-0.016-0.012-0.019-0.022-0.004-0.014-0.012-0.028-0.017-0.041 0.002-0.009 0.014-0.008 0.022-0.009 0.061-0.003 0.122-0.005 0.184-0.008 0.014-0.002 0.022 0.008 0.023 0.021 0.005 0.015 0.012 0.029 0.018 0.043-0.005 0.015-0.023 0.002-0.025-0.009-0.009-0.015-0.023-0.031-0.042-0.032-0.011 0.001-0.029-0.004-0.036 0.007 0 0.011 0.006 0.020 0.010 0.030l0.054 0.137zM21.71 14.584c-0.009 0-0.004 0.011-0.005 0.016 0.001 0.013-0.001 0.025 0.001 0.038 0.006 0.014 0.023 0.010 0.035 0.014 0.010 0.006 0.008 0.022-0.006 0.017-0.019-0.001-0.038-0.003-0.056 0.002-0.011 0.006-0.032-0.005-0.022-0.017 0.009-0.002 0.020-0.004 0.022-0.015 0.003-0.018 0.002-0.037 0.002-0.056l0.001-0.165c0.005-0.012 0.023-0.002 0.027 0.007 0.053 0.067 0.105 0.135 0.16 0.202 0.009 0.010 0.021 0.018 0.034 0.019 0.012 0 0.018 0.024 0.001 0.019-0.023-0.001-0.046-0.003-0.068 0.001-0.010 0-0.022 0.005-0.031-0.001-0.011-0.008-0.003-0.019 0.009-0.018 0.016-0.004-0-0.021-0.005-0.029-0.008-0.011-0.017-0.023-0.026-0.033-0.008-0.004-0.017-0.001-0.025-0.001-0.016 0-0.031 0.001-0.047 0.002zM21.762 14.561c0.008 0.001-0.003-0.007-0.004-0.010-0.019-0.025-0.038-0.049-0.057-0.074 0.004-0.001 0.001 0.008 0.002 0.011-0 0.025 0 0.050-0 0.075 0.020-0.001 0.039-0.001 0.059-0.002zM21.898 14.479c-0.007-0.018-0.016-0.039-0.036-0.044-0.011 0.002-0.031-0.008-0.020-0.020 0.024-0 0.049 0.001 0.073-0.001 0.031-0.003 0.063-0.002 0.092 0.009 0.065 0.022 0.119 0.079 0.13 0.148 0.005 0.027-0.004 0.058-0.028 0.073-0.033 0.021-0.073 0.017-0.11 0.015-0.021-0.001-0.042 0.002-0.062 0.004-0.014-0.002-0.015-0.023 0.001-0.020 0.017-0.001 0.016-0.019 0.010-0.030l-0.050-0.134zM21.985 14.59c0.007 0.015 0.011 0.034 0.025 0.043 0.013 0.006 0.029 0.005 0.044 0.004 0.020-0.003 0.032-0.022 0.032-0.040 0.001-0.034-0.012-0.066-0.028-0.095-0.017-0.031-0.047-0.055-0.082-0.061-0.014-0.002-0.030-0.005-0.044-0.002-0.003 0.005 0.003 0.012 0.004 0.018l0.050 0.133zM21.047 15.141c0.005 0.016 0.020 0.027 0.036 0.028 0.011 0.002 0.031-0.001 0.032 0.016-0.006 0.010-0.024 0.003-0.034 0.005-0.003-0-0.008-0-0.012-0-0.020 0-0.040 0.002-0.059 0.005l0.002-0c-0.012 0-0.025 0.006-0.037 0.002-0.011-0.005-0.009-0.021 0.005-0.019 0.011-0.003 0.027-0.006 0.028-0.020-0.001-0.013-0.008-0.024-0.012-0.035-0.017-0.041-0.034-0.082-0.051-0.122-0.004-0.014-0.020-0.015-0.032-0.013s-0.027 0.005-0.030-0.010c0.001-0.013 0.022-0.011 0.031-0.017 0.014-0.005 0.028-0.011 0.042-0.016 0.010-0.002 0.014 0.007 0.017 0.014 0.025 0.061 0.051 0.122 0.076 0.182zM21.081 14.941c0.030-0.001 0.061 0.003 0.091 0 0.013-0.001 0.004-0.022 0.017-0.021 0.016 0.001 0.014 0.021 0.015 0.033 0 0.001 0 0.002 0 0.003 0 0.013-0.010 0.023-0.023 0.023-0.001 0-0.002-0-0.003-0h0c-0.024 0.001-0.047-0.002-0.071-0.001 0.005 0.018 0.013 0.036 0.020 0.054 0.001-0.006 0.020-0.007 0.028-0.008 0.047-0.002 0.096 0.025 0.116 0.069 0.010 0.021 0.015 0.049-0.001 0.068-0.017 0.020-0.046 0.024-0.071 0.025-0.022-0-0.047-0.005-0.060-0.024-0.007-0.010-0.006-0.030 0.010-0.028 0.014 0 0.029 0.012 0.027 0.026 0.007 0.010 0.023 0.006 0.035 0.006 0.013-0 0.026-0.011 0.025-0.025 0-0.022-0.008-0.043-0.020-0.060-0.013-0.019-0.035-0.031-0.058-0.031-0.013-0.002-0.024 0.007-0.037 0.007-0.013-0.002-0.015-0.016-0.019-0.026-0.008-0.019-0.018-0.046-0.027-0.073l-0.002-0.008c-0.001-0.005 0.003-0.009 0.008-0.008zM21.385 14.986c-0.007-0.018-0.016-0.039-0.037-0.043-0.011 0.003-0.031-0.008-0.021-0.019 0.025-0.001 0.050 0 0.074-0.003 0.031-0.004 0.064-0.003 0.094 0.008 0.066 0.022 0.12 0.081 0.13 0.151 0.004 0.026-0.005 0.055-0.028 0.069-0.032 0.021-0.071 0.018-0.108 0.017-0.020-0-0.040 0.003-0.060 0.006-0.013-0.002-0.016-0.022 0-0.020 0.017-0.001 0.015-0.020 0.009-0.030-0.018-0.045-0.036-0.090-0.054-0.134zM21.475 15.096c0.007 0.015 0.012 0.034 0.026 0.043 0.013 0.006 0.029 0.004 0.043 0.002 0.020-0.003 0.031-0.023 0.030-0.042 0-0.034-0.014-0.066-0.031-0.095-0.017-0.031-0.048-0.054-0.083-0.059-0.014-0.002-0.029-0.004-0.044-0.001-0.003 0.006 0.003 0.012 0.004 0.018l0.054 0.133zM21.761 14.906c0.014-0.002 0.016 0.013 0.019 0.022 0.004 0.013 0.011 0.024 0.015 0.037-0.008 0.014-0.023-0.003-0.026-0.013-0.006-0.011-0.016-0.023-0.030-0.023-0.004-0-0.010-0-0.015-0-0.014 0-0.028 0.001-0.042 0.002l0.002-0c-0.010 0.004 0.001 0.017 0.002 0.025 0.008 0.020 0.015 0.041 0.024 0.060 0.012-0 0.025 0.001 0.035-0.007 0.008-0.009-0.012-0.033 0.009-0.030 0.015 0.005 0.012 0.025 0.018 0.037 0.005 0.018 0.016 0.033 0.022 0.051-0.008 0.015-0.024-0.002-0.026-0.013-0.006-0.014-0.023-0.016-0.037-0.016-0.009-0.002-0.016 0-0.010 0.010 0.010 0.023 0.017 0.047 0.029 0.068 0.009 0.015 0.029 0.013 0.044 0.013s0.033-0 0.042-0.014c0.009-0.011-0.009-0.029 0.004-0.036 0.015-0.004 0.018 0.012 0.021 0.023 0.003 0.014 0.008 0.027 0.013 0.040-0.001 0.009-0.012 0.006-0.019 0.007-0.046 0.002-0.092 0.003-0.137 0.006-0.013-0.001-0.031 0.009-0.039-0.005-0.008-0.018 0.022-0.008 0.024-0.023 0.001-0.014-0.007-0.025-0.011-0.038-0.017-0.043-0.033-0.086-0.051-0.129-0.006-0.014-0.016-0.029-0.033-0.030-0.011 0.002-0.027-0.006-0.020-0.018 0.016-0.003 0.032-0 0.048-0.002l0.124-0.005zM20.549 15.541c0.007 0.022 0.030 0.030 0.049 0.036 0.034 0.012 0.071 0.023 0.096 0.051 0.014 0.016 0.023 0.038 0.022 0.060s-0.021 0.039-0.041 0.044c-0.010 0.003-0.021 0.005-0.033 0.005-0.016 0-0.031-0.003-0.045-0.010l0.001 0c-0.012-0.005-0.007 0.021-0.022 0.012-0.011-0.008-0.007-0.025-0.013-0.036-0.006-0.017-0.012-0.032-0.018-0.045l0.001 0.002c0.001-0.014 0.021-0.007 0.022 0.004 0.015 0.026 0.041 0.050 0.073 0.050 0.016 0 0.036-0.008 0.037-0.026 0-0.024-0.019-0.042-0.038-0.053-0.028-0.015-0.061-0.019-0.089-0.036-0.025-0.015-0.042-0.042-0.042-0.071 0.001-0.019 0.016-0.035 0.034-0.040 0.012-0.004 0.025-0.007 0.039-0.007 0.011 0 0.022 0.002 0.032 0.004l-0.001-0c0.011 0.006 0.015-0.012 0.026-0.003 0.005 0.009 0.004 0.020 0.009 0.030 0.004 0.013 0.012 0.024 0.015 0.037-0.007 0.011-0.021 0.001-0.023-0.009-0.010-0.016-0.023-0.034-0.044-0.036-0.015-0.001-0.035-0.001-0.045 0.013-0.004 0.007-0.004 0.016-0.001 0.023zM20.846 15.468c0.015-0.003 0.015 0.014 0.019 0.023 0.004 0.012 0.009 0.023 0.013 0.036-0.006 0.013-0.022 0.001-0.024-0.009-0.006-0.012-0.015-0.025-0.030-0.025-0.018-0-0.036 0.001-0.055 0.003-0.010 0.004-0 0.017 0.001 0.025 0.007 0.020 0.013 0.040 0.021 0.060 0.012-0.001 0.026-0 0.036-0.008 0.009-0.009-0.009-0.027 0.006-0.031 0.017-0.002 0.015 0.020 0.019 0.030 0.004 0.020 0.015 0.038 0.021 0.057-0.006 0.014-0.024 0-0.024-0.011-0.005-0.015-0.021-0.018-0.035-0.016-0.008-0-0.019-0.001-0.012 0.009 0.008 0.022 0.014 0.046 0.024 0.067 0.005 0.013 0.020 0.015 0.032 0.014 0.017-0.001 0.038 0.001 0.051-0.013 0.011-0.010 0.002-0.026 0.004-0.038 0.011-0.009 0.023 0.003 0.022 0.015 0.003 0.015 0.007 0.031 0.012 0.045-0.002 0.009-0.013 0.006-0.020 0.007-0.045 0.003-0.091 0.006-0.136 0.010-0.012-0.001-0.030 0.010-0.038-0.004-0.007-0.017 0.020-0.009 0.024-0.022s-0.004-0.026-0.008-0.038c-0.015-0.044-0.029-0.087-0.045-0.131-0.005-0.014-0.015-0.029-0.031-0.030-0.011 0.002-0.026-0.006-0.019-0.018 0.015-0.003 0.032-0.001 0.047-0.003l0.123-0.009zM21.032 15.652c0.004 0.014 0.012 0.028 0.027 0.031 0.011 0.004 0.030-0.003 0.033 0.013-0.001 0.015-0.022 0.007-0.032 0.009-0.004-0-0.010-0-0.015-0-0.019 0-0.037 0.002-0.055 0.005l0.002-0c-0.010 0.001-0.024 0.005-0.027-0.008-0.002-0.015 0.021-0.007 0.026-0.018 0.004-0.012-0.003-0.023-0.006-0.034-0.015-0.045-0.029-0.089-0.045-0.134-0.005-0.013-0.012-0.030-0.028-0.031-0.010-0-0.028-0.001-0.025-0.016 0.008-0.007 0.022-0.002 0.032-0.004 0.032 0.001 0.064-0.009 0.097-0.006s0.066 0.023 0.077 0.055c0.007 0.018 0.010 0.041-0.004 0.057-0.017 0.020-0.045 0.024-0.070 0.028-0.009-0.001-0.002 0.008-0.001 0.013 0.005 0.014 0.009 0.028 0.014 0.042zM21.007 15.575c0.009 0.001 0.020-0.001 0.030-0.004 0.014-0.003 0.021-0.018 0.018-0.031-0.004-0.019-0.010-0.038-0.024-0.052-0.014-0.011-0.033-0.012-0.049-0.007-0.006 0.005 0 0.014 0.002 0.021 0.008 0.024 0.016 0.049 0.024 0.073zM21.28 15.639c0.004 0.011 0.008 0.027 0.022 0.029 0.011 0.002 0.029-0.002 0.031 0.014-0.003 0.012-0.020 0.005-0.029 0.007-0.024-0.002-0.048 0.001-0.071 0.005-0.010 0.003-0.024-0.001-0.022-0.014 0.006-0.009 0.029-0.002 0.029-0.018-0.002-0.017-0.010-0.034-0.015-0.050-0.014-0.043-0.028-0.086-0.042-0.129-0.003-0.014-0.019-0.013-0.030-0.012s-0.028 0.002-0.031 0.016c-0.004 0.011 0.002 0.024-0.001 0.035-0.011 0.007-0.021-0.004-0.020-0.015-0.004-0.017-0.010-0.032-0.016-0.046l0.001 0.002c-0-0.011 0.014-0.010 0.021-0.011 0.061-0.004 0.123-0.008 0.184-0.011 0.013-0.002 0.022 0.008 0.021 0.021 0.004 0.015 0.010 0.029 0.015 0.043-0.003 0.013-0.022 0.006-0.022-0.005-0.008-0.016-0.020-0.033-0.039-0.034-0.012-0-0.028-0.003-0.038 0.005-0.002 0.009 0.003 0.018 0.006 0.027 0.016 0.047 0.031 0.095 0.046 0.142zM21.373 15.492c-0.005-0.014-0.010-0.031-0.025-0.035-0.011-0.003-0.029 0-0.028-0.016 0.004-0.009 0.019-0.004 0.027-0.005 0.027 0.001 0.053-0.003 0.079-0.005 0.012-0.005 0.021 0.019 0.007 0.019-0.011 0-0.024 0.008-0.020 0.021 0.006 0.024 0.014 0.046 0.022 0.070 0.011 0.033 0.021 0.065 0.032 0.098 0.003 0.010 0.011 0.019 0.022 0.020s0.029 0.002 0.026 0.017c-0.008 0.007-0.021 0.003-0.032 0.004-0.024-0.002-0.048 0.002-0.071 0.005-0.010 0.004-0.024-0.006-0.017-0.017 0.009-0.004 0.029-0.002 0.027-0.017-0.003-0.018-0.011-0.036-0.016-0.053l-0.033-0.104zM21.629 15.421c0.014-0.003 0.015 0.014 0.018 0.023 0.003 0.012 0.009 0.024 0.012 0.036-0.006 0.013-0.022 0.001-0.024-0.010-0.006-0.012-0.015-0.026-0.030-0.025-0.003-0-0.006-0-0.009-0-0.016 0-0.032 0.001-0.047 0.003l0.002-0c-0.010 0.004-0.001 0.017 0.001 0.025 0.007 0.020 0.012 0.041 0.020 0.060 0.012-0 0.026 0 0.036-0.007 0.009-0.009-0.008-0.027 0.007-0.031 0.017-0.002 0.015 0.020 0.019 0.031 0.004 0.020 0.014 0.038 0.020 0.057-0.005 0.013-0.023 0.002-0.023-0.010-0.004-0.014-0.019-0.020-0.033-0.019-0.006 0.001-0.022-0.003-0.016 0.008 0.008 0.023 0.014 0.047 0.024 0.069 0.005 0.013 0.020 0.016 0.032 0.015 0.017-0.001 0.038 0.002 0.052-0.011 0.011-0.010 0.002-0.026 0.005-0.038 0.011-0.009 0.023 0.003 0.022 0.016 0.003 0.018 0.007 0.033 0.012 0.048l-0.001-0.003c-0.002 0.009-0.012 0.006-0.019 0.007-0.046 0.003-0.092 0.004-0.137 0.008-0.012-0.001-0.029 0.009-0.037-0.003-0.010-0.017 0.017-0.011 0.023-0.022 0.006-0.012-0.002-0.024-0.005-0.036-0.014-0.044-0.028-0.089-0.043-0.133-0.005-0.014-0.014-0.031-0.031-0.032-0.011 0.002-0.026-0.006-0.019-0.018 0.015-0.003 0.031-0.001 0.047-0.002 0.042-0.002 0.083-0.004 0.125-0.007zM21.718 15.464c-0.003-0.016-0.015-0.030-0.033-0.028-0.017 0.004-0.022-0.025-0.001-0.019 0.023 0 0.046-0.003 0.068 0.002 0.011 0.012 0.019 0.026 0.029 0.038l0.096 0.129c-0.007 0.002-0.002-0.008-0.002-0.013l0.016-0.157c0.012-0.010 0.032-0.006 0.048-0.009 0.013-0.002 0.041-0.006 0.033 0.016-0.015 0.002-0.034 0.010-0.024 0.029 0.016 0.053 0.033 0.106 0.050 0.159 0.003 0.019 0.022 0.024 0.038 0.023 0.014 0.001 0.015 0.025-0.002 0.019-0.026-0.001-0.053-0.002-0.079 0.003-0.012 0.004-0.036 0.003-0.028-0.016 0.013-0.002 0.035-0.006 0.026-0.025-0.014-0.047-0.029-0.094-0.044-0.141 0.003 0.004-0 0.011-0 0.017-0.004 0.044-0.010 0.088-0.013 0.132-0.002 0.012 0.002 0.025-0.003 0.035-0.010 0.005-0.017-0.005-0.022-0.012l-0.127-0.164c0.004-0.002 0.004 0.009 0.006 0.013 0.014 0.043 0.026 0.086 0.041 0.128 0.004 0.017 0.022 0.022 0.038 0.022 0.017 0.009 0.004 0.024-0.010 0.018-0.022-0.003-0.044 0.001-0.066 0.004-0.014-0-0.015-0.023 0.001-0.020 0.021 0 0.014-0.023 0.010-0.036-0.015-0.049-0.030-0.097-0.045-0.146-0 0 0-0 0.001-0l0.001-0zM22.107 15.502c0.003 0.010 0.016 0.003 0.023 0.004 0.013-0.001 0.028-0.008 0.028-0.022 0-0.019-0.007-0.040-0.022-0.053-0.015-0.011-0.034-0.010-0.052-0.008-0.002 0.006 0.003 0.013 0.004 0.020l0.018 0.059zM22.128 15.573c0.006 0.015 0.009 0.033 0.020 0.045 0.011 0.008 0.025 0.005 0.037 0.004s0.022-0.010 0.020-0.022c-0.001-0.027-0.014-0.056-0.040-0.066-0.015-0.006-0.032-0.006-0.048-0.004-0.005 0.004 0.002 0.013 0.002 0.019 0.002 0.008 0.005 0.016 0.007 0.025zM22.050 15.466c-0.005-0.015-0.010-0.034-0.026-0.041-0.010-0.004-0.029 0.001-0.029-0.015 0.004-0.013 0.024-0.004 0.034-0.006 0.039 0 0.080-0.010 0.118 0.003 0.031 0.008 0.057 0.036 0.057 0.069-0 0.018-0.015 0.032-0.031 0.038-0.001-0.006 0.016 0.003 0.022 0.004 0.023 0.008 0.045 0.025 0.054 0.049 0.008 0.018 0.012 0.042-0.002 0.059-0.016 0.018-0.042 0.019-0.065 0.020-0.035 0-0.070-0.001-0.105 0.005-0.013 0.002-0.018-0.022-0.002-0.020 0.016 0 0.020-0.017 0.014-0.029l-0.041-0.135zM22.272 15.458c-0.005-0.015-0.010-0.034-0.026-0.042-0.011-0.004-0.031 0.001-0.030-0.016 0.009-0.011 0.029-0.002 0.042-0.005 0.030 0 0.060-0.006 0.090-0.002 0.035 0.004 0.069 0.029 0.077 0.064 0.006 0.019 0.002 0.042-0.016 0.053-0.004 0.004-0.023 0.009-0.020 0.008 0.027 0.011 0.050 0.031 0.063 0.057 0.007 0.012 0.011 0.026 0.021 0.035 0.012 0.009 0.013-0.007 0.015-0.015 0.016-0.008 0.023 0.014 0.017 0.026-0.007 0.019-0.030 0.022-0.047 0.018-0.015-0.003-0.027-0.015-0.034-0.029-0.015-0.024-0.025-0.052-0.046-0.072-0.010-0.009-0.025-0.014-0.038-0.009-0.003 0.006 0.002 0.013 0.003 0.019 0.006 0.017 0.009 0.036 0.017 0.052 0.007 0.015 0.024 0.018 0.039 0.018s0.015 0.025-0.001 0.019c-0.027-0-0.054-0.003-0.081 0.002-0.010-0-0.024 0.006-0.030-0.004-0.009-0.019 0.019-0.010 0.025-0.021 0.004-0.012-0.003-0.025-0.006-0.037-0.012-0.040-0.024-0.081-0.036-0.121zM22.33 15.499c0.004 0.015 0.025 0.007 0.036 0.006 0.013-0.001 0.020-0.014 0.018-0.027-0.003-0.020-0.009-0.042-0.024-0.056-0.014-0.010-0.032-0.010-0.048-0.007-0.007 0.006-0.001 0.015 0.001 0.022l0.018 0.061zM22.637 15.386c0.014-0.002 0.015 0.013 0.017 0.023 0.003 0.013 0.008 0.024 0.011 0.037-0.006 0.011-0.022 0.001-0.023-0.009-0.006-0.012-0.013-0.026-0.028-0.027-0.008-0.001-0.017-0.001-0.027-0.001-0.011 0-0.021 0-0.032 0.001l0.001-0c-0.010 0.004-0.001 0.017-0 0.025 0.006 0.020 0.011 0.041 0.018 0.060 0.012 0 0.024 0 0.035-0.005 0.012-0.007-0.005-0.026 0.008-0.031 0.017-0.004 0.016 0.018 0.019 0.028 0.003 0.021 0.013 0.039 0.018 0.060-0.006 0.013-0.024 0.001-0.023-0.010-0.004-0.013-0.017-0.020-0.030-0.020-0.006 0.001-0.025-0.005-0.019 0.006 0.007 0.023 0.012 0.047 0.022 0.070 0.005 0.013 0.020 0.016 0.032 0.016 0.018-0 0.038 0.003 0.053-0.010 0.012-0.010 0.003-0.026 0.006-0.037 0.011-0.008 0.023 0.004 0.022 0.016 0.002 0.015 0.006 0.030 0.009 0.045-0.002 0.009-0.013 0.006-0.020 0.006-0.046 0.001-0.092 0.001-0.138 0.003-0.012-0.001-0.027 0.007-0.036-0.002-0.012-0.017 0.013-0.014 0.021-0.021 0.008-0.010 0.001-0.023-0.001-0.034-0.013-0.045-0.026-0.091-0.039-0.137-0.004-0.014-0.012-0.030-0.028-0.032-0.011 0-0.027-0.004-0.022-0.018 0.013-0.005 0.029-0 0.043-0.002 0.044-0.001 0.088-0.002 0.131-0.002zM21.178 15.97c-0.004-0.016-0.010-0.038-0.029-0.042-0.011 0-0.029-0.003-0.022-0.017 0.014-0.005 0.030-0.001 0.045-0.003 0.036-0.002 0.073-0.011 0.11-0.001 0.053 0.012 0.099 0.053 0.115 0.105 0.010 0.032 0.012 0.071-0.010 0.099-0.023 0.030-0.063 0.038-0.098 0.038-0.027-0-0.055-0-0.082 0.005-0.011 0.006-0.028-0.004-0.019-0.016 0.011-0.003 0.030-0.007 0.026-0.023-0.004-0.023-0.011-0.045-0.016-0.068-0.006-0.026-0.013-0.052-0.019-0.077zM21.251 16.078c0.004 0.014 0.006 0.032 0.018 0.042 0.012 0.007 0.027 0.004 0.041 0.003 0.021-0.003 0.036-0.021 0.040-0.041 0.006-0.034-0.004-0.068-0.017-0.099-0.012-0.027-0.036-0.048-0.064-0.054-0.017-0.003-0.035-0.005-0.051-0.002-0.004 0.005 0.001 0.012 0.002 0.018l0.033 0.133zM21.565 15.881c0.014-0.003 0.014 0.014 0.016 0.023 0.003 0.012 0.007 0.024 0.009 0.036-0.006 0.012-0.022 0.003-0.022-0.008-0.005-0.011-0.012-0.026-0.026-0.026-0.003-0-0.006-0-0.009-0-0.017 0-0.033 0.001-0.050 0.003l0.002-0c-0.010 0.004-0.002 0.017-0.001 0.025 0.005 0.020 0.009 0.040 0.015 0.060 0.012-0.001 0.026-0 0.036-0.008s-0.006-0.027 0.009-0.031c0.017-0.002 0.013 0.020 0.016 0.031 0.002 0.020 0.011 0.038 0.015 0.057-0.005 0.013-0.024 0.003-0.023-0.009-0.003-0.014-0.018-0.020-0.031-0.019-0.007 0.001-0.022-0.003-0.017 0.008 0.006 0.023 0.010 0.047 0.018 0.069 0.004 0.013 0.019 0.016 0.031 0.015 0.019-0.001 0.040 0.001 0.054-0.014 0.011-0.010 0.001-0.027 0.008-0.037 0.013-0.007 0.022 0.006 0.020 0.018 0.001 0.015 0.004 0.029 0.007 0.044-0.003 0.009-0.014 0.006-0.021 0.007-0.046 0.003-0.091 0.005-0.137 0.009-0.011-0-0.024 0.007-0.035 0.001-0.011-0.012 0.004-0.018 0.014-0.020 0.013-0.004 0.012-0.020 0.008-0.030-0.012-0.048-0.023-0.096-0.035-0.144-0.004-0.013-0.011-0.030-0.027-0.031-0.011 0.001-0.027-0.004-0.021-0.017 0.013-0.005 0.029-0.001 0.043-0.003 0.043-0.003 0.087-0.005 0.13-0.008zM21.853 16.064c0.002 0.014 0.013 0.025 0.026 0.028 0.011 0.004 0.027-0.002 0.033 0.011 0.004 0.016-0.017 0.010-0.026 0.011-0.026-0-0.051-0.001-0.076 0.003-0.013 0.001-0.025 0.004-0.038 0.003-0.012-0.005-0.007-0.022 0.007-0.020 0.012-0.003 0.028-0.006 0.031-0.020 0.001-0.012-0.004-0.023-0.006-0.035-0.010-0.041-0.019-0.082-0.029-0.123-0.001-0.015-0.017-0.015-0.028-0.013-0.010 0-0.026 0.007-0.029-0.007-0.002-0.015 0.021-0.012 0.030-0.018 0.016-0.006 0.033-0.012 0.049-0.017 0.009-0.002 0.013 0.007 0.014 0.014l0.042 0.183zM22.017 15.916c-0.003-0.016-0.012-0.035-0.031-0.037-0.013-0.002-0.030 0.001-0.035 0.015-0.001 0.003-0.002 0.007-0.002 0.011 0 0.014 0.007 0.027 0.018 0.034l0 0c0.012 0.009 0.026 0.014 0.040 0.020 0.003-0.005 0.011-0.016 0.011-0.025 0-0.001 0-0.003 0-0.004 0-0.005-0.001-0.010-0.002-0.015l0 0zM22.054 16.045c-0.005-0.022-0.025-0.034-0.044-0.042-0.008-0.001-0.020-0.012-0.025-0.008-0.014 0.012-0.020 0.032-0.014 0.049 0.005 0.021 0.021 0.043 0.045 0.044 0.015 0.002 0.034-0.005 0.038-0.021 0.001-0.004 0.002-0.008 0.002-0.012s-0-0.008-0.001-0.011l0 0zM22.094 16.035c0.006 0.021-0.003 0.045-0.021 0.058-0.026 0.018-0.060 0.019-0.090 0.010-0.026-0.008-0.048-0.029-0.053-0.057-0.005-0.022 0.004-0.046 0.023-0.058 0.004-0.004 0.022-0.006 0.008-0.010-0.022-0.011-0.044-0.029-0.049-0.054-0.005-0.022 0.005-0.046 0.025-0.057 0.038-0.021 0.093-0.009 0.115 0.030 0.010 0.016 0.012 0.038 0 0.054-0.006 0.009-0.014 0.017-0.025 0.020 0.022 0.004 0.041 0.018 0.054 0.035 0.006 0.008 0.010 0.018 0.013 0.028zM22.239 16.060c0.011 0 0.022-0.006 0.024-0.017 0.004-0.009-0.004-0.027 0.011-0.026 0.014 0.001 0.012 0.017 0.014 0.027 0.001 0.018-0 0.039-0.015 0.051-0.011 0.007-0.025 0.004-0.037 0.004-0.025-0.001-0.050-0.006-0.075-0.003-0.011 0.001-0.022 0.013-0.032 0.004-0.009-0.010-0.003-0.023-0-0.034 0.009-0.027 0.028-0.050 0.049-0.068 0.015-0.014 0.032-0.029 0.034-0.050 0-0.002 0-0.004 0-0.007 0-0.017-0.005-0.033-0.014-0.046l0 0c-0.013-0.020-0.042-0.027-0.062-0.014-0.010 0.007-0.018 0.022-0.010 0.033 0.009 0.007 0.027 0.001 0.031 0.016 0.006 0.010-0 0.027-0.013 0.026-0.020 0.003-0.037-0.012-0.042-0.030-0.008-0.023 0.001-0.050 0.022-0.063 0.022-0.014 0.050-0.014 0.075-0.008s0.046 0.026 0.054 0.051c0.007 0.019 0.007 0.041-0.004 0.059-0.017 0.032-0.051 0.048-0.074 0.075-0.006 0.007-0.011 0.016-0.008 0.026 0.003-0.009 0.018-0.006 0.026-0.007 0.015-0.001 0.031 0.003 0.046 0.003zM22.414 16.041c0.002 0.014 0.012 0.026 0.026 0.028 0.010 0.004 0.025-0.001 0.032 0.010 0.006 0.015-0.015 0.013-0.024 0.012-0.026-0.001-0.053-0.002-0.079 0.001-0.013 0.001-0.026 0.004-0.038 0.002-0.012-0.006-0.006-0.022 0.007-0.020 0.012-0.002 0.028-0.005 0.032-0.019 0.002-0.012-0.003-0.023-0.005-0.035-0.009-0.041-0.017-0.082-0.026-0.123-0.001-0.013-0.014-0.015-0.024-0.014-0.011-0.001-0.025 0.007-0.032-0.004-0.008-0.016 0.015-0.015 0.025-0.020 0.018-0.005 0.036-0.012 0.054-0.017 0.009-0.002 0.013 0.007 0.014 0.014 0.013 0.061 0.025 0.122 0.038 0.183z"></path>
<path fill="#000" d="M21.147 12.418l-0.168 0.199c-0.053 0.233 0.079 0.408 0.34 0.561 0.211 0.131 0.602 0.164 0.726 0.058l-0.61-0.581-0.288-0.237z"></path>
<path fill="#448127" d="M22.381 18.412c-0.030-0.036-0.060-0.072-0.090-0.108-0.38 0.502-0.855 0.952-1.45 1.27 0.67-0.19 1.109-0.678 1.54-1.162zM21.695 19.999c0.236-0.479 0.521-0.958 0.809-1.436-0.049-0.061-0.080-0.1-0.112-0.137l0.016 0.020c-0.327 0.542-0.71 1.186-0.714 1.553zM23.55 14.91c-0.044-0.189-0.101-0.393-0.192-0.58-0.118-0.241-0.294-0.481-0.526-0.747-0.417-0.452-0.834-0.889-1.419-1.211l0.003-0.006 0.003 0.002h0.007l-0.007-0.009h0.021l-0.011-0.011h0.019l-0.016-0.018h0.020l-0.015-0.015h0.022l-0.012-0.016 0.018 0.001-0.017-0.017 0.024-0.005-0.020-0.012 0.021-0.004-0.018-0.012 0.026-0.008-0.023-0.014 0.029-0.013-0.028-0.020 0.030-0.010-0.032-0.013 0.027-0.014-0.032-0.006 0.022-0.025-0.031 0.002 0.014-0.027-0.030 0.002c-0.001-0.001-0.001-0.002-0.002-0.003l0.016-0.020-0.030 0.005 0.013-0.027-0.029 0.014 0.008-0.031-0.028 0.019 0.004-0.032-0.026 0.022 0.003-0.031-0.023 0.024 0.002-0.032-0.022 0.027-0.002-0.032-0.018 0.025-0.009-0.030-0.015 0.030-0.008-0.032-0.014 0.032-0.007-0.032-0.012 0.032-0.009-0.030-0.009 0.030-0.007-0.026-0.011 0.032-0.010-0.030-0.011 0.034-0.013-0.031-0.006 0.037-0.016-0.030-0.002 0.035-0.017-0.027-0.001 0.035-0.018-0.025 0.001 0.031-0.019-0.016 0.009 0.033-0.023-0.014 0.009 0.029-0.019-0.011 0.007 0.028-0.017-0.006 0.009 0.021-0.001 0.003-0.014-0.002 0.008 0.016c-0.017 0.046-0.018 0.101-0.016 0.156 0 0.010 0.026 0.021 0.030 0.027 0.012 0.019 0.010 0.029 0.010 0.029-0.071 0.115-0.134 0.203-0.141 0.335 0.057-0.072 0.116-0.16 0.198-0.16-0.041 0.068-0.060 0.274-0.014 0.306l0.034-0.060c0.001 0.048 0.008 0.080 0.017 0.103 0.014-0.029 0.029-0.056 0.043-0.077 0.003 0.067 0.012 0.121 0.031 0.147 0.019-0.033 0.045-0.053 0.072-0.070-0.009 0.038-0.023 0.074-0.017 0.12 0.029-0.049 0.057-0.078 0.086-0.112-0.017 0.070-0.002 0.123 0.019 0.201 0.018-0.092 0.025-0.102 0.067-0.141 0.005 0.085-0.012 0.161 0.006 0.209 0.039-0.074 0.065-0.064 0.088-0.112-0.005 0.070-0.019 0.146-0.001 0.209 0.015-0.063 0.055-0.096 0.086-0.119 0.003 0.098 0.025 0.082-0.036 0.164 0.026 0.012 0.113-0.017 0.16-0.037-0.023 0.052-0.016 0.093-0.039 0.13 0.048-0.024 0.089-0.063 0.129-0.103-0.018 0.060-0.068 0.12-0.043 0.18 0.011-0.056 0.057-0.102 0.1-0.111-0.007 0.031-0.011 0.097-0.057 0.128 0.109 0.011 0.151-0.062 0.206-0.12-0.007 0.060-0.005 0.109 0.069 0.194-0.015-0.108 0.011-0.086 0.060-0.151 0.024 0.095 0.051 0.197 0.15 0.267-0.041-0.101-0.049-0.153-0.025-0.216 0.013 0.065 0.075 0.144 0.090 0.206 0.009-0.069 0.020-0.135 0.043-0.18 0.029 0.078 0.053 0.159 0.060 0.249 0.022-0.045 0.039-0.090 0.052-0.137 0.877 0.917 1.073 2.082 0.112 3.313 0.345-0.233 0.434-0.603 0.626-0.918-0.187 0.413-0.271 0.877-0.601 1.219 0.319-0.276 0.387-0.528 0.579-0.794-0.205 0.556-0.488 1.164-0.881 1.722 0.070 0.076 0.14 0.153 0.21 0.231 0.061-0.102 0.122-0.203 0.182-0.304 0.416-0.686 1.096-1.667 0.752-3.162z"></path>
<path fill="#eac102" d="M21.029 12.235c-0.044 0.010-0.062 0.029-0.094 0.064 0.041 0.009 0.075 0.011 0.112 0.012 0.011-0.001 0.015-0.015 0.013-0.026l-0.006-0.042c-0.001-0.010-0.027-0.009-0.039-0.004l0.014-0.004z"></path>
<path fill="#a08307" d="M20.935 12.299c0.012-0.004 0.028-0.009 0.044-0.013l0.003-0.001c0.013-0.003 0.029-0.006 0.046-0.008l0.002-0c-0.012 0.004-0.028 0.009-0.044 0.013l-0.003 0.001c-0.013 0.003-0.029 0.006-0.046 0.008l-0.002 0z"></path>
<path fill="#000" d="M21.265 12.241c0 0.020-0.015 0.036-0.034 0.036s-0.034-0.016-0.034-0.036c0-0.020 0.015-0.036 0.034-0.036s0.034 0.016 0.034 0.036z"></path>
<path fill="#000" d="M21.253 12.234c0 0.009-0.007 0.016-0.015 0.016s-0.015-0.007-0.015-0.016c0-0.009 0.007-0.016 0.015-0.016s0.015 0.007 0.015 0.016z"></path>
<path fill="#34541f" d="M21.697 19.986c0.029-0.093 0.052-0.158 0.076-0.223l-0.009 0.025c0.035-0.094 0.062-0.157 0.090-0.22l-0.011 0.027c0.056-0.128 0.118-0.252 0.184-0.375 0.089-0.166 0.158-0.285 0.229-0.401l-0.022 0.039c0.075-0.127 0.111-0.185 0.147-0.243l-0.038 0.065 0.112-0.176-0.108 0.179c0.009-0.020-0.027 0.039-0.062 0.098l-0.045 0.082c-0.070 0.12-0.14 0.241-0.205 0.363-0.050 0.089-0.112 0.212-0.17 0.337l-0.015 0.037c-0.018 0.035-0.045 0.099-0.071 0.163l-0.010 0.029c-0.017 0.039-0.042 0.104-0.065 0.17l-0.008 0.026zM20.86 19.566c0.094-0.041 0.165-0.077 0.235-0.114l-0.018 0.009c0.087-0.046 0.155-0.086 0.222-0.128l-0.013 0.008c0.147-0.092 0.273-0.186 0.392-0.289l-0.004 0.004c0.122-0.104 0.237-0.218 0.345-0.336 0.049-0.054 0.101-0.113 0.151-0.174l0.007-0.008c0.052-0.062 0.102-0.125 0.151-0.188-0.060 0.081-0.108 0.143-0.158 0.204l0.010-0.013c-0.057 0.070-0.108 0.13-0.16 0.189l0.004-0.005c-0.108 0.121-0.22 0.232-0.34 0.335l-0.005 0.004c-0.115 0.099-0.243 0.193-0.377 0.276l-0.013 0.008c-0.054 0.034-0.123 0.073-0.193 0.11l-0.018 0.008c-0.051 0.027-0.123 0.061-0.197 0.093l-0.022 0.009zM22.517 18.262c0.034-0.048 0.066-0.097 0.098-0.146s0.063-0.099 0.093-0.149 0.12-0.202 0.176-0.305c0.017-0.024 0.073-0.126 0.127-0.228l0.040-0.082 0.163-0.312-0.078 0.158-0.079 0.157c-0.083 0.166-0.138 0.268-0.195 0.369l0.030-0.058c-0.075 0.137-0.134 0.236-0.196 0.334l0.017-0.030c-0.062 0.1-0.127 0.198-0.197 0.292zM22.778 17.146c0.071-0.084 0.14-0.177 0.202-0.275l0.006-0.010c0.056-0.087 0.113-0.188 0.162-0.294l0.007-0.016c0.099-0.214 0.171-0.44 0.221-0.67 0.006-0.029 0.013-0.058 0.018-0.086 0.013-0.073 0.024-0.163 0.030-0.254l0-0.009c0.008-0.117 0.008-0.236-0.001-0.353-0.010-0.13-0.030-0.249-0.058-0.364l0.003 0.015c-0.031-0.132-0.068-0.244-0.113-0.353l0.006 0.016c0.040 0.092 0.078 0.204 0.108 0.319l0.004 0.017c0.026 0.1 0.046 0.219 0.056 0.341l0.001 0.008c0.010 0.118 0.010 0.236 0.003 0.354-0.006 0.1-0.017 0.191-0.032 0.28l0.002-0.016c-0.010 0.055-0.017 0.084-0.023 0.114l0.005-0.027c-0.052 0.23-0.124 0.457-0.225 0.67-0.057 0.121-0.114 0.223-0.178 0.32l0.006-0.010c-0.070 0.107-0.14 0.199-0.215 0.286l0.003-0.003z"></path>
<path fill="#34541f" d="M22.705 16.892c0.082-0.078 0.154-0.166 0.218-0.26s0.119-0.193 0.169-0.294c0.049-0.102 0.093-0.206 0.135-0.312 0.021-0.053 0.041-0.106 0.060-0.159l0.015-0.040c0.005-0.013 0.009-0.027 0.013-0.040 0.008-0.027 0.016-0.054 0.026-0.081l-0 0.001c0.023-0.112 0.035-0.226 0.036-0.341 0-0.006 0-0.014 0-0.021 0-0.113-0.009-0.224-0.027-0.333l0.002 0.012c-0.018-0.113-0.044-0.225-0.077-0.335-0.040-0.135-0.079-0.243-0.122-0.348l0.009 0.024c0.036 0.081 0.076 0.188 0.111 0.298l0.007 0.025c0.030 0.092 0.057 0.205 0.077 0.32l0.002 0.015c0.018 0.113 0.028 0.228 0.027 0.343-0.001 0.122-0.013 0.24-0.037 0.354l0.002-0.012-0 0-0 0c-0.010 0.026-0.017 0.053-0.026 0.081-0.004 0.014-0.008 0.027-0.013 0.041l-0.015 0.040c-0.020 0.053-0.040 0.106-0.061 0.159-0.042 0.105-0.086 0.21-0.136 0.312s-0.106 0.201-0.171 0.294c-0.065 0.093-0.139 0.18-0.221 0.257z"></path>
<path fill="#34541f" d="M22.447 18.188c0.053-0.074 0.106-0.148 0.159-0.222l0.079-0.111c0.026-0.037 0.054-0.073 0.077-0.112 0.047-0.078 0.088-0.159 0.129-0.24s0.081-0.163 0.12-0.245 0.156-0.329 0.221-0.499c0.058-0.146 0.111-0.321 0.149-0.501l0.004-0.022c0.038-0.178 0.063-0.358 0.084-0.539 0.019-0.181 0.021-0.364 0.002-0.544-0.022-0.197-0.064-0.376-0.126-0.547l0.005 0.016c-0.060-0.172-0.139-0.337-0.227-0.496 0.089 0.159 0.169 0.323 0.231 0.494 0.058 0.154 0.101 0.334 0.122 0.521l0.001 0.011c0.020 0.181 0.018 0.365 0 0.546-0.020 0.181-0.045 0.362-0.082 0.54-0.043 0.203-0.096 0.378-0.163 0.546l0.008-0.023c-0.066 0.17-0.143 0.335-0.223 0.499-0.040 0.082-0.081 0.163-0.121 0.245s-0.082 0.163-0.13 0.24c-0.024 0.039-0.052 0.075-0.078 0.112l-0.080 0.111c-0.053 0.074-0.107 0.148-0.161 0.221z"></path>
<path fill="#34541f" d="M22.569 18.322c0.105-0.17 0.209-0.341 0.309-0.515s0.199-0.347 0.287-0.527c0.088-0.179 0.164-0.365 0.222-0.557 0.029-0.096 0.053-0.193 0.073-0.291 0.008-0.032 0.017-0.082 0.024-0.133l0.002-0.015c0.008-0.049 0.015-0.099 0.021-0.148 0.026-0.198 0.041-0.398 0.041-0.598s-0.016-0.4-0.053-0.597c-0.037-0.196-0.095-0.389-0.177-0.572-0.088-0.196-0.191-0.364-0.313-0.517l0.004 0.005c0.119 0.148 0.224 0.316 0.307 0.496l0.006 0.015c0.082 0.183 0.141 0.376 0.179 0.573s0.054 0.397 0.055 0.598c0.001 0.2-0.014 0.401-0.040 0.599-0.010 0.082-0.018 0.132-0.026 0.183l0.005-0.034c-0.010 0.065-0.019 0.116-0.030 0.165l0.003-0.017c-0.025 0.121-0.051 0.219-0.081 0.314l0.006-0.023c-0.058 0.192-0.135 0.378-0.224 0.557s-0.188 0.353-0.289 0.526c-0.101 0.173-0.207 0.343-0.313 0.512zM21.333 12.479c0.021-0.001 0.042 0.002 0.063 0.005s0.041 0.008 0.062 0.013c0.041 0.011 0.081 0.025 0.119 0.042 0.077 0.034 0.15 0.079 0.218 0.129 0.070 0.053 0.131 0.108 0.189 0.168l0.001 0.001c0.028 0.029 0.056 0.060 0.082 0.091l0.002 0.003c0.027 0.032 0.053 0.065 0.078 0.099-0.030-0.037-0.057-0.068-0.084-0.099l0.002 0.003c-0.028-0.032-0.057-0.062-0.086-0.092-0.059-0.060-0.122-0.116-0.19-0.166-0.062-0.048-0.133-0.091-0.208-0.127l-0.007-0.003c-0.038-0.018-0.077-0.033-0.118-0.045s-0.082-0.021-0.124-0.023z"></path>
<path fill="#448127" d="M22.061 12.959s0.136 0.080 0.21 0.197c0 0-0.21-0.039-0.359-0.207z"></path>
<path fill="#34541f" d="M22.061 12.959c0.021 0.012 0.041 0.025 0.061 0.039s0.039 0.029 0.057 0.046c0.018 0.016 0.035 0.033 0.052 0.052s0.031 0.038 0.044 0.058l0.006 0.010-0.011-0.002c-0.039-0.009-0.073-0.020-0.105-0.033l0.004 0.002c-0.037-0.015-0.068-0.030-0.098-0.048l0.003 0.002c-0.061-0.035-0.117-0.080-0.162-0.134 0.047 0.050 0.102 0.092 0.162 0.126l0.003 0.002c0.026 0.015 0.057 0.030 0.089 0.042l0.005 0.002c0.028 0.011 0.061 0.022 0.095 0.030l0.004 0.001-0.005 0.007c-0.014-0.022-0.028-0.040-0.043-0.058l0.001 0.001c-0.016-0.018-0.033-0.035-0.050-0.052s-0.035-0.031-0.053-0.046l-0.002-0.001c-0.017-0.014-0.036-0.028-0.055-0.041l-0.003-0.002z"></path>
<path fill="#448127" d="M21.759 12.92s0.321 0.205 0.368 0.221c0 0-0.071-0.155-0.224-0.221z"></path>
<path fill="#34541f" d="M21.759 12.92l0.184 0.111c0.031 0.019 0.061 0.037 0.092 0.055 0.015 0.009 0.031 0.018 0.046 0.027s0.031 0.018 0.047 0.024l-0.006 0.006c-0.013-0.026-0.027-0.048-0.042-0.069l0.001 0.001c-0.016-0.021-0.032-0.042-0.051-0.061s-0.038-0.036-0.059-0.052l-0.001-0.001c-0.021-0.016-0.044-0.030-0.069-0.041 0.027 0.011 0.050 0.024 0.072 0.039l-0.001-0.001c0.022 0.015 0.043 0.032 0.062 0.051s0.037 0.039 0.053 0.061c0.016 0.022 0.030 0.044 0.043 0.069l0.006 0.011-0.011-0.005c-0.034-0.015-0.064-0.034-0.095-0.052s-0.061-0.037-0.092-0.056c-0.086-0.054-0.145-0.093-0.203-0.132l0.023 0.015z"></path>
<path fill="#448127" d="M21.887 12.816s0.167 0.071 0.205 0.195c0 0-0.3-0.126-0.354-0.193z"></path>
<path fill="#34541f" d="M21.887 12.816c0.048 0.020 0.089 0.045 0.125 0.075l-0.001-0.001c0.019 0.016 0.036 0.033 0.050 0.052l0.001 0.001c0.015 0.020 0.027 0.042 0.034 0.065l0.003 0.010-0.009-0.004c-0.053-0.022-0.084-0.036-0.114-0.051l0.021 0.009c-0.044-0.020-0.074-0.035-0.103-0.050l0.012 0.006c-0.038-0.019-0.067-0.036-0.095-0.053l0.007 0.004c-0.014-0.009-0.029-0.018-0.042-0.028s-0.027-0.021-0.038-0.034c0.011 0.013 0.025 0.023 0.039 0.032s0.028 0.018 0.043 0.026 0.059 0.032 0.090 0.047c0.038 0.020 0.098 0.048 0.16 0.074l0.024 0.009-0.006 0.006c-0.008-0.024-0.019-0.045-0.033-0.063l0 0.001c-0.015-0.020-0.031-0.037-0.048-0.052l-0-0c-0.018-0.016-0.037-0.031-0.057-0.044s-0.041-0.026-0.063-0.037z"></path>
<path fill="#448127" d="M21.634 12.944s0.295 0.211 0.383 0.211c0 0-0.087-0.145-0.239-0.211z"></path>
<path fill="#34541f" d="M21.634 12.944c0.031 0.020 0.061 0.040 0.092 0.060s0.062 0.039 0.094 0.058c0.031 0.019 0.063 0.037 0.096 0.053 0.016 0.008 0.033 0.016 0.050 0.023s0.034 0.013 0.051 0.013l-0.004 0.007c-0.014-0.022-0.030-0.044-0.048-0.064s-0.036-0.040-0.055-0.058c-0.020-0.018-0.041-0.035-0.063-0.050-0.020-0.014-0.043-0.028-0.067-0.039l-0.003-0.001c0.050 0.020 0.096 0.050 0.137 0.086 0.020 0.018 0.040 0.037 0.057 0.058s0.034 0.042 0.049 0.065l0.005 0.007-0.008-0c-0.020-0-0.038-0.007-0.055-0.013-0.021-0.009-0.038-0.016-0.054-0.025l0.003 0.002c-0.040-0.021-0.071-0.039-0.102-0.058l0.006 0.004c-0.042-0.026-0.072-0.046-0.102-0.067l0.010 0.006c-0.038-0.026-0.067-0.047-0.096-0.069l0.006 0.005z"></path>
<path fill="#448127" d="M21.634 13.011s0.154 0.13 0.241 0.13c0 0-0.087-0.145-0.239-0.211z"></path>
<path fill="#34541f" d="M21.634 13.011c0.019 0.014 0.037 0.027 0.057 0.040s0.038 0.025 0.058 0.037c0.020 0.012 0.040 0.023 0.061 0.032 0.011 0.004 0.021 0.008 0.032 0.011s0.022 0.005 0.033 0.005l-0.004 0.007c-0.015-0.024-0.031-0.045-0.048-0.065l0.001 0.001c-0.017-0.020-0.036-0.040-0.055-0.058s-0.041-0.035-0.063-0.050c-0.020-0.014-0.043-0.028-0.067-0.039l-0.003-0.001c0.050 0.020 0.096 0.050 0.137 0.086 0.020 0.018 0.040 0.037 0.057 0.058s0.034 0.042 0.049 0.065l0.004 0.007h-0.008c-0.024-0-0.047-0.008-0.069-0.017-0.024-0.011-0.044-0.022-0.064-0.034l0.002 0.001c-0.020-0.012-0.039-0.026-0.057-0.040-0.020-0.015-0.037-0.030-0.054-0.045l0.001 0.001z"></path>
<path fill="#448127" d="M21.557 12.719s0.32 0.227 0.358 0.351c0 0-0.29-0.133-0.344-0.2z"></path>
<path fill="#34541f" d="M21.557 12.719c0.042 0.029 0.075 0.053 0.108 0.079l-0.005-0.004c0.038 0.029 0.070 0.056 0.101 0.083l-0.003-0.002c0.033 0.028 0.062 0.057 0.091 0.088l0.001 0.001c0.014 0.016 0.028 0.032 0.041 0.049s0.024 0.036 0.031 0.057l0.003 0.010-0.010-0.005c-0.050-0.023-0.080-0.038-0.109-0.053l0.019 0.009c-0.042-0.021-0.071-0.036-0.1-0.052l0.011 0.006c-0.036-0.020-0.065-0.037-0.092-0.055l0.006 0.004c-0.016-0.011-0.030-0.020-0.043-0.030l0.002 0.001c-0.013-0.010-0.026-0.021-0.036-0.034 0.011 0.013 0.024 0.022 0.038 0.032s0.028 0.018 0.042 0.027 0.058 0.033 0.087 0.049c0.037 0.021 0.096 0.050 0.155 0.078l0.024 0.010-0.007 0.006c-0.006-0.019-0.017-0.037-0.029-0.054-0.013-0.018-0.026-0.034-0.040-0.049l0 0c-0.028-0.031-0.059-0.060-0.090-0.089-0.029-0.026-0.060-0.053-0.092-0.079l-0.004-0.003c-0.026-0.022-0.059-0.048-0.092-0.073l-0.008-0.006z"></path>
<path fill="#406325" d="M19.779 19.126c-0.217 0.162-0.825 0.241-0.909 0.213 0.442-0.368 0.877-0.376 0.909-0.213zM22.879 19.323c0.233 0.212 0.938 0.358 1.043 0.332-0.469-0.479-0.982-0.527-1.043-0.332z"></path>
<path fill="#67923d" d="M19.777 19.125c-0.032-0.163-0.465-0.153-0.906 0.212 0.464-0.153 0.855-0.24 0.906-0.212zM22.884 19.321c0.061-0.196 0.569-0.148 1.038 0.332-0.528-0.223-0.975-0.36-1.038-0.332z"></path>
</svg>
