<!-- Generated by IcoMoon.io -->
<svg version="1.1" xmlns="http://www.w3.org/2000/svg" width="43" height="32" viewBox="0 0 43 32">
<title>HKD</title>
<path fill="#ba0000" d="M44.293 32.085h-45.836v-32.085h45.836z"></path>
<path fill="#fff" d="M20.723 15.529s-3.235-1.393-2.771-5.002c0.449-1.737 1.243-2.92 2.681-3.564 0.674-0.21 1.363-0.3 2.067-0.359-0.185 0.175-0.339 0.349-0.419 0.569-0.155 0.394-0.040 0.774 0.165 1.153 0.26 0.439 0.414 0.894 0.464 1.483 0.095 0.829-0.26 1.627-0.914 2.112-0.414 0.32-0.904 0.429-1.303 0.794-0.309 0.305-0.499 0.609-0.569 1.138-0.010 1.008 0.265 1.148 0.599 1.677z"></path>
<path fill="#ba0000" d="M20.109 10.307v-0.015"></path>
<path fill="#ba0000" d="M20.896 9.681l0.207 0.346-0.384-0.156-0.287 0.308 0.050-0.404-0.384-0.156 0.414-0.093 0.049-0.404 0.206 0.346 0.414-0.094z"></path>
<path fill="#fff" d="M20.998 15.29s0.384-3.501 3.971-4.115c1.793-0.079 3.156 0.333 4.193 1.519 0.398 0.583 0.686 1.215 0.949 1.871-0.221-0.125-0.434-0.222-0.667-0.234-0.422-0.032-0.752 0.188-1.054 0.495-0.344 0.377-0.733 0.658-1.282 0.878-0.765 0.334-1.632 0.229-2.287-0.255-0.427-0.303-0.675-0.738-1.141-1.013-0.382-0.207-0.729-0.299-1.255-0.211-0.967 0.286-1.020 0.589-1.428 1.064z"></path>
<path fill="#ba0000" d="M25.81 13.173l0.014-0.004"></path>
<path fill="#ba0000" d="M26.64 13.742l-0.27 0.299 0.037-0.412-0.378-0.184 0.401-0.070 0.036-0.413 0.211 0.369 0.401-0.071-0.271 0.299 0.211 0.368z"></path>
<path fill="#fff" d="M21.239 15.543s3.442-0.748 5.163 2.458c0.645 1.675 0.687 3.099-0.108 4.459-0.426 0.562-0.935 1.036-1.472 1.494 0.049-0.25 0.073-0.482 0.010-0.707-0.103-0.411-0.417-0.653-0.805-0.842-0.467-0.207-0.857-0.486-1.24-0.936-0.559-0.619-0.735-1.475-0.485-2.249 0.151-0.501 0.485-0.875 0.598-1.403 0.075-0.428 0.052-0.786-0.199-1.257-0.578-0.826-0.883-0.78-1.463-1.016z"></path>
<path fill="#ba0000" d="M24.775 19.434l0.009 0.012"></path>
<path fill="#ba0000" d="M24.499 20.401l-0.369-0.161 0.403-0.096 0.054-0.417 0.194 0.358 0.403-0.096-0.283 0.317 0.195 0.357-0.369-0.162-0.282 0.317z"></path>
<path fill="#fff" d="M21.162 15.898s1.684 3.093-0.909 5.645c-1.426 1.089-2.781 1.529-4.31 1.148-0.659-0.251-1.257-0.606-1.848-0.993 0.253-0.023 0.483-0.065 0.681-0.189 0.365-0.215 0.509-0.584 0.583-1.009 0.067-0.506 0.226-0.959 0.55-1.453 0.437-0.71 1.209-1.12 2.023-1.097 0.523 0.005 0.976 0.22 1.515 0.18 0.431-0.048 0.769-0.171 1.15-0.544 0.631-0.787 0.501-1.067 0.564-1.689z"></path>
<path fill="#ba0000" d="M18.42 20.384l-0.009 0.012"></path>
<path fill="#ba0000" d="M17.415 20.391l0.051-0.4 0.205 0.36 0.415-0.065-0.289 0.287 0.206 0.36-0.384-0.183-0.288 0.287 0.052-0.4-0.384-0.182z"></path>
<path fill="#fff" d="M20.78 15.831s-2.358 2.616-5.627 1.018c-1.501-0.983-2.367-2.115-2.515-3.683 0.018-0.706 0.154-1.387 0.323-2.073 0.106 0.231 0.222 0.434 0.404 0.58 0.324 0.273 0.72 0.286 1.145 0.214 0.499-0.105 0.979-0.105 1.553 0.036 0.815 0.176 1.458 0.768 1.707 1.543 0.169 0.495 0.116 0.994 0.333 1.489 0.189 0.391 0.417 0.668 0.895 0.904 0.952 0.333 1.172 0.118 1.781-0.029z"></path>
<path fill="#ba0000" d="M15.638 14.736l-0.014-0.005"></path>
<path fill="#ba0000" d="M15.297 13.789l0.394-0.085-0.271 0.313 0.199 0.37-0.366-0.177-0.271 0.313 0.045-0.422-0.367-0.176 0.394-0.084 0.044-0.423z"></path>
</svg>
