<!-- Generated by IcoMoon.io -->
<svg version="1.1" xmlns="http://www.w3.org/2000/svg" width="43" height="32" viewBox="0 0 43 32">
<title>HNL</title>
<path fill="#0073cf" d="M0 0h42.667v32h-42.667z"></path>
<path fill="#fff" d="M0 10.667h42.667v10.667h-42.667z"></path>
<path fill="#0073cf" d="M20.782 15.911l0.848 0.277-0.297-1.966z"></path>
<path fill="#0073cf" d="M21.884 15.911l-0.848 0.277 0.297-1.966z"></path>
<path fill="#0073cf" d="M21.248 15.448l-0.002 0.892 1.778-0.89z"></path>
<path fill="#0073cf" d="M21.588 16.497l-0.526-0.721 1.962-0.325z"></path>
<path fill="#0073cf" d="M21.078 16.497l0.526-0.721-1.962-0.325z"></path>
<path fill="#0073cf" d="M21.419 15.448l0.002 0.892-1.778-0.89z"></path>
<path fill="#0073cf" d="M21.831 15.748l-0.849 0.274 1.396 1.416z"></path>
<path fill="#0073cf" d="M20.94 16.396l0.523-0.723 0.916 1.765z"></path>
<path fill="#0073cf" d="M21.727 16.396l-0.523-0.723-0.916 1.765z"></path>
<path fill="#0073cf" d="M20.835 15.748l0.849 0.274-1.396 1.416z"></path>
<path fill="#0073cf" d="M8.868 2.486l0.032 0.010-0.011-0.074z"></path>
<path fill="#0073cf" d="M8.91 2.486l-0.032 0.010 0.011-0.074z"></path>
<path fill="#0073cf" d="M8.898 2.507l-0.020-0.027 0.074-0.012z"></path>
<path fill="#0073cf" d="M8.892 2.468l0 0.033-0.067-0.033z"></path>
<path fill="#0073cf" d="M8.874 2.504l0.020-0.027 0.034 0.066z"></path>
<path fill="#0073cf" d="M8.87 2.479l0.032 0.010-0.052 0.053z"></path>
</svg>
