<!-- Generated by IcoMoon.io -->
<svg version="1.1" xmlns="http://www.w3.org/2000/svg" width="43" height="32" viewBox="0 0 43 32">
<title>HTG</title>
<path fill="#d21034" d="M0 0h42.667v32h-42.667z"></path>
<path fill="#00209f" d="M0 0h42.667v16h-42.667z"></path>
<path fill="#fff" d="M16.286 11.977h10.095v8.036h-10.095z"></path>
<path fill="#016a16" d="M23.365 17.788l-2.060 0.060-2.051 0.023s-1.054 0.39-1.484 0.477c-0.429 0.087-0.374 0.228-0.706 0.303-0.266 0.059-0.297 0.078-0.453 0.089-0.094 0.006-0.211 0.079-0.325 0.159v1.115h10.095v-1.060c-0.109-0.060-0.214-0.101-0.32-0.137-0.148-0.050-0.248-0.106-0.514-0.165-0.332-0.074-0.276-0.215-0.706-0.303-0.431-0.087-1.475-0.56-1.475-0.56z"></path>
<path fill="#f1b517" d="M20.75 15.308l0.149-0.004 0.273 1.146-0.058 0.361-0.363-1.504z"></path>
<path fill="#fff" d="M20.593 14.544l0.102 0.884 0.109-0.007-0.211-0.877z"></path>
<path fill="#f1b517" d="M20.877 16.49l-0.458-1.231 0.171-0.010 0.534 1.504-0.247-0.263z"></path>
<path fill="#fff" d="M20.205 14.558l0.189 0.855h0.153l-0.342-0.855z"></path>
<path fill="#f1b517" d="M20.47 16.058l-0.269-0.579 0.116-0.025 0.491 0.961-0.338-0.358z"></path>
<path fill="#fff" d="M19.849 14.803l0.298 0.813h0.153l-0.451-0.813z"></path>
<path fill="#0a328c" d="M20.507 16.145l-1.22-1.332c-0.381 0.302-0.31 0.855-0.31 0.855l1.382 1.084 0.148-0.608z"></path>
<path fill="#d20014" d="M21.212 16.878l-0.905-0.917c-0.383 0.013-0.079 0.585-0.060 0.656l0.965 0.825v-0.564z"></path>
<path fill="#f1b517" d="M21.135 16.721l-1.871-2.003-0.073 0.052 1.98 2.2-0.036-0.248zM19.156 14.589l-0.041-0.048 0.004-0.095-0.386-0.246 0.172 0.388 0.131 0.024 0.041 0.048 0.078-0.071z"></path>
<path fill="#f1b517" d="M18.959 14.732c0.066-0.079 0.144-0.159 0.283-0.234l0.107 0.155-0.23 0.194-0.16-0.115z"></path>
<path fill="#0a328c" d="M18.753 15.070l0.063 0.109c0.039-0.014 0.43-0.369 0.43-0.369l0.281-0.009 0.081-0.089c-0.206-0.222-0.4 0.032-0.4 0.032l-0.454 0.326z"></path>
<path fill="#d20014" d="M18.977 15.254c0.015-0.098 0.2-0.343 0.227-0.351 0.139 0.042 0.268 0.122 0.409-0.196-0.122 0.156-0.37-0.003-0.37-0.003l-0.108 0.089 0.003 0.043-0.326 0.303 0.164 0.115z"></path>
<path fill="#0a328c" d="M19.974 16.498l-1.532-1.217c-0.262 0.267-0.044 1.091-0.044 1.091l1.498 0.812 0.079-0.686z"></path>
<path fill="#d20014" d="M21.244 17.484l-1.261-1.010c-0.43 0.060-0.092 0.694-0.066 0.764l1.331 0.722-0.004-0.476z"></path>
<path fill="#f1b517" d="M21.194 17.281l-2.726-2.046-0.063 0.063 2.863 2.235-0.074-0.252zM18.339 15.126l-0.049-0.040-0.013-0.094-0.425-0.177 0.24 0.354 0.134 0.002 0.049 0.040 0.064-0.083z"></path>
<path fill="#f1b517" d="M18.171 15.3c0.050-0.089 0.113-0.18 0.237-0.278l0.133 0.134-0.191 0.23-0.178-0.086z"></path>
<path fill="#0a328c" d="M18.019 15.642l0.017 0.113c0.036-0.020 0.38-0.397 0.38-0.397l0.276-0.051 0.056-0.089c-0.192-0.226-0.396 0.074-0.396 0.074l-0.333 0.35z"></path>
<path fill="#d20014" d="M18.237 15.845c-0.013-0.105 0.13-0.412 0.155-0.425 0.165 0.049 0.309 0.123 0.369-0.221-0.096 0.172-0.369 0.039-0.369 0.039l-0.092 0.105 0.013 0.057-0.278 0.359 0.202 0.086z"></path>
<path fill="#0a328c" d="M19.864 17.243c-0.020-0.005-1.975-1.114-1.975-1.114-0.142 0.24-0.014 0.589 0.049 0.643 0.004 0.16-0.064 0.246 0.075 0.58 0.041 0.217 0.142 0.417 0.288 0.536 0.178 0.684 0.877 0.73 1.146 0.173l0.417-0.819z"></path>
<path fill="#d20014" d="M21.158 17.975l-1.338-0.785c-0.43 0.060 0.009 0.859 0.035 0.929l1.292 0.459 0.011-0.604z"></path>
<path fill="#f1b517" d="M20.933 17.69l-3.024-1.61-0.052 0.072 3.19 1.776-0.114-0.238zM17.763 15.993l-0.055-0.032-0.028-0.091-0.448-0.111 0.294 0.313 0.132-0.019 0.055 0.032 0.050-0.092z"></path>
<path fill="#f1b517" d="M17.625 16.19c0.035-0.096 0.082-0.195 0.189-0.31l0.153 0.113-0.152 0.256-0.19-0.058z"></path>
<path fill="#0a328c" d="M17.504 16.553l0.063 0.125c0.033-0.025 0.32-0.488 0.32-0.488l0.266-0.087 0.050-0.108c-0.214-0.197-0.373 0.143-0.373 0.143l-0.326 0.416z"></path>
<path fill="#d20014" d="M17.789 16.729c-0.021-0.107 0.052-0.448 0.075-0.463 0.166 0.050 0.305 0.064 0.344-0.279-0.097 0.163-0.355 0.102-0.355 0.102l-0.076 0.116 0.016 0.041-0.22 0.421 0.216 0.064z"></path>
<path fill="#f1b517" d="M21.902 15.308l-0.149-0.004-0.273 1.146 0.058 0.361 0.363-1.504z"></path>
<path fill="#fff" d="M22.058 14.544l-0.102 0.884-0.109-0.007 0.211-0.877z"></path>
<path fill="#f1b517" d="M21.775 16.49l0.458-1.231-0.171-0.010-0.534 1.504 0.247-0.263z"></path>
<path fill="#fff" d="M22.447 14.558l-0.189 0.855h-0.153l0.342-0.855z"></path>
<path fill="#f1b517" d="M22.182 16.058l0.269-0.579-0.116-0.025-0.491 0.961 0.338-0.358z"></path>
<path fill="#fff" d="M22.803 14.803l-0.298 0.813h-0.153l0.451-0.813z"></path>
<path fill="#0a328c" d="M22.145 16.145l1.22-1.332c0.381 0.302 0.31 0.855 0.31 0.855l-1.382 1.084-0.148-0.608z"></path>
<path fill="#d20014" d="M21.44 16.878l0.905-0.917c0.383 0.013 0.079 0.585 0.060 0.656l-0.965 0.825v-0.564z"></path>
<path fill="#f1b517" d="M21.517 16.721l1.871-2.003 0.073 0.052-1.98 2.2 0.036-0.248zM23.496 14.589l0.041-0.048-0.004-0.095 0.386-0.246-0.172 0.388-0.131 0.024-0.041 0.048-0.078-0.071z"></path>
<path fill="#f1b517" d="M23.693 14.732c-0.066-0.079-0.144-0.159-0.283-0.234l-0.107 0.155 0.23 0.194 0.16-0.115z"></path>
<path fill="#0a328c" d="M23.899 15.070l-0.063 0.109c-0.039-0.014-0.43-0.369-0.43-0.369l-0.281-0.009-0.081-0.089c0.206-0.222 0.4 0.032 0.4 0.032l0.454 0.326z"></path>
<path fill="#d20014" d="M23.675 15.254c-0.015-0.098-0.2-0.343-0.227-0.351-0.139 0.042-0.268 0.122-0.409-0.196 0.122 0.156 0.37-0.003 0.37-0.003l0.108 0.089-0.003 0.043 0.326 0.303-0.164 0.115z"></path>
<path fill="#0a328c" d="M22.678 16.498l1.532-1.217c0.262 0.267 0.044 1.091 0.044 1.091l-1.498 0.812-0.079-0.686z"></path>
<path fill="#d20014" d="M21.407 17.484l1.261-1.010c0.43 0.060 0.092 0.694 0.066 0.764l-1.331 0.722 0.004-0.476z"></path>
<path fill="#f1b517" d="M21.457 17.281l2.726-2.046 0.063 0.063-2.863 2.235 0.074-0.252zM24.313 15.126l0.049-0.040 0.013-0.094 0.425-0.177-0.24 0.354-0.134 0.002-0.049 0.040-0.064-0.083z"></path>
<path fill="#f1b517" d="M24.481 15.3c-0.050-0.089-0.113-0.18-0.237-0.278l-0.133 0.134 0.191 0.23 0.178-0.086z"></path>
<path fill="#0a328c" d="M24.633 15.642l-0.017 0.113c-0.036-0.020-0.38-0.397-0.38-0.397l-0.276-0.051-0.056-0.089c0.192-0.226 0.396 0.074 0.396 0.074l0.333 0.35z"></path>
<path fill="#d20014" d="M24.415 15.845c0.013-0.105-0.13-0.412-0.155-0.425-0.165 0.049-0.309 0.123-0.369-0.221 0.096 0.172 0.369 0.039 0.369 0.039l0.092 0.105-0.013 0.057 0.278 0.359-0.202 0.086z"></path>
<path fill="#0a328c" d="M22.788 17.243c0.020-0.005 1.975-1.114 1.975-1.114 0.142 0.24 0.014 0.589-0.049 0.643-0.004 0.16 0.064 0.246-0.075 0.58-0.041 0.217-0.142 0.417-0.288 0.536-0.178 0.684-0.877 0.73-1.146 0.173l-0.417-0.819z"></path>
<path fill="#d20014" d="M21.494 17.975l1.338-0.785c0.43 0.060-0.009 0.859-0.035 0.929l-1.292 0.459-0.011-0.604z"></path>
<path fill="#f1b517" d="M21.719 17.69l3.024-1.61 0.052 0.072-3.19 1.776 0.114-0.238zM24.889 15.993l0.055-0.032 0.028-0.091 0.448-0.111-0.294 0.313-0.132-0.019-0.055 0.032-0.050-0.092z"></path>
<path fill="#f1b517" d="M25.027 16.19c-0.035-0.096-0.082-0.195-0.189-0.31l-0.153 0.113 0.152 0.256 0.19-0.058z"></path>
<path fill="#0a328c" d="M25.148 16.553l-0.063 0.125c-0.033-0.025-0.32-0.488-0.32-0.488l-0.266-0.087-0.050-0.108c0.214-0.197 0.373 0.143 0.373 0.143l0.326 0.416z"></path>
<path fill="#d20014" d="M24.863 16.729c0.021-0.107-0.052-0.448-0.075-0.463-0.166 0.050-0.305 0.064-0.344-0.279 0.097 0.163 0.355 0.102 0.355 0.102l0.076 0.116-0.016 0.041 0.22 0.421-0.216 0.064z"></path>
<path fill="#016a16" d="M21.201 13.398l-0.050 0.967h0.309l-0.045-0.959 0.322-0.045-0.036-0.382-0.801 0.031 0.004 0.347 0.296 0.041z"></path>
<path fill="#016a16" d="M21.314 13.002c-0.828-0.829-1.48-0.425-1.636-0.31 0.103 0.020 0.195-0.044 0.242-0.051-0.030 0.038-0.092 0.131-0.092 0.131s0.256-0.121 0.285-0.11c-0.037 0.029-0.078 0.1-0.078 0.1 0.019 0.007 0.163-0.113 0.191-0.115-0.044 0.050-0.058 0.163-0.058 0.163l0.125-0.058c0.033 0.023-0.009 0.067 0.019 0.065 0.207-0.017 0.499 0.189 0.539 0.253"></path>
<path fill="#016a16" d="M21.109 13.154c-0.086-0.198-1.663-0.534-1.98 0.026 0.124 0.031 0.243-0.104 0.243-0.104l-0.011 0.125 0.21-0.161-0.076 0.166 0.167-0.135-0.005 0.135 0.205-0.224-0.027 0.13 0.183-0.078-0.022 0.109"></path>
<path fill="#016a16" d="M21.039 13.185c-0.405-0.271-1.030-0.089-1.030-0.089-0.399 0.224-0.612 0.183-0.663 0.598 0.038-0.015 0.146-0.146 0.146-0.146l0.081 0.161 0.027-0.229 0.065 0.177 0.097-0.292 0.022 0.198 0.151-0.198 0.070 0.057 0.065-0.151 0.059 0.099s0.103-0.062 0.162-0.026l0.113-0.13 0.027 0.094 0.097-0.115 0.038 0.083 0.097-0.089-0.005 0.063 0.334 0.005"></path>
<path fill="#016a16" d="M20.947 13.232c-0.282-0.005-1.091 0.3-1.3 0.619 0.036-0.021 0.080-0.044 0.126-0.064l0.009-0.004 0.041 0.128 0.050-0.128 0.011 0.099c0.031-0.077 0.066-0.086 0.124-0.005l0.021-0.12 0.033 0.114 0.054-0.125s0.034 0.135 0.054 0.13c0 0 0.089-0.234 0.13-0.245l0.011 0.146 0.054-0.146 0.049 0.109 0.011-0.156 0.054 0.12s0.028-0.118 0.070-0.14l0.081 0.073 0.36-0.259"></path>
<path fill="#016a16" d="M21.001 13.299c-0.375 0.144-0.711 0.659-0.686 0.877 0.167-0.207 0.131-0.179 0.206 0.060 0 0 0.028-0.209 0.057-0.233l0.049 0.154 0.018-0.202 0.050 0.002-0.013-0.127 0.074 0.057c-0.017-0.072-0.036-0.097 0.041-0.159 0 0-0.098 0.012-0.021-0.164l0.072 0.069s-0.013-0.077 0.013-0.107l0.265-0.092"></path>
<path fill="#016a16" d="M21.038 13.338l-0.142 0.27 0.073 0.021-0.164 0.123 0.138-0.014s-0.211 0.077-0.236 0.284l0.215-0.095s-0.182 0.186-0.207 0.298l0.124-0.109s-0.12 0.13-0.102 0.326l0.091-0.102c-0.022 0.239-0.015 0.26 0.095 0.442 0 0-0.029-0.281 0.004-0.316l0.24 0.249-0.134-0.355s0.149 0.225 0.24 0.204l-0.189-0.288 0.186 0.151-0.211-0.316 0.196 0.060s-0.142-0.179-0.131-0.291l0.135 0.147s-0.051-0.169-0.036-0.218l0.069 0.014-0.135-0.154 0.091-0.018-0.011-0.102 0.066-0.021-0.004-0.112M21.18 13.418c-0.233 0.316-0.113 0.804-0.251 1.053"></path>
<path fill="#016a16" d="M21.338 13.002c0.828-0.829 1.48-0.425 1.636-0.31-0.103 0.020-0.195-0.044-0.242-0.051 0.030 0.038 0.092 0.131 0.092 0.131s-0.256-0.121-0.285-0.11c0.037 0.029 0.078 0.1 0.078 0.1-0.019 0.007-0.163-0.113-0.191-0.115 0.044 0.050 0.058 0.163 0.058 0.163l-0.125-0.058c-0.033 0.023 0.009 0.067-0.019 0.065-0.207-0.017-0.499 0.189-0.539 0.253"></path>
<path fill="#016a16" d="M21.543 13.154c0.086-0.198 1.663-0.534 1.98 0.026-0.124 0.031-0.243-0.104-0.243-0.104l0.011 0.125-0.21-0.161 0.076 0.166-0.167-0.135 0.005 0.135-0.205-0.224 0.027 0.13-0.183-0.078 0.022 0.109"></path>
<path fill="#016a16" d="M21.613 13.185c0.405-0.271 1.030-0.089 1.030-0.089 0.399 0.224 0.612 0.183 0.663 0.598-0.038-0.015-0.146-0.146-0.146-0.146l-0.081 0.161-0.027-0.229-0.065 0.177-0.097-0.292-0.022 0.198-0.151-0.198-0.070 0.057-0.065-0.151-0.059 0.099s-0.103-0.062-0.162-0.026l-0.113-0.13-0.027 0.094-0.097-0.115-0.038 0.083-0.097-0.089 0.005 0.063-0.334 0.005"></path>
<path fill="#016a16" d="M21.705 13.232c0.282-0.005 1.091 0.3 1.3 0.619-0.036-0.021-0.080-0.044-0.126-0.064l-0.009-0.004-0.041 0.128-0.050-0.128-0.011 0.099c-0.031-0.077-0.066-0.086-0.124-0.005l-0.021-0.12-0.033 0.114-0.054-0.125s-0.034 0.135-0.054 0.13c0 0-0.089-0.234-0.13-0.245l-0.011 0.146-0.054-0.146-0.049 0.109-0.011-0.156-0.054 0.12s-0.028-0.118-0.070-0.14l-0.081 0.073-0.36-0.259"></path>
<path fill="#016a16" d="M21.65 13.299c0.375 0.144 0.711 0.659 0.686 0.877-0.167-0.207-0.131-0.179-0.206 0.060 0 0-0.028-0.209-0.057-0.233l-0.049 0.154-0.018-0.202-0.050 0.002 0.013-0.127-0.074 0.057c0.017-0.072 0.036-0.097-0.041-0.159 0 0 0.098 0.012 0.021-0.164l-0.072 0.069s0.013-0.077-0.013-0.107l-0.265-0.092"></path>
<path fill="#016a16" d="M21.614 13.338l0.142 0.27-0.073 0.021 0.164 0.123-0.138-0.014s0.211 0.077 0.236 0.284l-0.215-0.095s0.182 0.186 0.207 0.298l-0.124-0.109s0.12 0.13 0.102 0.326l-0.091-0.102c0.022 0.239 0.015 0.26-0.095 0.442 0 0 0.029-0.281-0.004-0.316l-0.24 0.249 0.134-0.355s-0.149 0.225-0.24 0.204l0.189-0.288-0.186 0.151 0.211-0.316-0.196 0.060s0.142-0.179 0.131-0.291l-0.135 0.147s0.051-0.169 0.036-0.218l-0.069 0.014 0.135-0.154-0.091-0.018 0.011-0.102-0.066-0.021 0.004-0.112M21.472 13.418c0.233 0.316 0.113 0.804 0.251 1.053"></path>
<path fill="#f1b517" d="M21.434 17.764s0.127-1.061 0.127-1.517c0-0.359-0.087-1.156-0.087-1.156h-0.365s-0.055 0.793-0.047 1.151c0.011 0.457 0.127 1.522 0.127 1.522h0.245z"></path>
<path fill="#f1b517" d="M21.085 15.142h0.422l-0.050-0.284h-0.306l-0.067 0.284z"></path>
<path fill="#f1b517" d="M21.112 14.914h0.378l-0.071-0.284h-0.233l-0.074 0.284z"></path>
<path fill="#f1b517" d="M21.137 14.683h0.315l-0.053-0.284h-0.2l-0.061 0.284z"></path>
<path fill="#f1b517" d="M21.409 14.365h-0.22l-0.022 0.103h0.26l-0.018-0.103zM21.454 17.532h-0.279M21.469 17.325h-0.314M21.511 17.114h-0.398M21.531 16.884h-0.416M21.534 16.655h-0.438M21.551 16.445h-0.475M21.552 16.254h-0.496M21.549 16.023h-0.496M21.533 15.796h-0.479M21.511 15.564h-0.433M21.49 15.355h-0.392"></path>
<path fill="#0a328c" d="M21.324 12.698c-0.074-0.035-0.24-0.14-0.19-0.203l0.076-0.129c0.108-0.243-0.002-0.149-0.014-0.225-0.011-0.073 0.412-0.016 0.419 0.149 0.002 0.045-0.031 0.019-0.027 0.278l-0.081 0.156c-0.060 0.006-0.132-0.002-0.183-0.026z"></path>
<path fill="#f1b517" d="M21.375 13.326l-0.105-0.089 0.029-0.758 0.103 0.030-0.027 0.816z"></path>
<path fill="#d20014" d="M21.512 12.72c0.066-0.039 0.109-0.154 0.069-0.222-0.108-0.137-0.178-0.081-0.36-0.142-0.036 0.039-0.113 0.113-0.096 0.169 0.239 0.113 0.146 0.017 0.226 0.031 0.043 0.007 0.070 0.058 0.162 0.166z"></path>
<path fill="#f1b517" d="M20.11 17.094c-0.028-0.053-0.113-0.091-0.213-0.091s-0.184 0.038-0.212 0.091c-0.006-0.011-0.010-0.024-0.011-0.038v-0c0-0.071 0.1-0.129 0.223-0.129s0.223 0.058 0.223 0.129c0 0 0 0 0 0 0 0.014-0.004 0.027-0.010 0.039l0-0z"></path>
<path fill="#016a16" d="M20.092 17.253c0 0.139-0.087 0.251-0.194 0.251s-0.194-0.112-0.194-0.251v-0.136h0.388v0.136z"></path>
<path fill="#fff" d="M20.090 17.073c0 0.053-0.086 0.096-0.193 0.096s-0.193-0.043-0.193-0.096c0-0.053 0.086-0.096 0.193-0.096s0.193 0.043 0.193 0.096z"></path>
<path fill="#016a16" d="M19.853 17.181l-0.033-0.352h0.147l-0.024 0.352h-0.090z"></path>
<path fill="#016a16" d="M20.111 17.079c-0.028 0.053-0.113 0.091-0.213 0.091s-0.184-0.038-0.212-0.091c-0.006 0.011-0.010 0.024-0.011 0.038v0c0 0.071 0.1 0.129 0.223 0.129s0.223-0.058 0.223-0.129c0-0 0-0 0-0 0-0.014-0.004-0.027-0.010-0.039l0 0z"></path>
<path fill="#f1b517" d="M20.91 18.43l-0.753-0.234-0.328-0.56-1.162-0.057 0.040 0.42 0.99 0.19 0.094 0.169 1.138 0.317-0.019-0.244z"></path>
<path fill="#503200" d="M20.124 18.587l-1.189-1.749-0.058 0.044 1.18 1.757 0.068-0.051z"></path>
<path fill="#fff" d="M19.045 16.907l-0.127-0.212c-0.024-0.039-0.060-0.052-0.113-0.024-0.052 0.027-0.047 0.081-0.026 0.12l0.117 0.198 0.148-0.081z"></path>
<path fill="#f1b517" d="M20.265 17.507l-2.4-0.244-0.058 0.349 2.388 0.24 0.070-0.345z"></path>
<path fill="#f1b517" d="M17.823 17.173l-0.062 0.484h0.101l0.070-0.443-0.109-0.041zM18.223 17.252l-0.027 0.435 0.062 0.007 0.051-0.386-0.086-0.056zM19.849 17.439l-0.058 0.409 0.117-0.004 0.047-0.405h-0.105zM20.206 17.451l-0.083 0.473 0.132 0.019 0.038-0.249c0.011 0.050 0.057 0.088 0.111 0.088 0.063 0 0.114-0.049 0.114-0.11s-0.051-0.109-0.114-0.109c-0.044 0-0.083 0.026-0.1 0.073l0.025-0.177-0.123-0.008zM19.34 17.527l-0.33 0.371 0.038 0.045 0.424-0.289-0.132-0.127zM18.573 18.453l0.33-0.371-0.038-0.045-0.424 0.289 0.132 0.127zM19.437 18.361l-0.401-0.31-0.041 0.029 0.316 0.401 0.127-0.119zM18.447 17.644l0.407 0.3 0.049-0.037-0.319-0.401-0.138 0.138zM18.89 17.397l0.039 0.488 0.055-0.002 0.129-0.475-0.222-0.011zM19.023 18.58l-0.039-0.488-0.060-0.006-0.074 0.493h0.173zM19.563 17.923l-0.511 0.054-0.008 0.049 0.517 0.068 0.002-0.171zM18.346 18.092l0.499-0.079 0.011-0.039-0.516-0.058 0.007 0.175z"></path>
<path fill="#f1b517" d="M19.089 17.978c0 0.072-0.061 0.131-0.135 0.131s-0.135-0.058-0.135-0.131c0-0.072 0.061-0.131 0.135-0.131s0.135 0.058 0.135 0.131z"></path>
<path fill="#f1b517" d="M19.673 17.979c0-0.383-0.322-0.694-0.719-0.694s-0.719 0.311-0.719 0.694c0 0.383 0.322 0.694 0.719 0.694s0.719-0.311 0.719-0.694zM19.53 17.978c0 0.307-0.258 0.555-0.576 0.555s-0.576-0.249-0.576-0.555 0.258-0.555 0.576-0.555c0.318 0 0.576 0.249 0.576 0.556z"></path>
<path fill="#f1b517" d="M18.505 17.628l-0.113-0.085M19.31 17.546l0.096-0.098M19.516 18.421l-0.118-0.093M18.505 18.528l0.102-0.109M20.928 17.293l0.123 0.628-0.1 0.053-0.108-0.672 0.085-0.009z"></path>
<path fill="#fff" d="M20.863 17.212c-0.057-0.024-0.131 0.017-0.253-0.138-0.2 0.184-0.011 0.211 0.019 0.393 0.057 0.023 0.091-0.141 0.245-0.158 0.019-0.002 0.245-0.022 0.245-0.022l-0.057-0.077s-0.157 0.004-0.2 0.002z"></path>
<path fill="#fff" d="M20.945 17.335l-0.023-0.187c-0.025-0.066-0.107-0.009-0.107 0.029l0.021 0.173 0.108-0.015z"></path>
<path fill="#f1b517" d="M20.348 17.853l0.094-0-0.002 0.138c0.031-0.002 0.143 0.015 0.147 0.164l-0.001 0.263c-0.002 0.057-0.054 0.126-0.082 0.126l-0.103-0.004-0.004 0.121c0.021 0.025 0.077 0.044 0.119 0.059 0.079 0.030 0.047 0.082-0.112 0.117l-0.104-0.004c-0.135-0.034-0.138-0.085-0.109-0.112s0.092-0.028 0.113-0.062l-0.002-0.509c-0.002-0.062-0.011-0.105 0.047-0.124l-0.002-0.175zM20.522 18.144c0.002-0.043-0.059-0.081-0.084-0.082s-0.078 0.050-0.080 0.092v0.107c0.004 0.039 0.035 0.172 0.098 0.181 0.030 0.005 0.068-0.043 0.068-0.082l-0.002-0.217z"></path>
<path fill="#fff" d="M19.656 18.382c-0.068-0.027-0.067 0.125-0.067 0.125l0.107 0.001c0.047 0.021 0.084 0.090 0.055 0.124-0.025 0.028-0.232-0.047-0.246-0.004 0.037 0.207 0.311 0.287 0.411 0.196 0.097-0.089 0.122-0.325-0.194-0.387l-0.065-0.055zM19.719 18.438l-0.031 0.068"></path>
<path fill="#f1b517" d="M17.594 18.459l-0.103-0.432M17.719 18.434l-0.158-0.336M17.99 18.346l-0.356-0.191M18.144 18.307l-0.66-0.287"></path>
<path fill="#d20014" d="M17.090 17.708s-0.24-0.004-0.283 0.013c-0.017 0.007 0.060 0.088 0.044 0.119-0.060 0.116-0.469 0.1-0.501 0.074-0.055-0.043 0.381-0.080 0.383-0.11 0.003-0.034-0.065-0.122-0.054-0.176 0.014-0.070 0.191-0.097 0.191-0.097l0.22 0.177z"></path>
<path fill="#503200" d="M17.412 17.925l-0.544-0.45s-0.024-0.025-0.044-0.004c-0.020 0.021 0.007 0.046 0.007 0.046l0.561 0.464 0.020-0.056z"></path>
<path fill="#f1b517" d="M17.936 18.37c-0.010-0.009-0.443-0.385-0.443-0.385l-0.029-0.11s-0.067 0.045-0.092 0.069c-0.025 0.023-0.063 0.087-0.063 0.087l0.121 0.005 0.383 0.351 0.121-0.018z"></path>
<path fill="#f1b517" d="M19.549 18.886c0 0.042-0.035 0.076-0.079 0.076s-0.079-0.034-0.079-0.076c0-0.042 0.035-0.076 0.079-0.076s0.079 0.034 0.079 0.076z"></path>
<path fill="#f1b517" d="M19.347 18.743c0 0.042-0.035 0.076-0.079 0.076s-0.079-0.034-0.079-0.076c0-0.042 0.035-0.076 0.079-0.076s0.079 0.034 0.079 0.076z"></path>
<path fill="#f1b517" d="M19.075 18.837c0 0.042-0.035 0.076-0.079 0.076s-0.079-0.034-0.079-0.076c0-0.042 0.035-0.076 0.079-0.076s0.079 0.034 0.079 0.076z"></path>
<path fill="#f1b517" d="M18.655 18.927c0 0.042-0.035 0.076-0.079 0.076s-0.079-0.034-0.079-0.076c0-0.042 0.035-0.076 0.079-0.076s0.079 0.034 0.079 0.076z"></path>
<path fill="#f1b517" d="M18.478 18.948c0 0.042-0.035 0.076-0.079 0.076s-0.079-0.034-0.079-0.076c0-0.042 0.035-0.076 0.079-0.076s0.079 0.034 0.079 0.076z"></path>
<path fill="#f1b517" d="M18.302 18.948c0 0.042-0.035 0.076-0.079 0.076s-0.079-0.034-0.079-0.076c0-0.042 0.035-0.076 0.079-0.076s0.079 0.034 0.079 0.076z"></path>
<path fill="#f1b517" d="M18.125 18.943c0 0.042-0.035 0.076-0.079 0.076s-0.079-0.034-0.079-0.076c0-0.042 0.035-0.076 0.079-0.076s0.079 0.034 0.079 0.076z"></path>
<path fill="#f1b517" d="M18.211 18.808c0 0.042-0.035 0.076-0.079 0.076s-0.079-0.034-0.079-0.076c0-0.042 0.035-0.076 0.079-0.076s0.079 0.034 0.079 0.076z"></path>
<path fill="#f1b517" d="M18.383 18.816c0 0.042-0.035 0.076-0.079 0.076s-0.079-0.034-0.079-0.076c0-0.042 0.035-0.076 0.079-0.076s0.079 0.034 0.079 0.076z"></path>
<path fill="#f1b517" d="M18.548 18.795c0 0.042-0.035 0.076-0.079 0.076s-0.079-0.034-0.079-0.076c0-0.042 0.035-0.076 0.079-0.076s0.079 0.034 0.079 0.076z"></path>
<path fill="#f1b517" d="M18.464 18.663c0 0.042-0.035 0.076-0.079 0.076s-0.079-0.034-0.079-0.076c0-0.042 0.035-0.076 0.079-0.076s0.079 0.034 0.079 0.076z"></path>
<path fill="#f1b517" d="M18.302 18.66c0 0.042-0.035 0.076-0.079 0.076s-0.079-0.034-0.079-0.076c0-0.042 0.035-0.076 0.079-0.076s0.079 0.034 0.079 0.076z"></path>
<path fill="#f1b517" d="M19.89 18.985c0 0.030-0.070 0.018-0.070 0.050 0 0.033 0.082 0.027 0.121-0.002 0.021 0.066 0.109 0.071 0.168 0 0.051 0.043 0.105 0.063 0.196-0.002 0.023 0.041 0.108 0.075 0.162 0.001l0.031-0.001c0.032 0.065 0.125 0.078 0.18 0.018 0.017 0.025 0.053 0.022 0.084-0.003 0.037 0.053 0.103 0.042 0.133 0.006 0.009 0.044 0.098 0.062 0.122 0.015 0.011 0.043 0.084 0.033 0.084 0.006 0-0.034-0.049-0.021-0.049-0.048 0-0.030 0.067-0.020 0.067-0.050 0-0.030-0.051-0.035-0.083-0.005-0.047-0.029-0.083-0.059-0.119-0.020-0.040-0.044-0.135-0.064-0.172 0.003-0.021-0.027-0.050-0.035-0.070 0.002-0.049-0.051-0.112-0.068-0.183 0.002-0.037-0.053-0.145-0.068-0.188-0.021-0.074-0.067-0.15-0.070-0.211 0.021-0.043-0.019-0.073-0.066-0.144-0.002-0.017-0.039-0.142-0.071-0.142-0.027 0 0.039 0.082 0.025 0.082 0.059zM20.067 19.002c0 0.015-0.021 0.028-0.047 0.028s-0.047-0.012-0.047-0.028c0-0.015 0.021-0.028 0.046-0.028s0.046 0.013 0.046 0.028zM20.261 18.978c0 0.018-0.025 0.033-0.056 0.033s-0.056-0.015-0.056-0.033c0-0.018 0.025-0.033 0.056-0.033s0.056 0.015 0.056 0.033zM20.642 18.999c0 0.019-0.023 0.034-0.051 0.034s-0.051-0.015-0.051-0.034c0-0.019 0.023-0.034 0.051-0.034s0.051 0.015 0.051 0.034zM20.439 18.991c0 0.023-0.022 0.043-0.049 0.043s-0.049-0.019-0.049-0.043c0-0.023 0.022-0.043 0.049-0.043s0.049 0.019 0.049 0.043zM20.872 18.992c0 0.021-0.020 0.038-0.044 0.038s-0.044-0.017-0.044-0.038c0-0.021 0.020-0.038 0.044-0.038s0.044 0.017 0.044 0.038zM20.739 19.001c0 0.014-0.013 0.025-0.028 0.025s-0.029-0.011-0.029-0.025c0-0.014 0.013-0.025 0.029-0.025s0.028 0.011 0.028 0.025zM20.998 19.011c0 0.020-0.014 0.035-0.032 0.035s-0.032-0.016-0.032-0.035 0.014-0.035 0.032-0.035c0.018 0 0.032 0.016 0.032 0.035z"></path>
<path fill="#f1b517" d="M21.741 18.43l0.753-0.234 0.328-0.56 1.162-0.057-0.040 0.42-0.99 0.19-0.094 0.169-1.138 0.317 0.019-0.244z"></path>
<path fill="#503200" d="M22.528 18.587l1.189-1.749 0.058 0.044-1.18 1.757-0.068-0.051z"></path>
<path fill="#fff" d="M23.606 16.907l0.127-0.212c0.024-0.039 0.060-0.052 0.113-0.024 0.052 0.027 0.047 0.081 0.026 0.12l-0.117 0.198-0.148-0.081z"></path>
<path fill="#f1b517" d="M22.387 17.507l2.4-0.244 0.058 0.349-2.388 0.24-0.070-0.345z"></path>
<path fill="#f1b517" d="M24.829 17.173l0.062 0.484h-0.101l-0.070-0.443 0.109-0.041zM24.428 17.252l0.027 0.435-0.062 0.007-0.051-0.386 0.086-0.056zM22.803 17.439l0.058 0.409-0.117-0.004-0.047-0.405h0.105zM22.445 17.451l0.083 0.473-0.132 0.019-0.038-0.249c-0.011 0.050-0.057 0.088-0.111 0.088-0.063 0-0.114-0.049-0.114-0.11s0.051-0.109 0.114-0.109c0.044 0 0.083 0.026 0.1 0.073l-0.025-0.177 0.123-0.008zM23.311 17.527l0.33 0.371-0.038 0.045-0.424-0.289 0.132-0.127zM24.078 18.453l-0.33-0.371 0.038-0.045 0.424 0.289-0.132 0.127zM23.215 18.361l0.401-0.31 0.041 0.029-0.316 0.401-0.127-0.119zM24.205 17.644l-0.407 0.3-0.049-0.037 0.319-0.401 0.138 0.138zM23.762 17.397l-0.039 0.488-0.055-0.002-0.129-0.475 0.222-0.011zM23.629 18.58l0.039-0.488 0.060-0.006 0.074 0.493h-0.173zM23.089 17.923l0.511 0.054 0.008 0.049-0.517 0.068-0.002-0.171zM24.306 18.092l-0.499-0.079-0.011-0.039 0.516-0.058-0.007 0.175z"></path>
<path fill="#f1b517" d="M23.562 17.978c0 0.072 0.061 0.131 0.135 0.131s0.135-0.058 0.135-0.131c0-0.072-0.061-0.131-0.135-0.131s-0.135 0.058-0.135 0.131z"></path>
<path fill="#f1b517" d="M22.978 17.979c0-0.383 0.322-0.694 0.719-0.694s0.719 0.311 0.719 0.694c0 0.383-0.322 0.694-0.719 0.694s-0.719-0.311-0.719-0.694zM23.122 17.978c0 0.307 0.258 0.555 0.576 0.555s0.576-0.249 0.576-0.555-0.258-0.555-0.576-0.555c-0.318 0-0.576 0.249-0.576 0.556z"></path>
<path fill="#f1b517" d="M24.147 17.628l0.113-0.085M23.341 17.546l-0.096-0.098M23.135 18.421l0.118-0.093M24.147 18.528l-0.102-0.109M21.724 17.293l-0.123 0.628 0.1 0.053 0.108-0.672-0.085-0.009z"></path>
<path fill="#fff" d="M21.789 17.212c0.057-0.024 0.131 0.017 0.253-0.138 0.2 0.184 0.011 0.211-0.019 0.393-0.057 0.023-0.091-0.141-0.245-0.158-0.019-0.002-0.245-0.022-0.245-0.022l0.057-0.077s0.157 0.004 0.2 0.002z"></path>
<path fill="#fff" d="M21.707 17.335l0.023-0.187c0.025-0.066 0.107-0.009 0.107 0.029l-0.021 0.173-0.108-0.015z"></path>
<path fill="#f1b517" d="M22.303 17.853l-0.094-0 0.002 0.138c-0.031-0.002-0.143 0.015-0.147 0.164l0.001 0.263c0.002 0.057 0.054 0.126 0.082 0.126l0.103-0.004 0.004 0.121c-0.021 0.025-0.077 0.044-0.119 0.059-0.079 0.030-0.047 0.082 0.112 0.117l0.104-0.004c0.135-0.034 0.138-0.085 0.109-0.112s-0.092-0.028-0.113-0.062l0.002-0.509c0.002-0.062 0.011-0.105-0.047-0.124l0.002-0.175zM22.13 18.144c-0.002-0.043 0.059-0.081 0.084-0.082s0.078 0.050 0.080 0.092v0.107c-0.004 0.039-0.035 0.172-0.098 0.181-0.030 0.005-0.068-0.043-0.068-0.082l0.002-0.217z"></path>
<path fill="#fff" d="M22.996 18.382c0.068-0.027 0.067 0.125 0.067 0.125l-0.107 0.001c-0.047 0.021-0.084 0.090-0.055 0.124 0.025 0.028 0.232-0.047 0.246-0.004-0.037 0.207-0.311 0.287-0.411 0.196-0.097-0.089-0.122-0.325 0.194-0.387l0.065-0.055zM22.932 18.438l0.031 0.068"></path>
<path fill="#f1b517" d="M25.058 18.459l0.103-0.432M24.933 18.434l0.158-0.336M24.662 18.346l0.356-0.191M24.507 18.307l0.66-0.287"></path>
<path fill="#d20014" d="M25.562 17.708s0.24-0.004 0.283 0.013c0.017 0.007-0.060 0.088-0.044 0.119 0.060 0.116 0.469 0.1 0.501 0.074 0.055-0.043-0.381-0.080-0.383-0.11-0.003-0.034 0.065-0.122 0.054-0.176-0.014-0.070-0.191-0.097-0.191-0.097l-0.22 0.177z"></path>
<path fill="#503200" d="M25.24 17.925l0.544-0.45s0.024-0.025 0.044-0.004c0.020 0.021-0.007 0.046-0.007 0.046l-0.561 0.464-0.020-0.056z"></path>
<path fill="#f1b517" d="M24.716 18.37c0.010-0.009 0.443-0.385 0.443-0.385l0.029-0.11s0.067 0.045 0.092 0.069c0.025 0.023 0.063 0.087 0.063 0.087l-0.121 0.005-0.383 0.351-0.121-0.018z"></path>
<path fill="#f1b517" d="M23.102 18.886c0 0.042 0.035 0.076 0.079 0.076s0.079-0.034 0.079-0.076c0-0.042-0.035-0.076-0.079-0.076s-0.079 0.034-0.079 0.076z"></path>
<path fill="#f1b517" d="M23.304 18.743c0 0.042 0.035 0.076 0.079 0.076s0.079-0.034 0.079-0.076c0-0.042-0.035-0.076-0.079-0.076s-0.079 0.034-0.079 0.076z"></path>
<path fill="#f1b517" d="M23.576 18.837c0 0.042 0.035 0.076 0.079 0.076s0.079-0.034 0.079-0.076c0-0.042-0.035-0.076-0.079-0.076s-0.079 0.034-0.079 0.076z"></path>
<path fill="#f1b517" d="M23.996 18.927c0 0.042 0.035 0.076 0.079 0.076s0.079-0.034 0.079-0.076c0-0.042-0.035-0.076-0.079-0.076s-0.079 0.034-0.079 0.076z"></path>
<path fill="#f1b517" d="M24.174 18.948c0 0.042 0.035 0.076 0.079 0.076s0.079-0.034 0.079-0.076c0-0.042-0.035-0.076-0.079-0.076s-0.079 0.034-0.079 0.076z"></path>
<path fill="#f1b517" d="M24.349 18.948c0 0.042 0.035 0.076 0.079 0.076s0.079-0.034 0.079-0.076c0-0.042-0.035-0.076-0.079-0.076s-0.079 0.034-0.079 0.076z"></path>
<path fill="#f1b517" d="M24.527 18.943c0 0.042 0.035 0.076 0.079 0.076s0.079-0.034 0.079-0.076c0-0.042-0.035-0.076-0.079-0.076s-0.079 0.034-0.079 0.076z"></path>
<path fill="#f1b517" d="M24.441 18.808c0 0.042 0.035 0.076 0.079 0.076s0.079-0.034 0.079-0.076c0-0.042-0.035-0.076-0.079-0.076s-0.079 0.034-0.079 0.076z"></path>
<path fill="#f1b517" d="M24.268 18.816c0 0.042 0.035 0.076 0.079 0.076s0.079-0.034 0.079-0.076c0-0.042-0.035-0.076-0.079-0.076s-0.079 0.034-0.079 0.076z"></path>
<path fill="#f1b517" d="M24.104 18.795c0 0.042 0.035 0.076 0.079 0.076s0.079-0.034 0.079-0.076c0-0.042-0.035-0.076-0.079-0.076s-0.079 0.034-0.079 0.076z"></path>
<path fill="#f1b517" d="M24.188 18.663c0 0.042 0.035 0.076 0.079 0.076s0.079-0.034 0.079-0.076c0-0.042-0.035-0.076-0.079-0.076s-0.079 0.034-0.079 0.076z"></path>
<path fill="#f1b517" d="M24.349 18.66c0 0.042 0.035 0.076 0.079 0.076s0.079-0.034 0.079-0.076c0-0.042-0.035-0.076-0.079-0.076s-0.079 0.034-0.079 0.076z"></path>
<path fill="#f1b517" d="M22.762 18.985c0 0.030 0.070 0.018 0.070 0.050 0 0.033-0.082 0.027-0.121-0.002-0.021 0.066-0.109 0.071-0.168 0-0.051 0.043-0.105 0.063-0.196-0.002-0.023 0.041-0.108 0.075-0.162 0.001l-0.031-0.001c-0.032 0.065-0.125 0.078-0.18 0.018-0.017 0.025-0.053 0.022-0.084-0.003-0.037 0.053-0.103 0.042-0.133 0.006-0.009 0.044-0.098 0.062-0.122 0.015-0.011 0.043-0.084 0.033-0.084 0.006 0-0.034 0.049-0.021 0.049-0.048 0-0.030-0.067-0.020-0.067-0.050 0-0.030 0.051-0.035 0.083-0.005 0.047-0.029 0.083-0.059 0.119-0.020 0.040-0.044 0.135-0.064 0.172 0.003 0.021-0.027 0.050-0.035 0.070 0.002 0.049-0.051 0.112-0.068 0.183 0.002 0.037-0.053 0.145-0.068 0.188-0.021 0.074-0.067 0.15-0.070 0.211 0.021 0.043-0.019 0.073-0.066 0.144-0.002 0.017-0.039 0.142-0.071 0.142-0.027 0 0.039-0.082 0.025-0.082 0.059zM22.585 19.002c0 0.015 0.021 0.028 0.047 0.028s0.047-0.012 0.047-0.028c0-0.015-0.021-0.028-0.046-0.028s-0.046 0.013-0.046 0.028zM22.391 18.978c0 0.018 0.025 0.033 0.056 0.033s0.056-0.015 0.056-0.033c0-0.018-0.025-0.033-0.056-0.033s-0.056 0.015-0.056 0.033zM22.010 18.999c0 0.019 0.023 0.034 0.051 0.034s0.051-0.015 0.051-0.034c0-0.019-0.023-0.034-0.051-0.034s-0.051 0.015-0.051 0.034zM22.213 18.991c0 0.023 0.022 0.043 0.049 0.043s0.049-0.019 0.049-0.043c0-0.023-0.022-0.043-0.049-0.043s-0.049 0.019-0.049 0.043zM21.78 18.992c0 0.021 0.020 0.038 0.044 0.038s0.044-0.017 0.044-0.038c0-0.021-0.020-0.038-0.044-0.038s-0.044 0.017-0.044 0.038zM21.912 19.001c0 0.014 0.013 0.025 0.028 0.025s0.029-0.011 0.029-0.025c0-0.014-0.013-0.025-0.029-0.025s-0.028 0.011-0.028 0.025zM21.654 19.011c0 0.020 0.014 0.035 0.032 0.035s0.032-0.016 0.032-0.035-0.014-0.035-0.032-0.035c-0.018 0-0.032 0.016-0.032 0.035z"></path>
<path fill="#0a328c" d="M21.316 17.677c-0.268 0-0.485 0.101-0.485 0.224 0 0.021 0.006 0.042 0.018 0.061 0.058 0.067 0.246 0.116 0.469 0.116 0.209 0 0.387-0.043 0.456-0.103 0.018-0.023 0.027-0.048 0.027-0.074 0-0.124-0.217-0.224-0.485-0.224z"></path>
<path fill="#f1b517" d="M21.806 17.918v0.753c0 0.088-0.218 0.16-0.488 0.16s-0.488-0.071-0.488-0.16v-0.753c0 0.089 0.219 0.16 0.488 0.16s0.488-0.071 0.488-0.16z"></path>
<path fill="#d20014" d="M20.83 17.918v0.115l0.237 0.73 0.189-0.562 0.208 0.583 0.152-0.55 0.19 0.37v-0.205l-0.177-0.359c-0.015 0.004-0.036 0.009-0.058 0.013l-0.006 0.001-0.11 0.407-0.154-0.384c-0.028-0-0.054-0.001-0.081-0.003l0.004 0-0.155 0.387-0.177-0.466c-0.040-0.023-0.063-0.050-0.063-0.078z"></path>
<path fill="#0a328c" d="M21.806 18.53v0.141c0 0.088-0.218 0.16-0.488 0.16s-0.488-0.072-0.488-0.16v-0.14c0 0.089 0.219 0.16 0.488 0.16s0.488-0.071 0.488-0.16z"></path>
<path fill="#f1b517" d="M21.519 18.676c-0.040 0.006-0.082 0.010-0.126 0.013l0.001 0.14c0.045-0.002 0.087-0.007 0.127-0.013l-0.001-0.14zM20.999 18.651l-0.001 0.14c0.038 0.011 0.080 0.020 0.127 0.026v-0.14c-0.048-0.007-0.091-0.016-0.132-0.027l0.007 0.002zM20.83 18.53v0.14c0 0.026 0.020 0.051 0.054 0.073l0.002-0.139c-0.036-0.022-0.056-0.047-0.056-0.074zM21.806 18.545l-0.002 0.001c-0.009 0.028-0.041 0.055-0.089 0.077l0.001 0.14c0.057-0.026 0.090-0.058 0.090-0.092v-0.126z"></path>
<path fill="#fff" d="M21.695 17.869c0 0.053-0.169 0.097-0.377 0.097s-0.377-0.043-0.377-0.097c0-0.053 0.169-0.097 0.377-0.097s0.377 0.043 0.377 0.097z"></path>
<path fill="#f1b517" d="M21.194 17.94l0.017 0.133c0.033 0.002 0.067 0.004 0.102 0.004l0.025-0.138h-0.143zM21.632 17.908l-0.097 0.026 0.006 0.126c0.033-0.006 0.064-0.012 0.092-0.020l-0.001-0.132zM21.056 17.705c-0.028 0.008-0.053 0.017-0.077 0.028l0.014 0.101 0.062-0.020 0.001-0.109zM21.316 17.665c-0.013 0-0.026 0.001-0.038 0.001l0.021 0.126 0.065-0.001 0.025-0.123c-0.021-0.002-0.047-0.003-0.072-0.003h-0zM21.601 17.709l-0.013 0.11 0.074 0.026 0.008-0.108c-0.019-0.009-0.041-0.019-0.065-0.027l-0.004-0.001z"></path>
<path fill="#f1b517" d="M20.906 18.005l0.020-0.137-0.1-0.054 0.003 0.156 0.077 0.035zM21.802 17.976l0.004-0.137-0.093 0.028 0.089 0.109z"></path>
<path fill="#f1b517" d="M22.793 17.070c0.089-0.012 0.22 0.109 0.228 0.259 0.006 0.119-0.18 0.113-0.18 0.113-0.010 0.049-0.113 0.094-0.196 0.098-0.081 0.004 0.022-0.153 0.022-0.153-0.051-0.134 0.016-0.293 0.016-0.293l0.111-0.025z"></path>
<path fill="#f1b517" d="M22.667 17.381l0.085-0.003s0.006 0.044 0.022 0.046c0.017 0.002 0.035-0.043 0.035-0.043l0.13-0.003"></path>
<path fill="#d20014" d="M22.841 17.158c0.073-0.052 0.009-0.158-0.041-0.159l-0.117 0.003c-0.055 0.001-0.148 0.061-0.136 0.113 0.011 0.045 0.041 0.066 0.089 0.058 0.022-0.004 0.067-0.060 0.089-0.061 0.029-0.001 0.094 0.063 0.117 0.046z"></path>
<path fill="#f1b517" d="M17.519 18.651c-0.066 0.008-0.078 0.084-0.053 0.154-0.287 0.081-0.543 0.186-0.795 0.257-0.010-0.050 0.125-0.197 0.125-0.197 0.036 0.017 0.063 0.099 0.063 0.099 0.009-0.168 0.175-0.28 0.175-0.28-0.099-0.013-0.398 0.103-0.434 0.151 0 0 0.116-0.013 0.134 0 0 0-0.228 0.247-0.239 0.32 0.036 0.080 0.43 0.14 0.43 0.14-0.006 0.021-0.116 0.099-0.116 0.099 0.157 0.034 0.393-0.077 0.464-0.144 0 0-0.184-0.015-0.328-0.132 0 0 0.030 0.073 0.012 0.107 0 0-0.224-0.064-0.247-0.102 0.001-0.003 0.53-0.14 0.786-0.213 0.009 0.046 0.060 0.132 0.121 0.112 0.040-0.013 0.027-0.092 0.012-0.148 0.014 0.012 0.033 0.020 0.053 0.020 0 0 0 0 0 0h-0c0.045 0 0.082-0.035 0.082-0.078s-0.037-0.079-0.082-0.079c-0 0-0.001 0-0.001 0-0.035 0-0.065 0.022-0.076 0.053l-0 0.001c-0.010-0.048-0.037-0.144-0.086-0.138zM17.721 18.814c0 0.020-0.017 0.037-0.038 0.037-0 0-0 0-0.001 0-0.020 0-0.037-0.016-0.038-0.037v-0c0-0.020 0.017-0.037 0.038-0.037s0.038 0.016 0.038 0.037z"></path>
<path fill="#f1b517" d="M25.927 18.974c0.020-0.039-0.017-0.236-0.017-0.236-0.040 0.004-0.094 0.073-0.094 0.073 0.051-0.161-0.092-0.43-0.092-0.43 0.097 0.020 0.421 0.334 0.438 0.39 0 0-0.142-0.051-0.163-0.044 0.023 0.161 0.134 0.235 0.176 0.319 0 0-0.184 0.041-0.166 0.194l-0.12 0.002c-0.042-0.051 0.016-0.136 0.016-0.136l-0.826-0.346c-0.053-0.022-0.173-0.077-0.155-0.141s0.215 0.027 0.263 0.043l0.74 0.313z"></path>
<path fill="#f1b517" d="M25.134 18.831l0.097-0.178c0.035-0.047-0.037-0.098-0.088-0.038l-0.109 0.163c-0.048 0.089 0.053 0.114 0.1 0.053z"></path>
<path fill="#fff" d="M19.346 19.239l-0.007-0.195-0.235 0.013-0.013 0.212 0.255-0.030z"></path>
<path fill="#fff" d="M17.625 19.512l-0.315-0.177c1.298 0.119 1.563-0.334 1.877-0.358 0.193-0.015 0.223 0.214-0.151 0.105l0.097 0.239s-0.921 0.518-1.827 0.304l0.319-0.114zM23.28 19.239l0.007-0.195 0.288 0.007 0.013 0.212-0.308-0.024z"></path>
<path fill="#fff" d="M25.060 19.464l0.296-0.162c-1.487 0.044-1.148-0.244-1.892-0.325-0.192-0.021-0.337 0.226 0.151 0.105l-0.097 0.239 0.234 0c0.507 0.334 1.19 0.363 1.643 0.256l-0.335-0.114z"></path>
<path fill="#fff" d="M19.031 19.084v0.336s0.824 0.306 2.295 0.306c1.477 0 2.295-0.306 2.295-0.306v-0.336s-0.624 0.287-2.295 0.287c-1.665 0-2.295-0.287-2.295-0.287z"></path>
<path fill="#000" d="M19.154 19.422l0.073-0.246 0.034 0.009-0.064 0.217 0.126 0.035-0.009 0.029-0.16-0.044zM19.393 19.314l0.004-0.048 0.011-0.041 0.036 0.009-0.011 0.042-0.021 0.044-0.019-0.005zM19.748 19.297l0.034 0.007-0.031 0.145c-0.005 0.025-0.012 0.045-0.021 0.058s-0.023 0.024-0.039 0.030l-0.001 0c-0.017 0.006-0.039 0.007-0.064 0.002s-0.044-0.013-0.057-0.024c-0.013-0.010-0.022-0.025-0.026-0.041l-0-0c-0.003-0.017-0.002-0.038 0.003-0.065l0.031-0.145 0.034 0.007-0.031 0.145c-0.005 0.022-0.006 0.038-0.004 0.049s0.008 0.021 0.017 0.028l0 0c0.009 0.008 0.021 0.013 0.036 0.016 0.025 0.005 0.045 0.003 0.058-0.006s0.023-0.029 0.030-0.061l0.031-0.145zM19.786 19.565l0.043-0.253 0.036 0.006 0.104 0.22 0.034-0.198 0.033 0.005-0.043 0.253-0.036-0.006-0.104-0.22-0.034 0.199-0.033-0.005zM20.057 19.606l0.036-0.254 0.035 0.005-0.036 0.254-0.035-0.005zM20.157 19.494c0.005-0.042 0.021-0.074 0.047-0.095s0.058-0.030 0.095-0.026c0.024 0.003 0.046 0.011 0.064 0.024s0.031 0.031 0.039 0.052c0.008 0.021 0.010 0.045 0.007 0.070s-0.011 0.048-0.025 0.068l0-0c-0.013 0.018-0.030 0.033-0.051 0.041l-0.001 0c-0.015 0.006-0.032 0.010-0.050 0.010-0.006 0-0.011-0-0.016-0.001l0.001 0c-0.024-0.002-0.046-0.011-0.065-0.025l0 0c-0.018-0.013-0.031-0.031-0.039-0.052l-0-0.001c-0.005-0.014-0.009-0.031-0.009-0.048 0-0.006 0-0.012 0.001-0.018l-0 0.001zM20.193 19.498c-0.004 0.031 0.002 0.056 0.017 0.075s0.035 0.031 0.061 0.034c0.026 0.003 0.049-0.004 0.068-0.020s0.031-0.040 0.034-0.073c0.002-0.021 0.001-0.039-0.004-0.055s-0.015-0.029-0.028-0.039c-0.013-0.010-0.028-0.016-0.045-0.018l-0-0c-0.025-0.003-0.047 0.003-0.067 0.018s-0.032 0.041-0.036 0.079zM20.44 19.649l0.022-0.255 0.036 0.003 0.122 0.211 0.017-0.2 0.034 0.003-0.022 0.255-0.036-0.003-0.122-0.212-0.017 0.201-0.034-0.003zM20.812 19.675l0.012-0.256 0.179 0.007-0.001 0.030-0.144-0.006-0.004 0.079 0.124 0.005-0.001 0.030-0.124-0.005-0.005 0.116-0.035-0.002zM21.007 19.683l0.107-0.254 0.038 0.001 0.103 0.258-0.040-0.001-0.029-0.078-0.111-0.002-0.031 0.077-0.037-0.001zM21.086 19.58l0.090 0.002-0.026-0.071c-0.005-0.013-0.011-0.031-0.017-0.049l-0.001-0.005c-0.004 0.016-0.009 0.033-0.015 0.049l-0.031 0.075zM21.29 19.687l0.001-0.256 0.035 0-0.001 0.256h-0.035zM21.455 19.687l-0.003-0.226-0.088 0.001-0.001-0.030 0.21-0.003 0 0.030-0.088 0.001 0.003 0.226-0.035 0.001zM21.715 19.681l-0.012-0.256 0.035-0.002 0.011 0.226 0.131-0.006 0.001 0.030-0.166 0.007zM21.894 19.673l0.083-0.262 0.038-0.003 0.127 0.248-0.040 0.003-0.037-0.075-0.111 0.008-0.023 0.079-0.037 0.003zM21.963 19.563l0.090-0.006-0.033-0.069c-0.010-0.021-0.017-0.038-0.023-0.052-0.003 0.019-0.006 0.036-0.011 0.052l0.001-0.002-0.023 0.077zM22.274 19.644l-0.029-0.255 0.178-0.019 0.003 0.030-0.143 0.015 0.009 0.079 0.124-0.013 0.003 0.030-0.124 0.013 0.013 0.116-0.035 0.004zM22.469 19.497c-0.006-0.042 0.001-0.077 0.020-0.104s0.048-0.043 0.085-0.048c0.024-0.003 0.047-0.001 0.068 0.008s0.038 0.022 0.052 0.041c0.013 0.019 0.022 0.040 0.025 0.066s0.002 0.049-0.006 0.071c-0.008 0.022-0.021 0.039-0.039 0.052s-0.038 0.021-0.061 0.024l-0.001 0c-0.025 0.003-0.048 0.001-0.069-0.008s-0.039-0.023-0.051-0.041l-0-0c-0.012-0.017-0.021-0.038-0.024-0.061l-0-0.001zM22.505 19.493c0.004 0.031 0.017 0.053 0.036 0.069s0.042 0.021 0.068 0.018c0.026-0.004 0.046-0.016 0.061-0.036s0.019-0.046 0.014-0.079c-0.003-0.020-0.009-0.038-0.019-0.053l0 0c-0.009-0.014-0.022-0.025-0.037-0.031l-0.001-0c-0.010-0.005-0.023-0.007-0.035-0.007-0.005 0-0.009 0-0.014 0.001l0-0c-0.025 0.003-0.045 0.014-0.060 0.033s-0.020 0.047-0.015 0.085zM22.784 19.579l-0.047-0.252 0.116-0.020c0.023-0.004 0.041-0.005 0.054-0.003s0.024 0.009 0.034 0.019c0.009 0.010 0.015 0.022 0.018 0.036 0.003 0.018 0 0.034-0.010 0.048s-0.027 0.025-0.051 0.033c0.009 0.002 0.016 0.005 0.024 0.009l-0-0c0.012 0.007 0.023 0.017 0.035 0.028l0.058 0.061-0.043 0.008-0.044-0.046c-0.010-0.011-0.020-0.020-0.031-0.030l-0.001-0c-0.006-0.005-0.013-0.010-0.020-0.014l-0-0c-0.005-0.002-0.011-0.004-0.017-0.004h-0c-0.004 0-0.011 0.001-0.019 0.002l-0.040 0.007 0.021 0.112-0.035 0.006zM22.792 19.432l0.074-0.013c0.013-0.002 0.026-0.006 0.037-0.012l-0.001 0c0.013-0.007 0.021-0.020 0.021-0.035 0-0.003-0-0.005-0.001-0.008l0 0c-0.002-0.012-0.009-0.021-0.019-0.027l-0-0c-0.010-0.006-0.025-0.007-0.045-0.004l-0.083 0.014 0.016 0.083zM23.211 19.404l0.036 0.001c-0.001 0.029-0.009 0.052-0.024 0.071s-0.037 0.030-0.063 0.036c-0.028 0.006-0.052 0.005-0.072-0.002-0.021-0.008-0.038-0.021-0.051-0.039l-0-0c-0.014-0.018-0.024-0.040-0.029-0.063l-0-0.001c-0.006-0.026-0.006-0.050-0-0.071s0.017-0.039 0.034-0.054 0.036-0.024 0.059-0.029c0.026-0.006 0.049-0.004 0.070 0.005s0.037 0.024 0.049 0.046l-0.032 0.015c-0.010-0.017-0.022-0.028-0.035-0.034-0.008-0.003-0.018-0.005-0.028-0.005-0.006 0-0.013 0.001-0.019 0.002l0-0c-0.020 0.004-0.036 0.012-0.047 0.025s-0.018 0.026-0.019 0.043l-0 0c-0.002 0.017-0.001 0.033 0.003 0.050 0.004 0.020 0.012 0.038 0.023 0.054l-0-0.001c0.010 0.014 0.023 0.024 0.038 0.029s0.031 0.006 0.047 0.002c0.018-0.003 0.034-0.013 0.045-0.027l0-0c0.011-0.014 0.016-0.031 0.016-0.053zM23.309 19.474l-0.071-0.247 0.185-0.050 0.008 0.029-0.151 0.041 0.022 0.076 0.141-0.038 0.008 0.029-0.141 0.038 0.024 0.084 0.157-0.042 0.008 0.029-0.191 0.051z"></path>
</svg>
