<!-- Generated by IcoMoon.io -->
<svg version="1.1" xmlns="http://www.w3.org/2000/svg" width="43" height="32" viewBox="0 0 43 32">
<title>ILS</title>
<path fill="#fff" d="M44.294 32.085h-45.836v-32.085h45.836z"></path>
<path fill="#00c" d="M44.294 7.221h-45.836v-4.213h45.836zM44.294 29.183h-45.836v-4.213h45.836zM14.026 11.956l6.901 12.003 7.049-11.954-13.95-0.050z"></path>
<path fill="#fff" d="M19.623 19.916l1.313 2.225 1.341-2.216-2.654-0.009z"></path>
<path fill="#00c" d="M14 20.090l6.901-12.003 7.049 11.954-13.95 0.049z"></path>
<path fill="#fff" d="M19.623 12.008l1.313-2.225 1.341 2.216-2.654 0.009zM16.879 16.99l-1.356 2.255 2.563-0.008-1.207-2.247zM15.547 12.822l2.583 0.018-1.243 2.272-1.34-2.29zM25.024 17.015l1.305 2.229-2.614-0.033 1.308-2.196zM26.306 12.822l-2.583 0.018 1.243 2.272 1.34-2.29zM19.145 12.82l-1.779 3.228 1.805 3.152 3.304 0.076 2.008-3.228-1.856-3.254-3.482 0.025z"></path>
</svg>
