<!-- Generated by IcoMoon.io -->
<svg version="1.1" xmlns="http://www.w3.org/2000/svg" width="43" height="32" viewBox="0 0 43 32">
<title>IMP</title>
<path fill="#ba0000" d="M44.296 32.085h-45.836v-32.085h45.836z"></path>
<path fill="#ffef00" opacity="0.988" d="M22.462 23.563c0.013-0.038 0.038-0.429 0.025-0.429s-0.593-0.681-0.58-0.681c0.013 0 0.744 0.164 0.744 0.139s0.29-0.719 0.29-0.731c0-0.013 0.353 0.845 0.353 0.845l0.719 0.315-0.504 0.416s0.114 0.807 0.114 0.82c0 0.013-0.504-0.479-0.504-0.479l-0.555 0.063s-0.076-0.252-0.101-0.277z"></path>
<path fill="#fff" d="M18.554 12.965c-0.479 0.247-2.318 2.349-2.571 2.677-0.211 0.476-0.625 1.078-1.050 1.466-0.454 0.344-0.707 0.814-0.644 1.258-0.005 0.553 0.305 0.93 0.552 1.32 0.146 0.178 0.343 0.293 0.552 0.307 0.429 0.057 0.467 0.189 0.682 0.271 0.846 1.152 2.109 2.002 3.018 2.675 0.58 0.306 0.983 0.611 1.121 0.778 0.266 0.508 0.217 1.004 0.181 1.248-0.225 0.849-0.45 1.698-0.675 2.547-0.114 0.694 0.489 0.538 0.522 0.399 0.272-0.353 0.678-0.105 1.258-2.148 0.266-0.358 0.532-0.716 0.798-1.074 0 0 0.307-0.123 0.307-0.153 0.467-0.56 0.111-0.881-0.154-0.982-0.194-0.072-0.389-0.143-0.583-0.215 0 0-0.675-0.675-0.706-0.675-0.321-0.933-1.896-2.926-2.261-3.203-0.253-0.264-0.374-0.376-0.614-0.523-0.37-0.177-0.489-0.234-0.715-0.325-0.189-0.076-0.054-0.282 0.066-0.377 1.247-0.679 2.236-1.433 3.433-2.201l0.184-0.123-0.43-2.455-1.995-0.706c-0.105 0.072-0.184 0.143-0.276 0.215z"></path>
<path fill="#ffec00" d="M20.223 25.891c0.006-0.025 1.248-0.252 1.248-0.252s-0.145 0.46-0.151 0.46l-1.236 0.372 0.139-0.58z"></path>
<path fill="#ffe606" d="M14.813 18.379c0.267-0.018 0.713 0.062 0.722 0.062l0.589-0.009c0.309-0.030 0.378-0.149 0.428-0.232 0.116-0.178 0.196-0.241 0.285-0.375 0.143-0.107 0.339 0.143 0.348 0.143 0.499 0.473 0.098 1.052 0.071 1.070-0.25 0.229-0.303 0.244-0.455 0.098-0.152-0.178-0.196-0.259-0.321-0.321-0.241-0.116-0.74-0.027-0.749-0.027s-0.259 0.098-0.259 0.098c-0.122 0.045-0.199 0.152-0.41 0.187-0.214 0.015-0.285-0.006-0.392-0.178-0.143-0.223-0.071-0.491 0.143-0.517z"></path>
<path fill="#ffef00" opacity="0.988" d="M28.777 7.561c-0.039 0.008-0.392 0.177-0.386 0.188s-0.303 0.85-0.309 0.839c-0.006-0.011-0.222-0.729-0.244-0.717s-0.769 0.099-0.78 0.106c-0.011 0.006 0.563-0.722 0.563-0.722l-0.077-0.781 0.61 0.236s0.648-0.495 0.659-0.501c0.011-0.006-0.171 0.675-0.171 0.675l0.327 0.453s-0.183 0.189-0.192 0.224z"></path>
<path fill="#fff" d="M21.454 16.162c0.45 0.297 3.184 0.87 3.593 0.929 0.518-0.049 1.246 0.016 1.793 0.197 0.522 0.228 1.056 0.218 1.413-0.055 0.485-0.267 0.661-0.722 0.88-1.128 0.083-0.215 0.087-0.443-0.003-0.632-0.161-0.402-0.064-0.5-0.098-0.727 0.59-1.302 0.712-2.819 0.853-3.942-0.018-0.655 0.051-1.156 0.129-1.358 0.313-0.481 0.769-0.681 0.999-0.769 0.85-0.22 1.701-0.44 2.551-0.66 0.66-0.241 0.229-0.69 0.092-0.65-0.441-0.064-0.424-0.54-2.489-0.044l-1.327-0.169s-0.258-0.207-0.284-0.192c-0.717-0.132-0.823 0.335-0.781 0.615l0.098 0.614s-0.258 0.919-0.243 0.946c-0.656 0.737-1.633 3.104-1.696 3.559-0.030 0.427-0.191 0.35-0.148 0.766 0.002 0.325-0.036 0.122 0.072 0.791 0.026 0.201-0.22 0.186-0.361 0.128-1.203-0.755-2.345-1.246-3.601-1.914-0.066-0.033-0.131-0.067-0.197-0.1l-1.929 1.578 0.362 2.085c0.114 0.056 0.215 0.090 0.323 0.135z"></path>
<path fill="#ffec00" d="M31.903 8.372c-0.025 0.007-0.832-0.965-0.832-0.965s0.472-0.099 0.475-0.094l0.93 0.895-0.574 0.163z"></path>
<path fill="#ffe606" d="M28.007 16.77c-0.147-0.224-0.295-0.652-0.3-0.66l-0.296-0.509c-0.178-0.255-0.315-0.256-0.412-0.259-0.212-0.014-0.306-0.053-0.466-0.065-0.163-0.072-0.042-0.365-0.046-0.373 0.167-0.667 0.869-0.601 0.898-0.587 0.322 0.105 0.361 0.145 0.308 0.348-0.081 0.22-0.129 0.298-0.122 0.437 0.017 0.267 0.339 0.658 0.344 0.666s0.212 0.177 0.212 0.177c0.099 0.084 0.23 0.099 0.364 0.266 0.118 0.179 0.135 0.252 0.037 0.429-0.124 0.234-0.393 0.303-0.521 0.129z"></path>
<path fill="#ffef00" opacity="0.988" d="M11.447 10.57c0.028 0.029 0.363 0.231 0.369 0.22s0.878-0.212 0.872-0.201-0.488 0.585-0.466 0.596c0.022 0.012 0.504 0.589 0.515 0.595s-0.913-0.076-0.913-0.076l-0.611 0.493-0.137-0.639s-0.769-0.271-0.78-0.277c-0.011-0.006 0.658-0.227 0.658-0.227l0.2-0.522s0.259 0.049 0.293 0.038z"></path>
<path fill="#fff" d="M22.652 11.985c0.002-0.539-1.016-3.14-1.191-3.515-0.325-0.407-0.669-1.051-0.817-1.608-0.096-0.562-0.396-1.002-0.82-1.152-0.489-0.259-0.966-0.158-1.426-0.118-0.225 0.048-0.418 0.17-0.527 0.349-0.248 0.355-0.383 0.328-0.555 0.481-1.413 0.22-2.749 0.949-3.765 1.446-0.538 0.374-0.995 0.591-1.207 0.636-0.574 0.002-0.991-0.27-1.19-0.414l-1.949-1.773c-0.563-0.42-0.703 0.186-0.594 0.279 0.188 0.404-0.219 0.65 1.327 2.106l0.586 1.203s-0.032 0.329-0.005 0.343c0.282 0.672 0.731 0.505 0.942 0.316l0.459-0.418s0.91-0.288 0.924-0.315c0.976 0.145 3.491-0.334 3.906-0.531 0.374-0.209 0.398-0.032 0.721-0.296 0.271-0.179 0.122-0.036 0.622-0.493 0.154-0.132 0.276 0.082 0.305 0.232 0.028 1.42 0.242 2.645 0.371 4.061 0.008 0.073 0.016 0.147 0.024 0.22 0.792 0.25 1.585 0.5 2.377 0.75 0.515-0.482 1.030-0.963 1.546-1.445-0.015-0.126-0.042-0.229-0.063-0.344z"></path>
<path fill="#ffec00" d="M10.412 7.511c0.019 0.017-0.351 1.224-0.351 1.224s-0.342-0.341-0.339-0.347l0.239-1.268 0.451 0.39z"></path>
<path fill="#ffe606" d="M19.571 6.171c-0.107 0.246-0.384 0.604-0.388 0.612l-0.263 0.527c-0.116 0.288-0.042 0.404 0.009 0.487 0.105 0.185 0.123 0.285 0.201 0.426 0.029 0.176-0.283 0.235-0.287 0.243-0.65 0.225-0.979-0.398-0.983-0.43-0.088-0.327-0.077-0.381 0.123-0.449 0.228-0.052 0.32-0.055 0.433-0.137 0.214-0.16 0.365-0.645 0.369-0.653s0.032-0.275 0.032-0.275c0.017-0.129-0.043-0.247 0.023-0.45 0.085-0.197 0.137-0.251 0.339-0.266 0.264-0.024 0.468 0.163 0.393 0.365z"></path>
<path fill="#ffef00" opacity="0.987" d="M18.719 12.511c-0.098-0.089 1.846 0.704 2.113 0.713 0.366-0.134 1.873-1.409 1.873-1.409 0.015 0.125 0.068 0.449 0.214 0.517-0.583 0.473-1.112 0.927-1.694 1.4 0.042 0.749-0.095 1.543 0.285 2.381 0 0-0.455 0.009-0.455 0-0.401-0.401-0.544-2.336-0.544-2.336-0.639-0.285-1.278-0.562-1.917-0.847 0.092-0.060 0.166-0.244 0.125-0.419z"></path>
</svg>
