<!-- Generated by IcoMoon.io -->
<svg version="1.1" xmlns="http://www.w3.org/2000/svg" width="43" height="32" viewBox="0 0 43 32">
<title>INR</title>
<path fill="#f93" d="M0 0h42.667v10.667h-42.667z"></path>
<path fill="#fff" d="M0 10.667h42.667v10.667h-42.667z"></path>
<path fill="#128807" d="M0 21.333h42.667v10.667h-42.667z"></path>
<path fill="#008" d="M25.6 16c0 2.356-1.91 4.267-4.267 4.267s-4.267-1.91-4.267-4.267c0-2.356 1.91-4.267 4.267-4.267s4.267 1.91 4.267 4.267z"></path>
<path fill="#fff" d="M25.067 16c0 2.062-1.671 3.733-3.733 3.733s-3.733-1.671-3.733-3.733c0-2.062 1.671-3.733 3.733-3.733s3.733 1.671 3.733 3.733z"></path>
<path fill="#008" d="M22.080 16c0 0.412-0.334 0.747-0.747 0.747s-0.747-0.334-0.747-0.747c0-0.412 0.334-0.747 0.747-0.747s0.747 0.334 0.747 0.747z"></path>
<path fill="#008" d="M25.22 16.512c-0.013 0.102-0.107 0.174-0.209 0.161s-0.174-0.107-0.161-0.209c0.013-0.102 0.107-0.174 0.209-0.161s0.174 0.107 0.161 0.209z"></path>
<path fill="#008" d="M21.333 19.733l0.128-2.24-0.128-1.067-0.128 1.067 0.128 2.24z"></path>
<path fill="#008" d="M24.955 17.5c-0.039 0.095-0.149 0.14-0.244 0.101s-0.14-0.149-0.101-0.244c0.039-0.095 0.149-0.14 0.244-0.101s0.14 0.149 0.101 0.244z"></path>
<path fill="#008" d="M20.367 19.606l0.703-2.131 0.152-1.063-0.4 0.997-0.456 2.197z"></path>
<path fill="#008" d="M24.443 18.386c-0.063 0.082-0.18 0.097-0.262 0.034s-0.097-0.18-0.034-0.262c0.063-0.082 0.18-0.097 0.262-0.034s0.097 0.18 0.034 0.262z"></path>
<path fill="#008" d="M19.467 19.233l1.231-1.876 0.422-0.988-0.644 0.86-1.009 2.004z"></path>
<path fill="#008" d="M18.693 18.64l1.674-1.493 0.664-0.845-0.845 0.664-1.493 1.674z"></path>
<path fill="#008" d="M22.833 19.622c-0.095 0.039-0.204-0.006-0.244-0.101s0.006-0.204 0.101-0.244c0.095-0.039 0.204 0.006 0.244 0.101s-0.006 0.204-0.101 0.244z"></path>
<path fill="#008" d="M18.1 17.867l2.004-1.009 0.86-0.644-0.988 0.422-1.876 1.231z"></path>
<path fill="#008" d="M17.727 16.966l2.197-0.456 0.997-0.4-1.063 0.152-2.131 0.703z"></path>
<path fill="#008" d="M17.6 16l2.24 0.128 1.067-0.128-1.067-0.128-2.24 0.128z"></path>
<path fill="#008" d="M20.822 19.887c-0.102-0.013-0.174-0.107-0.161-0.209s0.107-0.174 0.209-0.161c0.102 0.013 0.174 0.107 0.161 0.209s-0.107 0.174-0.209 0.161z"></path>
<path fill="#008" d="M17.727 15.034l2.131 0.703 1.063 0.152-0.997-0.4-2.197-0.456z"></path>
<path fill="#008" d="M18.947 19.11c-0.082-0.063-0.097-0.18-0.034-0.262s0.18-0.097 0.262-0.034c0.082 0.063 0.097 0.18 0.034 0.262s-0.18 0.097-0.262 0.034z"></path>
<path fill="#008" d="M18.1 14.133l1.876 1.231 0.988 0.422-0.86-0.644-2.004-1.009z"></path>
<path fill="#008" d="M18.693 13.36l1.493 1.674 0.845 0.664-0.664-0.845-1.674-1.493z"></path>
<path fill="#008" d="M19.467 12.767l1.009 2.004 0.644 0.86-0.422-0.988-1.231-1.876z"></path>
<path fill="#008" d="M17.712 17.5c-0.039-0.095 0.006-0.204 0.101-0.244s0.204 0.006 0.244 0.101c0.039 0.095-0.006 0.204-0.101 0.244s-0.204-0.006-0.244-0.101z"></path>
<path fill="#008" d="M20.367 12.394l0.456 2.197 0.4 0.997-0.152-1.063-0.703-2.131z"></path>
<path fill="#008" d="M21.333 12.267l-0.128 2.24 0.128 1.067 0.128-1.067-0.128-2.24z"></path>
<path fill="#008" d="M18.947 12.89c0.082-0.063 0.199-0.047 0.262 0.034s0.047 0.199-0.034 0.262c-0.082 0.063-0.199 0.047-0.262-0.034s-0.047-0.199 0.034-0.262z"></path>
<path fill="#008" d="M22.3 12.394l-0.703 2.131-0.152 1.063 0.4-0.997 0.456-2.197z"></path>
<path fill="#008" d="M18.223 13.614c0.063-0.082 0.18-0.097 0.262-0.034s0.097 0.18 0.034 0.262c-0.063 0.082-0.18 0.097-0.262 0.034s-0.097-0.18-0.034-0.262z"></path>
<path fill="#008" d="M23.973 13.36l-1.674 1.493-0.664 0.845 0.845-0.664 1.493-1.674z"></path>
<path fill="#008" d="M19.833 12.378c0.095-0.039 0.204 0.006 0.244 0.101s-0.006 0.204-0.101 0.244c-0.095 0.039-0.204-0.006-0.244-0.101s0.006-0.204 0.101-0.244z"></path>
<path fill="#008" d="M24.567 14.133l-2.004 1.009-0.86 0.644 0.988-0.422 1.876-1.231z"></path>
<path fill="#008" d="M24.939 15.034l-2.197 0.456-0.997 0.4 1.063-0.152 2.131-0.703z"></path>
<path fill="#008" d="M25.067 16l-2.24-0.128-1.067 0.128 1.067 0.128 2.24-0.128z"></path>
<path fill="#008" d="M21.845 12.114c0.102 0.013 0.174 0.107 0.161 0.209s-0.107 0.174-0.209 0.161c-0.102-0.013-0.174-0.107-0.161-0.209s0.107-0.174 0.209-0.161z"></path>
<path fill="#008" d="M24.939 16.966l-2.131-0.703-1.063-0.152 0.997 0.4 2.197 0.456z"></path>
<path fill="#008" d="M24.567 17.867l-1.876-1.231-0.988-0.422 0.86 0.644 2.004 1.009z"></path>
<path fill="#008" d="M25.22 15.488c0.013 0.102-0.058 0.196-0.161 0.209s-0.196-0.059-0.209-0.161c-0.013-0.102 0.058-0.196 0.161-0.209s0.196 0.059 0.209 0.161z"></path>
<path fill="#008" d="M23.973 18.64l-1.493-1.674-0.845-0.664 0.664 0.845 1.674 1.493z"></path>
<path fill="#008" d="M24.955 14.5c0.039 0.095-0.006 0.204-0.101 0.244s-0.204-0.006-0.244-0.101c-0.039-0.095 0.006-0.204 0.101-0.244s0.204 0.006 0.244 0.101z"></path>
<path fill="#008" d="M22.3 19.606l-0.456-2.197-0.4-0.997 0.152 1.063 0.703 2.131z"></path>
</svg>
