<!-- Generated by IcoMoon.io -->
<svg version="1.1" xmlns="http://www.w3.org/2000/svg" width="43" height="32" viewBox="0 0 43 32">
<title>IQD</title>
<path fill="#fff" d="M0 10.667h42.667v10.667h-42.667z"></path>
<path fill="#ce1126" d="M0 0h42.667v10.667h-42.667z"></path>
<path fill="#000" d="M0 21.333h42.667v10.667h-42.667z"></path>
<path fill="#007a3d" d="M26.066 14.035c-0.065-0.034-0.139-0.090-0.163-0.123-0.037-0.051-0.015-0.053 0.136-0.012 0.271 0.073 0.446 0.045 0.619-0.102l0.153-0.129 0.18 0.092c0.099 0.050 0.204 0.085 0.234 0.077 0.078-0.021 0.239-0.228 0.234-0.299-0.006-0.089 0.069-0.067 0.105 0.031 0.072 0.19-0.033 0.409-0.218 0.458-0.090 0.024-0.174 0.015-0.311-0.033-0.168-0.058-0.197-0.058-0.281 0.007-0.189 0.145-0.452 0.158-0.688 0.035zM26.736 13.423c-0.066-0.084-0.145-0.4-0.119-0.477 0.022-0.067 0.046-0.081 0.107-0.061 0.107 0.034 0.132 0.107 0.116 0.358-0.012 0.204-0.043 0.258-0.104 0.181zM18.851 13.196c-0.022 0.153 0.272 0.534 0.404 0.602-0.090 0.040-0.202 0.022-0.284 0.067-0.461 0.461-2.145 2.103-2.453 2.495 0.911 0.018 1.921-0.012 2.775-0.051-0.001-0.619 0.586-0.651 0.979-0.876 0.202 0.318 0.709 0.294 0.773 0.773 0 0.573 0.001 1.437 0.001 2.061h-7.781c-0.137 0.605-0.682 1.066-1.443 0.876 0.235-0.246 0.631-0.33 0.773-0.67 0.12-0.743-0.239-1.202-0.471-1.624 0.384-0.139 0.442-0.174 0.832-0.436-0.274 0.832 0.711 0.74 1.443 0.721 0.025-0.282 0.010-0.616-0.206-0.657 0.28-0.102 0.326-0.136 0.773-0.515v1.12c1.738 0 3.614-0.013 5.388-0.013 0-0.351 0.093-0.914-0.185-0.914-0.265 0-0.012 0.721-0.218 0.721h-4.161c0-0.155-0.004-0.479-0.004-0.713 0.176-0.177 0.155-0.161 1.36-1.366 0.12-0.12 0.965-0.884 1.705-1.601zM29.252 13.166c0.291 0.156 0.521 0.373 0.876 0.464-0.041 0.147-0.172 0.206-0.207 0.361v3.143c0.397 0.088 0.481-0.138 0.67-0.258 0.052 0.503 0.372 0.996 0.361 1.391h-1.7v-5.1zM26.985 14.85s0.619-0.522 0.619-0.542v2.743l0.445-0.001c0-1.045-0.014-2.105-0.014-3.076 0.181-0.181 0.535-0.443 0.623-0.626v4.912c-1.255 0-3.596 0.002-3.906 0.002-0.058-1.020-0.067-2.075 1.121-1.848v-0.416c-0.036-0.071-0.102 0.017-0.117-0.075 0.189-0.189 0.253-0.237 0.764-0.683 0 0.538 0.009 1.81 0.009 1.81 0.125 0 0.368 0 0.45 0 0 0 0.004-2.129 0.004-2.199zM25.519 17.022c0.084 0.126 0.368 0.123 0.355-0.088-0.048-0.174-0.422-0.108-0.355 0.088z"></path>
<path fill="#007a3d" d="M14.451 18.846c0 0.132-0.107 0.238-0.238 0.238s-0.238-0.107-0.238-0.238c0-0.132 0.107-0.238 0.238-0.238s0.238 0.107 0.238 0.238z"></path>
<path fill="#007a3d" d="M21.572 13.171c0.291 0.156 0.521 0.373 0.876 0.464-0.041 0.147-0.172 0.206-0.206 0.361v3.143c0.397 0.088 0.481-0.138 0.67-0.258 0.051 0.503 0.372 0.996 0.361 1.391h-1.7c0-1.7 0-3.4 0-5.1z"></path>
</svg>
