<!-- Generated by IcoMoon.io -->
<svg version="1.1" xmlns="http://www.w3.org/2000/svg" width="43" height="32" viewBox="0 0 43 32">
<title>IRR</title>
<path fill="#fff" d="M-6.665 0h56v32h-56z"></path>
<path fill="#da0000" d="M-6.665 21.49h56v10.51h-56z"></path>
<path fill="#fff" d="M3.98 21.935h3.067v0.211h-3.067zM4.438 22.99h0.211v0.205h-0.211zM7.055 22.983v0.211h-0.613v-0.211zM7.385 21.935h0.211v1.26h-0.211z"></path>
<path fill="#fff" d="M8.606 22.983v0.211h-1.162v-0.211zM6.442 22.491h0.211v0.704h-0.211z"></path>
<path fill="#fff" d="M8.433 21.935h0.211v1.26h-0.211zM7.905 21.935h0.211v1.26h-0.211zM5.105 22.436v0.211h-1.119v-0.211zM7.562 22.436v0.211h-1.119v-0.211z"></path>
<path fill="#fff" d="M6.442 22.491h0.211v0.704h-0.211z"></path>
<path fill="#fff" d="M6.442 22.491h0.211v0.704h-0.211zM3.986 22.491h0.211v0.704h-0.211zM5.786 22.491h0.211v0.704h-0.211zM4.894 22.491h0.211v0.704h-0.211z"></path>
<path fill="#fff" d="M5.934 22.983v0.211h-0.946v-0.211zM5.997 22.436v0.211h-0.6v-0.211z"></path>
<path fill="#fff" d="M-1.057 21.935h3.067v0.211h-3.067zM-0.6 22.99h0.211v0.205h-0.211zM2.018 22.983v0.211h-0.613v-0.211zM2.347 21.935h0.211v1.26h-0.211z"></path>
<path fill="#fff" d="M3.568 22.983v0.211h-1.162v-0.211zM1.405 22.491h0.211v0.704h-0.211z"></path>
<path fill="#fff" d="M3.395 21.935h0.211v1.26h-0.211zM2.868 21.935h0.211v1.26h-0.211zM0.068 22.436v0.211h-1.119v-0.211zM2.524 22.436v0.211h-1.119v-0.211z"></path>
<path fill="#fff" d="M1.405 22.491h0.211v0.704h-0.211z"></path>
<path fill="#fff" d="M1.405 22.491h0.211v0.704h-0.211zM-1.052 22.491h0.211v0.704h-0.211zM0.749 22.491h0.211v0.704h-0.211zM-0.143 22.491h0.211v0.704h-0.211z"></path>
<path fill="#fff" d="M0.897 22.983v0.211h-0.946v-0.211zM0.96 22.436v0.211h-0.6v-0.211z"></path>
<path fill="#fff" d="M8.976 21.935h3.067v0.211h-3.067zM9.433 22.99h0.211v0.205h-0.211zM12.050 22.983v0.211h-0.613v-0.211zM12.38 21.935h0.211v1.26h-0.211z"></path>
<path fill="#fff" d="M13.601 22.983v0.211h-1.161v-0.211zM11.437 22.491h0.211v0.704h-0.211z"></path>
<path fill="#fff" d="M13.428 21.935h0.211v1.26h-0.211zM12.901 21.935h0.211v1.26h-0.211zM10.101 22.436v0.211h-1.119v-0.211zM12.557 22.436v0.211h-1.119v-0.211z"></path>
<path fill="#fff" d="M11.437 22.491h0.211v0.704h-0.211z"></path>
<path fill="#fff" d="M11.437 22.491h0.211v0.704h-0.211zM8.981 22.491h0.211v0.704h-0.211zM10.782 22.491h0.211v0.704h-0.211zM9.89 22.491h0.211v0.704h-0.211z"></path>
<path fill="#fff" d="M10.93 22.983v0.211h-0.946v-0.211zM10.993 22.436v0.211h-0.6v-0.211z"></path>
<path fill="#fff" d="M14.003 21.935h3.067v0.211h-3.067zM14.461 22.99h0.211v0.205h-0.211zM17.078 22.983v0.211h-0.613v-0.211zM17.408 21.935h0.211v1.26h-0.211z"></path>
<path fill="#fff" d="M18.629 22.983v0.211h-1.162v-0.211zM16.465 22.491h0.211v0.704h-0.211z"></path>
<path fill="#fff" d="M18.456 21.935h0.211v1.26h-0.211zM17.928 21.935h0.211v1.26h-0.211zM15.128 22.436v0.211h-1.119v-0.211zM17.585 22.436v0.211h-1.119v-0.211z"></path>
<path fill="#fff" d="M16.465 22.491h0.211v0.704h-0.211z"></path>
<path fill="#fff" d="M16.465 22.491h0.211v0.704h-0.211zM14.009 22.491h0.211v0.704h-0.211zM15.809 22.491h0.211v0.704h-0.211zM14.918 22.491h0.211v0.704h-0.211z"></path>
<path fill="#fff" d="M15.958 22.983v0.211h-0.946v-0.211zM16.020 22.436v0.211h-0.6v-0.211z"></path>
<path fill="#fff" d="M19.050 21.935h3.067v0.211h-3.067zM19.507 22.99h0.211v0.205h-0.211zM22.125 22.983v0.211h-0.613v-0.211zM22.454 21.935h0.211v1.26h-0.211z"></path>
<path fill="#fff" d="M23.675 22.983v0.211h-1.162v-0.211zM21.512 22.491h0.211v0.704h-0.211z"></path>
<path fill="#fff" d="M23.502 21.935h0.211v1.26h-0.211zM22.975 21.935h0.211v1.26h-0.211zM20.175 22.436v0.211h-1.119v-0.211zM22.631 22.436v0.211h-1.119v-0.211z"></path>
<path fill="#fff" d="M21.512 22.491h0.211v0.704h-0.211z"></path>
<path fill="#fff" d="M21.512 22.491h0.211v0.704h-0.211zM19.055 22.491h0.211v0.704h-0.211zM20.856 22.491h0.211v0.704h-0.211zM19.964 22.491h0.211v0.704h-0.211z"></path>
<path fill="#fff" d="M21.004 22.983v0.211h-0.946v-0.211zM21.067 22.436v0.211h-0.6v-0.211z"></path>
<path fill="#239f40" d="M-6.665 0h56v10.51h-56z"></path>
<path fill="#fff" d="M24.125 21.935h3.067v0.211h-3.067zM24.582 22.99h0.211v0.205h-0.211zM27.2 22.983v0.211h-0.613v-0.211zM27.53 21.935h0.211v1.26h-0.211z"></path>
<path fill="#fff" d="M28.751 22.983v0.211h-1.162v-0.211zM26.587 22.491h0.211v0.704h-0.211z"></path>
<path fill="#fff" d="M28.578 21.935h0.211v1.26h-0.211zM28.050 21.935h0.211v1.26h-0.211zM25.25 22.436v0.211h-1.119v-0.211zM27.707 22.436v0.211h-1.119v-0.211z"></path>
<path fill="#fff" d="M26.587 22.491h0.211v0.704h-0.211z"></path>
<path fill="#fff" d="M26.587 22.491h0.211v0.704h-0.211zM24.131 22.491h0.211v0.704h-0.211zM25.931 22.491h0.211v0.704h-0.211zM25.039 22.491h0.211v0.704h-0.211z"></path>
<path fill="#fff" d="M26.079 22.983v0.211h-0.946v-0.211zM26.142 22.436v0.211h-0.6v-0.211z"></path>
<path fill="#fff" d="M29.171 21.935h3.067v0.211h-3.067zM29.628 22.99h0.211v0.205h-0.211zM32.246 22.983v0.211h-0.613v-0.211zM32.575 21.935h0.211v1.26h-0.211z"></path>
<path fill="#fff" d="M33.796 22.983v0.211h-1.162v-0.211zM31.633 22.491h0.211v0.704h-0.211z"></path>
<path fill="#fff" d="M33.623 21.935h0.211v1.26h-0.211zM33.096 21.935h0.211v1.26h-0.211zM30.296 22.436v0.211h-1.119v-0.211zM32.752 22.436v0.211h-1.119v-0.211z"></path>
<path fill="#fff" d="M31.633 22.491h0.211v0.704h-0.211z"></path>
<path fill="#fff" d="M31.633 22.491h0.211v0.704h-0.211zM29.177 22.491h0.211v0.704h-0.211zM30.977 22.491h0.211v0.704h-0.211zM30.085 22.491h0.211v0.704h-0.211z"></path>
<path fill="#fff" d="M31.125 22.983v0.211h-0.946v-0.211zM31.188 22.436v0.211h-0.6v-0.211z"></path>
<path fill="#fff" d="M34.217 21.935h3.067v0.211h-3.067zM34.674 22.99h0.211v0.205h-0.211zM37.292 22.983v0.211h-0.613v-0.211zM37.622 21.935h0.211v1.26h-0.211z"></path>
<path fill="#fff" d="M38.843 22.983v0.211h-1.162v-0.211zM36.679 22.491h0.211v0.704h-0.211z"></path>
<path fill="#fff" d="M38.67 21.935h0.211v1.26h-0.211zM38.142 21.935h0.211v1.26h-0.211zM35.342 22.436v0.211h-1.119v-0.211zM37.798 22.436v0.211h-1.119v-0.211z"></path>
<path fill="#fff" d="M36.679 22.491h0.211v0.704h-0.211z"></path>
<path fill="#fff" d="M36.679 22.491h0.211v0.704h-0.211zM34.223 22.491h0.211v0.704h-0.211zM36.023 22.491h0.211v0.704h-0.211zM35.131 22.491h0.211v0.704h-0.211z"></path>
<path fill="#fff" d="M36.171 22.983v0.211h-0.946v-0.211zM36.234 22.436v0.211h-0.6v-0.211z"></path>
<path fill="#fff" d="M39.293 21.935h3.067v0.211h-3.067zM39.75 22.99h0.211v0.205h-0.211zM42.368 22.983v0.211h-0.613v-0.211zM42.697 21.935h0.211v1.26h-0.211z"></path>
<path fill="#fff" d="M43.918 22.983v0.211h-1.162v-0.211zM41.755 22.491h0.211v0.704h-0.211z"></path>
<path fill="#fff" d="M43.745 21.935h0.211v1.26h-0.211zM43.218 21.935h0.211v1.26h-0.211zM40.418 22.436v0.211h-1.119v-0.211zM42.874 22.436v0.211h-1.119v-0.211z"></path>
<path fill="#fff" d="M41.755 22.491h0.211v0.704h-0.211z"></path>
<path fill="#fff" d="M41.755 22.491h0.211v0.704h-0.211zM39.298 22.491h0.211v0.704h-0.211zM41.099 22.491h0.211v0.704h-0.211zM40.207 22.491h0.211v0.704h-0.211z"></path>
<path fill="#fff" d="M41.247 22.983v0.211h-0.946v-0.211zM41.31 22.436v0.211h-0.6v-0.211z"></path>
<path fill="#fff" d="M3.98 8.965h3.067v0.211h-3.067zM4.438 10.020h0.211v0.205h-0.211zM7.055 10.014v0.211h-0.613v-0.211zM7.385 8.965h0.211v1.26h-0.211z"></path>
<path fill="#fff" d="M8.606 10.014v0.211h-1.162v-0.211zM6.442 9.521h0.211v0.704h-0.211z"></path>
<path fill="#fff" d="M8.433 8.965h0.211v1.26h-0.211zM7.905 8.965h0.211v1.26h-0.211zM5.105 9.467v0.211h-1.119v-0.211zM7.562 9.467v0.211h-1.119v-0.211z"></path>
<path fill="#fff" d="M6.442 9.521h0.211v0.704h-0.211z"></path>
<path fill="#fff" d="M6.442 9.521h0.211v0.704h-0.211zM3.986 9.521h0.211v0.704h-0.211zM5.786 9.521h0.211v0.704h-0.211zM4.894 9.521h0.211v0.704h-0.211z"></path>
<path fill="#fff" d="M5.934 10.014v0.211h-0.946v-0.211zM5.997 9.467v0.211h-0.6v-0.211z"></path>
<path fill="#fff" d="M-1.057 8.965h3.067v0.211h-3.067zM-0.6 10.020h0.211v0.205h-0.211zM2.018 10.014v0.211h-0.613v-0.211zM2.347 8.965h0.211v1.26h-0.211z"></path>
<path fill="#fff" d="M3.568 10.014v0.211h-1.162v-0.211zM1.405 9.521h0.211v0.704h-0.211z"></path>
<path fill="#fff" d="M3.395 8.965h0.211v1.26h-0.211zM2.868 8.965h0.211v1.26h-0.211zM0.068 9.467v0.211h-1.119v-0.211zM2.524 9.467v0.211h-1.119v-0.211z"></path>
<path fill="#fff" d="M1.405 9.521h0.211v0.704h-0.211z"></path>
<path fill="#fff" d="M1.405 9.521h0.211v0.704h-0.211zM-1.052 9.521h0.211v0.704h-0.211zM0.749 9.521h0.211v0.704h-0.211zM-0.143 9.521h0.211v0.704h-0.211z"></path>
<path fill="#fff" d="M0.897 10.014v0.211h-0.946v-0.211zM0.96 9.467v0.211h-0.6v-0.211z"></path>
<path fill="#fff" d="M8.976 8.965h3.067v0.211h-3.067zM9.433 10.020h0.211v0.205h-0.211zM12.050 10.014v0.211h-0.613v-0.211zM12.38 8.965h0.211v1.26h-0.211z"></path>
<path fill="#fff" d="M13.601 10.014v0.211h-1.161v-0.211zM11.437 9.521h0.211v0.704h-0.211z"></path>
<path fill="#fff" d="M13.428 8.965h0.211v1.26h-0.211zM12.901 8.965h0.211v1.26h-0.211zM10.101 9.467v0.211h-1.119v-0.211zM12.557 9.467v0.211h-1.119v-0.211z"></path>
<path fill="#fff" d="M11.437 9.521h0.211v0.704h-0.211z"></path>
<path fill="#fff" d="M11.437 9.521h0.211v0.704h-0.211zM8.981 9.521h0.211v0.704h-0.211zM10.782 9.521h0.211v0.704h-0.211zM9.89 9.521h0.211v0.704h-0.211z"></path>
<path fill="#fff" d="M10.93 10.014v0.211h-0.946v-0.211zM10.993 9.467v0.211h-0.6v-0.211z"></path>
<path fill="#fff" d="M14.003 8.965h3.067v0.211h-3.067zM14.461 10.020h0.211v0.205h-0.211zM17.078 10.014v0.211h-0.613v-0.211zM17.408 8.965h0.211v1.26h-0.211z"></path>
<path fill="#fff" d="M18.629 10.014v0.211h-1.162v-0.211zM16.465 9.521h0.211v0.704h-0.211z"></path>
<path fill="#fff" d="M18.456 8.965h0.211v1.26h-0.211zM17.928 8.965h0.211v1.26h-0.211zM15.128 9.467v0.211h-1.119v-0.211zM17.585 9.467v0.211h-1.119v-0.211z"></path>
<path fill="#fff" d="M16.465 9.521h0.211v0.704h-0.211z"></path>
<path fill="#fff" d="M16.465 9.521h0.211v0.704h-0.211zM14.009 9.521h0.211v0.704h-0.211zM15.809 9.521h0.211v0.704h-0.211zM14.918 9.521h0.211v0.704h-0.211z"></path>
<path fill="#fff" d="M15.958 10.014v0.211h-0.946v-0.211zM16.020 9.467v0.211h-0.6v-0.211z"></path>
<path fill="#fff" d="M19.050 8.965h3.067v0.211h-3.067zM19.507 10.020h0.211v0.205h-0.211zM22.125 10.014v0.211h-0.613v-0.211zM22.454 8.965h0.211v1.26h-0.211z"></path>
<path fill="#fff" d="M23.675 10.014v0.211h-1.162v-0.211zM21.512 9.521h0.211v0.704h-0.211z"></path>
<path fill="#fff" d="M23.502 8.965h0.211v1.26h-0.211zM22.975 8.965h0.211v1.26h-0.211zM20.175 9.467v0.211h-1.119v-0.211zM22.631 9.467v0.211h-1.119v-0.211z"></path>
<path fill="#fff" d="M21.512 9.521h0.211v0.704h-0.211z"></path>
<path fill="#fff" d="M21.512 9.521h0.211v0.704h-0.211zM19.055 9.521h0.211v0.704h-0.211zM20.856 9.521h0.211v0.704h-0.211zM19.964 9.521h0.211v0.704h-0.211z"></path>
<path fill="#fff" d="M21.004 10.014v0.211h-0.946v-0.211zM21.067 9.467v0.211h-0.6v-0.211z"></path>
<path fill="#fff" d="M24.125 8.965h3.067v0.211h-3.067zM24.582 10.020h0.211v0.205h-0.211zM27.2 10.014v0.211h-0.613v-0.211zM27.53 8.965h0.211v1.26h-0.211z"></path>
<path fill="#fff" d="M28.751 10.014v0.211h-1.162v-0.211zM26.587 9.521h0.211v0.704h-0.211z"></path>
<path fill="#fff" d="M28.578 8.965h0.211v1.26h-0.211zM28.050 8.965h0.211v1.26h-0.211zM25.25 9.467v0.211h-1.119v-0.211zM27.707 9.467v0.211h-1.119v-0.211z"></path>
<path fill="#fff" d="M26.587 9.521h0.211v0.704h-0.211z"></path>
<path fill="#fff" d="M26.587 9.521h0.211v0.704h-0.211zM24.131 9.521h0.211v0.704h-0.211zM25.931 9.521h0.211v0.704h-0.211zM25.039 9.521h0.211v0.704h-0.211z"></path>
<path fill="#fff" d="M26.079 10.014v0.211h-0.946v-0.211zM26.142 9.467v0.211h-0.6v-0.211z"></path>
<path fill="#fff" d="M29.171 8.965h3.067v0.211h-3.067zM29.628 10.020h0.211v0.205h-0.211zM32.246 10.014v0.211h-0.613v-0.211zM32.575 8.965h0.211v1.26h-0.211z"></path>
<path fill="#fff" d="M33.796 10.014v0.211h-1.162v-0.211zM31.633 9.521h0.211v0.704h-0.211z"></path>
<path fill="#fff" d="M33.623 8.965h0.211v1.26h-0.211zM33.096 8.965h0.211v1.26h-0.211zM30.296 9.467v0.211h-1.119v-0.211zM32.752 9.467v0.211h-1.119v-0.211z"></path>
<path fill="#fff" d="M31.633 9.521h0.211v0.704h-0.211z"></path>
<path fill="#fff" d="M31.633 9.521h0.211v0.704h-0.211zM29.177 9.521h0.211v0.704h-0.211zM30.977 9.521h0.211v0.704h-0.211zM30.085 9.521h0.211v0.704h-0.211z"></path>
<path fill="#fff" d="M31.125 10.014v0.211h-0.946v-0.211zM31.188 9.467v0.211h-0.6v-0.211z"></path>
<path fill="#fff" d="M34.217 8.965h3.067v0.211h-3.067zM34.674 10.020h0.211v0.205h-0.211zM37.292 10.014v0.211h-0.613v-0.211zM37.622 8.965h0.211v1.26h-0.211z"></path>
<path fill="#fff" d="M38.843 10.014v0.211h-1.162v-0.211zM36.679 9.521h0.211v0.704h-0.211z"></path>
<path fill="#fff" d="M38.67 8.965h0.211v1.26h-0.211zM38.142 8.965h0.211v1.26h-0.211zM35.342 9.467v0.211h-1.119v-0.211zM37.798 9.467v0.211h-1.119v-0.211z"></path>
<path fill="#fff" d="M36.679 9.521h0.211v0.704h-0.211z"></path>
<path fill="#fff" d="M36.679 9.521h0.211v0.704h-0.211zM34.223 9.521h0.211v0.704h-0.211zM36.023 9.521h0.211v0.704h-0.211zM35.131 9.521h0.211v0.704h-0.211z"></path>
<path fill="#fff" d="M36.171 10.014v0.211h-0.946v-0.211zM36.234 9.467v0.211h-0.6v-0.211z"></path>
<path fill="#fff" d="M39.293 8.965h3.067v0.211h-3.067zM39.75 10.020h0.211v0.205h-0.211zM42.368 10.014v0.211h-0.613v-0.211zM42.697 8.965h0.211v1.26h-0.211z"></path>
<path fill="#fff" d="M43.918 10.014v0.211h-1.162v-0.211zM41.755 9.521h0.211v0.704h-0.211z"></path>
<path fill="#fff" d="M43.745 8.965h0.211v1.26h-0.211zM43.218 8.965h0.211v1.26h-0.211zM40.418 9.467v0.211h-1.119v-0.211zM42.874 9.467v0.211h-1.119v-0.211z"></path>
<path fill="#fff" d="M41.755 9.521h0.211v0.704h-0.211z"></path>
<path fill="#fff" d="M41.755 9.521h0.211v0.704h-0.211zM39.298 9.521h0.211v0.704h-0.211zM41.099 9.521h0.211v0.704h-0.211zM40.207 9.521h0.211v0.704h-0.211z"></path>
<path fill="#fff" d="M41.247 10.014v0.211h-0.946v-0.211zM41.31 9.467v0.211h-0.6v-0.211z"></path>
<path fill="#d90000" d="M1.030 21.219h0.378v0.657h-0.378zM11.063 21.219h0.378v0.657h-0.378zM-6.668 21.219h0.378v0.657h-0.378zM-1.576 21.219h0.378v0.657h-0.378zM3.48 21.219h0.378v0.657h-0.378zM5.981 21.219h0.378v0.657h-0.378zM8.535 21.219h0.378v0.657h-0.378zM13.565 21.219h0.378v0.657h-0.378zM26.256 21.219h0.378v0.657h-0.378zM16.119 21.219h0.378v0.657h-0.378zM18.621 21.219h0.378v0.657h-0.378zM21.148 21.219h0.378v0.657h-0.378zM23.676 21.219h0.378v0.657h-0.378zM43.873 21.219h0.378v0.657h-0.378zM28.706 21.219h0.378v0.657h-0.378zM31.259 21.219h0.378v0.657h-0.378zM33.84 21.219h0.378v0.657h-0.378zM36.263 21.219h0.378v0.657h-0.378zM38.843 21.219h0.378v0.657h-0.378zM41.371 21.219h0.378v0.657h-0.378zM48.85 21.219h0.378v0.657h-0.378zM46.427 21.219h0.378v0.657h-0.378zM-4.13 21.219h0.378v0.657h-0.378z"></path>
<path fill="#239e3f" d="M1.030 10.163h0.378v0.657h-0.378zM11.063 10.163h0.378v0.657h-0.378zM-6.668 10.163h0.378v0.657h-0.378zM-1.576 10.163h0.378v0.657h-0.378zM3.48 10.163h0.378v0.657h-0.378zM5.981 10.163h0.378v0.657h-0.378zM8.535 10.163h0.378v0.657h-0.378zM13.565 10.163h0.378v0.657h-0.378zM26.256 10.163h0.378v0.657h-0.378zM16.119 10.163h0.378v0.657h-0.378zM18.621 10.163h0.378v0.657h-0.378zM21.148 10.163h0.378v0.657h-0.378zM23.676 10.163h0.378v0.657h-0.378zM43.873 10.163h0.378v0.657h-0.378zM28.706 10.163h0.378v0.657h-0.378zM31.259 10.163h0.378v0.657h-0.378zM33.84 10.163h0.378v0.657h-0.378zM36.263 10.163h0.378v0.657h-0.378zM38.843 10.163h0.378v0.657h-0.378zM41.371 10.163h0.378v0.657h-0.378zM48.85 10.163h0.378v0.657h-0.378zM46.427 10.163h0.378v0.657h-0.378zM-4.13 10.163h0.378v0.657h-0.378z"></path>
<path fill="#da0000" d="M22.82 12.343c0.528 0.647 2.157 4.228-0.983 6.574-1.476 1.111-0.562 1.167-0.518 1.354 2.373-1.26 3.148-2.968 3.13-4.498s-0.829-2.881-1.628-3.43z"></path>
<path fill="#da0000" d="M23.134 12.177c1.172 0.6 3.722 3.617 0.977 7.021 1.706-0.378 3.874-5.401-0.977-7.021zM19.535 12.177c-1.172 0.6-3.722 3.617-0.977 7.021-1.706-0.378-3.874-5.401 0.977-7.021z"></path>
<path fill="#da0000" d="M19.845 12.343c-0.528 0.647-2.157 4.228 0.983 6.574 1.476 1.111 0.562 1.167 0.518 1.354-2.373-1.26-3.148-2.968-3.13-4.498s0.829-2.881 1.628-3.43z"></path>
<path fill="#da0000" d="M24.344 19.944c-0.929 0.015-2.1-0.128-2.968-0.579 0.143 0.278 0.262 0.453 0.405 0.731 0.828 0.076 1.971 0.171 2.563-0.152zM18.409 19.944c0.929 0.015 2.1-0.128 2.968-0.579-0.143 0.278-0.262 0.453-0.405 0.731-0.828 0.076-1.971 0.171-2.563-0.152zM20.112 11.275c0.188 0.5 0.682 0.573 1.21 0.278 0.385 0.231 0.981 0.246 1.186-0.254 0.156 1.236-1.144 0.944-1.192 0.702-0.484 0.468-1.385 0.198-1.204-0.726z"></path>
<path fill="#da0000" d="M21.357 20.723l0.488-0.558 0.070-7.511-0.581-0.512-0.581 0.488 0.116 7.558 0.488 0.535z"></path>
</svg>
