<!-- Generated by IcoMoon.io -->
<svg version="1.1" xmlns="http://www.w3.org/2000/svg" width="43" height="32" viewBox="0 0 43 32">
<title>JEP</title>
<path fill="#fff" d="M-5.334 0h53.333v32h-53.333z"></path>
<path fill="#df112d" d="M-5.334 0v2.055l23.222 13.945-23.222 13.945v2.055h3.5l23.168-13.945 23.165 13.945h3.5v-2.055l-23.22-13.945 23.221-13.945v-2.055h-3.499l-23.169 13.945-23.166-13.945h-3.5z"></path>
<path fill="#e8112d" d="M24.123 4.788c0.685 2.775 0.309 6.203-2.786 8.104-3.096-1.902-3.472-5.329-2.786-8.104 0.73-0.663 4.047-1.072 5.572 0z"></path>
<path fill="#f9dd16" d="M21.332 4.231c1.135 0 2.192 0.3 2.815 0.69 0.122-0.957 0.556-1.914 1.068-2.637-0.534-0.011-0.773 0.273-0.779 0.567-0.134-0.378-0.657-0.356-0.818-0.15 0.584 0.395 0.134 1.096-0.395 0.951-0.248-0.068-0.379-0.241-0.426-0.492 0.151-0.010 0.269-0.134 0.269-0.287 0-0.159-0.129-0.287-0.287-0.287s-0.287 0.129-0.287 0.287c0 0.121 0.075 0.224 0.181 0.267l0.002 0.001c-0.167 0.273-0.466 0.354-0.681 0.295-0.278-0.078-0.395-0.328-0.395-0.551 0-0.579 0.556-0.668 0.723-0.567-0.011-0.389-0.623-0.701-0.812-0.378 0.211-0.378 0.2-0.912-0.178-1.268-0.378 0.356-0.389 0.89-0.178 1.268-0.189-0.323-0.801-0.011-0.812 0.378 0.167-0.1 0.723-0.011 0.723 0.567 0 0.222-0.117 0.473-0.395 0.551-0.215 0.060-0.514-0.022-0.681-0.295 0.048-0.019 0.089-0.048 0.119-0.086l0-0.001c0.040-0.049 0.064-0.112 0.064-0.181 0-0.159-0.129-0.287-0.287-0.287s-0.287 0.129-0.287 0.287c0 0.152 0.118 0.276 0.267 0.286l0.001 0c-0.046 0.251-0.178 0.424-0.426 0.492-0.528 0.145-0.979-0.556-0.395-0.951-0.161-0.206-0.684-0.228-0.818 0.15-0.006-0.295-0.245-0.579-0.779-0.567 0.512 0.723 0.946 1.68 1.068 2.637 0.623-0.389 1.68-0.69 2.815-0.69z"></path>
<path fill="#f9dd16" d="M23.686 6.953c-0.068 0.016-0.068 0.104-0.104 0.104 0.178-0.005 0.264-0.054 0.318-0.144-0.039 0.036-0.005 0.104-0.018 0.121 0.131-0.046 0.193-0.157 0.147-0.232 0.029 0.042 0.114 0.065 0.14 0.068-0.091-0.072-0.026-0.235-0.173-0.32 0.049-0.003 0.144 0.052 0.17 0.117-0.023-0.147-0.046-0.242-0.167-0.323 0.013 0.015 0.082 0.028 0.111 0-0.078-0.049-0.101-0.13-0.094-0.183 0.009-0.073-0.039-0.088-0.131-0.065-0.082 0.020-0.271 0.033-0.382 0.033-0.228 0-0.428 0-0.617-0.131 0.284 0.117 0.646-0.131 0.646-0.336 0-0.228-0.281-0.415-0.849-0.291s-1.26 0.072-1.26-0.117c0-0.189 0.496-0.216 0.751-0.176s0.437 0.065 0.914-0.104c-0.117 0.046-0.496 0.059-0.796-0.026s-1.038-0.085-1.045 0.313c-0.006 0.398 0.786 0.362 1.469 0.261 0.398-0.059 0.607-0.020 0.607 0.111 0 0.124-0.366 0.176-0.646 0.144s-0.568-0.026-0.901 0.072c-0.278 0.082-0.47 0-0.777 0.052-0.149 0.025-0.509 0-0.687-0.294-0.109 0.078-0.439 0.242-0.495 0.402-0.078 0.147-0.026 0.293 0.078 0.437 0.132 0.181-0.065 0.154-0.205 0.16-0.192 0.009-0.45-0.020-0.584-0.173-0.119-0.135-0.278-0.243-0.404-0.143-0.065 0.052-0.003 0.119 0.049 0.101s0.111 0.019 0.166 0.043c-0.087-0.037-0.183-0.008-0.22 0.025-0.051 0.046 0.011 0.134 0.073 0.103 0.049-0.024 0.149-0.041 0.214 0.019-0.071-0.014-0.144-0.011-0.179 0.027s-0.008 0.093 0.068 0.089c0.122-0.005 0.153 0.080 0.276 0.063-0.075 0.010-0.118 0.049-0.137 0.078 0.114-0.052 0.24 0.089 0.389 0.056-0.058 0.024-0.151 0.081-0.15 0.124 0.088-0.101 0.679 0.078 0.692-0.144 0.016 0.046 0.013 0.114-0.033 0.173 0.076-0.046 0.32-0.062 0.395-0.238 0.006 0.052-0.003 0.121-0.049 0.137 0.078 0.026 0.182-0.033 0.287-0.189 0.042-0.062 0.052-0.104 0.045-0.15 0.105 0.004 0.18-0.022 0.262-0.091 0.085-0.072 0.176 0.059 0.32-0.033s0.268-0.013 0.346-0.059c0.078-0.046 0.186 0.016 0.271-0.036s0.217 0.026 0.357-0.085c0.221 0.081 0.479 0.231 1.112 0.115 0.363-0.067 0.477 0.056 0.477 0.222 0 0.114-0.067 0.124-0.117 0.127-0.202 0.012-0.288-0.075-0.368-0.047-0.053 0.019-0.086 0.106-0.009 0.136-0.064 0.033-0.056 0.094-0.023 0.116s0.117 0.002 0.174-0.025c-0.073 0.033-0.149 0.093-0.106 0.155 0.026 0.038 0.093 0.070 0.155-0.011s0.176-0.149 0.249-0.139zM19.666 5.229c-0.183-0.075-0.245-0.077-0.202 0.072 0.018 0.064 0.062 0.154 0.106 0.194 0.002-0.062 0.025-0.233 0.096-0.266z"></path>
<path fill="#f9dd16" d="M20.238 5.229c0.183-0.075 0.245-0.077 0.202 0.072-0.018 0.064-0.062 0.154-0.106 0.194-0.002-0.062-0.024-0.233-0.096-0.266z"></path>
<path fill="#f9dd16" d="M19.953 5.129c0.346 0 0.389 0.162 0.387 0.365-0.002 0.219-0.119 0.143-0.186 0.424-0.026 0.11-0.114 0.116-0.202 0.116s-0.175-0.006-0.202-0.116c-0.067-0.281-0.184-0.205-0.186-0.424-0.002-0.202 0.041-0.365 0.388-0.365z"></path>
<path fill="#f9dd16" d="M19.063 5.931c-0.088-0.052-0.145-0.016-0.181-0.006 0.114 0.029 0.119 0.176 0.38 0.245-0.059-0.016-0.091 0.016-0.147-0.013 0.108 0.085 0.228 0.183 0.483 0.186 0.142 0.002 0.044 0.075-0.049 0.033 0.096 0.1 0.287 0.018 0.408 0.199 0.023-0.14-0.225-0.362-0.111-0.522-0.352-0.015-0.381-0.21-0.584-0.366-0.165-0.126-0.18-0.255-0.253-0.495-0.033-0.109-0.161-0.177-0.231-0.151-0.062 0.023-0.084 0.076-0.031 0.116s0.121 0.045 0.135 0.147c-0.069-0.083-0.172-0.112-0.222-0.061-0.030 0.032-0.018 0.105 0.047 0.111 0.106 0.011 0.030 0.114 0.15 0.215-0.107-0.12-0.199-0.131-0.256-0.066-0.034 0.039 0 0.109 0.073 0.101 0.106-0.011 0.229 0.258 0.388 0.327zM21.901 6.94c-0.056 0.010-0.039 0.101-0.114 0.108 0.18 0 0.271-0.042 0.356-0.111-0.039 0.023-0.055 0.082-0.059 0.114 0.095-0.082 0.32-0.088 0.437-0.065s0.137-0.033 0.179-0.108c0.043-0.075-0.016-0.118-0.075-0.176s-0.072-0.14-0.059-0.278c-0.313-0.418-0.875-0.215-0.881-0.033 0.202 0.235 0.228 0.209 0.398 0.242s0.274 0.033 0.16 0.127c-0.039 0.033-0.202 0.017-0.33 0.023-0.285 0.012-0.415-0.197-0.499-0.088-0.069 0.089 0.002 0.129 0.143 0.124-0.098 0.001-0.227-0.004-0.205 0.087 0.037 0.153 0.184-0.028 0.241 0.035-0.049-0.012-0.125 0.018-0.128 0.064s0.109 0.106 0.231 0.009c0.056-0.043 0.126-0.070 0.203-0.073l0.001-0z"></path>
<path fill="#ff0016" d="M19.953 5.977c0.093 0 0.147-0.002 0.132-0.132-0.006-0.052 0.064-0.073 0.039-0.158 0.026 0.104-0.171 0.094-0.171 0.047 0 0.047-0.197 0.057-0.171-0.047-0.025 0.085 0.045 0.106 0.039 0.159-0.015 0.13 0.039 0.132 0.132 0.132z"></path>
<path fill="#000" d="M19.868 5.712l-0.223-0.062M19.868 5.724l-0.249-0.002M19.87 5.737l-0.213 0.057M20.035 5.712l0.223-0.062M20.035 5.724l0.249-0.002M20.033 5.737l0.213 0.057"></path>
<path fill="#0051ba" d="M18.795 5.045c-0.065-0.081-0.228-0.013-0.231 0.088 0.055-0.065 0.145 0.029 0.194 0.009 0.034-0.014 0.064-0.064 0.037-0.097zM18.713 5.236c-0.065-0.081-0.227-0.013-0.231 0.088 0.055-0.065 0.144 0.029 0.194 0.009 0.034-0.013 0.064-0.064 0.037-0.097zM18.669 5.493c-0.074-0.073-0.227 0.013-0.219 0.113 0.047-0.071 0.147 0.012 0.193-0.013 0.032-0.017 0.056-0.071 0.026-0.1zM18.748 6.29c-0.082-0.064-0.224 0.039-0.205 0.138 0.039-0.076 0.147-0.005 0.19-0.035 0.030-0.021 0.048-0.077 0.015-0.103zM18.743 6.464c-0.097-0.036-0.202 0.106-0.153 0.194 0.013-0.084 0.139-0.050 0.171-0.092 0.022-0.029 0.022-0.088-0.018-0.102zM18.867 6.595c-0.097-0.036-0.202 0.106-0.153 0.194 0.014-0.084 0.139-0.050 0.171-0.092 0.022-0.029 0.022-0.088-0.018-0.102zM21.417 6.847c-0.097-0.036-0.202 0.106-0.153 0.194 0.014-0.084 0.139-0.050 0.171-0.092 0.022-0.029 0.022-0.088-0.018-0.102zM21.549 6.965c-0.101-0.025-0.188 0.129-0.13 0.21 0.004-0.085 0.132-0.065 0.159-0.111 0.019-0.032 0.012-0.089-0.029-0.099zM21.456 6.68c-0.090-0.052-0.217 0.071-0.184 0.165 0.028-0.080 0.145-0.025 0.184-0.061 0.027-0.025 0.036-0.083-0-0.104zM23.269 6.884c-0.101-0.025-0.188 0.129-0.13 0.21 0.004-0.085 0.132-0.065 0.159-0.111 0.019-0.032 0.012-0.089-0.029-0.099zM23.274 6.724c-0.091-0.049-0.214 0.078-0.178 0.172 0.025-0.081 0.144-0.031 0.182-0.068 0.026-0.026 0.033-0.084-0.004-0.104zM23.343 7.027c-0.102-0.020-0.182 0.137-0.12 0.216 0-0.085 0.129-0.071 0.154-0.118 0.017-0.032 0.008-0.090-0.034-0.098zM19.959 5.898c0.064 0 0.090 0.019 0.090 0.134 0 0.244-0.003 0.349-0.081 0.349s-0.073-0.1-0.073-0.279c0-0.093 0-0.14-0.019-0.132 0-0.061 0.027-0.072 0.084-0.072z"></path>
<path fill="#f9dd16" d="M23.368 9.229c-0.062 0.015-0.062 0.094-0.094 0.094 0.16-0.005 0.238-0.048 0.286-0.129-0.035 0.032-0.005 0.094-0.016 0.109 0.117-0.041 0.173-0.141 0.132-0.209 0.026 0.038 0.103 0.059 0.126 0.062-0.082-0.065-0.023-0.211-0.156-0.288 0.044-0.003 0.129 0.047 0.153 0.106-0.021-0.132-0.041-0.217-0.15-0.291 0.012 0.013 0.073 0.025 0.1 0-0.070-0.044-0.091-0.117-0.085-0.164 0.008-0.066-0.035-0.079-0.118-0.059-0.074 0.018-0.244 0.029-0.344 0.029-0.206 0-0.385 0-0.555-0.118 0.256 0.106 0.582-0.117 0.582-0.303 0-0.206-0.253-0.373-0.764-0.262s-1.134 0.065-1.134-0.106c0-0.17 0.446-0.194 0.676-0.159s0.393 0.059 0.823-0.094c-0.106 0.041-0.447 0.053-0.717-0.023s-0.934-0.076-0.94 0.282c-0.006 0.358 0.707 0.326 1.322 0.235 0.358-0.053 0.546-0.018 0.546 0.1 0 0.112-0.329 0.159-0.582 0.129s-0.511-0.023-0.811 0.065c-0.25 0.074-0.423 0-0.699 0.047-0.134 0.023-0.458 0-0.618-0.264-0.099 0.070-0.395 0.218-0.445 0.362-0.071 0.132-0.023 0.264 0.070 0.393 0.118 0.163-0.059 0.138-0.185 0.144-0.173 0.008-0.405-0.018-0.526-0.156-0.107-0.122-0.25-0.219-0.364-0.129-0.059 0.047-0.002 0.107 0.044 0.091s0.1 0.017 0.149 0.039c-0.078-0.034-0.165-0.007-0.198 0.022-0.046 0.042 0.010 0.121 0.066 0.093 0.044-0.022 0.134-0.037 0.193 0.017-0.064-0.012-0.13-0.010-0.161 0.024s-0.007 0.084 0.061 0.081c0.11-0.005 0.138 0.072 0.248 0.056-0.068 0.009-0.106 0.044-0.124 0.070 0.103-0.047 0.216 0.080 0.35 0.050-0.052 0.021-0.136 0.073-0.135 0.112 0.079-0.091 0.611 0.070 0.623-0.129 0.015 0.041 0.012 0.103-0.029 0.156 0.068-0.041 0.288-0.056 0.355-0.214 0.006 0.047-0.003 0.109-0.044 0.123 0.071 0.023 0.163-0.029 0.258-0.17 0.038-0.056 0.047-0.093 0.040-0.135 0.094 0.004 0.162-0.020 0.236-0.082 0.076-0.065 0.159 0.053 0.288-0.029s0.241-0.012 0.311-0.053c0.071-0.041 0.168 0.014 0.244-0.032s0.195 0.023 0.321-0.077c0.199 0.073 0.431 0.208 1.001 0.103 0.326-0.060 0.429 0.050 0.429 0.2 0 0.103-0.060 0.112-0.106 0.115-0.182 0.011-0.26-0.068-0.331-0.043-0.048 0.017-0.077 0.095-0.008 0.122-0.057 0.029-0.050 0.084-0.021 0.105s0.105 0.002 0.156-0.022c-0.066 0.030-0.134 0.084-0.095 0.14 0.024 0.034 0.083 0.063 0.139-0.010s0.159-0.134 0.224-0.125zM19.75 7.678c-0.165-0.068-0.22-0.069-0.182 0.064 0.016 0.057 0.056 0.138 0.095 0.175 0.002-0.056 0.022-0.21 0.087-0.239z"></path>
<path fill="#f9dd16" d="M20.264 7.678c0.165-0.068 0.22-0.069 0.182 0.064-0.016 0.057-0.056 0.138-0.096 0.175-0.001-0.056-0.022-0.21-0.087-0.239z"></path>
<path fill="#f9dd16" d="M20.008 7.587c0.311 0 0.35 0.146 0.349 0.328-0.001 0.197-0.107 0.129-0.167 0.382-0.023 0.099-0.102 0.104-0.181 0.104s-0.158-0.005-0.182-0.104c-0.060-0.253-0.166-0.185-0.167-0.382-0.002-0.182 0.037-0.328 0.349-0.328z"></path>
<path fill="#f9dd16" d="M19.207 8.309c-0.079-0.047-0.131-0.014-0.163-0.006 0.103 0.026 0.107 0.158 0.342 0.22-0.053-0.015-0.082 0.015-0.132-0.012 0.097 0.076 0.206 0.165 0.435 0.168 0.128 0.001 0.039 0.068-0.044 0.029 0.087 0.090 0.259 0.016 0.367 0.179 0.021-0.126-0.203-0.326-0.1-0.47-0.317-0.014-0.343-0.189-0.526-0.329-0.149-0.114-0.162-0.229-0.228-0.446-0.030-0.098-0.145-0.159-0.208-0.136-0.055 0.020-0.076 0.068-0.028 0.105s0.109 0.041 0.122 0.132c-0.062-0.074-0.155-0.101-0.199-0.055-0.027 0.028-0.016 0.094 0.042 0.1 0.095 0.010 0.027 0.103 0.135 0.194-0.096-0.108-0.179-0.118-0.23-0.059-0.031 0.035 0 0.098 0.066 0.091 0.096-0.010 0.206 0.233 0.349 0.294zM21.761 9.217c-0.050 0.009-0.035 0.091-0.103 0.097 0.162 0 0.244-0.038 0.32-0.1-0.035 0.021-0.050 0.073-0.053 0.103 0.085-0.073 0.288-0.079 0.394-0.059s0.123-0.029 0.161-0.097c0.038-0.068-0.015-0.106-0.067-0.159s-0.065-0.126-0.053-0.25c-0.282-0.376-0.787-0.194-0.793-0.029 0.182 0.211 0.206 0.188 0.358 0.217s0.246 0.029 0.144 0.115c-0.035 0.029-0.182 0.016-0.297 0.021-0.256 0.011-0.374-0.177-0.449-0.079-0.062 0.080 0.002 0.116 0.129 0.111-0.088 0.001-0.205-0.004-0.185 0.078 0.034 0.138 0.166-0.026 0.217 0.031-0.044-0.011-0.112 0.016-0.115 0.058s0.098 0.095 0.208 0.008c0.050-0.039 0.114-0.063 0.183-0.066l0.001-0z"></path>
<path fill="#ff0016" d="M20.008 8.35c0.084 0 0.132-0.001 0.119-0.119-0.005-0.047 0.057-0.066 0.035-0.143 0.023 0.094-0.154 0.085-0.154 0.042 0 0.043-0.178 0.052-0.154-0.042-0.022 0.077 0.040 0.095 0.035 0.143-0.013 0.117 0.035 0.119 0.119 0.119z"></path>
<path fill="#000" d="M19.932 8.113l-0.201-0.056M19.932 8.123l-0.224-0.002M19.934 8.135l-0.191 0.051M20.082 8.113l0.201-0.056M20.082 8.123l0.224-0.002M20.080 8.135l0.191 0.051"></path>
<path fill="#0051ba" d="M18.966 7.512c-0.058-0.073-0.205-0.011-0.208 0.079 0.049-0.059 0.13 0.026 0.174 0.008 0.030-0.012 0.057-0.057 0.034-0.087zM18.892 7.684c-0.058-0.073-0.205-0.011-0.208 0.079 0.049-0.059 0.13 0.026 0.174 0.008 0.030-0.012 0.057-0.057 0.033-0.087zM18.853 7.915c-0.066-0.066-0.205 0.012-0.197 0.102 0.043-0.064 0.132 0.011 0.174-0.011 0.029-0.016 0.050-0.064 0.023-0.090zM18.923 8.632c-0.073-0.058-0.202 0.035-0.185 0.124 0.035-0.068 0.133-0.004 0.171-0.031 0.027-0.019 0.043-0.069 0.013-0.092zM18.919 8.789c-0.088-0.032-0.181 0.096-0.137 0.175 0.012-0.076 0.125-0.045 0.153-0.083 0.020-0.026 0.020-0.079-0.016-0.092zM19.031 8.907c-0.088-0.032-0.181 0.096-0.138 0.175 0.012-0.076 0.125-0.045 0.154-0.083 0.020-0.026 0.020-0.079-0.016-0.092zM21.326 9.134c-0.088-0.032-0.181 0.096-0.137 0.175 0.012-0.076 0.125-0.045 0.153-0.083 0.020-0.026 0.020-0.079-0.016-0.092zM21.445 9.24c-0.091-0.022-0.169 0.116-0.117 0.189 0.004-0.077 0.119-0.059 0.143-0.1 0.017-0.028 0.011-0.081-0.026-0.090zM21.361 8.983c-0.081-0.047-0.195 0.064-0.165 0.149 0.025-0.072 0.131-0.023 0.165-0.055 0.024-0.022 0.033-0.074-0-0.093zM22.993 9.167c-0.091-0.022-0.169 0.116-0.117 0.189 0.004-0.077 0.119-0.059 0.143-0.1 0.017-0.028 0.011-0.081-0.026-0.090zM22.997 9.023c-0.082-0.044-0.193 0.070-0.16 0.154 0.022-0.073 0.13-0.028 0.163-0.061 0.023-0.023 0.030-0.075-0.004-0.093zM23.059 9.296c-0.091-0.018-0.164 0.123-0.108 0.194 0-0.077 0.116-0.064 0.139-0.106 0.016-0.029 0.007-0.081-0.030-0.088zM20.014 8.28c0.057 0 0.081 0.017 0.081 0.121 0 0.22-0.003 0.315-0.073 0.315s-0.066-0.090-0.066-0.251c0-0.084 0-0.126-0.017-0.119 0-0.055 0.024-0.065 0.076-0.065z"></path>
<path fill="#f9dd16" d="M22.836 11.177c-0.046 0.012-0.046 0.078-0.070 0.078 0.119-0.004 0.177-0.040 0.213-0.108-0.026 0.027-0.003 0.078-0.012 0.091 0.087-0.034 0.129-0.118 0.099-0.174 0.020 0.032 0.077 0.049 0.094 0.051-0.061-0.054-0.017-0.176-0.116-0.24 0.033-0.002 0.096 0.039 0.114 0.088-0.015-0.11-0.031-0.181-0.112-0.242 0.009 0.011 0.055 0.021 0.074 0-0.052-0.037-0.068-0.098-0.063-0.137 0.006-0.055-0.026-0.066-0.088-0.049-0.055 0.015-0.181 0.024-0.256 0.024-0.153 0-0.287 0-0.413-0.098 0.19 0.088 0.433-0.098 0.433-0.252 0-0.171-0.188-0.311-0.569-0.218s-0.844 0.054-0.844-0.088c0-0.142 0.332-0.162 0.503-0.132s0.293 0.049 0.612-0.078c-0.079 0.034-0.332 0.044-0.534-0.020s-0.696-0.064-0.7 0.235c-0.004 0.299 0.526 0.272 0.984 0.196 0.267-0.044 0.407-0.015 0.407 0.083 0 0.093-0.245 0.132-0.433 0.108s-0.381-0.020-0.604 0.054c-0.186 0.061-0.315 0-0.52 0.039-0.1 0.019-0.341 0-0.46-0.22-0.073 0.059-0.294 0.182-0.331 0.302-0.053 0.11-0.017 0.22 0.052 0.327 0.088 0.136-0.044 0.115-0.138 0.12-0.129 0.007-0.302-0.015-0.392-0.13-0.080-0.101-0.186-0.183-0.271-0.107-0.044 0.039-0.002 0.090 0.033 0.075s0.075 0.014 0.111 0.032c-0.058-0.028-0.123-0.006-0.148 0.019-0.035 0.035 0.007 0.101 0.049 0.077 0.033-0.018 0.1-0.030 0.144 0.014-0.047-0.010-0.096-0.008-0.12 0.020s-0.005 0.070 0.046 0.067c0.082-0.004 0.103 0.060 0.185 0.047-0.050 0.007-0.079 0.037-0.092 0.059 0.077-0.039 0.161 0.067 0.26 0.042-0.039 0.018-0.101 0.060-0.101 0.093 0.059-0.076 0.455 0.059 0.464-0.108 0.011 0.034 0.009 0.086-0.022 0.13 0.051-0.034 0.214-0.047 0.265-0.179 0.004 0.039-0.002 0.091-0.033 0.103 0.053 0.019 0.122-0.024 0.192-0.142 0.028-0.047 0.035-0.078 0.030-0.113 0.070 0.003 0.121-0.017 0.176-0.069 0.057-0.054 0.118 0.044 0.214-0.024s0.179-0.010 0.232-0.044c0.053-0.034 0.125 0.012 0.182-0.027s0.145 0.019 0.239-0.064c0.148 0.061 0.321 0.173 0.745 0.086 0.243-0.050 0.319 0.042 0.319 0.166 0 0.086-0.045 0.093-0.079 0.095-0.135 0.009-0.193-0.057-0.247-0.036-0.036 0.014-0.058 0.079-0.006 0.102-0.043 0.024-0.037 0.070-0.015 0.087s0.078 0.002 0.116-0.018c-0.049 0.025-0.1 0.070-0.071 0.117 0.018 0.028 0.062 0.052 0.104-0.008s0.118-0.112 0.167-0.104zM20.143 9.884c-0.123-0.056-0.164-0.058-0.136 0.054 0.012 0.048 0.041 0.115 0.071 0.146 0.001-0.046 0.016-0.175 0.065-0.2z"></path>
<path fill="#f9dd16" d="M20.525 9.884c0.123-0.056 0.164-0.058 0.136 0.054-0.012 0.048-0.042 0.115-0.071 0.146-0.001-0.046-0.016-0.175-0.064-0.2z"></path>
<path fill="#f9dd16" d="M20.335 9.809c0.232 0 0.261 0.122 0.26 0.274-0.001 0.164-0.080 0.107-0.125 0.318-0.017 0.082-0.076 0.087-0.135 0.087s-0.118-0.005-0.135-0.087c-0.045-0.21-0.124-0.154-0.125-0.318-0.001-0.152 0.028-0.274 0.26-0.274z"></path>
<path fill="#f9dd16" d="M19.738 10.411c-0.059-0.039-0.097-0.012-0.121-0.005 0.077 0.022 0.080 0.132 0.255 0.183-0.039-0.012-0.061 0.012-0.099-0.010 0.072 0.064 0.153 0.137 0.324 0.14 0.095 0.001 0.029 0.056-0.033 0.024 0.065 0.075 0.192 0.014 0.273 0.149 0.015-0.105-0.151-0.272-0.074-0.392-0.236-0.011-0.255-0.158-0.391-0.274-0.111-0.095-0.121-0.191-0.17-0.371-0.022-0.082-0.108-0.133-0.155-0.113-0.041 0.017-0.056 0.057-0.021 0.087s0.081 0.034 0.091 0.11c-0.046-0.062-0.115-0.084-0.148-0.046-0.020 0.024-0.012 0.079 0.031 0.084 0.071 0.008 0.020 0.086 0.101 0.161-0.071-0.090-0.133-0.098-0.172-0.049-0.023 0.029 0 0.081 0.049 0.076 0.071-0.008 0.154 0.194 0.26 0.245zM21.64 11.167c-0.037 0.007-0.026 0.076-0.077 0.081 0.12 0 0.181-0.032 0.238-0.083-0.026 0.017-0.037 0.061-0.039 0.086 0.063-0.061 0.214-0.066 0.293-0.049s0.092-0.024 0.12-0.081c0.029-0.056-0.011-0.088-0.050-0.132s-0.048-0.105-0.039-0.208c-0.21-0.313-0.586-0.162-0.59-0.024 0.136 0.176 0.153 0.157 0.267 0.181s0.183 0.024 0.107 0.095c-0.026 0.024-0.136 0.013-0.221 0.017-0.191 0.009-0.278-0.148-0.334-0.066-0.046 0.067 0.001 0.097 0.096 0.093-0.065 0.001-0.152-0.003-0.137 0.065 0.025 0.115 0.123-0.021 0.162 0.026-0.033-0.009-0.084 0.014-0.086 0.048s0.073 0.079 0.155 0.007c0.038-0.033 0.085-0.053 0.136-0.055h0z"></path>
<path fill="#ff0016" d="M20.335 10.445c0.062 0 0.098-0.001 0.089-0.099-0.004-0.039 0.043-0.055 0.026-0.119 0.017 0.078-0.115 0.071-0.115 0.035 0 0.036-0.132 0.043-0.115-0.035-0.016 0.064 0.030 0.079 0.026 0.119-0.010 0.098 0.026 0.099 0.089 0.099z"></path>
<path fill="#000" d="M20.278 10.247l-0.15-0.047M20.278 10.256l-0.167-0.002M20.28 10.265l-0.142 0.043M20.39 10.247l0.15-0.047M20.39 10.256l0.167-0.002M20.389 10.265l0.142 0.043"></path>
<path fill="#0051ba" d="M19.559 9.746c-0.044-0.061-0.152-0.009-0.155 0.066 0.037-0.049 0.097 0.021 0.13 0.007 0.023-0.010 0.043-0.048 0.025-0.072zM19.504 9.889c-0.044-0.061-0.152-0.009-0.155 0.066 0.037-0.049 0.097 0.021 0.13 0.007 0.023-0.010 0.043-0.048 0.025-0.072zM19.475 10.082c-0.049-0.055-0.152 0.010-0.147 0.085 0.032-0.053 0.098 0.009 0.13-0.009 0.022-0.013 0.038-0.053 0.017-0.075zM19.527 10.68c-0.055-0.048-0.15 0.029-0.137 0.103 0.026-0.057 0.099-0.004 0.128-0.026 0.020-0.016 0.032-0.057 0.010-0.077zM19.524 10.811c-0.065-0.027-0.135 0.080-0.102 0.145 0.009-0.063 0.093-0.037 0.114-0.069 0.015-0.022 0.015-0.066-0.012-0.077zM19.607 10.908c-0.065-0.027-0.135 0.080-0.102 0.145 0.009-0.063 0.093-0.037 0.114-0.069 0.015-0.022 0.015-0.066-0.012-0.077zM21.316 11.098c-0.065-0.027-0.135 0.080-0.102 0.145 0.009-0.063 0.093-0.037 0.114-0.069 0.015-0.022 0.015-0.066-0.012-0.077zM21.404 11.186c-0.068-0.018-0.126 0.096-0.087 0.158 0.003-0.064 0.088-0.049 0.107-0.083 0.012-0.024 0.008-0.067-0.020-0.075zM21.342 10.972c-0.060-0.039-0.145 0.053-0.123 0.124 0.019-0.060 0.097-0.019 0.123-0.046 0.018-0.019 0.024-0.062-0-0.078zM22.557 11.125c-0.068-0.018-0.126 0.096-0.087 0.158 0.003-0.064 0.089-0.049 0.107-0.083 0.012-0.024 0.008-0.067-0.020-0.075zM22.56 11.005c-0.061-0.037-0.143 0.058-0.119 0.129 0.017-0.061 0.097-0.023 0.122-0.051 0.017-0.020 0.022-0.063-0.003-0.078zM22.606 11.233c-0.068-0.015-0.122 0.103-0.081 0.162 0-0.064 0.087-0.053 0.103-0.088 0.012-0.024 0.005-0.067-0.023-0.073zM20.339 10.386c0.043 0 0.060 0.014 0.060 0.101 0 0.183-0.002 0.262-0.055 0.262s-0.049-0.075-0.049-0.209c0-0.070 0-0.105-0.013-0.099 0-0.046 0.018-0.054 0.056-0.054z"></path>
</svg>
