<!-- Generated by IcoMoon.io -->
<svg version="1.1" xmlns="http://www.w3.org/2000/svg" width="43" height="32" viewBox="0 0 43 32">
<title>KES</title>
<path fill="#fff" d="M0 0h42.667v32h-42.667z"></path>
<path fill="#000" d="M0 0h42.667v9.6h-42.667z"></path>
<path fill="#060" d="M0 22.4h42.667v9.6h-42.667z"></path>
<path fill="#000" d="M15.617 25.5l0.347 0.2 9.343-16.182c0.546-0.146 0.846-0.666 1.146-1.185 0.2-0.346 1-1.732 1.347-3.533-1.386 1.201-2.186 2.586-2.386 2.933-0.3 0.52-0.6 1.039-0.454 1.586z"></path>
<path fill="#fff" d="M15.617 25.5l0.347 0.2 9.343-16.182c0.546-0.146 0.846-0.666 1.146-1.185 0.2-0.346 1-1.732 1.347-3.533-1.386 1.201-2.186 2.586-2.386 2.933-0.3 0.52-0.6 1.039-0.454 1.586z"></path>
<path fill="#000" d="M44.572 3.167l-0.116 0.067-3.114-5.394c-0.182-0.049-0.282-0.222-0.382-0.395-0.067-0.115-0.333-0.577-0.449-1.178 0.462 0.4 0.729 0.862 0.795 0.978 0.1 0.173 0.2 0.346 0.151 0.529z"></path>
<path fill="#fff" d="M44.572 3.167l-0.116 0.067-3.114-5.394c-0.182-0.049-0.282-0.222-0.382-0.395-0.067-0.115-0.333-0.577-0.449-1.178 0.462 0.4 0.729 0.862 0.795 0.978 0.1 0.173 0.2 0.346 0.151 0.529z"></path>
<path fill="#b00" d="M42.7 11.2h-17.567c-0.6-1.6-2.6-4.8-3.8-4.8s-3.2 3.2-3.8 4.8h-17.548v9.6h17.548c0.6 1.6 2.6 4.8 3.8 4.8s3.2-3.2 3.8-4.8h17.567v-9.6z"></path>
<path fill="#000" d="M25.133 20.8c0.6-1.6 1-3.2 1-4.8s-0.4-3.2-1-4.8c-0.6 1.6-1 3.2-1 4.8s0.4 3.2 1 4.8z"></path>
<path fill="#000" d="M17.533 20.8c-0.6-1.6-1-3.2-1-4.8s0.4-3.2 1-4.8c0.6 1.6 1 3.2 1 4.8s-0.4 3.2-1 4.8z"></path>
<path fill="#fff" d="M22.133 16c0 0.663-0.358 1.2-0.8 1.2s-0.8-0.537-0.8-1.2c0-0.663 0.358-1.2 0.8-1.2s0.8 0.537 0.8 1.2z"></path>
<path fill="#fff" d="M21.533 17.17s0.8 1.6 0.8 4.2-0.8 4.2-0.8 4.2z"></path>
<path fill="#fff" d="M21.133 14.83s-0.8-1.6-0.8-4.2 0.8-4.2 0.8-4.2z"></path>
<path fill="#fff" d="M21.133 17.17s-0.8 1.6-0.8 4.2 0.8 4.2 0.8 4.2z"></path>
<path fill="#fff" d="M21.533 14.83s0.8-1.6 0.8-4.2-0.8-4.2-0.8-4.2z"></path>
</svg>
