<!-- Generated by IcoMoon.io -->
<svg version="1.1" xmlns="http://www.w3.org/2000/svg" width="43" height="32" viewBox="0 0 43 32">
<title>KGS</title>
<path fill="#be0027" d="M-2.691 0h48.048v32h-48.048z"></path>
<path fill="#ff0" d="M11.9 16.321c0.854-1.038 2.622-0.025 4.065-0.772-1.71 0.094-2.642-0.821-3.993-0.692 1.4-0.86 2.591 0.281 4.156-0.177-2.073-0.174-1.983-1.101-3.868-1.232 1.674-0.714 2.502 0.734 4.142 0.405-1.933-0.446-2.19-1.585-3.627-1.826 2.101-0.317 1.964 0.925 4.023 1.076-2.090-0.897-1.542-1.675-3.29-2.358 1.956-0.046 1.826 1.309 3.808 1.665-1.697-1.076-1.487-2.058-2.884-2.827 1.658 0.030 1.82 1.727 3.511 2.252-1.509-1.197-1.112-2.207-2.416-3.276 1.649 0.387 1.409 1.851 3.126 2.784-1.273-1.413-0.784-2.425-1.895-3.582 1.586 0.511 0.983 1.902 2.629 3.225-0.943-1.553-0.361-2.544-1.289-3.855 1.472 0.76 0.759 2.179 2.126 3.597-0.643-1.594 0.001-2.585-0.657-3.996 1.259 0.941 0.51 2.458 1.526 3.905-0.37-1.995 0.49-2.323 0.222-4.070 0.957 1.174-0.113 2.349 0.622 4.079-0.089-1.967 0.956-2.425 0.775-4.004 0.948 1.415-0.532 2.647 0.087 4.163 0.16-1.867 1.387-2.35 1.406-3.802 0.746 1.333-0.882 2.292-0.618 4.060 0.536-1.95 1.842-2.191 1.996-3.502 0.452 1.542-1.329 2.259-1.225 3.969 0.531-1.733 2.164-1.937 2.498-3.217 0.206 1.632-1.4 1.921-1.852 3.724 0.845-1.471 2.321-1.592 2.986-2.756-0.052 1.614-1.865 1.825-2.422 3.336 1.045-1.282 2.356-1.059 3.401-2.196-0.11 1.456-1.956 1.374-2.938 2.882 1.134-1.046 2.84-0.732 3.708-1.633-0.042 1.288-2.307 1.191-3.375 2.342 1.317-0.722 2.985-0.298 3.952-0.968-0.177 1.129-2.567 0.865-3.71 1.747 1.576-0.437 2.792 0.238 4.069-0.25-0.621 1.099-2.79 0.403-3.941 1.118 1.367-0.232 2.82 0.597 4.068 0.331-0.41 0.95-2.786-0.057-4.068 0.534 1.532-0.013 2.525 0.965 3.946 0.9-0.773 0.86-2.862-0.323-4.079-0.121 1.485 0.307 2.619 1.538 3.745 1.597-0.924 0.709-2.651-0.906-4.054-0.701 1.444 0.387 2.657 2.029 3.486 2.066-0.893 0.61-2.657-1.404-3.866-1.332 1.468 0.664 2.142 2.345 3.106 2.581-1.194 0.383-2.367-1.826-3.649-1.903 1.486 0.937 1.57 2.37 2.714 3.008-1.204 0.294-2.060-2.198-3.329-2.408 1.218 0.895 1.402 2.808 2.209 3.413-1.225 0.065-1.668-2.545-2.924-2.917 1.076 0.899 0.818 2.849 1.655 3.679-1.277-0.262-1.112-2.534-2.445-3.299 0.957 1.207 0.47 2.928 1.095 3.896-1.242-0.502-0.703-2.535-1.888-3.687 0.647 1.286-0.048 2.787 0.462 4.030-1.135-0.553-0.372-2.962-1.241-3.917 0.4 1.487-0.337 2.717-0.040 4.050-1.16-1.345 0.176-2.699-0.83-4.070 0.267 1.574-0.834 2.669-0.66 3.986-0.92-1.074 0.494-2.798-0.221-4.155 0.154 1.547-1.267 2.902-1.17 3.877-0.749-1.248 0.831-2.724 0.408-4.143-0.089 1.473-1.523 2.274-1.793 3.616-0.482-1.481 1.223-2.551 1.076-4.006-0.488 1.384-1.874 1.939-2.362 3.28-0.4-1.476 1.62-2.26 1.673-3.814-0.624 1.457-2.283 1.777-2.83 2.892-0.204-1.469 2.113-2.125 2.199-3.517-0.746 1.336-2.561 1.391-3.187 2.453-0.095-1.463 2.349-1.645 2.733-3.177-0.743 1.142-2.733 0.994-3.562 1.923 0.131-1.358 2.774-1.442 3.196-2.663-0.983 0.948-2.81 0.555-3.839 1.307 0.573-1.333 3.052-1.051 3.613-2.017-1.098 0.573-3.043 0.017-4 0.59 0.87-1.263 2.8-0.508 3.893-1.378-1.777 0.259-2.844-0.448-4.074-0.121z"></path>
<path fill="#ff0" d="M27.556 16.007c0 3.425-2.776 6.201-6.201 6.201s-6.201-2.776-6.201-6.201c0-3.425 2.776-6.201 6.201-6.201s6.201 2.776 6.201 6.201z"></path>
<path fill="#be0027" d="M26.757 16.019c0 2.978-2.414 5.392-5.392 5.392s-5.392-2.414-5.392-5.392 2.414-5.392 5.392-5.392c2.978 0 5.392 2.414 5.392 5.392z"></path>
<path fill="#ff0" d="M26.007 16.030c0 2.557-2.073 4.63-4.63 4.63s-4.63-2.073-4.63-4.63 2.073-4.63 4.63-4.63c2.557 0 4.63 2.073 4.63 4.63z"></path>
<path fill="#be0027" d="M17.437 12.997c1.281-0.028 2.877 0.089 3.929 0.931 1.116-0.697 2.438-1.019 3.784-0.895l0.689 1.257c-0.999-0.101-1.974 0.040-3.131 0.508 1.475 1.168 2.212 2.676 2.164 4.509-0.169 0.209-0.435 0.443-0.604 0.653 0.246-1.781-0.693-3.767-2.055-4.811 1.108 1.6 1.769 3.042 1.584 5.029-0.198 0.117-0.431 0.282-0.629 0.399 0.29-1.753-0.121-3.808-1.414-5.005 0.745 1.096 1.491 3.062 1.027 5.065-0.201 0.061-0.512 0.23-0.713 0.29 0.52-1.64 0.193-3.691-0.677-4.92-0.862 1.237-1.144 3.127-0.653 4.872-0.242-0.060-0.423-0.133-0.665-0.193-0.355-1.878 0.137-3.997 0.991-5.101-0.87 0.504-1.692 2.663-1.463 4.872-0.209-0.097-0.371-0.169-0.58-0.266-0.282-1.648 0.463-3.792 1.535-5.029-1.217 0.766-2.204 2.643-2.031 4.666-0.185-0.165-0.359-0.246-0.544-0.411-0.214-1.765 0.806-3.542 2.007-4.606-1.011-0.451-1.878-0.54-3.131-0.52 0.197-0.407 0.383-0.886 0.58-1.293z"></path>
</svg>
