<!-- Generated by IcoMoon.io -->
<svg version="1.1" xmlns="http://www.w3.org/2000/svg" width="43" height="32" viewBox="0 0 43 32">
<title>KHR</title>
<path fill="#032ea1" d="M0 0h42.667v32h-42.667z"></path>
<path fill="#e00025" d="M0 8h42.667v16h-42.667z"></path>
<path fill="#fff" d="M16.826 15.082h9.104v3.503h-9.104z"></path>
<path fill="#fff" d="M25.461 17.017h0.287v1.32h-0.287zM16.826 16.365h9.104v0.407h-9.104zM16.826 15.813h9.104v0.359h-9.104z"></path>
<path fill="#fff" d="M16.826 15.261h9.104v0.348h-9.104z"></path>
<path fill="#fff" d="M19.223 17.017h0.287v1.32h-0.287zM23.142 17.017h0.287v1.32h-0.287zM16.898 17.017h0.287v1.32h-0.287zM17.461 17.017h0.287v1.32h-0.287zM18.061 17.017h0.287v1.32h-0.287zM18.661 17.017h0.287v1.32h-0.287zM23.686 17.017h0.287v1.32h-0.287zM24.286 17.017h0.287v1.32h-0.287zM24.886 17.017h0.287v1.32h-0.287z"></path>
<path fill="#fff" d="M13.265 18.769c0.141-0.072 0.301-0.239 0.354-0.426h15.446c0.053 0.187 0.213 0.354 0.354 0.426z"></path>
<path fill="#fff" d="M21.145 9.749s-0.012-0.329 0.18-0.333c0.192 0.004 0.18 0.333 0.18 0.333zM20.146 14.113v-0.443c-0.006-0.221-0.221-0.237-0.227-0.399 0 0-0.028-0.242 0.036-0.353 0.087 0.324 0.244 0.264 0.244 0.131 0-0.116-0.089-0.224-0.273-0.506-0.059-0.090-0.022-0.373 0.060-0.474 0.032 0.246 0.068 0.363 0.174 0.363 0.064 0 0.117-0.042 0.117-0.165 0-0.157-0.106-0.236-0.158-0.378-0.061-0.166-0.019-0.336 0.082-0.43 0.043 0.242 0.030 0.339 0.138 0.339 0.217-0.069 0-0.383-0.046-0.462-0.053-0.092 0.072-0.277 0.072-0.277 0.069 0.215 0.091 0.233 0.166 0.213 0.094-0.025 0.082-0.164-0.033-0.277-0.072-0.071-0.065-0.177 0.013-0.262 0.078 0.152 0.178 0.143 0.187 0.053l-0.063-0.351h1.38l-0.069 0.34c-0.020 0.097 0.112 0.118 0.193-0.041 0.078 0.085 0.085 0.191 0.013 0.262-0.115 0.113-0.127 0.252-0.033 0.277 0.074 0.020 0.097 0.002 0.166-0.213 0 0 0.112 0.126 0.072 0.277-0.046 0.079-0.263 0.394-0.046 0.462 0.108 0 0.095-0.097 0.138-0.339 0.101 0.095 0.143 0.264 0.082 0.43-0.052 0.142-0.158 0.221-0.158 0.378 0 0.123 0.053 0.165 0.117 0.165 0.106 0 0.142-0.118 0.174-0.363 0.082 0.101 0.118 0.384 0.060 0.474-0.183 0.282-0.273 0.39-0.273 0.506 0 0.133 0.158 0.193 0.244-0.131 0.064 0.111 0.036 0.353 0.036 0.353-0.006 0.161-0.221 0.177-0.227 0.399v0.443zM20.723 10.431l-0.032-0.25h1.267l-0.032 0.25zM20.808 10.176l-0.027-0.206h1.088l-0.027 0.206zM20.981 9.963l-0.018-0.206h0.725l-0.018 0.206zM23.622 18.769c-0.162-0.062-0.398-0.234-0.398-0.406v-1.944l0.211-0.269h-4.222l0.202 0.269v1.944c0 0.172-0.162 0.343-0.324 0.406z"></path>
<path fill="#fff" d="M19.964 17.017h0.287v1.32h-0.287zM22.39 17.017h0.287v1.32h-0.287z"></path>
<path fill="#fff" d="M19.138 13.939v2.212h4.322v-0.477l0.006-1.736c-0.177 0.070-0.208 0.23-0.208 0.23v0.942h-3.9v-0.942s-0.044-0.16-0.22-0.23z"></path>
<path fill="#fff" d="M22.873 18.769c-0.141-0.062-0.449-0.234-0.449-0.406v-2.175c0.030-0.121 0.195-0.193 0.301-0.269h-2.866c0.136 0.072 0.288 0.132 0.343 0.269v2.175c0 0.172-0.243 0.343-0.385 0.406z"></path>
<path fill="#fff" d="M23.258 15.943v-1.567h-0.393v-0.153h-3.107v0.153h-0.393v1.567zM22.254 18.769c-0.138-0.062-0.34-0.234-0.34-0.406v-1.857l0.114-0.169h-1.415l0.114 0.169v1.857c0 0.172-0.202 0.343-0.34 0.406z"></path>
<path fill="#fff" d="M20.962 16.338h0.717v2.43h-0.717z"></path>
<path fill="#fff" d="M22.055 15.804c0.002-0.16 0.467-0.167 0.707-0.304h-2.876c0.24 0.136 0.694 0.148 0.694 0.304l0.097 0.311 1.191 0.048z"></path>
<path fill="#fff" d="M22.618 14.113c0-0.392 0.016-0.543 0.137-0.543v1.246c-0.295 0.107-0.506 0.484-0.506 0.484h-1.857s-0.211-0.377-0.506-0.484v-1.246c0.148 0 0.149 0.158 0.149 0.543zM22.754 13.952c0-0.449 0.388-0.5 0.388-0.5v0.4c-0.148-0.006-0.219 0.126-0.219 0.324s0.119 0.2 0.119 0.2v1.135h-0.288z"></path>
<path fill="#fff" d="M19.887 13.952c0-0.449-0.388-0.5-0.388-0.5v0.4c0.148-0.006 0.219 0.126 0.219 0.324s-0.119 0.2-0.119 0.2v1.135h0.288z"></path>
<path fill="#fff" d="M20.419 14.345c0.239 0.287 0.217 0.774 0.214 1.062h1.387c-0.003-0.287-0.025-0.774 0.214-1.062zM21.199 11.054l-0.19-0.098v-0.28c0.078 0.023 0.165 0.033 0.173 0.157 0.027-0.177 0.076-0.168 0.153-0.237 0.077 0.069 0.125 0.060 0.152 0.237 0.009-0.124 0.096-0.133 0.174-0.157v0.28l-0.19 0.098z"></path>
<path fill="#fff" d="M21.186 11.513l-0.316-0.217v-0.258c0.111 0.026 0.235 0.036 0.247 0.172 0.039-0.194 0.108-0.294 0.217-0.37 0.109 0.076 0.179 0.176 0.217 0.37 0.012-0.136 0.136-0.146 0.247-0.172v0.258l-0.316 0.217z"></path>
<path fill="#fff" d="M21.164 12.229l-0.363-0.319v-0.379c0.127 0.038 0.27 0.053 0.284 0.253 0.044-0.285 0.124-0.432 0.25-0.543 0.126 0.111 0.205 0.258 0.25 0.543 0.014-0.2 0.157-0.215 0.284-0.253v0.379l-0.363 0.319zM21.834 12.653l-0.328 0.454h-0.372l-0.328-0.454zM20.616 13.415c0.164 0.090 0.225 0.269 0.242 0.604h0.924c0.018-0.336 0.078-0.514 0.242-0.604z"></path>
<path fill="#fff" d="M22.038 12.653v-0.456c-0.156 0.043-0.257 0.135-0.302 0.261 0-0.151-0.199-0.501-0.417-0.674-0.218 0.195-0.421 0.51-0.416 0.674-0.037-0.119-0.146-0.218-0.302-0.261v0.456z"></path>
<path fill="#fff" d="M22.108 13.415v-0.456c-0.171 0.043-0.282 0.135-0.331 0.261 0-0.151-0.218-0.501-0.457-0.674-0.239 0.195-0.461 0.51-0.457 0.674-0.041-0.119-0.16-0.218-0.331-0.261v0.456z"></path>
<path fill="#fff" d="M22.3 14.351v-0.526c-0.213 0.055-0.345 0.212-0.412 0.304 0-0.285-0.322-0.719-0.568-0.861-0.253 0.146-0.568 0.595-0.568 0.861-0.069-0.091-0.199-0.249-0.412-0.304v0.526z"></path>
<path fill="#fff" d="M22.185 15.519v-0.541c-0.188 0.074-0.244 0.254-0.303 0.377 0.023-0.549-0.309-1.138-0.562-1.288-0.253 0.15-0.591 0.752-0.562 1.288-0.061-0.122-0.115-0.304-0.303-0.377v0.541z"></path>
<path fill="#fff" d="M22.054 16.338v-0.541c-0.197 0.047-0.209 0.119-0.271 0.24 0.023-0.328-0.209-0.702-0.462-0.851-0.253 0.15-0.485 0.524-0.462 0.851-0.063-0.121-0.070-0.194-0.271-0.24v0.541z"></path>
<path fill="#fff" d="M13.62 18.344v-1.635c-0.054-0.208-0.23-0.392-0.363-0.429v-1.44l0.299 0.162 0.342 1.505v1.837z"></path>
<path fill="#fff" d="M13.62 18.35v-1.642c-0.054-0.208-0.23-0.392-0.363-0.429v-1.539c0.201 0 0.299 0.262 0.299 0.262l0.342 1.505v1.831z"></path>
<path fill="#fff" d="M13.407 18.769c0.138-0.062 0.34-0.234 0.34-0.406v-2.044l-0.095-0.169h3.482l-0.136 0.169v2.044c0 0.172 0.138 0.343 0.277 0.406z"></path>
<path fill="#fff" d="M16.572 18.769c-0.138-0.062-0.34-0.234-0.34-0.406v-1.944l0.29-0.269h-2.367l0.29 0.269v1.944c0 0.172-0.202 0.343-0.34 0.406z"></path>
<path fill="#fff" d="M16.24 18.769c-0.138-0.062-0.34-0.234-0.34-0.406v-1.757l0.19-0.269h-1.504l0.19 0.269v1.757c0 0.172-0.202 0.343-0.34 0.406z"></path>
<path fill="#fff" d="M14.978 16.338h0.719v2.431h-0.719z"></path>
<path fill="#fff" d="M14.001 17.017h0.287v1.32h-0.287zM16.461 17.017h0.287v1.32h-0.287zM13.756 14.791h0.346v1.353h-0.346zM13.756 14.537h0.344v0.251h-0.344z"></path>
<path fill="#fff" d="M16.598 15.082h0.493v1.044h-0.493z"></path>
<path fill="#fff" d="M14.096 16.133v-2.315c0.099 0 0.114 0.339 0.34 0.339 0.118 0 0.105-0.141 0.039-0.255-0.059-0.101-0.131-0.241-0.033-0.502 0.067 0.2 0.249 0.263 0.215 0.138-0.058-0.215-0.224-0.25-0.099-0.584 0.043 0.278 0.222 0.266 0.178 0.104-0.049-0.182-0.15-0.257-0.025-0.514 0.070 0.292 0.164 0.275 0.164 0.094 0-0.268-0.010-0.557 0.336-0.664 0 0 0.020-0.245 0.145-0.245s0.145 0.245 0.145 0.245c0.346 0.107 0.336 0.396 0.336 0.664 0 0.181 0.094 0.198 0.164-0.094 0.125 0.257 0.024 0.332-0.025 0.514-0.043 0.162 0.135 0.174 0.178-0.104 0.125 0.334-0.041 0.369-0.099 0.584-0.034 0.125 0.148 0.062 0.215-0.138 0.098 0.261 0.026 0.401-0.033 0.502-0.066 0.114-0.079 0.255 0.039 0.255 0.226 0 0.241-0.339 0.34-0.339v2.315zM13.555 14.385v1.766h0.201v-1.771c-0.072-0.037-0.14-0.042-0.201 0.004z"></path>
<path fill="#fff" d="M13.561 15.528c0.249 0.127 0.496 0.275 0.558 0.623h-0.558zM17.014 14.999v1.153h0.163v-1.155c-0.051-0.024-0.12-0.028-0.163 0.003z"></path>
<path fill="#fff" d="M17.178 15.519c-0.249 0.127-0.496 0.275-0.558 0.623h0.558z"></path>
<path fill="#fff" d="M15.531 12.827l0.145-0.122v-0.156c-0.053 0.005-0.082 0.023-0.121 0.075-0.033-0.104-0.107-0.184-0.205-0.235-0.098 0.050-0.172 0.127-0.205 0.231-0.039-0.051-0.068-0.066-0.121-0.071v0.156l0.145 0.122z"></path>
<path fill="#fff" d="M15.609 13.218l0.067-0.146v-0.203c-0.053 0.005-0.082 0.024-0.121 0.076-0.033-0.105-0.107-0.187-0.205-0.238-0.098 0.051-0.172 0.129-0.205 0.234-0.039-0.052-0.068-0.067-0.121-0.072v0.203l0.068 0.146z"></path>
<path fill="#fff" d="M15.619 13.749l0.216-0.263v-0.259c-0.079 0.009-0.122 0.040-0.18 0.128-0.050-0.178-0.158-0.217-0.304-0.303-0.146 0.086-0.255 0.119-0.304 0.297-0.058-0.088-0.101-0.113-0.18-0.122v0.259l0.216 0.263z"></path>
<path fill="#fff" d="M15.682 14.269s0.251-0.219 0.266-0.34v-0.277c-0.097 0.011-0.189 0.037-0.261 0.151-0.061-0.23-0.157-0.294-0.337-0.405-0.18 0.111-0.276 0.175-0.337 0.405-0.072-0.114-0.164-0.139-0.261-0.151v0.277c0.032 0.12 0.266 0.34 0.266 0.34z"></path>
<path fill="#fff" d="M15.79 15.231s0.344-0.381 0.352-0.529v-0.432c-0.129 0.018-0.251 0.106-0.346 0.284-0.081-0.358-0.207-0.608-0.446-0.781-0.238 0.174-0.365 0.423-0.446 0.781-0.095-0.178-0.217-0.266-0.346-0.284v0.432c0.025 0.148 0.352 0.529 0.352 0.529z"></path>
<path fill="#fff" d="M15.79 15.8s0.294-0.299 0.352-0.429v-0.432c-0.129 0.018-0.251 0.106-0.346 0.284-0.081-0.358-0.207-0.563-0.446-0.737-0.238 0.174-0.365 0.379-0.446 0.737-0.095-0.178-0.217-0.266-0.346-0.284v0.432c0.075 0.13 0.352 0.429 0.352 0.429z"></path>
<path fill="#fff" d="M15.908 16.13c-0.086-0.373-0.16-0.65-0.573-0.931-0.413 0.281-0.487 0.558-0.573 0.931z"></path>
<path fill="#fff" d="M16.121 16.338v-0.541c-0.188 0.074-0.357 0.182-0.42 0.304-0.070-0.3-0.205-0.433-0.372-0.614-0.168 0.182-0.28 0.314-0.35 0.614-0.063-0.121-0.232-0.23-0.42-0.304v0.541z"></path>
<path fill="#fff" d="M29.049 18.344v-1.635c0.054-0.208 0.23-0.392 0.363-0.429v-1.44l-0.299 0.162-0.342 1.505v1.837z"></path>
<path fill="#fff" d="M29.049 18.35v-1.642c0.054-0.208 0.23-0.392 0.363-0.429v-1.539c-0.201 0-0.299 0.262-0.299 0.262l-0.342 1.505v1.831z"></path>
<path fill="#fff" d="M29.262 18.769c-0.138-0.062-0.34-0.234-0.34-0.406v-2.044l0.095-0.169h-3.482l0.136 0.169v2.044c0 0.172-0.138 0.343-0.277 0.406z"></path>
<path fill="#fff" d="M26.097 18.769c0.138-0.062 0.34-0.234 0.34-0.406v-1.944l-0.29-0.269h2.367l-0.29 0.269v1.944c0 0.172 0.202 0.343 0.34 0.406z"></path>
<path fill="#fff" d="M26.429 18.769c0.138-0.062 0.34-0.234 0.34-0.406v-1.757l-0.19-0.269h1.504l-0.19 0.269v1.757c0 0.172 0.202 0.343 0.34 0.406z"></path>
<path fill="#fff" d="M27.69 16.338h-0.719v2.431h0.719z"></path>
<path fill="#fff" d="M28.668 17.017h-0.287v1.32h0.287zM26.208 17.017h-0.287v1.32h0.287zM28.913 14.791h-0.346v1.353h0.346zM28.913 14.537h-0.344v0.251h0.344z"></path>
<path fill="#fff" d="M26.070 15.082h-0.493v1.044h0.493z"></path>
<path fill="#fff" d="M28.573 16.133v-2.315c-0.099 0-0.114 0.339-0.34 0.339-0.118 0-0.105-0.141-0.039-0.255 0.059-0.101 0.131-0.241 0.033-0.502-0.067 0.2-0.249 0.263-0.215 0.138 0.058-0.215 0.224-0.25 0.099-0.584-0.043 0.278-0.222 0.266-0.178 0.104 0.049-0.182 0.15-0.257 0.025-0.514-0.070 0.292-0.164 0.275-0.164 0.094 0-0.268 0.010-0.557-0.336-0.664 0 0-0.020-0.245-0.145-0.245s-0.145 0.245-0.145 0.245c-0.346 0.107-0.336 0.396-0.336 0.664 0 0.181-0.094 0.198-0.164-0.094-0.125 0.257-0.024 0.332 0.025 0.514 0.043 0.162-0.135 0.174-0.178-0.104-0.125 0.334 0.041 0.369 0.099 0.584 0.034 0.125-0.148 0.062-0.215-0.138-0.098 0.261-0.026 0.401 0.033 0.502 0.066 0.114 0.079 0.255-0.039 0.255-0.226 0-0.241-0.339-0.34-0.339v2.315zM29.114 14.385v1.766h-0.201v-1.771c0.072-0.037 0.14-0.042 0.201 0.004z"></path>
<path fill="#fff" d="M29.108 15.528c-0.249 0.127-0.496 0.275-0.558 0.623h0.558zM25.654 14.999v1.153h-0.163v-1.155c0.051-0.024 0.12-0.028 0.163 0.003z"></path>
<path fill="#fff" d="M25.491 15.519c0.249 0.127 0.496 0.275 0.558 0.623h-0.558z"></path>
<path fill="#fff" d="M27.138 12.827l-0.145-0.122v-0.156c0.053 0.005 0.082 0.023 0.121 0.075 0.033-0.104 0.107-0.184 0.205-0.235 0.098 0.050 0.172 0.127 0.205 0.231 0.039-0.051 0.068-0.066 0.121-0.071v0.156l-0.145 0.122z"></path>
<path fill="#fff" d="M27.060 13.218l-0.067-0.146v-0.203c0.053 0.005 0.082 0.024 0.121 0.076 0.033-0.105 0.107-0.187 0.205-0.238 0.098 0.051 0.172 0.129 0.205 0.234 0.039-0.052 0.068-0.067 0.121-0.072v0.203l-0.068 0.146z"></path>
<path fill="#fff" d="M27.050 13.749l-0.216-0.263v-0.259c0.079 0.009 0.122 0.040 0.18 0.128 0.050-0.178 0.158-0.217 0.304-0.303 0.146 0.086 0.255 0.119 0.304 0.297 0.058-0.088 0.101-0.113 0.18-0.122v0.259l-0.216 0.263z"></path>
<path fill="#fff" d="M26.986 14.269s-0.251-0.219-0.266-0.34v-0.277c0.097 0.011 0.189 0.037 0.261 0.151 0.061-0.23 0.157-0.294 0.337-0.405 0.18 0.111 0.276 0.175 0.337 0.405 0.072-0.114 0.164-0.139 0.261-0.151v0.277c-0.032 0.12-0.266 0.34-0.266 0.34z"></path>
<path fill="#fff" d="M26.879 15.231s-0.344-0.381-0.352-0.529v-0.432c0.129 0.018 0.251 0.106 0.346 0.284 0.081-0.358 0.207-0.608 0.446-0.781 0.238 0.174 0.365 0.423 0.446 0.781 0.095-0.178 0.217-0.266 0.346-0.284v0.432c-0.025 0.148-0.352 0.529-0.352 0.529z"></path>
<path fill="#fff" d="M26.879 15.8s-0.294-0.299-0.352-0.429v-0.432c0.129 0.018 0.251 0.106 0.346 0.284 0.081-0.358 0.207-0.563 0.446-0.737 0.238 0.174 0.365 0.379 0.446 0.737 0.095-0.178 0.217-0.266 0.346-0.284v0.432c-0.075 0.13-0.352 0.429-0.352 0.429z"></path>
<path fill="#fff" d="M26.761 16.13c0.086-0.373 0.16-0.65 0.573-0.931 0.413 0.281 0.487 0.558 0.573 0.931z"></path>
<path fill="#fff" d="M26.548 16.338v-0.541c0.188 0.074 0.357 0.182 0.42 0.304 0.070-0.3 0.205-0.433 0.372-0.614 0.168 0.182 0.28 0.314 0.35 0.614 0.063-0.121 0.232-0.23 0.42-0.304v0.541z"></path>
<path fill="#fff" d="M11.52 20.745h19.626v1.002h-19.626z"></path>
<path fill="#fff" d="M11.003 21.746h20.661v1.001h-20.661zM12.551 19.246h17.565v0.649h-17.565z"></path>
<path fill="#fff" d="M12.037 19.89h18.592v0.85h-18.592zM12.858 18.748h16.951v0.494h-16.951z"></path>
<path fill="#fff" d="M14.698 18.75h1.28v3.995h-1.28z"></path>
<path fill="#fff" d="M14.981 18.75h0.713v3.995h-0.713z"></path>
<path fill="#fff" d="M20.671 18.75h1.28v3.995h-1.28z"></path>
<path fill="#fff" d="M20.963 18.75h0.713v3.995h-0.713z"></path>
<path fill="#fff" d="M26.68 18.75h1.28v3.995h-1.28z"></path>
<path fill="#fff" d="M26.963 18.75h0.713v3.995h-0.713z"></path>
</svg>
