<!-- Generated by IcoMoon.io -->
<svg version="1.1" xmlns="http://www.w3.org/2000/svg" width="43" height="32" viewBox="0 0 43 32">
<title>KMF</title>
<path fill="#ff0" d="M0 0h48.048v8h-48.048z"></path>
<path fill="#fff" d="M0 8h48.048v8h-48.048z"></path>
<path fill="#be0027" d="M0 16h48.048v8h-48.048z"></path>
<path fill="#3b5aa3" d="M0 24h48.048v8h-48.048z"></path>
<path fill="#239e46" d="M0 0v32l23.866-15.955-23.866-16.045z"></path>
<path fill="#fff" d="M9.826 8.839c-5.319-0.269-7.742 3.967-7.736 7.242-0.012 3.873 3.658 7.067 7.051 6.874-1.829-0.865-4.063-3.291-4.084-6.891-0.019-3.261 1.844-6.097 4.769-7.226z"></path>
<path fill="#fff" d="M9.745 12.316l-0.749-0.587-0.909 0.286 0.326-0.895-0.552-0.776 0.952 0.033 0.567-0.765 0.262 0.916 0.903 0.303-0.79 0.533zM9.729 15.57l-0.75-0.587-0.909 0.286 0.326-0.895-0.552-0.776 0.952 0.033 0.567-0.765 0.262 0.916 0.903 0.303-0.79 0.533zM9.745 18.856l-0.749-0.587-0.909 0.286 0.326-0.895-0.552-0.776 0.952 0.033 0.567-0.765 0.262 0.916 0.903 0.303-0.79 0.533zM9.729 22.174l-0.75-0.587-0.909 0.286 0.326-0.895-0.552-0.776 0.952 0.033 0.567-0.765 0.262 0.916 0.903 0.303-0.79 0.533z"></path>
</svg>
