<!-- Generated by IcoMoon.io -->
<svg version="1.1" xmlns="http://www.w3.org/2000/svg" width="43" height="32" viewBox="0 0 43 32">
<title>KPW</title>
<path fill="#fff" d="M48.188 31.97h-53.251v-31.941h53.251z"></path>
<path fill="#3e5698" d="M48.188 26.191h-53.251v5.78h53.251z"></path>
<path fill="#c60000" d="M48.188 24.852h-53.251v-17.704h53.251z"></path>
<path fill="#3e5698" d="M48.188 0.030h-53.251v5.78h53.251z"></path>
<path fill="#fff" d="M20.219 16.001c0 3.966-3.32 7.182-7.415 7.182s-7.415-3.215-7.415-7.182c0-3.966 3.32-7.182 7.415-7.182s7.415 3.215 7.415 7.182z"></path>
<path fill="#c40000" d="M10.674 16.907l-3.567-2.539 4.442-0.018 1.415-4.149 1.323 4.135 4.442-0.025-3.624 2.574 1.33 4.133-3.563-2.544-3.62 2.579z"></path>
</svg>
