<!-- Generated by IcoMoon.io -->
<svg version="1.1" xmlns="http://www.w3.org/2000/svg" width="43" height="32" viewBox="0 0 43 32">
<title>KRW</title>
<path fill="#fff" d="M44.151 32h-45.636v-32h45.636z"></path>
<path fill="#fff" d="M21.73 16.029c0 3.884-3.148 7.032-7.032 7.032s-7.032-3.148-7.032-7.032c0-3.884 3.148-7.032 7.032-7.032s7.032 3.148 7.032 7.032z"></path>
<path fill="#c70000" d="M30.551 16.437c0 5.067-4.065 9.175-9.079 9.175s-9.079-4.108-9.079-9.175 4.065-9.175 9.079-9.175 9.079 4.108 9.079 9.175z"></path>
<path fill="#000" d="M2.899 7.93l5.229-6.048 1.239 1.071-5.229 6.048zM4.612 9.41l5.229-6.048 1.239 1.071-5.229 6.048z"></path>
<path fill="#000" d="M2.899 7.93l5.229-6.048 1.239 1.071-5.229 6.048zM6.361 10.922l5.229-6.048 1.239 1.071-5.229 6.048z"></path>
<path fill="#000" d="M2.899 7.93l5.229-6.048 1.239 1.071-5.229 6.048z"></path>
<path fill="#000" d="M2.899 7.93l5.229-6.048 1.239 1.071-5.229 6.048zM34.701 1.88l5.188 6.083-1.246 1.063-5.188-6.083zM31.22 4.849l5.188 6.083-1.246 1.063-5.188-6.083z"></path>
<path fill="#fff" d="M32.085 8.352l4.913-4.238 0.915 1.060-5.25 4.72-0.578-1.541z"></path>
<path fill="#000" d="M38.127 23.278l-5.026 5.989-1.232-1.025 5.026-5.989zM32.979 3.349l5.188 6.083-1.246 1.063-5.188-6.083zM39.83 24.695l-5.026 5.989-1.232-1.025 5.026-5.989zM36.387 21.831l-5.026 5.989-1.232-1.025 5.026-5.989z"></path>
<path fill="#3d5897" d="M12.525 14.82c0.287 2.311 0.706 4.886 4.262 5.153 1.333 0.080 3.926-0.317 4.816-3.949 1.168-3.489 4.686-4.492 7.080-2.601 1.357 0.885 1.733 2.292 1.83 3.347-0.109 3.39-2.055 6.325-4.551 7.634-2.871 1.706-6.848 1.742-10.331-0.843-1.57-1.473-3.764-4.189-3.106-8.741z"></path>
<path fill="#fff" d="M33.232 23.189l4.921 4.229-0.912 1.062-5.447-4.491 1.438-0.8z"></path>
<path fill="#000" d="M5.87 22.352l5.188 6.083-1.246 1.063-5.188-6.083z"></path>
<path fill="#fff" d="M4.976 27.356l4.913-4.238 0.915 1.060-5.25 4.72-0.578-1.541z"></path>
<path fill="#000" d="M7.593 20.883l5.188 6.083-1.246 1.063-5.188-6.083zM4.111 23.852l5.188 6.083-1.246 1.063-5.188-6.083z"></path>
</svg>
