<!-- Generated by IcoMoon.io -->
<svg version="1.1" xmlns="http://www.w3.org/2000/svg" width="43" height="32" viewBox="0 0 43 32">
<title>KYD</title>
<path fill="#006" d="M0 0h42.667v32h-42.667z"></path>
<path fill="#006" d="M0 0h26.667v13.333h-26.667z"></path>
<path fill="#fff" d="M0 0v1.806l22.294 14.347h2.806v-1.806l-22.294-14.347h-2.806zM25.1 0v1.806l-22.294 14.347h-2.806v-1.806l22.294-14.347h2.806z"></path>
<path fill="#fff" d="M10.458 0v16.153h4.183v-16.153h-4.183zM0 5.384v5.384h25.1v-5.384h-25.1z"></path>
<path fill="#c00" d="M0 6.461v3.231h25.1v-3.231h-25.1zM11.295 0v16.153h2.51v-16.153h-2.51zM0 16.153l8.367-5.384h1.871l-8.367 5.384h-1.871zM0 0l8.367 5.384h-1.871l-6.496-4.18v-1.204zM14.863 5.384l8.367-5.384h1.871l-8.367 5.384h-1.871zM25.1 16.153l-8.367-5.384h1.871l6.496 4.18v1.204z"></path>
<path fill="#fff" d="M29.889 11.943c-0.067 0.041-0.202 0.163-0.337 0.122s-0.437-0.569-0.774-0.488c-0.337 0.081-0.539 0.203-0.673 0.203s-0.505 0.122-0.505 0.447c0 0.325 0.034 0.57 0.101 0.57s0.168-0.203 0.168-0.203 0.034 0.407 0.269 0.407 0.74 0.041 0.774 0.163c0.034 0.122-0.236 0.407-0.168 0.651s0.37 0.651 0.37 0.651-0.438 0.325-0.438 0.529 0.067 0.407 0.067 0.407l-1.952 0.081s-0.135 5.776-0.067 6.224c0.067 0.447 0.236 1.546 0.236 1.546s-0.437-0.142-0.808 0.224c-0.37 0.366-1.666 0.997-1.7 1.281s-0.151 0.529-0.017 0.732c0.135 0.203 0.608 0.756 0.471 0.732-0.452-0.078-0.62-0.72-0.925-0.956-0.3-0.232-0.892-0.183-0.959 0.061s-0.034 0.651 0 0.732c0.034 0.081 0.404 1.383 0.505 1.668s1.161 0.712 1.632 0.671c0.892 0.020 1.296-0.386 1.329-0.346s1.919 1.985 5.789 1.993c3.013 0.007 5.284-1.953 5.284-1.912s1.245 0.407 1.683 0.285c0.438-0.122 1.077-0.407 1.212-0.692s0.505-1.749 0.539-1.993c0.034-0.244 0-0.529-0.303-0.61s-0.471-0.061-0.639 0.020-0.219 0.305-0.471 0.712c-0.135 0.122-0.488 0.448-0.387 0.366s0.32-0.691 0.353-0.895c0.034-0.203 0.135-0.569-0.101-0.773s-0.596-0.286-1.010-0.59c-0.392-0.269-0.707-0.712-0.942-0.712s-0.505-0.122-0.471-0.122 0.303-0.591 0.236-1.201c-0.067-0.61 0.033-6.447-0.001-6.447s-1.683 0.122-1.683 0.041 0.135-0.651 0-1.017c-0.135-0.366-0.707-0.61-0.538-0.692s0.909-0.285 0.875-0.61c-0.034-0.325-0.505-0.285-0.707-0.407s-0.808-0.692-0.875-0.692 1.75-1.098 1.615-1.098c-0.135 0-0.841-0.203-1.077-0.081 0-0.203 0.976-0.814 0.808-0.895s-0.942-0.163-0.74-0.203c0.202-0.041 0.269-0.529 0.236-0.529s-0.875 0.122-0.875 0.122-0.202-0.285-0.269-0.285c-0.067 0-0.37 0.163-0.37 0.163l-0.168-0.447-0.37 0.244-0.168-0.203s-0.303 0.081-0.303 0c0.013-0.003-0.035-0.204-0.082-0.204s-0.381 0.259-0.393 0.244c-0.012-0.014-0.381-0.532-0.381-0.518s-0.262 0.978-0.274 0.978c-0.012 0-0.262 0.029-0.274 0.043s-1.333-0.762-1.321-0.748c0.012 0.014 0.345 0.748 0.345 0.748s-0.286 0.158-0.286 0.173c0 0.014 0.048 0.331 0.048 0.331l-0.881-0.302s0.333 0.676 0.309 0.676c-0.024 0-0.654 0.029-0.642 0.029s0.297 0.561 0.297 0.561l-0.107 0.331s0.948 0.669 0.88 0.71zM35.509 26.099c0.084 0.122 0.538 0.691 0.471 0.691s-1.195 0.753-1.649 0.895c-0.454 0.142-1.935 0.407-1.851 0.386s1.33-0.702 1.835-1.028c0.505-0.325 1.194-0.905 1.194-0.945zM28.475 26.079c-0.067 0.081-0.387 0.712-0.387 0.712s0.926 0.651 1.615 0.895c0.69 0.244 1.868 0.325 1.801 0.305s-1.481-0.651-1.885-0.976c-0.404-0.326-1.127-0.936-1.144-0.936z"></path>
<path fill="#fec500" d="M29.214 11.015s0.589 0.427 0.724 0.529 0.572 0.549 0.606 0.529c0.034-0.020 0.269-0.244 0.269-0.244s-0.488-0.468-0.791-0.569-0.808-0.203-0.808-0.244z"></path>
<path fill="#fec500" d="M29.13 10.547c0.050 0 0.976 0.57 1.262 0.854s0.404 0.651 0.438 0.651c0.034 0 0.471-0.081 0.454-0.081s-0.202-0.732-0.623-0.956c-0.421-0.224-1.514-0.468-1.531-0.468z"></path>
<path fill="#fec500" d="M33.488 9.076c-0.017 0-0.185 0.61-0.236 0.793s-0.135 0.569-0.135 0.569-0.74 0.081-0.707-0.020c0.034-0.102 1.127-1.342 1.077-1.342z"></path>
<path fill="#fec500" d="M29.298 9.815s0.875 0.712 1.178 1.119c0.303 0.407 0.606 1.119 0.623 1.119s0.825-0.203 0.825-0.183-0.942-1.139-1.397-1.485-1.212-0.529-1.228-0.569z"></path>
<path fill="#fec500" d="M30.207 9.625s0.438 0.814 0.522 1.098c0.084 0.285 0.337 1.017 0.337 1.017h0.69s-0.337-0.915-0.707-1.363-0.825-0.712-0.841-0.753z"></path>
<path fill="#fec500" d="M30.442 9.178c0.017 0.061 0.639 0.773 0.791 1.241s0.269 1.058 0.269 1.058l0.606-0.183s-0.538-1.2-0.875-1.525c-0.337-0.325-0.757-0.549-0.791-0.59z"></path>
<path fill="#fec500" d="M35.474 11.097s-1.262 0.163-1.716 0.305-0.707 0.671-0.707 0.671 0.589 0.264 0.623 0.224 0.387-0.468 0.774-0.631c0.387-0.163 1.060-0.549 1.026-0.569z"></path>
<path fill="#fec500" d="M35.423 10.1c-0.034 0.020-1.043 1.017-1.363 1.342s-0.623 0.671-0.656 0.692c-0.034 0.020-0.656-0.102-0.623-0.142s0.925-0.915 1.514-1.302c0.589-0.386 1.077-0.549 1.127-0.59z"></path>
<path fill="#fec500" d="M35.171 9.388c-0.101 0.142-1.094 1.119-1.363 1.464s-0.707 0.956-0.707 0.956-0.522-0.285-0.488-0.407c0.034-0.122 0.74-0.834 1.245-1.241s1.363-0.732 1.313-0.773z"></path>
<path fill="#fec500" d="M34.161 9.306c-0.017 0.020-0.606 0.773-0.724 0.976s-0.471 1.098-0.471 1.098-0.522-0.549-0.522-0.569 0.656-0.854 1.043-1.18 0.69-0.264 0.673-0.325z"></path>
<path fill="#fec500" d="M32.702 10.418c0 0.143-0.096 0.259-0.214 0.259s-0.214-0.116-0.214-0.259 0.096-0.259 0.214-0.259 0.214 0.116 0.214 0.259zM33.131 10.763c0 0.127-0.096 0.23-0.214 0.23s-0.214-0.103-0.214-0.23 0.096-0.23 0.214-0.23 0.214 0.103 0.214 0.23zM32.179 10.504c0 0.127-0.117 0.23-0.262 0.23s-0.262-0.103-0.262-0.23 0.117-0.23 0.262-0.23c0.145 0 0.262 0.103 0.262 0.23z"></path>
<path fill="#fec500" d="M32.869 10.979c0 0.246-0.133 0.446-0.297 0.446s-0.297-0.2-0.297-0.446c0-0.246 0.133-0.446 0.297-0.446s0.297 0.2 0.297 0.446zM32.060 10.993c0 0.191-0.133 0.345-0.297 0.345s-0.297-0.155-0.297-0.345c0-0.191 0.133-0.345 0.297-0.345s0.297 0.155 0.297 0.345z"></path>
<path fill="#fec500" d="M31.655 11.267c0 0.167-0.101 0.302-0.226 0.302s-0.226-0.135-0.226-0.302c0-0.167 0.101-0.302 0.226-0.302s0.226 0.135 0.226 0.302zM33.321 11.238c0 0.199-0.154 0.36-0.345 0.36s-0.345-0.161-0.345-0.36c0-0.199 0.154-0.36 0.345-0.36s0.345 0.161 0.345 0.36zM32.488 10.72c0 0.119-0.123 0.216-0.274 0.216s-0.274-0.097-0.274-0.216 0.123-0.216 0.274-0.216 0.274 0.097 0.274 0.216z"></path>
<path fill="#fec500" d="M32.536 11.195c0 0.175-0.17 0.316-0.381 0.316s-0.381-0.142-0.381-0.316c0-0.175 0.171-0.316 0.381-0.316s0.381 0.142 0.381 0.316zM33.511 11.755c0 0.214-0.16 0.388-0.357 0.388s-0.357-0.174-0.357-0.388 0.16-0.388 0.357-0.388c0.197 0 0.357 0.174 0.357 0.388zM31.56 11.655c0 0.143-0.091 0.259-0.202 0.259s-0.202-0.116-0.202-0.259 0.091-0.259 0.202-0.259 0.202 0.116 0.202 0.259z"></path>
<path fill="#fec500" d="M32.988 11.612c0 0.183-0.139 0.331-0.309 0.331s-0.309-0.148-0.309-0.331 0.139-0.331 0.309-0.331c0.171 0 0.309 0.148 0.309 0.331zM32.012 11.597c0 0.159-0.123 0.288-0.274 0.288s-0.274-0.129-0.274-0.288c0-0.159 0.123-0.288 0.274-0.288s0.274 0.129 0.274 0.288z"></path>
<path fill="#fec500" d="M32.488 11.683c0 0.175-0.128 0.316-0.286 0.316s-0.286-0.142-0.286-0.316c0-0.175 0.128-0.316 0.286-0.316s0.286 0.142 0.286 0.316zM31.251 9.785c0.071 0 0.571 0.201 0.571 0.201s-0.619 0.288-0.524 0.259 0.69-0.115 0.643-0.115c-0.048 0-0.524 0.547-0.381 0.518s0.428-0.374 0.452-0.374c0.024 0 0.309 0.547 0.333 0.518s0-0.547 0.024-0.547c0.024 0 0.595 0.345 0.547 0.316s-0.381-0.431-0.357-0.431c0.024 0 0.785 0.086 0.738 0.058s-0.5-0.288-0.5-0.288 0.333-0.374 0.262-0.374-0.619 0.374-0.571 0.345c0.048-0.029 0.595-0.777 0.595-0.777l-0.547 0.316s0.095-0.46 0.048-0.431c-0.048 0.029-0.428 0.604-0.452 0.604s-0.119-0.575-0.119-0.575 0.024 0.633-0.119 0.662c-0.143 0.029-0.643 0.144-0.643 0.115z"></path>
<path fill="#00389b" d="M29.701 14.436c0.012 0.058 0.393 1.093 0.976 1.064s0.821-0.201 0.797-0.216c-0.024-0.014-0.274-0.187-0.416-0.561s-0.167-0.532-0.167-0.532l-1.19 0.245zM31.783 14.033s0.428 1.021 0.619 1.165c0.19 0.144 0.631 0.259 0.821 0.245s0.416 0 0.416 0-0.19-0.101-0.345-0.662-0.202-0.748-0.202-0.748h-1.309zM34.401 14.407s-0.083 0.748 0 0.935c0.083 0.187 0.5 0.532 0.5 0.532s0.5-0.072 0.512-0.532c0.012-0.46-0.167-0.892-0.167-0.892l-0.845-0.043z"></path>
<path fill="#005120" d="M29.296 13.098s0.024 0.115 0 0.201-0.226 0.316-0.226 0.503c0 0.187 0.238 0.762 0.964 0.777s1.642-0.475 1.63-0.489c-0.012-0.014-1.737-1.409-1.761-1.395s-0.607 0.431-0.607 0.403zM34.091 14.091s0.155 0.503 0.214 0.561c0.059 0.058 0.083 0.173 0.095 0.173s0.999 0.259 0.999 0.259 0.095-0.331-0.048-0.59c-0.143-0.259-0.678-0.935-0.678-0.935l-0.583 0.532zM34.769 13.472c0.024 0 0.262 0.245 0.452 0.115s0.5-0.475 0.5-0.475-0.262 0.101-0.452 0.086c-0.19-0.014-0.488 0.288-0.5 0.273z"></path>
<path fill="#005120" d="M29.26 13.156s-0.071-0.245-0.262-0.259c-0.19-0.014-0.535 0.029-0.654-0.086s-0.155-0.388-0.214-0.374c-0.059 0.014-0.214 0-0.226 0s-0.071-0.23 0.095-0.345 0.309-0.014 0.405-0.101c0.095-0.086 0.238-0.144 0.428-0.158s0.5 0.288 0.643 0.36c0.143 0.072 0.452 0.158 0.571 0.086s0.785-0.388 1.023-0.403c0.238-0.014 0.738-0.029 0.928-0.014s0.94 0.129 1.166 0.259c0.226 0.129 1.428 0.633 1.594 0.748s0.535 0.288 0.535 0.288-0.654 0.777-0.976 0.906c-0.321 0.129-1.345 0.331-1.951 0.288s-1.083-0.115-1.547-0.403c-0.464-0.288-0.964-0.561-0.988-0.705s-0.012-0.331-0.012-0.331l-0.559 0.245z"></path>
<path fill="#005120" d="M28.522 12.221c-0.024 0.014-0.143 0.072-0.119 0.101s0.071 0.115 0.214 0.101c0.143-0.014 0.297-0.115 0.297-0.115s-0.178-0.101-0.393-0.086z"></path>
<path fill="#000" d="M28.511 12.25v0.158s0.167 0.058 0.167 0.014c0-0.043 0.012-0.144-0.024-0.144s-0.131-0.014-0.143-0.029z"></path>
<path fill="#001707" d="M30.176 12.369c0.042-0.092 0-0.214 0.244-0.356s0.669-0.102 0.669-0.102-0.122 0.112-0.126 0.229c-0.004 0.117 0.008 0.168 0.008 0.168s-0.231-0.092-0.408-0.036-0.383 0.112-0.387 0.097zM31.27 11.871c-0.025 0.015-0.21 0.264-0.189 0.341s0.269 0.259 0.349 0.244c0.080-0.015 0.446-0.229 0.467-0.336s0.038-0.249 0.008-0.28c-0.029-0.030-0.631 0.041-0.635 0.030zM32.074 11.83c-0.046 0.056-0.029 0.325-0.013 0.356s0.307 0.381 0.37 0.402c0.063 0.020 0.53-0.036 0.568-0.097s0.151-0.32 0.118-0.381c-0.034-0.061-0.135-0.142-0.446-0.224s-0.496-0.071-0.597-0.056zM33.264 12.171c0.076 0.046 0.517 0.305 0.778 0.514s0.366 0.447 0.442 0.468c0.076 0.020 0.383-0.203 0.395-0.264s-0.374-0.386-0.635-0.534c-0.261-0.147-0.98-0.168-0.98-0.183zM33.171 12.39c-0.038 0.041 0.471 1.114 0.568 1.149s0.677-0.209 0.669-0.29c-0.008-0.081-0.16-0.244-0.517-0.483s-0.648-0.397-0.719-0.376zM32.54 12.781c-0.080 0.056-0.206 1.017-0.126 1.063s1.064-0.117 1.102-0.224c0.038-0.107-0.404-0.956-0.534-0.956s-0.366 0.041-0.442 0.117zM31.522 12.578c-0.105 0.117-0.084 1.012-0.038 1.068s0.631 0.239 0.694 0.173c0.063-0.066 0.147-1.073 0.088-1.149s-0.223-0.259-0.349-0.275c-0.126-0.015-0.337 0.147-0.395 0.183zM30.201 12.562c-0.097 0.092-0.101 0.331 0.004 0.371s0.366 0.178 0.61 0.305c0.244 0.127 0.383 0.28 0.454 0.275s0.139-0.9 0.063-0.951c-0.076-0.051-0.299-0.092-0.509-0.081s-0.517 0.036-0.623 0.081z"></path>
<path fill="#d40f0f" opacity="0.996" d="M25.865 23.947c0.173-0.168 0.441-0.579 0.805-0.597s0.748 0.317 0.748 0.317 0.383 1.569 0.364 1.569c-0.019 0-0.633 0.448-0.652 0.448s-0.269-0.616-0.499-0.56c-0.23 0.056-0.211 0.896-0.249 0.84s-1.016-1.214-0.978-1.251c0.038-0.037 0.479-0.709 0.46-0.766zM35.991 23.741c0.115-0.019 0.633-0.411 0.997-0.392s0.575 0.187 0.767 0.355 0.422 0.597 0.422 0.597-0.46 1.27-0.499 1.27-0.23 0.112-0.269 0.019-0.153-0.392-0.384-0.429c-0.23-0.037-0.288 0.411-0.288 0.411l-0.748-1.83z"></path>
<path fill="#fddc59" opacity="0.996" d="M36.24 24.134c0 0.112 0.71 1.867 1.86 2.203s1.515-0.317 1.649-0.541 0.614-0.205 0.614-0.205-0.115 1.643-0.307 1.848c-0.192 0.205-0.345 0.654-1.419 0.672s-2.052-1.008-2.378-1.307c-0.326-0.299-0.748-1.083-0.921-1.438s0.921-1.195 0.901-1.232zM23.737 27.625c0.019 0 0.518 0.542 1.246 0.485s1.975-0.485 2.551-1.232c0.575-0.747 0.863-1.55 0.863-1.55s-0.844-1.494-0.863-1.494c-0.019 0-0.096 0.485-0.249 0.803s-0.575 1.214-1.285 1.494c-0.71 0.28-0.71 0.392-0.997 0.355s-1.036-0.485-1.036-0.504c0-0.019-0.364 0.878-0.364 0.878s-0.077 0.579 0.134 0.766z"></path>
<path fill="#fddc59" opacity="0.996" d="M25.852 23.895c-0.054 0-1.41 0.739-1.356 1.056s2.332 4.806 7.214 4.859c4.882 0.053 7.865-4.067 7.648-4.753s-1.736-1.479-1.736-1.479 0.38 0.317 0.325 0.739c-0.054 0.423-1.736 4.067-5.966 3.961s-6.238-3.327-6.238-3.697 0.217-0.581 0.109-0.687z"></path>
<path fill="#d40f0f" opacity="0.996" d="M39.078 27.159c0.115-0.093 0.825-2.035 1.227-1.979s0.269 0.635 0.23 0.784c-0.038 0.149-0.441 1.494-0.441 1.494s0.019-0.317-0.249-0.392c-0.268-0.075-0.71 0.131-0.767 0.093zM23.737 27.645c0-0.106-0.325-0.475 0.054-0.581s0.868 0.106 0.868 0.106-0.271-0.792-0.597-1.426c-0.325-0.634-0.434-0.528-0.705-0.422s-0.265 0.385-0.102 0.808c0.163 0.423 0.482 1.622 0.482 1.516z"></path>
<path fill="#fdc400" d="M28.212 24.023l0.471-1.595-1.308-1.003 1.638-0.038 0.534-1.574 0.542 1.571 1.638 0.030-1.303 1.009 0.478 1.592-1.347-0.948z"></path>
<path fill="#fff" d="M37.042 15.722v6.136c0.012 2.999-3.046 5.625-5.076 6.136-2.031-0.511-5.089-3.137-5.076-6.136v-6.136h10.153z"></path>
<path fill="#d40f0f" opacity="0.996" d="M26.889 15.722l0.009 3.839s0.049-0.079 0.717-0.031c0.668 0.048 0.725 0.846 1.45 0.846s0.725-0.846 1.45-0.846 0.725 0.846 1.45 0.846 0.725-0.846 1.45-0.846 0.725 0.846 1.491 0.895c0.684-0.048 0.684-0.895 1.413-0.943l0.721 0.048v-3.809h-10.153z"></path>
<path fill="#0062bb" opacity="0.996" d="M26.889 20.8v1.27h0.725c0.668 0.048 0.725 0.846 1.45 0.846s0.725-0.846 1.45-0.846 0.725 0.846 1.45 0.846 0.725-0.846 1.45-0.846 0.684 0.798 1.45 0.846c0.684-0.048 0.721-0.798 1.45-0.846h0.725v-1.27h-0.725c-0.725 0-0.725 0.846-1.45 0.846s-0.725-0.846-1.45-0.846-0.725 0.846-1.45 0.846c-0.725 0-0.725-0.846-1.45-0.846s-0.725 0.846-1.45 0.846-0.725-0.846-1.45-0.846h-0.725zM27.108 23.339l0.506 1.27c0.668 0.048 0.725 0.846 1.45 0.846s0.725-0.846 1.45-0.846 0.725 0.846 1.45 0.846 0.725-0.846 1.45-0.846 0.684 0.798 1.45 0.846c0.684-0.048 0.704-0.798 1.434-0.846l0.523-1.289-0.507 0.020c-0.725 0-0.725 0.846-1.45 0.846s-0.725-0.846-1.45-0.846-0.725 0.846-1.45 0.846c-0.725 0-0.725-0.846-1.45-0.846s-0.725 0.846-1.45 0.846-0.725-0.846-1.45-0.846h-0.506zM31.966 27.994c0.725 0 2.387-1.27 2.37-1.27 0.017 0-0.194-0.846-0.919-0.846s-0.725 0.846-1.45 0.846c-0.725 0-0.725-0.846-1.45-0.846s-0.91 0.846-0.912 0.846c-0.034 0 1.637 1.27 2.362 1.27z"></path>
<path fill="#fdc400" opacity="0.996" d="M28.217 18.652c0.082 0 0.822 0.107 1.357 0.072s0.74-0.215 0.74-0.25v-0.107h0.699s0.123 0.501 0.041 0.537-0.288 0.179-0.329 0.179 0-0.25-0.082-0.179-0.123 0.179-0.123 0.179-0.082-0.107-0.123-0.107-0.123 0.107-0.123 0.107 0-0.107-0.041-0.107c-0.041 0-0.247 0.179-0.247 0.179l-0.206-0.143s-0.123 0.179-0.165 0.179-0.288-0.143-0.288-0.143l-0.411 0.215s0-0.322-0.082-0.286c-0.082 0.036-0.535 0.036-0.535 0.036s-0.123 0.215-0.165 0.215-0.206-0.179-0.164-0.179 0.123-0.107 0.082-0.143c-0.041-0.036-0.247 0-0.247-0.036s-0.082-0.25-0.041-0.25 0.206 0.036 0.206 0.036v-0.215h0.206l0.041 0.215z"></path>
<path fill="#fdc400" opacity="0.996" d="M28.957 16.612c-0.041 0-0.329 0.286-0.288 0.608s0.74 0.787 0.74 0.787 0.37-0.143 0.493 0 0.123 0.572 0.082 0.572-0.535 0.107-0.535 0.036c0-0.071 0-0.143-0.041-0.143s-0.493 0.036-0.493 0.036l0.041-0.143-0.411-0.072 0.164-0.143s-0.658-0.25-0.617-0.25 0.288-0.143 0.288-0.143l-0.493-0.286h0.288s-0.411-0.286-0.37-0.286c0.041 0 0.247 0.036 0.247 0.036l-0.123-0.286h0.123l-0.123-0.215 0.206-0.072 0.123 0.179-0.041-0.429 0.288 0.036v0.358s0.123-0.215 0.123-0.25c0-0.036 0.37 0.143 0.329 0.072z"></path>
<path fill="#000" opacity="0.996" d="M35.331 18.83c-0.051 0.045-0.206 0.143-0.206 0.143s0.35-0.027 0.339-0.027-0.123-0.089-0.134-0.116zM35.629 19c-0.020 0.027-0.082 0.304-0.041 0.286s0.206-0.224 0.206-0.224l-0.164-0.063zM36.101 19.036c0.051 0.045 0.288 0.25 0.257 0.206s-0.062-0.233-0.082-0.241c-0.021-0.009-0.154 0.054-0.175 0.036zM31.959 18.741c-0.031 0.009-0.288 0.179-0.288 0.179s0.432-0.072 0.411-0.072c-0.020 0-0.134-0.080-0.123-0.107zM32.226 18.956c-0.041 0.036-0.175 0.286-0.123 0.277s0.278-0.17 0.278-0.17l-0.154-0.107zM32.061 18.607c-0.031-0.009-0.247-0.098-0.236-0.098s0.288-0.063 0.288-0.063l-0.051 0.161zM27.991 18.491l-0.308-0.215 0.391 0.107-0.082 0.107zM27.723 18.634c-0.041 0-0.432 0.215-0.422 0.215s0.545 0.009 0.535 0c-0.010-0.009-0.093-0.197-0.113-0.215zM27.97 18.947c-0.041 0.018-0.35 0.224-0.329 0.224s0.463 0.009 0.463 0-0.123-0.215-0.134-0.224zM27.929 16.719s-0.113-0.25-0.103-0.25c0.010 0 0.288 0.197 0.288 0.197l-0.185 0.054zM28.237 16.406c0-0.009 0.031-0.161 0.031-0.161s0.278 0.188 0.267 0.188c-0.010 0-0.278 0-0.298-0.027zM28.669 16.523c0-0.009 0.031-0.233 0.031-0.233s0.257 0.304 0.236 0.313c-0.021 0.009-0.247-0.045-0.267-0.081z"></path>
<path fill="#fdc400" opacity="0.996" d="M32.791 18.088c0 0.018 0.432 0.322 0.442 0.394s-0.781 0.089-0.781 0.089-0.226-0.152-0.298-0.143c-0.072 0.009-0.103 0.161-0.103 0.161l0.185 0.089-0.35 0.018 0.103 0.17 0.267-0.018-0.062 0.161s0.164 0.107 0.195 0.089c0.031-0.018 0.134-0.179 0.216-0.206s0.257-0.027 0.257-0.027-0.134 0.197-0.072 0.197c0.062 0 0.339-0.206 0.339-0.206s0.062 0.188 0.072 0.188c0.010 0 0.206-0.215 0.206-0.215s0 0.17 0.031 0.17 0.319-0.215 0.319-0.215 0.226 0.25 0.257 0.233c0.031-0.018 0.062-0.268 0.093-0.268s0.226-0.027 0.226-0.036-0.123-0.098-0.144-0.224c-0.020-0.125 0.021-0.42 0.010-0.42s-1.388 0.045-1.408 0.018z"></path>
<path fill="#fdc400" opacity="0.996" d="M30.602 17.543h4.030c0.411 0 0.781-0.143 0.781-0.358s-0.658-0.25-0.905-0.179c-0.247 0.072-1.316 0.501-1.768 0.465s-0.863-0.286-0.905-0.537c-0.041-0.25 0.206-0.465 0.658-0.465s1.028 0.143 1.151 0.107 0.411-0.322 0.535-0.358c0.123-0.036 0.493-0.072 0.493-0.072l-0.164 0.107 0.535-0.107s-0.411 0.394-0.822 0.501c-0.411 0.107-1.275 0.072-1.604 0.072s-0.493-0.036-0.452 0.179c0.041 0.215 0.288 0.358 0.493 0.322s0.822-0.215 0.822-0.215l-0.165-0.107 0.74-0.036s-0.041-0.107 0-0.107 0.411 0.036 0.411 0.036-0.247-0.107-0.206-0.107 0.206 0 0.535 0.036c0.329 0.036 1.028 0.143 0.987 0.429s-0.288 0.537-0.576 0.537-0.535-0.072-0.535 0.036c0 0.107 0.329 0.179 0.535 0.179s0.452-0.143 0.493-0.143 0.123 0.215 0.164 0.215 0.288-0.072 0.288-0.072l-0.164 0.394 0.288 0.072s-0.164 0.143-0.123 0.143 0.288 0 0.288 0.036-0.329 0.25-0.329 0.286 0.247 0.143 0.247 0.143-0.164 0.215-0.206 0.179-0.206-0.215-0.206-0.215-0.041 0.143-0.123 0.143-0.247-0.036-0.247-0.036 0.123-0.215 0.082-0.215-0.247 0.143-0.247 0.107l-0.123-0.108s0.329-0.116 0.329-0.286c0-0.17-0.134-0.34-0.73-0.367s-0.607 0.125-1.049 0.107c-0.442-0.018-0.442-0.17-0.771-0.17s-1.347 0.358-1.82 0.349c-0.473-0.009-1.069-0.036-1.049-0.054s0.391-0.841 0.401-0.867z"></path>
<path fill="#fdc400" opacity="0.996" d="M29.82 17.337c-0.041 0.018-0.401 0.063-0.422 0.394s0.031 0.331 0.072 0.313c0.041-0.018 0.123-0.304 0.123-0.304s-0.123 0.394 0.010 0.483c0.079 0.053 0.171 0.095 0.271 0.124l0.007 0.002 0.051-0.313s-0.103 0.304 0.144 0.411c0.247 0.107 0.339 0.027 0.319-0.054s-0.093-0.286-0.093-0.286 0.195 0.188 0.206 0.206c0.010 0.018 0.103 0.161 0.35 0.098s0.072-0.206 0.072-0.206l-0.298-0.214s0.308 0.277 0.442 0.179-0.103-0.313-0.093-0.304 0.195 0.304 0.267 0.116-0.113-0.241-0.175-0.42c-0.062-0.179-0.113-0.197-0.051-0.304s0.072-0.313 0.072-0.313 0.257 0.054 0.236-0.134c-0.020-0.188-0.278-0.233-0.329-0.241s-0.041-0.197-0.062-0.188c-0.021 0.009-0.185 0.116-0.185 0.116s-0.144-0.295-0.175-0.277-0.195 0.17-0.319 0.179c-0.123 0.009-0.195 0.161-0.195 0.161s-0.432-0.179-0.421 0.116c0.010 0.295 0.257 0.224 0.257 0.233s-0.041 0.411-0.082 0.429z"></path>
<path fill="#000" opacity="0.996" d="M30.058 16.884c0.049-0.015 0.122-0.078 0.207-0.071s0.219 0.072 0.153 0.108c-0.067 0.035-0.116 0.051-0.192 0.033s-0.134-0.056-0.167-0.070zM30.897 16.875c-0.049-0.015-0.122-0.078-0.207-0.071s-0.219 0.072-0.152 0.108c0.067 0.035 0.116 0.050 0.192 0.033s0.134-0.056 0.167-0.070z"></path>
<path fill="#000039" opacity="0.996" d="M30.246 17.403c0.010 0.045 0.041 0.42 0.062 0.394s0.175-0.385 0.165-0.385-0.216 0.009-0.226-0.009z"></path>
<path fill="#fdc400" d="M30.823 26.917l0.427-1.404-1.187-0.883 1.486-0.033 0.485-1.386 0.491 1.383 1.486 0.027-1.183 0.888 0.434 1.402-1.222-0.834z"></path>
<path fill="#003017" opacity="0.996" d="M31.026 26.541l0.356-1.115-0.989-0.701 1.238-0.026 0.404-1.101 0.409 1.099 1.239 0.021-0.986 0.705 0.361 1.114-1.018-0.663z"></path>
<path fill="#fdc400" d="M28.377 24.074l0.423-1.328-1.174-0.835 1.47-0.031 0.48-1.31 0.486 1.308 1.47 0.025-1.17 0.84 0.429 1.326-1.209-0.789z"></path>
<path fill="#003017" opacity="0.996" d="M28.578 23.718l0.352-1.055-0.978-0.663 1.225-0.025 0.4-1.041 0.405 1.039 1.225 0.020-0.975 0.667 0.358 1.053-1.007-0.627z"></path>
<path fill="#fdc400" d="M33.305 24.074l0.428-1.328-1.189-0.835 1.489-0.031 0.486-1.31 0.492 1.308 1.489 0.025-1.185 0.84 0.435 1.326-1.224-0.789z"></path>
<path fill="#003017" opacity="0.996" d="M33.508 23.718l0.357-1.055-0.991-0.663 1.241-0.025 0.405-1.041 0.41 1.039 1.241 0.020-0.987 0.667 0.362 1.053-1.020-0.627z"></path>
<path fill="#000" d="M24.875 25.193l0.734-0.415 0.069 0.151-0.288 0.163 0.095 0.208 0.288-0.163 0.069 0.151-0.734 0.415-0.069-0.151 0.333-0.188-0.095-0.208-0.333 0.188-0.069-0.151zM25.182 25.835l0.685-0.507 0.234 0.391-0.114 0.084-0.15-0.25-0.158 0.117 0.14 0.233-0.109 0.080-0.14-0.233-0.189 0.14 0.154 0.256-0.116 0.086-0.238-0.397zM25.66 26.572l0.604-0.621 0.103 0.124-0.237 0.244 0.143 0.171 0.237-0.244 0.103 0.124-0.604 0.621-0.103-0.124 0.274-0.281-0.143-0.171-0.274 0.281-0.103-0.124zM26.449 26.939l0.098 0.096 0.178-0.337-0.276 0.241zM26.066 27.054l0.682-0.552 0.155 0.151-0.402 0.825-0.124-0.121 0.106-0.203-0.133-0.129-0.166 0.144-0.118-0.115zM26.661 27.607l0.406-0.616-0.142-0.116 0.080-0.122 0.408 0.333-0.080 0.122-0.142-0.116-0.406 0.616-0.124-0.101zM26.995 27.874l0.429-0.781 0.13 0.088-0.168 0.306 0.179 0.122 0.168-0.306 0.13 0.088-0.429 0.781-0.13-0.088 0.194-0.354-0.179-0.122-0.194 0.354-0.13-0.088zM27.801 28.384l0.346-0.83 0.39 0.201-0.057 0.136-0.251-0.129-0.082 0.196 0.237 0.122-0.055 0.133-0.237-0.122-0.152 0.365-0.139-0.072zM28.564 28.258c-0.048 0.141-0.071 0.232-0.069 0.275s0.024 0.072 0.064 0.089c0.039 0.017 0.072 0.010 0.099-0.019s0.065-0.116 0.113-0.258 0.072-0.234 0.069-0.277c-0.002-0.042-0.023-0.072-0.063-0.089s-0.073-0.010-0.1 0.020c-0.027 0.030-0.065 0.116-0.113 0.258zM28.418 28.196c0.031-0.091 0.060-0.161 0.086-0.212s0.052-0.087 0.078-0.108c0.036-0.029 0.072-0.046 0.108-0.050s0.080 0.005 0.131 0.027 0.089 0.047 0.114 0.077c0.025 0.030 0.043 0.069 0.052 0.117 0.007 0.035 0.004 0.081-0.007 0.138s-0.032 0.131-0.062 0.221c-0.031 0.090-0.059 0.161-0.085 0.212s-0.052 0.087-0.078 0.108c-0.036 0.029-0.072 0.046-0.109 0.049s-0.080-0.005-0.131-0.027-0.089-0.047-0.114-0.077c-0.025-0.030-0.042-0.069-0.052-0.117-0.007-0.034-0.005-0.080 0.006-0.137s0.032-0.132 0.063-0.223zM29.126 28.002l0.147 0.049-0.158 0.591c-0.018 0.068-0.023 0.116-0.015 0.145s0.032 0.050 0.070 0.062c0.038 0.012 0.067 0.009 0.088-0.011s0.041-0.063 0.059-0.132l0.158-0.589 0.145 0.048-0.162 0.605c-0.016 0.059-0.030 0.101-0.044 0.126-0.012 0.024-0.029 0.045-0.049 0.061l-0 0c-0.028 0.023-0.063 0.038-0.102 0.042l-0.001 0c-0.039 0.004-0.082-0.002-0.13-0.018-0.090-0.030-0.148-0.073-0.174-0.128s-0.023-0.138 0.006-0.246l0.162-0.605zM29.519 29.080l0.18-0.893 0.154 0.038 0.083 0.676 0.122-0.625 0.141 0.035-0.18 0.892-0.153-0.038-0.085-0.678-0.122 0.626-0.141-0.035zM30.324 29.126l0.067 0.012c0.034 0.006 0.058 0.007 0.073 0.004s0.028-0.011 0.037-0.022l0-0c0.017-0.021 0.032-0.051 0.044-0.091s0.024-0.105 0.037-0.195c0.012-0.088 0.018-0.152 0.016-0.193s-0.009-0.073-0.023-0.097c-0.008-0.012-0.018-0.021-0.031-0.027l-0-0c-0.013-0.007-0.035-0.013-0.064-0.018l-0.065-0.011-0.090 0.638zM30.157 29.233l0.127-0.904 0.243 0.042c0.050 0.009 0.088 0.020 0.116 0.035s0.050 0.034 0.066 0.058c0.024 0.036 0.039 0.078 0.044 0.128s0.001 0.123-0.013 0.223c-0.018 0.128-0.035 0.218-0.050 0.27s-0.036 0.094-0.060 0.128c-0.024 0.034-0.054 0.055-0.089 0.064s-0.094 0.006-0.176-0.008l-0.209-0.036zM30.794 29.338l0.079-0.91 0.421 0.045-0.013 0.151-0.269-0.029-0.018 0.21 0.251 0.027-0.013 0.144-0.251-0.027-0.022 0.251 0.276 0.030-0.013 0.154-0.427-0.046zM31.489 29.264l0.068 0.003c0.035 0.001 0.059-0 0.073-0.005s0.026-0.015 0.034-0.027l0-0c0.015-0.023 0.026-0.055 0.034-0.096s0.013-0.107 0.016-0.199c0.003-0.089 0.001-0.153-0.004-0.194s-0.017-0.072-0.033-0.093c-0.009-0.011-0.020-0.019-0.034-0.023l-0-0c-0.014-0.005-0.036-0.008-0.065-0.009l-0.066-0.003-0.021 0.646zM31.335 29.393l0.030-0.914 0.246 0.010c0.050 0.002 0.090 0.008 0.119 0.019s0.054 0.027 0.072 0.049c0.028 0.032 0.047 0.073 0.057 0.121s0.014 0.122 0.011 0.223c-0.004 0.13-0.011 0.221-0.021 0.275s-0.025 0.098-0.046 0.135c-0.020 0.037-0.047 0.062-0.082 0.076s-0.092 0.018-0.175 0.015l-0.211-0.008zM32.251 29.405l-0.033-0.914 0.153-0.007 0.033 0.914-0.153 0.007zM32.661 29.381l-0.056-0.761-0.176 0.016-0.011-0.15 0.504-0.046 0.011 0.15-0.176 0.016 0.056 0.761-0.153 0.014zM33.201 28.4l0.151-0.029 0.095 0.607c0.011 0.069 0.026 0.115 0.045 0.137s0.048 0.029 0.087 0.021c0.039-0.007 0.063-0.025 0.074-0.053s0.011-0.077 0-0.148l-0.095-0.605 0.149-0.029 0.097 0.622c0.009 0.060 0.013 0.105 0.011 0.135s-0.008 0.055-0.019 0.079c-0.017 0.036-0.043 0.066-0.074 0.088l-0.001 0c-0.033 0.023-0.075 0.039-0.124 0.048-0.093 0.018-0.162 0.008-0.207-0.029s-0.076-0.112-0.094-0.223l-0.097-0.622zM34.020 28.632l0.062-0.017c0.046-0.013 0.077-0.031 0.091-0.056s0.016-0.063 0.005-0.111c-0.011-0.049-0.027-0.081-0.048-0.095s-0.056-0.015-0.104-0.002l-0.064 0.017 0.058 0.265zM33.986 29.171l-0.195-0.889 0.259-0.070c0.079-0.021 0.14-0.017 0.183 0.013s0.075 0.089 0.094 0.179c0.019 0.088 0.015 0.158-0.013 0.211s-0.079 0.089-0.155 0.11l-0.109 0.029 0.083 0.377-0.148 0.040zM34.573 28.527c0.041 0.143 0.074 0.231 0.1 0.263s0.059 0.040 0.1 0.026c0.040-0.014 0.062-0.042 0.067-0.083s-0.014-0.135-0.055-0.28-0.075-0.233-0.1-0.265c-0.026-0.032-0.058-0.040-0.099-0.026s-0.063 0.043-0.067 0.085 0.014 0.136 0.055 0.281zM34.424 28.58c-0.026-0.093-0.044-0.168-0.051-0.226s-0.008-0.104 0.001-0.138c0.011-0.048 0.031-0.086 0.057-0.114s0.066-0.051 0.118-0.069c0.052-0.018 0.096-0.024 0.132-0.019s0.072 0.025 0.106 0.056c0.025 0.023 0.049 0.060 0.072 0.113s0.048 0.125 0.075 0.217c0.026 0.092 0.043 0.167 0.051 0.225s0.008 0.104-0 0.138c-0.012 0.048-0.031 0.086-0.058 0.114s-0.066 0.051-0.118 0.069c-0.052 0.018-0.096 0.024-0.132 0.019s-0.072-0.025-0.106-0.056c-0.025-0.022-0.049-0.059-0.072-0.112s-0.049-0.125-0.075-0.218zM35.177 28.789l-0.306-0.849 0.146-0.065 0.413 0.505-0.218-0.592 0.134-0.060 0.306 0.849-0.145 0.065-0.415-0.506 0.219 0.593-0.134 0.060zM36.13 28.32l-0.321-0.675-0.156 0.092-0.063-0.133 0.448-0.263 0.063 0.133-0.156 0.092 0.321 0.675-0.136 0.080zM36.492 28.104l-0.44-0.773 0.129-0.090 0.172 0.303 0.178-0.125-0.172-0.303 0.129-0.090 0.44 0.773-0.129 0.090-0.199-0.35-0.178 0.125 0.199 0.35-0.129 0.090zM37.041 27.709l-0.496-0.73 0.337-0.283 0.083 0.121-0.216 0.181 0.115 0.169 0.201-0.169 0.079 0.116-0.201 0.169 0.137 0.201 0.221-0.185 0.084 0.123-0.343 0.287zM37.465 26.924l0.109-0.119 0.037 0.042c0.035 0.040 0.064 0.063 0.086 0.068s0.044-0.005 0.066-0.030c0.023-0.025 0.035-0.051 0.035-0.077s-0.010-0.052-0.033-0.078c-0.017-0.020-0.036-0.032-0.057-0.036s-0.055-0.003-0.102 0.005l-0.095 0.017c-0.081 0.015-0.139 0.018-0.174 0.008s-0.068-0.034-0.1-0.070c-0.048-0.055-0.072-0.114-0.070-0.177s0.028-0.122 0.080-0.179c0.054-0.059 0.111-0.088 0.169-0.087s0.115 0.033 0.169 0.095c0.005 0.006 0.010 0.011 0.012 0.015s0.005 0.007 0.007 0.009l-0.104 0.113-0.015-0.017c-0.031-0.035-0.059-0.055-0.083-0.059s-0.048 0.007-0.072 0.033c-0.018 0.019-0.026 0.040-0.026 0.063s0.009 0.043 0.027 0.064c0.024 0.027 0.074 0.033 0.148 0.017 0.001-0 0.001-0 0.002-0v0l0.1-0.020c0.071-0.015 0.126-0.017 0.167-0.006s0.079 0.039 0.118 0.082c0.052 0.059 0.078 0.122 0.076 0.187s-0.031 0.129-0.088 0.191c-0.059 0.064-0.118 0.095-0.177 0.093s-0.119-0.039-0.18-0.108c-0.007-0.007-0.017-0.020-0.031-0.038l-0.002-0.003zM38.102 26.667l-0.631-0.587 0.272-0.36 0.105 0.098-0.174 0.23 0.146 0.136 0.162-0.214 0.1 0.093-0.162 0.214 0.174 0.162 0.178-0.236 0.107 0.099-0.276 0.366zM38.262 25.848l0.073-0.12-0.323-0.154 0.25 0.274zM38.413 26.256l-0.579-0.682 0.115-0.19 0.787 0.339-0.092 0.152-0.194-0.091-0.099 0.163 0.149 0.165-0.087 0.144zM38.511 25.513l0.070-0.152 0.047 0.027c0.045 0.026 0.079 0.037 0.101 0.034s0.040-0.020 0.054-0.051c0.015-0.032 0.019-0.061 0.012-0.085s-0.024-0.046-0.053-0.062c-0.022-0.012-0.043-0.017-0.064-0.015s-0.053 0.016-0.096 0.041l-0.085 0.049c-0.073 0.043-0.127 0.066-0.163 0.069s-0.074-0.008-0.115-0.032c-0.061-0.035-0.1-0.083-0.116-0.143s-0.008-0.126 0.025-0.197c0.035-0.075 0.080-0.123 0.136-0.142s0.118-0.009 0.188 0.031c0.007 0.004 0.012 0.007 0.016 0.010s0.007 0.004 0.010 0.006l-0.066 0.144-0.020-0.011c-0.040-0.023-0.071-0.032-0.095-0.027s-0.043 0.024-0.059 0.057c-0.011 0.024-0.014 0.047-0.007 0.069s0.021 0.038 0.044 0.051c0.031 0.018 0.079 0.006 0.145-0.035 0-0 0.001-0.001 0.002-0.001h0l0.089-0.054c0.063-0.039 0.115-0.060 0.157-0.064s0.086 0.009 0.135 0.037c0.067 0.038 0.108 0.088 0.125 0.151s0.007 0.134-0.030 0.212c-0.038 0.082-0.085 0.132-0.142 0.15s-0.124 0.005-0.202-0.040c-0.017-0.010-0.030-0.018-0.043-0.027l0.003 0.002-0.003-0.002z"></path>
</svg>
