<!-- Generated by IcoMoon.io -->
<svg version="1.1" xmlns="http://www.w3.org/2000/svg" width="43" height="32" viewBox="0 0 43 32">
<title>KZT</title>
<path fill="#6fdcff" d="M0 0h42.667v32h-42.667z"></path>
<path fill="#ffe400" d="M4.016 31.133c0.217 0.212 0.145 0.569 0.748 0.523 0.92 0 0.947-0.563 0.947-0.956s-1.371-0.942-1.435-1.519c-0.064-0.578 0.317-0.74 0.635-0.74 0.317 0 0.539 0.185 0.539 0.347s-0.158 0.208-0.381 0.208 0.095-0.116-0.095-0.208-0.317 0.139-0.317 0.278c0 0.138 0.476 0.184 0.793 0.081 0.064 0.312 0.095 0.335-0.349 0.866 0.318-0.208 0.349-0.254 0.699-0.138-0.35-0.301-0.088-0.913-0.076-1.069s-0.067-0.341-0.209-0.434c-0.254-0.231-0.81-0.241-1.143-0.093-0.485 0.216-0.509 0.855-0.381 1.063l1.344 1.378c0.095 0.162 0.128 0.612-0.443 0.635-0.603 0.046-0.81-0.776-0.917-1.049-0.144 0.299-0.304 1.123-0.907 1.077-0.572-0.023-0.682-0.473-0.586-0.635l1.381-1.405c0.126-0.209 0.102-0.847-0.382-1.063-0.333-0.149-0.887-0.139-1.142 0.093-0.143 0.093-0.222 0.278-0.21 0.434s0.274 0.768-0.076 1.069c0.35-0.116 0.382-0.070 0.699 0.138-0.445-0.531-0.413-0.555-0.349-0.866 0.317 0.104 0.794 0.058 0.794-0.081s-0.128-0.37-0.318-0.278c-0.189 0.093 0.127 0.208-0.094 0.208-0.223 0-0.381-0.047-0.381-0.208s0.222-0.347 0.54-0.347 0.698 0.161 0.634 0.74c-0.063 0.578-1.47 1.208-1.47 1.601s0.098 0.875 1.018 0.875c0.603 0.046 0.674-0.311 0.893-0.523z"></path>
<path fill="#ffe400" d="M3.942 22.886c0.217-0.212 0.395-0.841 0.998-0.795 0.92 0 1.269 0.509 1.269 0.902s-1.872 3.606-1.935 4.183c-0.064 0.578 0.317 0.74 0.635 0.74 0.317 0 0.539-0.185 0.539-0.347s-0.158-0.208-0.381-0.208 0.095 0.116-0.095 0.208-0.317-0.139-0.317-0.278c0-0.139 0.476-0.184 0.793-0.081 0.064-0.312 0.095-0.335-0.349-0.866 0.318 0.208 0.349 0.254 0.699 0.138-0.349 0.301-0.088 0.913-0.076 1.069s-0.067 0.341-0.209 0.434c-0.254 0.231-0.81 0.242-1.143 0.093-0.485-0.216-0.509-0.855-0.382-1.063l1.809-3.906c0.095-0.162-0.158-0.694-0.729-0.717-0.603-0.046-0.81 0.586-0.917 0.859l0.822-0.060s0.032 0.127 0 0.209c-0.424 0.028-0.822 0.105-0.822 0.105l-0.031 0.416h0.405l-0.032 0.184s-0.342-0.023-0.373 0c-0.032 0.023-0.064 0.417-0.064 0.417s-0.063 0.023-0.132 0.023c-0.070 0-0.133-0.023-0.133-0.023s-0.032-0.394-0.063-0.417c-0.032-0.023-0.374 0-0.374 0l-0.031-0.184h0.405l-0.032-0.416s-0.397-0.077-0.822-0.105c-0.031-0.082 0-0.209 0-0.209l0.822 0.060c-0.107-0.274-0.314-0.905-0.916-0.859-0.572 0.023-0.825 0.555-0.73 0.717l1.81 3.906c0.126 0.209 0.102 0.847-0.382 1.063-0.333 0.149-0.887 0.139-1.142-0.093-0.143-0.093-0.222-0.278-0.21-0.434s0.274-0.768-0.076-1.069c0.35 0.116 0.382 0.070 0.699-0.138-0.445 0.531-0.413 0.555-0.35 0.866 0.317-0.104 0.794-0.058 0.794 0.081s-0.128 0.37-0.318 0.278c-0.189-0.093 0.127-0.208-0.094-0.208-0.223 0-0.382 0.047-0.382 0.208s0.222 0.347 0.54 0.347 0.698-0.161 0.634-0.74c-0.063-0.578-1.935-3.791-1.935-4.183s0.349-0.902 1.269-0.902c0.603-0.046 0.817 0.583 1.036 0.795z"></path>
<path fill="#ffe400" d="M3.942 21.294c0.217 0.212 0.395 0.841 0.998 0.795 0.92 0 1.269-0.509 1.269-0.902s-1.872-3.606-1.935-4.183c-0.064-0.578 0.317-0.74 0.635-0.74 0.317 0 0.539 0.185 0.539 0.347s-0.158 0.208-0.381 0.208 0.095-0.115-0.095-0.208-0.317 0.138-0.317 0.278c0 0.139 0.476 0.184 0.793 0.081 0.064 0.312 0.095 0.335-0.349 0.866 0.318-0.208 0.349-0.254 0.699-0.138-0.349-0.301-0.088-0.913-0.076-1.069s-0.067-0.341-0.209-0.434c-0.254-0.231-0.81-0.242-1.143-0.093-0.485 0.216-0.509 0.855-0.382 1.063l1.809 3.906c0.095 0.162-0.158 0.694-0.729 0.717-0.603 0.046-0.81-0.586-0.917-0.859l0.822 0.060s0.032-0.127 0-0.209c-0.424-0.028-0.822-0.105-0.822-0.105l-0.031-0.416h0.405l-0.032-0.184s-0.342 0.023-0.373 0c-0.032-0.023-0.064-0.417-0.064-0.417s-0.063-0.023-0.132-0.023c-0.069 0-0.133 0.023-0.133 0.023s-0.032 0.394-0.063 0.417c-0.032 0.023-0.374 0-0.374 0l-0.031 0.184h0.405l-0.032 0.416s-0.397 0.077-0.822 0.105c-0.031 0.082 0 0.209 0 0.209l0.822-0.060c-0.107 0.274-0.314 0.905-0.916 0.859-0.572-0.023-0.825-0.555-0.73-0.717l1.81-3.906c0.126-0.209 0.102-0.847-0.382-1.063-0.333-0.149-0.887-0.139-1.142 0.093-0.143 0.093-0.222 0.278-0.21 0.434s0.274 0.768-0.076 1.069c0.35-0.116 0.382-0.070 0.699 0.138-0.445-0.531-0.413-0.555-0.349-0.866 0.317 0.104 0.794 0.058 0.794-0.081s-0.128-0.37-0.318-0.278c-0.189 0.093 0.127 0.208-0.094 0.208-0.223 0-0.382-0.047-0.382-0.208s0.222-0.347 0.54-0.347 0.698 0.161 0.634 0.74c-0.063 0.578-1.935 3.791-1.935 4.183s0.349 0.902 1.269 0.902c0.603 0.046 0.817-0.583 1.036-0.795z"></path>
<path fill="#ffe400" d="M3.942 10.707c0.217-0.212 0.395-0.841 0.998-0.795 0.92 0 1.269 0.509 1.269 0.902s-1.872 3.606-1.935 4.183c-0.064 0.578 0.317 0.74 0.635 0.74 0.317 0 0.539-0.185 0.539-0.347s-0.158-0.208-0.381-0.208 0.095 0.116-0.095 0.208-0.317-0.138-0.317-0.278c0-0.138 0.476-0.184 0.793-0.081 0.064-0.312 0.095-0.335-0.349-0.866 0.318 0.208 0.349 0.254 0.699 0.138-0.349 0.301-0.088 0.913-0.076 1.069s-0.067 0.341-0.209 0.434c-0.254 0.231-0.81 0.241-1.143 0.093-0.485-0.216-0.509-0.855-0.382-1.063l1.809-3.906c0.095-0.162-0.158-0.694-0.729-0.717-0.603-0.046-0.81 0.586-0.917 0.859l0.822-0.060s0.032 0.127 0 0.209c-0.424 0.028-0.822 0.105-0.822 0.105l-0.031 0.416h0.405l-0.032 0.184s-0.342-0.023-0.373 0c-0.032 0.023-0.064 0.417-0.064 0.417s-0.063 0.023-0.132 0.023c-0.070 0-0.133-0.023-0.133-0.023s-0.032-0.394-0.063-0.417c-0.032-0.023-0.374 0-0.374 0l-0.031-0.184h0.405l-0.032-0.416s-0.397-0.077-0.822-0.105c-0.031-0.082 0-0.209 0-0.209l0.822 0.060c-0.107-0.273-0.314-0.905-0.916-0.859-0.572 0.023-0.825 0.555-0.73 0.717l1.81 3.906c0.126 0.209 0.102 0.847-0.382 1.063-0.333 0.149-0.887 0.138-1.142-0.093-0.143-0.093-0.222-0.278-0.21-0.434s0.274-0.768-0.076-1.069c0.35 0.116 0.382 0.070 0.699-0.138-0.445 0.531-0.413 0.555-0.35 0.866 0.317-0.104 0.794-0.058 0.794 0.081s-0.128 0.37-0.318 0.278c-0.189-0.093 0.127-0.208-0.094-0.208-0.223 0-0.382 0.047-0.382 0.208s0.222 0.347 0.54 0.347 0.698-0.161 0.634-0.74c-0.063-0.578-1.935-3.791-1.935-4.183s0.349-0.902 1.269-0.902c0.603-0.046 0.817 0.583 1.036 0.795z"></path>
<path fill="#ffe400" d="M3.942 9.115c0.217 0.212 0.395 0.841 0.998 0.795 0.92 0 1.269-0.509 1.269-0.902s-1.872-3.606-1.935-4.183c-0.064-0.578 0.317-0.74 0.635-0.74 0.317 0 0.539 0.185 0.539 0.347s-0.158 0.208-0.381 0.208 0.095-0.116-0.095-0.208-0.317 0.138-0.317 0.278c0 0.138 0.476 0.184 0.793 0.081 0.064 0.312 0.095 0.335-0.349 0.866 0.318-0.208 0.349-0.254 0.699-0.138-0.349-0.301-0.088-0.913-0.076-1.069s-0.067-0.341-0.209-0.434c-0.254-0.231-0.81-0.241-1.143-0.093-0.485 0.216-0.509 0.855-0.382 1.063l1.809 3.906c0.095 0.162-0.158 0.694-0.729 0.717-0.603 0.046-0.81-0.586-0.917-0.859l0.822 0.060s0.032-0.127 0-0.209c-0.424-0.028-0.822-0.105-0.822-0.105l-0.031-0.416h0.405l-0.032-0.184s-0.342 0.023-0.373 0c-0.032-0.023-0.064-0.417-0.064-0.417s-0.063-0.023-0.132-0.023c-0.069 0-0.133 0.023-0.133 0.023s-0.032 0.394-0.063 0.417c-0.032 0.023-0.374 0-0.374 0l-0.031 0.184h0.405l-0.032 0.416s-0.397 0.077-0.822 0.105c-0.031 0.082 0 0.209 0 0.209l0.822-0.060c-0.107 0.273-0.314 0.905-0.916 0.859-0.572-0.023-0.825-0.555-0.73-0.717l1.81-3.906c0.126-0.209 0.102-0.847-0.382-1.063-0.333-0.149-0.887-0.139-1.142 0.093-0.143 0.093-0.222 0.278-0.21 0.434s0.274 0.768-0.076 1.069c0.35-0.116 0.382-0.070 0.699 0.138-0.445-0.531-0.413-0.555-0.349-0.866 0.317 0.104 0.794 0.058 0.794-0.081s-0.128-0.37-0.318-0.278c-0.189 0.093 0.127 0.208-0.094 0.208-0.223 0-0.382-0.047-0.382-0.208s0.222-0.347 0.54-0.347 0.698 0.161 0.634 0.74c-0.063 0.578-1.935 3.791-1.935 4.183s0.349 0.902 1.269 0.902c0.603 0.046 0.817-0.583 1.036-0.795z"></path>
<path fill="#ffe400" d="M4.016 0.867c0.217-0.212 0.145-0.569 0.748-0.523 0.92 0 0.947 0.563 0.947 0.956s-1.371 0.942-1.435 1.519c-0.064 0.578 0.317 0.74 0.635 0.74 0.317 0 0.539-0.185 0.539-0.347s-0.158-0.208-0.381-0.208 0.095 0.116-0.095 0.208-0.317-0.138-0.317-0.278c0-0.138 0.476-0.184 0.793-0.081 0.064-0.312 0.095-0.336-0.349-0.866 0.318 0.208 0.349 0.254 0.699 0.138-0.349 0.301-0.088 0.913-0.076 1.069s-0.067 0.341-0.209 0.434c-0.254 0.231-0.81 0.241-1.143 0.093-0.485-0.216-0.509-0.855-0.382-1.063l1.344-1.378c0.095-0.162 0.128-0.612-0.443-0.635-0.603-0.046-0.81 0.776-0.917 1.049-0.144-0.299-0.304-1.123-0.907-1.077-0.572 0.023-0.682 0.473-0.586 0.635l1.381 1.405c0.126 0.209 0.102 0.847-0.382 1.063-0.333 0.149-0.887 0.138-1.142-0.093-0.143-0.093-0.222-0.278-0.21-0.434s0.274-0.768-0.076-1.069c0.35 0.116 0.382 0.070 0.699-0.138-0.445 0.531-0.413 0.555-0.349 0.866 0.317-0.104 0.794-0.058 0.794 0.081s-0.128 0.37-0.318 0.278c-0.189-0.093 0.127-0.208-0.094-0.208-0.223 0-0.382 0.047-0.382 0.208s0.222 0.347 0.54 0.347 0.698-0.161 0.634-0.74c-0.063-0.578-1.47-1.208-1.47-1.601s0.098-0.875 1.018-0.875c0.603-0.046 0.674 0.311 0.893 0.523z"></path>
<path fill="#ffe400" d="M23.379 7.984c3.345 0 6.057 2.569 6.057 5.738v0c0 3.169-2.712 5.738-6.057 5.738s-6.057-2.569-6.057-5.738v-0c0-3.169 2.712-5.738 6.057-5.738z"></path>
<path fill="#ffe400" d="M23.088 4.562c-0.050-0-0.323 1.91-0.428 2.339-0.094 0.956 1.286 0.921 1.060-0.038l-0.632-2.301zM23.574 23.052c0.050 0.004 0.462-1.884 0.598-2.305 0.164-0.947-1.215-1.003-1.060-0.032l0.462 2.337zM13.926 13.688c-0.004 0.048 1.986 0.447 2.43 0.578 0.999 0.16 1.065-1.146 0.039-1.004l-2.469 0.426zM33.26 13.915c0.002-0.048-2.004-0.375-2.454-0.491-1.005-0.124-1.013 1.184 0.006 1.005l2.448-0.514zM15.962 7.642c-0.034 0.035 1.273 1.512 1.537 1.875 0.682 0.709 1.584-0.281 0.684-0.768l-2.221-1.107zM30.987 19.809c0.031-0.038-1.407-1.402-1.703-1.741-0.745-0.651-1.552 0.41-0.611 0.821l2.314 0.92zM18.964 5.577c-0.046 0.020 0.567 1.858 0.665 2.289 0.344 0.903 1.577 0.314 0.942-0.462l-1.607-1.827zM27.716 22.109c0.047-0.017-0.429-1.891-0.495-2.327-0.277-0.923-1.55-0.417-0.974 0.399l1.469 1.928zM29.864 6.857c-0.036-0.033-1.616 1.182-2.003 1.426-0.76 0.635 0.271 1.505 0.799 0.66l1.204-2.087zM16.848 20.641c0.034 0.035 1.699-1.073 2.103-1.291 0.804-0.583-0.16-1.519-0.749-0.711l-1.354 2.003zM14.352 10.383c-0.021 0.044 1.716 1.047 2.089 1.311 0.886 0.466 1.406-0.746 0.389-0.935l-2.478-0.376zM32.419 17.387c0.024-0.042-1.636-1.157-1.988-1.445-0.849-0.523-1.458 0.651-0.457 0.907l2.445 0.538zM26.677 5.086c-0.047-0.018-1.037 1.666-1.3 2.029-0.456 0.857 0.842 1.302 1.001 0.332l0.299-2.361zM19.999 22.465c0.045 0.021 1.156-1.594 1.446-1.939 0.518-0.825-0.744-1.354-0.975-0.397l-0.471 2.336zM14.486 17.535c0.018 0.044 1.991-0.426 2.451-0.493 0.971-0.272 0.424-1.473-0.431-0.918l-2.020 1.411zM32.423 10.237c-0.015-0.046-2.018 0.294-2.481 0.33-0.989 0.208-0.531 1.442 0.363 0.944l2.119-1.275z"></path>
<path fill="#ffe400" d="M25.058 4.688c-0.049-0.010-0.721 1.809-0.916 2.21-0.295 0.918 1.064 1.147 1.046 0.165l-0.131-2.375zM21.609 22.892c0.048 0.013 0.852-1.758 1.075-2.144 0.362-0.896-0.977-1.214-1.032-0.233l-0.044 2.378zM20.914 4.867c-0.049 0.010 0.136 1.93 0.135 2.371 0.134 0.951 1.471 0.625 1.024-0.261l-1.159-2.109zM25.753 22.785c0.050-0.007 0.005-1.934 0.039-2.374-0.064-0.958-1.421-0.72-1.041 0.194l1.002 2.18zM17.483 6.465c-0.041 0.027 0.908 1.732 1.086 2.14 0.509 0.83 1.611 0.042 0.84-0.614l-1.925-1.526zM29.213 21.248c0.043-0.025-0.779-1.788-0.926-2.206-0.447-0.861-1.604-0.148-0.883 0.557l1.809 1.648zM14.981 8.852c-0.028 0.040 1.503 1.309 1.823 1.629 0.789 0.602 1.52-0.508 0.551-0.858l-2.375-0.77zM31.645 18.786c0.031-0.038-1.404-1.404-1.7-1.745-0.743-0.652-1.553 0.407-0.613 0.82l2.312 0.924zM13.883 11.832c-0.013 0.046 1.874 0.767 2.287 0.97 0.954 0.322 1.259-0.953 0.223-0.983l-2.51 0.013zM32.915 15.946c0.016-0.045-1.813-0.889-2.211-1.118-0.928-0.384-1.326 0.868-0.294 0.966l2.505 0.152zM13.821 15.492c0.007 0.047 2.041 0.019 2.505 0.053 1.011-0.054 0.77-1.341-0.197-0.988l-2.308 0.934zM33.048 12.29c-0.004-0.048-2.035-0.153-2.495-0.218-1.013-0.013-0.866 1.288 0.124 0.998l2.371-0.78zM15.563 19.296c0.028 0.040 1.845-0.828 2.278-0.989 0.885-0.467 0.074-1.525-0.633-0.807l-1.645 1.796zM31.381 8.457c-0.025-0.041-1.901 0.705-2.345 0.837-0.917 0.408-0.186 1.517 0.572 0.846l1.773-1.683zM18.527 21.811c0.042 0.026 1.343-1.457 1.672-1.768 0.615-0.763-0.574-1.427-0.92-0.501l-0.753 2.269zM28.468 5.893c-0.041-0.028-1.446 1.365-1.798 1.654-0.669 0.72 0.468 1.461 0.881 0.56l0.917-2.214z"></path>
<path fill="#ffe400" d="M14.124 17.544c0.097 0.367 0.121 2.431 2.305 4.403s5.896 2.408 5.896 2.408 0.024 0.275-0.243 0.298c-0.267 0.023-1.529-0.229-2.159-0.413s-1.189-0.505-1.262-0.482c-0.073 0.023-0.194 0.229-0.388 0.206s-1.092-0.917-1.48-1.147c-0.388-0.229-1.698-1.582-2.135-2.248s-0.534-1.101-0.679-1.101c-0.146 0-0.655 0.321-0.655 0.321s-0.461-0.665-0.873-1.72c-0.412-1.055-0.364-1.674-0.267-1.72s0.097 0.78 0.412 1.537c0.316 0.757 0.752 0.986 0.752 0.986s-0.291-0.39-0.509-1.376-0.291-1.927-0.146-2.225c0.146-0.298 0.291-0.39 0.316-0.367s-0.267 0.459-0.073 1.582 0.752 2.087 0.873 2.041c0.121-0.046-0.073-0.275-0.17-0.94s0.097-1.078 0.267-1.124c0.073-0.069 0.194 0.734 0.218 1.078zM12.595 19.425c-0.412-0.367-1.068-1.651-1.213-1.582s1.068 1.904 1.092 2.064c0.024 0.16 0.291 0.665 0.097 0.596s-1.65-1.514-1.48-1.238 1.262 1.537 1.189 1.605-0.898-0.688-0.922-0.596c-0.024 0.092 0.825 0.849 0.801 0.94s-0.534-0.482-0.534-0.367 0.534 0.688 0.534 0.78-0.461-0.413-0.315-0.138c0.146 0.275 0.558 0.528 0.534 0.619s-0.34-0.115-0.34-0.069c0 0.046 0.607 0.252 0.752 0.413s1.14 1.239 1.893 1.789 2.887 1.491 3.033 1.491c0.146 0 0.364-0.298 0.315-0.413s-2.135-0.78-2.717-1.284c-0.582-0.505-2.014-1.697-2.135-1.766s-0.437-0.046-0.437-0.115 0.412 0.046 0.388 0c-0.024-0.046-0.582-0.275-0.558-0.321s0.388 0.092 0.388 0.046c0-0.046-0.655-0.39-0.631-0.459s0.485 0.206 0.485 0.161c0-0.046-0.631-0.459-0.607-0.528s0.485 0.321 0.461 0.229-0.364-0.573-0.364-0.642c0-0.069 0.558 0.505 0.607 0.39s-0.194-1.055-0.17-1.078 0.411 0.209 0.484 0.071c0.073-0.138-0.285-0.329-0.629-0.599zM19.755 26.647c-0.294 0.037-0.427-0.058-0.26-0.284 0.231-0.016 0.846-0.202 1.064-0.288s0.449-0.208 0.642-0.372c0.193-0.179 0.296 0.115 0.199 0.267-0.080 0.107-0.441 0.3-0.706 0.402-0.385 0.121-0.716 0.289-0.94 0.274zM21.694 25.893c-0.194-0.207-0.024-0.344 0.267-0.505 0.437-0.229 0.316-0.527 0.873-0.78 0.243-0.138 3.712-1.468 4.853-2.179s4.319-2.982 5.168-4.541c0.849-1.56 0.437-1.674 0.558-1.743s0.243 0.229 0.218 0.573c-0.024 0.344-0.291 1.376-0.218 1.468s1.286-0.803 1.771-1.904 0.873-2.248 1.116-2.248c0.243 0-0.412 1.881-0.825 2.615s-0.898 1.101-0.776 1.261c0.121 0.16 1.335-0.803 1.747-1.514s0.801-1.353 0.873-1.216c0.073 0.138-0.388 1.651-1.043 2.362s-1.432 1.215-1.31 1.33c0.121 0.115 0.995 0.229 1.917-0.367s1.019-1.468 1.14-1.422c0.121 0.046-0.121 1.238-0.995 1.972s-2.062 0.803-2.014 0.963c0.048 0.161 2.523-0.665 2.475-0.482s-3.203 1.353-3.227 1.468c0 0.092 0.534 0.115 1.383-0.069s1.65-0.803 1.771-0.665c0.024 0.206-0.607 0.711-1.577 0.94s-1.456 0.55-1.48 0.619c-0.024 0.069 1.723-0.207 1.723-0.115s-2.281 0.505-2.305 0.619c-0.024 0.115 2.184-0.413 2.135-0.298s-2.984 0.94-2.96 0.986c0.024 0.046 2.451-0.505 2.402-0.413s-4.1 1.17-4.125 1.239c-0.024 0.069 3.567-0.757 3.542-0.688s-1.868 0.505-1.868 0.55c0 0.046 1.48-0.229 1.456-0.161s-3.737 0.963-3.809 1.101c-0.073 0.138 1.917-0.367 1.893-0.115s-4.295 1.628-4.319 1.376c-0.024-0.252 2.596-0.895 2.572-0.963s-1.504 0.16-1.529 0.023c-0.024-0.138 0.971-0.436 0.898-0.505s-0.825 0.206-0.752 0.046c0.073-0.161 1.48-0.78 1.456-0.826s-0.509 0.16-0.461 0c0.049-0.161 3.057-0.986 3.009-1.078s-1.383 0.206-1.504 0.229c-0.049-0.092 1.868-0.757 1.82-0.871s-1.019 0.39-1.067 0.252c-0.049-0.138 1.674-0.78 1.577-0.872s-0.898 0.252-0.995 0.161 1.626-1.238 1.359-1.261c-0.267-0.023-0.582 0.344-0.631 0.115 0.049-0.298 1.359-0.78 1.068-1.009-0.461-0.138-2.038 0.092-2.693 0.459s-2.815 2.408-3.348 2.729c-0.534 0.321-2.329 1.032-2.669 1.17-0.534 0.183-0.631 0.459-1.165 0.711-0.971 0.252-0.971 0.528-1.432 0.688-0.17 0.046-1.917 0.849-1.941 0.78zM19.244 26.925c-0.291 0.138-0.558 0.505-0.388 0.642 0.097 0.183 0.388-0.39 0.631-0.367s0.582 0.023 1.237 0.069c0.655 0.046 0.995-0.138 1.359-0.115s1.189-0.183 1.577-0.183 0.461 0.046 0.509-0.115c0.048-0.16-1.213-0.046-1.771-0.069s-1.262 0.115-1.674 0.115c-0.388-0.023-1.068-0.138-1.48 0.023z"></path>
<path fill="#ffe400" d="M20.845 26.535c0.147 0 0.267 0.098 0.267 0.218v0c0 0.12-0.119 0.218-0.267 0.218s-0.267-0.098-0.267-0.218v-0c0-0.12 0.119-0.218 0.267-0.218z"></path>
<path fill="#ffe400" d="M27.305 26.328c0.267-0.046 0.979 0.183 1.472 0.298 0.905 0.321 2.578 0.161 2.578 0.321s-0.104 0.367-0.503 0.39-1.36-0.138-1.333-0.138 0.772 0.321 0.559 0.413-0.852-0.183-0.958-0.115 0.586 0.206 0.479 0.252c-0.107 0.046-0.587-0.069-0.747-0.046s0.135 0.183-0.052 0.252c-0.186 0.069-0.499-0.092-0.632-0.046s0.287 0.298 0.1 0.321-0.635-0.115-0.875-0.138c-0.24-0.023 0.236 0.229 0.076 0.252s-0.594-0.183-0.701-0.183 0.008 0.275-0.151 0.275c-0.16 0-0.348-0.229-0.427-0.229s0.002 0.275-0.158 0.275-0.217-0.298-0.35-0.275c-0.157 0.023 0.004 0.39-0.209 0.367s-0.241-0.39-0.401-0.367c-0.16 0.023 0.028 0.367-0.132 0.367s-0.186-0.344-0.345-0.367c-0.16-0.023-0.081 0.321-0.187 0.321s-0.186-0.321-0.239-0.321c-0.053 0-0.001 0.321-0.187 0.298s-0.185-0.367-0.239-0.344c-0.053 0.023-0.054 0.252-0.187 0.252s-0.132-0.229-0.186-0.206c-0.053 0.023-0.24 0.321-0.373 0.275s0.032-0.275-0.021-0.275c-0.053 0-0.218 0.16-0.325 0.138s0.005-0.206-0.021-0.206c-0.027 0-0.272 0.115-0.378 0.115s-0.399 0.161-0.479 0.023c-0.080-0.138 0.208-0.138 0.262-0.275s-0.155-0.527 0.058-0.665c0.213-0.138 0.879 0.183 1.863-0.046 1.81-0.459 3.207-0.986 3.35-0.963z"></path>
</svg>
