<!-- Generated by IcoMoon.io -->
<svg version="1.1" xmlns="http://www.w3.org/2000/svg" width="43" height="32" viewBox="0 0 43 32">
<title>LBP</title>
<path fill="#f00" d="M-2.667 24h47.998v8h-47.998zM-2.667 0h47.998v8h-47.998z"></path>
<path fill="#fff" d="M-2.667 8h47.998v15.999h-47.998z"></path>
<path fill="#007900" d="M21.090 8.122c-0.488 0.975-0.814 0.975-1.627 1.624-0.325 0.325-0.814 0.487-0.163 0.812-0.651 0.325-0.976 0.487-1.302 1.137l0.163 0.162s0.618-0.303 0.651-0.162c0.108 0.13-0.814 0.628-0.933 0.704s-0.694 0.433-0.694 0.433c-0.814 0.65-1.302 0.487-1.79 1.462l1.627-0.162c0.325 1.137-0.814 1.299-1.627 1.787l-1.302 0.812c0.325 1.137 1.302 0.487 2.115 0.162l0.163 0.163v0.325l-1.627 0.812s-1.921 1.099-1.953 1.137c-0.013 0.059 0 0.325 0 0.325 0.651 0.163 1.627 0.325 2.278 0 0.813-0.325 0.976-0.65 1.952-0.65-1.139 0.812-1.953 1.137-3.254 1.299v0.65c0.976 0 1.627 0 2.441-0.162l2.115-0.65c0.488 0 0.976 0.487 0.814 0.975-0.488 1.787-2.441 1.462-3.092 2.924l2.604-0.975c0.651-0.325 1.302-0.65 2.115-0.487 0.976 0.325 0.976 0.975 2.278 1.299l-0.325-0.812c0.325 0.162 0.651 0.162 0.976 0.325 0.814 0.325 0.976 0.65 1.953 0.487-0.814-0.975-0.976-0.812-1.627-1.462-0.651-0.975-0.976-2.436 0-2.599l1.139 0.325c1.139 0.162 1.139-0.162 2.766 0.487 0.976 0.325 1.302 0.812 2.441 0.487-0.488-1.137-2.278-1.949-3.417-2.274 1.302-0.812 0.976 0.325 2.766-0.163v-0.325c-1.302-0.975-1.79-1.787-3.58-1.787l2.766-0.325v-0.325s-2.728-0.716-2.791-0.741c0.019-0.082 0.086-0.21 0.267-0.281 0.518 0.335 2.085 0.296 2.174 0.29-0.046-0.4-0.788-0.73-1.439-1.055 0 0-2.787-1.718-2.801-1.87 0.055-0.435 1.145 0.069 2.313 0.408-0.325-0.65-0.976-0.975-1.627-1.137l0.976-0.162c-0.651-1.462-2.278-1.3-3.254-1.949-0.651-0.487-0.651-0.812-1.627-1.3z"></path>
<path fill="#fff" d="M19.331 18.942c0.121-0.387 0.28-0.73-0.445-1.060s0.362 1.32 0.445 1.060zM20.189 18.168c-0.146 0.019-0.223 0.552 0.070 0.698 0.324 0.051 0.057-0.692-0.070-0.698zM21.035 18.111c-0.153 0.044-0.159 0.793 0.375 0.66s-0.006-0.723-0.375-0.66zM22.020 16.188c0.114-0.184-0.006-0.939-0.464-0.622s0.318 0.673 0.464 0.622zM21.021 15.56c0.14-0.051 0.153-0.514-0.248-0.393s0.14 0.489 0.248 0.393zM20.12 15.744s-0.28-0.387-0.496-0.305c-0.273 0.26 0.515 0.311 0.496 0.305zM17.020 16.981c0.119 0.011 1.002-0.146 1.307-0.488s-1.57 0.147-1.57 0.153 0.177 0.303 0.264 0.335zM25.84 14.796c0.046-0.081-0.47-0.448-0.776-0.303-0.079 0.271 0.773 0.359 0.776 0.303zM24.105 13.922c0.095-0.14-0.222-0.711-0.858-0.393s0.667 0.616 0.858 0.393zM22.096 13.586s0.159-0.514 0.54-0.412c0.432 0.33-0.521 0.432-0.54 0.412zM21.721 13.199c-0.057-0.146-0.458-0.057-0.915 0.241s1.055 0.089 0.915-0.241zM22.89 11.816s0.408-0.182 0.527 0c0.172 0.273-0.534 0.006-0.527 0zM22.548 11.637c-0.083-0.165-0.534-0.181-0.522 0.058-0.076 0.187 0.586 0.152 0.522-0.058zM21.473 11.638c-0.044-0.095-0.686 0.002-0.877 0.387 0.306 0.149 1.017-0.146 0.877-0.387zM20.1 12.032s-0.844 0.516-0.896 0.895c0.026 0.327 1.049-0.59 1.049-0.59s0.089-0.362-0.152-0.305zM19.166 11.563c0.024-0.105 0.417-0.348 0.451-0.33 0.032 0.106-0.321 0.393-0.451 0.33zM19.433 13.536c0.019-0.152-1.004-0.14-0.616 0.33 0.323 0.394 0.686-0.26 0.616-0.33zM18.501 14.209c-0.053-0.103-0.13-0.377-0.27-0.403-0.114-0.006-0.73 0.12-0.777 0.225-0.025 0.082 0.255 0.59 0.35 0.602 0.108 0.044 0.678-0.374 0.697-0.424zM24.022 17.654c0.032-0.108 1.077-0.469 1.438-0.123 0.426 0.584-1.464 0.308-1.438 0.123zM26.896 18.337c0.229-0.388-0.704-0.847-1.099-0.404 0.135 0.532 0.914 0.725 1.099 0.404z"></path>
</svg>
