<!-- Generated by IcoMoon.io -->
<svg version="1.1" xmlns="http://www.w3.org/2000/svg" width="43" height="32" viewBox="0 0 43 32">
<title>LKR</title>
<path fill="#ffb700" d="M0 0h42.667v32h-42.667z"></path>
<path fill="#ff5b00" d="M1.778 16l5.867-14.222h5.867v28.444h-5.867z"></path>
<path fill="#005641" d="M1.778 1.778h5.867v28.444h-5.867z"></path>
<path fill="#8d2029" d="M15.289 1.778h25.778v28.444h-25.778z"></path>
<path fill="#ffb700" d="M38.617 27.238s0.242 0.492 0.509 0.693c0.396 0.297 1.207 0.276 1.551 0.622 0.412 0.409-0.032 0.949-0.028 0.996l0.023 0.285s-0.278 0.003-0.395 0.022c-0.176 0.027-0.245 0.171-0.573 0.15-0.825-0.054-0.791-0.796-0.838-1.431-0.041-0.242-0.137-0.557-0.192-0.799-0.047-0.207-0.057-0.537-0.057-0.537z"></path>
<path fill="#ffb700" d="M17.739 27.238s-0.242 0.492-0.509 0.693c-0.396 0.297-1.207 0.276-1.551 0.622-0.412 0.409 0.032 0.949 0.028 0.996l-0.023 0.285s0.278 0.003 0.395 0.022c0.176 0.027 0.245 0.171 0.573 0.15 0.825-0.054 0.791-0.796 0.838-1.431 0.041-0.242 0.137-0.557 0.192-0.799 0.047-0.207 0.057-0.537 0.057-0.537z"></path>
<path fill="#ffb700" d="M38.617 4.762s0.242-0.492 0.509-0.693c0.396-0.297 1.207-0.276 1.551-0.622 0.412-0.409-0.032-0.949-0.028-0.996l0.023-0.285s-0.278-0.003-0.395-0.022c-0.176-0.027-0.245-0.171-0.573-0.15-0.825 0.054-0.791 0.796-0.838 1.431-0.041 0.242-0.137 0.557-0.192 0.799-0.047 0.207-0.057 0.537-0.057 0.537z"></path>
<path fill="#ffb700" d="M17.739 4.762s-0.242-0.492-0.509-0.693c-0.396-0.297-1.207-0.276-1.551-0.622-0.412-0.409 0.032-0.949 0.028-0.996l-0.023-0.285s0.278-0.003 0.395-0.022c0.176-0.027 0.245-0.171 0.573-0.15 0.825 0.054 0.791 0.796 0.838 1.431 0.041 0.242 0.137 0.557 0.192 0.799 0.047 0.207 0.057 0.537 0.057 0.537z"></path>
<path fill="#000" stroke="#000" stroke-linejoin="miter" stroke-linecap="butt" stroke-miterlimit="4" stroke-width="0.3707" d="M24.233 22.651l0.155-0.089 0.066 0.090c0.088 0.119 0.333 0.118 0.495-0.003l0.124-0.092 0.104 0.092c0.137 0.121 0.392 0.122 0.554 0 0.114-0.085 0.13-0.087 0.205-0.022 0.045 0.038 0.177 0.082 0.293 0.097 0.209 0.027 0.212 0.026 0.335-0.158 0.103-0.154 0.119-0.216 0.094-0.365-0.016-0.097-0.030-0.219-0.038-0.342l-0.001-0.012c-0.009-0.173-0.008-0.174 0.244-0.262 0.139-0.049 0.301-0.114 0.358-0.145 0.101-0.054 0.378-0.38 0.378-0.445 0-0.017-0.108-0.043-0.241-0.058-0.527-0.059-0.617-0.342-0.274-0.868 0.559-0.858 0.897-1.693 0.899-2.226 0.001-0.238 0.015-0.318 0.045-0.266 0.125 0.211-0.099 1.098-0.438 1.734l-0.136 0.256 0.13-0.030c0.072-0.016 0.493-0.194 0.936-0.395 1.213-0.549 1.63-0.657 2.415-0.624 0.658 0.028 0.938 0.156 1.402 0.643 0.246 0.258 0.483 0.443 0.916 0.714 0.924 0.578 0.962 0.628 1.006 1.308 0.044 0.689 0.022 0.726-0.499 0.841-0.445 0.098-0.724 0.306-0.799 0.594-0.040 0.154 0.044 0.158 0.269 0.014l0.165-0.106 0.073 0.106c0.096 0.139 0.301 0.14 0.47 0.001l0.128-0.105 0.131 0.104c0.204 0.162 0.475 0.123 0.551-0.080 0.015-0.039 0.054-0.027 0.133 0.042 0.149 0.129 0.53 0.185 0.571 0.083 0.016-0.039-0.014-0.135-0.066-0.213-0.222-0.333-0.291-0.491-0.294-0.673-0.004-0.252 0.071-0.373 0.358-0.578 0.348-0.249 0.456-0.57 0.191-0.57-0.163 0-0.328-0.145-0.433-0.38-0.214-0.479-0.172-1.015 0.149-1.908 0.326-0.907 0.362-1.074 0.363-1.68 0.001-0.49-0.011-0.575-0.123-0.844-0.068-0.164-0.207-0.409-0.307-0.544l-0.184-0.245 0.236-0.195c0.719-0.596 0.572-1.571-0.294-1.947-0.265-0.115-0.331-0.125-0.795-0.122-0.278 0.002-0.703 0.039-0.944 0.081-0.245 0.044-0.66 0.079-0.945 0.080-0.452 0.002-0.529-0.009-0.704-0.102-0.182-0.097-0.213-0.143-0.249-0.366-0.007-0.046-0.039-0.092-0.071-0.102-0.062-0.019-0.347 0.228-0.39 0.338-0.021 0.054-0.038 0.050-0.099-0.022-0.041-0.048-0.097-0.158-0.126-0.245-0.072-0.218 0.016-0.382 0.273-0.504l0.199-0.095-0.117-0.073c-0.242-0.15-0.654-0.047-0.803 0.2-0.042 0.070-0.088 0.128-0.102 0.128s-0.094-0.067-0.178-0.149c-0.312-0.305-0.205-0.757 0.213-0.895 0.223-0.074 0.42-0.017 0.461 0.131 0.063 0.227 0.257-0.071 0.223-0.341-0.023-0.179-0.020-0.185 0.104-0.185 0.172 0 0.539 0.226 0.653 0.402 0.132 0.205 0.122 0.527-0.023 0.767l-0.114 0.189 0.149-0.030c0.218-0.044 0.431-0.179 0.538-0.344 0.113-0.174 0.126-0.512 0.025-0.695-0.098-0.177-0.086-0.205 0.058-0.145 0.245 0.102 0.376 0.214 0.475 0.406 0.089 0.173 0.094 0.216 0.046 0.397-0.030 0.111-0.095 0.258-0.146 0.325-0.079 0.105-0.082 0.123-0.019 0.123 0.117 0 0.363-0.111 0.45-0.204 0.044-0.047 0.108-0.162 0.143-0.256l0.063-0.171 0.072 0.131c0.102 0.185 0.299 0.351 0.541 0.454 0.259 0.111 0.367 0.117 0.232 0.013-0.091-0.070-0.26-0.565-0.209-0.613 0.030-0.028 0.382 0.243 0.784 0.603 0.38 0.341 0.619 0.453 0.968 0.453 0.446 0 0.706-0.388 0.505-0.756-0.117-0.214-0.377-0.244-0.53-0.061-0.070 0.084-0.089 0.151-0.069 0.24 0.025 0.108 0.015 0.123-0.083 0.123-0.13 0-0.385-0.166-0.839-0.545-0.692-0.578-1.533-1.067-2.141-1.246-0.39-0.115-1.222-0.16-1.619-0.087-0.429 0.078-0.936 0.324-1.213 0.587-0.49 0.465-0.497 1.085-0.021 1.649l0.137 0.162-0.092 0.144c-0.135 0.209-0.123 0.49 0.029 0.697 0.067 0.091 0.134 0.166 0.15 0.166s0.033-0.059 0.038-0.13c0.013-0.181 0.091-0.303 0.225-0.351 0.12-0.043 0.198-0.023 0.748 0.197 0.579 0.231 1.532 0.247 2.544 0.042 0.496-0.1 1.082-0.094 1.339 0.014 0.472 0.198 0.582 0.712 0.234 1.103-0.15 0.169-0.295 0.238-0.782 0.371-0.37 0.102-0.458 0.108-1.299 0.1-0.719-0.007-0.977 0.007-1.271 0.068-0.319 0.066-0.514 0.073-1.45 0.050l-1.082-0.027 0.12 0.099c0.066 0.055 0.159 0.122 0.207 0.15 0.082 0.047 0.079 0.053-0.042 0.098-0.071 0.027-0.23 0.048-0.352 0.048h-0.222l-0.030 0.189c-0.016 0.104-0.015 0.225 0.003 0.269 0.027 0.065 0.017 0.075-0.052 0.050-0.047-0.017-0.177-0.050-0.289-0.074s-0.263-0.072-0.336-0.108c-0.122-0.060-0.135-0.058-0.18 0.021-0.040 0.071-0.416 0.351-0.471 0.351-0.009 0-0.020-0.054-0.026-0.12s-0.059-0.238-0.121-0.382c-0.061-0.144-0.125-0.301-0.142-0.349-0.026-0.072-0.037-0.076-0.068-0.022-0.020 0.036-0.050 0.134-0.066 0.218s-0.073 0.22-0.126 0.303l-0.097 0.15-0.062-0.129c-0.066-0.138-0.176-0.281-0.216-0.281-0.013 0-0.036 0.044-0.051 0.098-0.030 0.113-0.291 0.425-0.355 0.425-0.023 0-0.043-0.088-0.043-0.196s-0.021-0.196-0.046-0.196-0.046 0.028-0.046 0.062c0 0.083-0.223 0.33-0.298 0.33-0.033 0-0.085 0.029-0.117 0.065-0.082 0.094-0.149 0.081-0.115-0.022 0.016-0.048 0.006-0.161-0.023-0.251s-0.060-0.185-0.069-0.212c-0.011-0.034-0.091-0.025-0.26 0.029-0.273 0.088-0.365 0.072-0.224-0.038 0.051-0.040 0.129-0.18 0.174-0.31s0.109-0.246 0.145-0.257c0.050-0.015 0.047 0.004-0.011 0.083-0.042 0.056-0.076 0.133-0.076 0.169s-0.032 0.123-0.070 0.193c-0.038 0.069-0.062 0.133-0.053 0.142s0.113-0.031 0.231-0.088l0.215-0.103 0.001 0.092c0 0.051 0.026 0.184 0.058 0.297l0.057 0.205 0.146-0.067c0.15-0.069 0.291-0.314 0.291-0.504 0-0.094 0.054-0.079 0.076 0.020 0.007 0.029 0.040 0.139 0.075 0.244l0.063 0.191 0.1-0.121c0.055-0.066 0.124-0.196 0.153-0.289 0.051-0.161 0.131-0.23 0.131-0.113 0 0.084 0.23 0.386 0.274 0.36 0.022-0.013 0.064-0.126 0.095-0.252 0.064-0.262 0.167-0.44 0.232-0.402 0.025 0.014 0.034 0.042 0.021 0.062s0.040 0.19 0.118 0.379c-0.361-0.983-0.302-0.844-0.244-0.704l0.417 1.126c0.028 0.070 0.054 0.060 0.22-0.087 0.104-0.091 0.197-0.194 0.209-0.227 0.017-0.051 0.040-0.049 0.137 0.011 0.135 0.084 0.59 0.219 0.626 0.186 0.013-0.012 0.027-0.132 0.030-0.266l0.006-0.243 0.131 0.027c0.072 0.015 0.223 0.014 0.336-0.002l0.205-0.029-0.183-0.126c-0.101-0.069-0.203-0.158-0.226-0.199-0.025-0.043-0.115-0.079-0.216-0.088-0.274-0.023-0.76-0.296-0.76-0.427 0-0.024 0.067 0.017 0.15 0.093 0.183 0.167 0.436 0.272 0.658 0.272h0.166l-0.103-0.136c-0.059-0.078-0.112-0.227-0.124-0.349-0.020-0.195-0.040-0.226-0.244-0.367-0.122-0.085-0.274-0.212-0.336-0.283l-0.114-0.129-0.058 0.153c-0.032 0.084-0.071 0.153-0.087 0.153s-0.077-0.049-0.137-0.109c-0.059-0.060-0.12-0.109-0.135-0.108s-0.067 0.081-0.117 0.179l-0.091 0.179-0.070-0.103c-0.039-0.057-0.129-0.157-0.202-0.223s-0.111-0.12-0.085-0.12 0.116 0.069 0.199 0.153l0.152 0.153 0.062-0.112c0.037-0.066 0.050-0.168 0.034-0.251-0.024-0.12-0.021-0.127 0.025-0.052 0.029 0.048 0.118 0.14 0.198 0.204l0.144 0.117 0.1-0.183c0.099-0.182 0.1-0.182 0.145-0.074 0.060 0.145 0.497 0.503 0.869 0.712 0.057 0.032 0.033-0.079-0.073-0.334-0.028-0.067-0.051-0.189-0.051-0.27 0-0.121-0.035-0.174-0.189-0.291-0.223-0.169-0.295-0.29-0.337-0.563-0.017-0.111-0.056-0.234-0.087-0.274-0.045-0.059-0.053-0.026-0.041 0.179 0.008 0.139-0.010 0.311-0.040 0.383l-0.055 0.131-0.042-0.109c-0.023-0.060-0.127-0.164-0.229-0.232s-0.175-0.134-0.16-0.148c0.015-0.014 0.12 0.048 0.235 0.137 0.175 0.136 0.213 0.15 0.237 0.091 0.028-0.070 0-0.376-0.055-0.589-0.027-0.107-0.025-0.106 0.106 0.025 0.097 0.097 0.151 0.213 0.192 0.414 0.053 0.256 0.079 0.299 0.316 0.507 0.142 0.125 0.266 0.22 0.275 0.212s0.027-0.332 0.040-0.718c0.025-0.741-0.003-0.917-0.182-1.146l-0.092-0.118 0.144-0.156c0.188-0.203 0.274-0.365 0.312-0.587l0.030-0.18-0.163 0.154c-0.133 0.126-0.197 0.154-0.351 0.154-0.153 0-0.212-0.026-0.315-0.135-0.124-0.132-0.342-0.258-0.553-0.32-0.078-0.023-0.104-0.013-0.104 0.040 0 0.038-0.043 0.15-0.095 0.247l-0.095 0.177-0.2-0.198c-0.123-0.121-0.268-0.216-0.377-0.244-0.277-0.073-0.292-0.066-0.292 0.141 0 0.313-0.133 0.371-0.374 0.163-0.183-0.158-0.335-0.193-0.682-0.155l-0.268 0.029 0.048 0.121c0.040 0.101 0.031 0.144-0.055 0.259-0.14 0.186-0.322 0.267-0.603 0.267-0.129 0-0.291 0.027-0.359 0.059s-0.238 0.070-0.378 0.084c-0.139 0.013-0.288 0.037-0.33 0.053-0.066 0.025-0.073 0.004-0.052-0.146 0.032-0.23-0.128-0.399-0.378-0.399-0.324 0-0.474 0.29-0.347 0.673 0.022 0.064 0.047 0.15 0.067 0.238l0.004 0.020c0.015 0.071 0.161 0.259 0.34 0.438 0.172 0.173 0.336 0.352 0.362 0.399s0.115 0.122 0.197 0.167l0.148 0.082-0.020-0.158c-0.021-0.174 0.016-0.201 0.109-0.078 0.033 0.044 0.117 0.115 0.187 0.158 0.11 0.067 0.127 0.069 0.127 0.010 0-0.037 0.022-0.123 0.050-0.19l0.050-0.123 0.086 0.167c0.047 0.092 0.202 0.301 0.343 0.464 0.274 0.317 0.441 0.671 0.355 0.752-0.035 0.033-0.129 0.030-0.325-0.009-0.152-0.030-0.339-0.047-0.417-0.036-0.159 0.022-0.171 0.002-0.074-0.12 0.103-0.129 0.087-0.15-0.116-0.15-0.234 0-0.814-0.112-1.037-0.2-0.217-0.086-0.267-0.064-0.33 0.141-0.029 0.092-0.081 0.26-0.117 0.372l-0.065 0.204 0.235-0.023c0.129-0.012 0.295-0.041 0.368-0.063s0.141-0.034 0.149-0.026c0.008 0.008-0.025 0.088-0.073 0.177l-0.088 0.163 0.146-0.030c0.080-0.016 0.201-0.056 0.269-0.089 0.117-0.057 0.127-0.053 0.219 0.096 0.114 0.183 0.205 0.175 0.225-0.019 0.021-0.2 0.087-0.171 0.211 0.095 0.119 0.255 0.243 0.345 0.267 0.194 0.008-0.050 0.072-0.132 0.143-0.182 0.143-0.101 0.25-0.070 0.312 0.087 0.064 0.163-0.078 0.332-0.493 0.583-0.829 0.503-1.311 1.19-1.449 2.067-0.124 0.79 0.264 1.607 1.041 2.194 0.372 0.281 0.964 0.577 0.926 0.464-0.16-0.48-0.154-1.396 0.009-1.551 0.025-0.023 0.016 0.072-0.019 0.212-0.13 0.522-0.073 0.937 0.259 1.912 0.3 0.881 0.259 1.258-0.166 1.507-0.137 0.080-0.224 0.093-0.592 0.089-0.398-0.005-0.442 0.003-0.57 0.105-0.124 0.099-0.285 0.423-0.285 0.575 0 0.082 0.091 0.071 0.27-0.032z"></path>
<path fill="#000" stroke="#000" stroke-linejoin="miter" stroke-linecap="butt" stroke-miterlimit="4" stroke-width="0.3707" d="M30.7 22.633l0.167-0.108 0.113 0.107c0.149 0.141 0.323 0.138 0.466-0.009 0.062-0.064 0.118-0.108 0.124-0.098s0.034 0.057 0.062 0.105c0.035 0.061 0.108 0.091 0.239 0.1 0.158 0.011 0.2-0.004 0.263-0.095l0.075-0.108 0.165 0.106c0.45 0.29 0.691-0.014 0.489-0.619-0.102-0.308-0.046-0.48 0.284-0.872 0.139-0.165 0.253-0.341 0.253-0.391 0-0.080-0.026-0.091-0.211-0.087-0.177 0.004-0.229-0.016-0.322-0.118-0.152-0.167-0.143-0.358 0.027-0.57l0.135-0.17-0.24-0.163c-0.132-0.090-0.371-0.302-0.53-0.472-0.357-0.381-0.709-0.562-1.172-0.603l-0.311-0.028 0 0.235c0.001 0.303 0.143 0.594 0.531 1.088 0.441 0.561 0.472 0.648 0.49 1.381l0.015 0.62-0.128 0.121c-0.115 0.109-0.167 0.123-0.54 0.145-0.354 0.020-0.429 0.039-0.533 0.131-0.138 0.122-0.179 0.189-0.222 0.358-0.025 0.098-0.015 0.12 0.056 0.12 0.048 0 0.162-0.048 0.254-0.107zM21.22 21.030c0.039-0.053 0.072-0.139 0.072-0.191 0-0.078 0.035-0.099 0.207-0.124l0.207-0.029-0.138-0.11c-0.164-0.131-0.179-0.233-0.035-0.233s0.388-0.15 0.426-0.261c0.017-0.051 0.006-0.12-0.025-0.156-0.081-0.092-0.233-0.078-0.261 0.024-0.030 0.11-0.081 0.11-0.196 0.001-0.173-0.164-0.177-0.504-0.008-0.702 0.080-0.093 0.079-0.099-0.023-0.196-0.109-0.104-0.187-0.309-0.136-0.357 0.016-0.015 0.103-0.003 0.192 0.027 0.127 0.043 0.177 0.044 0.229 0.003 0.158-0.124-0.013-0.284-0.267-0.249-0.102 0.014-0.144 0-0.159-0.053-0.011-0.040-0.1-0.093-0.201-0.118-0.18-0.046-0.181-0.045-0.181 0.079 0 0.136-0.077 0.161-0.225 0.074-0.12-0.071-0.236-0.016-0.236 0.112 0 0.119 0.12 0.177 0.334 0.164 0.164-0.011 0.17 0.112 0.014 0.287l-0.112 0.126 0.089 0.128c0.132 0.189 0.121 0.503-0.023 0.659l-0.113 0.122-0.074-0.098c-0.103-0.136-0.243-0.127-0.282 0.018-0.025 0.095-0.004 0.139 0.115 0.24 0.080 0.068 0.197 0.123 0.26 0.123 0.156 0 0.15 0.122-0.012 0.246l-0.127 0.097 0.196 0.030c0.108 0.017 0.196 0.048 0.196 0.070 0 0.083 0.136 0.342 0.179 0.342 0.025 0 0.078-0.044 0.117-0.097z"></path>
<path fill="#000" stroke="#000" stroke-linejoin="miter" stroke-linecap="butt" stroke-miterlimit="4" stroke-width="0.3707" d="M23.768 19.926c0.178-0.070 0.563-0.396 0.563-0.476 0-0.025-0.106-0.142-0.236-0.26-0.273-0.247-0.57-0.663-0.647-0.907-0.040-0.127-0.234-0.344-0.78-0.874l-0.727-0.705-0.21 0.053c-0.115 0.029-0.256 0.054-0.312 0.055-0.098 0.001-0.096 0.007 0.034 0.107l0.137 0.106 0.192-0.107c0.186-0.103 0.193-0.104 0.216-0.021 0.013 0.049-0.015 0.133-0.067 0.195-0.050 0.060-0.078 0.128-0.063 0.151s-0.033 0.072-0.106 0.108c-0.137 0.067-0.231 0.287-0.124 0.287 0.097 0 0.311-0.264 0.286-0.353-0.013-0.046-0.006-0.093 0.014-0.104 0.083-0.049 0.078 0.158-0.007 0.26-0.050 0.060-0.078 0.128-0.063 0.151s-0.033 0.072-0.106 0.108c-0.136 0.066-0.231 0.287-0.125 0.287 0.105 0 0.315-0.252 0.289-0.346-0.014-0.049-0.008-0.099 0.012-0.111 0.056-0.033 0.086 0.131 0.039 0.211-0.025 0.043-0.025 0.102 0.001 0.148 0.047 0.084-0.001 0.246-0.086 0.296-0.037 0.021-0.012 0.064 0.077 0.131 0.129 0.098 0.132 0.108 0.132 0.538 0 0.359 0.015 0.452 0.081 0.515 0.074 0.070 0.081 0.070 0.081 0.003 0-0.074 0.129-0.163 0.235-0.163 0.031 0 0.226 0.165 0.433 0.367 0.208 0.203 0.426 0.375 0.487 0.386s0.128 0.023 0.147 0.026c0.020 0.003 0.113-0.024 0.207-0.062zM21.545 18.187c0-0.116-0.239-0.24-0.525-0.272-0.231-0.026-0.235-0.024-0.235 0.091 0 0.095 0.036 0.133 0.196 0.202 0.256 0.112 0.564 0.1 0.564-0.022z"></path>
<path fill="#000" stroke="#000" stroke-linejoin="miter" stroke-linecap="butt" stroke-miterlimit="4" stroke-width="0.3707" d="M21.807 18.176c0.117-0.106 0.172-0.232 0.102-0.232-0.081 0-0.295 0.192-0.295 0.265 0 0.113 0.040 0.106 0.193-0.033zM21.559 17.833c0.010-0.065-0.030-0.109-0.152-0.164-0.262-0.118-0.574-0.173-0.65-0.114-0.139 0.109-0.046 0.255 0.178 0.282 0.090 0.011 0.213 0.038 0.272 0.061 0.172 0.067 0.336 0.036 0.352-0.065zM21.559 17.483c0.014-0.093-0.045-0.127-0.532-0.298-0.364-0.128-0.525-0.068-0.408 0.153 0.040 0.077 0.108 0.112 0.261 0.135 0.113 0.017 0.268 0.050 0.344 0.074 0.203 0.063 0.32 0.041 0.336-0.064zM21.803 17.155c0.073-0.075 0.134-0.162 0.134-0.195 0-0.107-0.29 0.082-0.327 0.213-0.044 0.157 0.028 0.151 0.194-0.018zM21.559 17.133c0.016-0.106-0.161-0.202-0.508-0.276-0.255-0.054-0.367-0.023-0.348 0.095 0.010 0.065 0.095 0.112 0.336 0.187 0.386 0.12 0.501 0.119 0.52-0.006zM21.899 16.638c0.445-0.198 0.484-0.698 0.064-0.829-0.174-0.055-0.286-0.025-0.352 0.093-0.051 0.090-0.017 0.255 0.053 0.255 0.024 0 0.043 0.030 0.043 0.068 0 0.174-0.68 0.252-0.959 0.111-0.098-0.050-0.141-0.179-0.059-0.179 0.061 0 0.103-0.131 0.072-0.224-0.043-0.127-0.17-0.17-0.355-0.122-0.417 0.109-0.406 0.6 0.019 0.808 0.348 0.171 1.112 0.181 1.474 0.020z"></path>
<path fill="#000" stroke="#000" stroke-linejoin="miter" stroke-linecap="butt" stroke-miterlimit="4" stroke-width="0.3707" d="M21.622 16.254c0.026-0.024 0.015-0.062-0.029-0.096-0.095-0.074-0.090-0.185 0.014-0.312 0.078-0.095 0.088-0.238 0.114-1.674 0.046-2.475 0.23-4.337 0.473-4.783 0.097-0.178 0.083-0.178-0.166-0.009-0.322 0.219-0.566 0.504-0.783 0.911-0.409 0.77-0.552 1.806-0.552 4.016 0 1.255 0.009 1.42 0.080 1.538 0.068 0.112 0.072 0.153 0.024 0.273-0.031 0.078-0.045 0.152-0.031 0.165 0.091 0.087 0.757 0.064 0.856-0.030zM25.363 13.894c0.014-0.021-0.017-0.129-0.068-0.24-0.080-0.172-0.113-0.201-0.228-0.201-0.359 0-0.937-0.161-1.532-0.426-0.344-0.153-0.462-0.188-0.504-0.149-0.105 0.1 0.070 0.336 0.34 0.46 0.24 0.11 0.911 0.246 1.218 0.246 0.178 0 0.182 0.008 0.081 0.154l-0.074 0.107 0.201 0.005c0.111 0.003 0.263 0.020 0.339 0.038 0.197 0.048 0.199 0.048 0.227 0.005z"></path>
<path fill="#000" stroke="#000" stroke-linejoin="miter" stroke-linecap="butt" stroke-miterlimit="4" stroke-width="0.3707" d="M27.461 15.009c0-0.064-0.188-0.237-0.378-0.349-0.149-0.088-0.174-0.090-0.175-0.019-0 0.109-0.097 0.382-0.135 0.382-0.021 0-0.053-0.053-0.070-0.118s-0.090-0.194-0.161-0.285l-0.13-0.167-0.101 0.155c-0.094 0.144-0.257 0.285-0.329 0.285-0.017 0-0.021-0.076-0.008-0.169 0.014-0.101 0.003-0.181-0.027-0.199-0.028-0.016-0.051-0.011-0.051 0.013 0 0.054-0.226 0.311-0.274 0.311-0.020 0-0.047-0.074-0.061-0.164s-0.038-0.232-0.053-0.316c-0.015-0.084 0.017-0.027 0.072 0.126l0.099 0.279 0.109-0.17c0.060-0.094 0.109-0.196 0.109-0.227s0.020-0.045 0.045-0.031c0.025 0.014 0.059 0.127 0.076 0.25l0.031 0.224 0.12-0.131c0.066-0.072 0.143-0.169 0.171-0.215 0.051-0.082 0.054-0.082 0.155 0.004 0.056 0.048 0.143 0.163 0.193 0.255s0.097 0.161 0.105 0.153c0.008-0.008 0.026-0.104 0.040-0.211s0.027-0.2 0.028-0.205c0.007-0.027 0.36 0.203 0.491 0.319 0.084 0.075 0.164 0.125 0.177 0.113s0.025-0.123 0.025-0.245c0-0.189-0.020-0.24-0.136-0.343-0.133-0.119-0.137-0.12-0.186-0.033-0.064 0.113-0.139 0.115-0.139 0.003 0-0.081-0.251-0.394-0.317-0.394-0.017 0-0.070 0.069-0.117 0.153s-0.099 0.153-0.114 0.152c-0.065-0-0.419-0.395-0.419-0.466 0-0.057 0.024-0.042 0.086 0.052 0.047 0.072 0.141 0.179 0.209 0.239 0.138 0.12 0.188 0.091 0.241-0.141 0.015-0.066 0.041-0.12 0.058-0.12 0.059 0 0.367 0.327 0.411 0.436l0.043 0.109 0.033-0.12c0.040-0.147 0.085-0.152 0.149-0.018 0.027 0.056 0.16 0.172 0.295 0.258l0.246 0.157 0.050-0.158c0.027-0.087 0.063-0.136 0.080-0.111 0.025 0.038-0.039 0.299-0.087 0.356-0.007 0.008-0.087-0.038-0.177-0.103l-0.164-0.118-0.001 0.212c-0 0.117-0.013 0.256-0.028 0.31-0.030 0.106-0.109 0.135-0.109 0.041zM26.234 13.317c-0.293-0.244-0.337-0.3-0.331-0.416l0.007-0.123 0.019 0.119c0.011 0.070 0.089 0.174 0.187 0.25l0.168 0.131 0.103-0.12c0.057-0.066 0.104-0.144 0.105-0.174 0.002-0.078 0.016-0.072 0.215 0.1 0.176 0.153 0.179 0.154 0.205 0.055 0.015-0.055 0.009-0.159-0.012-0.231-0.058-0.197-0.046-0.227 0.041-0.108 0.043 0.059 0.113 0.143 0.155 0.186 0.073 0.075 0.077 0.074 0.105-0.022 0.016-0.055 0.029-0.156 0.029-0.224l0.001-0.124 0.159 0.18c0.148 0.168 0.162 0.174 0.207 0.094 0.027-0.047 0.049-0.161 0.049-0.252 0-0.118 0.013-0.148 0.043-0.103 0.050 0.075 0.015 0.28-0.077 0.454l-0.066 0.125-0.087-0.136c-0.112-0.174-0.149-0.171-0.221 0.017-0.068 0.177-0.112 0.191-0.178 0.054-0.043-0.088-0.051-0.077-0.081 0.108l-0.034 0.206-0.404-0.313-0.091 0.103c-0.050 0.057-0.091 0.128-0.092 0.158-0.002 0.065-0.050 0.067-0.124 0.005zM28.837 12.406c-0.107-0.096-0.18-0.188-0.163-0.203s0.036-0.021 0.042-0.010c0.006 0.010 0.093 0.102 0.194 0.203 0.23 0.234 0.183 0.24-0.073 0.010zM25.369 12.048c-0.097-0.131-0.090-0.218 0.028-0.36 0.085-0.103 0.124-0.117 0.273-0.098 0.095 0.012 0.301 0.097 0.457 0.187 0.18 0.105 0.366 0.175 0.51 0.193 0.125 0.015 0.227 0.021 0.227 0.013s-0.052-0.093-0.115-0.188c-0.15-0.225-0.145-0.25 0.024-0.115 0.174 0.139 0.382 0.179 0.847 0.165l0.227-0.007-0.132-0.13c-0.184-0.182-0.128-0.199 0.076-0.022 0.191 0.166 0.179 0.177-0.223 0.218-0.171 0.017-0.355 0.005-0.507-0.034-0.228-0.058-0.237-0.057-0.194 0.019 0.025 0.044 0.065 0.080 0.090 0.080s0.044 0.022 0.044 0.050c0 0.084-0.493 0.010-0.729-0.109-0.539-0.273-0.606-0.296-0.735-0.256-0.071 0.022-0.143 0.088-0.167 0.154-0.082 0.22 0.23 0.391 0.359 0.197 0.037-0.056 0.029-0.095-0.037-0.163-0.090-0.094-0.081-0.107 0.040-0.063 0.086 0.031 0.098 0.238 0.018 0.314-0.092 0.087-0.301 0.062-0.379-0.045z"></path>
<path fill="#000" stroke="#000" stroke-linejoin="miter" stroke-linecap="butt" stroke-miterlimit="4" stroke-width="0.3707" d="M27.491 11.505c-0.067-0.064-0.015-0.079 0.287-0.085 0.374-0.007 0.601-0.069 0.868-0.238 0.215-0.135 0.273-0.109 0.069 0.032-0.186 0.128-0.475 0.227-0.755 0.257-0.135 0.015-0.29 0.035-0.343 0.045s-0.11 0.006-0.127-0.010z"></path>
<path fill="#ffb700" d="M24.233 22.651l0.155-0.089 0.066 0.090c0.088 0.119 0.333 0.118 0.495-0.003l0.124-0.092 0.104 0.092c0.137 0.121 0.392 0.122 0.554 0 0.114-0.085 0.13-0.087 0.205-0.022 0.045 0.038 0.177 0.082 0.293 0.097 0.209 0.027 0.212 0.026 0.335-0.158 0.103-0.154 0.119-0.216 0.094-0.365-0.016-0.097-0.030-0.219-0.038-0.342l-0.001-0.012c-0.009-0.173-0.008-0.174 0.244-0.262 0.139-0.049 0.301-0.114 0.358-0.145 0.101-0.054 0.378-0.38 0.378-0.445 0-0.017-0.108-0.043-0.241-0.058-0.527-0.059-0.617-0.342-0.274-0.868 0.559-0.858 0.897-1.693 0.899-2.226 0.001-0.238 0.015-0.318 0.045-0.266 0.125 0.211-0.099 1.098-0.438 1.734l-0.136 0.256 0.13-0.030c0.072-0.016 0.493-0.194 0.936-0.395 1.213-0.549 1.63-0.657 2.415-0.624 0.658 0.028 0.938 0.156 1.402 0.643 0.246 0.258 0.483 0.443 0.916 0.714 0.924 0.578 0.962 0.628 1.006 1.308 0.044 0.689 0.022 0.726-0.499 0.841-0.445 0.098-0.724 0.306-0.799 0.594-0.040 0.154 0.044 0.158 0.269 0.014l0.165-0.106 0.073 0.106c0.096 0.139 0.301 0.14 0.47 0.001l0.128-0.105 0.131 0.104c0.204 0.162 0.475 0.123 0.551-0.080 0.015-0.039 0.054-0.027 0.133 0.042 0.149 0.129 0.53 0.185 0.571 0.083 0.016-0.039-0.014-0.135-0.066-0.213-0.222-0.333-0.291-0.491-0.294-0.673-0.004-0.252 0.071-0.373 0.358-0.578 0.348-0.249 0.456-0.57 0.191-0.57-0.163 0-0.328-0.145-0.433-0.38-0.214-0.479-0.172-1.015 0.149-1.908 0.326-0.907 0.362-1.074 0.363-1.68 0.001-0.49-0.011-0.575-0.123-0.844-0.068-0.164-0.207-0.409-0.307-0.544l-0.184-0.245 0.236-0.195c0.719-0.596 0.572-1.571-0.294-1.947-0.265-0.115-0.331-0.125-0.795-0.122-0.278 0.002-0.703 0.039-0.944 0.081-0.245 0.044-0.66 0.079-0.945 0.080-0.452 0.002-0.529-0.009-0.704-0.102-0.182-0.097-0.213-0.143-0.249-0.366-0.007-0.046-0.039-0.092-0.071-0.102-0.062-0.019-0.347 0.228-0.39 0.338-0.021 0.054-0.038 0.050-0.099-0.022-0.041-0.048-0.097-0.158-0.126-0.245-0.072-0.218 0.016-0.382 0.273-0.504l0.199-0.095-0.117-0.073c-0.242-0.15-0.654-0.047-0.803 0.2-0.042 0.070-0.088 0.128-0.102 0.128s-0.094-0.067-0.178-0.149c-0.312-0.305-0.205-0.757 0.213-0.895 0.223-0.074 0.42-0.017 0.461 0.131 0.063 0.227 0.257-0.071 0.223-0.341-0.023-0.179-0.020-0.185 0.104-0.185 0.172 0 0.539 0.226 0.653 0.402 0.132 0.205 0.122 0.527-0.023 0.767l-0.114 0.189 0.149-0.030c0.218-0.044 0.431-0.179 0.538-0.344 0.113-0.174 0.126-0.512 0.025-0.695-0.098-0.177-0.086-0.205 0.058-0.145 0.245 0.102 0.376 0.214 0.475 0.406 0.089 0.173 0.094 0.216 0.046 0.397-0.030 0.111-0.095 0.258-0.146 0.325-0.079 0.105-0.082 0.123-0.019 0.123 0.117 0 0.363-0.111 0.45-0.204 0.044-0.047 0.108-0.162 0.143-0.256l0.063-0.171 0.072 0.131c0.102 0.185 0.299 0.351 0.541 0.454 0.259 0.111 0.367 0.117 0.232 0.013-0.091-0.070-0.26-0.565-0.209-0.613 0.030-0.028 0.382 0.243 0.784 0.603 0.38 0.341 0.619 0.453 0.968 0.453 0.446 0 0.706-0.388 0.505-0.756-0.117-0.214-0.377-0.244-0.53-0.061-0.070 0.084-0.089 0.151-0.069 0.24 0.025 0.108 0.015 0.123-0.083 0.123-0.13 0-0.385-0.166-0.839-0.545-0.692-0.578-1.533-1.067-2.141-1.246-0.39-0.115-1.222-0.16-1.619-0.087-0.429 0.078-0.936 0.324-1.213 0.587-0.49 0.465-0.497 1.085-0.021 1.649l0.137 0.162-0.092 0.144c-0.135 0.209-0.123 0.49 0.029 0.697 0.067 0.091 0.134 0.166 0.15 0.166s0.033-0.059 0.038-0.13c0.013-0.181 0.091-0.303 0.225-0.351 0.12-0.043 0.198-0.023 0.748 0.197 0.579 0.231 1.532 0.247 2.544 0.042 0.496-0.1 1.082-0.094 1.339 0.014 0.472 0.198 0.582 0.712 0.234 1.103-0.15 0.169-0.295 0.238-0.782 0.371-0.37 0.102-0.458 0.108-1.299 0.1-0.719-0.007-0.977 0.007-1.271 0.068-0.319 0.066-0.514 0.073-1.45 0.050l-1.082-0.027 0.12 0.099c0.066 0.055 0.159 0.122 0.207 0.15 0.082 0.047 0.079 0.053-0.042 0.098-0.071 0.027-0.23 0.048-0.352 0.048h-0.222l-0.030 0.189c-0.016 0.104-0.015 0.225 0.003 0.269 0.027 0.065 0.017 0.075-0.052 0.050-0.047-0.017-0.177-0.050-0.289-0.074s-0.263-0.072-0.336-0.108c-0.122-0.060-0.135-0.058-0.18 0.021-0.040 0.071-0.416 0.351-0.471 0.351-0.009 0-0.020-0.054-0.026-0.12s-0.059-0.238-0.121-0.382c-0.061-0.144-0.125-0.301-0.142-0.349-0.026-0.072-0.037-0.076-0.068-0.022-0.020 0.036-0.050 0.134-0.066 0.218s-0.073 0.22-0.126 0.303l-0.097 0.15-0.062-0.129c-0.066-0.138-0.176-0.281-0.216-0.281-0.013 0-0.036 0.044-0.051 0.098-0.030 0.113-0.291 0.425-0.355 0.425-0.023 0-0.043-0.088-0.043-0.196s-0.021-0.196-0.046-0.196-0.046 0.028-0.046 0.062c0 0.083-0.223 0.33-0.298 0.33-0.033 0-0.085 0.029-0.117 0.065-0.082 0.094-0.149 0.081-0.115-0.022 0.016-0.048 0.006-0.161-0.023-0.251s-0.060-0.185-0.069-0.212c-0.011-0.034-0.091-0.025-0.26 0.029-0.273 0.088-0.365 0.072-0.224-0.038 0.051-0.040 0.129-0.18 0.174-0.31s0.109-0.246 0.145-0.257c0.050-0.015 0.047 0.004-0.011 0.083-0.042 0.056-0.076 0.133-0.076 0.169s-0.032 0.123-0.070 0.193c-0.038 0.069-0.062 0.133-0.053 0.142s0.113-0.031 0.231-0.088l0.215-0.103 0.001 0.092c0 0.051 0.026 0.184 0.058 0.297l0.057 0.205 0.146-0.067c0.15-0.069 0.291-0.314 0.291-0.504 0-0.094 0.054-0.079 0.076 0.020 0.007 0.029 0.040 0.139 0.075 0.244l0.063 0.191 0.1-0.121c0.055-0.066 0.124-0.196 0.153-0.289 0.051-0.161 0.131-0.23 0.131-0.113 0 0.084 0.23 0.386 0.274 0.36 0.022-0.013 0.064-0.126 0.095-0.252 0.064-0.262 0.167-0.44 0.232-0.402 0.025 0.014 0.034 0.042 0.021 0.062s0.040 0.19 0.118 0.379c-0.361-0.983-0.302-0.844-0.244-0.704l0.417 1.126c0.028 0.070 0.054 0.060 0.22-0.087 0.104-0.091 0.197-0.194 0.209-0.227 0.017-0.051 0.040-0.049 0.137 0.011 0.135 0.084 0.59 0.219 0.626 0.186 0.013-0.012 0.027-0.132 0.030-0.266l0.006-0.243 0.131 0.027c0.072 0.015 0.223 0.014 0.336-0.002l0.205-0.029-0.183-0.126c-0.101-0.069-0.203-0.158-0.226-0.199-0.025-0.043-0.115-0.079-0.216-0.088-0.274-0.023-0.76-0.296-0.76-0.427 0-0.024 0.067 0.017 0.15 0.093 0.183 0.167 0.436 0.272 0.658 0.272h0.166l-0.103-0.136c-0.059-0.078-0.112-0.227-0.124-0.349-0.020-0.195-0.040-0.226-0.244-0.367-0.122-0.085-0.274-0.212-0.336-0.283l-0.114-0.129-0.058 0.153c-0.032 0.084-0.071 0.153-0.087 0.153s-0.077-0.049-0.137-0.109c-0.059-0.060-0.12-0.109-0.135-0.108s-0.067 0.081-0.117 0.179l-0.091 0.179-0.070-0.103c-0.039-0.057-0.129-0.157-0.202-0.223s-0.111-0.12-0.085-0.12 0.116 0.069 0.199 0.153l0.152 0.153 0.062-0.112c0.037-0.066 0.050-0.168 0.034-0.251-0.024-0.12-0.021-0.127 0.025-0.052 0.029 0.048 0.118 0.14 0.198 0.204l0.144 0.117 0.1-0.183c0.099-0.182 0.1-0.182 0.145-0.074 0.060 0.145 0.497 0.503 0.869 0.712 0.057 0.032 0.033-0.079-0.073-0.334-0.028-0.067-0.051-0.189-0.051-0.27 0-0.121-0.035-0.174-0.189-0.291-0.223-0.169-0.295-0.29-0.337-0.563-0.017-0.111-0.056-0.234-0.087-0.274-0.045-0.059-0.053-0.026-0.041 0.179 0.008 0.139-0.010 0.311-0.040 0.383l-0.055 0.131-0.042-0.109c-0.023-0.060-0.127-0.164-0.229-0.232s-0.175-0.134-0.16-0.148c0.015-0.014 0.12 0.048 0.235 0.137 0.175 0.136 0.213 0.15 0.237 0.091 0.028-0.070 0-0.376-0.055-0.589-0.027-0.107-0.025-0.106 0.106 0.025 0.097 0.097 0.151 0.213 0.192 0.414 0.053 0.256 0.079 0.299 0.316 0.507 0.142 0.125 0.266 0.22 0.275 0.212s0.027-0.332 0.040-0.718c0.025-0.741-0.003-0.917-0.182-1.146l-0.092-0.118 0.144-0.156c0.188-0.203 0.274-0.365 0.312-0.587l0.030-0.18-0.163 0.154c-0.133 0.126-0.197 0.154-0.351 0.154-0.153 0-0.212-0.026-0.315-0.135-0.124-0.132-0.342-0.258-0.553-0.32-0.078-0.023-0.104-0.013-0.104 0.040 0 0.038-0.043 0.15-0.095 0.247l-0.095 0.177-0.2-0.198c-0.123-0.121-0.268-0.216-0.377-0.244-0.277-0.073-0.292-0.066-0.292 0.141 0 0.313-0.133 0.371-0.374 0.163-0.183-0.158-0.335-0.193-0.682-0.155l-0.268 0.029 0.048 0.121c0.040 0.101 0.031 0.144-0.055 0.259-0.14 0.186-0.322 0.267-0.603 0.267-0.129 0-0.291 0.027-0.359 0.059s-0.238 0.070-0.378 0.084c-0.139 0.013-0.288 0.037-0.33 0.053-0.066 0.025-0.073 0.004-0.052-0.146 0.032-0.23-0.128-0.399-0.378-0.399-0.324 0-0.474 0.29-0.347 0.673 0.022 0.064 0.047 0.15 0.067 0.238l0.004 0.020c0.015 0.071 0.161 0.259 0.34 0.438 0.172 0.173 0.336 0.352 0.362 0.399s0.115 0.122 0.197 0.167l0.148 0.082-0.020-0.158c-0.021-0.174 0.016-0.201 0.109-0.078 0.033 0.044 0.117 0.115 0.187 0.158 0.11 0.067 0.127 0.069 0.127 0.010 0-0.037 0.022-0.123 0.050-0.19l0.050-0.123 0.086 0.167c0.047 0.092 0.202 0.301 0.343 0.464 0.274 0.317 0.441 0.671 0.355 0.752-0.035 0.033-0.129 0.030-0.325-0.009-0.152-0.030-0.339-0.047-0.417-0.036-0.159 0.022-0.171 0.002-0.074-0.12 0.103-0.129 0.087-0.15-0.116-0.15-0.234 0-0.814-0.112-1.037-0.2-0.217-0.086-0.267-0.064-0.33 0.141-0.029 0.092-0.081 0.26-0.117 0.372l-0.065 0.204 0.235-0.023c0.129-0.012 0.295-0.041 0.368-0.063s0.141-0.034 0.149-0.026c0.008 0.008-0.025 0.088-0.073 0.177l-0.088 0.163 0.146-0.030c0.080-0.016 0.201-0.056 0.269-0.089 0.117-0.057 0.127-0.053 0.219 0.096 0.114 0.183 0.205 0.175 0.225-0.019 0.021-0.2 0.087-0.171 0.211 0.095 0.119 0.255 0.243 0.345 0.267 0.194 0.008-0.050 0.072-0.132 0.143-0.182 0.143-0.101 0.25-0.070 0.312 0.087 0.064 0.163-0.078 0.332-0.493 0.583-0.829 0.503-1.311 1.19-1.449 2.067-0.124 0.79 0.264 1.607 1.041 2.194 0.372 0.281 0.964 0.577 0.926 0.464-0.16-0.48-0.154-1.396 0.009-1.551 0.025-0.023 0.016 0.072-0.019 0.212-0.13 0.522-0.073 0.937 0.259 1.912 0.3 0.881 0.259 1.258-0.166 1.507-0.137 0.080-0.224 0.093-0.592 0.089-0.398-0.005-0.442 0.003-0.57 0.105-0.124 0.099-0.285 0.423-0.285 0.575 0 0.082 0.091 0.071 0.27-0.032z"></path>
<path fill="#ffb700" d="M30.7 22.633l0.167-0.108 0.113 0.107c0.149 0.141 0.323 0.138 0.466-0.009 0.062-0.064 0.118-0.108 0.124-0.098s0.034 0.057 0.062 0.105c0.035 0.061 0.108 0.091 0.239 0.1 0.158 0.011 0.2-0.004 0.263-0.095l0.075-0.108 0.165 0.106c0.45 0.29 0.691-0.014 0.489-0.619-0.102-0.308-0.046-0.48 0.284-0.872 0.139-0.165 0.253-0.341 0.253-0.391 0-0.080-0.026-0.091-0.211-0.087-0.177 0.004-0.229-0.016-0.322-0.118-0.152-0.167-0.143-0.358 0.027-0.57l0.135-0.17-0.24-0.163c-0.132-0.090-0.371-0.302-0.53-0.472-0.357-0.381-0.709-0.562-1.172-0.603l-0.311-0.028 0 0.235c0.001 0.303 0.143 0.594 0.531 1.088 0.441 0.561 0.472 0.648 0.49 1.381l0.015 0.62-0.128 0.121c-0.115 0.109-0.167 0.123-0.54 0.145-0.354 0.020-0.429 0.039-0.533 0.131-0.138 0.122-0.179 0.189-0.222 0.358-0.025 0.098-0.015 0.12 0.056 0.12 0.048 0 0.162-0.048 0.254-0.107zM21.22 21.030c0.039-0.053 0.072-0.139 0.072-0.191 0-0.078 0.035-0.099 0.207-0.124l0.207-0.029-0.138-0.11c-0.164-0.131-0.179-0.233-0.035-0.233s0.388-0.15 0.426-0.261c0.017-0.051 0.006-0.12-0.025-0.156-0.081-0.092-0.233-0.078-0.261 0.024-0.030 0.11-0.081 0.11-0.196 0.001-0.173-0.164-0.177-0.504-0.008-0.702 0.080-0.093 0.079-0.099-0.023-0.196-0.109-0.104-0.187-0.309-0.136-0.357 0.016-0.015 0.103-0.003 0.192 0.027 0.127 0.043 0.177 0.044 0.229 0.003 0.158-0.124-0.013-0.284-0.267-0.249-0.102 0.014-0.144 0-0.159-0.053-0.011-0.040-0.1-0.093-0.201-0.118-0.18-0.046-0.181-0.045-0.181 0.079 0 0.136-0.077 0.161-0.225 0.074-0.12-0.071-0.236-0.016-0.236 0.112 0 0.119 0.12 0.177 0.334 0.164 0.164-0.011 0.17 0.112 0.014 0.287l-0.112 0.126 0.089 0.128c0.132 0.189 0.121 0.503-0.023 0.659l-0.113 0.122-0.074-0.098c-0.103-0.136-0.243-0.127-0.282 0.018-0.025 0.095-0.004 0.139 0.115 0.24 0.080 0.068 0.197 0.123 0.26 0.123 0.156 0 0.15 0.122-0.012 0.246l-0.127 0.097 0.196 0.030c0.108 0.017 0.196 0.048 0.196 0.070 0 0.083 0.136 0.342 0.179 0.342 0.025 0 0.078-0.044 0.117-0.097z"></path>
<path fill="#ffb700" d="M23.768 19.926c0.178-0.070 0.563-0.396 0.563-0.476 0-0.025-0.106-0.142-0.236-0.26-0.273-0.247-0.57-0.663-0.647-0.907-0.040-0.127-0.234-0.344-0.78-0.874l-0.727-0.705-0.21 0.053c-0.115 0.029-0.256 0.054-0.312 0.055-0.098 0.001-0.096 0.007 0.034 0.107l0.137 0.106 0.192-0.107c0.186-0.103 0.193-0.104 0.216-0.021 0.013 0.049-0.015 0.133-0.067 0.195-0.050 0.060-0.078 0.128-0.063 0.151s-0.033 0.072-0.106 0.108c-0.137 0.067-0.231 0.287-0.124 0.287 0.097 0 0.311-0.264 0.286-0.353-0.013-0.046-0.006-0.093 0.014-0.104 0.083-0.049 0.078 0.158-0.007 0.26-0.050 0.060-0.078 0.128-0.063 0.151s-0.033 0.072-0.106 0.108c-0.136 0.066-0.231 0.287-0.125 0.287 0.105 0 0.315-0.252 0.289-0.346-0.014-0.049-0.008-0.099 0.012-0.111 0.056-0.033 0.086 0.131 0.039 0.211-0.025 0.043-0.025 0.102 0.001 0.148 0.047 0.084-0.001 0.246-0.086 0.296-0.037 0.021-0.012 0.064 0.077 0.131 0.129 0.098 0.132 0.108 0.132 0.538 0 0.359 0.015 0.452 0.081 0.515 0.074 0.070 0.081 0.070 0.081 0.003 0-0.074 0.129-0.163 0.235-0.163 0.031 0 0.226 0.165 0.433 0.367 0.208 0.203 0.426 0.375 0.487 0.386s0.128 0.023 0.147 0.026c0.020 0.003 0.113-0.024 0.207-0.062zM21.545 18.187c0-0.116-0.239-0.24-0.525-0.272-0.231-0.026-0.235-0.024-0.235 0.091 0 0.095 0.036 0.133 0.196 0.202 0.256 0.112 0.564 0.1 0.564-0.022z"></path>
<path fill="#ffb700" d="M21.807 18.176c0.117-0.106 0.172-0.232 0.102-0.232-0.081 0-0.295 0.192-0.295 0.265 0 0.113 0.040 0.106 0.193-0.033zM21.559 17.833c0.010-0.065-0.030-0.109-0.152-0.164-0.262-0.118-0.574-0.173-0.65-0.114-0.139 0.109-0.046 0.255 0.178 0.282 0.090 0.011 0.213 0.038 0.272 0.061 0.172 0.067 0.336 0.036 0.352-0.065zM21.559 17.483c0.014-0.093-0.045-0.127-0.532-0.298-0.364-0.128-0.525-0.068-0.408 0.153 0.040 0.077 0.108 0.112 0.261 0.135 0.113 0.017 0.268 0.050 0.344 0.074 0.203 0.063 0.32 0.041 0.336-0.064zM21.803 17.155c0.073-0.075 0.134-0.162 0.134-0.195 0-0.107-0.29 0.082-0.327 0.213-0.044 0.157 0.028 0.151 0.194-0.018zM21.559 17.133c0.016-0.106-0.161-0.202-0.508-0.276-0.255-0.054-0.367-0.023-0.348 0.095 0.010 0.065 0.095 0.112 0.336 0.187 0.386 0.12 0.501 0.119 0.52-0.006zM21.899 16.638c0.445-0.198 0.484-0.698 0.064-0.829-0.174-0.055-0.286-0.025-0.352 0.093-0.051 0.090-0.017 0.255 0.053 0.255 0.024 0 0.043 0.030 0.043 0.068 0 0.174-0.68 0.252-0.959 0.111-0.098-0.050-0.141-0.179-0.059-0.179 0.061 0 0.103-0.131 0.072-0.224-0.043-0.127-0.17-0.17-0.355-0.122-0.417 0.109-0.406 0.6 0.019 0.808 0.348 0.171 1.112 0.181 1.474 0.020z"></path>
<path fill="#ffb700" d="M21.622 16.254c0.026-0.024 0.015-0.062-0.029-0.096-0.095-0.074-0.090-0.185 0.014-0.312 0.078-0.095 0.088-0.238 0.114-1.674 0.046-2.475 0.23-4.337 0.473-4.783 0.097-0.178 0.083-0.178-0.166-0.009-0.322 0.219-0.566 0.504-0.783 0.911-0.409 0.77-0.552 1.806-0.552 4.016 0 1.255 0.009 1.42 0.080 1.538 0.068 0.112 0.072 0.153 0.024 0.273-0.031 0.078-0.045 0.152-0.031 0.165 0.091 0.087 0.757 0.064 0.856-0.030zM25.363 13.894c0.014-0.021-0.017-0.129-0.068-0.24-0.080-0.172-0.113-0.201-0.228-0.201-0.359 0-0.937-0.161-1.532-0.426-0.344-0.153-0.462-0.188-0.504-0.149-0.105 0.1 0.070 0.336 0.34 0.46 0.24 0.11 0.911 0.246 1.218 0.246 0.178 0 0.182 0.008 0.081 0.154l-0.074 0.107 0.201 0.005c0.111 0.003 0.263 0.020 0.339 0.038 0.197 0.048 0.199 0.048 0.227 0.005z"></path>
<path fill="#000" d="M27.461 15.009c0-0.064-0.188-0.237-0.378-0.349-0.149-0.088-0.174-0.090-0.175-0.019-0 0.109-0.097 0.382-0.135 0.382-0.021 0-0.053-0.053-0.070-0.118s-0.090-0.194-0.161-0.285l-0.13-0.167-0.101 0.155c-0.094 0.144-0.257 0.285-0.329 0.285-0.017 0-0.021-0.076-0.008-0.169 0.014-0.101 0.003-0.181-0.027-0.199-0.028-0.016-0.051-0.011-0.051 0.013 0 0.054-0.226 0.311-0.274 0.311-0.020 0-0.047-0.074-0.061-0.164s-0.038-0.232-0.053-0.316c-0.015-0.084 0.017-0.027 0.072 0.126l0.099 0.279 0.109-0.17c0.060-0.094 0.109-0.196 0.109-0.227s0.020-0.045 0.045-0.031c0.025 0.014 0.059 0.127 0.076 0.25l0.031 0.224 0.12-0.131c0.066-0.072 0.143-0.169 0.171-0.215 0.051-0.082 0.054-0.082 0.155 0.004 0.056 0.048 0.143 0.163 0.193 0.255s0.097 0.161 0.105 0.153c0.008-0.008 0.026-0.104 0.040-0.211s0.027-0.2 0.028-0.205c0.007-0.027 0.36 0.203 0.491 0.319 0.084 0.075 0.164 0.125 0.177 0.113s0.025-0.123 0.025-0.245c0-0.189-0.020-0.24-0.136-0.343-0.133-0.119-0.137-0.12-0.186-0.033-0.064 0.113-0.139 0.115-0.139 0.003 0-0.081-0.251-0.394-0.317-0.394-0.017 0-0.070 0.069-0.117 0.153s-0.099 0.153-0.114 0.152c-0.065-0-0.419-0.395-0.419-0.466 0-0.057 0.024-0.042 0.086 0.052 0.047 0.072 0.141 0.179 0.209 0.239 0.138 0.12 0.188 0.091 0.241-0.141 0.015-0.066 0.041-0.12 0.058-0.12 0.059 0 0.367 0.327 0.411 0.436l0.043 0.109 0.033-0.12c0.040-0.147 0.085-0.152 0.149-0.018 0.027 0.056 0.16 0.172 0.295 0.258l0.246 0.157 0.050-0.158c0.027-0.087 0.063-0.136 0.080-0.111 0.025 0.038-0.039 0.299-0.087 0.356-0.007 0.008-0.087-0.038-0.177-0.103l-0.164-0.118-0.001 0.212c-0 0.117-0.013 0.256-0.028 0.31-0.030 0.106-0.109 0.135-0.109 0.041zM26.234 13.317c-0.293-0.244-0.337-0.3-0.331-0.416l0.007-0.123 0.019 0.119c0.011 0.070 0.089 0.174 0.187 0.25l0.168 0.131 0.103-0.12c0.057-0.066 0.104-0.144 0.105-0.174 0.002-0.078 0.016-0.072 0.215 0.1 0.176 0.153 0.179 0.154 0.205 0.055 0.015-0.055 0.009-0.159-0.012-0.231-0.058-0.197-0.046-0.227 0.041-0.108 0.043 0.059 0.113 0.143 0.155 0.186 0.073 0.075 0.077 0.074 0.105-0.022 0.016-0.055 0.029-0.156 0.029-0.224l0.001-0.124 0.159 0.18c0.148 0.168 0.162 0.174 0.207 0.094 0.027-0.047 0.049-0.161 0.049-0.252 0-0.118 0.013-0.148 0.043-0.103 0.050 0.075 0.015 0.28-0.077 0.454l-0.066 0.125-0.087-0.136c-0.112-0.174-0.149-0.171-0.221 0.017-0.068 0.177-0.112 0.191-0.178 0.054-0.043-0.088-0.051-0.077-0.081 0.108l-0.034 0.206-0.404-0.313-0.091 0.103c-0.050 0.057-0.091 0.128-0.092 0.158-0.002 0.065-0.050 0.067-0.124 0.005zM28.837 12.406c-0.107-0.096-0.18-0.188-0.163-0.203s0.036-0.021 0.042-0.010c0.006 0.010 0.093 0.102 0.194 0.203 0.23 0.234 0.183 0.24-0.073 0.010zM25.369 12.048c-0.097-0.131-0.090-0.218 0.028-0.36 0.085-0.103 0.124-0.117 0.273-0.098 0.095 0.012 0.301 0.097 0.457 0.187 0.18 0.105 0.366 0.175 0.51 0.193 0.125 0.015 0.227 0.021 0.227 0.013s-0.052-0.093-0.115-0.188c-0.15-0.225-0.145-0.25 0.024-0.115 0.174 0.139 0.382 0.179 0.847 0.165l0.227-0.007-0.132-0.13c-0.184-0.182-0.128-0.199 0.076-0.022 0.191 0.166 0.179 0.177-0.223 0.218-0.171 0.017-0.355 0.005-0.507-0.034-0.228-0.058-0.237-0.057-0.194 0.019 0.025 0.044 0.065 0.080 0.090 0.080s0.044 0.022 0.044 0.050c0 0.084-0.493 0.010-0.729-0.109-0.539-0.273-0.606-0.296-0.735-0.256-0.071 0.022-0.143 0.088-0.167 0.154-0.082 0.22 0.23 0.391 0.359 0.197 0.037-0.056 0.029-0.095-0.037-0.163-0.090-0.094-0.081-0.107 0.040-0.063 0.086 0.031 0.098 0.238 0.018 0.314-0.092 0.087-0.301 0.062-0.379-0.045z"></path>
<path fill="#000" d="M27.491 11.505c-0.067-0.064-0.015-0.079 0.287-0.085 0.374-0.007 0.601-0.069 0.868-0.238 0.215-0.135 0.273-0.109 0.069 0.032-0.186 0.128-0.475 0.227-0.755 0.257-0.135 0.015-0.29 0.035-0.343 0.045s-0.11 0.006-0.127-0.010z"></path>
</svg>
