<!-- Generated by IcoMoon.io -->
<svg version="1.1" xmlns="http://www.w3.org/2000/svg" width="43" height="32" viewBox="0 0 43 32">
<title>LRD</title>
<path fill="#fff" d="M0 0.005h47.992v31.995h-47.992z"></path>
<path fill="#006" d="M0 0h14.546v14.547h-14.546z"></path>
<path fill="#c00" d="M0 29.054h47.993v2.945h-47.993z"></path>
<path fill="#c00" d="M0 29.089h47.993v2.911h-47.993zM0 23.282h47.993v2.888h-47.993zM0 17.454h47.873v2.919h-47.873zM14.542 0.003h33.448v2.906h-33.448zM14.542 11.629h33.448v2.925h-33.448zM14.542 5.835h33.448v2.906h-33.448z"></path>
<path fill="#fff" d="M10.397 11.092l-3.169-1.936-3.154 1.956 1.173-3.178-3.148-1.962 3.895-0.027 1.208-3.168 1.234 3.161 3.895 0.004-3.132 1.981 1.199 3.171z"></path>
</svg>
