<!-- Generated by IcoMoon.io -->
<svg version="1.1" xmlns="http://www.w3.org/2000/svg" width="43" height="32" viewBox="0 0 43 32">
<title>LSL</title>
<path fill="#fff" d="M0 0h42.667v32h-42.667z"></path>
<path fill="#009543" d="M0 22.4h42.667v9.6h-42.667z"></path>
<path fill="#00209f" d="M0 0h42.667v9.6h-42.667z"></path>
<path fill="#000" d="M21.308 10.194c-0.182 0.004-0.36 0.206-0.36 0.206l0.016 2.158-0.681 0.714h0.551l-0.005 1.238-3.263 4.394-0.482-0.167-0.843 1.798s2.085 1.306 5.112 1.27c3.322-0.039 5.127-1.33 5.127-1.33l-0.871-1.775-0.427 0.186-3.305-4.371-0.005-1.274h0.551l-0.751-0.705 0.005-2.15s-0.187-0.194-0.369-0.19z"></path>
<path fill="none" stroke="#000" stroke-linejoin="miter" stroke-linecap="butt" stroke-miterlimit="4" stroke-width="0.5333" d="M22.446 15.361h-2.256s-0.819-1.726-0.686-2.932c0.135-1.228 0.837-1.809 1.77-1.82 1.103-0.012 1.682 0.541 1.857 1.771 0.173 1.219-0.685 2.981-0.685 2.981z"></path>
<path fill="#fff" d="M17.364 19.474c-0.037 0.049-0.307 0.59-0.307 0.59l0.467-0.098-0.16-0.492zM17.635 20.175l-0.492 0.16 0.59 0.234-0.098-0.393zM17.856 19.486l0.246 0.725 0.602-0.172-0.16-0.344-0.689-0.209zM18.237 20.47l0.086 0.295 0.799 0.197-0.32-0.676-0.566 0.184zM19.122 19.855l0.283 0.676 0.602-0.234-0.197-0.295-0.688-0.148zM19.516 20.777l0.098 0.258 0.934 0.135-0.393-0.615-0.639 0.221zM20.413 20.052l0.344 0.602 0.873-0.32-0.098-0.234-1.119-0.049zM20.917 20.876l0.184 0.32 1.082-0.037-0.406-0.602-0.861 0.32zM22.061 20.077l0.295 0.504 0.689-0.332-0.185-0.27-0.799 0.098zM23.192 20.458l-0.689 0.344 0.184 0.295 0.922-0.147-0.418-0.492zM23.413 19.929l0.356 0.443 0.578-0.455-0.197-0.209-0.738 0.221zM24.47 20.163l-0.553 0.418 0.148 0.258 0.762-0.197-0.357-0.48zM25.233 19.29l0.135 0.197-0.381 0.566-0.393-0.504 0.639-0.258zM25.491 19.781l0.234 0.467-0.467 0.16-0.037-0.221 0.27-0.406z"></path>
</svg>
