<!-- Generated by IcoMoon.io -->
<svg version="1.1" xmlns="http://www.w3.org/2000/svg" width="43" height="32" viewBox="0 0 43 32">
<title>MDL</title>
<path fill="#00319c" d="M0 0h14.222v32h-14.222z"></path>
<path fill="#ffde00" d="M14.222 0h14.223v32h-14.223z"></path>
<path fill="#de2110" d="M28.444 0h14.223v32h-14.223z"></path>
<path fill="#ff1900" d="M24.025 21.358l1.618 2.334c0.090 0.13 0.18 0.259 0.044 0.345s-0.092 0.431-0.002 0.561c0.18 0.259 0.405 0.303 0.541 0.217l1.221-0.773c0.136-0.086 0.182-0.301 0.002-0.561-0.103-0.131-0.405-0.303-0.541-0.217s-0.226-0.044-0.315-0.173l-1.618-2.334"></path>
<path fill="#a77b3b" d="M24.656 19.709c0.723 0.822 0.975 1.757 0.562 2.088s-1.334-0.065-2.057-0.887-0.975-1.757-0.562-2.088c0.413-0.332 1.334 0.065 2.057 0.887z"></path>
<path fill="#ff1900" d="M17.463 20.409l-1.428 2.445c-0.079 0.136-0.159 0.272-0.301 0.196s-0.443 0.12-0.522 0.256c-0.159 0.272-0.096 0.483 0.046 0.559l1.279 0.682c0.142 0.076 0.364 0.016 0.522-0.256 0.074-0.148 0.096-0.483-0.046-0.559s-0.063-0.212 0.017-0.347l1.428-2.444"></path>
<path fill="#a77b3b" d="M22.078 18.705h-1.302c-0.043 0.041-0.413 2.373-0.814 3.266-0.488 1.089-1.951 2.049-1.951 2.049s0.876 0.265 1.137 0.439c0.065-0.018 1.462-0.311 1.625-2.022 0.163 1.711-0.974 2.489-0.974 2.489s1.628 0.467 1.628 1.555c0-1.089 1.628-1.555 1.628-1.555s-0.816-0.778-0.979-2.489c0.325 1.711 1.565 2.004 1.63 2.022 0.261-0.174 1.137-0.439 1.137-0.439s-1.462-0.961-1.951-2.049c-0.4-0.893-0.771-3.225-0.814-3.266zM16.542 10.927l2.442 0.778c0.814 0 1.628-0.777 1.628-1.555 0.027-1.73-0.651-2.334-0.814-2.334l0.326-0.311-0.488-0.467s0.163-0.807 1.79-0.777c1.627 0.030 1.628 0.778 1.628 1.555s-0.814 0.778-0.814 2.333c0 0.778 0.814 1.555 1.628 1.555l2.442-0.778v7.777h-9.766v-7.778z"></path>
<path fill="#a77b3b" d="M14.914 6.262c-1.628 0.778-1.628 2.333-1.628 3.111 0.057 0.707 0 15.553 0 15.553s0.106-0.879 0.814-1.555l1.628-1.555c0.595-0.517 0.814-1.555 0.814-2.333v-10.887s0-0.778-1.628-2.333z"></path>
<path fill="#a77b3b" d="M27.935 6.262c1.628 0.778 1.628 2.333 1.628 3.111-0.057 0.707 0 15.553 0 15.553s-0.106-0.879-0.814-1.555l-1.628-1.555c-0.595-0.517-0.814-1.555-0.814-2.333v-10.887s0-0.778 1.628-2.333z"></path>
<path fill="#a77b3b" d="M19.288 20.188c-0.432 0.991-1.186 1.634-1.684 1.436s-0.551-1.162-0.119-2.154 1.186-1.634 1.684-1.436c0.498 0.198 0.551 1.162 0.119 2.154z"></path>
<path fill="#f00" d="M16.541 11.706h9.766v4.666h-9.766z"></path>
<path fill="#564dff" d="M16.541 16.372h9.766v2.333c0 1.555-2.442 1.555-4.883 3.111-2.442-1.555-4.883-1.555-4.883-3.111v-2.333z"></path>
<path fill="#ff0" d="M19.634 12.017s-1.628 1.143-1.628 2.238c0 1.095 1.709 1.461 1.709 1.461s-0.57 0-0.57 1.461c0 0.73 1.709 0.365 1.709 0.73s-0.024 1.249 0 1.826c0 0.365-1.139 0-1.139 0.365 0 0.183 0.855 1.096 1.709 1.096s1.709-0.913 1.709-1.096c0-0.365-1.139 0-1.139-0.365v-1.826c0-0.365 1.709 0 1.709-0.73 0-1.461-0.57-1.461-0.57-1.461s1.709-0.365 1.709-1.461-1.628-2.238-1.628-2.238c0-0 0.916 1.508 0.916 2.238 0 0.365-0.427 1.095-1.567 1.095 0 0-0.288-0.365-0.57 0 0 0-0.328-0.365-0.57 0-0.084 0.126-0.232-0.365-0.57 0-0.144 0.097-0.257-0.365-0.57 0-0.57 0-1.709-0.365-1.709-1.095s1.058-2.238 1.058-2.238z"></path>
<path fill="#ff0" d="M19.663 18.552c-0.114 0.073 0.147 1.263 0.228 1.315 0.114 0.073 0.798 0.073 0.912 0 0.081-0.052 0-1.169-0.114-1.242s-0.945-0.125-1.025-0.073z"></path>
<path fill="#ff0" d="M23.186 18.552c0.114 0.073-0.147 1.263-0.228 1.315-0.114 0.073-0.798 0.073-0.912 0-0.081-0.052 0-1.169 0.114-1.242s0.945-0.125 1.025-0.073z"></path>
<path fill="#ff0" d="M20.835 18.121c0 0.226-0.264 0.41-0.589 0.41s-0.589-0.183-0.589-0.41c0-0.226 0.264-0.41 0.589-0.41s0.589 0.183 0.589 0.41z"></path>
<path fill="#ff0" d="M23.193 18.121c0 0.226-0.264 0.41-0.589 0.41s-0.589-0.183-0.589-0.41c0-0.226 0.264-0.41 0.589-0.41s0.589 0.183 0.589 0.41z"></path>
<path fill="#000" d="M22.45 20.5c0 0.101-0.128 0.183-0.285 0.183s-0.285-0.082-0.285-0.183 0.128-0.183 0.285-0.183c0.157 0 0.285 0.082 0.285 0.183zM20.969 20.5c0 0.101-0.128 0.183-0.285 0.183s-0.285-0.082-0.285-0.183 0.128-0.183 0.285-0.183c0.157 0 0.285 0.082 0.285 0.183z"></path>
<path fill="#ff0" d="M21.425 14.661l-0.349-0.439-0.572 0.075 0.079-0.546-0.46-0.333 0.46-0.334-0.079-0.546 0.572 0.075 0.349-0.44 0.349 0.44 0.572-0.075-0.079 0.546 0.46 0.334-0.46 0.333 0.079 0.546-0.572-0.075z"></path>
<path fill="#ff0" d="M23.866 16.372l0.977 0.467 0.977-0.467-0.977-0.467-0.977 0.467z"></path>
<path fill="#ff0" d="M16.867 16.372l0.977 0.467 0.977-0.467-0.977-0.467-0.977 0.467z"></path>
<path fill="#ff0" d="M25.381 19.157c-0.303-0.192-0.808-0.095-1.090 0.060s-0.565 0.31-0.604 0.869c-0.324-0.54-0.068-1.039 0.361-1.274s1.087-0.065 1.333 0.345z"></path>
<path fill="#ff0" d="M18.657 18.238c0 0.001 0 0.002 0 0.004 0 0.172-0.146 0.311-0.326 0.311s-0.326-0.139-0.326-0.311c0-0.001 0-0.003 0-0.004v0c0.002-0.17 0.147-0.307 0.326-0.307s0.323 0.137 0.326 0.307v0z"></path>
<path fill="#ff0" d="M18.332 19.327c0 0.001 0 0.002 0 0.004 0 0.172-0.146 0.311-0.326 0.311s-0.326-0.139-0.326-0.311c0-0.001 0-0.003 0-0.004v0c0.002-0.17 0.147-0.307 0.326-0.307s0.323 0.137 0.326 0.307v0z"></path>
<path fill="#ff0" d="M18.169 18.705c0 0.001 0 0.002 0 0.004 0 0.172-0.146 0.311-0.326 0.311s-0.326-0.139-0.326-0.311c0-0.001 0-0.003 0-0.004v0c0.002-0.17 0.147-0.307 0.326-0.307s0.323 0.137 0.326 0.307v0z"></path>
<path fill="#ff0" d="M18.983 19.327c0 0.001 0 0.002 0 0.004 0 0.172-0.146 0.311-0.326 0.311s-0.326-0.139-0.326-0.311c0-0.001 0-0.003 0-0.004v0c0.002-0.17 0.147-0.307 0.326-0.307s0.323 0.137 0.326 0.307v0z"></path>
<path fill="#ff0" d="M19.146 18.705c0 0.001 0 0.002 0 0.004 0 0.172-0.146 0.311-0.326 0.311s-0.326-0.139-0.326-0.311c0-0.001 0-0.003 0-0.004v0c0.002-0.17 0.147-0.307 0.326-0.307s0.323 0.137 0.326 0.307v0z"></path>
<path fill="#ff0" d="M18.657 18.861c0 0.001 0 0.002 0 0.004 0 0.172-0.146 0.311-0.326 0.311s-0.326-0.139-0.326-0.311c0-0.001 0-0.003 0-0.004v0c0.002-0.17 0.147-0.307 0.326-0.307s0.323 0.137 0.326 0.307v0z"></path>
<path fill="#da4500" d="M19.852 8.025c-0.822 0-0.93 0.13-1.302 0.259 0-0.358 0.915-0.778 1.736-0.778 0 0.259-0.217 0.519-0.434 0.518z"></path>
<path fill="#cac9c7" d="M21.099 7.195c0 0.172-0.146 0.311-0.326 0.311s-0.326-0.139-0.326-0.311 0.146-0.311 0.326-0.311 0.326 0.139 0.326 0.311z"></path>
<path fill="#ff0" d="M17.681 6.107v0.467h0.814v2.333h0.488v-2.333h0.814v-0.467h-0.814v-0.622h-0.488v0.622h-0.814z"></path>
<path fill="#da4500" d="M20.284 7.507c-0.958 0-1.519 0.086-1.953 0.259 0-0.477 0.561-1.037 1.519-1.037 0.217 0 0.434 0.518 0.434 0.778z"></path>
<path fill="#008500" d="M11.821 15.765c-0.234-0.504-0.23-0.666 0.186-0.089l5.022 9.519-0.152 0.044-5.056-9.473z"></path>
<path fill="#008f00" d="M15.227 22.027c0.051-0.706-1.241-1.469-1.292-1.419s0.079 0.46 0.324 0.675c-0.469-0.242-0.961-0.391-0.971-0.286-0.038 0.141 0.729 0.479 0.793 0.61 0.010 0.093-0.564 0.081-0.553 0.174s1.617 0.905 1.699 0.246zM13.936 19.971c0.051-0.706-1.241-1.469-1.292-1.419s0.079 0.46 0.324 0.674c-0.469-0.242-0.961-0.391-0.971-0.286-0.038 0.141 0.729 0.479 0.793 0.61 0.010 0.093-0.564 0.081-0.553 0.174s1.617 0.905 1.699 0.246zM12.948 18.105c0.051-0.706-1.241-1.469-1.292-1.419s0.079 0.46 0.324 0.675c-0.469-0.242-0.961-0.391-0.971-0.286-0.038 0.142 0.729 0.479 0.793 0.61 0.010 0.093-0.564 0.081-0.553 0.174s1.617 0.905 1.699 0.246zM11.971 16.083c0.051-0.706-1.241-1.469-1.292-1.419s0.079 0.46 0.324 0.675c-0.469-0.242-0.961-0.391-0.971-0.286-0.038 0.142 0.729 0.479 0.793 0.61 0.010 0.093-0.564 0.081-0.553 0.174s1.617 0.905 1.699 0.246z"></path>
<path fill="#008f00" d="M12.307 15.991c0.625-0.379 0.503-1.826 0.431-1.836s-0.342 0.333-0.377 0.649c-0.074-0.504-0.24-0.971-0.335-0.917-0.142 0.054 0.028 0.845-0.044 0.972-0.072 0.063-0.402-0.386-0.475-0.322s0.196 1.781 0.8 1.454zM13.212 17.766c0.722-0.158 1.112-1.561 1.047-1.593s-0.438 0.205-0.582 0.491c0.106-0.499 0.113-0.992 0.005-0.971-0.153 0.006-0.269 0.806-0.381 0.902-0.090 0.037-0.245-0.492-0.335-0.455s-0.438 1.741 0.246 1.626zM14.294 19.583c0.658-0.324 0.672-1.775 0.601-1.791s-0.371 0.303-0.436 0.614c-0.027-0.509-0.148-0.987-0.248-0.941-0.146 0.042-0.051 0.844-0.135 0.964-0.078 0.057-0.365-0.419-0.443-0.362s0.028 1.79 0.66 1.516zM15.465 21.954c0.689-0.259 0.856-1.701 0.788-1.724s-0.402 0.265-0.499 0.569c0.027-0.509-0.043-0.997-0.147-0.961-0.15 0.028-0.14 0.835-0.236 0.946-0.084 0.049-0.318-0.452-0.402-0.403s-0.162 1.784 0.496 1.573z"></path>
<path fill="#ff1900" d="M16.981 24.427c-0.175 0.3-0.731 0.323-1.241 0.050s-0.782-0.736-0.606-1.036c0.175-0.3 0.731-0.323 1.241-0.050s0.782 0.736 0.606 1.036z"></path>
<path fill="#ff0" d="M30.235 14.41l0.086-0.223 0.236 0.074 0.086-0.223 0.236 0.074-0.086 0.223 0.236 0.074-0.086 0.223-0.236-0.074-0.216 0.557-0.236-0.074 0.216-0.557-0.236-0.074z"></path>
<path fill="#ff0" d="M29.737 16.377l0.236 0.074-2.502 6.457-0.236-0.074z"></path>
<path fill="#ff0" d="M27.161 22.686l0.471 0.148-0.69 1.781-0.471-0.148zM29.933 15.19l0.707 0.223c0.471 0.148-0.592 1.188-0.592 1.188l-0.471-0.148s-0.115-1.41 0.357-1.262z"></path>
<path fill="#ff0" d="M30.587 15.208c-0.036 0.092-0.17 0.134-0.3 0.093s-0.207-0.149-0.171-0.241 0.17-0.134 0.3-0.093 0.207 0.149 0.171 0.241z"></path>
<path fill="#ff1900" d="M27.539 23.612c0.199 0.286-0.035 0.769-0.523 1.077s-1.043 0.326-1.242 0.040c-0.199-0.286 0.035-0.769 0.523-1.077s1.043-0.326 1.242-0.040z"></path>
</svg>
