<!-- Generated by IcoMoon.io -->
<svg version="1.1" xmlns="http://www.w3.org/2000/svg" width="64" height="32" viewBox="0 0 64 32">
<title>MNT</title>
<path fill="#d61517" d="M0 0h63.864v32h-63.864v-32z"></path>
<path fill="#018edf" d="M21.288 0h21.288v32h-21.288v-32z"></path>
<path fill="#ffd700" opacity="0.86667" d="M10.831 8.572c0.795 0.023 0.918-0.253 0.918-0.529v-0.943c0-0.115 0.306-0.23 0.306-0.437s-0.153-0.437-0.214-0.575c-0.092 0.345-0.245 0.689-0.52 0.805-0.123-0.276-0.153-0.368-0.092-0.506s0-0.345-0.122-0.552c-0.092 0.437-0.367 0.552-0.398 0.689s-0.123 0.529-0.306 0.322c-0.183-0.207-0.306-0.46-0.398-0.736-0.183 0.552-0.091 0.667-0.030 0.759s0.122 0.368 0.122 0.483c0 0.115-0.122 0.575-0.061 0.713s0.092 0.552 0.795 0.506z"></path>
<path fill="#ffd700" opacity="0.86667" d="M13.045 10.562c0 0.833-0.898 1.508-2.006 1.508s-2.006-0.675-2.006-1.508v0c0-0.833 0.898-1.508 2.006-1.508s2.006 0.675 2.006 1.508v0z"></path>
<path fill="#ffd700" opacity="0.86667" d="M13.837 11.157c-1.059 1.48-3.099 1.891-4.611 0.899-0.399-0.261-0.69-0.554-0.968-0.929 0.25 1.064 1.008 1.817 2.058 2.086 1.544 0.395 3.121-0.526 3.521-2.056z"></path>
<path fill="#ffd700" opacity="0.86667" d="M7.969 22.816h5.969v1.242h-5.969v-1.242z"></path>
<path fill="#ffd700" opacity="0.86667" d="M8.261 14.041l2.662 1.615 2.693-1.615h-5.354z"></path>
<path fill="#ffd700" opacity="0.86667" d="M8.261 15.789h5.385v1.242h-5.385v-1.242z"></path>
<path fill="#ffd700" opacity="0.86667" d="M8.261 24.854l2.662 1.265 2.693-1.265h-5.354z"></path>
<path fill="#ffd700" opacity="0.86667" d="M4.232 14.059h2.598v12.006h-2.598v-12.006z"></path>
<path fill="#ffd700" opacity="0.86667" d="M14.921 14.059h2.598v12.006h-2.598v-12.006z"></path>
<path fill="#ffd700" opacity="0.86667" d="M9.115 18.276c0.794-0.588 1.981-1.028 2.408-0.552 0.429 0.493 0.531 0.934 0.437 1.329-0.127 0.344-0.697 0.755-1.119 0.537-0.484-0.228-1.257 0.564-1.346 1.001-0.116 0.467-0.127 1.022 0.006 1.536-1.269-1.479-1.355-3.191-0.386-3.851zM11.272 19.007c-0.219 0.129-0.537-0.002-0.711-0.292s-0.040-0.397 0.179-0.526c0.219-0.128 0.441-0.229 0.615 0.060s0.136 0.629-0.082 0.758zM12.498 21.635c-0.785 0.603-2.077 0.835-2.508 0.364-0.434-0.488-0.074-1.104 0.014-1.503 0.122-0.347 0.687-0.651 1.109-0.439 0.486 0.222 1.265-0.648 1.173-1.205 0.11-0.47-0.041-0.55-0.27-1.24 1.283 1.465 1.438 3.345 0.481 4.022zM10.749 20.707c0.216-0.133 0.477-0.065 0.653 0.223s0.164 0.515-0.052 0.647c-0.216 0.133-0.556 0.121-0.732-0.167s-0.085-0.571 0.131-0.704z"></path>
</svg>
