<!-- Generated by IcoMoon.io -->
<svg version="1.1" xmlns="http://www.w3.org/2000/svg" width="48" height="32" viewBox="0 0 48 32">
<title>MOP</title>
<path fill="#199d00" d="M0 0h45v30h-45v-30z"></path>
<path fill="#feffff" d="M22.425 16.799c-0.706 0.491-1.444 0.925-2.149 1.416-0.884 0.062-1.741 0.071-2.652 0.027 0 0-1.901-0.321-2.384-1.151-0.027-0.080 0.616-0.375 0.616-0.375 0.973 0.688 2.054 1.295 4.071 1.205-2.491-0.223-4.178-1.598-4.688-2.866 1.349-0.946 3.58-0.928 5.411 0.375-0.572-0.714-2.482-1.509-3.91-1.286-0.206-0.214-0.384-0.482-0.59-0.696 1.643-0.367 3.929 0.687 4.768 1.553-0.884-1.419-1.527-3.026-0.482-4.982 0.205 0.196 0.437 0.393 0.643 0.589-0.786 1.438-0.5 3.116 0.134 4.285-1.098-2.268-0.214-4.509 1.232-5.598 1.687 1.018 2.17 3.723 1.179 5.652 0.562-0.322 1.018-2.732 0.241-4.339 0.178-0.214 0.357-0.429 0.535-0.643 1.17 1.58 0.464 4.125-0.509 5.089 0.741-0.643 2.66-1.902 4.902-1.607-0.178 0.214-0.464 0.402-0.643 0.616-1.839-0.071-3.33 0.714-3.991 1.393 1.616-1.071 3.848-1.607 5.491-0.402-0.759 2.027-2.911 2.634-4.688 2.812 1.509 0.116 2.911-0.33 4.045-1.125 0.214 0.116 0.429 0.232 0.643 0.348-0.482 0.455-1.179 0.911-2.169 1.044-0.956 0.125-1.857 0.090-2.813 0.107-0.741-0.482-1.503-0.961-2.244-1.443z"></path>
<path fill="#fff" d="M22.425 17.273l-1.837 1.383-4.925-0.019c0.060 0.198 0.249 0.452 0.36 0.569l4.887 0.019 1.516-1.174 1.458 1.156h4.943c0.142-0.152 0.293-0.36 0.426-0.54l-5.009 0.010-1.818-1.402z"></path>
<path fill="#fff" d="M19.602 22.022c1.415 0.698 4.42 0.641 5.777-0.017l-5.777 0.017z"></path>
<path fill="#fff" d="M16.351 19.678c0.057 0 12.144-0.009 12.144-0.009-0.212 0.24-0.461 0.499-0.72 0.72l-10.803-0.047c-0.203-0.141-0.472-0.469-0.622-0.663z"></path>
<path fill="#fff" d="M17.185 20.55l10.429 0.028c-0.195 0.152-0.353 0.331-0.578 0.445l-9.271-0.008c-0.213-0.115-0.434-0.31-0.581-0.466z"></path>
<path fill="#fff" d="M18.135 21.325l8.523-0.021c-0.227 0.146-0.483 0.301-0.767 0.438h-6.989c-0.236-0.082-0.511-0.259-0.767-0.417z"></path>
<path fill="#feb700" d="M26.945 9.27l-0.307-0.451-0.53 0.131 0.334-0.432-0.288-0.463 0.514 0.184 0.352-0.418-0.016 0.546 0.506 0.205-0.524 0.153z"></path>
<path fill="#feb700" d="M23.091 8.627l-0.609-0.416-0.602 0.426 0.208-0.708-0.591-0.441 0.737-0.021 0.236-0.699 0.248 0.695 0.737 0.009-0.584 0.45z"></path>
<path fill="#feb700" d="M29.5 12.26l-0.503-0.213-0.374 0.398 0.047-0.544-0.493-0.233 0.531-0.124 0.069-0.542 0.282 0.467 0.536-0.102-0.357 0.412z"></path>
<path fill="#feb700" d="M17.92 9.261l0.307-0.451 0.53 0.131-0.334-0.432 0.288-0.463-0.514 0.184-0.352-0.418 0.016 0.546-0.506 0.205 0.524 0.153z"></path>
<path fill="#feb700" d="M15.246 12.24l0.503-0.213 0.374 0.398-0.047-0.544 0.493-0.233-0.531-0.124-0.069-0.542-0.282 0.467-0.536-0.102 0.357 0.412z"></path>
</svg>
