<!-- Generated by IcoMoon.io -->
<svg version="1.1" xmlns="http://www.w3.org/2000/svg" width="43" height="32" viewBox="0 0 43 32">
<title>MRU</title>
<path fill="#006233" d="M0 0h42.667v32h-42.667z"></path>
<path fill="#ffc400" d="M31.667 12c0 5.707-4.626 10.333-10.333 10.333s-10.333-4.626-10.333-10.333c0-5.707 4.626-10.333 10.333-10.333s10.333 4.626 10.333 10.333z"></path>
<path fill="#006233" d="M16.228 0.748c-2.947 1.772-4.89 4.952-4.895 8.585v0.001c0 5.523 4.477 10 10 10v0c5.523 0 10-4.477 10-10v0c-0.005-3.634-1.948-6.813-4.85-8.56l-0.045-0.025h-10.209z"></path>
<path fill="#ffc400" d="M21.333 5.333l-1.236 3.804 1.902 0.618z"></path>
<path fill="#ffc400" d="M21.333 5.333l1.236 3.804-1.902 0.618z"></path>
<path fill="#ffc400" d="M32.636 30.071l0.647-0.47-0.235-0.324z"></path>
<path fill="#ffc400" d="M32.636 30.071l0.247-0.761 0.38 0.124z"></path>
<path fill="#ffc400" d="M5.104 26.491l0.647 0.47 0.235-0.324z"></path>
<path fill="#ffc400" d="M5.104 26.491l0.8 0v0.4z"></path>
</svg>
