<!-- Generated by IcoMoon.io -->
<svg version="1.1" xmlns="http://www.w3.org/2000/svg" width="43" height="32" viewBox="0 0 43 32">
<title>MWK</title>
<path fill="#f41408" d="M0 0h42.667v32h-42.667z"></path>
<path fill="#21873b" d="M0 21.333h42.667v10.667h-42.667z"></path>
<path fill="#000" d="M0 0h42.667v10.667h-42.667z"></path>
<path fill="#f31509" d="M14.699 9.404c1.487-3.284 5.633-4.855 9.255-3.506 1.824 0.679 3.116 1.85 3.866 3.504l-13.121 0.002zM12.967 9.828c-1.563-0.105-3.225-0.43-3.496-0.52s-0.282-0.239-0.248-0.354c0.033-0.114 0.206-0.244 0.408-0.196 0.379 0.091 1.919 0.46 3.336 1.070zM21.276 4.101c-0.281-1.399-0.351-2.939-0.324-3.199s0.184-0.307 0.315-0.307c0.131 0.001 0.313 0.12 0.312 0.309-0.002 0.355-0.009 1.8-0.303 3.197zM22.045 4.133c-0.147-1.415-0.072-2.955-0.021-3.212s0.213-0.292 0.343-0.281c0.13 0.011 0.3 0.144 0.282 0.332-0.035 0.354-0.179 1.793-0.604 3.161zM22.743 4.219c-0.018-1.421 0.196-2.95 0.271-3.203s0.238-0.275 0.367-0.255 0.286 0.166 0.25 0.352c-0.067 0.35-0.341 1.773-0.889 3.105zM23.477 4.368c0.12-1.417 0.481-2.923 0.581-3.169s0.264-0.255 0.39-0.224c0.126 0.031 0.269 0.188 0.215 0.371-0.101 0.343-0.512 1.739-1.186 3.023zM24.2 4.577c0.258-1.402 0.766-2.873 0.889-3.11s0.288-0.233 0.411-0.192c0.123 0.041 0.25 0.209 0.178 0.387-0.134 0.334-0.68 1.691-1.477 2.915zM24.874 4.832c0.389-1.377 1.034-2.803 1.179-3.030s0.309-0.209 0.427-0.159c0.118 0.050 0.229 0.227 0.141 0.399-0.165 0.322-0.837 1.632-1.747 2.79zM25.537 5.147c0.521-1.341 1.3-2.71 1.467-2.924s0.328-0.184 0.441-0.125 0.206 0.245 0.102 0.409c-0.196 0.308-0.991 1.56-2.010 2.64zM26.165 5.512c0.647-1.295 1.556-2.597 1.742-2.797s0.344-0.157 0.451-0.090c0.107 0.068 0.182 0.26 0.062 0.415-0.224 0.291-1.137 1.475-2.256 2.472zM26.755 5.925c0.77-1.238 1.8-2.464 2.005-2.649s0.358-0.13 0.458-0.053c0.1 0.076 0.156 0.273 0.022 0.419-0.252 0.272-1.275 1.38-2.485 2.284zM27.305 6.384c0.886-1.173 2.031-2.312 2.252-2.479s0.369-0.101 0.462-0.017 0.129 0.285-0.018 0.419c-0.277 0.251-1.403 1.273-2.696 2.078zM27.811 6.887c0.996-1.098 2.247-2.142 2.484-2.291s0.378-0.071 0.462 0.020c0.084 0.091 0.101 0.294-0.059 0.416-0.3 0.228-1.521 1.157-2.887 1.855zM28.245 7.403c1.094-1.018 2.437-1.963 2.686-2.094s0.383-0.042 0.458 0.055 0.074 0.301-0.097 0.41c-0.32 0.205-1.623 1.037-3.048 1.63zM28.639 7.962c1.186-0.93 2.613-1.767 2.874-1.878s0.385-0.012 0.451 0.090c0.066 0.102 0.045 0.305-0.135 0.401-0.338 0.179-1.714 0.908-3.19 1.387zM29.003 8.599c1.276-0.826 2.782-1.54 3.054-1.629s0.385 0.020 0.44 0.128c0.055 0.107 0.014 0.308-0.176 0.388-0.355 0.15-1.8 0.76-3.318 1.113zM29.282 9.215c1.349-0.724 2.918-1.318 3.196-1.385s0.382 0.050 0.426 0.161c0.045 0.111-0.015 0.308-0.212 0.373-0.368 0.122-1.865 0.617-3.411 0.851zM29.506 9.867c1.414-0.613 3.034-1.080 3.319-1.124s0.375 0.081 0.409 0.195c0.034 0.114-0.045 0.305-0.247 0.354-0.379 0.092-1.918 0.466-3.481 0.575zM20.523 4.127c-0.422-1.369-0.65-2.897-0.649-3.158s0.152-0.321 0.282-0.332c0.13-0.010 0.324 0.093 0.342 0.282 0.035 0.354 0.175 1.793 0.024 3.208zM19.783 4.214c-0.552-1.331-0.926-2.834-0.95-3.095s0.121-0.332 0.249-0.353c0.129-0.021 0.331 0.067 0.368 0.254 0.068 0.35 0.347 1.772 0.333 3.194zM19.048 4.361c-0.679-1.281-1.198-2.749-1.248-3.007s0.088-0.34 0.214-0.371c0.126-0.031 0.337 0.040 0.391 0.223 0.102 0.343 0.518 1.738 0.642 3.155zM18.355 4.557c-0.797-1.224-1.451-2.647-1.524-2.9s0.056-0.346 0.178-0.386c0.123-0.041 0.339 0.014 0.411 0.192 0.134 0.334 0.679 1.692 0.935 3.094zM17.677 4.809c-0.91-1.158-1.696-2.524-1.793-2.771s0.023-0.349 0.141-0.399c0.118-0.050 0.339-0.012 0.427 0.16 0.165 0.322 0.836 1.633 1.224 3.010zM16.993 5.129c-1.021-1.079-1.939-2.376-2.061-2.613s-0.012-0.35 0.101-0.409c0.113-0.059 0.337-0.040 0.441 0.124 0.196 0.308 0.995 1.558 1.518 2.898zM16.369 5.487c-1.12-0.995-2.158-2.215-2.302-2.442s-0.045-0.347 0.062-0.415c0.107-0.068 0.332-0.066 0.452 0.089 0.225 0.291 1.139 1.474 1.788 2.768zM15.785 5.885c-1.209-0.905-2.359-2.040-2.523-2.255s-0.078-0.343 0.022-0.419c0.1-0.076 0.324-0.092 0.458 0.054 0.251 0.273 1.274 1.381 2.042 2.62zM15.218 6.349c-1.293-0.804-2.55-1.841-2.735-2.042s-0.111-0.335-0.019-0.419c0.092-0.084 0.314-0.117 0.462 0.016 0.277 0.251 1.405 1.272 2.292 2.444zM14.728 6.824c-1.363-0.702-2.711-1.641-2.914-1.827s-0.142-0.325-0.057-0.416c0.084-0.091 0.302-0.141 0.462-0.019 0.299 0.229 1.517 1.161 2.51 2.261zM14.259 7.367c-1.427-0.589-2.861-1.416-3.082-1.585s-0.173-0.313-0.098-0.41c0.075-0.097 0.287-0.165 0.458-0.056 0.321 0.204 1.625 1.034 2.721 2.050zM13.838 7.955c-1.479-0.47-2.991-1.176-3.227-1.326s-0.203-0.297-0.138-0.4 0.269-0.187 0.451-0.093c0.34 0.177 1.721 0.897 2.914 1.819zM13.489 8.553c-1.519-0.352-3.092-0.935-3.342-1.066s-0.231-0.28-0.176-0.387c0.055-0.107 0.25-0.208 0.44-0.128 0.355 0.15 1.801 0.757 3.078 1.582zM13.209 9.152c-1.546-0.235-3.168-0.697-3.429-0.808s-0.256-0.261-0.211-0.373c0.045-0.111 0.23-0.226 0.427-0.161 0.368 0.122 1.865 0.618 3.213 1.342z"></path>
<path fill="#f31509" d="M12.967 9.828c-1.563-0.105-3.225-0.43-3.496-0.52s-0.282-0.239-0.248-0.354c0.033-0.114 0.206-0.244 0.408-0.196 0.379 0.091 1.919 0.46 3.336 1.070z"></path>
<path fill="#000" d="M8.626 9.435h25.415v0.837h-25.415z"></path>
</svg>
