<!-- Generated by IcoMoon.io -->
<svg version="1.1" xmlns="http://www.w3.org/2000/svg" width="43" height="32" viewBox="0 0 43 32">
<title>MXN</title>
<path fill="#fff" d="M0 0h42.666v32h-42.666z"></path>
<path fill="#0b7226" d="M0 0h14.287v32h-14.287z"></path>
<path fill="#bc0000" d="M28.461 0h14.205v32h-14.205z"></path>
<path fill="#9c4314" d="M14.208 17.247c0.005-0.007 0.231-0.403 0.204-0.339 0.104 0.080 0.294 0.004 0.156-0.175 0.034-0.073 0.076-0.128 0.11-0.201 0.076-0.142-0.087-0.203-0.151-0.105-0.039 0.075-0.077 0.12-0.117 0.195-0.205-0.097-0.218 0.131-0.12 0.171-0.043 0.061-0.117 0.163-0.161 0.224 0.026 0.076 0.052 0.152 0.078 0.229z"></path>
<path fill="#9c4314" d="M14.181 17.159c-0.007-0.005-0.406-0.225-0.342-0.2 0.078-0.105 0-0.294-0.177-0.154-0.073-0.033-0.129-0.074-0.202-0.107-0.143-0.074-0.202 0.089-0.103 0.152 0.076 0.038 0.121 0.076 0.197 0.114-0.094 0.206 0.134 0.216 0.173 0.118 0.062 0.043 0.303 0.182 0.365 0.225 0.076-0.027 0.013-0.121 0.089-0.148zM15.625 19.578c0.001-0.008 0.012-0.464 0.018-0.395 0.13 0.021 0.261-0.136 0.054-0.229-0.005-0.080 0.006-0.149 0.001-0.229-0.001-0.161-0.173-0.138-0.183-0.021 0.001 0.085-0.011 0.142-0.010 0.227-0.226 0.012-0.129 0.219-0.024 0.208-0.009 0.075-0.026 0.199-0.035 0.274l0.178 0.164z"></path>
<path fill="#9c4314" d="M15.559 19.513c-0.008-0.001-0.464-0.005-0.395-0.013 0.019-0.13-0.14-0.259-0.229-0.051-0.080 0.006-0.149-0.004-0.229 0.002-0.161 0.003-0.135 0.175-0.018 0.183 0.085-0.003 0.142 0.009 0.227 0.006 0.015 0.226 0.221 0.126 0.208 0.021l0.384 0.040c0.054-0.060-0.002-0.129 0.052-0.189z"></path>
<path fill="#42b2f3" d="M20.275 21.075s0.156 0.211 0.227 0.219c0.219 0.016 1.954 0 1.954 0 0-0.003 0.063-0.036 0.063-0.039 0.057-0.073 0.052-0.115 0.109-0.188 0.091-0.091 0.221-0.12 0.313-0.211 0.391-0.094 0.743-0.188 1.133-0.25-0.031-0.232-0.266-0.182-0.391-0.274-0.039-0.036-0.031-0.073-0.008-0.109l0.868-0.399v-0.094c-0.615 0.073-1.183 0.193-1.845 0.219l-2.259 0.93-0.164 0.195z"></path>
<path fill="#008d00" d="M14.063 17.029c-0.117-0.414-0.307-0.777-0.749-0.885-0.083-0.019-0.142-0.256-0.004-0.245 0.078 0.031 0.002-0.015 0.080 0.016 0.077 0.028 0.198-0.033 0.148-0.165 0-0.016-0.148-0.278-0.148-0.285-0.028-0.030 0.024-0.198 0.156-0.109 0.063 0.041 0.125 0.137 0.215 0.156 0.033-0.006 0.055-0.108 0.050-0.188 0-0.008 0.008-0.27 0.008-0.27-0.031-0.158 0.108-0.239 0.221-0.12 0.008 0.039-0.001 0.039 0.007 0.079 0.026 0.052 0.057 0.060 0.094 0.008l0.149-0.149c0.088-0.033 0.143-0.066 0.149 0.117 0 0-0.122 0.152-0.179 0.208-0.030 0.044-0.095 0.104 0.018 0.137 0.008 0 0.161 0.022 0.161 0.022 0.105 0.044 0.116 0.159 0.039 0.17 0 0-0.082 0.096-0.226 0.175-0.044 0.035-0.081 0.078-0.042 0.127 0.083 0.032 0.057 0.001 0.198 0.001 0.119-0.028 0.108 0.265-0.107 0.245-0.064 0.015-0.15 0.009-0.185 0.112-0.016 0.080-0.020 0.234-0.020 0.274-0.013 0.186 0.014 0.444 0.014 0.452 0.016 0.133-0.031 0.086-0.047 0.117zM15.343 19.412c-0.015-0.019-0.407-0.449-0.859-0.4-0.084 0.010-0.22-0.193-0.086-0.229 0.084 0.003 0.019-0.009 0.103-0.006 0.071-0.050-0.057-0.203-0.116-0.15-0.005-0.015-0.155 0.032-0.219 0.019-0.197-0.019-0.282-0.239-0.139-0.322 0.089 0.034 0.258 0.037 0.35 0.025 0.090-0.027 0.048-0.11-0.039-0.122-0.124-0.018-0.626-0.141-0.582-0.202-0.083-0.138-0.001-0.245 0.145-0.171 0.12 0.073 0.134 0.032 0.105-0.022-0.036-0.103-0.070-0.079-0.075-0.168-0.009-0.058 0.010-0.11 0.095-0.074 0.036-0.030 0.095 0.186 0.319 0.104 0.041 0.035 0.076-0.234 0.232-0.193 0.116 0.036 0.037 0.157 0.060 0.327 0.019 0.112 0.131 0.087 0.146 0.028-0.024-0.258 0.228-0.263 0.257-0.175 0.024 0.064 0.046 0.237 0.015 0.401-0.017 0.083-0.003 0.248 0.049 0.281 0.089 0.002 0.032-0.018 0.093-0.11 0.103-0.066 0.263 0.174 0.076 0.294-0.198 0.043 0.112 0.796 0.138 0.838-0.029 0.031-0.063-0.007-0.067 0.028z"></path>
<path fill="#9c4314" d="M17.771 21.427c0-0.008-0.061-0.46-0.044-0.393 0.131 0 0.236-0.176 0.017-0.234-0.017-0.078-0.018-0.148-0.035-0.226-0.026-0.159-0.192-0.109-0.184 0.008 0.015 0.084 0.012 0.142 0.026 0.226-0.222 0.047-0.093 0.237 0.009 0.209 0.003 0.075 0.006 0.201 0.009 0.276l0.201 0.134z"></path>
<path fill="#9c4314" d="M17.763 21.374c-0.008 0-0.459 0.068-0.392 0.049-0.002-0.131-0.179-0.234-0.234-0.014-0.078 0.019-0.148 0.020-0.225 0.038-0.159 0.028-0.106 0.194 0.011 0.184 0.083-0.016 0.142-0.014 0.226-0.029 0.050 0.221 0.238 0.090 0.209-0.012l0.385-0.020c0.044-0.068-0.022-0.128 0.022-0.195z"></path>
<path fill="#33b1e9" d="M17.609 18.904c1.103 0.651 1.387 0.557 1.341 0.268 0.053 0 0.064 0.046 0.221-0.069-0.022 0.427 0.443 0.672 0.726 0.62 0.256 0.016 0.223 0.354 0.223 0.354 0.016 0.346-0.101 0.486-0.085 0.832-0.004 0-0.008-0.041-0.012-0.041-0.314-0.075-0.934-0.084-1.166-0.134 1.063-0.726-0.818-0.745-0.986-0.77-0.127-0.017-0.036-0.14 0.038-0.173 0.585-0.115-0.55-0.67-0.521-0.736-0.069-0.041 0.005-0.074 0.005-0.074 0.078-0.051 0.139-0.027 0.217-0.077z"></path>
<path fill="#983d25" d="M20.364 19.455c-0 0-0.001 0-0.001 0-0.191 0-0.345 0.155-0.345 0.345 0 0 0 0.001 0 0.001v-0c-0.058 0.264-0.050 0.635 0 0.989 0 0 0 0.001 0 0.001 0 0.191 0.155 0.345 0.345 0.345 0 0 0.001 0 0.001 0h-0c0.764 0.082 1.586 0.058 2.292 0 0 0 0 0 0.001 0 0.191 0 0.345-0.155 0.345-0.345 0-0 0-0.001 0-0.001v0c0.091-0.313 0.066-0.643 0-0.989 0-0 0-0.001 0-0.001 0-0.191-0.155-0.345-0.345-0.345-0 0-0.001 0-0.001 0h0c-0.764-0.033-1.544-0.074-2.292 0z"></path>
<path fill="#268728" d="M17.784 10.038l-0.523 0.453c-0.215 0.095-0.448 0.213-0.28 0.719-0.098 0.649 0.425 0.752 0.882 0.616 0.076-0.168 0.1-0.284 0.177-0.452-0.202-0.031-0.311 0.040-0.494 0.027-0.126-0.020-0.135-0.115-0.089-0.177 0.198-0.098 0.377-0.191 0.574-0.289-0.005-0.030-0.009-0.008-0.014-0.037-0.163 0.084-0.28 0.112-0.453 0.182-0.137 0.048-0.176-0.128-0.121-0.205 0 0 0.355-0.509 0.355-0.514 0.030-0.107 0.009-0.287-0.014-0.322z"></path>
<path fill="#fff" d="M19.245 18.935c0 0.151-0.123 0.274-0.274 0.274s-0.274-0.123-0.274-0.274v0c0-0.151 0.123-0.274 0.274-0.274s0.274 0.123 0.274 0.274v0z"></path>
<path fill="#fff" d="M17.946 19.969c0 0.143-0.116 0.258-0.258 0.258s-0.258-0.116-0.258-0.258v0c0-0.143 0.116-0.258 0.258-0.258s0.258 0.116 0.258 0.258v0z"></path>
<path fill="#fff" d="M24.365 20.547c0 0.143-0.116 0.258-0.258 0.258s-0.258-0.116-0.258-0.258v0c0-0.143 0.116-0.258 0.258-0.258s0.258 0.116 0.258 0.258v0z"></path>
<path fill="#ba4600" d="M17.808 10.384c0.006 0.155 0.010 0.35 0.010 0.41-0.007-0.145-0.057-0.262-0.076-0.319 0.023-0.037 0.059-0.091 0.066-0.091z"></path>
<path fill="#973100" d="M20.341 20.861c0 0.143-0.116 0.258-0.258 0.258s-0.258-0.116-0.258-0.258v0c0-0.143 0.116-0.258 0.258-0.258s0.258 0.116 0.258 0.258v0zM23.066 20.861c0 0.001 0 0.003 0 0.004 0 0.143-0.116 0.258-0.258 0.258s-0.258-0.116-0.258-0.258c0-0.001 0-0.003 0-0.004v0c0-0.143 0.116-0.258 0.258-0.258s0.258 0.116 0.258 0.258v0zM23.066 19.608c0 0.001 0 0.003 0 0.004 0 0.143-0.116 0.258-0.258 0.258s-0.258-0.116-0.258-0.258c0-0.001 0-0.003 0-0.004v0c0-0.143 0.116-0.258 0.258-0.258s0.258 0.116 0.258 0.258v0zM20.357 19.608c0 0.143-0.116 0.258-0.258 0.258s-0.258-0.116-0.258-0.258v0c0-0.143 0.116-0.258 0.258-0.258s0.258 0.116 0.258 0.258v0z"></path>
<path fill="#008d00" d="M17.81 21.567c-0.015-0.019-0.131-0.348-0.787-0.363-0.092-0.005-0.151 0.021-0.338 0.008-0.108 0.009-0.066-0.12-0.023-0.167 0.071-0.050-0.253-0.026-0.365-0.012-0.112-0.006-0.188-0.026-0.252-0.038-0.197-0.019-0.312-0.157-0.168-0.24 0.060-0.059 0.305 0.008 0.396-0.004 0.090-0.027 0.078-0.18-0.010-0.192-0.124-0.018-0.667-0.059-0.623-0.12-0.083-0.138-0.059-0.21 0.157-0.183 0.12 0.073 0.117-0.020 0.087-0.075-0.036-0.103-0.233-0.119-0.238-0.209-0.032-0.215 0.109-0.244 0.194-0.208 0.036-0.030-0.161-0.199 0.062-0.281 0.056-0.017 0.17-0.004 0.208 0.2 0.116 0.036 0.036-0.134 0.194-0.203 0.135-0.057-0.009 0.605 0.152 0.599 0.139 0.057 0.112-0.362 0.228-0.28 0.251-0.064 0.13 0.803 0.239 0.751 0.182 0.159 0.201-0.143 0.253-0.11 0.089 0.002 0.148 0.006 0.099 0.205-0.037 0.155 0.018 0.191 0.047 0.253 0.17 0.374 0.425 0.371 0.51 0.543 0.027 0.255-0.019 0.091-0.023 0.125z"></path>
<path fill="#009400" d="M20.95 22.143c-0.314 0.258-0.639 0.424-0.758 0.692 0.143-0.019 0.198-0.043 0.305-0.030 0.115-0.258 0.479-0.396 0.693-0.605l-0.239-0.058zM21.788 22.17c0.283 0.262 0.635 0.412 0.758 0.688-0.143-0.019-0.202-0.039-0.288-0.017-0.115-0.258-0.496-0.409-0.71-0.618 0.080-0.019 0.159-0.034 0.239-0.053z"></path>
<path fill="#fff" d="M21.574 22.224c0.343 0.206 0.481 0.354 0.692 0.618-0.102 0.006-0.244 0.052-0.296 0.082-0.256-0.332-0.453-0.451-0.668-0.659 0.080-0.019 0.192-0.022 0.272-0.041z"></path>
<path fill="#ffba00" d="M18.331 11.063c-0.138 0.038-0.197 0.154-0.21 0.262-0.507 0.355-0.138 1.054 0.332 0.909-0.348-0.521 0-0.815 0.387-0.633 0.117 0.086 0.199 0.265 0.21 0.254 0.074-0.16 0.365-0.299 0.365-0.299s0.235 0.032 0.277-0.12c0.027-0.097 0.243-0.499 0.243-0.499l-0.752-0.155-0.52-0.011-0.276 0.122c-0.037 0.059-0.019 0.11-0.056 0.169z"></path>
<path fill="#d40000" d="M21.293 22.24c0.344 0.206 0.501 0.399 0.713 0.663-0.093 0.027-0.125 0.181-0.177 0.211-0.165-0.333-0.438-0.616-0.726-0.899 0.080-0.019 0.111 0.044 0.19 0.025z"></path>
<path fill="#fff" d="M21.164 22.2c-0.344 0.206-0.463 0.337-0.675 0.601 0.102 0.006 0.227 0.069 0.279 0.1 0.256-0.332 0.453-0.451 0.668-0.659-0.080-0.019-0.192-0.022-0.272-0.041z"></path>
<path fill="#d40000" d="M21.444 22.217c-0.344 0.206-0.488 0.412-0.7 0.676 0.17 0.122 0.129 0.129 0.164 0.198 0.165-0.332 0.528-0.607 0.816-0.89-0.080-0.019-0.201 0.036-0.28 0.016z"></path>
<path fill="#973000" d="M17.591 19.030c-0.041 0.149-0.272 0.205-0.517 0.126s-0.409-0.265-0.367-0.414 0.272-0.205 0.517-0.126 0.409 0.265 0.367 0.414z"></path>
<path fill="#008d2b" d="M20.886 21.784c-0.248 0.178-0.598 0.416-0.845 0.594-0.051 0.043 0.172 0.089 0.253 0.049 0.261-0.179 0.399-0.297 0.66-0.476l0.149-0.083c-0.107-0.008-0.111-0.075-0.218-0.083z"></path>
<path fill="#973000" d="M19.099 20.645c0.055 0.122-0.069 0.288-0.276 0.369s-0.42 0.048-0.474-0.074 0.069-0.288 0.276-0.369 0.42-0.048 0.474 0.074z"></path>
<path fill="#008d00" d="M23.411 19.042c0.013-0.679 0.609-0.085 0.843-0.365 0.55-0.648 0.597-0.697 1.082-0.627 1.301 0.511-0.057 1.694-1.387 1.156-0.146-0.080-0.392-0.084-0.538-0.164z"></path>
<path fill="#6d390b" d="M28.319 16.803c-0.017 0.076-0.106 0.116-0.198 0.090s-0.153-0.109-0.135-0.185 0.106-0.116 0.198-0.090 0.153 0.109 0.135 0.185z"></path>
<path fill="#6d390b" d="M28.276 16.769l0.317 0.275-0.083 0.096-0.317-0.275z"></path>
<path fill="#6d390b" d="M26.355 17.775l0.069 0.097 0.239-0.208-0.069-0.097-0.239 0.208z"></path>
<path fill="#973000" d="M25.002 19.623c0.055 0.122-0.069 0.288-0.276 0.369s-0.42 0.048-0.474-0.074 0.069-0.288 0.276-0.369 0.42-0.048 0.474 0.074z"></path>
<path fill="#dc0000" d="M26.545 18.112c0.020 0.078-0.015 0.18-0.153 0.216s-0.267-0.018-0.288-0.096c-0.020-0.078 0.060-0.191 0.197-0.227s0.222 0.029 0.243 0.108z"></path>
<path fill="#008d00" d="M20.478 21.867c-0.204 0.041-0.67 0.142-0.873 0.55-0.037 0.077-0.343 0.136-0.302 0.004 0.048-0.069 0.065-0.075 0.113-0.144-0.004-0.087-0.202-0.061-0.189 0.016-0.015-0.003-0.111 0.015-0.156 0.062-0.122 0.156-0.33 0.149-0.323-0.017 0.077-0.057 0.116-0.111 0.154-0.195 0.025-0.091-0.152-0.123-0.21-0.056-0.122 0.064-0.198 0.155-0.343 0.225-0.161 0.058-0.316-0.045-0.176-0.128 0.126-0.062 0.021-0.205-0.041-0.21-0.106-0.026-0.542 0.048-0.62 0.004-0.061-0.008-0.173-0.169-0.042-0.198 0.119-0.039 0.317 0.044 0.369-0.189 0.051-0.391 0.673 0.2 0.572 0.037-0.228-0.336 0.16-0.416 0.277-0.186 0.048 0.103 0.284 0.257 0.353 0.228 0.129 0.014-0.239-0.326 0.053-0.381 0.067 0.014 0.186 0.019 0.268 0.133 0.061 0.059 0.074 0.3 0.302 0.321 0.050-0.074 0.002-0.036-0.043-0.137-0-0.122 0.202-0.112 0.289 0.095 0.086 0.158 0.538 0.051 0.952 0.060 0.133-0.022 0.346 0.095-0.385 0.109z"></path>
<path fill="#dc0000" d="M26.086 18.097c0.073 0.112 0.071 0.289-0.126 0.417s-0.427 0.112-0.5 0c-0.073-0.112-0.007-0.33 0.19-0.458s0.363-0.071 0.436 0.041z"></path>
<path fill="#dc0000" d="M26.227 17.633c0.068 0.044 0.112 0.142 0.035 0.262s-0.208 0.169-0.276 0.125c-0.068-0.043-0.087-0.18-0.010-0.3s0.183-0.13 0.251-0.087z"></path>
<path fill="#dc0000" d="M26.435 17.837c0.044 0.068 0.043 0.175-0.076 0.253s-0.259 0.068-0.303 0c-0.044-0.068-0.004-0.2 0.115-0.278s0.22-0.043 0.264 0.025z"></path>
<path fill="#d90000" d="M26.878 17.435c0.033 0.051 0.033 0.132-0.057 0.19s-0.195 0.051-0.228 0c-0.033-0.051-0.003-0.151 0.086-0.209s0.166-0.033 0.199 0.019z"></path>
<path fill="#fff" d="M21.206 21.555c-0.176 0.021-0.276 0.031-0.309 0.159-0.019 0.086-0.004 0.199 0.011 0.296 0 0.111 0.14 0.185 0.304 0.217h0.281c0.118 0 0.337-0.116 0.337-0.227 0.018-0.063 0.017-0.164 0.017-0.233 0-0.187-0.132-0.199-0.297-0.216l-0.344 0.005z"></path>
<path fill="#008f00" d="M27.449 19.346c-0.019-0.649-0.19-1.589 0.606-1.912 0.103-0.027 0.14 0.031 0.105 0.117l-0.711 1.795z"></path>
<path fill="#008c00" d="M28.478 18.025c0.142-0.267 0.492-0.334 0.616-0.326-0.245 0.25-0.489 0.863-0.627 1.063-0.198 0.341-0.775 0.583-1.121 0.783 0.387-0.528 0.744-0.993 1.132-1.521z"></path>
<path fill="#009400" d="M21.221 21.552s-0.176 0.031-0.18 0.031-0.137 0.086-0.137 0.086-0.027 0.168-0.027 0.172 0.031 0.191 0.031 0.191l0.082 0.113 0.215 0.074 0.016-0.668z"></path>
<path fill="#008d00" d="M27.344 19.545c0.023-0.023 0.456-2.063 1.178-2.305 0.117 0.152 0.060 0.481 0.014 0.656-0.222 0.762-0.76 1.284-1.191 1.649z"></path>
<path fill="#6d390b" d="M28.937 17.034c-0.031 0.071 0.016 0.157 0.106 0.19s0.188 0.003 0.219-0.068-0.016-0.157-0.106-0.19-0.188-0.003-0.219 0.068z"></path>
<path fill="#6d390b" d="M28.993 17.033l-0.418 0.033 0.010 0.127 0.418-0.033z"></path>
<path fill="#6d390b" d="M27.177 19.123c-0.045 0.072-0.149 0.081-0.232 0.019s-0.114-0.17-0.069-0.242 0.148-0.081 0.232-0.019 0.114 0.17 0.069 0.242z"></path>
<path fill="#6d390b" d="M27.145 19.070l0.219 0.402-0.118 0.068-0.219-0.402z"></path>
<path fill="#6d390b" d="M27.694 19.685c-0.039-0.075 0.007-0.169 0.102-0.209s0.204-0.011 0.243 0.065-0.007 0.169-0.102 0.209-0.204 0.011-0.243-0.065z"></path>
<path fill="#6d390b" d="M27.755 19.685l-0.457-0.019 0.002-0.137 0.457 0.019z"></path>
<path fill="#008c00" d="M27.030 20.152c0.443-0.24 0.166 0.097 0.138 0.281-0.131 0.455-0.253 0.458-0.407 0.536-0.23 0.21-0.966 0.108-1.308 0.194 0.429-0.311 1.149-0.7 1.577-1.011zM26.366 20.047c0.185-0.147 0.215-0.471 0.203-0.584-0.168 0.24-0.597 0.503-0.735 0.641-0.236 0.203-0.38 0.746-0.507 1.075 0.361-0.388 0.678-0.744 1.039-1.132z"></path>
<path fill="#008c00" d="M24.061 21.91c0.29-0.085 0.784 0.129 0.865 0.223-0.35 0-0.917 0.243-1.156 0.285-0.382 0.097-1.441-0.501-1.821-0.586 0.633-0.032 1.464 0.17 2.112 0.078z"></path>
<path fill="#00602b" d="M21.855 21.849c0.248 0.178 0.598 0.416 0.845 0.594 0.051 0.043-0.172 0.089-0.253 0.049-0.261-0.179-0.399-0.297-0.66-0.476l-0.15-0.083c0.107-0.008 0.111-0.075 0.218-0.083z"></path>
<path fill="#008c00" d="M25.291 21.164c0.030-0.011 1.21-1.605 1.944-1.539 0.044 0.175-0.134 0.437-0.244 0.57-0.494 0.572-1.175 0.818-1.7 0.969z"></path>
<path fill="#6d390b" d="M25.146 20.93c-0.074 0.042-0.169 0.001-0.213-0.092s-0.021-0.203 0.053-0.246 0.169-0.001 0.213 0.092 0.021 0.203-0.053 0.246z"></path>
<path fill="#6d390b" d="M25.143 20.869l0.003 0.458-0.137 0.005-0.003-0.458z"></path>
<path fill="#6d390b" d="M25.455 21.584c0.005-0.085 0.092-0.142 0.194-0.128s0.181 0.095 0.176 0.179-0.092 0.142-0.194 0.128-0.181-0.094-0.176-0.179z"></path>
<path fill="#6d390b" d="M25.507 21.615l-0.384-0.249 0.071-0.117 0.384 0.249z"></path>
<path fill="#dc0000" d="M15.441 15.796c0.035-0.052 0.114-0.085 0.214-0.030s0.141 0.153 0.107 0.205c-0.035 0.052-0.146 0.067-0.246 0.012s-0.109-0.135-0.075-0.186z"></path>
<path fill="#008c00" d="M23.86 21.697c0.487-0.129 0.458-0.364 0.686-0.569-0.527-0.077-0.948 0.109-1.173 0.233-0.356 0.229-0.448 0.479-0.756 0.65 0.526-0.067 0.762-0.143 1.243-0.315z"></path>
<path fill="#008c00" d="M22.27 21.84c1.394 0.105 1.172-0.461 2.7-0.447-0.023 0.179-0.314 0.403-0.465 0.487-0.668 0.353-1.766 0.519-2.235-0.041z"></path>
<path fill="#d40000" d="M21.561 21.548l0.004 0.657 0.18-0.070s0.074-0.117 0.074-0.125c0-0.008 0.031-0.16 0.031-0.164s-0.016-0.188-0.016-0.188l-0.137-0.090-0.137-0.020z"></path>
<path fill="#6d390b" d="M15.756 15.451l-0.223-0.245 0.076-0.064 0.223 0.245z"></path>
<path fill="#dc0000" d="M15.476 15.602c0.038-0.066 0.125-0.109 0.234-0.038s0.155 0.195 0.117 0.261c-0.038 0.066-0.16 0.086-0.269 0.015s-0.12-0.172-0.082-0.238z"></path>
<path fill="#dc0000" d="M16.090 15.327c0.064 0.003 0.132 0.059 0.129 0.187s-0.073 0.225-0.136 0.223-0.131-0.1-0.127-0.228c0.004-0.128 0.071-0.184 0.135-0.181z"></path>
<path fill="#dc0000" d="M15.777 15.379c0.072-0.019 0.166 0.013 0.2 0.14s-0.015 0.246-0.087 0.265c-0.072 0.019-0.176-0.054-0.21-0.181s0.025-0.205 0.097-0.224z"></path>
<path fill="#008d00" d="M17.573 17.412c-0.217-0.553-0.811-1.47-1.415-1.028-0.671 0.578 0.306 1.489 1.139 1.437l0.276-0.409z"></path>
<path fill="#dc0000" d="M15.848 15.792c0.116-0.078 0.302-0.080 0.441 0.123s0.126 0.444 0.010 0.522c-0.116 0.078-0.347 0.014-0.485-0.189s-0.082-0.377 0.034-0.456z"></path>
<path fill="#dc0000" d="M15.418 14.869c0.053-0.036 0.138-0.036 0.201 0.056s0.057 0.202 0.004 0.238c-0.053 0.036-0.158 0.006-0.221-0.086s-0.037-0.172 0.016-0.208z"></path>
<path fill="#008d00" d="M19.42 18.069c-0.273-0.486-1.019-1.094-1.778-0.705-0.898 0.63 0.362 1.574 1.652 1.109 0.116-0.12 0.010-0.284 0.126-0.404z"></path>
<path fill="#008d00" d="M21.951 18.357c-0.273-0.486-1.737-1.038-2.375-0.572-0.798 0.895 0.373 1.519 1.95 1.075 0.116-0.12 0.309-0.383 0.425-0.503z"></path>
<path fill="#008c00" d="M28.617 15.974c0.103-0.339-0.254-0.419-0.333-0.61-0.163 0.319-0.106 0.644-0.077 0.815 0.067 0.277 0.313 0.469 0.353 0.703 0.072-0.35 0.060-0.564 0.057-0.908z"></path>
<path fill="#008c00" d="M29.090 15.659c0.007-0.186 0.249-0.318 0.346-0.348-0.060 0.361 0.048 0.53 0.019 0.678-0.022 0.242-0.464 0.611-0.652 0.816 0.095-0.396 0.191-0.75 0.286-1.146z"></path>
<path fill="#008c00" d="M28.58 17.105c0.012-0.022-0.184-1.724 0.307-2.078 0.129 0.076 0.171 0.319 0.18 0.453 0.027 0.587 0.046 0.885-0.487 1.625z"></path>
<path fill="#dc0000" d="M18.734 17.065c0.14 0.045 0.264 0.198 0.188 0.447s-0.194 0.409-0.378 0.354c-0.24-0.056-0.283-0.278-0.207-0.527s0.256-0.318 0.397-0.273z"></path>
<path fill="#dc0000" d="M18.971 16.81c0.045 0.031 0.071 0.097 0.017 0.171s-0.144 0.1-0.188 0.069c-0.045-0.031-0.053-0.121 0.001-0.195s0.126-0.076 0.17-0.045zM18.602 16.734c0.053-0.011 0.12 0.014 0.137 0.104s-0.025 0.173-0.078 0.185c-0.053 0.011-0.125-0.043-0.142-0.134s0.030-0.144 0.083-0.155z"></path>
<path fill="#dc0000" d="M18.758 16.932c0.052 0.016 0.098 0.070 0.070 0.157s-0.105 0.14-0.157 0.125c-0.052-0.016-0.089-0.098-0.061-0.186s0.095-0.112 0.148-0.096z"></path>
<path fill="#dc0000" d="M18.833 16.618c0.044 0.012 0.082 0.053 0.058 0.119s-0.088 0.106-0.131 0.094c-0.044-0.012-0.074-0.074-0.051-0.141s0.080-0.085 0.123-0.073z"></path>
<path fill="#dc0000" d="M19.062 17.017c0.048 0.033 0.074 0.095 0.012 0.158s-0.161 0.077-0.209 0.045c-0.048-0.033-0.054-0.115 0.009-0.178s0.141-0.057 0.189-0.025z"></path>
<path fill="#dc0000" d="M18.462 16.88c0.049-0.006 0.106 0.023 0.114 0.107s-0.036 0.157-0.085 0.163c-0.049 0.006-0.108-0.050-0.116-0.135s0.039-0.129 0.087-0.135z"></path>
<path fill="#fff" d="M24.039 18.002c0.274 0.146 0.18 0.487-0.016 0.578-0.010-0.224-0.154-0.292-0.367-0.344 0.112-0.063 0.232-0.266 0.383-0.235z"></path>
<path fill="#008d00" d="M21.426 19.367c0.101-1.483 1.228-1.663 1.975-1.407 1.094 0.794-0.015 1.453-1.653 1.496-0.146-0.080-0.176-0.009-0.322-0.089z"></path>
<path fill="#fff" d="M21.754 17.7c-0.35-0.014-0.456 0.327-0.318 0.505 0.139-0.187 0.318-0.173 0.555-0.108-0.073-0.111-0.072-0.347-0.237-0.397z"></path>
<path fill="#fff" d="M21.936 18.144c-0.274 0.146-0.215 0.487-0.020 0.578 0.010-0.224 0.154-0.292 0.367-0.344-0.112-0.063-0.196-0.266-0.347-0.235z"></path>
<path fill="#f6aa00" d="M24.075 18.030c0.003-0.122-0.093-0.228-0.206-0.245-0.136-0.017-0.267 0.077-0.403-0.022-0.017-0.011-0.333-0.284-0.423-0.411-0.091-0.050-0.281-0.143-0.281-0.143-0.112 0.146-0.191 0.314-0.353 0.41-0.080 0.032-0.111 0.070-0.258 0.058-0.152-0.071-0.319-0.107-0.405-0.030 0.074 0.146 0.054 0.331 0.022 0.472 0.055 0.031 0.115-0.006 0.181 0.009 0.203 0.005 0.151 0.223 0.227 0.317 0.214 0.058 0.322-0.044 0.353-0.218 0.056-0.089 0.229-0.1 0.352-0.134 0.133-0.026 0.299-0.068 0.421 0 0.101 0.053 0.168 0.118 0.219 0.227 0 0 0.16 0.014 0.32-0.016 0.006-0.096-0.014-0.271 0.235-0.274z"></path>
<path fill="#9c4314" d="M26.885 17.169c0.108 0.084 0.291-0.874 0.263-1.173 0-0.020-0.034-0.655 0.099-1.11 0.084-0.153 0.087-1.298-0.039-1.599 0.1-0.008 0.222-0.041 0.237-0.164-0.464 0.172-0.574-0.98-1.020-1.642-0.436-0.664-0.977-1.050-1.539-1.453 0.044-0.113 0.109-0.218 0.195-0.324-0.69 0.346-1.765-0.906-3.352-0.812-0.358 0.036-0.526 0.057-0.618 0.275-0.295 0.025-0.597 0.092-0.598 0.481 0.001 0.093 0.085 0.263 0.275 0.266 0.26 0.075 0.471 0.017 0.647 0.379 0.013 0.099 0.033 0.275 0.047 0.374 0 0-0.233-0.295-0.36-0.344 0.034-0.049-0.020-0.083 0.078-0.158-0.119-0.069-0.332-0.013-0.332-0.013s-0.461-0.217-0.832-0.158c0-0.040-0.071-0.301-0.071-0.301-0.066 0.184-0.211 0.174-0.232 0.348-0.040-0.125-0.093-0.279-0.133-0.404-0.13 0.178-0.092 0.37-0.139 0.555-0.052 0.042-0.155 0.044-0.181-0.075-0.013-0.145-0.031-0.16-0.030-0.333-0.094 0.164-0.207 0.244-0.245 0.527-0.040-0.106-0.061-0.207-0.1-0.312 0.005 0.368-0.312 0.589-0.613 0.847-0.084 0.156 0.013 0.159 0.020 0.238l0.159 0.079c0.092-0.007 0.192-0.013 0.284-0.020 0.046 0.059 0.008 0.063 0.132 0.101 0.33 0.093 0.743-0.304 1.068 0.319-0.149 0.124-0.299 0.417-0.252 0.471 0.059 0-0.119 0.084 0.122 0.007-0.252 0.245-0.423 0.568-0.423 0.587-0.028 0.069 0.102-0.009 0.075 0.116 0.035-0.094 0.060-0.008 0.060-0.008-0.575 0.622-0.019 1.29-0.081 1.65 0.096 0.154 0.108-0.003 0.227-0.020 0.101 0.441 0.391 0.709 0.569 1.059-0.092-0.028-0.275-0.038-0.374 0.004 0.008 0.166 0.158 0.324 0.277 0.469-0.086 0.026-0.165 0.053-0.251 0.079-0.178 0.092-0.297 0.19-0.422 0.328-0.084 0.202 0.399 0.251 0.631 0.285-0.021 0.073-0.051 0.164-0.009 0.244 0.364 0.035 0.785-0.073 0.785-0.092s0.091-0.071 0.091-0.071c0.049 0.098 0.157 0.127 0.205 0.113 0.069 0 0.176-0.274 0.127-0.484 0.132 0.158 0.256 0.411 0.388 0.569 0.040 0.042 0.092 0.011 0.125-0.017 0.112 0.178 0.267 0.357 0.38 0.535 0.059 0.068 0.047 0.043 0.127 0.048 0.073-0.024 0.136-0.033 0.174-0.176 0 0 0.024 0.022 0.059 0.101 0.089 0.063 0.151-0.089 0.2-0.138 0.028-0.068 0.137 0.013 0.137-0.026 0.040 0.026 0.066 0.143 0.105 0.169 0.061-0.022 0.121-0.156 0.125-0.297 0.060 0.124 0.079 0.114 0.125 0.147 0.040-0.033 0.052-0.163 0.092-0.196-0.009-0.068 0.476 0.467 0.496 0.467 0.048 0.035 0.322 0.119 0.378 0.021 0.137 0.091 0.505 0.148 0.564 0.001 0.303 0.129 0.659-0.016 0.644-0.16 0.276 0.11 0.707 0.037 0.707 0.017 0.049-0.006 0.182-0.135 0.056-0.233-0.918-0.641-2.284-1.701-2.81-1.957 0-0.189-0.143-0.871-0.297-1.059-0.028-0.097 0.035-0.217 0.126-0.21 0.357 0.334 0.487 0.302 0.676 0.356 0.205 0.161 0.278 0.408 0.483 0.633 0.096 0.031 0.21 0.129 0.181 0.033-0.128-0.321-0.282-0.631-0.665-1.048 0.198 0.099 0.523 0.361 0.742 0.552 0.146 0.241 0.187 0.432 0.319 0.736 0.096 0.061 0.193 0.285 0.179 0.099-0.021-0.349-0.266-0.903-0.266-0.943 0.389 0.31 0.385 0.791 0.502 1.086 0.102 0.149 0.153 0.348 0.195 0.301 0.049-0.068-0.115-0.908-0.115-0.908-0.026-0.106-0.040-0.225-0.066-0.331 0.29 0.167 0.391 0.803 0.526 1.565 0 0.121 0.050 0.254 0.043 0.334 0.062 0.077 0.134 0.289 0.13 0.162 0 0 0-1.24-0.084-1.524-0.021-0.152 0.037-0.4 0.037-0.4 0.106 0.515 0.218 1.072 0.324 1.587v0.377c0.053 0.053 0.106 0.106 0.158 0.159l0.099-0.931s-0.119-1.090-0.119-1.109v-0.317c-0.002-0.112 0.1-0.090 0.168 0.036 0.013 0.271 0.012 0.485 0.026 0.756 0.046 0.31 0.078 0.537 0.104 0.931 0.012 0.323 0.025 1.088 0.093 1.075z"></path>
<path fill="#00c600" d="M23.228 13.485l-0.021 0.433"></path>
<path fill="#fff" d="M18.536 11.076c0.023-0.159 0.165-0.336 0.325-0.427 0.077-0.043 0.128 0.009 0.162 0.026 0.043 0.068 0.017 0.197 0 0.248-0.043 0.085-0.128 0.154-0.282 0.214-0.080-0.034-0.125-0.026-0.205-0.060z"></path>
<path fill="#9f3000" d="M16.026 13.419c0.027 0.084-0.064 0.039-0.084 0.062-0.096 0.034-0.248-0.084-0.344-0.368 0.047-0.080 0.323-0.251 0.411-0.214 0 0 0.173 0.066 0.194 0.139-0.033 0.106-0.183 0.393-0.177 0.381z"></path>
<path fill="#238700" d="M16.020 13.451c0.187 0.176 0.482 0.058 0.528 0.488 0.020 0.241-0.321 0.723 0 1.157 0.114 0.167 0.408 0.348 0.408 0.348 0.154 0.172 0.201 0.477 0.301 0.716 0.212 0.317 0.504 0.386 0.736 0.308 0 0 0.763-0.341 0.763-0.348s-0.388-0.522-0.388-0.515c0 0.007-0.435 0.368-0.442 0.368-0.047-0.007-0.301 0.020-0.395-0.301-0.007-0.41-0.21-0.637-0.535-0.803-0.165-0.125-0.297-0.323-0.154-0.602 0.082-0.254 0.165-0.682-0.127-0.97-0.187-0.125-0.321-0.223-0.522-0.261-0.265 0.1-0.263 0.074-0.174 0.415z"></path>
<path fill="#fff" d="M18.202 16.317c0.099 0.137 0.278 0.067 0.314-0.043-0.123 0.008-0.169-0.064-0.213-0.175-0.026 0.064-0.128 0.14-0.101 0.219z"></path>
<path fill="#fff" d="M18.323 16.237c0.099 0.137 0.278 0.067 0.314-0.043-0.123 0.008-0.17-0.064-0.213-0.175-0.026 0.064-0.128 0.14-0.101 0.219z"></path>
<path fill="#fff" d="M18.51 16.157c0.099 0.137 0.278 0.067 0.314-0.043-0.123 0.008-0.17-0.064-0.213-0.175-0.026 0.064-0.128 0.14-0.101 0.219z"></path>
<path fill="#ffbc00" d="M20.603 16.201c-0.028-0.019-0.934-0.28-0.915-0.28s-0.331 0.238-0.331 0.238l0.864 0.294 0.345-0.252h0.037z"></path>
<path fill="#f7b200" d="M19.738 15.914c0.057-0.145 0.042-0.337-0.145-0.456-0.427-0.262-1.144-0.24-1.281 0.066-0.147-0.020-0.222 0.099-0.244 0.218-0.381 0.103-0.029 0.543 0.066 0.561 0.128 0.044 0.163 0.012 0.185-0.030 0.071 0.018 0.169-0.059 0.193-0.111 0.090 0.017 0.159 0.015 0.161-0.076 0.259 0.243 0.616 0.411 0.656 0.098l0.409-0.271z"></path>
<path fill="#288800" d="M19.016 11.822c0.382 0.507-0.152 1.066-0.62 1.389-0.551 0.433-0.848 1.278 0.123 1.33 0.351-0.006 0.732-0.038 0.946 0.237s0.222 0.782-0.318 1.108c-0.053-0.047-0.132-0.186-0.19-0.228s-0.097 0.012-0.15-0.035c-0.019-0.174 0.266-0.434-0.003-0.496-0.349 0.059-1.569 0.064-1.553-1.1 0.027-0.259 0.165-0.551 0.388-0.847s0.833-0.664 0.891-0.825c0.094-0.139-0.078-0.409-0.215-0.447-0.112-0.299 0.383-0.618 0.7-0.086z"></path>
<path fill="#9d4600" opacity="0.994" d="M18.314 11.701c0.274 0.101 0.639 0.24 0.601 1.045 0.227-0.246 0.331-0.591 0.043-1.026-0.194-0.21-0.478-0.254-0.643-0.019z"></path>
<path fill="#9d4600" d="M17.886 14.187c-0.090-0.008-0.141-0.025-0.219-0.054 0.037 0.605 0.097 0.636 0.193 0.864 0.286 0.181 0.781 0.139 0.99 0.094 0.023 0.032 0.146 0.185 0.070 0.23-0.082 0.051-0.115 0.151-0.118 0.313 0.048 0.055 0.099 0.007 0.148 0.042s0.107 0.159 0.153 0.266c0 0 0.608-0.418 0.509-0.811-0.065-0.369-0.314-0.495-0.314-0.495-0.353-0.176-0.849-0.059-1.030-0.127-0.225-0.050-0.367-0.245-0.381-0.321z"></path>
<path fill="#fff" d="M18.559 15.357c-0.187 0.296 0.029 0.558 0.27 0.453-0.028-0.205-0.080-0.335 0.107-0.532-0.132 0.008-0.251-0.039-0.377 0.079z"></path>
<path fill="#296526" d="M14.015 17.029l0.156-0.037 0.169 0.722-0.156 0.037zM15.313 19.468l0.328 0.373 0.122-0.104-0.308-0.387-0.142 0.117zM25.317 21.063l-0.406 0.286 0.090 0.133 0.417-0.265-0.101-0.154zM27.459 19.277l-0.362 0.34 0.108 0.119 0.376-0.32-0.122-0.139zM28.608 16.879l-0.132 0.325 0.072 0.093 0.142-0.309-0.082-0.109z"></path>
<path fill="#000" d="M17.502 10.443c0.030 0.039 0.012 0.109-0.041 0.156s-0.121 0.055-0.152 0.016c-0.030-0.039-0.012-0.109 0.041-0.156s0.121-0.055 0.152-0.016z"></path>
</svg>
