<!-- Generated by IcoMoon.io -->
<svg version="1.1" xmlns="http://www.w3.org/2000/svg" width="43" height="32" viewBox="0 0 43 32">
<title>MYR</title>
<path fill="#cc0001" d="M0-0.003h42.667v32.007h-42.667z"></path>
<path fill="#fff" d="M0 29.717h42.667v2.286h-42.667z"></path>
<path fill="#fff" d="M0 25.145h42.667v2.286h-42.667z"></path>
<path fill="#fff" d="M0 20.572h42.667v2.286h-42.667z"></path>
<path fill="#fff" d="M0 16h42.667v2.286h-42.667z"></path>
<path fill="#fff" d="M0 11.428h42.667v2.286h-42.667z"></path>
<path fill="#fff" d="M0 6.855h42.667v2.286h-42.667z"></path>
<path fill="#fff" d="M0 2.283h42.667v2.286h-42.667z"></path>
<path fill="#010066" d="M0-0.003h32.007v18.29h-32.007z"></path>
<path fill="#fc0" d="M13.168 2.283c-3.798 0-6.881 3.073-6.881 6.859s3.083 6.859 6.881 6.859c1.372 0 2.651-0.402 3.725-1.092-0.593 0.212-1.278 0.334-1.991 0.334-0.002 0-0.003 0-0.005 0h0c-3.368 0-6.102-2.724-6.102-6.081s2.734-6.082 6.102-6.082c0.744 0 1.457 0.133 2.117 0.376-1.098-0.74-2.422-1.172-3.847-1.172z"></path>
<path fill="#fc0" d="M24.58 12.712l-2.899-1.512 0.857 3.095-1.939-2.589-0.605 3.151-0.595-3.153-1.947 2.583 0.867-3.093-2.903 1.504 2.157-2.419-3.285 0.126 3.020-1.267-3.016-1.276 3.284 0.136-2.149-2.426 2.899 1.512-0.857-3.095 1.939 2.589 0.605-3.151 0.595 3.153 1.947-2.583-0.867 3.093 2.903-1.504-2.157 2.42 3.285-0.126-3.020 1.267 3.016 1.276-3.284-0.136z"></path>
</svg>
