<!-- Generated by IcoMoon.io -->
<svg version="1.1" xmlns="http://www.w3.org/2000/svg" width="43" height="32" viewBox="0 0 43 32">
<title>MZN</title>
<path fill="#009a00" d="M0 0h48v10h-48z"></path>
<path fill="#fff" d="M0 9.998h48v1.001h-48z"></path>
<path fill="#000" d="M0 10.999h48v10h-48z"></path>
<path fill="#fff" d="M0 20.999h48v1.001h-48z"></path>
<path fill="#ffca00" d="M0 22h48v10h-48z"></path>
<path fill="#f00" d="M0 0v32l21.001-16-21.001-16z"></path>
<path fill="#ffca00" d="M12.408 20.81l-3.202-2.344-3.198 2.345 1.24-3.769-3.218-2.317 3.968 0.015 1.209-3.777 1.212 3.779 3.965-0.018-3.219 2.321z"></path>
<path fill="#fff" d="M6.427 18.182h2.307c0.186 0.208 0.6 0.293 0.994-0.003 0.723-0.396 2.122 0.003 2.122 0.003l0.275-0.293-0.671-2.203-0.241-0.258s-0.516-0.31-1.498-0.207c-0.981 0.103-1.325-0.034-1.325-0.034s-0.861 0.103-1.102 0.224c-0.027 0.021-0.275 0.275-0.275 0.275l-0.585 2.496z"></path>
<path fill="#000" d="M4.929 18.446l0.543 0.636c0.064 0.038 0.12 0.036 0.177 0l0.804-0.965 0.338-0.418c0.052-0.062 0.069-0.131 0.064-0.193l0.645-0.574c0.053 0.004 0.084 0.010 0.137 0.013-0.062-0.016-0.108-0.047-0.059-0.115l0.145-0.113 0.112 0.145s-0.161 0.209-0.177 0.209h-0.177l-0.338 0.306 0.148 0.13 0.222 0.609 0.273-0.193-0.177-0.627 0.386-0.418-0.145-0.225 0.096-0.129s1.336 0.841 1.85 0.616c0.014 0.005 0.031-0.6 0.031-0.6s-1.383-0.145-1.415-0.418c-0.032-0.273 0.306-0.306 0.306-0.306l-0.145-0.209 0.032-0.113 0.241 0.306 0.547-0.466 3.216 3.666c0.176-0.071 0.213-0.114 0.225-0.289-0.005-0.004-3.151-3.618-3.151-3.618l0.241-0.257c0.047-0.054 0.064-0.076 0.064-0.161l0.37-0.322c0.111 0.038 0.182 0.105 0.241 0.193l1.017-0.862c0.027 0.027 0.108 0.054 0.163 0.024l1.681-1.614-1.832 1.294-0.065-0.048c0-0.054 0.066-0.067 0-0.161-0.071-0.085-0.177 0.080-0.193 0.080s-0.265-0.088-0.32-0.2l-0.018 0.296-0.466 0.434-0.354-0.016-0.514 0.498-0.064 0.193 0.080 0.161s-0.273 0.241-0.273 0.225c0-0.016-0.055-0.071-0.058-0.078l0.235-0.211 0.032-0.145-0.078-0.122c-0.024 0.017-0.324 0.331-0.34 0.299-0.027-0.030-0.868-0.981-0.868-0.981l0.048-0.177-0.547-0.595c-0.199-0.069-0.514-0.080-0.579 0.354-0.050 0.102-0.466 0.016-0.466 0.016l-0.225 0.048-1.27 1.801 0.707 0.852 1.447-1.833 0.043-0.519 0.304 0.339c0.101 0.013 0.198 0.014 0.289-0.032l0.857 0.957-0.143 0.139c0.048 0.054 0.081 0.088 0.13 0.141 0.048-0.032 0.094-0.071 0.143-0.103 0.016 0.021 0.043 0.062 0.059 0.084-0.072 0.039-0.122 0.091-0.194 0.13-0.115-0.075-0.226-0.168-0.217-0.317l-0.482 0.402-0.016 0.080-1.431 1.19-0.129 0.016-0.032 0.37 0.933-0.772v-0.113l0.096 0.080 0.724-0.579s0.048 0.064 0.032 0.064-0.643 0.579-0.643 0.579l-0.016 0.064-0.113 0.096-0.064-0.048-0.868 0.772h-0.129l-0.482 0.482c-0.124 0.011-0.232 0.024-0.338 0.096l-0.864 0.763z"></path>
</svg>
