<!-- Generated by IcoMoon.io -->
<svg version="1.1" xmlns="http://www.w3.org/2000/svg" width="43" height="32" viewBox="0 0 43 32">
<title>NAD</title>
<path fill="#fff" d="M0 0h42.667v32h-42.667z"></path>
<path fill="#3662a2" d="M-1.758 0.015l0.054 23.036 35.874-23.051-35.928 0.015z"></path>
<path fill="#38a100" d="M44.425 31.971l-0.084-23.953-36.186 23.971 36.271-0.018z"></path>
<path fill="#c70000" d="M-1.735 24.788l0.031 7.212 7.828-0.010 38.235-25.634-0.043-6.27-7.735-0.071-38.316 24.773z"></path>
<path fill="#ffe700" d="M14.637 11.462l-1.449-0.875-0.838 1.474-0.816-1.483-1.462 0.859 0.036-1.694-1.694 0.013 0.878-1.451-1.472-0.835 1.485-0.819-0.856-1.46 1.694 0.032-0.010-1.694 1.449 0.875 0.838-1.474 0.816 1.483 1.462-0.859-0.036 1.694 1.694-0.013-0.878 1.451 1.472 0.835-1.485 0.819 0.856 1.46-1.694-0.033z"></path>
<path fill="#3662a2" d="M15.492 7.496c0 1.703-1.391 3.083-3.108 3.083s-3.108-1.381-3.108-3.083 1.391-3.084 3.108-3.084 3.108 1.381 3.108 3.084z"></path>
<path fill="#ffe700" d="M14.818 7.496c0 1.344-1.089 2.433-2.433 2.433s-2.433-1.089-2.433-2.433 1.089-2.433 2.433-2.433 2.433 1.089 2.433 2.433z"></path>
</svg>
