<!-- Generated by IcoMoon.io -->
<svg version="1.1" xmlns="http://www.w3.org/2000/svg" width="43" height="32" viewBox="0 0 43 32">
<title>NIO</title>
<path fill="#0067c6" d="M0 0h42.667v32h-42.667z"></path>
<path fill="#fff" d="M0 10.667h42.667v10.667h-42.667z"></path>
<path fill="#c8a400" d="M16.533 15.964l0.532 0.036c0.002-0.026 0.003-0.052 0.005-0.078l-0.209-0.014c0.005-0.085 0.012-0.171 0.016-0.256 0.074-0.054 0.148-0.107 0.222-0.161l0.007-0.099-0.234 0.17c-0.008-0.055-0.039-0.112-0.094-0.132-0.049-0.018-0.108-0.021-0.151 0.014-0.054 0.039-0.063 0.11-0.070 0.171-0.009 0.116-0.016 0.233-0.024 0.349zM16.614 15.892c0.006-0.087 0.010-0.175 0.019-0.262 0.007-0.043 0.015-0.093 0.052-0.12 0.034-0.023 0.084-0.006 0.098 0.033 0.028 0.067 0.015 0.14 0.012 0.21l-0.010 0.152-0.171-0.011zM16.603 15.147c0.173 0.040 0.346 0.081 0.519 0.121l0.118-0.506c-0.025-0.006-0.049-0.011-0.074-0.017l-0.1 0.43-0.158-0.037c0.030-0.129 0.060-0.258 0.090-0.388l-0.073-0.017-0.091 0.387-0.14-0.033 0.097-0.414-0.074-0.017c-0.038 0.163-0.076 0.326-0.114 0.489zM16.79 14.45l0.504 0.175 0.026-0.074c-0.066-0.023-0.132-0.046-0.198-0.069 0.026-0.076 0.054-0.152 0.078-0.228 0.017-0.063 0.030-0.136-0.007-0.195-0.030-0.043-0.083-0.071-0.136-0.069-0.058 0.002-0.105 0.045-0.131 0.095-0.038 0.072-0.059 0.15-0.087 0.226l-0.048 0.139zM16.887 14.401c0.027-0.076 0.051-0.152 0.080-0.227 0.018-0.040 0.040-0.087 0.086-0.1 0.038-0.009 0.077 0.020 0.081 0.059 0.009 0.071-0.022 0.138-0.044 0.205l-0.042 0.119-0.162-0.056zM17.068 13.804c0.095 0.055 0.189 0.112 0.285 0.166 0.054 0.029 0.122 0.046 0.178 0.013 0.077-0.043 0.125-0.121 0.163-0.198 0.030-0.065 0.051-0.145 0.013-0.211-0.041-0.066-0.115-0.096-0.178-0.136l-0.184-0.108c-0.013 0.022-0.026 0.045-0.039 0.067 0.090 0.053 0.181 0.105 0.271 0.159 0.043 0.026 0.079 0.074 0.071 0.126-0.009 0.063-0.044 0.118-0.080 0.169-0.029 0.041-0.079 0.074-0.132 0.063-0.055-0.011-0.099-0.046-0.148-0.072l-0.181-0.106c-0.013 0.022-0.026 0.045-0.039 0.067zM17.452 13.177l0.424 0.324c0.066-0.086 0.131-0.172 0.197-0.257 0.038-0.054 0.073-0.125 0.047-0.192-0.023-0.053-0.078-0.094-0.137-0.097-0.026-0.004-0.061 0.016-0.075 0.025 0.015-0.057-0.032-0.11-0.084-0.125-0.063-0.022-0.127 0.018-0.169 0.063-0.049 0.053-0.090 0.114-0.135 0.17l-0.068 0.089zM17.559 13.161c0.050-0.063 0.097-0.129 0.148-0.191 0.024-0.027 0.063-0.057 0.1-0.038 0.034 0.015 0.043 0.058 0.026 0.089-0.026 0.055-0.069 0.1-0.104 0.15-0.019 0.025-0.039 0.051-0.058 0.076-0.038-0.029-0.075-0.057-0.113-0.086zM17.732 13.293c0.051-0.066 0.1-0.134 0.154-0.197 0.028-0.029 0.063-0.066 0.106-0.057 0.038 0.009 0.065 0.049 0.052 0.087-0.021 0.070-0.073 0.123-0.115 0.181l-0.066 0.087-0.131-0.1zM17.932 12.611l0.366 0.388 0.314-0.296-0.052-0.055-0.257 0.243-0.005-0.005-0.31-0.328zM18.402 12.2l0.325 0.423 0.063-0.049-0.325-0.423zM18.88 11.876c-0.053 0.033-0.095 0.071-0.128 0.116s-0.050 0.091-0.053 0.14c-0.003 0.049 0.010 0.096 0.039 0.142 0.026 0.042 0.062 0.075 0.104 0.098l0.001 0.001c0.033 0.018 0.071 0.028 0.113 0.028 0.011 0 0.021-0.001 0.031-0.002l-0.001 0c0.052-0.006 0.11-0.029 0.174-0.069 0.062-0.039 0.106-0.083 0.133-0.135 0.026-0.049 0.033-0.101 0.022-0.157l-0.074 0.029c0.019 0.107-0.049 0.158-0.126 0.207-0.12 0.073-0.238 0.068-0.31-0.042-0.075-0.124 0.007-0.227 0.109-0.293 0.073-0.045 0.144-0.076 0.213-0.033l0.058-0.051c-0.034-0.024-0.076-0.038-0.121-0.038-0.005 0-0.011 0-0.016 0.001l0.001-0c-0.054 0.003-0.11 0.023-0.17 0.060zM19.51 11.561l-0.056 0.598 0.083-0.033 0.017-0.185h0l0.27-0.109 0.141 0.122 0.083-0.034-0.455-0.392-0.083 0.033zM19.583 11.623l0.177 0.153-0.199 0.080 0.021-0.234zM20.679 11.232l0.033 0.532c0.096-0.006 0.193-0.011 0.289-0.019 0.076-0.009 0.157-0.028 0.209-0.088 0.067-0.074 0.076-0.185 0.047-0.277-0.025-0.081-0.097-0.142-0.18-0.158-0.081-0.016-0.164-0.003-0.246 0l-0.151 0.010zM20.761 11.302c0.077-0.004 0.153-0.012 0.23-0.012 0.002-0 0.004-0 0.007-0 0.043 0 0.083 0.014 0.116 0.038l-0.001-0c0.053 0.037 0.085 0.102 0.078 0.167-0.004 0.074-0.058 0.142-0.13 0.161-0.041 0.011-0.084 0.014-0.126 0.018l-0.149 0.009c-0.008-0.127-0.016-0.254-0.024-0.381zM21.422 11.2c-0.010 0.177-0.020 0.355-0.030 0.532l0.518 0.030 0.004-0.076c-0.147-0.008-0.294-0.017-0.441-0.025l0.009-0.162c0.132 0.007 0.265 0.015 0.397 0.023l0.004-0.075c-0.132-0.007-0.265-0.015-0.397-0.023 0.003-0.048 0.006-0.096 0.008-0.143 0.141 0.008 0.283 0.016 0.424 0.024l0.004-0.076-0.502-0.029zM22.815 11.422l-0.193 0.497 0.069 0.027 0.153-0.394 0.008-0.020 0.009 0.023 0.184 0.529 0.090 0.035 0.193-0.497-0.069-0.027-0.161 0.414-0.008-0.023-0.184-0.529zM23.531 11.73l-0.242 0.475-0.071-0.036 0.243-0.475zM23.933 11.966c-0.052-0.034-0.104-0.057-0.159-0.068s-0.104-0.008-0.149 0.010c-0.045 0.018-0.083 0.049-0.112 0.095-0.026 0.039-0.042 0.086-0.045 0.136l-0 0.001c-0.003 0.050 0.009 0.096 0.036 0.141s0.072 0.088 0.135 0.13c0.061 0.040 0.12 0.062 0.178 0.065 0.004 0 0.009 0 0.014 0 0.052 0 0.1-0.017 0.138-0.046l-0.001 0-0.057-0.055c-0.089 0.062-0.164 0.021-0.241-0.029-0.117-0.079-0.161-0.188-0.091-0.299 0.082-0.12 0.209-0.088 0.312-0.023 0.072 0.047 0.13 0.099 0.119 0.18l0.071 0.031c0.008-0.048 0.001-0.094-0.023-0.14-0.025-0.048-0.067-0.091-0.126-0.129zM24.441 12.349l-0.558 0.222 0.068 0.059 0.173-0.069 0 0 0.22 0.191-0.044 0.181 0.068 0.059 0.142-0.583-0.068-0.059zM24.42 12.442l-0.056 0.228-0.162-0.14 0.218-0.087zM24.844 12.719l-0.412 0.339 0.050 0.060 0.162-0.133c0.055 0.066 0.108 0.133 0.164 0.198-0.017 0.090-0.034 0.18-0.051 0.269l0.063 0.076c0.018-0.095 0.036-0.19 0.054-0.284 0.046 0.038 0.113 0.057 0.169 0.027 0.047-0.022 0.089-0.065 0.092-0.12 0.006-0.073-0.047-0.133-0.089-0.188-0.067-0.081-0.134-0.163-0.201-0.244zM24.835 12.828c0.058 0.071 0.118 0.14 0.173 0.213 0.025 0.038 0.057 0.091 0.028 0.135-0.024 0.038-0.077 0.034-0.109 0.010-0.065-0.044-0.108-0.111-0.159-0.17l-0.065-0.079 0.132-0.109zM25.468 13.568l-0.6 0.028 0.045 0.078 0.186-0.009 0 0 0.145 0.252-0.101 0.156 0.045 0.078 0.325-0.505-0.045-0.078zM25.417 13.649l-0.127 0.197-0.107-0.186 0.234-0.011zM25.81 14.274c-0.033-0.090-0.086-0.183-0.175-0.228-0.099-0.050-0.231-0.026-0.301 0.062-0.061 0.072-0.064 0.175-0.048 0.264 0.019 0.102 0.066 0.2 0.137 0.277-0.013 0.005-0.027 0.009-0.040 0.014l0.026 0.071c0.083-0.030 0.167-0.060 0.25-0.090-0.032-0.090-0.065-0.18-0.097-0.27-0.019 0.007-0.038 0.014-0.058 0.021l0.071 0.199c-0.028 0.010-0.056 0.020-0.085 0.030-0.075-0.064-0.116-0.159-0.138-0.253-0.016-0.071-0.017-0.156 0.037-0.211 0.062-0.064 0.171-0.084 0.245-0.029 0.073 0.053 0.114 0.14 0.135 0.226 0.014 0.057 0.012 0.124-0.031 0.168-0.012 0.009 0.007 0.022 0.010 0.032l0.020 0.034c0.044-0.035 0.072-0.088 0.072-0.148 0-0.001 0-0.001 0-0.001v0c0.002-0.057-0.011-0.113-0.030-0.166zM25.963 14.691l-0.298 0.058c-0.055 0.011-0.097 0.028-0.125 0.052s-0.045 0.056-0.054 0.1c-0.008 0.043-0.007 0.096 0.005 0.161 0 0 0 0.001 0 0.001v0c0.013 0.064 0.031 0.114 0.056 0.151s0.053 0.061 0.087 0.072c0.034 0.011 0.079 0.012 0.135 0.001l0.298-0.058-0.015-0.076-0.291 0.057c-0.131 0.025-0.175-0.043-0.197-0.161l-0-0.001c-0.023-0.118-0.008-0.198 0.122-0.223l0.291-0.057-0.015-0.076zM26.127 15.598l-0.552-0.236 0.006 0.089 0.171 0.073v0l0.021 0.29-0.159 0.097 0.007 0.089 0.512-0.313-0.006-0.089zM26.046 15.649l-0.2 0.122-0.015-0.214 0.216 0.092zM16.947 16.978l-0.077 0.020 0.086 0.325 0.077-0.020zM25.722 16.978l0.077 0.020-0.085 0.325-0.077-0.020zM17.772 18.346l-0.596 0.069 0.050 0.074 0.185-0.022 0 0 0.162 0.242-0.090 0.163 0.050 0.074 0.29-0.526-0.050-0.074zM17.727 18.43l-0.114 0.205-0.119-0.178 0.233-0.027zM18 18.672l-0.38 0.355 0.051 0.054 0.32-0.3-0.168 0.462 0.058 0.062 0.459-0.139-0.315 0.294 0.051 0.054 0.38-0.355-0.077-0.082-0.467 0.139 0.175-0.452zM18.553 19.237l-0.321 0.426 0.415 0.312 0.046-0.061-0.353-0.266 0.098-0.13 0.318 0.239 0.045-0.060-0.318-0.239 0.086-0.115c0.113 0.085 0.226 0.17 0.34 0.256l0.046-0.061-0.401-0.302zM19.075 19.619l-0.251 0.471 0.069 0.037 0.099-0.185c0.076 0.040 0.151 0.082 0.227 0.12 0.018 0.090 0.037 0.179 0.055 0.268l0.087 0.047-0.059-0.283c0.057 0.017 0.127 0.009 0.166-0.039 0.034-0.038 0.056-0.090 0.040-0.141-0.019-0.070-0.087-0.106-0.145-0.14-0.096-0.052-0.193-0.103-0.289-0.154zM19.108 19.722c0.080 0.044 0.163 0.085 0.241 0.131 0.037 0.025 0.083 0.058 0.078 0.108-0.004 0.044-0.051 0.067-0.091 0.058-0.078-0.013-0.143-0.059-0.213-0.094l-0.097-0.052 0.081-0.151zM19.678 19.934l-0.202 0.494 0.074 0.030 0.202-0.494zM20.159 20.1c-0.059-0.020-0.116-0.028-0.171-0.024s-0.102 0.020-0.141 0.049c-0.039 0.029-0.067 0.069-0.084 0.121-0.009 0.026-0.014 0.056-0.014 0.087 0 0.020 0.002 0.040 0.006 0.058l-0-0.002c0.010 0.049 0.033 0.090 0.071 0.127s0.092 0.066 0.164 0.090c0.070 0.023 0.132 0.028 0.189 0.017 0.055-0.011 0.102-0.041 0.135-0.083l0-0-0.069-0.038c-0.070 0.083-0.153 0.063-0.24 0.035-0.133-0.046-0.204-0.14-0.165-0.265 0.048-0.137 0.179-0.139 0.296-0.103 0.081 0.027 0.151 0.062 0.161 0.142l0.076 0.012c-0.005-0.050-0.026-0.095-0.059-0.129l0 0c-0.037-0.040-0.088-0.070-0.155-0.092zM20.695 20.22l-0.349 0.488 0.089 0.013 0.108-0.152h0l0.288 0.042 0.060 0.176 0.089 0.013-0.196-0.567-0.089-0.013zM20.727 20.309l0.076 0.222-0.212-0.031 0.136-0.191zM21.945 20.224c-0.061 0.012-0.114 0.032-0.161 0.063s-0.080 0.067-0.099 0.112c-0.020 0.045-0.025 0.093-0.014 0.146 0.009 0.049 0.031 0.092 0.063 0.13s0.073 0.063 0.124 0.076c0.050 0.013 0.113 0.013 0.187-0.002 0.072-0.014 0.129-0.040 0.173-0.078 0.040-0.035 0.068-0.083 0.077-0.137l0-0.001-0.079 0c-0.020 0.106-0.103 0.13-0.192 0.148-0.139 0.025-0.246-0.022-0.274-0.15-0.025-0.143 0.088-0.209 0.207-0.235 0.084-0.016 0.162-0.020 0.21 0.045l0.072-0.027c-0.027-0.040-0.067-0.069-0.113-0.083l-0.002-0c-0.051-0.017-0.111-0.018-0.18-0.005zM22.301 20.161c0.051 0.17 0.101 0.341 0.152 0.511 0.166-0.049 0.332-0.098 0.498-0.148-0.007-0.024-0.014-0.048-0.022-0.073l-0.423 0.126c-0.015-0.052-0.031-0.104-0.046-0.156 0.127-0.038 0.254-0.075 0.381-0.113l-0.021-0.072-0.381 0.113-0.041-0.138 0.407-0.121-0.022-0.073-0.482 0.143zM22.878 19.979c0.075 0.161 0.149 0.323 0.224 0.484l0.067-0.031-0.187-0.404c0.173 0.078 0.344 0.159 0.516 0.238 0.011 0.010 0.023 0.003 0.034-0.003l0.067-0.031c-0.075-0.161-0.149-0.323-0.224-0.484l-0.067 0.031 0.187 0.403c-0.177-0.080-0.354-0.163-0.53-0.244-0.029 0.013-0.058 0.027-0.087 0.040zM23.464 19.704l0.042 0.063 0.198-0.13 0.251 0.382 0.065-0.043-0.251-0.382 0.007-0.005 0.191-0.126-0.042-0.063zM24 19.337l0.361 0.392c0.019-0.018 0.038-0.035 0.057-0.053l-0.142-0.154c0.063-0.058 0.127-0.115 0.188-0.175 0.091 0.012 0.181 0.024 0.272 0.036l0.073-0.067-0.287-0.038c0.035-0.048 0.050-0.116 0.017-0.17-0.025-0.046-0.070-0.085-0.125-0.085-0.074-0.002-0.13 0.054-0.182 0.099l-0.232 0.214zM24.109 19.34c0.068-0.061 0.133-0.126 0.203-0.185 0.036-0.027 0.088-0.062 0.133-0.035 0.039 0.022 0.039 0.075 0.016 0.108-0.040 0.068-0.105 0.115-0.161 0.169l-0.075 0.069c-0.039-0.042-0.078-0.084-0.116-0.126zM24.621 18.716l0.239 0.551 0.057-0.069-0.074-0.17 0-0 0.184-0.225 0.182 0.039 0.057-0.069-0.587-0.125-0.057 0.069zM24.714 18.734l0.229 0.049-0.136 0.166-0.094-0.215zM24.853 18.413l0.448 0.29 0.235-0.362-0.064-0.041-0.193 0.297-0.006-0.004-0.378-0.245z"></path>
<path fill="#fff" d="M21.333 12.075l-2.501 4.333h5.003l-2.501-4.333z"></path>
<path fill="#17c0eb" opacity="0.62" d="M21.333 12.075l-0.126 0.218 0.126 2.932 0.126-2.932z"></path>
<path fill="#fff" d="M21.333 14.799l-0.007 0 0.007 0.166 0.007-0.166c-0.002 0-0.005-0-0.007-0z"></path>
<path fill="#17c0eb" opacity="0.62" d="M24.329 14.252l-0.246-0.052-2.75 1.026 2.827-0.786z"></path>
<path fill="#fff" d="M21.739 15.093l-0.002-0.007-0.156 0.058 0.16-0.044c-0.001-0.002-0.001-0.005-0.002-0.007z"></path>
<path fill="#17c0eb" opacity="0.62" d="M23.185 17.773l-0.026-0.25-1.825-2.298 1.622 2.446z"></path>
<path fill="#fff" d="M21.584 15.57l0.006-0.004-0.103-0.13 0.092 0.138c0.002-0.001 0.004-0.003 0.006-0.004z"></path>
<path fill="#17c0eb" opacity="0.62" d="M19.482 17.773l0.23-0.102 1.622-2.446-1.825 2.298z"></path>
<path fill="#fff" d="M21.083 15.57l0.006 0.004 0.092-0.138-0.103 0.13c0.002 0.001 0.004 0.003 0.006 0.004z"></path>
<path fill="#17c0eb" opacity="0.62" d="M18.338 14.252l0.168 0.187 2.827 0.787-2.75-1.026z"></path>
<path fill="#fff" d="M20.928 15.093l-0.002 0.007 0.16 0.044-0.156-0.058c-0.001 0.002-0.002 0.005-0.002 0.007z"></path>
<path fill="#17c0eb" opacity="0.62" d="M21.772 12.106l-0.155 0.198-0.284 2.921 0.533-2.886z"></path>
<path fill="#fff" d="M21.393 14.803l-0.007-0.001-0.016 0.165 0.030-0.163c-0.002-0-0.005-0.001-0.007-0.001z"></path>
<path fill="#fff" d="M21.753 15.151l-0.001-0.007-0.162 0.036 0.165-0.022c-0-0.002-0.001-0.005-0.001-0.007z"></path>
<path fill="#fff" d="M21.533 15.601l0.006-0.003-0.084-0.143 0.072 0.15c0.002-0.001 0.004-0.002 0.006-0.003z"></path>
<path fill="#fff" d="M21.037 15.532l0.005 0.005 0.11-0.124-0.12 0.114c0.002 0.002 0.003 0.003 0.005 0.005z"></path>
<path fill="#fff" d="M20.95 15.038l-0.003 0.006 0.152 0.066-0.146-0.079c-0.001 0.002-0.002 0.004-0.003 0.006z"></path>
<path fill="#17c0eb" opacity="0.62" stroke="#17c0eb" stroke-linejoin="miter" stroke-linecap="butt" stroke-miterlimit="4" stroke-width="0.0086" d="M22.202 12.197l-0.181 0.175-0.687 2.853 0.929-2.784z"></path>
<path fill="#fff" d="M21.451 14.815l-0.007-0.002-0.039 0.161 0.053-0.157c-0.002-0.001-0.005-0.001-0.007-0.002z"></path>
<path fill="#fff" d="M21.759 15.21l-0-0.007-0.166 0.013 0.166 0.001c-0-0.002 0-0.005-0-0.007z"></path>
<path fill="#fff" d="M21.479 15.625l0.007-0.003-0.063-0.153 0.050 0.158c0.002-0.001 0.005-0.002 0.007-0.002z"></path>
<path fill="#fff" d="M20.997 15.487l0.005 0.005 0.126-0.108-0.135 0.096c0.001 0.002 0.003 0.004 0.004 0.006z"></path>
<path fill="#fff" d="M20.98 14.987l-0.004 0.006 0.142 0.087-0.133-0.099c-0.001 0.002-0.003 0.004-0.004 0.006z"></path>
<path fill="#17c0eb" opacity="0.62" stroke="#17c0eb" stroke-linejoin="miter" stroke-linecap="butt" stroke-miterlimit="4" stroke-width="0.0086" d="M22.614 12.347l-0.203 0.148-1.078 2.73 1.307-2.627z"></path>
<path fill="#fff" d="M21.507 14.836l-0.007-0.003-0.061 0.154 0.074-0.149c-0.002-0.001-0.004-0.002-0.006-0.003z"></path>
<path fill="#fff" d="M21.757 15.269l0.001-0.007-0.166-0.010 0.164 0.024c0-0.002 0.001-0.005 0.001-0.007z"></path>
<path fill="#fff" d="M21.422 15.642l0.007-0.002-0.041-0.161 0.027 0.164c0.002-0.001 0.005-0.001 0.007-0.001z"></path>
<path fill="#fff" d="M20.964 15.438l0.004 0.006 0.14-0.089-0.147 0.077c0.001 0.002 0.002 0.004 0.003 0.006z"></path>
<path fill="#fff" d="M21.017 14.94l-0.005 0.005 0.128 0.106-0.118-0.116c-0.002 0.002-0.003 0.003-0.005 0.005z"></path>
<path fill="#17c0eb" opacity="0.62" stroke="#17c0eb" stroke-linejoin="miter" stroke-linecap="butt" stroke-miterlimit="4" stroke-width="0.0086" d="M23.002 12.554l-0.222 0.118-1.447 2.553 1.66-2.42z"></path>
<path fill="#fff" d="M21.559 14.863l-0.006-0.004-0.082 0.144 0.094-0.137c-0.002-0.001-0.004-0.003-0.006-0.004z"></path>
<path fill="#fff" d="M21.747 15.328l0.002-0.007-0.163-0.033 0.159 0.047c0.001-0.002 0.001-0.005 0.002-0.007z"></path>
<path fill="#fff" d="M21.363 15.65l0.007-0.001-0.019-0.165 0.004 0.166c0.002-0 0.005-0 0.007-0z"></path>
<path fill="#fff" d="M20.938 15.385l0.003 0.007 0.151-0.069-0.157 0.055c0.001 0.002 0.002 0.005 0.003 0.007z"></path>
<path fill="#fff" d="M21.059 14.898l-0.005 0.005 0.112 0.122-0.101-0.132c-0.002 0.002-0.004 0.003-0.006 0.004z"></path>
<path fill="#17c0eb" opacity="0.62" stroke="#17c0eb" stroke-linejoin="miter" stroke-linecap="butt" stroke-miterlimit="4" stroke-width="0.0086" d="M23.358 12.812l-0.236 0.086-1.788 2.327 1.981-2.165z"></path>
<path fill="#fff" d="M21.607 14.898l-0.006-0.004-0.101 0.132 0.112-0.122c-0.002-0.002-0.004-0.003-0.005-0.005z"></path>
<path fill="#fff" d="M21.729 15.385l0.003-0.007-0.156-0.056 0.151 0.069c0.001-0.002 0.002-0.004 0.003-0.007z"></path>
<path fill="#fff" d="M21.304 15.65l0.007 0 0.004-0.166-0.019 0.165c0.002 0 0.005 0.001 0.007 0.001z"></path>
<path fill="#fff" d="M20.92 15.328l0.002 0.007 0.159-0.047-0.163 0.033c0.001 0.002 0.001 0.005 0.002 0.007z"></path>
<path fill="#fff" d="M21.107 14.863l-0.006 0.004 0.094 0.137-0.082-0.144c-0.002 0.001-0.004 0.002-0.006 0.004z"></path>
<path fill="#17c0eb" opacity="0.62" stroke="#17c0eb" stroke-linejoin="miter" stroke-linecap="butt" stroke-miterlimit="4" stroke-width="0.0086" d="M23.674 13.117l-0.246 0.052-2.095 2.055 2.263-1.869z"></path>
<path fill="#fff" d="M21.65 14.94l-0.005-0.005-0.118 0.116 0.128-0.106c-0.002-0.002-0.003-0.004-0.005-0.005z"></path>
<path fill="#fff" d="M21.702 15.438l0.003-0.006-0.147-0.077 0.14 0.089c0.001-0.002 0.003-0.004 0.004-0.006z"></path>
<path fill="#fff" d="M21.245 15.642l0.007 0.001 0.027-0.164-0.042 0.161c0.002 0.001 0.005 0.001 0.007 0.002z"></path>
<path fill="#fff" d="M20.909 15.269l0.001 0.007 0.164-0.024-0.166 0.010c0 0.002 0 0.005 0.001 0.007z"></path>
<path fill="#fff" d="M21.16 14.836l-0.006 0.003 0.074 0.149-0.061-0.154c-0.002 0.001-0.004 0.002-0.007 0.003z"></path>
<path fill="#17c0eb" opacity="0.62" stroke="#17c0eb" stroke-linejoin="miter" stroke-linecap="butt" stroke-miterlimit="4" stroke-width="0.0086" d="M23.945 13.464l-0.251 0.018-2.361 1.744 2.501-1.535z"></path>
<path fill="#fff" d="M21.687 14.987l-0.004-0.006-0.134 0.099 0.142-0.087c-0.001-0.002-0.003-0.004-0.004-0.006z"></path>
<path fill="#fff" d="M21.669 15.487l0.004-0.006-0.135-0.097 0.126 0.108c0.001-0.002 0.003-0.004 0.005-0.006z"></path>
<path fill="#fff" d="M21.188 15.625l0.007 0.002 0.050-0.158-0.064 0.153c0.002 0.001 0.004 0.002 0.007 0.003z"></path>
<path fill="#fff" d="M20.907 15.21l-0 0.007 0.166-0.001-0.166-0.013c-0 0.002-0 0.005-0 0.007z"></path>
<path fill="#fff" d="M21.216 14.815l-0.007 0.002 0.053 0.157-0.039-0.161c-0.002 0.001-0.005 0.001-0.007 0.002z"></path>
<path fill="#17c0eb" opacity="0.62" stroke="#17c0eb" stroke-linejoin="miter" stroke-linecap="butt" stroke-miterlimit="4" stroke-width="0.0086" d="M24.164 13.844l-0.251-0.018-2.58 1.398 2.691-1.172z"></path>
<path fill="#fff" d="M21.716 15.038l-0.003-0.006-0.146 0.079 0.152-0.066c-0.001-0.002-0.002-0.004-0.003-0.007z"></path>
<path fill="#fff" d="M21.629 15.532l0.005-0.005-0.12-0.114 0.11 0.124c0.002-0.002 0.004-0.003 0.005-0.005z"></path>
<path fill="#fff" d="M21.133 15.601l0.006 0.003 0.072-0.15-0.084 0.143c0.002 0.001 0.004 0.002 0.006 0.004z"></path>
<path fill="#fff" d="M20.914 15.151l-0.001 0.007 0.165 0.022-0.162-0.036c-0 0.002-0.001 0.005-0.001 0.007z"></path>
<path fill="#fff" d="M21.274 14.803l-0.007 0.001 0.030 0.163-0.016-0.165c-0.002 0-0.005 0.001-0.007 0.001z"></path>
<path fill="#f00" d="M21.333 14.178c-0.001 0-0.002 0-0.003 0-0.591 0-1.131 0.217-1.545 0.576l0.003-0.002-0.782 1.355c-0.027 0.142-0.040 0.29-0.040 0.44h0.268c0-1.159 0.94-2.098 2.098-2.098s2.098 0.94 2.098 2.098h0.268c0-0.15-0.013-0.298-0.040-0.44l-0.782-1.355c-0.411-0.356-0.951-0.573-1.542-0.573-0.001 0-0.002 0-0.003 0h0z"></path>
<path fill="#f60" d="M21.333 14.222c-0.627 0-1.197 0.249-1.615 0.653l-0.642 1.112c-0.043 0.168-0.068 0.361-0.068 0.559 0 0 0 0 0 0.001v-0h0.227c0-1.159 0.94-2.098 2.098-2.098s2.098 0.94 2.098 2.098h0.227c0-0 0-0 0-0.001 0-0.199-0.025-0.393-0.072-0.577l0.003 0.016-0.642-1.11c-0.418-0.404-0.988-0.653-1.615-0.653z"></path>
<path fill="#ff0" d="M21.333 14.265c-0.677 0-1.285 0.294-1.703 0.763l-0.465 0.805c-0.072 0.212-0.113 0.456-0.113 0.71 0 0.001 0 0.003 0 0.004v-0h0.183c0-1.159 0.94-2.098 2.098-2.098s2.098 0.94 2.098 2.098h0.183c0-0.249-0.039-0.489-0.113-0.713l-0.465-0.805c-0.418-0.469-1.026-0.763-1.703-0.763z"></path>
<path fill="#0f0" d="M21.333 14.307c-0.776 0-1.46 0.395-1.862 0.995l-0.15 0.26c-0.144 0.287-0.228 0.625-0.228 0.983 0 0.001 0 0.002 0 0.002v-0h0.142c0-1.159 0.94-2.098 2.098-2.098s2.098 0.94 2.098 2.098h0.142c0-0 0-0 0-0 0-0.358-0.084-0.696-0.234-0.996l0.006 0.013-0.152-0.263c-0.402-0.599-1.085-0.993-1.86-0.993z"></path>
<path fill="#0cf" d="M21.333 14.35c-1.213 0-2.197 0.983-2.197 2.197h0.098c0-1.159 0.94-2.098 2.098-2.098s2.098 0.94 2.098 2.098h0.098c0-1.213-0.983-2.197-2.197-2.197z"></path>
<path fill="#00f" d="M21.333 14.392c-1.19 0-2.153 0.965-2.153 2.155h0.072c0-1.15 0.932-2.082 2.082-2.082s2.082 0.932 2.082 2.082h0.073c0-1.19-0.965-2.155-2.155-2.155z"></path>
<path fill="#800080" d="M21.333 14.435c-1.166 0-2.111 0.945-2.111 2.111 0 0.013 0 0.026 0 0.039h0.043c-0-0.013-0-0.026-0-0.039 0-1.143 0.926-2.069 2.069-2.069s2.069 0.926 2.069 2.069c0 0.013-0 0.026-0 0.039h0.043c0-0.013 0-0.026 0-0.039 0-1.166-0.945-2.111-2.111-2.111z"></path>
<path fill="#510000" d="M21.354 15.367c-0.034-0.007-0.065-0.026-0.095-0.033-0.040 0.039-0.045 0.078-0.039 0.111 0.014 0.007 0.017 0.019 0.047 0.046s0.026 0.041 0.025 0.105c-0.001 0.027 0.004 0.084 0.031 0.090 0.029 0.006 0.050-0.018 0.058-0.062 0.008-0.042 0.022-0.065 0.037-0.091 0.016-0.099-0.010-0.134-0.064-0.166z"></path>
<path fill="#f00" d="M21.182 15.121c-0.032 0.001-0.081 0.054-0.104 0.025-0.013-0.017-0.015-0.048-0.002-0.075 0.030-0.061 0.060-0.092 0.116-0.124 0.127-0.075 0.207-0.051 0.271 0.057 0.058 0.095 0.115 0.199 0.12 0.286 0.002 0.027 0.015 0.075-0.008 0.099-0.072 0.074-0.245-0.076-0.347-0.053-0.034 0.008-0.073 0.033-0.106 0.012-0.025-0.017-0.004-0.053 0.015-0.069 0.033-0.028 0.080-0.126 0.074-0.169-0.004-0.024-0.004 0.010-0.028 0.010z"></path>
<path fill="#000" d="M21.169 15.069c-0.058 0.024-0.052 0.057-0.081 0.085 0.008 0.003 0.041 0.017 0.073-0.016 0.014-0.011 0.029-0.016 0.036-0.019-0.016 0.012-0.028 0.030-0.036 0.036-0.022 0.018-0.055 0.058-0.071 0.098s-0.023 0.089-0.020 0.095c0.003 0.006 0.023 0.042 0.084 0.066 0.108 0.043 0.129 0.13 0.239 0.13 0.086 0 0.072-0.056 0.141-0.044 0.060 0.010 0.091-0.037 0.034-0.066-0.073-0.025-0.218-0.010-0.287 0.002-0.022-0.218-0.003-0.141-0.008-0.235s-0.033-0.099 0.004-0.175c-0.031 0.046-0.068 0.039-0.107 0.043z"></path>
<path fill="#ff2a2a" d="M21.383 14.922c-0.002 0.012-0.004 0.028-0.003 0.032 0.005 0.018 0.009 0.037 0.015 0.053 0.006 0.018 0.009 0.031 0.013 0.049s0.021 0.027 0.037 0.039c0.020 0.015 0.004 0.055 0.017 0.057 0.010 0.001 0.026-0.057 0.026-0.066 0-0.013-0-0.023-0.002-0.034-0.009-0.021-0.017-0.036-0.025-0.051l0.002 0.004c-0-0-0-0-0.001-0.001-0.004-0.007-0.007-0.013-0.011-0.018l0 0.001c-0.012-0.018-0.026-0.033-0.042-0.046l-0-0c-0.001-0.001-0.002-0.002-0.003-0.002-0.004-0.003-0.008-0.006-0.013-0.009l-0.001-0c-0.003-0.002-0.007-0.004-0.010-0.006z"></path>
<path fill="#000" d="M21.4 15.328c-0.038-0.010-0.076-0.029-0.109-0.039-0.064-0.019-0.132-0.060-0.18-0.043-0.017 0.007-0.015 0.024-0.021 0.049-0.002 0.028-0.032 0.070-0.007 0.057 0.037-0.020 0.133 0.039 0.165 0.059 0.015 0.009 0.048 0.028 0.058 0.055s0.005 0.094 0.002 0.122c-0.003 0.030 0.006 0.098 0.037 0.106 0.033 0.009 0.058-0.017 0.070-0.066 0.012-0.047 0.022-0.074 0.040-0.102s0.040-0.040 0.070-0.046c0.030-0.006 0.074 0.025 0.074-0.011 0-0.023-0.021-0.046-0.012-0.078 0.007-0.025-0.021-0.020-0.045-0.030-0.055-0.017-0.105-0.022-0.143-0.032z"></path>
<path fill="#910000" d="M21.246 15.408c-0.017-0.009-0.123-0.079-0.162-0.057-0.012 0.007-0.017-0.001-0.017-0.014s0.006-0.032 0.010-0.046c0.004-0.015 0.010-0.042 0.028-0.057 0.037-0.031 0.121 0.031 0.166 0.047-0.004 0.023-0.025 0.126-0.024 0.126z"></path>
<path fill="#ff3a3a" d="M21.427 15.539c0.049-0.085 0.080-0.074 0.139-0.073 0.020 0 0.025-0.018 0.021-0.036-0.015 0.033-0.089-0.004-0.129 0.014-0.084 0.037-0.068 0.201-0.108 0.217 0.041 0.035 0.060-0.093 0.077-0.122z"></path>
<path fill="#fff" d="M18.832 16.408l-0.531 0.919h6.064l-0.531-0.919h-5.003z"></path>
<path fill="#000" d="M18.651 17.139c-0.088 0-0.171 0.009-0.251 0.019l-0.026 0.045c0.13-0.012 0.25-0.035 0.381-0.038 0.176 0.004 0.335 0.044 0.522 0.044 0.081 0.001 0.161-0.002 0.241 0 0.187 0 0.346-0.040 0.522-0.044 0.176 0.004 0.336 0.044 0.523 0.044 0.081 0 0.169-0.001 0.242 0 0.187 0 0.345-0.040 0.521-0.044 0.176 0.004 0.334 0.044 0.521 0.044 0.082 0.001 0.162-0.002 0.242 0 0.187 0 0.346-0.040 0.522-0.044 0.176 0.004 0.335 0.044 0.522 0.044 0.081 0.001 0.162-0.002 0.242 0 0.187 0 0.345-0.040 0.521-0.044 0.136 0.003 0.262 0.028 0.399 0.039l-0.027-0.048c-0.075-0.009-0.151-0.017-0.233-0.017-0.081-0.001-0.162 0.002-0.242 0-0.187 0-0.345 0.040-0.521 0.044-0.176-0.004-0.335-0.044-0.522-0.044-0.081-0.001-0.162 0.002-0.241 0-0.187 0-0.346 0.040-0.522 0.044-0.176-0.004-0.335-0.044-0.522-0.044-0.081-0.001-0.162 0.002-0.242 0-0.187 0-0.345 0.040-0.521 0.044-0.176-0.004-0.334-0.044-0.521-0.044-0.081-0.001-0.161 0.002-0.241 0-0.187 0-0.346 0.040-0.522 0.044-0.176-0.004-0.335-0.044-0.522-0.044-0.081-0.001-0.162 0.002-0.242 0z"></path>
<path fill="#000" d="M18.651 17.080c-0.088 0-0.171 0.009-0.251 0.019l-0.026 0.045c0.13-0.012 0.25-0.035 0.381-0.038 0.176 0.004 0.335 0.044 0.522 0.044 0.081 0.001 0.161-0.002 0.241 0 0.187 0 0.346-0.040 0.522-0.044 0.176 0.004 0.336 0.044 0.523 0.044 0.081 0 0.169-0.001 0.242 0 0.187 0 0.345-0.040 0.521-0.044 0.176 0.004 0.334 0.044 0.521 0.044 0.082 0.001 0.162-0.002 0.242 0 0.187 0 0.346-0.040 0.522-0.044 0.176 0.004 0.335 0.044 0.522 0.044 0.081 0.001 0.162-0.002 0.242 0 0.187 0 0.345-0.040 0.521-0.044 0.136 0.003 0.262 0.028 0.399 0.039l-0.027-0.048c-0.075-0.009-0.151-0.017-0.233-0.017-0.081-0.001-0.162 0.002-0.242 0-0.187 0-0.345 0.040-0.521 0.044-0.176-0.004-0.335-0.044-0.522-0.044-0.081-0.001-0.162 0.002-0.241 0-0.187 0-0.346 0.040-0.522 0.044-0.176-0.004-0.335-0.044-0.522-0.044-0.081-0.001-0.162 0.002-0.242 0-0.187 0-0.345 0.040-0.521 0.044-0.176-0.004-0.334-0.044-0.521-0.044-0.081-0.001-0.161 0.002-0.241 0-0.187 0-0.346 0.040-0.522 0.044-0.176-0.004-0.335-0.044-0.522-0.044-0.081-0.001-0.162 0.002-0.242 0z"></path>
<path fill="#000" d="M18.651 17.020c-0.088 0-0.171 0.009-0.251 0.019l-0.026 0.045c0.13-0.012 0.25-0.035 0.381-0.038 0.176 0.004 0.335 0.044 0.522 0.044 0.081 0.001 0.161-0.002 0.241 0 0.187 0 0.346-0.040 0.522-0.044 0.176 0.004 0.336 0.044 0.523 0.044 0.081 0 0.169-0.001 0.242 0 0.187 0 0.345-0.040 0.521-0.044 0.176 0.004 0.334 0.044 0.521 0.044 0.082 0.001 0.162-0.002 0.242 0 0.187 0 0.346-0.040 0.522-0.044 0.176 0.004 0.335 0.044 0.522 0.044 0.081 0.001 0.162-0.002 0.242 0 0.187 0 0.345-0.040 0.521-0.044 0.136 0.003 0.262 0.028 0.399 0.039l-0.027-0.048c-0.075-0.009-0.151-0.017-0.233-0.017-0.081-0.001-0.162 0.002-0.242 0-0.187 0-0.345 0.040-0.521 0.044-0.176-0.004-0.335-0.044-0.522-0.044-0.081-0.001-0.162 0.002-0.241 0-0.187 0-0.346 0.040-0.522 0.044-0.176-0.004-0.335-0.044-0.522-0.044-0.081-0.001-0.162 0.002-0.242 0-0.187 0-0.345 0.040-0.521 0.044-0.176-0.004-0.334-0.044-0.521-0.044-0.081-0.001-0.161 0.002-0.241 0-0.187 0-0.346 0.040-0.522 0.044-0.176-0.004-0.335-0.044-0.522-0.044-0.081-0.001-0.162 0.002-0.242 0z"></path>
<path fill="#000" d="M18.651 16.961c-0.088 0-0.171 0.009-0.251 0.019l-0.026 0.045c0.13-0.012 0.25-0.035 0.381-0.038 0.176 0.004 0.335 0.044 0.522 0.044 0.081 0.001 0.161-0.002 0.241 0 0.187 0 0.346-0.040 0.522-0.044 0.176 0.004 0.336 0.044 0.523 0.044 0.081 0 0.169-0.001 0.242 0 0.187 0 0.345-0.040 0.521-0.044 0.176 0.004 0.334 0.044 0.521 0.044 0.082 0.001 0.162-0.002 0.242 0 0.187 0 0.346-0.040 0.522-0.044 0.176 0.004 0.335 0.044 0.522 0.044 0.081 0.001 0.162-0.002 0.242 0 0.187 0 0.345-0.040 0.521-0.044 0.136 0.003 0.262 0.028 0.399 0.039l-0.027-0.048c-0.075-0.009-0.151-0.017-0.233-0.017-0.081-0.001-0.162 0.002-0.242 0-0.187 0-0.345 0.040-0.521 0.044-0.176-0.004-0.335-0.044-0.522-0.044-0.081-0.001-0.162 0.002-0.241 0-0.187 0-0.346 0.040-0.522 0.044-0.176-0.004-0.335-0.044-0.522-0.044-0.081-0.001-0.162 0.002-0.242 0-0.187 0-0.345 0.040-0.521 0.044-0.176-0.004-0.334-0.044-0.521-0.044-0.081-0.001-0.161 0.002-0.241 0-0.187 0-0.346 0.040-0.522 0.044-0.176-0.004-0.335-0.044-0.522-0.044-0.081-0.001-0.162 0.002-0.242 0z"></path>
<path fill="#000" d="M18.651 16.842c-0.088 0-0.171 0.009-0.251 0.019l-0.026 0.045c0.13-0.012 0.25-0.035 0.381-0.038 0.176 0.004 0.335 0.044 0.522 0.044 0.081 0.001 0.161-0.002 0.241 0 0.187 0 0.346-0.040 0.522-0.044 0.176 0.004 0.336 0.044 0.523 0.044 0.081 0 0.169-0.001 0.242 0 0.187 0 0.345-0.040 0.521-0.044 0.176 0.004 0.334 0.044 0.521 0.044 0.082 0.001 0.162-0.002 0.242 0 0.187 0 0.346-0.040 0.522-0.044 0.176 0.004 0.335 0.044 0.522 0.044 0.081 0.001 0.162-0.002 0.242 0 0.187 0 0.345-0.040 0.521-0.044 0.136 0.003 0.262 0.028 0.399 0.039l-0.027-0.048c-0.075-0.009-0.151-0.017-0.233-0.017-0.081-0.001-0.162 0.002-0.242 0-0.187 0-0.345 0.040-0.521 0.044-0.176-0.004-0.335-0.044-0.522-0.044-0.081-0.001-0.162 0.002-0.241 0-0.187 0-0.346 0.040-0.522 0.044-0.176-0.004-0.335-0.044-0.522-0.044-0.081-0.001-0.162 0.002-0.242 0-0.187 0-0.345 0.040-0.521 0.044-0.176-0.004-0.334-0.044-0.521-0.044-0.081-0.001-0.161 0.002-0.241 0-0.187 0-0.346 0.040-0.522 0.044-0.176-0.004-0.335-0.044-0.522-0.044-0.081-0.001-0.162 0.002-0.242 0z"></path>
<path fill="#000" d="M18.651 16.723c-0.088 0-0.171 0.009-0.251 0.019l-0.026 0.045c0.13-0.012 0.25-0.035 0.381-0.038 0.176 0.004 0.335 0.044 0.522 0.044 0.081 0.001 0.161-0.002 0.241 0 0.187 0 0.346-0.040 0.522-0.044 0.176 0.004 0.336 0.044 0.523 0.044 0.081 0 0.169-0.001 0.242 0 0.187 0 0.345-0.040 0.521-0.044 0.176 0.004 0.334 0.044 0.521 0.044 0.082 0.001 0.162-0.002 0.242 0 0.187 0 0.346-0.040 0.522-0.044 0.176 0.004 0.335 0.044 0.522 0.044 0.081 0.001 0.162-0.002 0.242 0 0.187 0 0.345-0.040 0.521-0.044 0.136 0.003 0.262 0.028 0.399 0.039l-0.027-0.048c-0.075-0.009-0.151-0.017-0.233-0.017-0.081-0.001-0.162 0.002-0.242 0-0.187 0-0.345 0.040-0.521 0.044-0.176-0.004-0.335-0.044-0.522-0.044-0.081-0.001-0.162 0.002-0.241 0-0.187 0-0.346 0.040-0.522 0.044-0.176-0.004-0.335-0.044-0.522-0.044-0.081-0.001-0.162 0.002-0.242 0-0.187 0-0.345 0.040-0.521 0.044-0.176-0.004-0.334-0.044-0.521-0.044-0.081-0.001-0.161 0.002-0.241 0-0.187 0-0.346 0.040-0.522 0.044-0.176-0.004-0.335-0.044-0.522-0.044-0.081-0.001-0.162 0.002-0.242 0z"></path>
<path fill="#000" d="M18.651 16.783c-0.088 0-0.171 0.009-0.251 0.019l-0.026 0.045c0.13-0.012 0.25-0.035 0.381-0.038 0.176 0.004 0.335 0.044 0.522 0.044 0.081 0.001 0.161-0.002 0.241 0 0.187 0 0.346-0.040 0.522-0.044 0.176 0.004 0.336 0.044 0.523 0.044 0.081 0 0.169-0.001 0.242 0 0.187 0 0.345-0.040 0.521-0.044 0.176 0.004 0.334 0.044 0.521 0.044 0.082 0.001 0.162-0.002 0.242 0 0.187 0 0.346-0.040 0.522-0.044 0.176 0.004 0.335 0.044 0.522 0.044 0.081 0.001 0.162-0.002 0.242 0 0.187 0 0.345-0.040 0.521-0.044 0.136 0.003 0.262 0.028 0.399 0.039l-0.027-0.048c-0.075-0.009-0.151-0.017-0.233-0.017-0.081-0.001-0.162 0.002-0.242 0-0.187 0-0.345 0.040-0.521 0.044-0.176-0.004-0.335-0.044-0.522-0.044-0.081-0.001-0.162 0.002-0.241 0-0.187 0-0.346 0.040-0.522 0.044-0.176-0.004-0.335-0.044-0.522-0.044-0.081-0.001-0.162 0.002-0.242 0-0.187 0-0.345 0.040-0.521 0.044-0.176-0.004-0.334-0.044-0.521-0.044-0.081-0.001-0.161 0.002-0.241 0-0.187 0-0.346 0.040-0.522 0.044-0.176-0.004-0.335-0.044-0.522-0.044-0.081-0.001-0.162 0.002-0.242 0z"></path>
<path fill="#000" d="M18.651 16.664c-0.088 0-0.171 0.009-0.251 0.019l-0.026 0.045c0.13-0.012 0.25-0.035 0.381-0.038 0.176 0.004 0.335 0.044 0.522 0.044 0.081 0.001 0.161-0.002 0.241 0 0.187 0 0.346-0.040 0.522-0.044 0.176 0.004 0.336 0.044 0.523 0.044 0.081 0 0.169-0.001 0.242 0 0.187 0 0.345-0.040 0.521-0.044 0.176 0.004 0.334 0.044 0.521 0.044 0.082 0.001 0.162-0.002 0.242 0 0.187 0 0.346-0.040 0.522-0.044 0.176 0.004 0.335 0.044 0.522 0.044 0.081 0.001 0.162-0.002 0.242 0 0.187 0 0.345-0.040 0.521-0.044 0.136 0.003 0.262 0.028 0.399 0.039l-0.027-0.048c-0.075-0.009-0.151-0.017-0.233-0.017-0.081-0.001-0.162 0.002-0.242 0-0.187 0-0.345 0.040-0.521 0.044-0.176-0.004-0.335-0.044-0.522-0.044-0.081-0.001-0.162 0.002-0.241 0-0.187 0-0.346 0.040-0.522 0.044-0.176-0.004-0.335-0.044-0.522-0.044-0.081-0.001-0.162 0.002-0.242 0-0.187 0-0.345 0.040-0.521 0.044-0.176-0.004-0.334-0.044-0.521-0.044-0.081-0.001-0.161 0.002-0.241 0-0.187 0-0.346 0.040-0.522 0.044-0.176-0.004-0.335-0.044-0.522-0.044-0.081-0.001-0.162 0.002-0.242 0z"></path>
<path fill="#000" d="M18.651 16.545c-0.088 0-0.171 0.009-0.251 0.019l-0.026 0.045c0.13-0.012 0.25-0.035 0.381-0.038 0.176 0.004 0.335 0.044 0.522 0.044 0.081 0.001 0.161-0.002 0.241 0 0.187 0 0.346-0.040 0.522-0.044 0.176 0.004 0.336 0.044 0.523 0.044 0.081 0 0.169-0.001 0.242 0 0.187 0 0.345-0.040 0.521-0.044 0.176 0.004 0.334 0.044 0.521 0.044 0.082 0.001 0.162-0.002 0.242 0 0.187 0 0.346-0.040 0.522-0.044 0.176 0.004 0.335 0.044 0.522 0.044 0.081 0.001 0.162-0.002 0.242 0 0.187 0 0.345-0.040 0.521-0.044 0.136 0.003 0.262 0.028 0.399 0.039l-0.027-0.048c-0.075-0.009-0.151-0.017-0.233-0.017-0.081-0.001-0.162 0.002-0.242 0-0.187 0-0.345 0.040-0.521 0.044-0.176-0.004-0.335-0.044-0.522-0.044-0.081-0.001-0.162 0.002-0.241 0-0.187 0-0.346 0.040-0.522 0.044-0.176-0.004-0.335-0.044-0.522-0.044-0.081-0.001-0.162 0.002-0.242 0-0.187 0-0.345 0.040-0.521 0.044-0.176-0.004-0.334-0.044-0.521-0.044-0.081-0.001-0.161 0.002-0.241 0-0.187 0-0.346 0.040-0.522 0.044-0.176-0.004-0.335-0.044-0.522-0.044-0.081-0.001-0.162 0.002-0.242 0z"></path>
<path fill="#000" d="M18.839 16.398l-0.007 0.011h5.002l-0.007-0.011h-4.989zM18.827 16.418l-0.007 0.012h5.026l-0.007-0.012h-5.012zM18.817 16.436l-0.011 0.019h5.056l-0.011-0.019h-5.034zM18.8 16.466l-0.013 0.023h5.094l-0.013-0.023h-5.068zM18.778 16.503l-0.013 0.023h5.137l-0.013-0.023h-5.11zM18.757 16.539l-0.013 0.023h5.179l-0.013-0.023h-5.153zM18.736 16.576l-0.013 0.023h5.222l-0.013-0.023h-5.195zM18.713 16.616l-0.016 0.028h5.273l-0.016-0.028h-5.241z"></path>
<path fill="#000" d="M19.059 16.655c0.184 0.035 0.202 0 0.202 0zM23.406 16.655s0.018 0.035 0.202 0z"></path>
<path fill="#000" d="M22.967 15.842c-0.091 0-0.119 0.046-0.119 0.046-0.146 0.564-0.63 1.138-1.205 1.138h-0.431v0.574c0 0 0.001 0 0.001 0h3.28l-0.33-0.584c-0.518-0.077-0.941-0.607-1.076-1.128 0 0-0.029-0.046-0.12-0.046z"></path>
<path fill="#97c924" d="M22.967 15.865c-0.042 0-0.067 0.010-0.082 0.019s-0.017 0.015-0.017 0.015c0 0-0.001 0.001-0.001 0.001-0.075 0.284-0.232 0.569-0.444 0.784-0.214 0.217-0.484 0.364-0.779 0.364h-0.409v0.529h3.246l-0.303-0.536c-0.25-0.033-0.479-0.169-0.664-0.357-0.213-0.215-0.37-0.5-0.444-0.784l-0.001-0.001c-0-0.001-0.004-0.006-0.018-0.014s-0.040-0.020-0.082-0.020z"></path>
<path fill="#ede71f" d="M22.967 15.865c0.008 0 0.015 0.001 0.022 0.002 0.001 0.161 0 0.432 0 0.576-0.002 0.125-0.044 0.225-0.107 0.343-0.029 0.083-0.053 0.051-0.125 0.152-0.098 0.035-0.17 0.049-0.274 0.065-0.134 0.021-0.433 0.040-0.581 0.007 0.194-0.057 0.371-0.174 0.521-0.326 0.039-0.040 0.076-0.081 0.111-0.125l0.002-0.003c0.056-0.070 0.109-0.148 0.156-0.23l0.005-0.009c0.019-0.033 0.037-0.067 0.053-0.101 0.020-0.040 0.043-0.091 0.063-0.144l0.004-0.012c0.007-0.018 0.013-0.036 0.019-0.053 0.012-0.035 0.022-0.071 0.032-0.106 0-0 0.001-0.001 0.001-0.001s0.003-0.007 0.017-0.015c0.007-0.005 0.018-0.009 0.031-0.013h0.001c0.013-0.004 0.030-0.006 0.050-0.006z"></path>
<path fill="#c6cb24" d="M22.93 15.941c-0.022 0.322-0.121 0.704-0.354 0.95-0.086 0.071-0.195 0.136-0.301 0.12 0.361-0.294 0.581-0.744 0.655-1.070z"></path>
<path fill="#9ecb34" d="M22.64 16.495c-0.053 0.145-0.255 0.36-0.471 0.536-0.061 0.002-0.094 0.005-0.15 0.002 0.132-0.012 0.438-0.271 0.621-0.538z"></path>
<path fill="#000" d="M22.149 15.842c-0.091 0-0.119 0.046-0.119 0.046-0.146 0.564-0.63 1.138-1.205 1.138h-0.431v0.574c0 0 0.001 0 0.001 0h3.28l-0.33-0.584c-0.518-0.077-0.941-0.607-1.076-1.128 0 0-0.029-0.046-0.12-0.046z"></path>
<path fill="#97c924" d="M22.149 15.865c-0.042 0-0.067 0.010-0.082 0.019s-0.017 0.015-0.017 0.015c0 0-0.001 0.001-0.001 0.001-0.075 0.284-0.232 0.569-0.444 0.784-0.214 0.217-0.484 0.364-0.779 0.364h-0.409v0.529h3.246l-0.303-0.536c-0.25-0.033-0.479-0.169-0.664-0.357-0.213-0.215-0.37-0.5-0.444-0.784l-0.001-0.001c-0-0.001-0.004-0.006-0.018-0.014s-0.040-0.020-0.082-0.020z"></path>
<path fill="#ede71f" d="M22.149 15.865c0.008 0 0.015 0.001 0.022 0.002 0.001 0.161 0 0.432 0 0.576-0.002 0.125-0.044 0.225-0.107 0.343-0.029 0.083-0.053 0.051-0.125 0.152-0.098 0.035-0.17 0.049-0.274 0.065-0.134 0.021-0.433 0.040-0.581 0.007 0.194-0.057 0.371-0.174 0.521-0.326 0.039-0.040 0.076-0.081 0.111-0.125l0.002-0.003c0.056-0.070 0.109-0.148 0.156-0.23l0.005-0.009c0.019-0.033 0.037-0.067 0.053-0.101 0.020-0.040 0.043-0.091 0.063-0.144l0.004-0.012c0.007-0.018 0.013-0.036 0.019-0.053 0.012-0.035 0.022-0.071 0.032-0.106 0-0 0.001-0.001 0.001-0.001s0.003-0.007 0.017-0.015c0.007-0.005 0.018-0.009 0.031-0.013h0.001c0.013-0.004 0.030-0.006 0.050-0.006z"></path>
<path fill="#c6cb24" d="M22.112 15.941c-0.022 0.322-0.121 0.704-0.354 0.95-0.086 0.071-0.195 0.136-0.301 0.12 0.361-0.294 0.581-0.744 0.655-1.070z"></path>
<path fill="#9ecb34" d="M21.822 16.495c-0.053 0.145-0.255 0.36-0.471 0.536-0.061 0.002-0.094 0.005-0.15 0.002 0.132-0.012 0.438-0.271 0.621-0.538z"></path>
<path fill="#000" d="M21.452 15.889c0.146 0.564 0.629 1.138 1.204 1.138h0.431v0.574c0 0-0.001 0-0.001 0h-3.509c-0 0-0.001 0-0.001 0v-0.574h0.431c0.576 0 1.059-0.574 1.205-1.138 0 0 0.028-0.046 0.12-0.046s0.12 0.046 0.12 0.046z"></path>
<path fill="#97c924" d="M21.332 15.865c0.042 0 0.067 0.010 0.082 0.020s0.018 0.014 0.018 0.014l0.001 0.001c0.075 0.284 0.232 0.569 0.444 0.784 0.214 0.217 0.485 0.364 0.78 0.364h0.407v0.529h-3.466v-0.529h0.409c0.295 0 0.565-0.147 0.779-0.364 0.212-0.215 0.37-0.5 0.444-0.784 0-0 0.001-0.001 0.001-0.001s0.003-0.007 0.017-0.015c0.015-0.009 0.040-0.019 0.082-0.019z"></path>
<path fill="#ede71f" d="M21.294 15.868c-0.006 0.001-0.010 0.002-0.014 0.003l0.001-0h-0.001c-0.013 0.004-0.023 0.008-0.030 0.013-0.014 0.009-0.017 0.015-0.017 0.015s-0.001 0.001-0.001 0.001c-0.017 0.065-0.034 0.118-0.054 0.17l0.004-0.011c-0.024 0.065-0.047 0.117-0.071 0.168l0.005-0.011c-0.021 0.044-0.039 0.077-0.058 0.11l0.005-0.009c-0.051 0.091-0.105 0.169-0.163 0.242l0.003-0.004c-0.037 0.047-0.075 0.089-0.114 0.128l0-0c-0.15 0.152-0.327 0.269-0.521 0.326 0.148 0.033 0.215-0.003 0.349-0.024 0.104-0.016 0.225-0.030 0.322-0.065 0.073-0.101 0.048-0.069 0.077-0.152 0.063-0.118 0.155-0.225 0.178-0.356 0.086-0.161 0.102-0.459 0.102-0.545z"></path>
<path fill="#c6cb24" d="M21.295 15.941c-0.022 0.322-0.121 0.704-0.354 0.95-0.086 0.071-0.195 0.136-0.301 0.12 0.361-0.294 0.581-0.744 0.655-1.070z"></path>
<path fill="#9ecb34" d="M21.004 16.495c-0.053 0.145-0.255 0.36-0.471 0.536-0.061 0.002-0.094 0.005-0.15 0.002 0.132-0.012 0.439-0.271 0.621-0.538z"></path>
<path fill="#ede71f" d="M21.384 15.871h0.001c0.013 0.004 0.023 0.008 0.030 0.013 0.014 0.009 0.017 0.015 0.017 0.015s0.001 0.001 0.001 0.001c0.009 0.035 0.020 0.071 0.031 0.106 0.006 0.018 0.013 0.035 0.019 0.053 0.024 0.065 0.047 0.117 0.071 0.167l-0.005-0.011c0.017 0.034 0.034 0.068 0.053 0.101 0.051 0.091 0.105 0.169 0.163 0.242l-0.003-0.004c0.037 0.047 0.075 0.088 0.114 0.128l-0-0c0.15 0.152 0.327 0.29 0.521 0.347-0.386 0.002-0.554-0.034-0.695-0.214s-0.192-0.26-0.221-0.37c-0.028-0.11-0.108-0.35-0.1-0.576z"></path>
<path fill="#c6cb24" d="M21.412 15.941c0.022 0.322 0.118 0.64 0.351 0.887 0.086 0.071 0.195 0.136 0.301 0.12-0.391-0.267-0.578-0.681-0.652-1.007z"></path>
<path fill="#000" d="M20.52 15.842c-0.091 0-0.12 0.046-0.12 0.046-0.134 0.52-0.631 1.19-1.146 1.27l-0.255 0.442h2.614v-0.605c-0.471-0.126-0.847-0.62-0.973-1.107 0 0-0.028-0.046-0.119-0.046z"></path>
<path fill="#97c924" d="M20.52 15.865c-0.042 0-0.067 0.010-0.082 0.020s-0.018 0.014-0.018 0.014l-0.001 0.001c-0.075 0.284-0.25 0.571-0.431 0.799s-0.518 0.46-0.749 0.484l-0.228 0.394h2.563v-0.57c-0.19-0.058-0.363-0.174-0.509-0.323-0.212-0.215-0.37-0.5-0.444-0.784-0-0-0.001-0.001-0.001-0.001s-0.003-0.007-0.017-0.015c-0.015-0.009-0.040-0.019-0.082-0.019z"></path>
<path fill="#93bc30" d="M20.45 15.941c-0.033 0.482-0.302 1.091-0.605 1.196-0.099 0.034-0.272 0.046-0.332 0.054 0.531-0.252 0.844-0.845 0.937-1.249z"></path>
<path fill="#ede71f" d="M20.52 15.865c-0.008 0-0.015 0.001-0.022 0.002-0.001 0.161 0 0.432 0 0.576 0.002 0.125 0.044 0.225 0.107 0.343 0.004 0.010 0.007 0.019 0.011 0.026 0.022 0.058 0.038 0.078 0.122 0.142 0.266 0.202 0.596 0.232 0.79 0.215-0.061-0.048-0.126-0.091-0.183-0.132 0.091-0.003 0.179-0.013 0.241-0.027-0.194-0.057-0.371-0.174-0.521-0.326-0.025-0.026-0.049-0.053-0.073-0.081l-0.002-0.002c-0.011-0.016-0.027-0.037-0.032-0.043-0.060-0.075-0.121-0.157-0.168-0.241-0.014-0.024-0.032-0.057-0.048-0.090l-0.005-0.011c-0.028-0.056-0.057-0.126-0.082-0.197l-0.004-0.013c-0.008-0.023-0.019-0.059-0.029-0.095l-0.003-0.012c-0-0-0.001-0.001-0.001-0.001s-0.003-0.007-0.017-0.015c-0.009-0.005-0.019-0.010-0.030-0.012l-0.001-0h-0.001c-0.015-0.004-0.032-0.006-0.049-0.006-0.001 0-0.001 0-0.002 0h0z"></path>
<path fill="#ccd11e" d="M20.557 15.941c0.022 0.322 0.121 0.704 0.354 0.95 0.086 0.071 0.195 0.136 0.301 0.12-0.361-0.294-0.581-0.744-0.655-1.070z"></path>
<path fill="#9ecb34" d="M20.779 16.387c0.126 0.311 0.446 0.602 0.776 0.798 0.061 0.002 0.080 0 0.135-0.003-0.236-0.126-0.615-0.307-0.911-0.794z"></path>
<path fill="#000" d="M19.697 15.842c-0.091 0-0.12 0.046-0.12 0.046-0.134 0.52-0.631 1.19-1.146 1.27l-0.255 0.442h2.614v-0.605c-0.471-0.126-0.847-0.62-0.973-1.107 0 0-0.028-0.046-0.119-0.046z"></path>
<path fill="#97c924" d="M19.697 15.865c-0.042 0-0.067 0.010-0.082 0.020s-0.018 0.014-0.018 0.014l-0.001 0.001c-0.075 0.284-0.25 0.571-0.431 0.799s-0.518 0.46-0.749 0.484l-0.228 0.394h2.563v-0.57c-0.19-0.058-0.363-0.174-0.509-0.323-0.212-0.215-0.37-0.5-0.444-0.784-0-0-0.001-0.001-0.001-0.001s-0.003-0.007-0.017-0.015c-0.015-0.009-0.040-0.019-0.082-0.019z"></path>
<path fill="#93bc30" d="M19.627 15.941c-0.033 0.482-0.302 1.091-0.605 1.196-0.099 0.034-0.272 0.046-0.332 0.054 0.531-0.252 0.844-0.845 0.937-1.249z"></path>
<path fill="#ede71f" d="M19.697 15.865c-0.008 0-0.015 0.001-0.022 0.002-0.001 0.161 0 0.432 0 0.576 0.002 0.125 0.044 0.225 0.107 0.343 0.004 0.010 0.007 0.019 0.011 0.026 0.022 0.058 0.038 0.078 0.122 0.142 0.266 0.202 0.596 0.232 0.79 0.215-0.061-0.048-0.126-0.091-0.183-0.132 0.091-0.003 0.179-0.013 0.241-0.027-0.194-0.057-0.371-0.174-0.521-0.326-0.025-0.026-0.049-0.053-0.073-0.081l-0.002-0.002c-0.011-0.016-0.027-0.037-0.032-0.043-0.060-0.075-0.121-0.157-0.168-0.241-0.014-0.024-0.032-0.057-0.048-0.090l-0.005-0.011c-0.028-0.056-0.057-0.126-0.082-0.197l-0.004-0.013c-0.008-0.023-0.019-0.059-0.029-0.095l-0.003-0.012c-0-0-0.001-0.001-0.001-0.001s-0.003-0.007-0.017-0.015c-0.009-0.005-0.019-0.010-0.030-0.012l-0.001-0h-0.001c-0.015-0.004-0.032-0.006-0.049-0.006-0.001 0-0.001 0-0.002 0h0z"></path>
<path fill="#ccd11e" d="M19.734 15.941c0.022 0.322 0.121 0.704 0.354 0.95 0.086 0.071 0.195 0.136 0.301 0.12-0.361-0.294-0.581-0.744-0.655-1.070z"></path>
<path fill="#9ecb34" d="M19.956 16.387c0.126 0.311 0.446 0.602 0.776 0.798 0.061 0.002 0.080 0 0.135-0.003-0.236-0.126-0.615-0.307-0.911-0.794z"></path>
<path fill="#fff" d="M24.347 17.317c-0.031 0.011-0.236-0.010-0.343-0.002l-0.068 0.018c-0.060-0-0.119 0.001-0.178 0-0.192 0-0.355 0.051-0.537 0.051s-0.345-0.051-0.537-0.051c-0.060-0-0.119 0.001-0.178 0-0.192 0-0.355 0.051-0.537 0.051s-0.345-0.051-0.537-0.051c-0.060-0-0.12 0.001-0.179 0-0.192 0-0.354 0.051-0.536 0.051s-0.344-0.051-0.536-0.051c-0.014 0-0.028 0.001-0.041 0.001-0.009-0-0.020-0.001-0.030-0.001-0.006 0-0.012-0-0.018 0s-0.013 0-0.019 0c-0.010 0-0.018 0.001-0.028 0.001-0.014-0-0.027-0.001-0.041-0.001-0.192 0-0.354 0.051-0.537 0.051s-0.345-0.051-0.537-0.051c-0.014 0-0.028 0.001-0.041 0.001-0.010-0-0.018-0.001-0.028-0.001-0.007 0-0.013-0-0.020 0s-0.013 0-0.019 0c-0.010 0-0.019 0.001-0.029 0.001-0.014-0-0.027-0.001-0.041-0.001-0.154 0-0.332 0.032-0.477 0.045l-0.334 0.579h6.792z"></path>
<path fill="#000" d="M23.893 17.233c-0.011 0-0.021 0-0.032 0-0.173 0.005-0.297 0.059-0.597 0.059s-0.332-0.054-0.671-0.047c-0.317 0.007-0.45 0.067-0.622 0.065s-0.452-0.037-0.667-0.015c-0.215 0.023-0.471 0.068-0.639 0.069-0.209-0.001-0.417-0.039-0.635-0.017s-0.32 0.080-0.59 0.079c-0.232-0.001-0.484-0.037-0.68-0.037-0.183 0-0.388 0.051-0.538 0.077l-0.045 0.078c0.12-0.014 0.456-0.065 0.576-0.068 0.125-0.003 0.572 0.026 0.818 0.017s0.275-0.063 0.566-0.063c0.203 0 0.356 0.021 0.564 0.021 0.13 0 0.248-0.066 0.445-0.066 0.050-0.001 0.099-0.003 0.149-0.005 0.166-0.028 0.447 0.002 0.643 0.012 0.177 0.009 0.291-0.033 0.475-0.039 0.080-0.004 0.16-0.003 0.239-0.008 0.185-0.006 0.343 0.034 0.516 0.033 0.173-0.011 0.341-0.049 0.526-0.055 0.081-0.004 0.16-0.004 0.239-0.008 0.122-0.004 0.311 0.004 0.441 0.027l-0.045-0.077c-0.127-0.004-0.283-0.034-0.436-0.034z"></path>
<path fill="#000" d="M18.683 17.853c-0.184 0-0.341 0.046-0.515 0.050-0.065-0.002-0.126-0.010-0.189-0.018l-0.026 0.045c0.026 0.002 0.052 0.003 0.079 0.003 0.080 0.001 0.159-0.002 0.239 0 0.184 0 0.34-0.045 0.514-0.050 0.174 0.005 0.331 0.050 0.516 0.050 0.080 0.001 0.16-0.002 0.239 0 0.184 0 0.342-0.045 0.516-0.050 0.174 0.005 0.332 0.050 0.517 0.050 0.080 0.001 0.16-0.002 0.238 0 0.184 0 0.341-0.045 0.515-0.050 0.174 0.005 0.33 0.050 0.515 0.050 0.081 0.001 0.16-0.002 0.239 0 0.184 0 0.342-0.045 0.516-0.050 0.174 0.005 0.331 0.050 0.516 0.050 0.080 0.001 0.159-0.002 0.238 0 0.184 0 0.341-0.045 0.515-0.050 0.174 0.005 0.331 0.050 0.516 0.050 0.080 0.001 0.16-0.002 0.239 0 0.032 0 0.064-0.002 0.095-0.004l-0.025-0.043c-0.057 0.008-0.114 0.015-0.173 0.016-0.174-0.005-0.33-0.050-0.515-0.050-0.081-0.001-0.16 0.002-0.239 0-0.184 0-0.341 0.046-0.515 0.050-0.174-0.005-0.331-0.050-0.516-0.050-0.080-0.001-0.16 0.002-0.239 0-0.184 0-0.342 0.046-0.516 0.050-0.174-0.005-0.331-0.050-0.516-0.050-0.080-0.001-0.16 0.002-0.239 0-0.184 0-0.341 0.046-0.515 0.050-0.174-0.005-0.33-0.050-0.515-0.050-0.080-0.001-0.159 0.002-0.239 0-0.185 0-0.342 0.046-0.516 0.050-0.174-0.005-0.331-0.050-0.516-0.050-0.080-0.001-0.16 0.002-0.239 0z"></path>
<path fill="#000" d="M18.683 17.784c-0.184 0-0.341 0.046-0.515 0.050-0.065-0.002-0.126-0.010-0.189-0.018l-0.026 0.045c0.026 0.002 0.052 0.003 0.079 0.003 0.080 0.001 0.159-0.002 0.239 0 0.184 0 0.34-0.045 0.514-0.050 0.174 0.005 0.331 0.050 0.516 0.050 0.080 0.001 0.16-0.002 0.239 0 0.184 0 0.342-0.045 0.516-0.050 0.174 0.005 0.332 0.050 0.517 0.050 0.080 0.001 0.16-0.002 0.238 0 0.184 0 0.341-0.045 0.515-0.050 0.174 0.005 0.33 0.050 0.515 0.050 0.081 0.001 0.16-0.002 0.239 0 0.184 0 0.342-0.045 0.516-0.050 0.174 0.005 0.331 0.050 0.516 0.050 0.080 0.001 0.159-0.002 0.238 0 0.184 0 0.341-0.045 0.515-0.050 0.174 0.005 0.331 0.050 0.516 0.050 0.080 0.001 0.16-0.002 0.239 0 0.032 0 0.064-0.002 0.095-0.004l-0.025-0.043c-0.057 0.008-0.114 0.015-0.173 0.016-0.174-0.005-0.33-0.050-0.515-0.050-0.081-0.001-0.16 0.002-0.239 0-0.184 0-0.341 0.046-0.515 0.050-0.174-0.005-0.331-0.050-0.516-0.050-0.080-0.001-0.16 0.002-0.239 0-0.184 0-0.342 0.046-0.516 0.050-0.174-0.005-0.331-0.050-0.516-0.050-0.080-0.001-0.16 0.002-0.239 0-0.184 0-0.341 0.046-0.515 0.050-0.174-0.005-0.33-0.050-0.515-0.050-0.080-0.001-0.159 0.002-0.239 0-0.185 0-0.342 0.046-0.516 0.050-0.174-0.005-0.331-0.050-0.516-0.050-0.080-0.001-0.16 0.002-0.239 0z"></path>
<path fill="#000" d="M18.683 17.716c-0.184 0-0.341 0.046-0.515 0.050-0.065-0.002-0.126-0.010-0.189-0.018l-0.026 0.045c0.026 0.002 0.052 0.003 0.079 0.003 0.080 0.001 0.159-0.002 0.239 0 0.184 0 0.34-0.045 0.514-0.050 0.174 0.005 0.331 0.050 0.516 0.050 0.080 0.001 0.16-0.002 0.239 0 0.184 0 0.342-0.045 0.516-0.050 0.174 0.005 0.332 0.050 0.517 0.050 0.080 0.001 0.16-0.002 0.238 0 0.184 0 0.341-0.045 0.515-0.050 0.174 0.005 0.33 0.050 0.515 0.050 0.081 0.001 0.16-0.002 0.239 0 0.184 0 0.342-0.045 0.516-0.050 0.174 0.005 0.331 0.050 0.516 0.050 0.080 0.001 0.159-0.002 0.238 0 0.184 0 0.341-0.045 0.515-0.050 0.174 0.005 0.331 0.050 0.516 0.050 0.080 0.001 0.16-0.002 0.239 0 0.032 0 0.064-0.002 0.095-0.004l-0.025-0.043c-0.057 0.008-0.114 0.015-0.173 0.016-0.174-0.005-0.33-0.050-0.515-0.050-0.081-0.001-0.16 0.002-0.239 0-0.184 0-0.341 0.046-0.515 0.050-0.174-0.005-0.331-0.050-0.516-0.050-0.080-0.001-0.16 0.002-0.239 0-0.184 0-0.342 0.046-0.516 0.050-0.174-0.005-0.331-0.050-0.516-0.050-0.080-0.001-0.16 0.002-0.239 0-0.184 0-0.341 0.046-0.515 0.050-0.174-0.005-0.33-0.050-0.515-0.050-0.080-0.001-0.159 0.002-0.239 0-0.185 0-0.342 0.046-0.516 0.050-0.174-0.005-0.331-0.050-0.516-0.050-0.080-0.001-0.16 0.002-0.239 0z"></path>
<path fill="#000" d="M18.683 17.647c-0.184 0-0.341 0.046-0.515 0.050-0.065-0.002-0.126-0.010-0.189-0.018l-0.026 0.045c0.026 0.002 0.052 0.003 0.079 0.003 0.080 0.001 0.159-0.002 0.239 0 0.184 0 0.34-0.045 0.514-0.050 0.174 0.005 0.331 0.050 0.516 0.050 0.080 0.001 0.16-0.002 0.239 0 0.184 0 0.342-0.045 0.516-0.050 0.174 0.005 0.332 0.050 0.517 0.050 0.080 0.001 0.16-0.002 0.238 0 0.184 0 0.341-0.045 0.515-0.050 0.174 0.005 0.33 0.050 0.515 0.050 0.081 0.001 0.16-0.002 0.239 0 0.184 0 0.342-0.045 0.516-0.050 0.174 0.005 0.331 0.050 0.516 0.050 0.080 0.001 0.159-0.002 0.238 0 0.184 0 0.341-0.045 0.515-0.050 0.174 0.005 0.331 0.050 0.516 0.050 0.080 0.001 0.16-0.002 0.239 0 0.032 0 0.064-0.002 0.095-0.004l-0.025-0.043c-0.057 0.008-0.114 0.015-0.173 0.016-0.174-0.005-0.33-0.050-0.515-0.050-0.081-0.001-0.16 0.002-0.239 0-0.184 0-0.341 0.046-0.515 0.050-0.174-0.005-0.331-0.050-0.516-0.050-0.080-0.001-0.16 0.002-0.239 0-0.184 0-0.342 0.046-0.516 0.050-0.174-0.005-0.331-0.050-0.516-0.050-0.080-0.001-0.16 0.002-0.239 0-0.184 0-0.341 0.046-0.515 0.050-0.174-0.005-0.33-0.050-0.515-0.050-0.080-0.001-0.159 0.002-0.239 0-0.185 0-0.342 0.046-0.516 0.050-0.174-0.005-0.331-0.050-0.516-0.050-0.080-0.001-0.16 0.002-0.239 0z"></path>
<path fill="#000" d="M18.683 17.509c-0.184 0-0.341 0.046-0.515 0.050-0.065-0.002-0.126-0.010-0.189-0.018l-0.026 0.045c0.026 0.002 0.052 0.003 0.079 0.003 0.080 0.001 0.159-0.002 0.239 0 0.184 0 0.34-0.045 0.514-0.050 0.174 0.005 0.331 0.050 0.516 0.050 0.080 0.001 0.16-0.002 0.239 0 0.184 0 0.342-0.045 0.516-0.050 0.174 0.005 0.332 0.050 0.517 0.050 0.080 0.001 0.16-0.002 0.238 0 0.184 0 0.341-0.045 0.515-0.050 0.174 0.005 0.33 0.050 0.515 0.050 0.081 0.001 0.16-0.002 0.239 0 0.184 0 0.342-0.045 0.516-0.050 0.174 0.005 0.331 0.050 0.516 0.050 0.080 0.001 0.159-0.002 0.238 0 0.184 0 0.341-0.045 0.515-0.050 0.174 0.005 0.331 0.050 0.516 0.050 0.080 0.001 0.16-0.002 0.239 0 0.032 0 0.064-0.002 0.095-0.004l-0.025-0.043c-0.057 0.008-0.114 0.015-0.173 0.016-0.174-0.005-0.33-0.050-0.515-0.050-0.081-0.001-0.16 0.002-0.239 0-0.184 0-0.341 0.046-0.515 0.050-0.174-0.005-0.331-0.050-0.516-0.050-0.080-0.001-0.16 0.002-0.239 0-0.184 0-0.342 0.046-0.516 0.050-0.174-0.005-0.331-0.050-0.516-0.050-0.080-0.001-0.16 0.002-0.239 0-0.184 0-0.341 0.046-0.515 0.050-0.174-0.005-0.33-0.050-0.515-0.050-0.080-0.001-0.159 0.002-0.239 0-0.185 0-0.342 0.046-0.516 0.050-0.174-0.005-0.331-0.050-0.516-0.050-0.080-0.001-0.16 0.002-0.239 0z"></path>
<path fill="#000" d="M18.683 17.372c-0.184 0-0.341 0.046-0.515 0.050-0.065-0.002-0.126-0.010-0.189-0.018l-0.026 0.045c0.026 0.002 0.052 0.003 0.079 0.003 0.080 0.001 0.159-0.002 0.239 0 0.184 0 0.34-0.045 0.514-0.050 0.174 0.005 0.331 0.050 0.516 0.050 0.080 0.001 0.16-0.002 0.239 0 0.184 0 0.342-0.045 0.516-0.050 0.174 0.005 0.332 0.050 0.517 0.050 0.080 0.001 0.16-0.002 0.238 0 0.184 0 0.341-0.045 0.515-0.050 0.174 0.005 0.33 0.050 0.515 0.050 0.081 0.001 0.16-0.002 0.239 0 0.184 0 0.342-0.045 0.516-0.050 0.174 0.005 0.331 0.050 0.516 0.050 0.080 0.001 0.159-0.002 0.238 0 0.184 0 0.341-0.045 0.515-0.050 0.174 0.005 0.331 0.050 0.516 0.050 0.080 0.001 0.16-0.002 0.239 0 0.032 0 0.064-0.002 0.095-0.004l-0.025-0.043c-0.057 0.008-0.114 0.015-0.173 0.016-0.174-0.005-0.33-0.050-0.515-0.050-0.081-0.001-0.16 0.002-0.239 0-0.184 0-0.341 0.046-0.515 0.050-0.174-0.005-0.331-0.050-0.516-0.050-0.080-0.001-0.16 0.002-0.239 0-0.184 0-0.342 0.046-0.516 0.050-0.174-0.005-0.331-0.050-0.516-0.050-0.080-0.001-0.16 0.002-0.239 0-0.184 0-0.341 0.046-0.515 0.050-0.174-0.005-0.33-0.050-0.515-0.050-0.080-0.001-0.159 0.002-0.239 0-0.185 0-0.342 0.046-0.516 0.050-0.174-0.005-0.331-0.050-0.516-0.050-0.080-0.001-0.16 0.002-0.239 0z"></path>
<path fill="#000" d="M18.683 17.441c-0.184 0-0.341 0.046-0.515 0.050-0.065-0.002-0.126-0.010-0.189-0.018l-0.026 0.045c0.026 0.002 0.052 0.003 0.079 0.003 0.080 0.001 0.159-0.002 0.239 0 0.184 0 0.34-0.045 0.514-0.050 0.174 0.005 0.331 0.050 0.516 0.050 0.080 0.001 0.16-0.002 0.239 0 0.184 0 0.342-0.045 0.516-0.050 0.174 0.005 0.332 0.050 0.517 0.050 0.080 0.001 0.16-0.002 0.238 0 0.184 0 0.341-0.045 0.515-0.050 0.174 0.005 0.33 0.050 0.515 0.050 0.081 0.001 0.16-0.002 0.239 0 0.184 0 0.342-0.045 0.516-0.050 0.174 0.005 0.331 0.050 0.516 0.050 0.080 0.001 0.159-0.002 0.238 0 0.184 0 0.341-0.045 0.515-0.050 0.174 0.005 0.331 0.050 0.516 0.050 0.080 0.001 0.16-0.002 0.239 0 0.032 0 0.064-0.002 0.095-0.004l-0.025-0.043c-0.057 0.008-0.114 0.015-0.173 0.016-0.174-0.005-0.33-0.050-0.515-0.050-0.081-0.001-0.16 0.002-0.239 0-0.184 0-0.341 0.046-0.515 0.050-0.174-0.005-0.331-0.050-0.516-0.050-0.080-0.001-0.16 0.002-0.239 0-0.184 0-0.342 0.046-0.516 0.050-0.174-0.005-0.331-0.050-0.516-0.050-0.080-0.001-0.16 0.002-0.239 0-0.184 0-0.341 0.046-0.515 0.050-0.174-0.005-0.33-0.050-0.515-0.050-0.080-0.001-0.159 0.002-0.239 0-0.185 0-0.342 0.046-0.516 0.050-0.174-0.005-0.331-0.050-0.516-0.050-0.080-0.001-0.16 0.002-0.239 0z"></path>
<path fill="#000" d="M18.683 17.304c-0.184 0-0.341 0.046-0.515 0.050-0.065-0.002-0.126-0.010-0.189-0.018l-0.026 0.045c0.026 0.002 0.052 0.003 0.079 0.003 0.080 0.001 0.159-0.002 0.239 0 0.184 0 0.34-0.045 0.514-0.050 0.174 0.005 0.331 0.050 0.516 0.050 0.080 0.001 0.16-0.002 0.239 0 0.184 0 0.342-0.045 0.516-0.050 0.174 0.005 0.332 0.050 0.517 0.050 0.080 0.001 0.16-0.002 0.238 0 0.184 0 0.341-0.045 0.515-0.050 0.174 0.005 0.33 0.050 0.515 0.050 0.081 0.001 0.16-0.002 0.239 0 0.184 0 0.342-0.045 0.516-0.050 0.174 0.005 0.331 0.050 0.516 0.050 0.080 0.001 0.159-0.002 0.238 0 0.184 0 0.341-0.045 0.515-0.050 0.174 0.005 0.331 0.050 0.516 0.050 0.080 0.001 0.16-0.002 0.239 0 0.032 0 0.064-0.002 0.095-0.004l-0.025-0.043c-0.057 0.008-0.114 0.015-0.173 0.016-0.174-0.005-0.33-0.050-0.515-0.050-0.081-0.001-0.16 0.002-0.239 0-0.184 0-0.341 0.046-0.515 0.050-0.174-0.005-0.331-0.050-0.516-0.050-0.080-0.001-0.16 0.002-0.239 0-0.184 0-0.342 0.046-0.516 0.050-0.174-0.005-0.331-0.050-0.516-0.050-0.080-0.001-0.16 0.002-0.239 0-0.184 0-0.341 0.046-0.515 0.050-0.174-0.005-0.33-0.050-0.515-0.050-0.080-0.001-0.159 0.002-0.239 0-0.185 0-0.342 0.046-0.516 0.050-0.174-0.005-0.331-0.050-0.516-0.050-0.080-0.001-0.16 0.002-0.239 0z"></path>
<path fill="#000" d="M18.683 17.166c-0.184 0-0.341 0.046-0.515 0.050-0.065-0.002-0.126-0.010-0.189-0.018l-0.026 0.045c0.026 0.002 0.052 0.003 0.079 0.003 0.080 0.001 0.159-0.002 0.239 0 0.184 0 0.34-0.045 0.514-0.050 0.174 0.005 0.331 0.050 0.516 0.050 0.080 0.001 0.16-0.002 0.239 0 0.184 0 0.342-0.045 0.516-0.050 0.174 0.005 0.332 0.050 0.517 0.050 0.080 0.001 0.16-0.002 0.238 0 0.184 0 0.341-0.045 0.515-0.050 0.174 0.005 0.33 0.050 0.515 0.050 0.081 0.001 0.16-0.002 0.239 0 0.184 0 0.342-0.045 0.516-0.050 0.174 0.005 0.331 0.050 0.516 0.050 0.080 0.001 0.159-0.002 0.238 0 0.184 0 0.341-0.045 0.515-0.050 0.174 0.005 0.331 0.050 0.516 0.050 0.080 0.001 0.16-0.002 0.239 0 0.032 0 0.064-0.002 0.095-0.004l-0.025-0.043c-0.057 0.008-0.114 0.015-0.173 0.016-0.174-0.005-0.33-0.050-0.515-0.050-0.081-0.001-0.16 0.002-0.239 0-0.184 0-0.341 0.046-0.515 0.050-0.174-0.005-0.331-0.050-0.516-0.050-0.080-0.001-0.16 0.002-0.239 0-0.184 0-0.342 0.046-0.516 0.050-0.174-0.005-0.331-0.050-0.516-0.050-0.080-0.001-0.16 0.002-0.239 0-0.184 0-0.341 0.046-0.515 0.050-0.174-0.005-0.33-0.050-0.515-0.050-0.080-0.001-0.159 0.002-0.239 0-0.185 0-0.342 0.046-0.516 0.050-0.174-0.005-0.331-0.050-0.516-0.050-0.080-0.001-0.16 0.002-0.239 0z"></path>
<path fill="#97c924" d="M18.338 17.318l-0.129 0.223c0.151-0.025 0.379-0.091 0.567-0.091 0.195-0 0.431 0.048 0.663 0.049 0.27 0.001 0.372-0.058 0.59-0.079s0.427 0.028 0.635 0.029c0.168-0 0.423-0.058 0.639-0.081s0.413 0.016 0.672 0.020c0.26 0.004 0.3-0.063 0.617-0.070 0.34-0.007 0.37 0.047 0.671 0.047 0.226 0.012 0.42-0.046 0.622-0.060s0.295 0.002 0.443 0.006l-0.098-0.174c-0.002 0-0.003 0-0.005 0l-5.4 0.119z"></path>
<path fill="#fff" d="M24.004 17.315s0.145 0.008 0.205 0.015c0.033 0.004 0.087 0.009 0.142 0.013l0.016 0.001-0.020-0.026c-0.031 0.011-0.236-0.010-0.343-0.002z"></path>
<path fill="#c8a400" d="M21.333 11.993l-3.467 6.005h6.933l-3.467-6.005zM21.333 12.153l3.328 5.764h-6.656l1.683-2.914z"></path>
</svg>
