<!-- Generated by IcoMoon.io -->
<svg version="1.1" xmlns="http://www.w3.org/2000/svg" width="43" height="32" viewBox="0 0 43 32">
<title>NPR</title>
<path fill="#fff" d="M0 0h42.667v32h-42.667z"></path>
<path fill="#ce0000" stroke="#000063" stroke-linejoin="miter" stroke-linecap="butt" stroke-miterlimit="4" stroke-width="0.9222" d="M0.409 31.594l23.674-0.001-15.495-15.714 16.079 0.019-24.256-15.493-0.001 31.188z"></path>
<path fill="#fff" d="M11.296 23.235l-1.687 0.558 1.319 1.241-1.777-0.114 0.732 1.639-1.597-0.768 0.033 1.787-1.174-1.306-0.671 1.665-0.572-1.645-1.273 1.287 0.116-1.733-1.68 0.714 0.788-1.557-1.833 0.032 1.339-1.145-1.706-0.655 1.687-0.558-1.32-1.241 1.777 0.113-0.731-1.639 1.597 0.768-0.033-1.788 1.174 1.306 0.67-1.664 0.573 1.645 1.273-1.288-0.117 1.733 1.681-0.713-0.788 1.557 1.833-0.032-1.339 1.145zM9.27 11.693l-0.708 0.524 0.349 0.288c0.848-0.655 1.451-1.254 1.922-2.248 0.111 1.326-1.105 4.303-4.296 4.336-3.415-0.003-4.599-3.162-4.468-4.392 0.627 1.138 1.010 1.693 1.995 2.285l0.301-0.277-0.667-0.556 0.859-0.223-0.462-0.777 0.899 0.066-0.113-0.905 0.788 0.461 0.247-0.843 0.567 0.679 0.531-0.643 0.289 0.874 0.737-0.513-0.095 0.889 0.883-0.104-0.414 0.822 0.855 0.255z"></path>
</svg>
