<!-- Generated by IcoMoon.io -->
<svg version="1.1" xmlns="http://www.w3.org/2000/svg" width="43" height="32" viewBox="0 0 43 32">
<title>NZD</title>
<path fill="#00006a" d="M0 0h42.667v32h-42.667z"></path>
<path fill="#fff" d="M0 0l21.266 20.289h4.362l-20.807-20.28-4.821-0.010z"></path>
<path fill="#f00" d="M24.034 20.288l-20.821-20.288-1.62 0.025 20.908 20.264h1.533z"></path>
<path fill="#fff" d="M25.628 0l-21.266 20.289h-4.362l20.807-20.28 4.821-0.010z"></path>
<path fill="#f00" d="M24.030 0l-20.813 20.288-1.62 0.001 20.9-20.289h1.533z"></path>
<path fill="#fff" d="M10.764 0h4.1v20.289h-4.1z"></path>
<path fill="#fff" d="M0 8.116h25.627v4.058h-25.627z"></path>
<path fill="#f00" d="M11.661 0h2.306v20.289h-2.306z"></path>
<path fill="#f00" d="M0 9.131h25.627v2.029h-25.627z"></path>
<path fill="#fff" d="M34.667 11.955l-1.305-0.965-1.353 0.895 0.509-1.546-1.265-1.017 1.62 0.009 0.571-1.524 0.492 1.551 1.617 0.076-1.315 0.95z"></path>
<path fill="#f00" d="M34.144 11.174l-0.772-0.558-0.789 0.534 0.29-0.911-0.749-0.59 0.952-0.004 0.326-0.898 0.298 0.908 0.95 0.034-0.766 0.566z"></path>
<path fill="#fff" d="M29.659 20.27l-1.305-0.965-1.353 0.895 0.51-1.546-1.265-1.017 1.62 0.009 0.571-1.524 0.492 1.551 1.617 0.076-1.315 0.95z"></path>
<path fill="#f00" d="M29.135 19.489l-0.772-0.558-0.789 0.534 0.29-0.911-0.749-0.59 0.952-0.005 0.326-0.898 0.298 0.908 0.95 0.034-0.766 0.566z"></path>
<path fill="#fff" d="M39.909 19.45l-1.305-0.965-1.353 0.895 0.509-1.546-1.265-1.017 1.62 0.009 0.571-1.524 0.492 1.551 1.617 0.076-1.315 0.95z"></path>
<path fill="#f00" d="M39.385 18.669l-0.772-0.558-0.789 0.534 0.29-0.911-0.749-0.59 0.952-0.004 0.326-0.898 0.298 0.908 0.95 0.034-0.766 0.566z"></path>
<path fill="#fff" d="M34.551 31.278l-1.305-0.965-1.353 0.895 0.509-1.546-1.265-1.017 1.62 0.009 0.571-1.524 0.492 1.551 1.617 0.076-1.315 0.95z"></path>
<path fill="#f00" d="M34.027 30.497l-0.772-0.558-0.789 0.534 0.29-0.911-0.749-0.59 0.952-0.004 0.326-0.898 0.298 0.908 0.95 0.034-0.766 0.566z"></path>
</svg>
