<!-- Generated by IcoMoon.io -->
<svg version="1.1" xmlns="http://www.w3.org/2000/svg" width="43" height="32" viewBox="0 0 43 32">
<title>OMR</title>
<path fill="#ef2d29" d="M-0.22-1.441h46.818v36.868h-46.818z"></path>
<path fill="#009025" d="M11.638 21.155h35.717v13.837h-35.717z"></path>
<path fill="#fff" d="M11.638-2.361h37.659v12.672h-37.659z"></path>
<path fill="#fff" d="M7.801 4.637h1.53c0.083 0 0.149 0.063 0.149 0.14v0.726c0 0.077-0.067 0.14-0.149 0.14h-1.53c-0.083 0-0.149-0.063-0.149-0.14v-0.726c0-0.077 0.067-0.14 0.149-0.14z"></path>
<path fill="#fff" d="M7.84 4.678h1.451c0.078 0 0.142 0.058 0.142 0.128v0.665c0 0.071-0.063 0.128-0.142 0.128h-1.451c-0.078 0-0.142-0.058-0.142-0.128v-0.665c0-0.071 0.064-0.128 0.142-0.128z"></path>
<path fill="#fff" d="M8.505 4.93l0.088 0.003 0.004 0.040 0.072 0.037 0.056-0.046 0.068 0.037-0.064 0.040 0.016 0.055 0.080-0.003v0.073l-0.064-0.003-0.032 0.046 0.072 0.052-0.056 0.043-0.060-0.046-0.088 0.018 0.004 0.067-0.096 0.006-0.012-0.064-0.080-0.034-0.044 0.046-0.068-0.034 0.040-0.052-0.048-0.034h-0.068l-0.004-0.095 0.068 0.006 0.048-0.055-0.056-0.043 0.072-0.049 0.052 0.040 0.088-0.012 0.012-0.040z"></path>
<path fill="#fff" d="M8.628 5.129c0 0.046-0.043 0.083-0.096 0.083s-0.096-0.037-0.096-0.083c0-0.046 0.043-0.083 0.096-0.083s0.096 0.037 0.096 0.083z"></path>
<path fill="#fff" stroke="#ef2d28" stroke-linejoin="miter" stroke-linecap="butt" stroke-miterlimit="4" stroke-width="0.0937" d="M1.659 4.595h1.53c0.083 0 0.15 0.063 0.15 0.14v0.726c0 0.077-0.067 0.14-0.15 0.14h-1.53c-0.083 0-0.149-0.063-0.149-0.14v-0.726c0-0.077 0.067-0.14 0.149-0.14z"></path>
<path fill="#fff" stroke="#ef2d28" stroke-linejoin="miter" stroke-linecap="butt" stroke-miterlimit="4" stroke-width="0.0874" d="M1.699 4.636h1.451c0.078 0 0.142 0.058 0.142 0.128v0.665c0 0.071-0.063 0.128-0.142 0.128h-1.451c-0.078 0-0.142-0.058-0.142-0.128v-0.665c0-0.071 0.063-0.128 0.142-0.128z"></path>
<path fill="#fff" stroke="#ef2d28" stroke-linejoin="miter" stroke-linecap="butt" stroke-miterlimit="4" stroke-width="0.0874" d="M2.363 4.888l0.088 0.003 0.004 0.040 0.072 0.037 0.056-0.046 0.068 0.037-0.064 0.040 0.016 0.055 0.080-0.003v0.073l-0.064-0.003-0.032 0.046 0.072 0.052-0.056 0.043-0.060-0.046-0.088 0.018 0.004 0.067-0.096 0.006-0.012-0.064-0.080-0.034-0.044 0.046-0.068-0.034 0.040-0.052-0.048-0.034h-0.068l-0.004-0.095 0.068 0.006 0.048-0.055-0.056-0.043 0.072-0.049 0.052 0.040 0.088-0.012 0.012-0.040z"></path>
<path fill="#fff" stroke="#ef2d28" stroke-linejoin="miter" stroke-linecap="butt" stroke-miterlimit="4" stroke-width="0.0874" d="M2.486 5.087c0 0.046-0.043 0.083-0.096 0.083s-0.096-0.037-0.096-0.083c0-0.046 0.043-0.083 0.096-0.083s0.096 0.037 0.096 0.083z"></path>
<path fill="#fff" stroke="#ef2d28" stroke-linejoin="miter" stroke-linecap="butt" stroke-miterlimit="4" stroke-width="0.0874" d="M4.378 6.703c-2.275 2.231-3.246 2.513-2.79 2.693s1.921-0.972 3.445-2.501 2.458-2.89 2.003-3.070-0.238 0.506-2.658 2.878z"></path>
<path fill="#fff" stroke="#ef2d28" stroke-linejoin="miter" stroke-linecap="butt" stroke-miterlimit="4" stroke-width="0.0819" d="M2.463 8.325l0.797 0.21c-0.75 0.713-1.594 1.006-1.829 0.88s0.422-0.419 1.031-1.090z"></path>
<path fill="#fff" stroke="#ef2d28" stroke-linejoin="miter" stroke-linecap="butt" stroke-miterlimit="4" stroke-width="0.0847" d="M2.463 8.409l0.656 0.168c-0.731 0.685-1.454 0.88-1.641 0.796-0.188-0.084 0.39-0.319 0.984-0.964z"></path>
<path fill="none" stroke="#ef2d28" stroke-linejoin="miter" stroke-linecap="butt" stroke-miterlimit="4" stroke-width="0.1167" d="M4.911 6.606c-0.002 0.011-0.007 0.059-0.012 0.078 0 0.026-0.003 0.047-0.006 0.067-0.007 0.018-0.006 0.035-0.029 0.041-0.016 0.022-0.026 0.027-0.047 0.036-0.014 0.011-0.036 0.022-0.058 0.031s-0.044 0.010-0.070 0.005c-0.020-0.013-0.035-0.026-0.052-0.036-0.004-0.016-0.008-0.041-0.012-0.057 0.006 0.017 0.011 0.044 0.012 0.067-0.002 0.026-0.012 0.037-0.023 0.057"></path>
<path fill="none" stroke="#ef2d28" stroke-linejoin="miter" stroke-linecap="butt" stroke-miterlimit="4" stroke-width="0.1167" d="M4.696 6.953l-0.006-0.005c0.014 0.012 0.008 0.006-0.023-0.010-0.023-0.010-0.047-0.016-0.076-0.021h-0.082c-0.032 0-0.053 0.004-0.076 0.010-0.016 0.015-0.041 0.023-0.058 0.036-0.018 0.011-0.025 0.023-0.035 0.041-0.016 0.014-0.026 0.036-0.041 0.047-0.007 0.024-0.020 0.023-0.029 0.041 0.027 0.002 0.050 0.005 0.064 0.021 0.024 0.011-0.020-0.011-0.029-0.021-0.019-0.005-0.024-0.010-0.052-0.010-0.027-0.007-0.043 0.006-0.070 0.010-0.016 0.008-0.020 0.010-0.041 0.010"></path>
<path fill="none" stroke="#ef2d28" stroke-linejoin="miter" stroke-linecap="butt" stroke-miterlimit="4" stroke-width="0.1167" d="M4.381 7.212c-0.012 0.001-0.066 0.009-0.087 0-0.024-0.006-0.038-0.017-0.052-0.036-0.007-0.014 0 0.025 0 0.041-0.003 0.030-0.013 0.031-0.029 0.052-0.017 0.010-0.035 0.023-0.052 0.031-0.015 0.011-0.033 0.019-0.052 0.026-0.018 0.007-0.038 0.015-0.052 0.026-0.019 0.012-0.018 0.027-0.029 0.047 0.002 0.025 0.007 0.040 0.023 0.052 0.007 0.018 0.022 0.035 0.035 0.047 0.014 0.024 0.030 0.035-0.006 0.041-0.020 0.008-0.031 0.002-0.052 0"></path>
<path fill="none" stroke="#ef2d28" stroke-linejoin="miter" stroke-linecap="butt" stroke-miterlimit="4" stroke-width="0.1167" d="M4.014 7.574c-0.014-0.003-0.065-0.018-0.087-0.026h-0.082c-0.032 0.002-0.038 0.010-0.064 0.021-0.017 0.016-0.029 0.026-0.052 0.036-0.013 0.014-0.037 0.039-0.047 0.057-0.007 0.018-0.012 0.042-0.012 0.067 0 0.030 0.009 0.035 0.012 0.062 0.007 0.022 0.017 0.043 0.035 0.062 0.002 0.007 0.004 0.008 0.012 0.010"></path>
<path fill="none" stroke="#ef2d28" stroke-linejoin="miter" stroke-linecap="butt" stroke-miterlimit="4" stroke-width="0.1559" d="M3.737 7.931c-0.002 0-0.008 0.013-0.017 0.024-0.019 0.019-0.021 0.020-0.050 0.020-0.026-0.001-0.023-0.010-0.041-0.016-0.009-0.013-0.019-0.024-0.029-0.041-0.007-0.011-0.013-0.027-0.021-0.037-0.008-0.012-0.017-0.021-0.025-0.033-0.008-0.003-0.011-0.006-0.021-0.008 0.024 0.004 0.026 0.012 0.041 0.024 0.007 0.012 0.014 0.024 0.021 0.037 0.002 0.017 0.008 0.031 0.008 0.053s-0 0.038-0.008 0.057c-0.010 0.010-0.017 0.021-0.029 0.029-0.010 0.009-0.021 0.022-0.029 0.033-0.013 0.008-0.022 0.014-0.037 0.024-0.012 0.007-0.026 0.015-0.046 0.016-0.024-0.002-0.031-0.008-0.050-0.016-0.015-0.011-0.028-0.019-0.041-0.029-0.011-0.007-0.022-0.022-0.029-0.033-0.022-0.006-0.037-0.003-0.050 0.008-0.011 0.008-0.021 0.017-0.029 0.028l-0 0c-0.007 0.003-0.018 0.013-0.025 0.016"></path>
<path fill="none" stroke="#ef2d28" stroke-linejoin="miter" stroke-linecap="butt" stroke-miterlimit="4" stroke-width="0.1252" d="M3.281 8.1c0.007 0.003 0.031 0.019 0.041 0.025 0.007 0.021 0.017 0.033 0.021 0.056 0.006 0.022 0.005 0.046 0.005 0.071-0.006 0.026-0.017 0.045-0.026 0.066-0.016 0.011-0.024 0.019-0.046 0.031-0.021 0.003-0.041 0.005-0.067 0.005-0.016 0.005-0.046 0.008-0.062 0-0.023-0.003-0.040-0.012-0.057-0.020-0.019-0.011-0.031-0.021-0.051-0.031-0.010-0.015-0.026-0.028-0.041-0.046-0.013-0.017-0.022-0.027-0.031-0.046 0.008 0.022 0.019 0.041 0.026 0.061 0.012 0.022 0.018 0.029 0.021 0.056 0.007 0.021 0.005 0.047 0.005 0.071-0.002 0.017-0.003 0.048-0.010 0.061v0.015"></path>
<path fill="none" stroke="#ef2d28" stroke-linejoin="miter" stroke-linecap="butt" stroke-miterlimit="4" stroke-width="0.0819" d="M2.521 8.558v0.007c0-0.020-0.001-0.010 0.008 0.030 0.016 0.017 0.052 0.022 0.083 0.015 0.027-0.020 0.026-0.035 0.074-0.044 0.047 0.003 0.065 0.015 0.091 0.030 0.031 0.014 0.046 0.021 0.066 0.052 0.010 0.025 0.016 0.042-0.017 0.052-0.026 0.016-0.057 0.025-0.091 0.030-0.038 0-0.066-0.004-0.083 0.015-0.026 0.024-0.025 0.039-0.025 0.081-0.009 0.013-0.011 0.052-0.017 0.067-0.023 0.010-0.036 0.015-0.074 0.015-0.009-0.023-0.019-0.064-0.025-0.089-0.006-0.027-0.008-0.064-0.025-0.081-0.016-0.021-0.035-0.038-0.057-0.051l-0.001-0c-0.010-0.013-0.029-0.023-0.050-0.030 0.032 0.015 0.037 0.031 0.041 0.067-0.029 0.013-0.036 0.022-0.083 0.022-0.046-0.003-0.057-0.014-0.074-0.037-0.003 0.037-0.016 0.050-0.025 0.081-0.017 0.022-0.024 0.045-0.041 0.074 0.007 0.036 0.023 0.037 0.025 0.081 0.011 0.029 0.010 0.057 0.033 0.074 0.010 0.011 0.018 0.014 0.041 0.015-0.048 0-0.076-0.005-0.107-0.022-0.025-0.014-0.043-0.030-0.066-0.044-0.029-0.019-0.065-0.037-0.099-0.044-0.038 0-0.066-0.004-0.083 0.015-0.023 0.015-0.039 0.041-0.050 0.074-0.008 0.038-0.011 0.064 0.008 0.089 0.014 0.028 0.017 0.040 0 0.074-0.019 0.024-0.048 0.027-0.091 0.037-0.031-0.002-0.062-0.008-0.083-0.015"></path>
<path fill="#fff" stroke="#ef2d28" stroke-linejoin="miter" stroke-linecap="butt" stroke-miterlimit="4" stroke-width="0.0874" d="M6.974 4.69c1.009-1.747 1.68-3.234 1.496-3.319s-1.153 1.264-2.162 3.012l0.667 0.308z"></path>
<path fill="#fff" stroke="#ef2d28" stroke-linejoin="miter" stroke-linecap="butt" stroke-miterlimit="4" stroke-width="0.0874" d="M6.907 4.659c0.974-1.686 1.645-3.109 1.498-3.177s-1.057 1.245-2.031 2.931"></path>
<path fill="#fff" stroke="#ef2d28" stroke-linejoin="miter" stroke-linecap="butt" stroke-miterlimit="4" stroke-width="0.0874" d="M6.74 3.78c-0.118 0.197-0.244 0.422-0.366 0.633l0.533 0.246c0.122-0.211 0.255-0.433 0.366-0.633l-0.533-0.246z"></path>
<path fill="#fff" stroke="#ef2d28" stroke-linejoin="miter" stroke-linecap="butt" stroke-miterlimit="4" stroke-width="0.0874" d="M6.785 3.848c-0.118 0.197-0.201 0.348-0.323 0.559l0.4 0.185c0.122-0.211 0.211-0.358 0.323-0.559l-0.4-0.185z"></path>
<path fill="#fff" stroke="#ef2d28" stroke-linejoin="miter" stroke-linecap="butt" stroke-miterlimit="4" stroke-width="0.0874" d="M7.075 4.076l-0.267-0.123-0.237 0.41 0.267 0.123z"></path>
<path fill="#ef0000" stroke="#ef2d28" stroke-linejoin="miter" stroke-linecap="butt" stroke-miterlimit="4" stroke-width="0.0874" d="M8.188 1.751c0.009 0.037 0.051 0.058 0.092 0.047s0.068-0.049 0.058-0.085c-0.009-0.037-0.051-0.058-0.092-0.047s-0.068 0.049-0.058 0.085z"></path>
<path fill="#fff" stroke="#ef2d28" stroke-linejoin="miter" stroke-linecap="butt" stroke-miterlimit="4" stroke-width="0.0874" d="M6.58 6.662c2.275 2.231 3.246 2.513 2.79 2.693s-1.921-0.972-3.445-2.501-2.458-2.89-2.003-3.070 0.238 0.506 2.658 2.878z"></path>
<path fill="#fff" stroke="#ef2d28" stroke-linejoin="miter" stroke-linecap="butt" stroke-miterlimit="4" stroke-width="0.0819" d="M8.496 8.283l-0.797 0.21c0.75 0.713 1.594 1.006 1.829 0.88s-0.422-0.419-1.031-1.090z"></path>
<path fill="#fff" stroke="#ef2d28" stroke-linejoin="miter" stroke-linecap="butt" stroke-miterlimit="4" stroke-width="0.0847" d="M8.496 8.367l-0.656 0.168c0.731 0.685 1.454 0.88 1.641 0.796 0.188-0.084-0.39-0.319-0.984-0.964z"></path>
<path fill="none" stroke="#ef2d28" stroke-linejoin="miter" stroke-linecap="butt" stroke-miterlimit="4" stroke-width="0.1167" d="M6.047 6.565c0.002 0.011 0.007 0.059 0.012 0.078 0 0.026 0.003 0.047 0.006 0.067 0.007 0.018 0.006 0.035 0.029 0.041 0.016 0.022 0.026 0.027 0.047 0.036 0.014 0.011 0.036 0.022 0.058 0.031s0.044 0.010 0.070 0.005c0.020-0.013 0.035-0.026 0.052-0.036 0.004-0.016 0.008-0.041 0.012-0.057-0.006 0.017-0.011 0.044-0.012 0.067 0.002 0.026 0.012 0.037 0.023 0.057"></path>
<path fill="none" stroke="#ef2d28" stroke-linejoin="miter" stroke-linecap="butt" stroke-miterlimit="4" stroke-width="0.1167" d="M6.263 6.911l0.006-0.005c-0.014 0.012-0.008 0.006 0.023-0.010 0.023-0.010 0.047-0.016 0.076-0.021h0.082c0.032 0 0.053 0.004 0.076 0.010 0.016 0.015 0.041 0.023 0.058 0.036 0.018 0.011 0.025 0.023 0.035 0.041 0.016 0.014 0.026 0.036 0.041 0.047 0.007 0.024 0.020 0.023 0.029 0.041-0.027 0.002-0.050 0.005-0.064 0.021-0.024 0.011 0.020-0.011 0.029-0.021 0.019-0.005 0.024-0.010 0.052-0.010 0.027-0.007 0.043 0.006 0.070 0.010 0.016 0.008 0.020 0.010 0.041 0.010"></path>
<path fill="none" stroke="#ef2d28" stroke-linejoin="miter" stroke-linecap="butt" stroke-miterlimit="4" stroke-width="0.1167" d="M6.577 7.17c0.012 0.001 0.066 0.009 0.087 0 0.024-0.006 0.038-0.017 0.052-0.036 0.007-0.014 0 0.025 0 0.041 0.003 0.030 0.013 0.031 0.029 0.052 0.017 0.010 0.035 0.023 0.052 0.031 0.015 0.011 0.033 0.019 0.052 0.026 0.018 0.007 0.038 0.015 0.052 0.026 0.019 0.012 0.018 0.027 0.029 0.047-0.002 0.025-0.007 0.040-0.023 0.052-0.007 0.018-0.022 0.035-0.035 0.047-0.014 0.024-0.030 0.035 0.006 0.041 0.020 0.008 0.031 0.002 0.052 0"></path>
<path fill="none" stroke="#ef2d28" stroke-linejoin="miter" stroke-linecap="butt" stroke-miterlimit="4" stroke-width="0.1167" d="M6.944 7.532c0.014-0.003 0.065-0.018 0.087-0.026h0.082c0.032 0.002 0.038 0.010 0.064 0.021 0.017 0.016 0.029 0.026 0.052 0.036 0.013 0.014 0.037 0.039 0.047 0.057 0.007 0.018 0.012 0.042 0.012 0.067-0 0.030-0.009 0.035-0.012 0.062-0.007 0.022-0.017 0.043-0.035 0.062-0.002 0.007-0.004 0.008-0.012 0.010"></path>
<path fill="none" stroke="#ef2d28" stroke-linejoin="miter" stroke-linecap="butt" stroke-miterlimit="4" stroke-width="0.1559" d="M7.222 7.889c0.002 0 0.008 0.013 0.017 0.024 0.019 0.019 0.021 0.020 0.050 0.020 0.026-0.001 0.023-0.010 0.041-0.016 0.009-0.013 0.019-0.024 0.029-0.041 0.007-0.011 0.013-0.027 0.021-0.037 0.008-0.012 0.017-0.021 0.025-0.033 0.008-0.003 0.011-0.006 0.021-0.008-0.024 0.004-0.026 0.012-0.041 0.024-0.007 0.012-0.014 0.024-0.021 0.037-0.002 0.017-0.008 0.031-0.008 0.053s0 0.038 0.008 0.057c0.010 0.010 0.017 0.021 0.029 0.029 0.010 0.009 0.021 0.022 0.029 0.033 0.013 0.008 0.022 0.014 0.037 0.024 0.012 0.007 0.026 0.015 0.045 0.016 0.024-0.002 0.031-0.008 0.050-0.016 0.015-0.011 0.028-0.019 0.041-0.029 0.011-0.007 0.022-0.022 0.029-0.033 0.022-0.006 0.037-0.003 0.050 0.008 0.011 0.008 0.021 0.017 0.029 0.028l0 0c0.007 0.003 0.018 0.013 0.025 0.016"></path>
<path fill="none" stroke="#ef2d28" stroke-linejoin="miter" stroke-linecap="butt" stroke-miterlimit="4" stroke-width="0.1252" d="M7.677 8.058c-0.007 0.003-0.031 0.019-0.041 0.025-0.007 0.021-0.017 0.033-0.021 0.056-0.006 0.022-0.005 0.046-0.005 0.071 0.006 0.026 0.017 0.045 0.026 0.066 0.016 0.011 0.024 0.019 0.046 0.031 0.021 0.003 0.041 0.005 0.067 0.005 0.016 0.005 0.046 0.008 0.062 0 0.023-0.003 0.040-0.012 0.057-0.020 0.019-0.011 0.031-0.021 0.051-0.031 0.010-0.015 0.026-0.028 0.041-0.046 0.013-0.017 0.022-0.027 0.031-0.046-0.008 0.022-0.019 0.041-0.026 0.061-0.012 0.022-0.019 0.029-0.021 0.056-0.007 0.021-0.005 0.047-0.005 0.071 0.002 0.017 0.003 0.048 0.010 0.061v0.015"></path>
<path fill="none" stroke="#ef2d28" stroke-linejoin="miter" stroke-linecap="butt" stroke-miterlimit="4" stroke-width="0.0819" d="M8.437 8.516v0.007c0-0.020 0.001-0.010-0.008 0.030-0.016 0.017-0.052 0.022-0.083 0.015-0.027-0.020-0.026-0.035-0.074-0.044-0.047 0.003-0.065 0.015-0.091 0.030-0.031 0.014-0.046 0.021-0.066 0.052-0.010 0.025-0.016 0.042 0.017 0.052 0.026 0.016 0.057 0.025 0.091 0.030 0.038 0 0.066-0.004 0.083 0.015 0.026 0.024 0.025 0.039 0.025 0.081 0.009 0.013 0.011 0.052 0.017 0.067 0.023 0.010 0.036 0.015 0.074 0.015 0.009-0.023 0.019-0.064 0.025-0.089 0.006-0.027 0.008-0.064 0.025-0.081 0.016-0.021 0.035-0.038 0.057-0.051l0.001-0c0.010-0.013 0.029-0.023 0.050-0.030-0.032 0.015-0.037 0.031-0.041 0.067 0.028 0.013 0.036 0.022 0.083 0.022 0.046-0.003 0.057-0.014 0.074-0.037 0.003 0.037 0.016 0.050 0.025 0.081 0.017 0.022 0.024 0.045 0.041 0.074-0.007 0.036-0.023 0.037-0.025 0.081-0.011 0.029-0.010 0.057-0.033 0.074-0.010 0.011-0.018 0.014-0.041 0.015 0.048 0 0.076-0.005 0.107-0.022 0.025-0.014 0.043-0.030 0.066-0.044 0.029-0.019 0.065-0.037 0.099-0.044 0.038 0 0.066-0.004 0.083 0.015 0.023 0.015 0.039 0.041 0.050 0.074 0.008 0.038 0.011 0.064-0.008 0.089-0.014 0.028-0.017 0.040 0 0.074 0.019 0.024 0.048 0.027 0.091 0.037 0.031-0.002 0.062-0.008 0.083-0.015"></path>
<path fill="#fff" stroke="#ef2d28" stroke-linejoin="miter" stroke-linecap="butt" stroke-miterlimit="4" stroke-width="0.0874" d="M3.985 4.648c-1.009-1.747-1.679-3.234-1.496-3.319s1.153 1.264 2.162 3.012l-0.667 0.308z"></path>
<path fill="#fff" stroke="#ef2d28" stroke-linejoin="miter" stroke-linecap="butt" stroke-miterlimit="4" stroke-width="0.0874" d="M4.051 4.618c-0.974-1.686-1.645-3.109-1.498-3.177s1.057 1.245 2.031 2.931"></path>
<path fill="#fff" stroke="#ef2d28" stroke-linejoin="miter" stroke-linecap="butt" stroke-miterlimit="4" stroke-width="0.0874" d="M4.219 3.738c0.118 0.197 0.244 0.422 0.366 0.633l-0.533 0.246c-0.122-0.211-0.255-0.433-0.366-0.633l0.533-0.246z"></path>
<path fill="#fff" stroke="#ef2d28" stroke-linejoin="miter" stroke-linecap="butt" stroke-miterlimit="4" stroke-width="0.0874" d="M4.174 3.806c0.118 0.197 0.201 0.348 0.323 0.559l-0.4 0.185c-0.122-0.211-0.211-0.358-0.323-0.559l0.4-0.185z"></path>
<path fill="#fff" stroke="#ef2d28" stroke-linejoin="miter" stroke-linecap="butt" stroke-miterlimit="4" stroke-width="0.0874" d="M3.884 4.035l0.267-0.123 0.237 0.41-0.267 0.123z"></path>
<path fill="#ef0000" stroke="#ef2d28" stroke-linejoin="miter" stroke-linecap="butt" stroke-miterlimit="4" stroke-width="0.0874" d="M2.771 1.709c-0.009 0.037-0.051 0.058-0.092 0.047s-0.068-0.049-0.058-0.085c0.009-0.037 0.051-0.058 0.092-0.047s0.068 0.049 0.058 0.085z"></path>
<path fill="#fff" stroke="#ef2d28" stroke-linejoin="miter" stroke-linecap="butt" stroke-miterlimit="4" stroke-width="0.0874" d="M4.792 3.756c0 1.467 0.009 2.020-0.099 2.096-0.102 0.081-2.948 0-2.948 0.419s2.344 0.838 3.048 0.838c0.938 0 1.407-0.419 1.407-1.257v-2.096h-1.407z"></path>
<path fill="#fff" stroke="#ef2d28" stroke-linejoin="miter" stroke-linecap="butt" stroke-miterlimit="4" stroke-width="0.0874" d="M4.792 4.175v0.21c0.469 0.070 0.938 0.070 1.407 0v-0.21c-0.469 0.070-0.938 0.070-1.407 0z"></path>
<path fill="#fff" stroke="#ef2d28" stroke-linejoin="miter" stroke-linecap="butt" stroke-miterlimit="4" stroke-width="0.0874" d="M4.792 3.756v0.21c0.469 0.070 0.938 0.070 1.407 0v-0.21c-0.469 0.070-0.938 0.070-1.407 0z"></path>
<path fill="#fff" stroke="#ef2d28" stroke-linejoin="miter" stroke-linecap="butt" stroke-miterlimit="4" stroke-width="0.0874" d="M4.792 3.966v0.21c0.469 0.070 0.938 0.070 1.407 0v-0.21c-0.469 0.070-0.938 0.070-1.407 0z"></path>
<path fill="#fff" stroke="#ef2d28" stroke-linejoin="miter" stroke-linecap="butt" stroke-miterlimit="4" stroke-width="0.0874" d="M4.792 4.385v0.21c0.469 0.070 0.938 0.070 1.407 0v-0.21c-0.469 0.070-0.938 0.070-1.407 0z"></path>
<path fill="#fff" stroke="#ef2d28" stroke-linejoin="miter" stroke-linecap="butt" stroke-miterlimit="4" stroke-width="0.2925" d="M4.92 4.085c0 0.025-0.029 0.045-0.064 0.045s-0.064-0.020-0.064-0.045c0-0.025 0.029-0.045 0.064-0.045s0.064 0.020 0.064 0.045z"></path>
<path fill="#fff" stroke="#ef2d28" stroke-linejoin="miter" stroke-linecap="butt" stroke-miterlimit="4" stroke-width="0.2925" d="M5.175 4.108c0 0.025-0.029 0.045-0.064 0.045s-0.064-0.020-0.064-0.045c0-0.025 0.029-0.045 0.064-0.045s0.064 0.020 0.064 0.045z"></path>
<path fill="#fff" stroke="#ef2d28" stroke-linejoin="miter" stroke-linecap="butt" stroke-miterlimit="4" stroke-width="0.2925" d="M5.431 4.13c0 0.025-0.029 0.045-0.064 0.045s-0.064-0.020-0.064-0.045c0-0.025 0.029-0.045 0.064-0.045s0.064 0.020 0.064 0.045z"></path>
<path fill="#fff" stroke="#ef2d28" stroke-linejoin="miter" stroke-linecap="butt" stroke-miterlimit="4" stroke-width="0.2925" d="M5.687 4.13c0 0.025-0.029 0.045-0.064 0.045s-0.064-0.020-0.064-0.045c0-0.025 0.029-0.045 0.064-0.045s0.064 0.020 0.064 0.045z"></path>
<path fill="#fff" stroke="#ef2d28" stroke-linejoin="miter" stroke-linecap="butt" stroke-miterlimit="4" stroke-width="0.2925" d="M5.943 4.108c0 0.025-0.029 0.045-0.064 0.045s-0.064-0.020-0.064-0.045c0-0.025 0.029-0.045 0.064-0.045s0.064 0.020 0.064 0.045z"></path>
<path fill="#fff" stroke="#ef2d28" stroke-linejoin="miter" stroke-linecap="butt" stroke-miterlimit="4" stroke-width="0.2925" d="M6.198 4.085c0 0.025-0.029 0.045-0.064 0.045s-0.064-0.020-0.064-0.045c0-0.025 0.029-0.045 0.064-0.045s0.064 0.020 0.064 0.045z"></path>
<path fill="#fff" stroke="#ef2d28" stroke-linejoin="miter" stroke-linecap="butt" stroke-miterlimit="4" stroke-width="0.0874" d="M4.792 4.595v0.21c0.469 0.070 0.938 0.070 1.407 0v-0.21c-0.469 0.070-0.938 0.070-1.407 0z"></path>
<path fill="#fff" stroke="#ef2d28" stroke-linejoin="miter" stroke-linecap="butt" stroke-miterlimit="4" stroke-width="0.2925" d="M4.92 4.714c0 0.025-0.029 0.045-0.064 0.045s-0.064-0.020-0.064-0.045c0-0.025 0.029-0.045 0.064-0.045s0.064 0.020 0.064 0.045z"></path>
<path fill="#fff" stroke="#ef2d28" stroke-linejoin="miter" stroke-linecap="butt" stroke-miterlimit="4" stroke-width="0.2925" d="M5.175 4.736c0 0.025-0.029 0.045-0.064 0.045s-0.064-0.020-0.064-0.045c0-0.025 0.029-0.045 0.064-0.045s0.064 0.020 0.064 0.045z"></path>
<path fill="#fff" stroke="#ef2d28" stroke-linejoin="miter" stroke-linecap="butt" stroke-miterlimit="4" stroke-width="0.2925" d="M5.431 4.759c0 0.025-0.029 0.045-0.064 0.045s-0.064-0.020-0.064-0.045c0-0.025 0.029-0.045 0.064-0.045s0.064 0.020 0.064 0.045z"></path>
<path fill="#fff" stroke="#ef2d28" stroke-linejoin="miter" stroke-linecap="butt" stroke-miterlimit="4" stroke-width="0.2925" d="M5.687 4.759c0 0.025-0.029 0.045-0.064 0.045s-0.064-0.020-0.064-0.045c0-0.025 0.029-0.045 0.064-0.045s0.064 0.020 0.064 0.045z"></path>
<path fill="#fff" stroke="#ef2d28" stroke-linejoin="miter" stroke-linecap="butt" stroke-miterlimit="4" stroke-width="0.2925" d="M5.943 4.736c0 0.025-0.029 0.045-0.064 0.045s-0.064-0.020-0.064-0.045c0-0.025 0.029-0.045 0.064-0.045s0.064 0.020 0.064 0.045z"></path>
<path fill="#fff" stroke="#ef2d28" stroke-linejoin="miter" stroke-linecap="butt" stroke-miterlimit="4" stroke-width="0.2925" d="M6.198 4.714c0 0.025-0.029 0.045-0.064 0.045s-0.064-0.020-0.064-0.045c0-0.025 0.029-0.045 0.064-0.045s0.064 0.020 0.064 0.045z"></path>
<path fill="#fff" stroke="#ef2d28" stroke-linejoin="miter" stroke-linecap="butt" stroke-miterlimit="4" stroke-width="0.0874" d="M4.698 5.852h-0.234c-0.078 0.419-0.078 0.838 0 1.257h0.234c-0.078-0.419-0.078-0.838 0-1.257z"></path>
<path fill="#fff" stroke="#ef2d28" stroke-linejoin="miter" stroke-linecap="butt" stroke-miterlimit="4" stroke-width="0.0874" d="M2.776 5.936l-0.281 0.042c-0.063 0.265-0.063 0.489 0 0.754l0.281 0.084c-0.063-0.265-0.063-0.615 0-0.88z"></path>
<path fill="#fff" stroke="#ef2d28" stroke-linejoin="miter" stroke-linecap="butt" stroke-miterlimit="4" stroke-width="0.0874" d="M6.197 3.84v-0.211c-0.211 0.002-0.351-0.124-0.351-0.252l-0.702 0.002c0 0.126-0.141 0.252-0.351 0.252v0.21h1.405z"></path>
<path fill="#fff" stroke="#ef2d28" stroke-linejoin="miter" stroke-linecap="butt" stroke-miterlimit="4" stroke-width="0.0904" d="M5.193 3.128h0.602v0.252h-0.602zM5.243 2.876h0.502v0.252h-0.502zM5.243 2.625h0.502v0.252h-0.502zM5.294 2.289h0.401v0.335h-0.401z"></path>
<path fill="#fff" stroke="#ef2d28" stroke-linejoin="miter" stroke-linecap="butt" stroke-miterlimit="4" stroke-width="0.0942" d="M5.276 1.996h0.436v0.293h-0.436z"></path>
<path fill="#fff" stroke="#ef2d28" stroke-linejoin="miter" stroke-linecap="butt" stroke-miterlimit="4" stroke-width="0.0874" d="M6.1 1.723c0 0.22-0.26 0.398-0.581 0.398s-0.581-0.178-0.581-0.398c0-0.22 0.26-0.398 0.581-0.398s0.581 0.178 0.581 0.398z"></path>
<path fill="#fff" stroke="#ef2d28" stroke-linejoin="miter" stroke-linecap="butt" stroke-miterlimit="4" stroke-width="0.0874" d="M5.809 1.702c0 0.11 0.145 0.293 0.145 0.293-0.105 0.072-0.276 0.126-0.436 0.126s-0.36-0.030-0.436-0.126c0 0 0.145-0.183 0.145-0.293s-0.145-0.252-0.145-0.252c0.105-0.072 0.276-0.126 0.436-0.126s0.331 0.054 0.436 0.126c0 0-0.145 0.142-0.145 0.252z"></path>
<path fill="#fff" stroke="#ef2d28" stroke-linejoin="miter" stroke-linecap="butt" stroke-miterlimit="4" stroke-width="0.0874" d="M5.712 1.702c0 0.11 0.145 0.335 0.145 0.335-0.105 0.072-0.179 0.084-0.339 0.084s-0.263 0.012-0.339-0.084c0 0 0.145-0.225 0.145-0.335s-0.145-0.293-0.145-0.293c0.105-0.072 0.179-0.084 0.339-0.084s0.234 0.012 0.339 0.084c0 0-0.145 0.183-0.145 0.293z"></path>
<path fill="#fff" stroke="#ef2d28" stroke-linejoin="miter" stroke-linecap="butt" stroke-miterlimit="4" stroke-width="0.0874" d="M5.082 1.744c0 0.069-0.065 0.126-0.145 0.126s-0.145-0.056-0.145-0.126c0-0.069 0.065-0.126 0.145-0.126s0.145 0.056 0.145 0.126z"></path>
<path fill="#fff" stroke="#ef2d28" stroke-linejoin="miter" stroke-linecap="butt" stroke-miterlimit="4" stroke-width="0.0874" d="M6.245 1.744c0 0.069-0.065 0.126-0.145 0.126s-0.145-0.056-0.145-0.126c0-0.069 0.065-0.126 0.145-0.126s0.145 0.056 0.145 0.126z"></path>
<path fill="#fff" stroke="#ef2d28" stroke-linejoin="miter" stroke-linecap="butt" stroke-miterlimit="4" stroke-width="0.0874" d="M5.664 1.744c0 0.069-0.065 0.126-0.145 0.126s-0.145-0.056-0.145-0.126c0-0.069 0.065-0.126 0.145-0.126s0.145 0.056 0.145 0.126z"></path>
<path fill="#fff" stroke="#ef2d28" stroke-linejoin="miter" stroke-linecap="butt" stroke-miterlimit="4" stroke-width="0.0874" d="M5.664 1.325c0 0.069-0.065 0.126-0.145 0.126s-0.145-0.056-0.145-0.126c0-0.069 0.065-0.126 0.145-0.126s0.145 0.056 0.145 0.126z"></path>
<path fill="#fff" stroke="#ef2d28" stroke-linejoin="miter" stroke-linecap="butt" stroke-miterlimit="4" stroke-width="0.0874" d="M5.243 3.714c0 0.069-0.067 0.126-0.151 0.126s-0.151-0.056-0.151-0.126c0-0.069 0.067-0.126 0.151-0.126s0.151 0.056 0.151 0.126z"></path>
<path fill="#fff" stroke="#ef2d28" stroke-linejoin="miter" stroke-linecap="butt" stroke-miterlimit="4" stroke-width="0.0874" d="M6.046 3.714c0 0.069-0.067 0.126-0.151 0.126s-0.151-0.056-0.151-0.126c0-0.069 0.067-0.126 0.151-0.126s0.151 0.056 0.151 0.126z"></path>
<path fill="#fff" stroke="#ef2d28" stroke-linejoin="miter" stroke-linecap="butt" stroke-miterlimit="4" stroke-width="0.0874" d="M5.143 3.379h0.702l-0.351 0.377-0.351-0.377z"></path>
<path fill="#fff" stroke="#ef2d28" stroke-linejoin="miter" stroke-linecap="butt" stroke-miterlimit="4" stroke-width="0.0874" d="M5.695 3.672c0 0.093-0.090 0.168-0.201 0.168s-0.201-0.075-0.201-0.168c0-0.093 0.090-0.168 0.201-0.168s0.201 0.075 0.201 0.168z"></path>
<path fill="#fff" stroke="#ef2d28" stroke-linejoin="miter" stroke-linecap="butt" stroke-miterlimit="4" stroke-width="0.0819" d="M4.779 4.93h0.963c0.032 0 0.058 0.020 0.058 0.044v0.164c0 0.024-0.026 0.044-0.058 0.044h-0.963c-0.032 0-0.058-0.020-0.058-0.044v-0.164c0-0.024 0.026-0.044 0.058-0.044z"></path>
<path fill="#fff" stroke="#ef2d28" stroke-linejoin="miter" stroke-linecap="butt" stroke-miterlimit="4" stroke-width="0.0819" d="M6.128 4.721c0.13 0 0.234 0.098 0.234 0.219v0.191c0 0.121-0.105 0.219-0.234 0.219s-0.234-0.098-0.234-0.219v-0.191c0-0.121 0.105-0.219 0.234-0.219zM6.128 4.805c-0.078 0-0.141 0.078-0.141 0.175v0.111c0 0.097 0.063 0.175 0.141 0.175s0.141-0.078 0.141-0.175v-0.111c0-0.097-0.063-0.175-0.141-0.175zM4.909 4.763c0.078 0 0.141 0.078 0.141 0.175v0.194c0 0.097-0.063 0.175-0.141 0.175s-0.141-0.078-0.141-0.175v-0.194c0-0.097 0.063-0.175 0.141-0.175zM4.909 4.679c-0.13 0-0.234 0.098-0.234 0.219v0.274c0 0.121 0.105 0.219 0.234 0.219s0.234-0.098 0.234-0.219v-0.274c0-0.121-0.105-0.219-0.234-0.219z"></path>
<path fill="#fff" stroke="#ef2d28" stroke-linejoin="miter" stroke-linecap="butt" stroke-miterlimit="4" stroke-width="0.0819" d="M4.534 4.847c0.078 0 0.141 0.078 0.141 0.175v0.046c0 0.097-0.063 0.175-0.141 0.175s-0.141-0.078-0.141-0.175v-0.046c0-0.097 0.063-0.175 0.141-0.175zM4.534 4.763c-0.13 0-0.234 0.098-0.234 0.219v0.126c0 0.121 0.105 0.219 0.234 0.219s0.234-0.098 0.234-0.219v-0.126c0-0.121-0.105-0.219-0.234-0.219z"></path>
<path fill="#fff" stroke="#ef2d28" stroke-linejoin="miter" stroke-linecap="butt" stroke-miterlimit="4" stroke-width="0.0578" d="M3.971 4.731c0.14 0 0.253 0.087 0.253 0.196v0.217c0 0.109-0.113 0.196-0.253 0.196s-0.253-0.087-0.253-0.196v-0.217c0-0.109 0.113-0.196 0.253-0.196zM3.971 4.637c-0.234 0-0.422 0.109-0.422 0.245v0.307c0 0.136 0.188 0.245 0.422 0.245s0.422-0.109 0.422-0.245v-0.307c0-0.136-0.188-0.245-0.422-0.245z"></path>
<path fill="#fff" stroke="#ef2d28" stroke-linejoin="miter" stroke-linecap="butt" stroke-miterlimit="4" stroke-width="0.0578" d="M7.019 4.772c0.14 0 0.253 0.087 0.253 0.196v0.217c0 0.109-0.113 0.196-0.253 0.196s-0.253-0.087-0.253-0.196v-0.217c0-0.109 0.113-0.196 0.253-0.196zM7.019 4.679c-0.234 0-0.422 0.109-0.422 0.245v0.307c0 0.136 0.188 0.245 0.422 0.245s0.422-0.109 0.422-0.245v-0.307c0-0.136-0.188-0.245-0.422-0.245z"></path>
<path fill="#fff" stroke="#ef2d28" stroke-linejoin="miter" stroke-linecap="butt" stroke-miterlimit="4" stroke-width="0.0819" d="M6.252 4.93h0.503c0.017 0 0.030 0.020 0.030 0.044v0.164c0 0.024-0.013 0.044-0.030 0.044h-0.503c-0.017 0-0.030-0.020-0.030-0.044v-0.164c0-0.024 0.013-0.044 0.030-0.044z"></path>
<path fill="#fff" stroke="#ef2d28" stroke-linejoin="miter" stroke-linecap="butt" stroke-miterlimit="4" stroke-width="0.0819" d="M5.724 4.889h0.293c0.010 0 0.018 0.026 0.018 0.058v0.219c0 0.032-0.008 0.058-0.018 0.058h-0.293c-0.010 0-0.018-0.026-0.018-0.058v-0.219c0-0.032 0.008-0.058 0.018-0.058z"></path>
<path fill="#fff" stroke="#ef2d28" stroke-linejoin="miter" stroke-linecap="butt" stroke-miterlimit="4" stroke-width="0.0819" d="M4.176 4.889h0.293c0.010 0 0.018 0.026 0.018 0.058v0.219c0 0.032-0.008 0.058-0.018 0.058h-0.293c-0.010 0-0.018-0.026-0.018-0.058v-0.219c0-0.032 0.008-0.058 0.018-0.058z"></path>
<path fill="#fff" stroke="#ef2d28" stroke-linejoin="miter" stroke-linecap="butt" stroke-miterlimit="4" stroke-width="0.0819" d="M3.162 4.847h0.586c0.019 0 0.035 0.033 0.035 0.073v0.274c0 0.040-0.016 0.073-0.035 0.073h-0.586c-0.019 0-0.035-0.033-0.035-0.073v-0.274c0-0.040 0.016-0.073 0.035-0.073z"></path>
<path fill="#fff" stroke="#ef2d28" stroke-linejoin="miter" stroke-linecap="butt" stroke-miterlimit="4" stroke-width="0.0819" d="M7.239 4.889h0.544c0.018 0 0.033 0.033 0.033 0.073v0.274c0 0.040-0.015 0.073-0.033 0.073h-0.544c-0.018 0-0.033-0.033-0.033-0.073v-0.274c0-0.040 0.015-0.073 0.033-0.073z"></path>
</svg>
