<!-- Generated by IcoMoon.io -->
<svg version="1.1" xmlns="http://www.w3.org/2000/svg" width="43" height="32" viewBox="0 0 43 32">
<title>PAB</title>
<path fill="#fff" d="M0 0h42.667v32h-42.667z"></path>
<path fill="#fff" d="M6.164 0h31.813v32h-31.813z"></path>
<path fill="#db0000" d="M21.538 0.244h23.867v14.779h-23.867z"></path>
<path fill="#0000ab" d="M0.215 15.022h21.325v16.977h-21.325zM14.32 11.843l-2.797-1.955-2.784 1.974 1.035-3.208-2.778-1.981 3.437-0.028 1.066-3.199 1.089 3.191 3.437 0.004-2.764 2 1.058 3.201z"></path>
<path fill="#d80000" d="M34.457 27.593l-2.824-1.85-2.81 1.868 1.045-3.035-2.805-1.874 3.47-0.026 1.076-3.026 1.099 3.019 3.47 0.004-2.79 1.892 1.068 3.029z"></path>
</svg>
