<!-- Generated by IcoMoon.io -->
<svg version="1.1" xmlns="http://www.w3.org/2000/svg" width="43" height="32" viewBox="0 0 43 32">
<title>PGK</title>
<path fill="#000" d="M0.11 0l-0.033 31.999h42.666l-42.633-31.999z"></path>
<path fill="#f00" d="M42.709 31.999l0.033-31.999h-42.666l42.633 31.999z"></path>
<path fill="#fc0" d="M26.419 7.963l-0.568-0.029c-0.175-0.41-0.668-0.564-0.971-0.391-0.275 0.024-1.717-0.022-1.717-0.022l1.054 0.46c0.26 0.702 1.166 0.867 1.166 0.867-0.080 1.294-1.314-0.167-2.35 0.57-0.74 0.442-0.749 0.971-1.149 1.824-0.124 0.237-0.645 0.85-0.645 0.85l0.87-0.074-0.278 0.369 1.036-0.147s-0.139 0.116-0.222 0.204c0.153 0.030 1.184-0.24 1.184-0.24l-0.074 0.332c0.528-0.211 1.184-0.425 1.184-0.425s0.232 0.193 0.444 0.277l0.148-0.59 0.592 0.147 0.148-0.59c0.888 1.18 1.184 2.359 2.812 2.654l-0.148-0.59c0.453 0.193 1.293 0.603 1.293 0.603l0.127-0.27c0.706 0.504 1.292 0.495 1.687 0.552 0 0-0.294-0.734-0.296-0.737 0.019 0.007 0.294 0.149 0.296 0.147l-0.444-1.18 0.444 0.147-0.592-0.885 0.222-0.147-0.074-0.442c0.888 0.295 2.072 0.737 2.22 1.77 0.148 1.622-1.628 2.064-2.812 1.917 0.888 0.737 2.516 0.442 3.256-0.295 0.296-0.295 0.444-0.737 0.592-1.18 0.148 0.442 0.444 1.032 0.444 1.622-0.148 1.327-1.924 1.77-3.108 1.917 1.332 0.737 3.7-0.147 3.848-2.064 0-1.622-1.036-2.359-1.48-3.097-0.067-0.268-0.148-0.793-0.148-0.793 0.057 0.017 0.444 0.205 0.444 0.205s-0.262-0.488-0.296-0.591c0 0-0.462-1.253-0.629-1.531 0.028-0.015 0.333 0.052 0.333 0.052l-1.212-1.514s0.292-0.027 0.343-0.035c0 0-1.409-1.107-1.795-1.248l0.444-0.147c-0.888-0.442-1.924-0.147-2.812 0.442l0.148-0.442-0.271 0.025v-0.506l0.271-0.404-0.444-0.147 0.296-0.737-0.444 0.147 0.148-0.737s-0.331 0.153-0.533 0.131c0.007 0.016 0.235-0.504 0.235-0.504-0.141-0.22 0.001-0.659 0.001-0.659-1.036 0.147-1.184 0.295-1.776 1.18-0.888 1.622-0.592 2.359-0.444 3.981z"></path>
<path fill="#f00" d="M32.010 10.387c0.077 0.127 0.917 0.53 1.549 0.887-0.17-0.68-1.403-0.829-1.549-0.887z"></path>
<path fill="#fff" d="M11.663 26.602l-0.941-0.599-1.263 0.603 0.28-1.076-0.966-1.012 1.115-0.068 0.666-1.227 0.408 1.035 1.378 0.252-0.862 0.708zM14.079 21.339l-0.437-0.208-0.42 0.24 0.064-0.479-0.359-0.323 0.476-0.087 0.198-0.441 0.23 0.425 0.481 0.052-0.334 0.35zM16.208 18.321l-0.958-0.466-0.928 0.522 0.148-1.051-0.786-0.718 1.050-0.184 0.442-0.966 0.502 0.938 1.058 0.121-0.74 0.764zM11.827 14.118l-1.128-0.563-1.105 0.606 0.189-1.243-0.921-0.86 1.245-0.205 0.536-1.138 0.58 1.116 1.252 0.156-0.886 0.895zM7.774 18.483l-1.137-0.672-1.134 0.687 0.291-1.286-1.007-0.861 1.317-0.122 0.512-1.221 0.523 1.211 1.324 0.108-0.994 0.87z"></path>
</svg>
