<!-- Generated by IcoMoon.io -->
<svg version="1.1" xmlns="http://www.w3.org/2000/svg" width="43" height="32" viewBox="0 0 43 32">
<title>PHP</title>
<path fill="#0038a8" d="M0 0h42.667v16h-42.667z"></path>
<path fill="#ce1126" d="M0 16h42.667v16h-42.667z"></path>
<path fill="#fff" d="M27.713 16l-27.713 16v-32z"></path>
<path fill="#fcd116" d="M13.156 16c0 1.767-1.433 3.2-3.2 3.2s-3.2-1.433-3.2-3.2c0-1.767 1.433-3.2 3.2-3.2s3.2 1.433 3.2 3.2z"></path>
<path fill="#fcd116" d="M3.2 16l0.419 0.419 6.337-0.419-6.337-0.419z"></path>
<path fill="#fcd116" d="M3.909 16.793l0.342 0.342 5.705-1.135z"></path>
<path fill="#fcd116" d="M3.909 15.207l0.342-0.342 5.705 1.135z"></path>
<path fill="#fcd116" d="M5.179 11.223v0.592l4.777 4.185-4.185-4.777z"></path>
<path fill="#fcd116" d="M5.119 12.285v0.484l4.837 3.231z"></path>
<path fill="#fcd116" d="M6.241 11.163h0.484l3.231 4.837z"></path>
<path fill="#fcd116" d="M9.956 9.244l-0.419 0.419 0.419 6.337 0.419-6.337z"></path>
<path fill="#fcd116" d="M9.162 9.953l-0.342 0.342 1.135 5.705z"></path>
<path fill="#fcd116" d="M10.749 9.953l0.342 0.342-1.135 5.705z"></path>
<path fill="#fcd116" d="M13.67 11.163h-0.484l-3.231 4.837z"></path>
<path fill="#fcd116" d="M14.732 11.223h-0.592l-4.185 4.777 4.777-4.185z"></path>
<path fill="#fcd116" d="M14.792 12.285v0.484l-4.837 3.231z"></path>
<path fill="#fcd116" d="M16.711 16l-0.419-0.419-6.337 0.419 6.337 0.419z"></path>
<path fill="#fcd116" d="M16.002 15.207l-0.342-0.342-5.705 1.135z"></path>
<path fill="#fcd116" d="M16.002 16.793l-0.342 0.342-5.705-1.135z"></path>
<path fill="#fcd116" d="M14.792 19.715v-0.484l-4.837-3.231z"></path>
<path fill="#fcd116" d="M14.732 20.777v-0.592l-4.777-4.185 4.185 4.777z"></path>
<path fill="#fcd116" d="M13.67 20.837h-0.484l-3.231-4.837z"></path>
<path fill="#fcd116" d="M10.749 22.047l0.342-0.342-1.135-5.705z"></path>
<path fill="#fcd116" d="M9.956 22.756l0.419-0.419-0.419-6.337-0.419 6.337z"></path>
<path fill="#fcd116" d="M9.162 22.047l-0.342-0.342 1.135-5.705z"></path>
<path fill="#fcd116" d="M5.179 20.777h0.592l4.185-4.777-4.777 4.185z"></path>
<path fill="#fcd116" d="M5.119 19.715v-0.484l4.837-3.231z"></path>
<path fill="#fcd116" d="M24.513 16l-1.203 0.418-0.026 1.273-0.769-1.015-1.218 0.369 0.727-1.045z"></path>
<path fill="#fcd116" d="M24.513 16l-1.203-0.418-0.026-1.273-0.769 1.015-1.218-0.369 0.727 1.045z"></path>
<path fill="#fcd116" d="M8.348 17.54l0.239-1.25-1.089-0.659 1.263-0.159 0.29-1.24 0.541 1.152z"></path>
<path fill="#fcd116" d="M8.348 17.54l0.963-0.832 1.115 0.614-0.494-1.173 0.929-0.871-1.269 0.107z"></path>
<path fill="#fcd116" d="M8.348 14.46l0.963 0.832 1.115-0.614-0.494 1.173 0.929 0.871-1.269-0.107z"></path>
<path fill="#fcd116" d="M8.348 14.46l0.239 1.25-1.089 0.659 1.263 0.159 0.29 1.24 0.541-1.152z"></path>
</svg>
