<!-- Generated by IcoMoon.io -->
<svg version="1.1" xmlns="http://www.w3.org/2000/svg" width="43" height="32" viewBox="0 0 43 32">
<title>PKR</title>
<path fill="#0c590b" d="M-2.667 0h48v32h-48z"></path>
<path fill="#fff" d="M-2.667 0h12.033v32h-12.033z"></path>
<path fill="#fff" d="M28.502 14.088l-1.948-0.41-1.024 1.707-0.212-1.979-1.94-0.447 1.817-0.813-0.174-1.983 1.335 1.476 1.832-0.779-0.992 1.726 1.307 1.502z"></path>
<path fill="#fff" d="M29.237 19.13c-1.729 3.81-6.267 5.474-10.088 3.704s-5.486-6.308-3.716-10.129c0.903-1.949 2.381-3.288 4.466-4.019-0.24 0.203-0.477 0.413-0.738 0.682-2.694 2.781-2.624 7.224 0.156 9.919s7.224 2.624 9.919-0.156z"></path>
</svg>
