<!-- Generated by IcoMoon.io -->
<svg version="1.1" xmlns="http://www.w3.org/2000/svg" width="43" height="32" viewBox="0 0 43 32">
<title>PYG</title>
<path fill="#0038a8" d="M0 21.313h42.667v10.687h-42.667z"></path>
<path fill="#fff" d="M0 10.667h42.667v10.667h-42.667z"></path>
<path fill="#d52b1e" d="M0 0h42.667v10.667h-42.667z"></path>
<path fill="#000" d="M19.154 17.579l-0.474 0.282-0.145-0.244c-0.027-0.045-0.044-0.082-0.050-0.111-0.002-0.009-0.003-0.019-0.003-0.029 0-0.020 0.004-0.039 0.012-0.055l-0 0.001c0.012-0.027 0.034-0.050 0.064-0.068 0.026-0.016 0.052-0.023 0.078-0.024 0 0 0 0 0.001 0 0.027 0 0.052 0.007 0.074 0.019l-0.001-0c0.015 0.008 0.031 0.021 0.049 0.040-0.005-0.021-0.006-0.037-0.005-0.049 0.001-0.008 0.004-0.020 0.011-0.038s0.012-0.031 0.017-0.038l0.095-0.153 0.098 0.166-0.098 0.164c-0.013 0.021-0.020 0.037-0.021 0.048-0.001 0.015 0.002 0.029 0.010 0.042l0.008 0.013 0.193-0.114zM18.785 17.599l-0.037-0.062c-0.004-0.007-0.014-0.018-0.030-0.035-0.007-0.008-0.017-0.014-0.029-0.015l-0-0c-0.002-0-0.004-0-0.006-0-0.010 0-0.019 0.003-0.027 0.008l0-0c-0.015 0.009-0.024 0.021-0.027 0.036s0.004 0.035 0.020 0.062l0.038 0.064zM18.338 17.233l-0.144-0.434 0.112-0.037 0.090 0.271 0.083-0.028-0.084-0.252 0.107-0.036 0.084 0.252 0.103-0.034-0.093-0.279 0.119-0.039 0.147 0.441zM18.149 16.588l-0.032-0.282c-0.007-0.061 0.002-0.109 0.028-0.143s0.065-0.054 0.119-0.060c0.055-0.006 0.1 0.005 0.135 0.035s0.056 0.079 0.064 0.147l0.011 0.093 0.203-0.023 0.020 0.17zM18.363 16.391l-0.005-0.042c-0.004-0.033-0.012-0.055-0.025-0.067-0.010-0.009-0.023-0.015-0.038-0.015-0.003 0-0.005 0-0.008 0.001l0-0c-0.017 0.002-0.032 0.010-0.042 0.022l-0 0c-0.011 0.013-0.014 0.035-0.011 0.067l0.006 0.048zM18.131 15.552l0.018-0.169 0.327 0.035c0.033 0.003 0.064 0.012 0.092 0.026l-0.002-0.001c0.028 0.013 0.051 0.032 0.070 0.056s0.032 0.048 0.038 0.073c0.009 0.034 0.011 0.074 0.006 0.121-0.003 0.027-0.008 0.056-0.015 0.087s-0.017 0.057-0.031 0.077c-0.013 0.020-0.031 0.038-0.054 0.053s-0.045 0.025-0.067 0.029c-0.036 0.007-0.068 0.009-0.094 0.006l-0.327-0.035 0.018-0.169 0.335 0.036c0.030 0.003 0.054-0.003 0.073-0.017s0.030-0.037 0.033-0.066c0.003-0.029-0.003-0.053-0.017-0.071s-0.038-0.029-0.068-0.032zM18.205 15.148l0.105-0.301c0.018-0.050 0.043-0.084 0.078-0.103 0.018-0.010 0.039-0.016 0.062-0.016 0.016 0 0.031 0.003 0.045 0.008l-0.001-0c0.031 0.011 0.054 0.030 0.069 0.057 0.010 0.018 0.015 0.041 0.015 0.068 0.022-0.034 0.047-0.056 0.075-0.066s0.059-0.009 0.092 0.002c0.027 0.009 0.049 0.024 0.066 0.044s0.028 0.043 0.033 0.069c0.003 0.016 0.002 0.039-0.004 0.067-0.008 0.038-0.014 0.063-0.018 0.075l-0.097 0.278zM18.466 15.057l0.024-0.070c0.009-0.025 0.011-0.044 0.005-0.057s-0.016-0.022-0.032-0.028c-0.015-0.005-0.029-0.005-0.041 0.002s-0.022 0.022-0.031 0.047l-0.025 0.071zM18.671 15.128l0.029-0.082c0.010-0.028 0.012-0.049 0.006-0.064s-0.018-0.026-0.033-0.031l-0-0c-0.005-0.002-0.011-0.003-0.017-0.003-0.009 0-0.018 0.003-0.026 0.007l0-0c-0.013 0.008-0.025 0.026-0.035 0.054l-0.029 0.082zM18.466 14.484l0.088-0.146 0.356 0.215 0.137-0.228 0.116 0.070-0.226 0.374zM18.8 13.979l0.109-0.131 0.424 0.353-0.109 0.131zM19.541 13.694l0.143-0.063c0.020 0.038 0.031 0.075 0.033 0.111s-0.005 0.069-0.020 0.101c-0.015 0.032-0.041 0.064-0.079 0.096-0.045 0.039-0.088 0.064-0.129 0.076s-0.085 0.010-0.135-0.006-0.097-0.049-0.141-0.101c-0.059-0.069-0.087-0.138-0.082-0.207s0.041-0.132 0.108-0.19c0.053-0.045 0.103-0.070 0.152-0.075s0.099 0.009 0.152 0.040l-0.092 0.124c-0.015-0.009-0.027-0.015-0.037-0.017-0.007-0.002-0.015-0.003-0.023-0.003s-0.016 0.001-0.024 0.003l0.001-0c-0.016 0.004-0.030 0.012-0.042 0.022l0-0c-0.029 0.025-0.042 0.056-0.037 0.093 0.003 0.028 0.021 0.060 0.053 0.098 0.040 0.046 0.074 0.072 0.103 0.077s0.056-0.003 0.082-0.025c0.025-0.021 0.037-0.044 0.038-0.069s-0.007-0.053-0.024-0.084zM20.129 13.483l-0.171 0.091 0.019 0.093-0.154 0.082-0.077-0.584 0.164-0.087 0.443 0.389-0.157 0.084zM20.041 13.394l-0.147-0.146 0.040 0.204zM20.562 12.829l0.25-0.043c0.049-0.008 0.090-0.009 0.123-0.001s0.061 0.023 0.085 0.044c0.024 0.022 0.043 0.048 0.058 0.080s0.025 0.066 0.032 0.103c0.010 0.058 0.011 0.104 0.004 0.139s-0.022 0.065-0.042 0.091l0-0.001c-0.018 0.024-0.041 0.043-0.067 0.056l-0.001 0c-0.028 0.014-0.061 0.025-0.095 0.032l-0.003 0-0.25 0.043zM20.752 12.923l0.051 0.297 0.041-0.007c0.035-0.006 0.059-0.014 0.073-0.025s0.023-0.026 0.028-0.047c0.005-0.021 0.004-0.053-0.004-0.097-0.010-0.058-0.026-0.095-0.049-0.113s-0.055-0.023-0.099-0.016zM21.271 12.734l0.457 0.019-0.005 0.118-0.286-0.012-0.004 0.088 0.265 0.011-0.005 0.112-0.265-0.011-0.005 0.109 0.294 0.013-0.005 0.125-0.465-0.020zM21.936 12.786l0.166 0.041-0.099 0.404 0.258 0.063-0.032 0.132-0.424-0.104zM22.821 13.080l0.244 0.144c0.053 0.031 0.085 0.068 0.097 0.108s0.004 0.085-0.024 0.131c-0.028 0.048-0.065 0.077-0.11 0.087s-0.097-0.003-0.156-0.038l-0.080-0.048-0.104 0.176-0.147-0.087zM22.849 13.37l0.036 0.021c0.028 0.017 0.051 0.024 0.068 0.021s0.031-0.013 0.039-0.027l0-0c0.006-0.009 0.009-0.020 0.009-0.032 0-0.005-0.001-0.010-0.002-0.015l0 0c-0.004-0.016-0.020-0.033-0.047-0.049l-0.042-0.025zM23.327 14.013l-0.142-0.132-0.082 0.049-0.128-0.119 0.528-0.263 0.136 0.127-0.224 0.545-0.131-0.122zM23.382 13.901l0.090-0.187-0.18 0.104zM23.448 14.268l0.455-0.312 0.161 0.234c0.030 0.043 0.049 0.079 0.057 0.107s0.007 0.056-0.003 0.084c-0.011 0.028-0.030 0.052-0.059 0.072-0.025 0.017-0.051 0.027-0.076 0.029-0.003 0-0.007 0-0.011 0-0.023 0-0.046-0.005-0.065-0.015l0.001 0c-0.015-0.007-0.033-0.019-0.052-0.037 0.006 0.021 0.009 0.037 0.008 0.048-0 0.008-0.003 0.021-0.008 0.039-0.004 0.015-0.009 0.028-0.015 0.040l0.001-0.001-0.085 0.158-0.109-0.159 0.088-0.171c0.011-0.022 0.017-0.038 0.018-0.050 0-0 0-0 0-0 0-0.015-0.005-0.030-0.013-0.042l0 0-0.009-0.012-0.185 0.127zM23.816 14.224l0.041 0.059c0.004 0.006 0.015 0.017 0.032 0.033 0.008 0.008 0.018 0.012 0.030 0.013 0.001 0 0.002 0 0.003 0 0.011 0 0.021-0.004 0.030-0.010l-0 0c0.015-0.010 0.023-0.022 0.024-0.037s-0.007-0.035-0.024-0.061l-0.042-0.062zM23.986 15.050l-0.072-0.18-0.094 0.009-0.065-0.162 0.589-0.012 0.069 0.173-0.436 0.397-0.066-0.166zM24.084 14.972l0.162-0.13-0.207 0.017zM24.228 15.575l0.113-0.017 0.039 0.261-0.233 0.035c-0.041-0.045-0.071-0.085-0.089-0.122s-0.031-0.081-0.039-0.134c-0.010-0.065-0.007-0.119 0.009-0.163s0.044-0.081 0.084-0.11c0.040-0.029 0.089-0.048 0.145-0.056 0.060-0.009 0.113-0.004 0.161 0.014s0.088 0.051 0.116 0.092l0.001 0.001c0.023 0.034 0.039 0.083 0.049 0.145 0.009 0.060 0.010 0.106 0.004 0.138s-0.020 0.059-0.040 0.082l0-0c-0.020 0.023-0.047 0.042-0.081 0.058l-0.053-0.158c0.020-0.010 0.034-0.024 0.042-0.041s0.011-0.039 0.007-0.064c-0.005-0.037-0.023-0.065-0.052-0.083s-0.071-0.023-0.127-0.015c-0.059 0.009-0.1 0.026-0.122 0.052s-0.030 0.059-0.024 0.099c0.003 0.019 0.008 0.036 0.016 0.053s0.020 0.035 0.037 0.055l0.051-0.008zM24.589 16.376l-0.015 0.169-0.328-0.029c-0.033-0.003-0.064-0.011-0.093-0.024l0.002 0.001c-0.028-0.013-0.052-0.031-0.071-0.054l-0-0c-0.020-0.024-0.033-0.048-0.039-0.072-0.009-0.034-0.012-0.074-0.008-0.12 0.002-0.027 0.007-0.056 0.013-0.087s0.016-0.057 0.029-0.077c0.014-0.021 0.032-0.039 0.052-0.054l0.001-0c0.022-0.016 0.044-0.026 0.066-0.031 0.036-0.007 0.067-0.010 0.094-0.008l0.328 0.029-0.015 0.169-0.335-0.030c-0.030-0.003-0.054 0.004-0.072 0.019s-0.029 0.038-0.031 0.067c-0.003 0.029 0.004 0.053 0.019 0.071s0.038 0.029 0.068 0.031zM23.979 16.96l0.061-0.184-0.078-0.054 0.054-0.166 0.459 0.369-0.058 0.177-0.589 0.025 0.056-0.17zM24.103 16.963l0.207 0.004-0.169-0.119zM24.301 17.412l-0.097 0.162-0.217-0 0.103 0.191-0.097 0.161-0.165-0.349-0.198-0.119 0.088-0.147 0.198 0.119z"></path>
<path fill="#009b3a" d="M21.874 14.090s1.557 0.671 1.285 2.056c-0.272 1.386-1.139 1.376-1.478 1.53s-0.574 0.372-0.708 0.342c-0.134-0.031-0.311-0.134-0.311-0.134s-0.014 0.228 0.259 0.269c0.273 0.041 0.632-0.359 0.804-0.404s1.23-0.159 1.488-1.569c0.3-1.505-1.328-2.045-1.337-2.090z"></path>
<path fill="#009b3a" d="M22.66 14.385c0.028 0.11 0.030 0.203 0.004 0.21s-0.074-0.079-0.104-0.193c-0.001-0.003-0.002-0.006-0.002-0.010l0 0c-0.028-0.11-0.030-0.203-0.004-0.21s0.074 0.079 0.104 0.193c0.001 0.003 0.002 0.006 0.002 0.010l-0-0z"></path>
<path fill="#009b3a" d="M22.607 14.399c0.053 0.107 0.076 0.202 0.052 0.214s-0.088-0.066-0.143-0.175c-0.001-0.002-0.002-0.004-0.003-0.005l0 0c-0.051-0.104-0.073-0.196-0.049-0.208s0.088 0.066 0.142 0.174l0 0zM22.45 14.502c0.001 0 0.003 0.001 0.005 0.002 0.11 0.034 0.193 0.083 0.184 0.111-0.008 0.026-0.095 0.023-0.198-0.007l-0.001-0c-0.002-0.001-0.004-0.001-0.006-0.002-0.11-0.034-0.193-0.083-0.184-0.111 0.008-0.026 0.096-0.023 0.2 0.007l0.001 0z"></path>
<path fill="#009b3a" d="M22.474 14.445c0.002 0.001 0.004 0.003 0.007 0.005 0.1 0.068 0.169 0.142 0.154 0.164s-0.106-0.013-0.205-0.080l-0-0c-0.002-0.001-0.004-0.003-0.007-0.005-0.1-0.068-0.169-0.142-0.154-0.164s0.106 0.013 0.205 0.080l0 0z"></path>
<path fill="#009b3a" d="M22.54 14.417c0 0 0.001 0.001 0.001 0.001 0.085 0.089 0.139 0.176 0.119 0.195s-0.103-0.038-0.188-0.126l-0-0c-0-0-0.001-0.001-0.001-0.001-0.085-0.089-0.139-0.176-0.119-0.194s0.103 0.038 0.188 0.126l0 0z"></path>
<path fill="#009b3a" d="M22.648 14.613c0.001 0.001-0.060 0.034-0.074 0.039s-0.033-0.018-0.072 0.002c-0.040 0.020-0.067 0.058-0.076 0.079s0.011 0.031 0.059 0.008c0.048-0.023 0.061-0.060 0.084-0.075s0.062-0.036 0.084-0.044c0.010-0.021 0.041-0.066 0.057-0.091s0.079-0.068 0.102-0.117c0.020-0.041 0.012-0.076-0.014-0.061s-0.061 0.056-0.078 0.085c-0.016 0.029-0.002 0.067-0.020 0.095-0.014 0.020-0.048 0.081-0.052 0.081zM23.13 14.772c0.004 0.173-0.024 0.313-0.063 0.314s-0.076-0.141-0.081-0.318c-0-0.011-0-0.021-0.001-0.032v0.001c-0.004-0.173 0.024-0.313 0.063-0.314s0.076 0.141 0.081 0.318c0 0.011 0 0.021 0.001 0.032v-0.001z"></path>
<path fill="#009b3a" d="M23.050 14.77c0.039 0.179 0.041 0.33 0.004 0.338s-0.1-0.131-0.14-0.311c-0.002-0.007-0.003-0.014-0.005-0.021l0 0.001c-0.039-0.179-0.041-0.33-0.004-0.338s0.1 0.131 0.14 0.311c0.002 0.007 0.003 0.014 0.005 0.021l-0-0.001z"></path>
<path fill="#009b3a" d="M22.801 14.847c0.008 0.005 0.017 0.011 0.026 0.018 0.141 0.098 0.236 0.205 0.213 0.239s-0.15-0.016-0.286-0.11l-0.001-0c-0.008-0.005-0.017-0.011-0.026-0.018-0.141-0.098-0.236-0.205-0.213-0.239s0.15 0.016 0.286 0.11l0.001 0z"></path>
<path fill="#009b3a" d="M22.851 14.776c0.115 0.142 0.185 0.277 0.155 0.301-0.028 0.023-0.136-0.062-0.246-0.193l-0.001-0.001c-0.006-0.007-0.012-0.014-0.018-0.022-0.116-0.143-0.186-0.278-0.156-0.302s0.148 0.072 0.264 0.214c0.001 0.001 0.002 0.002 0.002 0.003l-0-0z"></path>
<path fill="#009b3a" d="M22.952 14.767c0.003 0.005 0.006 0.011 0.009 0.017 0.089 0.165 0.134 0.314 0.101 0.332s-0.132-0.102-0.22-0.267c-0.002-0.004-0.004-0.008-0.007-0.013l0 0.001c-0.003-0.005-0.005-0.010-0.008-0.015-0.089-0.165-0.134-0.314-0.101-0.332s0.132 0.102 0.22 0.267c0.002 0.004 0.004 0.007 0.006 0.011l-0-0.001z"></path>
<path fill="#009b3a" d="M23.037 15.095c0.001 0.002-0.094 0.022-0.115 0.022s-0.039-0.041-0.101-0.029c-0.062 0.011-0.112 0.052-0.131 0.080s0.005 0.049 0.079 0.037c0.074-0.012 0.104-0.059 0.141-0.069s0.098-0.024 0.131-0.025c0.020-0.026 0.078-0.076 0.109-0.105s0.132-0.062 0.18-0.123c0.041-0.049 0.042-0.103 0-0.094s-0.103 0.052-0.136 0.087c-0.032 0.035-0.025 0.095-0.059 0.126-0.026 0.022-0.094 0.094-0.099 0.093zM23.383 15.418c-0.028 0.166-0.079 0.293-0.116 0.287-0.039-0.006-0.049-0.153-0.022-0.329 0.001-0.007 0.002-0.014 0.003-0.021l-0 0.001c0.028-0.166 0.079-0.293 0.116-0.287 0.039 0.006 0.049 0.153 0.022 0.329-0.001 0.007-0.002 0.014-0.003 0.021l0-0.001z"></path>
<path fill="#009b3a" d="M23.307 15.399c0 0.002 0 0.005 0 0.007 0.007 0.185-0.019 0.337-0.057 0.338s-0.074-0.148-0.081-0.333c-0-0.011-0.001-0.023-0.001-0.034l0 0.001c-0-0.001-0-0.003-0-0.005-0.007-0.185 0.019-0.337 0.057-0.338s0.074 0.148 0.081 0.333c0 0.010 0.001 0.021 0.001 0.031l-0-0.001z"></path>
<path fill="#009b3a" d="M23.049 15.428c0.006 0.006 0.014 0.014 0.021 0.021 0.12 0.124 0.193 0.248 0.164 0.276s-0.142-0.044-0.258-0.161l-0.001-0.001c-0.006-0.006-0.014-0.014-0.021-0.021-0.12-0.124-0.193-0.248-0.164-0.276s0.142 0.044 0.258 0.161l0.001 0.001z"></path>
<path fill="#009b3a" d="M23.111 15.368c0.002 0.005 0.005 0.010 0.008 0.015 0.087 0.163 0.131 0.31 0.098 0.328s-0.128-0.096-0.214-0.254l-0-0c-0.003-0.006-0.007-0.012-0.010-0.019-0.087-0.163-0.131-0.31-0.098-0.328s0.13 0.097 0.217 0.258l0 0z"></path>
<path fill="#009b3a" d="M23.21 15.378c0.001 0.004 0.003 0.009 0.005 0.015 0.057 0.18 0.074 0.336 0.038 0.347s-0.11-0.126-0.167-0.306c-0.001-0.003-0.002-0.006-0.003-0.010l0 0c-0.001-0.004-0.003-0.009-0.005-0.015-0.057-0.18-0.074-0.336-0.038-0.347s0.11 0.126 0.167 0.306c0.001 0.003 0.002 0.006 0.003 0.010l-0-0z"></path>
<path fill="#009b3a" d="M23.235 15.718c0.001 0.002-0.096 0.003-0.117 0s-0.031-0.048-0.093-0.048c-0.062-0.001-0.119 0.030-0.142 0.054s-0.004 0.050 0.071 0.052c0.075 0.002 0.112-0.038 0.15-0.042s0.1-0.004 0.132 0.001c0.024-0.021 0.090-0.060 0.125-0.083s0.14-0.036 0.198-0.086c0.049-0.041 0.060-0.093 0.017-0.093s-0.11 0.032-0.148 0.060c-0.038 0.028-0.042 0.089-0.081 0.113-0.030 0.017-0.108 0.075-0.113 0.073M23.403 16.138c-0.088 0.136-0.179 0.227-0.21 0.208-0.034-0.021 0.014-0.16 0.106-0.312 0.002-0.003 0.004-0.007 0.006-0.010l-0 0c0.088-0.138 0.181-0.231 0.212-0.212 0.034 0.021-0.014 0.16-0.106 0.312-0.003 0.005-0.006 0.009-0.008 0.013l0-0.001"></path>
<path fill="#009b3a" d="M23.34 16.088c-0.065 0.168-0.143 0.292-0.178 0.279-0.035-0.013-0.010-0.166 0.055-0.341 0.002-0.005 0.004-0.010 0.006-0.014l-0 0.001c0.065-0.168 0.143-0.292 0.178-0.279s0.010 0.166-0.055 0.34c-0.002 0.005-0.004 0.010-0.006 0.014l0-0.001M23.095 16.009c0.003 0.007 0.006 0.015 0.009 0.023 0.060 0.165 0.078 0.31 0.041 0.323-0.036 0.013-0.109-0.097-0.168-0.25l-0-0.001c-0.003-0.007-0.006-0.015-0.009-0.023-0.060-0.165-0.078-0.31-0.041-0.323 0.036-0.013 0.109 0.097 0.168 0.25l0 0.001"></path>
<path fill="#009b3a" d="M23.175 15.979c0 0.004 0.001 0.008 0.001 0.013 0.016 0.187-0.001 0.342-0.039 0.345s-0.078-0.139-0.095-0.32l-0-0.001c-0-0.004-0.001-0.008-0.001-0.013-0.016-0.187 0.001-0.342 0.039-0.345s0.078 0.139 0.095 0.32l0 0.001"></path>
<path fill="#009b3a" d="M23.261 16.029c-0 0-0 0.001-0 0.002-0.019 0.191-0.063 0.343-0.1 0.339s-0.051-0.16-0.033-0.35v-0c0-0.001 0-0.003 0-0.005 0.019-0.191 0.063-0.342 0.1-0.339s0.051 0.161 0.033 0.352c-0 0.001-0 0.001-0 0.002v-0"></path>
<path fill="#009b3a" d="M23.152 16.355c-0 0.002-0.088-0.037-0.106-0.048s-0.009-0.057-0.065-0.083c-0.056-0.026-0.119-0.021-0.15-0.009s-0.023 0.045 0.044 0.078c0.067 0.033 0.116 0.011 0.152 0.023s0.092 0.037 0.12 0.055c0.030-0.010 0.105-0.018 0.146-0.025s0.141 0.025 0.213 0.002c0.060-0.018 0.090-0.062 0.052-0.079s-0.112-0.016-0.157-0.006c-0.045 0.011-0.072 0.065-0.117 0.072-0.033 0.004-0.127 0.025-0.131 0.020M23.209 16.868c-0.145 0.124-0.281 0.196-0.31 0.163-0.031-0.035 0.067-0.172 0.219-0.306 0.007-0.006 0.014-0.012 0.021-0.018l-0.001 0.001c0.145-0.124 0.281-0.196 0.31-0.163 0.031 0.035-0.067 0.172-0.219 0.306-0.007 0.006-0.014 0.012-0.021 0.018l0.001-0.001"></path>
<path fill="#009b3a" d="M23.155 16.791c-0.128 0.165-0.258 0.276-0.292 0.25s0.042-0.186 0.172-0.355c0.006-0.007 0.011-0.015 0.017-0.022l-0.001 0.001c0.128-0.165 0.258-0.276 0.292-0.25s-0.042 0.186-0.172 0.355c-0.006 0.007-0.011 0.015-0.017 0.022l0.001-0.001"></path>
<path fill="#009b3a" d="M22.913 16.615c0.001 0.008 0.001 0.017 0.002 0.026 0.012 0.204-0.015 0.371-0.061 0.374-0.044 0.003-0.089-0.146-0.104-0.337l-0-0.001c-0.001-0.008-0.001-0.017-0.002-0.026-0.012-0.204 0.015-0.371 0.061-0.374 0.044-0.003 0.089 0.146 0.104 0.337l0 0.001"></path>
<path fill="#009b3a" d="M23.010 16.61c-0.001 0.004-0.002 0.008-0.002 0.012-0.044 0.213-0.114 0.378-0.156 0.369s-0.041-0.181 0-0.388l0-0.001c0.001-0.004 0.002-0.008 0.002-0.012 0.044-0.213 0.114-0.378 0.156-0.369s0.041 0.181-0 0.388l-0 0.001"></path>
<path fill="#009b3a" d="M23.089 16.696c-0.083 0.204-0.182 0.356-0.221 0.34s-0.004-0.194 0.079-0.398c0-0 0-0 0-0v0c0.083-0.204 0.182-0.356 0.221-0.34s0.004 0.194-0.079 0.398c-0 0-0 0-0 0v-0"></path>
<path fill="#009b3a" d="M22.861 17.017c-0.001 0.002-0.085-0.073-0.1-0.091s0.009-0.066-0.045-0.116c-0.053-0.049-0.124-0.066-0.162-0.064s-0.040 0.041 0.023 0.102c0.062 0.061 0.125 0.054 0.16 0.081s0.089 0.074 0.113 0.104c0.037 0 0.121 0.018 0.169 0.025s0.147 0.078 0.234 0.079c0.072 0.002 0.12-0.035 0.083-0.068s-0.118-0.059-0.171-0.063c-0.053-0.004-0.101 0.046-0.153 0.037-0.038-0.008-0.148-0.019-0.15-0.025M22.707 17.507c-0.213 0.036-0.389 0.026-0.398-0.023-0.009-0.051 0.161-0.125 0.381-0.164 0.013-0.002 0.025-0.004 0.037-0.006l-0.002 0c0.215-0.037 0.393-0.027 0.402 0.023s-0.161 0.125-0.381 0.164c-0.014 0.003-0.028 0.005-0.042 0.007l0.002-0"></path>
<path fill="#009b3a" d="M22.7 17.403c-0.211 0.081-0.393 0.11-0.41 0.065-0.018-0.046 0.144-0.153 0.361-0.239 0.006-0.002 0.012-0.005 0.018-0.007l-0.001 0c0.211-0.081 0.393-0.11 0.41-0.065 0.018 0.046-0.144 0.153-0.361 0.239-0.006 0.002-0.012 0.005-0.018 0.007l0.001-0"></path>
<path fill="#009b3a" d="M22.561 17.095c-0.002 0.005-0.005 0.011-0.008 0.017-0.099 0.201-0.217 0.345-0.263 0.323-0.044-0.022-0.008-0.186 0.080-0.374l0.001-0.001c0.004-0.009 0.009-0.020 0.015-0.030 0.099-0.201 0.217-0.345 0.263-0.323 0.045 0.022 0.006 0.194-0.087 0.387l-0 0.001"></path>
<path fill="#009b3a" d="M22.658 17.147c-0.003 0.003-0.006 0.006-0.009 0.010-0.158 0.177-0.316 0.294-0.353 0.262s0.059-0.196 0.212-0.369l0-0c0.003-0.003 0.006-0.006 0.009-0.010 0.158-0.177 0.316-0.294 0.353-0.262s-0.059 0.196-0.212 0.369l-0 0"></path>
<path fill="#009b3a" d="M22.686 17.275c-0.191 0.146-0.37 0.233-0.399 0.195s0.102-0.188 0.294-0.334c0 0 0 0 0 0v0c0.191-0.146 0.37-0.233 0.399-0.195s-0.102 0.188-0.294 0.334c0 0-0 0-0 0v0"></path>
<path fill="#009b3a" d="M22.29 17.448c-0.002 0.002-0.042-0.118-0.047-0.145s0.045-0.058 0.020-0.136c-0.024-0.078-0.084-0.135-0.121-0.155s-0.061 0.016-0.034 0.11c0.027 0.094 0.091 0.123 0.11 0.169s0.045 0.122 0.053 0.165c0.035 0.021 0.107 0.087 0.149 0.121s0.099 0.159 0.183 0.21c0.069 0.044 0.135 0.036 0.117-0.017s-0.082-0.124-0.131-0.159c-0.049-0.035-0.122-0.015-0.167-0.053-0.032-0.030-0.133-0.104-0.132-0.11"></path>
<path fill="#009b3a" d="M22.051 17.866c-0.222 0.002-0.4-0.047-0.401-0.111s0.178-0.12 0.402-0.124h0c0.222-0.002 0.4 0.047 0.401 0.111s-0.178 0.12-0.402 0.124h-0"></path>
<path fill="#009b3a" d="M21.997 17.498c-0.141 0.181-0.294 0.297-0.343 0.259s0.026-0.219 0.168-0.405v0c0 0 0 0 0 0 0.143-0.185 0.299-0.304 0.348-0.266s-0.026 0.219-0.168 0.405c-0.002 0.003-0.004 0.005-0.006 0.008l0-0"></path>
<path fill="#009b3a" d="M22.054 17.685c-0.203 0.085-0.384 0.108-0.409 0.051s0.12-0.177 0.325-0.268l0-0c0.205-0.087 0.387-0.11 0.412-0.053s-0.122 0.179-0.329 0.27l-0 0M22.165 14.125c0.094 0.086 0.154 0.167 0.136 0.187-0.019 0.021-0.12-0.036-0.225-0.128-0.003-0.002-0.005-0.005-0.008-0.007l0 0c-0.1-0.089-0.165-0.176-0.147-0.197s0.12 0.036 0.225 0.128c0.006 0.006 0.013 0.011 0.019 0.017l-0.001-0.001M22.040 14.23c0.005 0.001 0.011 0.001 0.017 0.002 0.141 0.020 0.252 0.059 0.248 0.087-0.004 0.027-0.112 0.034-0.244 0.016l-0.001-0c-0.005-0.001-0.011-0.001-0.017-0.002-0.141-0.020-0.252-0.059-0.248-0.087 0.004-0.027 0.112-0.034 0.244-0.016l0.001 0"></path>
<path fill="#009b3a" d="M22.091 14.163c0.002 0.001 0.004 0.002 0.007 0.003 0.133 0.067 0.23 0.141 0.218 0.165s-0.13-0.011-0.262-0.078c-0.005-0.002-0.010-0.005-0.015-0.007l0.001 0c-0.127-0.066-0.218-0.136-0.206-0.159s0.127 0.010 0.257 0.075l0 0M20.246 17.467s0.343 0.074 0.641 0.182c0.298 0.108 0.751 0.48 0.873 0.501 0.137 0.006 0.326-0.040 0.398-0.238-0.21 0.056-0.336 0.141-0.537 0.031-0.071-0.027-0.303-0.238-0.558-0.351s-0.768-0.242-0.768-0.242l-0.048 0.117M20.612 14.367c-0.001-0.003 0.395-0.208 0.395-0.208l-0.435 0.111-0.050 0.077 0.091 0.020"></path>
<path fill="#009b3a" d="M20.986 14.463c-0.153-0.028-0.388-0.079-0.537-0.091 0.103-0.115 0.246-0.308 0.334-0.427-0.058 0.113-0.149 0.263-0.185 0.371 0.105 0.057 0.271 0.101 0.389 0.147"></path>
<path fill="#009b3a" d="M20.541 14.391c-0.002-0.003 0.351-0.272 0.351-0.272l-0.407 0.182-0.036 0.084 0.093 0.005"></path>
<path fill="#009b3a" d="M20.915 14.459c-0.154-0.029-0.391-0.083-0.541-0.096 0.102-0.118 0.241-0.318 0.327-0.44-0.056 0.117-0.145 0.271-0.179 0.383 0.107 0.059 0.274 0.106 0.393 0.153"></path>
<path fill="#009b3a" d="M20.483 14.414c-0.001-0.003 0.413-0.173 0.413-0.173l-0.445 0.073-0.058 0.072 0.089 0.028"></path>
<path fill="#009b3a" d="M20.869 14.463c-0.156-0.013-0.396-0.042-0.546-0.039 0.087-0.131 0.201-0.349 0.271-0.483-0.042 0.125-0.111 0.291-0.132 0.409 0.113 0.048 0.283 0.078 0.407 0.113"></path>
<path fill="#009b3a" d="M20.44 14.416c-0.002-0.002 0.28-0.341 0.28-0.341l-0.355 0.265-0.016 0.090 0.091-0.015"></path>
<path fill="#009b3a" d="M20.867 14.485c-0.167-0.003-0.425-0.018-0.585-0.004 0.079-0.149 0.178-0.395 0.24-0.546-0.032 0.139-0.089 0.326-0.099 0.456 0.124 0.045 0.309 0.065 0.443 0.094"></path>
<path fill="#009b3a" d="M20.384 14.496c-0.002-0.003 0.34-0.326 0.34-0.326l-0.411 0.228-0.028 0.097 0.1 0.001"></path>
<path fill="#009b3a" d="M20.792 14.496c-0.179 0.001-0.455-0.009-0.63 0.011 0.116-0.166 0.274-0.44 0.372-0.608-0.063 0.154-0.163 0.361-0.201 0.504 0.125 0.046 0.32 0.064 0.459 0.093"></path>
<path fill="#009b3a" d="M20.27 14.52c-0.002-0.003 0.434-0.368 0.434-0.368l-0.491 0.261-0.050 0.108 0.107-0.001"></path>
<path fill="#009b3a" d="M20.727 14.507c-0.177 0.026-0.452 0.055-0.623 0.098 0.091-0.178 0.209-0.467 0.282-0.644-0.040 0.159-0.11 0.375-0.127 0.52 0.13 0.028 0.326 0.017 0.468 0.027"></path>
<path fill="#009b3a" d="M20.211 14.593c-0.003-0.003 0.334-0.463 0.334-0.463l-0.417 0.377-0.022 0.116 0.105-0.030"></path>
<path fill="#009b3a" d="M20.629 14.562c-0.179 0.017-0.455 0.032-0.627 0.066 0.101-0.173 0.235-0.456 0.317-0.629-0.049 0.157-0.131 0.369-0.156 0.512 0.129 0.034 0.325 0.034 0.466 0.050"></path>
<path fill="#009b3a" d="M20.151 14.642c-0.002-0.003 0.426-0.368 0.426-0.368l-0.483 0.26-0.049 0.109 0.106-0.001"></path>
<path fill="#009b3a" d="M20.577 14.58c-0.178 0.038-0.455 0.085-0.625 0.14 0.083-0.182 0.188-0.475 0.252-0.655-0.033 0.16-0.092 0.377-0.102 0.521 0.133 0.018 0.33-0.006 0.474-0.006"></path>
<path fill="#009b3a" d="M20.081 14.661c-0.003-0.002 0.272-0.505 0.272-0.505l-0.368 0.437-0.006 0.115 0.102-0.047"></path>
<path fill="#009b3a" d="M20.577 14.61c-0.191 0.050-0.489 0.115-0.669 0.183 0.069-0.207 0.149-0.538 0.198-0.742-0.017 0.18-0.056 0.425-0.049 0.586 0.149 0.015 0.362-0.020 0.52-0.028"></path>
<path fill="#009b3a" d="M20.027 14.777c-0.003-0.003 0.343-0.506 0.343-0.506l-0.438 0.409-0.018 0.128 0.114-0.031"></path>
<path fill="#009b3a" d="M20.501 14.667c-0.188 0.059-0.481 0.14-0.657 0.217 0.059-0.208 0.123-0.54 0.162-0.744-0.008 0.179-0.035 0.423-0.021 0.582 0.149 0.007 0.36-0.040 0.517-0.055"></path>
<path fill="#009b3a" d="M19.958 14.852c-0.003-0.002 0.26-0.559 0.26-0.559l-0.37 0.481 0.002 0.128 0.108-0.051"></path>
<path fill="#009b3a" d="M20.43 14.743c-0.192 0.044-0.492 0.1-0.674 0.163 0.078-0.203 0.171-0.528 0.229-0.728-0.024 0.177-0.074 0.419-0.074 0.579 0.148 0.019 0.362-0.010 0.519-0.013"></path>
<path fill="#009b3a" d="M19.896 14.905c-0.002-0.004 0.425-0.437 0.425-0.437l-0.502 0.324-0.041 0.123 0.117-0.009"></path>
<path fill="#009b3a" d="M20.344 14.819c-0.191 0.026-0.487 0.053-0.669 0.099 0.088-0.199 0.2-0.521 0.268-0.719-0.035 0.178-0.098 0.419-0.108 0.582 0.143 0.034 0.354 0.025 0.508 0.038"></path>
<path fill="#009b3a" d="M19.812 14.862c-0.003-0.003 0.289-0.547 0.289-0.547l-0.393 0.46-0.006 0.13 0.109-0.044"></path>
<path fill="#009b3a" d="M20.368 14.754c-0.207 0.085-0.531 0.203-0.725 0.308 0.064-0.246 0.131-0.636 0.173-0.876-0.007 0.208-0.036 0.493-0.018 0.676 0.165-0.005 0.398-0.077 0.571-0.108"></path>
<path fill="#009b3a" d="M19.772 15.027c-0.003-0.003 0.347-0.628 0.347-0.628l-0.457 0.531-0.013 0.148 0.124-0.052"></path>
<path fill="#009b3a" d="M20.288 14.832c-0.203 0.096-0.521 0.231-0.71 0.345 0.053-0.246 0.102-0.634 0.133-0.873 0.002 0.205-0.013 0.488 0.012 0.667 0.164-0.015 0.393-0.098 0.565-0.139"></path>
<path fill="#009b3a" d="M19.701 15.122c-0.004-0.002 0.253-0.676 0.253-0.676l-0.378 0.603 0.010 0.146 0.116-0.074"></path>
<path fill="#009b3a" d="M20.199 14.888c-0.203 0.097-0.52 0.235-0.709 0.35 0.051-0.246 0.098-0.634 0.128-0.873 0.003 0.205-0.010 0.488 0.016 0.666 0.164-0.016 0.393-0.102 0.565-0.144"></path>
<path fill="#009b3a" d="M19.644 15.203c-0.003-0.003 0.391-0.596 0.391-0.596l-0.493 0.487-0.024 0.148 0.126-0.040"></path>
<path fill="#009b3a" d="M20.18 14.857c-0.181 0.144-0.467 0.356-0.63 0.515-0-0.249-0.034-0.632-0.054-0.868 0.045 0.195 0.090 0.469 0.154 0.634 0.159-0.057 0.368-0.197 0.53-0.281"></path>
<path fill="#009b3a" d="M19.664 15.231c-0.004-0.001 0.045-0.714 0.045-0.714l-0.189 0.694 0.053 0.131 0.091-0.111"></path>
<path fill="#009b3a" d="M20.129 14.923c-0.181 0.143-0.468 0.354-0.631 0.512 0.001-0.249-0.031-0.632-0.050-0.868 0.045 0.195 0.088 0.47 0.151 0.635 0.159-0.056 0.369-0.195 0.531-0.278"></path>
<path fill="#009b3a" d="M19.618 15.352c-0.004-0.002 0.182-0.697 0.182-0.697l-0.315 0.641 0.025 0.143 0.108-0.087"></path>
<path fill="#009b3a" d="M20.109 14.939c-0.171 0.169-0.444 0.419-0.595 0.6-0.027-0.255-0.102-0.645-0.148-0.884 0.068 0.195 0.143 0.471 0.226 0.633 0.158-0.076 0.359-0.244 0.517-0.349"></path>
<path fill="#009b3a" d="M19.619 15.442c-0.005-0.001 0.034-0.742 0.034-0.742l-0.182 0.721 0.057 0.136 0.091-0.115"></path>
<path fill="#009b3a" d="M20.054 15.062c-0.183 0.152-0.474 0.375-0.638 0.541-0.006-0.258-0.048-0.656-0.074-0.901 0.051 0.202 0.104 0.487 0.172 0.657 0.163-0.060 0.376-0.208 0.54-0.296"></path>
<path fill="#009b3a" d="M19.565 15.526c-0.004-0.002 0.258-0.698 0.258-0.698l-0.387 0.618 0.010 0.153 0.119-0.074"></path>
<path fill="#009b3a" d="M20.051 15.065c-0.162 0.172-0.421 0.426-0.564 0.61-0.026-0.259-0.097-0.653-0.141-0.896 0.064 0.198 0.136 0.477 0.215 0.641 0.15-0.078 0.341-0.249 0.49-0.355"></path>
<path fill="#009b3a" d="M19.574 15.562c-0.005 0-0.031-0.738-0.031-0.738l-0.119 0.735 0.068 0.128 0.082-0.125"></path>
<path fill="#009b3a" d="M19.972 15.121c-0.157 0.173-0.407 0.43-0.545 0.616-0.033-0.259-0.116-0.653-0.167-0.896 0.070 0.197 0.15 0.477 0.234 0.64 0.148-0.079 0.333-0.252 0.479-0.359"></path>
<path fill="#009b3a" d="M19.533 15.635c-0.004-0.001 0.082-0.749 0.082-0.749l-0.22 0.709 0.044 0.146 0.094-0.105"></path>
<path fill="#009b3a" d="M19.938 15.15c-0.143 0.188-0.374 0.468-0.497 0.666-0.053-0.254-0.166-0.639-0.235-0.875 0.085 0.189 0.186 0.46 0.282 0.613 0.141-0.093 0.313-0.283 0.451-0.404"></path>
<path fill="#009b3a" d="M19.53 15.705c-0.004-0-0.048-0.75-0.048-0.75l-0.094 0.744 0.068 0.131 0.074-0.125"></path>
<path fill="#009b3a" d="M19.923 15.192c-0.135 0.196-0.352 0.49-0.466 0.696-0.066-0.253-0.199-0.634-0.28-0.869 0.095 0.186 0.21 0.453 0.314 0.603 0.137-0.101 0.3-0.301 0.432-0.431"></path>
<path fill="#009b3a" d="M19.576 15.775c-0.004-0.001 0.076-0.754 0.076-0.754l-0.215 0.708 0.045 0.148 0.093-0.103"></path>
<path fill="#009b3a" d="M19.896 15.262c-0.116 0.214-0.306 0.537-0.4 0.757-0.088-0.243-0.255-0.603-0.357-0.825 0.111 0.172 0.25 0.421 0.366 0.556 0.127-0.12 0.271-0.341 0.391-0.488"></path>
<path fill="#009b3a" d="M19.55 15.837c-0.004 0.001-0.211-0.715-0.211-0.715l0.071 0.753 0.095 0.106 0.045-0.145"></path>
<path fill="#009b3a" d="M19.891 15.346c-0.121 0.213-0.318 0.535-0.417 0.755-0.089-0.242-0.257-0.601-0.36-0.822 0.113 0.171 0.253 0.42 0.372 0.554 0.132-0.119 0.281-0.34 0.405-0.487"></path>
<path fill="#009b3a" d="M19.56 15.972c-0.004 0-0.077-0.752-0.077-0.752l-0.070 0.752 0.075 0.129 0.072-0.129"></path>
<path fill="#009b3a" d="M19.904 15.411c-0.124 0.21-0.327 0.527-0.429 0.745-0.085-0.244-0.247-0.607-0.347-0.831 0.11 0.174 0.246 0.426 0.363 0.563 0.134-0.116 0.287-0.333 0.413-0.477"></path>
<path fill="#009b3a" d="M19.553 16.032c-0.004 0.001-0.139-0.738-0.139-0.738l-0.007 0.756 0.086 0.119 0.061-0.137"></path>
<path fill="#009b3a" d="M19.851 15.518c-0.134 0.201-0.351 0.504-0.464 0.714-0.073-0.249-0.218-0.623-0.306-0.854 0.101 0.182 0.226 0.442 0.335 0.587 0.139-0.107 0.302-0.313 0.435-0.448"></path>
<path fill="#009b3a" d="M19.488 16.114c-0.004-0.001 0.062-0.754 0.062-0.754l-0.206 0.715 0.050 0.146 0.094-0.107"></path>
<path fill="#009b3a" d="M19.858 15.537c-0.115 0.218-0.302 0.548-0.395 0.772-0.096-0.238-0.274-0.59-0.384-0.806 0.118 0.167 0.265 0.409 0.388 0.538 0.128-0.125 0.271-0.352 0.391-0.504"></path>
<path fill="#009b3a" d="M19.463 16.178c-0.004 0.001-0.232-0.703-0.232-0.703l0.089 0.748 0.1 0.102 0.043-0.146"></path>
<path fill="#009b3a" d="M19.827 15.593c-0.080 0.239-0.215 0.604-0.273 0.845-0.13-0.213-0.359-0.519-0.499-0.708 0.141 0.138 0.323 0.344 0.463 0.444 0.107-0.151 0.214-0.405 0.309-0.58"></path>
<path fill="#009b3a" d="M19.668 16.235c-0.004 0.002-0.251-0.693-0.251-0.693l0.11 0.744 0.102 0.098 0.039-0.148"></path>
<path fill="#009b3a" d="M19.826 15.666c-0.078 0.24-0.211 0.607-0.267 0.848-0.131-0.211-0.362-0.516-0.504-0.703 0.142 0.136 0.325 0.34 0.466 0.439 0.106-0.152 0.211-0.407 0.305-0.583"></path>
<path fill="#009b3a" d="M19.67 16.353c-0.004 0.002-0.322-0.648-0.322-0.648l0.188 0.72 0.112 0.081 0.023-0.153"></path>
<path fill="#009b3a" d="M19.801 15.727c-0.050 0.249-0.139 0.632-0.167 0.878-0.155-0.191-0.419-0.459-0.581-0.625 0.156 0.115 0.362 0.291 0.513 0.368 0.088-0.166 0.163-0.434 0.235-0.622"></path>
<path fill="#009b3a" d="M19.692 16.455c-0.004 0.001-0.174-0.727-0.174-0.727l0.029 0.755 0.091 0.113 0.054-0.141"></path>
<path fill="#009b3a" d="M19.802 15.804c-0.027 0.255-0.080 0.648-0.084 0.897-0.171-0.169-0.458-0.401-0.634-0.544 0.166 0.093 0.386 0.241 0.543 0.298 0.072-0.177 0.121-0.454 0.176-0.651"></path>
<path fill="#009b3a" d="M19.7 16.508c-0.003 0.003-0.46-0.525-0.46-0.525l0.346 0.636 0.127 0.043-0.013-0.154"></path>
<path fill="#009b3a" d="M19.812 15.893c-0.028 0.255-0.082 0.647-0.088 0.896-0.171-0.17-0.457-0.403-0.632-0.547 0.166 0.094 0.385 0.243 0.542 0.3 0.073-0.176 0.123-0.453 0.178-0.65"></path>
<path fill="#009b3a" d="M19.752 16.629c-0.004 0.002-0.353-0.633-0.353-0.633l0.222 0.71 0.116 0.076 0.015-0.153"></path>
<path fill="#009b3a" d="M19.832 15.998c-0.017 0.256-0.055 0.652-0.050 0.901-0.178-0.159-0.473-0.375-0.654-0.509 0.169 0.084 0.394 0.219 0.553 0.268 0.065-0.181 0.104-0.46 0.15-0.66"></path>
<path fill="#009b3a" d="M19.796 16.746c-0.004 0.003-0.436-0.553-0.436-0.553l0.318 0.656 0.125 0.051-0.006-0.155"></path>
<path fill="#009b3a" d="M19.837 16.116c-0.015 0.257-0.051 0.652-0.044 0.902-0.178-0.158-0.475-0.371-0.657-0.503 0.17 0.083 0.396 0.216 0.555 0.263 0.064-0.181 0.101-0.461 0.146-0.662"></path>
<path fill="#009b3a" d="M19.836 16.84c-0.004 0.002-0.306-0.667-0.306-0.667l0.169 0.73 0.11 0.088 0.027-0.151"></path>
<path fill="#009b3a" d="M19.849 16.193c0.009 0.257 0.010 0.656 0.040 0.903-0.192-0.133-0.506-0.306-0.699-0.412 0.176 0.060 0.413 0.162 0.575 0.187 0.046-0.189 0.057-0.473 0.084-0.678"></path>
<path fill="#009b3a" d="M19.89 16.814c-0.003 0.004-0.559-0.382-0.559-0.382l0.474 0.522 0.132 0.007-0.046-0.146"></path>
<path fill="#009b3a" d="M19.866 16.22c0.022 0.256 0.044 0.653 0.087 0.899-0.199-0.125-0.522-0.286-0.721-0.384 0.179 0.053 0.422 0.146 0.585 0.164 0.037-0.19 0.033-0.473 0.049-0.679"></path>
<path fill="#009b3a" d="M19.95 16.956c-0.003 0.003-0.466-0.535-0.466-0.535l0.353 0.643 0.127 0.046-0.014-0.154"></path>
<path fill="#009b3a" d="M19.907 16.318c0.033 0.255 0.072 0.652 0.125 0.895-0.203-0.114-0.533-0.254-0.735-0.341 0.181 0.042 0.426 0.12 0.59 0.129 0.029-0.193 0.012-0.476 0.020-0.683"></path>
<path fill="#009b3a" d="M20.043 17.046c-0.003 0.004-0.554-0.392-0.554-0.392l0.468 0.53 0.132 0.009-0.045-0.147"></path>
<path fill="#009b3a" d="M19.924 16.427c0.050 0.252 0.115 0.645 0.183 0.883-0.21-0.094-0.546-0.204-0.752-0.272 0.182 0.025 0.431 0.080 0.595 0.074 0.015-0.195-0.019-0.477-0.026-0.685"></path>
<path fill="#009b3a" d="M20.104 17.124c-0.003 0.003-0.459-0.544-0.459-0.544l0.344 0.649 0.127 0.049-0.012-0.154"></path>
<path fill="#009b3a" d="M19.954 16.497c0.073 0.245 0.174 0.629 0.264 0.858-0.216-0.066-0.559-0.131-0.769-0.171 0.183 0 0.434 0.022 0.595-0.006-0.003-0.197-0.064-0.474-0.090-0.681"></path>
<path fill="#009b3a" d="M20.128 17.125c-0.001 0.005-0.641-0.137-0.641-0.137l0.609 0.303 0.123-0.046-0.092-0.119"></path>
<path fill="#009b3a" d="M19.996 16.573c0.072 0.246 0.171 0.63 0.261 0.859-0.216-0.068-0.558-0.134-0.769-0.175 0.183 0.001 0.434 0.025 0.595-0.003-0.002-0.197-0.062-0.474-0.087-0.681"></path>
<path fill="#009b3a" d="M20.233 17.193c-0.002 0.005-0.613-0.296-0.613-0.296l0.55 0.446 0.132-0.012-0.069-0.137"></path>
<path fill="#009b3a" d="M19.964 16.616c0.122 0.224 0.3 0.577 0.435 0.781-0.225-0.017-0.572-0.005-0.786 0.003 0.178-0.040 0.428-0.074 0.579-0.137-0.044-0.192-0.16-0.449-0.228-0.646"></path>
<path fill="#009b3a" d="M20.33 17.26c-0.001 0.005-0.637-0.176-0.637-0.176l0.598 0.338 0.126-0.038-0.087-0.124"></path>
<path fill="#009b3a" d="M20.030 16.711c0.123 0.223 0.303 0.575 0.44 0.777-0.225-0.015-0.572 0-0.785 0.009 0.178-0.042 0.427-0.078 0.578-0.142-0.045-0.192-0.163-0.448-0.232-0.644"></path>
<path fill="#009b3a" d="M20.41 17.312c-0.002 0.004-0.594-0.355-0.594-0.355l0.519 0.496 0.133 0.001-0.058-0.143"></path>
<path fill="#009b3a" d="M20.080 16.767c0.142 0.208 0.353 0.538 0.507 0.724-0.222 0.014-0.562 0.075-0.77 0.112 0.171-0.065 0.412-0.134 0.554-0.218-0.063-0.187-0.204-0.429-0.291-0.618"></path>
<path fill="#009b3a" d="M20.454 17.364c-0 0.005-0.641-0.015-0.641-0.015l0.634 0.187 0.113-0.070-0.106-0.102M20.825 14.26c0-0.002 0.461-0.077 0.461-0.077l-0.459 0.011-0.080 0.041 0.078 0.025"></path>
<path fill="#009b3a" d="M21.078 14.358c-0.134-0.040-0.336-0.108-0.473-0.138 0.146-0.058 0.362-0.161 0.495-0.224-0.102 0.064-0.251 0.146-0.33 0.21 0.077 0.052 0.215 0.105 0.309 0.151"></path>
<path fill="#009b3a" d="M20.805 14.276c-0.001-0.002 0.446-0.123 0.446-0.123l-0.462 0.059-0.070 0.048 0.086 0.016"></path>
<path fill="#009b3a" d="M21.1 14.391c-0.156-0.015-0.396-0.045-0.55-0.046 0.116-0.103 0.279-0.275 0.379-0.381-0.069 0.099-0.175 0.231-0.221 0.325 0.105 0.042 0.273 0.070 0.391 0.102"></path>
<path fill="#009b3a" d="M20.639 14.308c0-0.002 0.463-0.052 0.463-0.052l-0.452-0.014-0.084 0.037 0.073 0.030"></path>
<path fill="#009b3a" d="M20.982 14.409c-0.142-0.027-0.358-0.075-0.502-0.091 0.137-0.067 0.336-0.182 0.458-0.253-0.091 0.069-0.226 0.159-0.295 0.227 0.087 0.043 0.236 0.082 0.338 0.118"></path>
<path fill="#009b3a" d="M20.599 14.303c-0.001-0.002 0.408-0.176 0.408-0.176l-0.447 0.118-0.054 0.054 0.092 0.003"></path>
<path fill="#009b3a" d="M20.969 14.46c-0.118-0.049-0.299-0.132-0.416-0.166 0.091-0.084 0.218-0.232 0.297-0.323-0.055 0.091-0.138 0.208-0.175 0.297 0.079 0.067 0.206 0.132 0.295 0.191"></path>
<path fill="#009b3a" d="M20.623 14.333c-0.001-0.003 0.317-0.138 0.317-0.138l-0.346 0.047-0.042 0.062 0.071 0.029M20.357 17.305c0 0.005-0.658 0.005-0.658 0.005l0.666 0.163 0.109-0.072-0.118-0.096"></path>
<path fill="#009b3a" d="M20.475 17.348c-0.001 0.005-0.668-0.155-0.668-0.155l0.641 0.315 0.126-0.040-0.099-0.119"></path>
<path fill="#009b3a" d="M20.585 17.393c0 0.005-0.663-0.033-0.663-0.033l0.663 0.2 0.114-0.064-0.114-0.102"></path>
<path fill="#009b3a" d="M20.164 16.924c0.172 0.19 0.431 0.493 0.612 0.661-0.223 0.034-0.558 0.124-0.765 0.179 0.164-0.079 0.399-0.168 0.531-0.263-0.089-0.177-0.264-0.401-0.378-0.576"></path>
<path fill="#009b3a" d="M20.676 17.426c-0.001 0.005-0.663-0.217-0.663-0.217l0.623 0.37 0.13-0.028-0.091-0.126"></path>
<path fill="#009b3a" d="M20.225 16.968c0.188 0.172 0.472 0.447 0.666 0.595-0.213 0.061-0.531 0.194-0.726 0.275 0.151-0.1 0.371-0.219 0.489-0.332-0.105-0.168-0.3-0.373-0.429-0.538"></path>
<path fill="#009b3a" d="M20.73 17.467c0.001 0.005-0.629 0.124-0.629 0.124l0.663 0.045 0.094-0.092-0.127-0.076"></path>
<path fill="#009b3a" d="M20.599 17.427c0.001 0.005-0.656 0.050-0.656 0.050l0.677 0.116 0.104-0.079-0.125-0.088"></path>
<path fill="#009b3a" d="M20.721 17.462c-0 0.005-0.678-0.109-0.678-0.109l0.664 0.269 0.122-0.049-0.108-0.111z"></path>
<path fill="#009b3a" d="M20.833 17.499c0 0.005-0.665 0.012-0.665 0.012l0.677 0.153 0.109-0.072-0.121-0.094z"></path>
<path fill="#009b3a" d="M20.377 17.061c0.186 0.178 0.467 0.462 0.661 0.616-0.22 0.049-0.548 0.162-0.75 0.231 0.158-0.090 0.386-0.195 0.51-0.299-0.102-0.17-0.294-0.381-0.421-0.548z"></path>
<path fill="#009b3a" d="M20.927 17.526c-0.001 0.005-0.678-0.17-0.678-0.17l0.65 0.326 0.128-0.036-0.1-0.119z"></path>
<path fill="#009b3a" d="M20.442 17.1c0.201 0.158 0.504 0.413 0.709 0.547-0.209 0.076-0.515 0.23-0.704 0.324 0.144-0.11 0.354-0.244 0.464-0.365-0.118-0.161-0.327-0.352-0.469-0.506z"></path>
<path fill="#009b3a" d="M20.984 17.563c0.001 0.005-0.619 0.167-0.619 0.167l0.665-0.001 0.087-0.099-0.133-0.067z"></path>
<path fill="#fedf00" d="M21.839 16.632l-0.505-0.349-0.505 0.349 0.189-0.559-0.442-0.349h0.568l0.19-0.559 0.189 0.559h0.569l-0.442 0.349 0.19 0.559z"></path>
</svg>
