<!-- Generated by IcoMoon.io -->
<svg version="1.1" xmlns="http://www.w3.org/2000/svg" width="48" height="32" viewBox="0 0 48 32">
<title>RSD</title>
<path fill="#c6363c" d="M0 0h48v31.999h-48z"></path>
<path fill="#0c4076" d="M0 10.641h48v21.359h-48z"></path>
<path fill="#fff" d="M0 21.253h48v10.747h-48z"></path>
<path fill="#edb92e" d="M21.332 7.615c0.067-0.145 0.013-0.347-0.009-0.392-0.011-0.023 0.022-0.074 0.036-0.094 0.454-0.638 0.462-0.695 0.149-0.934-0.282-0.216-0.92-0.426-1.377-0.567-0.095-0.072-0.155-0.17-0.242-0.251 0.877 0.063 1.828 0.416 2.307 0.829 0.253 0.218-0.055 0.66-0.432 1.331-0.233 0.167-0.342 0.245-0.432 0.078z"></path>
<path fill="#edb92e" d="M21.47 7.665c0.020-0.058 0.034-0.113 0.044-0.165 0.019-0.095 0.011-0.193-0.021-0.285 0.105-0.147 0.222-0.307 0.307-0.465 0.061-0.113 0.107-0.24 0.072-0.369-0.038-0.138-0.158-0.232-0.267-0.315-0.13-0.099-0.303-0.186-0.479-0.261-0.393-0.162-0.706-0.241-0.935-0.248l0.145 0.134c0.426 0.137 0.929 0.317 1.171 0.502 0.313 0.239 0.305 0.296-0.149 0.934-0.014 0.020-0.047 0.071-0.036 0.094 0.022 0.046 0.062 0.256-0.005 0.401 0.039 0.073 0.096 0.035 0.152 0.042z"></path>
<path fill="#edb92e" d="M17.634 4.824c-0.004-0.081 0.002-0.067 0.014 0.058 0.013-0.025 0.030-0.036 0.051-0.036 0.037 0.001 0.059 0.057 0.063 0.182-0.002 0.032-0.004 0.064-0.007 0.096 1.163-0.026 1.853 0.15 2.031 0.486 0.146 0.277-0.102 0.736-0.478 1.259-0.045 0.063-0.044 0.058-0 0.11 0.064 0.075 0.132 0.203 0.081 0.315 0.227 0.124 0.498 0.155 0.734 0.052 0.039-0.104 0.124-0.153 0.193-0.2 0.014-0.009 0.064-0.034 0.070-0.050 0.124-0.396 0.249-0.763 0.355-1.104 0.336-1.072-2.647-1.17-3.106-1.169z"></path>
<path fill="#edb92e" d="M20.706 9.433c0.115-0.23 0.236-0.457 0.397-0.652-0.413 0.305-0.631 0.259-0.661-0.138-0.025-0.009-0.058-0.009-0.091-0.009-0.315 0.488-0.622 0.421-0.92-0.203-0.406 0.641-0.755 0.629-1.028-0.039-0.468 0.584-0.863 0.586-1.184 0.012v-0.073c0.018 0.008 0.006 0.010-0.036 0.004l-0.007-0.013c-0.012 0.002-0.024 0.005-0.034 0.006-0.010-0.002-0.022-0.004-0.035-0.006l-0.007 0.013c-0.042 0.006-0.054 0.003-0.036-0.004v0.073c-0.321 0.573-0.715 0.572-1.184-0.013-0.274 0.668-0.622 0.68-1.028 0.039-0.298 0.623-0.605 0.691-0.92 0.203-0.033 0-0.066 0-0.091 0.009-0.030 0.398-0.248 0.443-0.661 0.138 0.161 0.196 0.282 0.422 0.397 0.652 1.191-0.049 2.378-0.111 3.564-0.173 1.187 0.062 2.373 0.124 3.564 0.173z"></path>
<path fill="#edb92e" d="M21.194 8.474l-0.13-0.022c-0.249 0.607-0.472 0.622-0.514 0.044 0.056-0.020 0.034-0.117 0.097-0.078 0.033 0.020 0.075-0.037 0.048-0.069-0.070-0.052-0.133-0.044-0.195 0.014-0.029-0.092-0.1-0.135-0.189-0.096-0.038 0.017-0.025 0.086 0.013 0.082 0.062-0.006 0.037 0.058 0.057 0.101-0.442 0.575-0.667 0.507-0.612-0.249-0.105-0.022-0.228-0.043-0.337-0.082-0.406 0.815-0.695 0.85-0.929 0.119 0.050-0.037 0.036-0.131 0.109-0.101 0.041 0.017 0.076-0.056 0.039-0.087-0.086-0.072-0.178-0.048-0.241 0.045-0.050-0.1-0.139-0.136-0.233-0.075-0.040 0.026-0.015 0.103 0.028 0.091 0.083-0.022 0.046 0.087 0.108 0.124-0.18 0.688-1.086 0.734-0.938-0.284-0.083 0.003-0.158 0.006-0.233 0.008-0.075-0.003-0.15-0.005-0.233-0.008 0.148 1.018-0.758 0.972-0.938 0.284 0.063-0.037 0.026-0.146 0.108-0.124 0.043 0.012 0.068-0.065 0.028-0.091-0.094-0.061-0.183-0.025-0.233 0.075-0.062-0.092-0.155-0.117-0.241-0.045-0.037 0.031-0.002 0.104 0.039 0.087 0.073-0.030 0.059 0.063 0.109 0.101-0.234 0.732-0.523 0.696-0.929-0.119-0.11 0.039-0.232 0.060-0.337 0.082 0.055 0.756-0.171 0.824-0.612 0.249 0.019-0.043-0.005-0.108 0.057-0.101 0.039 0.004 0.052-0.065 0.013-0.082-0.089-0.039-0.16 0.004-0.189 0.096-0.062-0.058-0.124-0.066-0.195-0.014-0.028 0.032 0.014 0.089 0.047 0.069 0.063-0.038 0.041 0.058 0.097 0.078-0.042 0.578-0.265 0.563-0.514-0.044l-0.13 0.022c-0.004 0.143 0.046 0.294 0.134 0.406 0.373 0.473 0.651 0.366 0.661-0.164 0.489 0.573 0.858 0.5 0.924-0.104 0.411 0.761 1.071 0.397 1.084-0.065 0.181 0.671 1.184 0.667 1.248-0.105 0.064 0.772 1.067 0.776 1.248 0.105 0.014 0.462 0.673 0.826 1.084 0.065 0.066 0.604 0.436 0.676 0.924 0.104 0.010 0.53 0.288 0.638 0.661 0.164 0.088-0.112 0.138-0.263 0.134-0.406z"></path>
<path fill="#edb92e" d="M17.978 7.7c-0.055-0.034-0.066-0.025-0.084-0.048-0.023-0.029-0.023-0.077-0.016-0.122 0.029-0.184-0.082-0.159-0.207-0.077-0.062 0.041-0.125 0.135-0.179 0.185s-0.098 0.054-0.112 0.073c-0.002 0.071-0.002 0.132-0.002 0.16v0c-0 0.028 0 0.089 0.002 0.159 0.013 0.020 0.058 0.024 0.112 0.073s0.117 0.144 0.179 0.185c0.125 0.082 0.236 0.107 0.207-0.077-0.007-0.046-0.007-0.093 0.016-0.123 0.018-0.023 0.029-0.013 0.084-0.048 0.036-0.022 0.063-0.049 0.080-0.078s0.008-0.061 0.008-0.092 0.010-0.063-0.008-0.092c-0.018-0.029-0.045-0.056-0.080-0.078z"></path>
<path fill="#edb92e" d="M17.88 7.445c-0.040 0.016-0.084 0.034-0.121 0.070-0.056 0.054-0.020 0.144 0.053 0.231 0.023 0.027 0.034 0.076 0.034 0.124s-0.011 0.096-0.034 0.123c-0.073 0.087-0.109 0.177-0.053 0.231 0.037 0.036 0.081 0.053 0.121 0.070 0.004-0.021 0.003-0.049-0.002-0.084-0.007-0.046-0.007-0.093 0.016-0.122 0.018-0.023 0.029-0.014 0.084-0.048 0.036-0.022 0.063-0.049 0.080-0.078s0.008-0.061 0.008-0.092 0.010-0.063-0.008-0.092c-0.018-0.029-0.045-0.056-0.080-0.078-0.055-0.034-0.066-0.025-0.084-0.048-0.023-0.029-0.023-0.077-0.016-0.123 0.005-0.035 0.006-0.063 0.002-0.084z"></path>
<path fill="#edb92e" d="M12.952 7.615c-0.067-0.145-0.013-0.347 0.009-0.392 0.011-0.023-0.022-0.074-0.036-0.094-0.454-0.638-0.462-0.695-0.149-0.934 0.282-0.216 0.92-0.426 1.377-0.567 0.095-0.072 0.155-0.17 0.242-0.251-0.877 0.063-1.827 0.416-2.307 0.829-0.253 0.218 0.055 0.66 0.432 1.331 0.233 0.167 0.343 0.245 0.432 0.078z"></path>
<path fill="#edb92e" d="M12.814 7.665c-0.020-0.058-0.034-0.113-0.044-0.165-0.019-0.095-0.011-0.193 0.021-0.285-0.105-0.147-0.222-0.307-0.307-0.465-0.060-0.113-0.107-0.24-0.072-0.369 0.038-0.138 0.158-0.232 0.267-0.315 0.13-0.099 0.303-0.186 0.479-0.261 0.393-0.162 0.706-0.241 0.934-0.248l-0.145 0.134c-0.426 0.137-0.929 0.317-1.171 0.502-0.313 0.239-0.305 0.296 0.149 0.934 0.014 0.020 0.047 0.071 0.036 0.094-0.022 0.046-0.062 0.256 0.005 0.401-0.039 0.073-0.096 0.035-0.152 0.042z"></path>
<path fill="#edb92e" d="M16.65 4.824c0.004-0.081-0.002-0.067-0.014 0.058-0.013-0.025-0.030-0.036-0.051-0.036-0.037 0.001-0.059 0.057-0.063 0.182 0.002 0.032 0.004 0.064 0.007 0.096-1.163-0.026-1.853 0.15-2.030 0.486-0.146 0.277 0.102 0.736 0.478 1.259 0.045 0.063 0.044 0.058 0 0.11-0.063 0.075-0.132 0.203-0.080 0.315-0.228 0.124-0.498 0.155-0.735 0.052-0.039-0.104-0.124-0.153-0.193-0.2-0.014-0.009-0.065-0.034-0.070-0.050-0.124-0.396-0.249-0.763-0.356-1.104-0.335-1.072 2.647-1.17 3.107-1.169z"></path>
<path fill="#edb92e" d="M16.852 9.258l-0 0.006c-0.615 0.027-1.706 0.088-3.276 0.187l0.23 1.084c1.043-0.029 2.26-0.075 3.337-0.107 1.076 0.032 2.294 0.078 3.337 0.107l0.23-1.084c-1.57-0.099-2.66-0.16-3.276-0.187l-0-0.006c0.062-0.012-0.034-0.014-0.29-0.005-0.256-0.009-0.352-0.007-0.29 0.005z"></path>
<path fill="#edb92e" d="M17.142 9.386c-0.042 0-0.085 0-0.127 0l-0.042 0h-0.022l-0.039 0-0.024 0h-0.015l-0.027 0-0.042 0.001-0.037 0-0.008 0-0.031 0c-0.031 0.001-0.061 0.001-0.092 0.001h-0.010l-0.006 0-0.039 0.001-0.012 0-0.017 0-0.097 0.002-0.028 0.001h-0.009l-0.133 0.003-0.001 0c-0.050 0.001-0.099 0.002-0.149 0.004l-0.020 0.001-0.063 0.002-0.050 0.002-0.113 0.003-0.003 0-0.041 0.002-0.002 0-0.066 0.002-0.056 0.002c-0.074 0.003-0.148 0.006-0.221 0.009l-0.010 0.001c-0.108 0.005-0.216 0.011-0.323 0.017l-0.006 0.001-0.016 0.001c-0.215 0.012-0.429 0.026-0.642 0.042l-0.008 0.001-0.003 0.001c-0.312 0.023-0.62 0.051-0.926 0.083-0.174 0.016-0.207-0.189 0-0.208 0.306-0.032 0.614-0.059 0.926-0.083l0.003-0c0.428-0.032 0.86-0.057 1.298-0.074l0.036-0.002h0.006l0.012-0.001 0.041-0.002 0.003-0c0.179-0.006 0.359-0.011 0.539-0.015l0.028-0.001 0.002-0 0.048-0.001h0.006l0.002-0 0.040-0.001 0.017-0.001 0.025-0 0.032-0.001 0.010-0 0.015-0c0.037-0.001 0.074-0.001 0.111-0.002l0.035-0h0.007l0.042-0c0.041-0.001 0.082-0.001 0.123-0.001h0.003l0.042-0c0.042 0 0.085-0 0.127-0s0.085 0 0.127 0l0.046 0c0.041 0 0.082 0.001 0.123 0.001l0.084 0.001c0.037 0.001 0.074 0.001 0.111 0.002l0.015 0 0.010 0 0.032 0.001 0.026 0 0.017 0.001 0.040 0.001 0.002 0h0.006l0.048 0.001 0.002 0 0.028 0.001c0.181 0.003 0.361 0.009 0.54 0.015l0.003 0 0.042 0.002 0.012 0.001h0.005l0.036 0.002c0.438 0.017 0.87 0.041 1.298 0.074l0.002 0c0.312 0.024 0.62 0.051 0.926 0.083 0.208 0.019 0.174 0.224 0 0.208-0.306-0.031-0.614-0.059-0.926-0.083l-0.002-0.001-0.008-0.001c-0.213-0.016-0.427-0.030-0.642-0.042l-0.016-0.001-0.006-0.001c-0.108-0.006-0.215-0.011-0.324-0.017l-0.010-0.001c-0.074-0.003-0.147-0.006-0.221-0.009h-0l-0.056-0.002-0.067-0.002-0.002-0-0.042-0.002-0.003-0-0.050-0.002-0.006-0-0.17-0.005-0.020-0.001c-0.049-0.001-0.099-0.003-0.149-0.004l-0.001-0-0.017-0-0.040-0.001h-0.002l-0.075-0.002h-0.009l-0.028-0.001-0.126-0.002-0.039-0.001-0.006-0h-0.010c-0.031-0.001-0.061-0.001-0.092-0.001l-0.031-0-0.008-0-0.037-0-0.069-0.001h-0.015l-0.024-0-0.039-0h-0.022l-0.042-0c-0.042-0-0.085-0-0.127-0z"></path>
<path fill="#edb92e" d="M16.511 5.018c-0.606-0.055-1.226 0.007-1.84 0.25-0.517 0.205-0.467 0.805 0.164 1.637-0.057 0.105-0.090 0.236-0.095 0.388 0.067-0.004 0.114-0.002 0.172-0.003-0.046-0.101 0.005-0.224 0.063-0.311 0.038-0.057 0.045-0.047 0-0.11-0.375-0.523-0.624-0.982-0.478-1.259 0.178-0.337 0.867-0.512 2.030-0.486-0.002-0.031-0.004-0.062-0.006-0.093-0.004-0.004-0.008-0.008-0.012-0.013z"></path>
<path fill="#edb92e" d="M14.049 5.235c0.021 0.029 0.043 0.057 0.064 0.086-0.341 0.187-0.483 0.385-0.449 0.583 0.006 0.034 0.109 0.397 0.341 1.102 0.158 0.109 0.277 0.208 0.354 0.294-0.009 0.010 0.025 0.040 0.015 0.049 0.024 0.108-0.098 0.086-0.179 0.059-0.039-0.103-0.159-0.213-0.228-0.26-0.014-0.009-0.065-0.034-0.070-0.050-0.124-0.396-0.249-0.763-0.356-1.104-0.107-0.343 0.125-0.586 0.506-0.758z"></path>
<path fill="#edb92e" d="M12.692 7.622c0.062 0.014 0.068 0.024 0.095 0.029 0.035 0.006 0.083 0.003 0.116-0.026 0.135-0.081 0.138 0.065 0.086 0.174-0.038 0.079-0.018 0.169 0.018 0.236 0.043 0.080 0.034 0.117 0.004 0.138-0.021 0.014-0.041 0.027-0.059 0.038-0.036 0.043-0.064 0.035-0.069-0.021-0.135-0.056-0.18-0.185-0.22-0.299-0.059-0.166-0.274-0.206 0.030-0.271z"></path>
<path fill="#edb92e" d="M12.745 7.628c0.118 0.042 0.131-0.023 0.21-0.020-0.031 0.18-0.063 0.273-0.25 0.176-0.103-0.053-0.236 0.025-0.261 0.082-0.009 0.021-0.069-0.023-0.091-0.071-0.092-0.201 0.235-0.224 0.393-0.168z"></path>
<path fill="#edb92e" d="M13.23 8.496c0.085-0.026 0.218 0.162 0.249 0.159 0.042-0.108-0.043-0.365-0.195-0.568-0.103-0.033-0.112-0.099-0.133-0.252-0.006-0.046-0.094-0.014-0.096 0.064-0.002 0.083-0.008 0.13 0.010 0.201 0.007 0.028 0.003 0.055-0.028 0.081 0.16 0.063 0.199 0.141 0.192 0.316z"></path>
<path fill="#edb92e" d="M13.154 7.837c-0.015 0.035-0.019 0.064-0.023 0.118-0.003 0.041 0.012 0.079 0.038 0.113s0.064 0.064 0.106 0.088c0.026 0.015 0.056 0.057 0.080 0.104s0.041 0.1 0.042 0.138c0.003 0.125 0.028 0.234 0.085 0.256 0.037 0.014 0.052 0.012 0.081 0.005-0.008-0.023-0.005-0.054-0.025-0.086-0.026-0.040-0.049-0.087-0.051-0.127-0.002-0.032-0.017-0.053-0.004-0.115 0.008-0.040 0.034-0.056 0.030-0.093-0.009-0.072-0.066-0.21-0.149-0.21s-0.121-0.009-0.164-0.118c-0.014-0.037-0.033-0.055-0.046-0.073z"></path>
<path fill="#edb92e" d="M12.844 8.137c0.022-0.017 0.050-0.030 0.075-0.040 0.043-0.017 0.089-0.020 0.134-0.006 0.197 0.059 0.284 0.408 0.067 0.491-0.042 0.005-0.082-0.033-0.12-0.117-0.045-0.111-0.093-0.188-0.145-0.235-0.031-0.040-0.032-0.073-0.012-0.093z"></path>
<path fill="#edb92e" d="M17.252 3.172c0.059-0.002 0.106-0.050 0.106-0.109s-0.047-0.108-0.107-0.109c-0-0.060-0.049-0.109-0.109-0.109s-0.109 0.049-0.109 0.109c-0.059 0.002-0.107 0.050-0.107 0.109s0.048 0.108 0.107 0.109v0.224h-0.193c-0-0.060-0.049-0.109-0.109-0.109s-0.108 0.047-0.109 0.107c-0.060 0-0.109 0.049-0.109 0.109s0.049 0.109 0.109 0.109c0.001 0.059 0.050 0.107 0.109 0.107 0.059 0 0.106-0.046 0.109-0.104h0.193v0.746h0.219v-0.746h0.193c0.003 0.058 0.051 0.104 0.109 0.104s0.108-0.048 0.109-0.107c0.060-0 0.109-0.049 0.109-0.109s-0.049-0.109-0.109-0.109c-0.002-0.059-0.050-0.107-0.109-0.107s-0.109 0.049-0.109 0.109h-0.193z"></path>
<path fill="#edb92e" d="M17.142 3.876c0.037 0 0.074 0.003 0.11 0.010v0.476h-0.219v-0.476c0.036-0.006 0.072-0.010 0.11-0.010z"></path>
<path fill="#edb92e" d="M17.733 4.358c0.008 0.039 0.012 0.081 0.012 0.122 0 0.029-0.002 0.058-0.006 0.086-0.199-0.007-0.398-0.011-0.598-0.011s-0.399 0.005-0.598 0.011c-0.004-0.028-0.006-0.057-0.006-0.086 0-0.042 0.004-0.083 0.012-0.122 0.197-0.007 0.394-0.011 0.592-0.011s0.395 0.004 0.591 0.011z"></path>
<path fill="#edb92e" d="M16.673 4.858c-0.128-0.079-0.15 0.043-0.147 0.166 0.012 0.462 0.101 0.902-0.024 1.467-0.050 0.226-0.13 0.354-0.052 0.397 0.2 0.111 0.291 0.213 0.259 0.268 0.059 0.112 0.206 0.090 0.432 0.055 0.226 0.036 0.373 0.058 0.432-0.055-0.032-0.055 0.060-0.157 0.259-0.268 0.078-0.044-0.002-0.171-0.052-0.397-0.124-0.566-0.036-1.006-0.024-1.467 0.003-0.123-0.019-0.245-0.147-0.166-0.252 0.155-0.683 0.157-0.937 0z"></path>
<path fill="#edb92e" d="M16.87 7.122c-0.095-0.176-0.196-0.288-0.303-0.337 0.147-0.46 0.181-1.053 0.095-1.784-0.009-0.109-0.036-0.156-0.078-0.156-0.037 0.001-0.059 0.057-0.063 0.182 0.027 0.403 0.059 0.755 0.041 1.053-0.016 0.267-0.079 0.489-0.149 0.739-0.010 0.035 0.015 0.062 0.136 0.13 0.089 0.050 0.145 0.112 0.164 0.177 0.026-0.010 0.042-0.007 0.052-0.004 0.090 0.026 0.127 0.019 0.104 0z"></path>
<path fill="#edb92e" d="M17.415 7.122c0.095-0.176 0.196-0.288 0.303-0.337-0.147-0.46-0.181-1.053-0.095-1.784 0.009-0.109 0.036-0.156 0.078-0.156 0.037 0.001 0.059 0.057 0.063 0.183-0.027 0.402-0.059 0.754-0.041 1.053 0.016 0.267 0.080 0.489 0.149 0.739 0.010 0.035-0.015 0.062-0.136 0.13-0.089 0.050-0.145 0.112-0.164 0.177-0.026-0.010-0.042-0.007-0.052-0.004-0.090 0.026-0.127 0.019-0.104 0z"></path>
<path fill="#edb92e" d="M17.313 7.034c0.034 0.055 0.025 0.066 0.048 0.084 0.029 0.023 0.077 0.023 0.122 0.016 0.184-0.029 0.159 0.082 0.077 0.207-0.041 0.063-0.136 0.125-0.185 0.179s-0.054 0.098-0.073 0.112c-0.071 0.002-0.132 0.002-0.16 0.002s-0.089 0-0.16-0.002c-0.020-0.013-0.024-0.058-0.073-0.112s-0.144-0.116-0.185-0.179c-0.082-0.125-0.107-0.236 0.077-0.207 0.046 0.007 0.093 0.007 0.122-0.016 0.023-0.018 0.013-0.029 0.048-0.084 0.022-0.036 0.049-0.063 0.078-0.080s0.061-0.008 0.092-0.008c0.031 0 0.063-0.010 0.092 0.008s0.056 0.045 0.078 0.080z"></path>
<path fill="#edb92e" d="M17.567 7.132c-0.016 0.040-0.034 0.084-0.070 0.121-0.054 0.056-0.144 0.020-0.231-0.053-0.028-0.023-0.076-0.034-0.124-0.034s-0.096 0.012-0.123 0.034c-0.087 0.073-0.177 0.109-0.231 0.053-0.036-0.037-0.053-0.081-0.069-0.121 0.021-0.004 0.048-0.003 0.084 0.002 0.046 0.007 0.093 0.007 0.122-0.016 0.023-0.018 0.013-0.029 0.048-0.083 0.022-0.036 0.049-0.063 0.078-0.081s0.061-0.008 0.092-0.008c0.032 0 0.063-0.010 0.092 0.008s0.056 0.045 0.078 0.081c0.034 0.055 0.025 0.066 0.048 0.083 0.029 0.023 0.077 0.023 0.122 0.016 0.035-0.005 0.063-0.006 0.084-0.002z"></path>
<path fill="#edb92e" d="M16.307 7.7c0.055-0.034 0.066-0.025 0.084-0.048 0.023-0.029 0.023-0.077 0.016-0.122-0.029-0.184 0.082-0.159 0.207-0.077 0.063 0.041 0.125 0.135 0.179 0.185s0.098 0.054 0.111 0.073c0.002 0.071 0.002 0.132 0.002 0.16v0c0 0.028 0 0.089-0.002 0.159-0.013 0.020-0.058 0.024-0.111 0.073s-0.117 0.144-0.179 0.185c-0.125 0.082-0.236 0.107-0.207-0.077 0.007-0.046 0.007-0.093-0.016-0.123-0.018-0.023-0.029-0.013-0.084-0.048-0.036-0.022-0.063-0.049-0.080-0.078s-0.008-0.061-0.008-0.092-0.010-0.063 0.008-0.092c0.018-0.029 0.045-0.056 0.080-0.078z"></path>
<path fill="#edb92e" d="M16.404 7.445c0.040 0.016 0.084 0.034 0.121 0.070 0.056 0.054 0.020 0.144-0.053 0.231-0.023 0.027-0.034 0.076-0.034 0.124s0.011 0.096 0.034 0.123c0.073 0.087 0.109 0.177 0.053 0.231-0.037 0.036-0.081 0.053-0.121 0.070-0.004-0.021-0.003-0.049 0.002-0.084 0.007-0.046 0.007-0.093-0.016-0.122-0.018-0.023-0.029-0.014-0.084-0.048-0.036-0.022-0.063-0.049-0.080-0.078s-0.008-0.061-0.008-0.092-0.010-0.063 0.008-0.092c0.018-0.029 0.045-0.056 0.080-0.078 0.055-0.034 0.066-0.025 0.084-0.048 0.023-0.029 0.023-0.077 0.016-0.123-0.005-0.035-0.006-0.063-0.002-0.084z"></path>
<path fill="#edb92e" d="M17.978 8.040c-0.055 0.034-0.066 0.025-0.084 0.048-0.023 0.029-0.023 0.077-0.016 0.123 0.029 0.184-0.082 0.159-0.207 0.077-0.062-0.041-0.125-0.135-0.179-0.185s-0.098-0.054-0.112-0.073c-0.002-0.071-0.002-0.132-0.002-0.16v-0c-0-0.028 0-0.089 0.002-0.159 0.013-0.020 0.058-0.024 0.112-0.073s0.117-0.144 0.179-0.185c0.125-0.082 0.236-0.107 0.207 0.077-0.007 0.046-0.007 0.093 0.016 0.122 0.018 0.023 0.029 0.013 0.084 0.048 0.036 0.022 0.063 0.049 0.080 0.078s0.008 0.061 0.008 0.092 0.010 0.063-0.008 0.092c-0.018 0.029-0.045 0.056-0.080 0.078z"></path>
<path fill="#edb92e" d="M17.88 8.294c-0.040-0.016-0.084-0.034-0.121-0.070-0.056-0.054-0.020-0.144 0.053-0.231 0.023-0.027 0.034-0.076 0.034-0.124s-0.011-0.096-0.034-0.123c-0.073-0.087-0.109-0.177-0.053-0.231 0.037-0.036 0.081-0.053 0.121-0.070 0.004 0.021 0.003 0.049-0.002 0.084-0.007 0.046-0.007 0.093 0.016 0.123 0.018 0.022 0.029 0.013 0.084 0.048 0.036 0.022 0.063 0.049 0.080 0.078s0.008 0.061 0.008 0.092 0.010 0.063-0.008 0.092c-0.018 0.029-0.045 0.056-0.080 0.078-0.055 0.034-0.066 0.025-0.084 0.048-0.023 0.029-0.023 0.077-0.016 0.122 0.005 0.035 0.006 0.063 0.002 0.084z"></path>
<path fill="#edb92e" d="M14.63 7.188c0.047 0.059 0.041 0.073 0.066 0.090 0.033 0.022 0.078 0.014 0.12-0.002 0.171-0.065 0.171 0.070 0.121 0.224-0.024 0.075-0.097 0.156-0.129 0.22-0.032 0.062-0.025 0.109-0.039 0.125-0.062 0.010-0.115 0.018-0.139 0.021h-0c-0.024 0.004-0.077 0.010-0.138 0.017-0.020-0.011-0.035-0.056-0.091-0.104s-0.155-0.102-0.208-0.161c-0.107-0.122-0.164-0.238 0.004-0.234 0.042 0.001 0.084-0.006 0.103-0.036 0.015-0.023 0.004-0.034 0.018-0.102 0.009-0.045 0.026-0.081 0.047-0.106s0.053-0.020 0.082-0.026c0.029-0.005 0.056-0.023 0.088-0.006s0.065 0.043 0.095 0.082z"></path>
<path fill="#edb92e" d="M14.896 7.26c-0.006 0.050-0.013 0.103-0.038 0.151-0.037 0.072-0.129 0.044-0.228-0.024-0.031-0.022-0.078-0.027-0.122-0.019s-0.084 0.028-0.101 0.056c-0.056 0.092-0.123 0.144-0.187 0.091-0.042-0.035-0.070-0.080-0.097-0.122 0.017-0.007 0.041-0.011 0.073-0.010 0.042 0.001 0.084-0.006 0.103-0.036 0.015-0.023 0.004-0.034 0.018-0.102 0.010-0.045 0.026-0.080 0.047-0.106s0.053-0.020 0.082-0.026c0.029-0.005 0.056-0.023 0.088-0.007s0.065 0.043 0.095 0.082c0.047 0.059 0.041 0.073 0.066 0.090 0.033 0.022 0.078 0.014 0.12-0.002 0.032-0.012 0.059-0.017 0.080-0.016z"></path>
<path fill="#edb92e" d="M13.963 7.931c0.027-0.033 0.038-0.026 0.043-0.046 0.006-0.027-0.010-0.069-0.030-0.108-0.082-0.16 0.005-0.146 0.123-0.083 0.030 0.016 0.065 0.044 0.099 0.074s0.069 0.060 0.098 0.081c0.059 0.042 0.095 0.043 0.112 0.060 0.026 0.065 0.047 0.121 0.057 0.146v0c0.010 0.025 0.031 0.081 0.054 0.146-0.004 0.018-0.037 0.023-0.063 0.069-0.025 0.045-0.044 0.127-0.075 0.167-0.044 0.058-0.085 0.093-0.117 0.087s-0.054-0.052-0.063-0.153c-0.003-0.039-0.026-0.081-0.052-0.106-0.021-0.019-0.025-0.011-0.076-0.039-0.032-0.018-0.060-0.041-0.083-0.065s-0.025-0.051-0.036-0.078c-0.010-0.027-0.027-0.054-0.025-0.079s0.012-0.051 0.030-0.072z"></path>
<path fill="#21231e" d="M14.481 8.103c0.002 0.011 0.005 0.022 0.008 0.033-0.051 0.012-0.093 0.033-0.128 0.061s-0.063 0.065-0.085 0.109c0.008-0.049 0.032-0.092 0.068-0.127s0.083-0.062 0.137-0.076z"></path>
<path fill="#21231e" d="M14.461 8.045c-0.005-0.011-0.010-0.022-0.015-0.032-0.057-0.005-0.111-0.019-0.165-0.042s-0.105-0.054-0.156-0.093c0.041 0.045 0.094 0.084 0.152 0.113s0.123 0.049 0.185 0.055z"></path>
<path fill="#edb92e" d="M13.949 7.673c0.035 0.013 0.058 0.029 0.098 0.062 0.031 0.025 0.047 0.061 0.053 0.103s0.001 0.089-0.010 0.136c-0.007 0.029 0.002 0.079 0.019 0.127s0.043 0.096 0.069 0.122c0.086 0.086 0.146 0.176 0.122 0.232-0.016 0.037-0.028 0.046-0.052 0.063-0.010-0.021-0.035-0.040-0.043-0.075-0.011-0.046-0.028-0.094-0.055-0.122-0.021-0.022-0.026-0.047-0.078-0.080-0.034-0.021-0.063-0.012-0.086-0.040-0.045-0.055-0.103-0.188-0.046-0.249 0.057-0.060 0.077-0.094 0.029-0.197-0.016-0.035-0.016-0.061-0.020-0.082z"></path>
<path fill="#edb92e" d="M15.451 8.107c-0.045 0.038-0.056 0.031-0.069 0.054-0.016 0.030-0.008 0.074 0.005 0.117 0.054 0.166-0.048 0.151-0.17 0.088-0.061-0.031-0.132-0.112-0.187-0.153s-0.095-0.040-0.11-0.057c-0.015-0.065-0.028-0.123-0.033-0.149l-0 0c-0.006-0.027-0.018-0.085-0.031-0.154 0.008-0.021 0.046-0.030 0.084-0.086s0.076-0.162 0.125-0.213c0.101-0.105 0.203-0.15 0.209 0.052 0.001 0.049 0.010 0.098 0.036 0.125 0.021 0.021 0.029 0.010 0.087 0.038 0.037 0.018 0.067 0.042 0.089 0.070s0.017 0.060 0.022 0.092c0.005 0.032 0.019 0.061 0.006 0.092s-0.033 0.059-0.063 0.085z"></path>
<path fill="#edb92e" d="M15.402 8.354c-0.038-0.012-0.080-0.024-0.118-0.053-0.059-0.045-0.041-0.132 0.009-0.222 0.016-0.029 0.018-0.077 0.010-0.124s-0.027-0.094-0.052-0.118c-0.083-0.079-0.133-0.166-0.091-0.23 0.028-0.043 0.066-0.067 0.101-0.091 0.008 0.022 0.012 0.051 0.013 0.089 0.002 0.049 0.010 0.098 0.036 0.125 0.021 0.021 0.029 0.010 0.087 0.038 0.037 0.018 0.067 0.042 0.089 0.070s0.017 0.060 0.022 0.092c0.005 0.031 0.019 0.062 0.006 0.092s-0.033 0.059-0.063 0.085c-0.045 0.039-0.056 0.031-0.069 0.054-0.016 0.030-0.008 0.074 0.005 0.117 0.010 0.032 0.015 0.057 0.015 0.077z"></path>
<path fill="#edb92e" d="M17.773 5.018c0.606-0.055 1.226 0.007 1.84 0.25 0.517 0.205 0.466 0.805-0.164 1.637 0.057 0.105 0.090 0.236 0.094 0.388-0.067-0.004-0.113-0.002-0.172-0.003 0.046-0.101-0.005-0.224-0.063-0.311-0.038-0.057-0.045-0.047 0-0.11 0.375-0.523 0.624-0.982 0.478-1.259-0.178-0.337-0.867-0.512-2.031-0.486 0.002-0.031 0.004-0.062 0.006-0.093 0.004-0.004 0.007-0.008 0.011-0.013z"></path>
<path fill="#edb92e" d="M20.235 5.235c-0.021 0.029-0.043 0.057-0.065 0.086 0.341 0.187 0.483 0.385 0.449 0.583-0.006 0.034-0.11 0.397-0.341 1.102-0.158 0.109-0.276 0.208-0.354 0.294 0.009 0.010-0.025 0.040-0.015 0.049-0.024 0.108 0.098 0.086 0.179 0.059 0.039-0.103 0.159-0.213 0.228-0.26 0.014-0.009 0.065-0.034 0.070-0.050 0.124-0.396 0.249-0.763 0.356-1.104 0.107-0.343-0.125-0.586-0.506-0.758z"></path>
<path fill="#edb92e" d="M21.593 7.622c-0.062 0.014-0.068 0.024-0.095 0.029-0.035 0.006-0.083 0.003-0.116-0.026-0.135-0.081-0.138 0.065-0.086 0.174 0.038 0.079 0.019 0.169-0.018 0.236-0.043 0.080-0.033 0.117-0.003 0.138 0.021 0.014 0.041 0.027 0.059 0.038 0.036 0.043 0.064 0.035 0.069-0.021 0.135-0.056 0.179-0.185 0.22-0.299 0.059-0.166 0.273-0.206-0.030-0.271z"></path>
<path fill="#edb92e" d="M21.54 7.628c-0.117 0.042-0.13-0.023-0.21-0.020 0.031 0.18 0.063 0.273 0.25 0.176 0.103-0.053 0.236 0.025 0.261 0.082 0.009 0.021 0.069-0.023 0.091-0.071 0.092-0.201-0.235-0.224-0.393-0.168z"></path>
<path fill="#edb92e" d="M21.054 8.496c-0.085-0.026-0.218 0.162-0.249 0.159-0.042-0.108 0.043-0.365 0.195-0.568 0.102-0.033 0.112-0.099 0.133-0.252 0.006-0.046 0.094-0.014 0.096 0.064 0.002 0.083 0.008 0.13-0.010 0.201-0.007 0.028-0.003 0.055 0.028 0.081-0.16 0.063-0.199 0.141-0.192 0.316z"></path>
<path fill="#edb92e" d="M21.131 7.837c0.015 0.035 0.019 0.064 0.023 0.118 0.003 0.041-0.012 0.079-0.038 0.113s-0.064 0.064-0.106 0.088c-0.026 0.015-0.056 0.057-0.080 0.104s-0.041 0.1-0.042 0.138c-0.003 0.125-0.028 0.234-0.085 0.256-0.037 0.014-0.052 0.012-0.081 0.005 0.008-0.023 0.005-0.054 0.025-0.086 0.026-0.040 0.049-0.087 0.051-0.127 0.002-0.032 0.017-0.053 0.004-0.115-0.008-0.040-0.034-0.056-0.030-0.093 0.009-0.072 0.066-0.21 0.15-0.21 0.082-0 0.121-0.009 0.163-0.118 0.015-0.037 0.033-0.055 0.046-0.073z"></path>
<path fill="#edb92e" d="M21.441 8.137c-0.023-0.017-0.050-0.030-0.075-0.040-0.043-0.017-0.090-0.020-0.134-0.006-0.197 0.059-0.284 0.408-0.068 0.491 0.043 0.005 0.082-0.033 0.12-0.117 0.045-0.111 0.093-0.188 0.145-0.235 0.031-0.040 0.032-0.073 0.012-0.093z"></path>
<path fill="#edb92e" d="M19.654 7.188c-0.047 0.059-0.041 0.073-0.066 0.090-0.033 0.022-0.078 0.014-0.12-0.002-0.171-0.065-0.171 0.070-0.122 0.224 0.024 0.075 0.097 0.156 0.13 0.22 0.032 0.062 0.025 0.109 0.039 0.125 0.062 0.010 0.115 0.018 0.14 0.021h0c0.024 0.004 0.077 0.010 0.137 0.017 0.020-0.011 0.035-0.056 0.092-0.104s0.155-0.102 0.208-0.161c0.107-0.122 0.164-0.238-0.004-0.234-0.042 0.001-0.084-0.006-0.103-0.036-0.015-0.023-0.003-0.034-0.018-0.102-0.009-0.045-0.026-0.081-0.047-0.106s-0.053-0.020-0.082-0.026c-0.029-0.005-0.056-0.023-0.088-0.006s-0.065 0.043-0.095 0.082z"></path>
<path fill="#edb92e" d="M19.388 7.26c0.006 0.050 0.013 0.103 0.038 0.151 0.037 0.072 0.129 0.044 0.228-0.024 0.031-0.022 0.079-0.027 0.122-0.019s0.084 0.028 0.101 0.056c0.056 0.092 0.124 0.144 0.187 0.091 0.042-0.035 0.070-0.080 0.097-0.122-0.017-0.007-0.041-0.011-0.074-0.010-0.042 0.001-0.084-0.006-0.103-0.036-0.015-0.023-0.003-0.034-0.018-0.102-0.009-0.045-0.026-0.080-0.047-0.106s-0.053-0.020-0.082-0.026c-0.029-0.005-0.056-0.023-0.088-0.007s-0.065 0.043-0.095 0.082c-0.047 0.059-0.041 0.073-0.066 0.090-0.033 0.022-0.078 0.014-0.12-0.002-0.032-0.012-0.059-0.017-0.080-0.016z"></path>
<path fill="#edb92e" d="M20.321 7.931c-0.027-0.033-0.038-0.026-0.043-0.046-0.006-0.027 0.009-0.069 0.030-0.108 0.082-0.16-0.005-0.146-0.123-0.083-0.030 0.016-0.065 0.044-0.099 0.074s-0.069 0.060-0.098 0.081c-0.059 0.042-0.095 0.043-0.112 0.060-0.026 0.065-0.048 0.121-0.057 0.146l-0 0c-0.010 0.025-0.031 0.081-0.054 0.146 0.004 0.018 0.037 0.023 0.063 0.069 0.025 0.045 0.044 0.127 0.075 0.167 0.045 0.058 0.085 0.093 0.117 0.087s0.054-0.052 0.063-0.153c0.003-0.039 0.026-0.081 0.052-0.106 0.020-0.019 0.025-0.011 0.075-0.039 0.032-0.018 0.060-0.041 0.083-0.065s0.025-0.051 0.035-0.078c0.010-0.027 0.028-0.054 0.025-0.079s-0.012-0.051-0.030-0.072z"></path>
<path fill="#21231e" d="M19.803 8.103c-0.002 0.011-0.005 0.022-0.008 0.033 0.051 0.012 0.093 0.033 0.128 0.061s0.063 0.065 0.085 0.109c-0.008-0.049-0.032-0.092-0.068-0.127s-0.083-0.062-0.138-0.076z"></path>
<path fill="#21231e" d="M19.824 8.045c0.005-0.011 0.010-0.022 0.015-0.032 0.057-0.005 0.111-0.019 0.165-0.042s0.105-0.054 0.156-0.093c-0.041 0.045-0.094 0.084-0.152 0.113s-0.123 0.049-0.184 0.055z"></path>
<path fill="#edb92e" d="M20.336 7.673c-0.035 0.013-0.058 0.029-0.098 0.062-0.031 0.025-0.047 0.061-0.053 0.103s-0.002 0.089 0.010 0.136c0.007 0.029-0.002 0.079-0.019 0.127s-0.043 0.096-0.069 0.122c-0.086 0.086-0.146 0.176-0.122 0.232 0.016 0.037 0.028 0.046 0.052 0.063 0.010-0.021 0.035-0.040 0.043-0.075 0.010-0.046 0.028-0.094 0.055-0.122 0.021-0.022 0.026-0.047 0.078-0.080 0.034-0.021 0.063-0.012 0.086-0.040 0.045-0.055 0.103-0.188 0.046-0.249-0.057-0.060-0.077-0.094-0.029-0.197 0.016-0.035 0.016-0.061 0.020-0.082z"></path>
<path fill="#edb92e" d="M18.833 8.107c0.045 0.038 0.056 0.031 0.069 0.054 0.016 0.030 0.009 0.074-0.005 0.116-0.054 0.166 0.048 0.152 0.17 0.088 0.061-0.031 0.132-0.113 0.187-0.153s0.094-0.040 0.11-0.057c0.016-0.065 0.028-0.123 0.033-0.149s0.018-0.085 0.031-0.154c-0.007-0.021-0.046-0.030-0.083-0.086s-0.076-0.162-0.126-0.213c-0.101-0.105-0.203-0.151-0.209 0.052-0.001 0.049-0.010 0.098-0.036 0.125-0.021 0.021-0.029 0.010-0.087 0.038-0.038 0.018-0.068 0.042-0.089 0.070s-0.017 0.061-0.022 0.092c-0.005 0.031-0.019 0.061-0.006 0.092s0.033 0.059 0.063 0.085z"></path>
<path fill="#edb92e" d="M18.882 8.354c0.038-0.012 0.080-0.024 0.118-0.053 0.059-0.045 0.042-0.132-0.009-0.222-0.016-0.029-0.018-0.077-0.010-0.124s0.027-0.094 0.053-0.118c0.083-0.079 0.133-0.166 0.091-0.23-0.028-0.043-0.066-0.067-0.101-0.091-0.007 0.022-0.012 0.051-0.013 0.089-0.002 0.049-0.010 0.098-0.036 0.125-0.021 0.021-0.029 0.010-0.087 0.038-0.037 0.018-0.067 0.042-0.089 0.070s-0.017 0.060-0.022 0.092c-0.005 0.031-0.019 0.062-0.006 0.092s0.033 0.059 0.063 0.085c0.045 0.039 0.056 0.031 0.069 0.054 0.016 0.030 0.008 0.074-0.005 0.117-0.010 0.032-0.015 0.057-0.015 0.077z"></path>
<path fill="#edb92e" d="M20.477 10.459c0.070 0.011 0.108 0.055 0.105 0.1 0.002 0.045-0.035 0.090-0.105 0.1-0.016 0.004-0.034 0.008-0.054 0.009-2.138 0.183-4.423 0.183-6.562 0-0.020-0.002-0.038-0.005-0.054-0.009-0.070-0.010-0.108-0.055-0.105-0.1-0.002-0.045 0.035-0.089 0.105-0.1 0.016-0.004 0.034-0.007 0.054-0.009 2.138-0.183 4.423-0.183 6.562 0 0.020 0.002 0.038 0.005 0.054 0.009z"></path>
<path fill="#c6363c" d="M11.142 10.699v9.698c0 1.735 0.674 3.311 1.761 4.453s2.587 1.85 4.239 1.85h0c1.652 0 3.152-0.708 4.239-1.85s1.761-2.718 1.761-4.453v-9.698z"></path>
<path fill="#fff" d="M17.197 26.198c0.052-0.009 0.14 0.002 0.206-0.050 0.089-0.069 0.054-0.35 0.046-0.527-0.041-0.906-0.078-2.432-0.124-4.574-0.075-0.010-0.131-0.005-0.182 0.003-0.052-0.008-0.107-0.013-0.183-0.003-0.046 2.142-0.083 3.668-0.124 4.574-0.008 0.177-0.043 0.458 0.045 0.527 0.066 0.052 0.154 0.041 0.207 0.050z"></path>
<path fill="#fff" d="M17.765 26.173c-0.053-0.004-0.139 0.015-0.21-0.031-0.094-0.061-0.102-0.348-0.11-0.525-0.042-0.906-0.126-2.424-0.274-4.562 0.074-0.017 0.13-0.017 0.182-0.014 0.008-0.002 0.017-0.004 0.025-0.006 0.341 2.115 0.47 3.615 0.703 4.52 0.032 0.125 0.102 0.438-0.006 0.54-0.061 0.058-0.15 0.055-0.201 0.068z"></path>
<path fill="#fff" d="M18.433 26.077c-0.053 0.001-0.137 0.028-0.212-0.012-0.099-0.052-0.095-0.339-0.14-0.511-0.234-0.905-0.362-2.406-0.703-4.521 0.072-0.024 0.127-0.029 0.18-0.030l0.007-0.002c0.542 2.056 0.705 3.506 1.126 4.402 0.039 0.124 0.145 0.454 0.044 0.568-0.056 0.063-0.145 0.068-0.194 0.086z"></path>
<path fill="#fff" d="M19.106 25.887c-0.053 0.006-0.141 0.055-0.219 0.024-0.104-0.042-0.12-0.348-0.195-0.508-0.423-0.9-0.585-2.358-1.133-4.43 0.070-0.031 0.124-0.041 0.176-0.048 0.047-0.022 0.038-0.033 0.114-0.044 0.637 2.046 0.844 3.469 1.445 4.352 0.097 0.143 0.168 0.428 0.102 0.519-0.049 0.068-0.137 0.082-0.185 0.105z"></path>
<path fill="#fff" d="M16.519 26.173c0.053-0.004 0.139 0.015 0.21-0.031 0.094-0.061 0.102-0.348 0.11-0.525 0.042-0.906 0.126-2.424 0.274-4.562-0.074-0.017-0.13-0.017-0.182-0.014-0.008-0.002-0.016-0.004-0.025-0.006-0.341 2.115-0.47 3.615-0.703 4.52-0.032 0.125-0.102 0.438 0.006 0.54 0.061 0.058 0.15 0.055 0.201 0.068z"></path>
<path fill="#fff" d="M15.851 26.077c0.053 0.001 0.137 0.028 0.212-0.012 0.1-0.052 0.096-0.339 0.14-0.511 0.234-0.905 0.362-2.406 0.703-4.521-0.072-0.024-0.127-0.029-0.18-0.030l-0.007-0.002c-0.543 2.056-0.705 3.506-1.126 4.402-0.039 0.124-0.145 0.454-0.044 0.568 0.056 0.063 0.145 0.068 0.194 0.086z"></path>
<path fill="#fff" d="M15.178 25.887c0.053 0.006 0.141 0.055 0.219 0.023 0.104-0.042 0.12-0.348 0.195-0.508 0.423-0.9 0.585-2.358 1.134-4.43-0.070-0.031-0.124-0.041-0.176-0.048-0.048-0.022-0.039-0.033-0.114-0.044-0.637 2.046-0.844 3.469-1.445 4.352-0.097 0.143-0.168 0.428-0.102 0.519 0.049 0.068 0.137 0.082 0.185 0.105z"></path>
<path fill="#fff" d="M18.75 24.342c-0.048 0.003-0.12 0.032-0.196-0.004-0.1-0.048-0.165-0.324-0.219-0.496-0.427-0.841-0.816-2.336-1.455-4.412 0.062-0.026 0.111-0.032 0.159-0.036 0.042-0.019 0.088-0.035 0.157-0.042 0.688 2.055 0.997 3.541 1.669 4.36 0.111 0.135 0.194 0.43 0.141 0.515-0.040 0.064-0.12 0.073-0.162 0.092z"></path>
<path fill="#fff" d="M18.206 24.448c-0.048-0.001-0.123 0.022-0.194-0.019-0.094-0.056-0.128-0.336-0.161-0.511-0.172-0.895-0.489-2.398-0.94-4.508 0.064-0.021 0.114-0.024 0.162-0.023 0.044-0.015 0.091-0.028 0.161-0.029 0.532 2.097 0.656 3.666 1.159 4.473 0.092 0.147 0.143 0.443 0.081 0.524-0.047 0.061-0.127 0.063-0.172 0.079z"></path>
<path fill="#fff" d="M17.652 24.511c-0.048-0.005-0.125 0.013-0.191-0.034-0.087-0.063-0.088-0.344-0.101-0.522-0.068-0.905-0.211-2.426-0.416-4.562 0.067-0.016 0.117-0.014 0.164-0.010 0.046-0.012 0.094-0.021 0.163-0.016 0.288 2.129 0.456 3.671 0.639 4.544 0.036 0.174 0.091 0.453 0.020 0.528-0.054 0.057-0.134 0.052-0.18 0.064z"></path>
<path fill="#fff" d="M15.534 24.342c0.048 0.003 0.12 0.032 0.196-0.004 0.1-0.048 0.166-0.324 0.219-0.496 0.427-0.842 0.816-2.336 1.455-4.413-0.062-0.026-0.111-0.032-0.159-0.036-0.042-0.018-0.088-0.035-0.156-0.041-0.688 2.055-0.997 3.541-1.67 4.36-0.111 0.135-0.193 0.43-0.141 0.515 0.040 0.064 0.12 0.072 0.162 0.092z"></path>
<path fill="#fff" d="M16.078 24.448c0.048-0.001 0.123 0.023 0.194-0.019 0.094-0.056 0.128-0.336 0.161-0.511 0.172-0.896 0.489-2.398 0.94-4.508-0.064-0.021-0.114-0.024-0.162-0.023-0.044-0.015-0.091-0.028-0.161-0.029-0.532 2.097-0.656 3.666-1.159 4.473-0.092 0.147-0.143 0.443-0.081 0.524 0.047 0.061 0.127 0.063 0.172 0.079z"></path>
<path fill="#fff" d="M16.633 24.511c0.048-0.005 0.125 0.013 0.191-0.034 0.087-0.063 0.088-0.344 0.101-0.522 0.068-0.905 0.21-2.426 0.416-4.562-0.067-0.016-0.117-0.014-0.164-0.010-0.046-0.012-0.094-0.021-0.163-0.016-0.288 2.129-0.456 3.671-0.639 4.544-0.036 0.174-0.091 0.453-0.020 0.528 0.054 0.057 0.134 0.052 0.18 0.064z"></path>
<path fill="#fff" d="M17.191 24.53c0.047-0.009 0.126 0.002 0.186-0.050 0.080-0.069 0.048-0.35 0.041-0.527-0.037-0.906-0.070-2.432-0.112-4.574-0.068-0.010-0.118-0.005-0.165 0.003-0.047-0.008-0.096-0.013-0.165-0.003-0.041 2.143-0.075 3.668-0.112 4.574-0.007 0.178-0.039 0.458 0.041 0.527 0.060 0.052 0.139 0.041 0.186 0.050z"></path>
<path fill="#fff" d="M18.374 23.096c-0.037 0.003-0.092 0.032-0.15-0.004-0.077-0.048-0.127-0.324-0.168-0.496-0.327-0.841-0.625-2.336-1.114-4.413 0.047-0.026 0.085-0.032 0.122-0.036 0.032-0.018 0.067-0.035 0.12-0.042 0.527 2.055 0.764 3.541 1.279 4.36 0.085 0.135 0.148 0.43 0.108 0.515-0.030 0.064-0.092 0.072-0.124 0.092z"></path>
<path fill="#fff" d="M17.957 23.203c-0.037-0.001-0.094 0.023-0.149-0.019-0.072-0.055-0.098-0.336-0.123-0.511-0.132-0.895-0.374-2.398-0.72-4.508 0.050-0.021 0.088-0.024 0.124-0.024 0.034-0.015 0.070-0.028 0.123-0.029 0.408 2.097 0.502 3.666 0.888 4.472 0.070 0.147 0.11 0.443 0.062 0.524-0.036 0.061-0.097 0.063-0.131 0.078z"></path>
<path fill="#fff" d="M17.533 23.265c-0.037-0.005-0.096 0.012-0.146-0.035-0.067-0.063-0.068-0.344-0.078-0.522-0.052-0.905-0.161-2.426-0.318-4.562 0.051-0.016 0.089-0.014 0.125-0.010 0.035-0.011 0.072-0.021 0.125-0.016 0.221 2.129 0.349 3.671 0.489 4.544 0.028 0.174 0.070 0.453 0.015 0.528-0.041 0.057-0.103 0.052-0.138 0.065z"></path>
<path fill="#fff" d="M15.911 23.095c0.037 0.003 0.092 0.032 0.15-0.004 0.077-0.048 0.127-0.324 0.168-0.496 0.327-0.841 0.625-2.336 1.114-4.412-0.048-0.026-0.085-0.032-0.122-0.036-0.032-0.019-0.067-0.035-0.12-0.042-0.527 2.055-0.764 3.541-1.279 4.36-0.085 0.135-0.148 0.43-0.108 0.515 0.030 0.064 0.091 0.073 0.124 0.092z"></path>
<path fill="#fff" d="M16.327 23.202c0.037-0.001 0.095 0.023 0.149-0.019 0.072-0.056 0.098-0.336 0.123-0.511 0.132-0.896 0.375-2.398 0.72-4.508-0.050-0.021-0.088-0.024-0.124-0.023-0.034-0.015-0.070-0.028-0.123-0.029-0.408 2.096-0.502 3.666-0.888 4.472-0.070 0.147-0.11 0.443-0.062 0.524 0.036 0.061 0.098 0.063 0.131 0.078z"></path>
<path fill="#fff" d="M16.752 23.266c0.036-0.005 0.096 0.012 0.146-0.035 0.067-0.063 0.068-0.344 0.078-0.521 0.052-0.905 0.161-2.426 0.318-4.562-0.051-0.016-0.089-0.014-0.125-0.010-0.035-0.012-0.072-0.021-0.125-0.016-0.221 2.129-0.349 3.671-0.489 4.544-0.028 0.174-0.070 0.453-0.015 0.528 0.041 0.057 0.102 0.052 0.138 0.064z"></path>
<path fill="#fff" d="M17.18 23.284c0.036-0.009 0.097 0.002 0.143-0.050 0.061-0.069 0.037-0.35 0.031-0.527-0.028-0.906-0.054-2.432-0.086-4.574-0.052-0.010-0.090-0.005-0.126 0.003-0.036-0.008-0.074-0.013-0.126-0.003-0.032 2.142-0.058 3.668-0.086 4.574-0.006 0.178-0.030 0.458 0.031 0.527 0.046 0.052 0.107 0.041 0.143 0.050z"></path>
<path fill="#edb92e" d="M14.635 20.828c-0.115 0.005-0.255 0.070-0.666 0.427-0.18 0.366-0.36 0.734-0.61 1.052-0.085 0.056-0.152 0.095-0.219 0.117-0.070 0.023-0.588 0.006-0.601-0.016-0.161-0.146-0.408-0.042-0.325 0.112-0.064 0.061 0.077 0.282 0.19 0.19 0.104-0.085 0.465-0.005 0.585-0.048-0.046 0.108-0.372 0.179-0.6 0.195-0.208 0.009-0.194 0.217-0.109 0.376 0.098 0.062 0.018-0.016 0.053 0.029 0.093 0.138 0.293 0.12 0.3-0.015 0.007-0.14 0.494-0.322 0.567-0.429-0.089 0.212-0.295 0.411-0.397 0.619-0.11 0.11-0.176 0.132-0.034 0.354 0.157-0.018 0.167-0.060 0.264 0.032 0.215-0.024 0.25-0.088 0.215-0.258-0.037-0.18 0.114-0.505 0.164-0.597 0.046-0.085 0.058-0.173 0.102-0.226 0.078-0.093 0.45-0.277 0.545-0.226 0.176 0.093 0.309 0.037 0.331-0.133-0.057-0.044-0.014-0.285-0.135-0.295-0.099-0.008-0.158 0.022-0.249 0.097-0.144 0.117-0.217 0.18-0.265 0.167-0.112-0.031 0.203-0.185 0.489-0.561 0.397-0.52 0.424-0.784 0.405-0.962z"></path>
<path fill="#edb92e" d="M12.238 22.615c-0.144-0.084-0.226-0.081-0.282-0.018-0.031 0.034-0.070 0.017-0.047-0.037 0.095-0.226 0.248-0.254 0.385-0.148 0.038 0.035 0.069 0.066 0.1 0.096-0.023 0.034-0.137 0.081-0.155 0.107z"></path>
<path fill="#edb92e" d="M14.295 22.414c0.153-0.104 0.296-0.124 0.374-0.066 0.043 0.032 0.086 0.009 0.048-0.044-0.158-0.222-0.343-0.234-0.483-0.108-0.038 0.041-0.068 0.076-0.098 0.111 0.048 0.052 0.154 0.111 0.16 0.107z"></path>
<path fill="#edb92e" d="M13.094 23.688c-0.094 0.185-0.143 0.312-0.102 0.411 0.024 0.058-0.003 0.111-0.062 0.061-0.238-0.204-0.239-0.439-0.086-0.598 0.051-0.053 0.105-0.087 0.153-0.126 0.062 0.058 0.102 0.243 0.097 0.252z"></path>
<path fill="#edb92e" d="M15.654 12.688c-0.073 0.063-0.313 0.064-0.643 0.086-0.531 0.019-0.838-0.141-0.906-0.481 0.199 0.237 0.437 0.354 0.706 0.287 0.364-0.090 0.572-0.155 0.655-0.139 0.056 0.020 0.137 0.121 0.187 0.246z"></path>
<path fill="#fff" d="M16.882 19.92c-0.003 0.152-0.005 0.322-0.006 0.497l-0.002 0-0.379 0.079c-0.001 0.173 0.427 1.981 0.647 1.981s0.647-1.81 0.647-1.982l-0.381-0.078c-0.001-0.175-0.003-0.345-0.006-0.497-0.080 0.066-0.168 0.181-0.26 0.285-0.093-0.104-0.181-0.219-0.26-0.285z"></path>
<path fill="#fff" d="M16.443 20.688l-0.34-0.192c-0.143 0.102-0.249 0.483-0.004 0.794 0.305 0.388 0.428 0.669 0.502 0.982 0.222-0.283 0.298-0.581 0.157-0.872-0.19-0.392-0.313-0.613-0.315-0.712z"></path>
<path fill="#fff" d="M16.721 20.416l-0.34-0.192c-0.143 0.102-0.442 0.471-0.197 0.782 0.305 0.387 0.621 0.68 0.695 0.994 0.222-0.283 0.316-0.581 0.175-0.872-0.19-0.392-0.332-0.613-0.333-0.712z"></path>
<path fill="#fff" d="M17.841 20.687l0.34-0.192c0.143 0.103 0.249 0.483 0.004 0.794-0.304 0.388-0.428 0.668-0.502 0.982-0.222-0.283-0.298-0.582-0.157-0.872 0.19-0.392 0.313-0.613 0.315-0.712z"></path>
<path fill="#fff" d="M17.564 20.416l0.34-0.192c0.143 0.102 0.442 0.471 0.197 0.782-0.305 0.388-0.621 0.681-0.695 0.994-0.221-0.283-0.316-0.581-0.175-0.872 0.19-0.392 0.332-0.613 0.333-0.712z"></path>
<path fill="#fff" d="M15.971 20.279l-0.34-0.192c-0.143 0.103-0.249 0.483-0.004 0.794 0.304 0.388 0.428 0.669 0.502 0.982 0.221-0.283 0.298-0.582 0.157-0.872-0.19-0.392-0.313-0.613-0.315-0.712z"></path>
<path fill="#fff" d="M18.314 20.278l0.34-0.192c0.143 0.103 0.248 0.483 0.004 0.794-0.305 0.388-0.428 0.668-0.502 0.982-0.221-0.283-0.298-0.581-0.157-0.872 0.19-0.392 0.313-0.613 0.315-0.712z"></path>
<path fill="#fff" d="M14.397 16.698c0.006 0.31-0.049 2.379-0.066 2.671-0.017 0.291-0.146 0.489-0.284 0.603-0.126-0.173-0.202-0.407-0.219-0.685-0.009-0.141 0.017-2.099 0.028-2.502 0.232-0.613 0.404-0.637 0.542-0.088z"></path>
<path fill="#fff" d="M13.050 16.192l-0.088 2.845c-0.028 0.252 0.301 1.754 0.481 2.050 0.445-0.19 0.539-1.209 0.456-2.201s0.014-1.85 0.082-2.028c0.006-0.225-0.032-0.459-0.034-0.693-0.284 0.017-0.613 0.011-0.897 0.028z"></path>
<path fill="#fff" d="M12.523 16.657l0.060 2.845c-0.014 0.253 0.393 1.735 0.588 2.021 0.452-0.35 0.361-1.78 0.292-2.213-0.138-0.862-0.115-1.862-0.067-2.024-0.006-0.225-0.012-0.493-0.026-0.727-0.282 0.032-0.564 0.065-0.847 0.097z"></path>
<path fill="#fff" d="M12.131 17.331l0.749-0.019c-0.064 0.31-0.013 1.275 0.116 2.009 0.121 0.689 0.29 2.476-0.428 2.905-0.445-0.943-0.106-1.859-0.331-2.678-0.175-0.87-0.21-1.597-0.106-2.217z"></path>
<path fill="#fff" d="M14.994 16.176c-0.003 0.31-0.121 2.377-0.147 2.668-0.026 0.29-0.161 0.485-0.303 0.594-0.121-0.177-0.189-0.413-0.199-0.691-0.005-0.142 0.081-2.098 0.104-2.5 0.25-0.606 0.423-0.623 0.544-0.071z"></path>
<path fill="#fff" d="M13.664 14.49c-0.020 0.666-0.031 2.113-0.027 2.235 0.009 0.278 0.119 0.632 0.24 0.809 0.141-0.109 0.276-0.303 0.302-0.594 0.021-0.239 0.029-1.411 0.032-1.999-0.151-0.097-0.307-0.218-0.432-0.347 0 0-0.111-0.098-0.115-0.104z"></path>
<path fill="#fff" d="M14.198 14.92c-0.013 0.718-0.005 1.849-0.002 1.941 0.009 0.278 0.078 0.514 0.199 0.692 0.141-0.109 0.29-0.31 0.316-0.601 0.016-0.179 0.066-0.945 0.070-1.534-0.19-0.060-0.429-0.371-0.583-0.498z"></path>
<path fill="#fff" d="M13.738 14.43l-0.51-0.734c-0.103 0.362-0.229 2.959-0.081 3.171 0.009 0.278 0.11 0.513 0.231 0.691 0.141-0.109 0.352-0.306 0.291-0.6s0.007-2.225 0.069-2.528z"></path>
<path fill="#fff" d="M12.693 16.063c-0.023 0.402-0.039 0.674-0.034 0.815 0.009 0.278 0.078 0.514 0.199 0.692 0.141-0.109 0.321-0.303 0.302-0.594-0.071-1.124 0.052-2.183 0.195-3.202-0.121-0.089-0.325-0.184-0.446-0.273-0.242 1.371-0.323 2.222-0.216 2.562z"></path>
<path fill="#fff" d="M12.183 16.799l0.138 0.523c0.009 0.278 0.182 0.508 0.302 0.685 0.141-0.11 0.269-0.289 0.233-0.578-0.207-1.661-0.133-2.76 0.216-4.113-0.789 0.538-1.155 1.672-0.89 3.483z"></path>
<path fill="#fff" d="M12.223 17.314l-0.724-0.24c-0.092 0.723 0.050 1.631 0.245 2.828 0.167 1.028 0.079 1.841-0.049 2.363 0.772-0.106 1.099-1.1 0.712-2.97-0.101-0.489-0.203-1.115-0.184-1.981z"></path>
<path fill="#fff" d="M12.195 13.062l0.475 0.080c-0.023 0.102-0.144 0.726-0.166 0.832-0.178 0.868-0.295 1.89-0.16 3.011 0.050 0.416 0.138 0.756 0.268 1.019-0.521-0.059-0.855-0.567-0.812-1.454-0.091-1.035-0.051-1.859 0.117-2.477 0.049-0.182 0.207-0.865 0.278-1.012z"></path>
<path fill="#fff" d="M11.906 13.174l0.233 0.266c-0.066 0.047 0.046 0.251-0.014 0.647-0.039 0.225-0.173 0.49-0.201 0.777-0.092 0.95-0.092 2.141 0.194 2.902-0.521-0.059-0.7-0.531-0.717-1.418-0.014-0.734-0.016-1.599 0.168-2.597 0.037-0.233 0.15-0.42 0.337-0.576z"></path>
<path fill="#fff" d="M13.209 13.874l-0.481-0.056c-0.089 0.454-0.156 0.775-0.173 0.937-0.032 0.317 0.064 0.608 0.174 0.825 0.178-0.107 0.26-0.34 0.335-0.667 0.075-0.329 0.093-0.686 0.145-1.039z"></path>
<path fill="#fff" d="M14.457 14.897l-0.427 0.004c-0.015 0.392-0.025 0.657-0.018 0.795 0.014 0.271 0.081 0.5 0.197 0.672 0.13-0.108 0.252-0.299 0.272-0.582 0.019-0.284-0.021-0.587-0.024-0.889z"></path>
<path fill="#fff" d="M14.917 15.099l-0.427 0.020c-0.001 0.392-0.002 0.657 0.010 0.795 0.023 0.27 0.099 0.497 0.22 0.665 0.126-0.113 0.242-0.307 0.251-0.591 0.009-0.285-0.042-0.586-0.055-0.888z"></path>
<path fill="#fff" d="M14.022 14.676l-0.426-0.030c-0.046 0.389-0.078 0.653-0.083 0.791-0.008 0.271 0.041 0.505 0.142 0.686 0.138-0.097 0.276-0.277 0.318-0.558 0.042-0.282 0.027-0.587 0.048-0.889z"></path>
<path fill="#fff" d="M13.005 13.702l-0.747 0.066c-0.172 0.428-0.284 0.807-0.339 1.151 0.346-0.061 0.597-0.231 0.687-0.541 0.121-0.418 0.335-0.602 0.399-0.676zM13.005 13.702"></path>
<path fill="#edb92e" d="M13.762 24.997c0.285 0.228 0.546-0.294 0.293-0.983-0.187-0.51-1.102-0.312-0.592 0.374 0.024 0.032 0.058 0.017 0.053-0.020-0.029-0.141 0.061-0.222 0.2-0.197 0.379 0.071 0.391 0.789-0.021 0.625-0.075-0.005-0.008 0.14 0.067 0.2z"></path>
<path fill="#edb92e" d="M14.698 24.997c-0.285 0.228-0.546-0.294-0.293-0.983 0.187-0.51 1.102-0.312 0.592 0.374-0.024 0.032-0.058 0.017-0.053-0.020 0.029-0.141-0.061-0.222-0.2-0.197-0.379 0.071-0.391 0.789 0.021 0.625 0.075-0.005 0.008 0.14-0.067 0.2z"></path>
<path fill="#edb92e" d="M14.203 22.781l-0 0.005c-0.037 0.12-0.176 0.269-0.283 0.382-0.167 0.174-0.128 0.438-0.012 0.578 0.126 0.153 0.182 0.325 0.208 0.459 0.019 0.082 0.053 0.267 0.028 0.554-0.012 0.141-0.098 0.214-0.178 0.277-0.041 0.032 0.017 0.109 0.152 0.21 0.015 0.011 0.055 0.039 0.075 0.109 0.007 0.017 0.070 0.017 0.077 0 0.019-0.070 0.060-0.098 0.075-0.109 0.135-0.101 0.193-0.178 0.152-0.21-0.080-0.063-0.166-0.136-0.178-0.277-0.025-0.287 0.009-0.472 0.028-0.554 0.026-0.134 0.082-0.306 0.208-0.459 0.116-0.14 0.155-0.404-0.012-0.578-0.108-0.112-0.246-0.262-0.284-0.382v-0.005c-0.002-0.023-0.015-0.035-0.028-0.035s-0.026 0.012-0.028 0.035z"></path>
<path fill="#edb92e" d="M14.024 24.436h0.412c0.071 0 0.129 0.057 0.129 0.126s-0.058 0.126-0.129 0.126h-0.412c-0.071 0-0.129-0.057-0.129-0.126s0.058-0.126 0.129-0.126z"></path>
<path fill="#edb92e" d="M19.586 24.997c0.285 0.228 0.546-0.294 0.293-0.983-0.187-0.51-1.102-0.312-0.592 0.374 0.024 0.032 0.058 0.017 0.054-0.020-0.029-0.141 0.061-0.222 0.199-0.197 0.379 0.071 0.391 0.789-0.021 0.625-0.075-0.005-0.008 0.14 0.067 0.2z"></path>
<path fill="#edb92e" d="M20.522 24.997c-0.285 0.228-0.546-0.294-0.293-0.983 0.187-0.51 1.102-0.312 0.592 0.374-0.024 0.032-0.058 0.017-0.053-0.020 0.029-0.141-0.061-0.222-0.2-0.197-0.379 0.071-0.391 0.789 0.021 0.625 0.075-0.005 0.008 0.14-0.067 0.2z"></path>
<path fill="#edb92e" d="M20.026 22.781l-0 0.005c-0.037 0.12-0.176 0.269-0.283 0.382-0.167 0.174-0.128 0.438-0.012 0.578 0.126 0.153 0.183 0.325 0.208 0.459 0.019 0.082 0.053 0.267 0.028 0.554-0.012 0.141-0.098 0.214-0.178 0.277-0.041 0.032 0.017 0.109 0.152 0.21 0.015 0.011 0.055 0.039 0.075 0.109 0.007 0.017 0.070 0.017 0.077 0 0.019-0.070 0.060-0.098 0.075-0.109 0.135-0.101 0.193-0.178 0.152-0.21-0.080-0.063-0.166-0.136-0.178-0.277-0.025-0.287 0.009-0.472 0.028-0.554 0.025-0.134 0.082-0.306 0.208-0.459 0.116-0.14 0.155-0.404-0.012-0.578-0.108-0.112-0.246-0.262-0.284-0.382v-0.005c-0.002-0.023-0.015-0.035-0.028-0.035s-0.026 0.012-0.028 0.035z"></path>
<path fill="#edb92e" d="M19.849 24.436h0.412c0.071 0 0.129 0.057 0.129 0.126s-0.058 0.126-0.129 0.126h-0.412c-0.071 0-0.129-0.057-0.129-0.126s0.058-0.126 0.129-0.126z"></path>
<path fill="#fff" d="M19.887 16.698c-0.006 0.31 0.048 2.379 0.066 2.671 0.017 0.291 0.147 0.489 0.284 0.603 0.126-0.173 0.202-0.407 0.219-0.685 0.009-0.141-0.017-2.099-0.028-2.502-0.232-0.613-0.404-0.637-0.542-0.088z"></path>
<path fill="#fff" d="M21.234 16.192l0.088 2.845c0.028 0.252-0.302 1.754-0.481 2.050-0.445-0.19-0.539-1.209-0.456-2.201s-0.014-1.85-0.082-2.028c-0.006-0.225 0.032-0.459 0.034-0.693 0.284 0.017 0.613 0.011 0.897 0.028z"></path>
<path fill="#fff" d="M21.762 16.657l-0.061 2.845c0.015 0.253-0.393 1.735-0.587 2.021-0.452-0.35-0.361-1.78-0.292-2.213 0.138-0.862 0.115-1.862 0.067-2.024 0.006-0.225 0.011-0.493 0.026-0.727 0.282 0.032 0.564 0.065 0.847 0.097z"></path>
<path fill="#fff" d="M22.154 17.331l-0.749-0.019c0.064 0.31 0.013 1.275-0.117 2.009-0.121 0.689-0.29 2.476 0.428 2.905 0.446-0.943 0.106-1.859 0.331-2.678 0.175-0.87 0.21-1.597 0.106-2.217z"></path>
<path fill="#fff" d="M19.291 16.176c0.003 0.31 0.121 2.377 0.147 2.668 0.026 0.29 0.161 0.485 0.303 0.594 0.121-0.177 0.189-0.413 0.199-0.691 0.005-0.142-0.081-2.098-0.104-2.5-0.25-0.606-0.423-0.623-0.544-0.071z"></path>
<path fill="#fff" d="M20.621 14.49c0.020 0.666 0.032 2.113 0.027 2.235-0.010 0.278-0.119 0.632-0.24 0.809-0.141-0.109-0.276-0.303-0.302-0.594-0.021-0.239-0.029-1.411-0.033-1.999 0.151-0.097 0.307-0.218 0.432-0.347 0 0 0.111-0.098 0.116-0.104z"></path>
<path fill="#fff" d="M20.086 14.92c0.013 0.718 0.005 1.849 0.002 1.941-0.009 0.278-0.078 0.514-0.199 0.692-0.141-0.109-0.29-0.31-0.316-0.601-0.016-0.179-0.066-0.945-0.071-1.534 0.19-0.060 0.43-0.371 0.583-0.498z"></path>
<path fill="#fff" d="M20.546 14.43l0.51-0.734c0.103 0.362 0.229 2.959 0.081 3.171-0.009 0.278-0.11 0.513-0.231 0.691-0.141-0.109-0.352-0.306-0.291-0.6s-0.007-2.225-0.069-2.528z"></path>
<path fill="#fff" d="M21.592 16.063c0.023 0.402 0.039 0.674 0.034 0.815-0.009 0.278-0.078 0.514-0.199 0.692-0.141-0.109-0.321-0.303-0.303-0.594 0.071-1.124-0.052-2.183-0.195-3.202 0.121-0.089 0.325-0.184 0.446-0.273 0.242 1.371 0.323 2.222 0.216 2.562z"></path>
<path fill="#fff" d="M22.101 16.799l-0.138 0.523c-0.010 0.278-0.182 0.508-0.302 0.685-0.141-0.11-0.269-0.289-0.233-0.578 0.207-1.661 0.133-2.76-0.216-4.113 0.789 0.538 1.155 1.672 0.89 3.483z"></path>
<path fill="#fff" d="M22.061 17.314l0.724-0.24c0.092 0.723-0.050 1.631-0.244 2.828-0.167 1.028-0.079 1.841 0.049 2.363-0.772-0.106-1.099-1.1-0.712-2.97 0.101-0.489 0.203-1.115 0.183-1.981z"></path>
<path fill="#fff" d="M22.090 13.062l-0.475 0.080c0.024 0.102 0.144 0.726 0.166 0.832 0.178 0.868 0.295 1.89 0.161 3.011-0.050 0.416-0.138 0.756-0.268 1.019 0.521-0.059 0.855-0.567 0.812-1.454 0.090-1.035 0.051-1.859-0.117-2.477-0.049-0.182-0.207-0.865-0.278-1.012z"></path>
<path fill="#fff" d="M22.378 13.174l-0.234 0.266c0.066 0.047-0.046 0.251 0.014 0.647 0.039 0.225 0.173 0.49 0.201 0.777 0.092 0.95 0.092 2.141-0.194 2.902 0.521-0.059 0.7-0.531 0.717-1.418 0.014-0.734 0.016-1.599-0.168-2.597-0.037-0.233-0.15-0.42-0.337-0.576z"></path>
<path fill="#fff" d="M21.076 13.874l0.481-0.056c0.089 0.454 0.156 0.775 0.172 0.937 0.032 0.317-0.064 0.608-0.174 0.825-0.178-0.107-0.26-0.34-0.334-0.667-0.075-0.329-0.093-0.686-0.145-1.039z"></path>
<path fill="#fff" d="M19.827 14.896l0.427 0.004c0.015 0.392 0.025 0.657 0.018 0.795-0.014 0.271-0.081 0.5-0.197 0.672-0.13-0.108-0.252-0.299-0.272-0.582-0.019-0.284 0.021-0.587 0.024-0.889z"></path>
<path fill="#fff" d="M19.368 15.099l0.427 0.019c0.001 0.392 0.002 0.657-0.010 0.795-0.023 0.27-0.099 0.497-0.22 0.664-0.126-0.112-0.242-0.307-0.251-0.591-0.009-0.285 0.042-0.586 0.055-0.888z"></path>
<path fill="#fff" d="M20.262 14.676l0.426-0.030c0.046 0.39 0.078 0.653 0.083 0.791 0.008 0.271-0.041 0.505-0.142 0.686-0.138-0.097-0.276-0.277-0.318-0.558-0.043-0.282-0.027-0.587-0.049-0.889z"></path>
<path fill="#fff" d="M21.279 13.702l0.746 0.066c0.172 0.428 0.285 0.807 0.339 1.15-0.346-0.061-0.597-0.231-0.687-0.541-0.122-0.418-0.335-0.602-0.398-0.676zM21.279 13.702"></path>
<path fill="#fff" d="M19.084 14.764c0.057-0.012 0.115-0.028 0.174-0.049-0.273-0.171-0.5-0.378-0.769-0.791-0.276-0.423 0.121-1.178 0.284-1.578 0.34-0.251 0.661-0.621 0.762-1.108 0.040-0.262-0.684-0.167-1.182 0.067-0.609 0.287-0.691 0.208-0.908 0.256-0.077 0.373 0.084 0.404 0.24 0.386-0.335 0.537-0.475 1.072-0.542 1.841-0.067-0.769-0.207-1.304-0.542-1.841 0.155 0.018 0.317-0.013 0.24-0.386-0.217-0.048-0.3 0.031-0.909-0.256-0.498-0.235-1.222-0.33-1.181-0.067 0.102 0.487 0.422 0.857 0.762 1.108 0.163 0.4 0.56 1.156 0.284 1.578-0.27 0.413-0.496 0.62-0.769 0.791 0.059 0.021 0.117 0.037 0.174 0.049-0.041 0.056-0.396 0.167-0.437 0.137-0.271-0.192-0.535-0.642-0.766-0.903-0.653-0.74-0.979-1.312-0.864-1.773 0.164-0.496 0.749-1.054-0.026-0.957s-1.418 1.159-1.624 2.438c-0.077 0.474-0.121 0.871-0.173 1.197 0.423-0.151 0.611-0.301 0.723-0.487-0.050 0.177-0.088 0.344-0.114 0.504 0.346-0.061 0.597-0.231 0.687-0.541 0.036-0.125 0.081-0.23 0.127-0.316 0.107 0.038 0.245 0.035 0.412-0.005 0.064 0.152 0.541 0.683 0.797 1.073 0.289 0.44 0.724 0.777 0.867 0.795 0.072 0.009 0.094-0.15 0.078-0.369 0.756 0.005 1.512 0.010 2.253-0.015 0.741 0.025 1.497 0.021 2.253 0.015-0.016 0.219 0.006 0.378 0.078 0.369 0.143-0.019 0.578-0.355 0.867-0.795 0.256-0.39 0.733-0.921 0.797-1.073 0.168 0.041 0.306 0.043 0.412 0.005 0.047 0.087 0.091 0.191 0.128 0.316 0.090 0.31 0.341 0.48 0.687 0.541-0.026-0.16-0.063-0.327-0.114-0.504 0.113 0.186 0.3 0.336 0.723 0.487-0.052-0.325-0.096-0.722-0.173-1.197-0.206-1.279-0.849-2.341-1.625-2.438s-0.19 0.461-0.026 0.957c0.115 0.461-0.211 1.032-0.864 1.773-0.231 0.261-0.495 0.711-0.766 0.903-0.041 0.029-0.396-0.081-0.437-0.137z"></path>
<path fill="#edb92e" d="M18.631 12.687c0.073 0.064 0.313 0.065 0.643 0.086 0.531 0.018 0.838-0.142 0.906-0.481-0.199 0.237-0.436 0.354-0.706 0.288-0.364-0.090-0.572-0.155-0.655-0.139-0.056 0.020-0.137 0.121-0.187 0.246z"></path>
<path fill="#edb92e" d="M19.872 11.293c0.595 0.064 0.566 0.453 0.010 1.002-0.106 0.105-0.143 0.102-0.166-0.007-0.040-0.191-0.251-0.304-0.363-0.158-0.076 0.099-0.059 0.156-0.311 0.12-0.318 0.267-0.577 0.454-0.161 0.439 0.183-0.007 0.324 0.1 0.563 0.090-0.071 0.137-0.083 0.153-0.122 0.164-0.231 0.046-0.475-0.099-0.708-0.056-0.512 0.094 0.819-1.381 0.803-1.439-0.042-0.148 0.32-0.414 0.454-0.155z"></path>
<path fill="#21231e" d="M15.26 11.763l-0.078-0.078c-0.038-0.048-0.016-0.113 0.066-0.193 0.060 0.026 0.108 0.046 0.157 0.066-0.032 0.109-0.080 0.177-0.145 0.205z"></path>
<path fill="#21231e" d="M19.024 11.763l0.078-0.078c0.038-0.048 0.016-0.113-0.066-0.193-0.061 0.026-0.109 0.046-0.157 0.066 0.032 0.109 0.080 0.177 0.145 0.205z"></path>
<path fill="#edb92e" d="M14.413 11.293c-0.595 0.064-0.567 0.453-0.010 1.002 0.106 0.105 0.143 0.102 0.166-0.007 0.040-0.191 0.251-0.304 0.363-0.158 0.076 0.099 0.059 0.156 0.311 0.12 0.318 0.267 0.578 0.454 0.161 0.439-0.183-0.007-0.325 0.1-0.563 0.090 0.071 0.137 0.083 0.153 0.121 0.164 0.231 0.046 0.475-0.099 0.709-0.056 0.512 0.094-0.82-1.381-0.803-1.439 0.042-0.148-0.32-0.414-0.453-0.155z"></path>
<path fill="#21231e" d="M14.3 11.566c0.004-0.027 0.029-0.046 0.057-0.043s0.047 0.027 0.043 0.054c-0.004 0.027-0.029 0.046-0.056 0.043s-0.047-0.027-0.043-0.054z"></path>
<path fill="#fff" d="M14.814 20.637l0.014-0.39c-0.157-0.079-0.543 0.002-0.707 0.362-0.204 0.449-0.396 0.688-0.64 0.899 0.354 0.066 0.653-0.004 0.847-0.263 0.261-0.349 0.4-0.561 0.486-0.608z"></path>
<path fill="#fff" d="M15.101 20.689l-0.422-0.178c-0.173 0.352-0.291 0.59-0.34 0.719-0.096 0.253-0.122 0.492-0.078 0.699 0.171-0.044 0.369-0.166 0.503-0.417 0.134-0.252 0.217-0.546 0.337-0.824z"></path>
<path fill="#fff" d="M15.223 20.688l-0.453-0.069c-0.082 0.384-0.138 0.643-0.154 0.781-0.031 0.269 0.001 0.507 0.095 0.696 0.156-0.084 0.318-0.251 0.386-0.527 0.069-0.277 0.077-0.583 0.125-0.881z"></path>
<path fill="#fff" d="M15.29 20.073l0.27-0.002c0.158 0.078 0.323 0.437 0.132 0.783-0.238 0.431-0.315 0.729-0.338 1.050-0.264-0.244-0.387-0.526-0.295-0.836 0.124-0.418 0.245-0.898 0.231-0.995z"></path>
<path fill="#fff" d="M15.411 19.885l-0.431-0.153c-0.152 0.362-0.256 0.606-0.298 0.738-0.082 0.259-0.094 0.498-0.038 0.701 0.169-0.053 0.382-0.163 0.501-0.422s0.162-0.581 0.266-0.865z"></path>
<path fill="#fff" d="M15.118 19.584l-0.094-0.586c-0.099-0.027-0.231 0.205-0.36 0.34-0.030 0.031-0.064 0.061-0.090 0.099-0.054 0.080-0.098 0.176-0.122 0.284-0.108 0.481-0.265 0.731-0.461 0.987 0.36-0.007 0.639-0.137 0.775-0.43 0.184-0.395 0.277-0.631 0.352-0.694z"></path>
<path fill="#edb92e" d="M19.649 20.828c0.115 0.005 0.255 0.070 0.666 0.427 0.18 0.366 0.36 0.734 0.61 1.051 0.085 0.056 0.152 0.095 0.219 0.118 0.070 0.023 0.588 0.006 0.601-0.016 0.161-0.146 0.408-0.042 0.326 0.112 0.064 0.061-0.077 0.282-0.19 0.19-0.104-0.084-0.465-0.005-0.585-0.048 0.046 0.108 0.372 0.179 0.6 0.195 0.209 0.009 0.195 0.217 0.109 0.376-0.098 0.062-0.017-0.016-0.053 0.029-0.093 0.138-0.293 0.12-0.3-0.015-0.007-0.14-0.494-0.322-0.567-0.429 0.089 0.212 0.295 0.411 0.397 0.619 0.11 0.11 0.176 0.132 0.034 0.354-0.157-0.018-0.167-0.060-0.263 0.032-0.215-0.024-0.25-0.087-0.215-0.258 0.037-0.18-0.114-0.505-0.164-0.597-0.046-0.085-0.058-0.173-0.102-0.226-0.078-0.092-0.45-0.277-0.545-0.226-0.175 0.093-0.309 0.037-0.331-0.133 0.057-0.044 0.014-0.285 0.135-0.295 0.099-0.008 0.158 0.022 0.249 0.097 0.144 0.117 0.217 0.18 0.265 0.166 0.112-0.031-0.203-0.185-0.489-0.56-0.397-0.52-0.424-0.784-0.405-0.962z"></path>
<path fill="#edb92e" d="M22.047 22.616c0.144-0.084 0.226-0.081 0.282-0.018 0.031 0.034 0.070 0.017 0.047-0.037-0.095-0.226-0.248-0.254-0.385-0.148-0.038 0.035-0.069 0.066-0.1 0.096 0.023 0.034 0.137 0.082 0.155 0.108z"></path>
<path fill="#edb92e" d="M19.989 22.413c-0.152-0.103-0.295-0.124-0.374-0.065-0.043 0.032-0.086 0.009-0.048-0.044 0.158-0.222 0.343-0.234 0.483-0.108 0.038 0.041 0.068 0.076 0.098 0.111-0.048 0.053-0.154 0.112-0.16 0.107z"></path>
<path fill="#edb92e" d="M21.191 23.688c0.093 0.185 0.143 0.311 0.102 0.411-0.024 0.058 0.003 0.111 0.062 0.061 0.238-0.204 0.239-0.439 0.087-0.598-0.051-0.053-0.105-0.087-0.154-0.126-0.062 0.058-0.102 0.243-0.097 0.252z"></path>
<path fill="#edb92e" d="M21.786 23.201c0.142 0.059 0.19 0.133 0.185 0.231-0.003 0.054 0.033 0.074 0.053 0.011 0.173-0.402-0.006-0.477-0.266-0.462-0.015 0.070 0.022 0.217 0.028 0.22z"></path>
<path fill="#fff" d="M19.47 20.637l-0.014-0.39c0.157-0.079 0.544 0.002 0.707 0.362 0.203 0.449 0.396 0.688 0.64 0.899-0.354 0.066-0.653-0.004-0.847-0.263-0.261-0.349-0.4-0.561-0.486-0.608z"></path>
<path fill="#fff" d="M19.183 20.688l0.422-0.178c0.173 0.352 0.291 0.59 0.34 0.719 0.096 0.253 0.122 0.492 0.078 0.699-0.171-0.044-0.369-0.166-0.503-0.417-0.134-0.252-0.217-0.546-0.337-0.824z"></path>
<path fill="#fff" d="M19.061 20.688l0.453-0.069c0.082 0.384 0.138 0.643 0.154 0.781 0.032 0.269-0.001 0.507-0.095 0.696-0.156-0.084-0.318-0.251-0.386-0.527-0.069-0.277-0.077-0.582-0.125-0.881z"></path>
<path fill="#fff" d="M18.994 20.073l-0.27-0.002c-0.157 0.078-0.323 0.437-0.132 0.783 0.238 0.431 0.315 0.729 0.338 1.050 0.264-0.244 0.387-0.526 0.295-0.836-0.124-0.418-0.245-0.898-0.231-0.995z"></path>
<path fill="#fff" d="M18.874 19.885l0.431-0.153c0.153 0.361 0.257 0.606 0.298 0.738 0.082 0.259 0.094 0.498 0.038 0.701-0.169-0.053-0.382-0.163-0.501-0.422-0.12-0.259-0.162-0.581-0.266-0.865z"></path>
<path fill="#fff" d="M19.167 19.584l0.094-0.586c0.099-0.027 0.231 0.205 0.36 0.34 0.030 0.031 0.064 0.061 0.090 0.099 0.054 0.080 0.098 0.176 0.122 0.284 0.108 0.481 0.265 0.731 0.461 0.987-0.36-0.007-0.639-0.137-0.775-0.43-0.184-0.395-0.277-0.631-0.352-0.694z"></path>
<path fill="#c6363c" d="M19.542 15.020v3.88c0 0.694-0.27 1.324-0.704 1.78s-1.035 0.739-1.696 0.739h-0c-0.661 0-1.261-0.283-1.695-0.739s-0.704-1.087-0.704-1.78v-3.88z"></path>
<path fill="#fff" d="M19.542 17.4v1h-1.9v2.965c-0.161 0.036-0.329 0.055-0.5 0.055h-0c-0.171 0-0.338-0.019-0.5-0.055v-2.965h-1.9v-1h1.9v-2.38h1v2.38z"></path>
<path fill="#fff" d="M16.318 15.587v1.406c-0.306 0.082-1.053 0.38-1.092-0.272-0.018-0.301 0.374-0.5 0.48-0.234 0.050 0.126-0.004 0.215-0.078 0.244-0.080 0.031-0.158-0.033-0.138-0.129-0.317 0.166 0.284 0.518 0.555 0.060 0.079-0.134-0.133-0.273-0.133-0.371s0.209-0.247 0.133-0.371c-0.274-0.456-0.872-0.106-0.555 0.059-0.021-0.096 0.058-0.16 0.138-0.129 0.074 0.029 0.128 0.118 0.078 0.244-0.106 0.266-0.497 0.067-0.48-0.234 0.039-0.651 0.785-0.354 1.092-0.272z"></path>
<path fill="#fff" d="M17.967 15.587v1.406c0.306 0.082 1.053 0.38 1.092-0.272 0.018-0.301-0.374-0.5-0.479-0.234-0.050 0.126 0.004 0.215 0.078 0.244 0.080 0.031 0.159-0.033 0.138-0.129 0.317 0.166-0.283 0.518-0.555 0.060-0.079-0.134 0.133-0.273 0.134-0.371s-0.209-0.247-0.134-0.371c0.274-0.456 0.872-0.106 0.555 0.059 0.021-0.096-0.058-0.16-0.138-0.129-0.074 0.029-0.128 0.118-0.078 0.244 0.105 0.266 0.497 0.067 0.479-0.234-0.039-0.651-0.785-0.354-1.092-0.272z"></path>
<path fill="#fff" d="M16.318 20.213v-1.406c-0.306-0.082-1.053-0.379-1.092 0.272-0.018 0.301 0.374 0.5 0.48 0.234 0.050-0.126-0.004-0.215-0.078-0.244-0.080-0.031-0.158 0.033-0.138 0.129-0.317-0.166 0.284-0.518 0.555-0.060 0.079 0.133-0.133 0.273-0.133 0.371s0.209 0.247 0.133 0.371c-0.274 0.456-0.872 0.106-0.555-0.059-0.021 0.096 0.058 0.16 0.138 0.129 0.074-0.029 0.128-0.118 0.078-0.244-0.106-0.266-0.497-0.067-0.48 0.234 0.039 0.652 0.785 0.355 1.092 0.272z"></path>
<path fill="#fff" d="M17.967 20.213v-1.406c0.306-0.082 1.053-0.379 1.092 0.272 0.018 0.301-0.374 0.5-0.479 0.234-0.050-0.126 0.004-0.215 0.078-0.244 0.080-0.031 0.159 0.033 0.138 0.129 0.317-0.166-0.283-0.518-0.555-0.060-0.079 0.133 0.133 0.273 0.134 0.371s-0.209 0.247-0.134 0.371c0.274 0.456 0.872 0.106 0.555-0.059 0.021 0.096-0.058 0.16-0.138 0.129-0.074-0.029-0.128-0.118-0.078-0.244 0.105-0.266 0.497-0.067 0.479 0.234-0.039 0.652-0.785 0.355-1.092 0.272z"></path>
</svg>
