<!-- Generated by IcoMoon.io -->
<svg version="1.1" xmlns="http://www.w3.org/2000/svg" width="43" height="32" viewBox="0 0 43 32">
<title>RWF</title>
<path fill="#20603d" d="M0 0h42.667v32h-42.667z"></path>
<path fill="#fad201" d="M0 0h42.667v24h-42.667z"></path>
<path fill="#00a1de" d="M0 0h42.667v16h-42.667z"></path>
<path fill="#e5be01" d="M39.227 8.36l-3.574 0.209 3.398 1.127-3.506-0.723 2.99 1.968-3.199-1.606 2.379 2.675-2.675-2.379 1.606 3.199-1.968-2.991 0.723 3.506-1.127-3.398-0.209 3.574-0.044-5.204z"></path>
<path fill="#e5be01" d="M39.227 8.36l-3.574-0.209 3.398-1.127-3.506 0.723 2.99-1.968-3.199 1.606 2.379-2.675-2.675 2.379 1.606-3.199-1.968 2.991 0.723-3.506-1.127 3.398-0.209-3.574-0.044 5.204z"></path>
<path fill="#e5be01" d="M28.907 8.36l3.574 0.209-3.398 1.127 3.506-0.723-2.991 1.968 3.199-1.606-2.379 2.675 2.675-2.379-1.606 3.199 1.968-2.991-0.723 3.506 1.127-3.398 0.209 3.574 0.044-5.204z"></path>
<path fill="#e5be01" d="M28.907 8.36l3.574-0.209-3.398-1.127 3.506 0.723-2.991-1.968 3.199 1.606-2.379-2.675 2.675 2.379-1.606-3.199 1.968 2.991-0.723-3.506 1.127 3.398 0.209-3.574 0.044 5.204z"></path>
<path fill="#e5be01" d="M35.591 8.36c0 0.842-0.683 1.524-1.524 1.524s-1.524-0.683-1.524-1.524c0-0.842 0.683-1.524 1.524-1.524s1.524 0.683 1.524 1.524z"></path>
</svg>
