<!-- Generated by IcoMoon.io -->
<svg version="1.1" xmlns="http://www.w3.org/2000/svg" width="43" height="32" viewBox="0 0 43 32">
<title>SAR</title>
<path fill="#199d00" d="M-2.667 0h48v32h-48z"></path>
<path fill="#fff" d="M9.43 9.071c-0.055 0.748-0.122 2.063 0.513 2.198 0.768 0.074 0.345-1.3 0.623-1.55 0.053-0.123 0.149-0.124 0.158 0.032v1.166c-0.007 0.379 0.242 0.491 0.436 0.569 0.201-0.016 0.336-0.009 0.415 0.187l0.095 2.016s0.467 0.134 0.489-1.134c0.022-0.744-0.149-1.367-0.048-1.512 0.004-0.142 0.185-0.151 0.311-0.081 0.201 0.142 0.29 0.317 0.602 0.247 0.475-0.131 0.76-0.362 0.767-0.726-0.028-0.347-0.067-0.693-0.217-1.040 0.021-0.063-0.092-0.226-0.071-0.289 0.085 0.134 0.215 0.123 0.245 0-0.081-0.266-0.206-0.521-0.41-0.632-0.168-0.148-0.414-0.118-0.504 0.191-0.042 0.356 0.128 0.778 0.387 1.123 0.055 0.135 0.132 0.358 0.098 0.56-0.138 0.079-0.276 0.046-0.391-0.076 0 0-0.378-0.284-0.378-0.347 0.1-0.642 0.022-0.715-0.033-0.893-0.039-0.246-0.156-0.325-0.25-0.493-0.095-0.1-0.223-0.1-0.284 0-0.167 0.29-0.089 0.911 0.031 1.19 0.087 0.256 0.22 0.417 0.158 0.417-0.052 0.145-0.159 0.111-0.237-0.056-0.111-0.345-0.134-0.861-0.134-1.092-0.033-0.288-0.070-0.901-0.259-1.057-0.116-0.157-0.287-0.081-0.347 0.063-0.012 0.286-0.014 0.571 0.018 0.834 0.13 0.461 0.171 0.867 0.234 1.34 0.018 0.633-0.366 0.275-0.348-0.039 0.088-0.408 0.066-1.049-0.013-1.212-0.062-0.163-0.136-0.203-0.287-0.176-0.12-0.007-0.43 0.331-0.517 0.891 0 0-0.074 0.289-0.106 0.545-0.043 0.29-0.233 0.494-0.367-0.041-0.116-0.389-0.187-1.345-0.38-1.121z"></path>
<path fill="#fff" d="M11.517 12.138c-0.678 0.331-1.334 0.641-2.001 0.961 0.024-0.454 0.951-1.272 1.583-1.284 0.411 0.011 0.308 0.159 0.417 0.323z"></path>
<path fill="#fff" d="M11.168 12.765c-1.054 2.718 2.469 3.097 2.863 0.111 0.037-0.123 0.186-0.245 0.212-0.045-0.082 2.703-2.725 2.889-3.175 2.038-0.111-0.2-0.145-0.646-0.156-0.913-0.067-0.531-0.345-0.327-0.39 0.2-0.045 0.293-0.033 0.375-0.033 0.657 0.141 2.135 3.546 1.218 4.099-0.546 0.293-0.977-0.048-1.697 0.111-1.693 0.338 0.364 0.809 0.048 0.913-0.078 0.045-0.063 0.156-0.104 0.234-0.022 0.264 0.19 0.728 0.1 0.824-0.234 0.056-0.327 0.1-0.665 0.111-1.014-0.215 0.067-0.375 0.111-0.39 0.2l-0.045 0.29c-0.018 0.093-0.204 0.097-0.212-0.022-0.082-0.371-0.42-0.42-0.624 0.156-0.137 0.111-0.386 0.134-0.412-0.033 0.033-0.386-0.123-0.438-0.434-0.256-0.1-0.765-0.2-1.496-0.301-2.261 0.13-0.004 0.249 0.093 0.368-0.056-0.13-0.405-0.405-1.233-0.557-1.292-0.074-0.089-0.137-0.033-0.234-0.011-0.163 0.052-0.316 0.193-0.267 0.468 0.193 1.173 0.319 2.068 0.512 3.241 0.030 0.137-0.085 0.319-0.234 0.301-0.252-0.171-0.315-0.516-0.746-0.501-0.312 0.004-0.668 0.342-0.713 0.668-0.052 0.26-0.071 0.542-0 0.768 0.219 0.264 0.483 0.238 0.713 0.178 0.189-0.078 0.345-0.267 0.412-0.223 0.045 0.056 0.011 0.679-0.891 1.158-0.546 0.245-0.98 0.301-1.214-0.145-0.145-0.278 0.011-1.337-0.345-1.092z"></path>
<path fill="#fff" d="M15.64 10.002c0.212-0.078 1.214-1.225 1.214-1.225-0.052-0.045-0.099-0.078-0.151-0.123-0.056-0.048-0.050-0.097 0-0.145 0.249-0.145 0.169-0.462 0.039-0.607-0.215-0.097-0.403-0.065-0.54 0.005-0.174 0.167-0.215 0.434-0.078 0.602 0.134 0.063 0.267 0.199 0.178 0.273-0.41 0.438-1.533 1.194-1.403 1.22 0.028 0.037 0.718 0.035 0.741 0zM9.586 14.063c-0.376 0.599-0.409 1.494-0.201 1.761 0.11 0.126 0.291 0.181 0.425 0.142 0.236-0.102 0.34-0.581 0.284-0.756-0.079-0.123-0.141-0.143-0.22-0.038-0.166 0.338-0.235 0.106-0.25-0.083-0.025-0.358 0.008-0.687 0.047-0.948 0.041-0.267-0.001-0.186-0.085-0.078zM25.653 13.103c-0.364-0.783-0.867-1.556-1.027-1.853s-1.369-2.052-1.547-2.249c-0.393-0.467 0.638 0.194-0.13-0.732-0.293-0.251-0.31-0.267-0.553-0.472-0.123-0.087-0.422-0.246-0.475 0.018-0.027 0.232-0.012 0.358 0.027 0.552 0.030 0.129 0.218 0.345 0.31 0.47 1.227 1.649 2.314 3.314 3.363 5.407 0.166-0.079 0.129-1.010 0.032-1.141z"></path>
<path fill="#fff" d="M24.058 15.721c-0.072 0.080 0.177 0.423 0.499 0.423 0.539-0.063 1.013-0.365 1.453-1.162 0.117-0.186 0.324-0.583 0.33-0.892 0.041-1.808-0.090-3.215-0.361-4.521-0.017-0.127-0.007-0.277 0.015-0.315 0.035-0.042 0.153 0 0.216-0.103 0.092-0.094-0.245-0.873-0.437-1.173-0.068-0.134-0.092-0.223-0.205 0.016-0.119 0.194-0.198 0.534-0.189 0.851 0.257 1.78 0.336 3.337 0.504 5.118 0.014 0.172-0.012 0.422-0.126 0.522-0.423 0.442-1.034 0.986-1.699 1.237zM31.338 15.712c-0.387 0.224-0.387 0.481-0.075 0.49 0.539-0.063 1.176-0.107 1.615-0.771 0.118-0.186 0.257-0.688 0.263-0.997 0.041-1.808-0.024-3.157-0.294-4.464-0.017-0.127-0.074-0.42-0.052-0.458 0.035-0.089 0.211 0.010 0.273-0.093 0.092-0.094-0.455-0.797-0.647-1.097-0.068-0.134-0.092-0.223-0.205 0.016-0.119 0.194-0.16 0.543-0.113 0.851 0.286 1.933 0.499 3.385 0.542 5.098-0.025 0.163-0.031 0.25-0.107 0.455-0.169 0.216-0.356 0.487-0.531 0.617s-0.549 0.255-0.671 0.352z"></path>
<path fill="#fff" d="M31.628 13.979c-0.004-0.452 0.006-0.842-0.009-1.18s-0.074-0.612-0.191-0.851c-0.11-0.257-0.042-0.463-0.094-0.736s-0.039-0.682-0.117-1.007c-0.021-0.127-0.087-0.532-0.067-0.571 0.032-0.091 0.154 0.003 0.213-0.102 0.089-0.097-0.309-1.126-0.51-1.419-0.073-0.132-0.204-0.087-0.366 0.127-0.151 0.141-0.095 0.462-0.037 0.768 0.387 2.018 0.675 3.845 0.612 5.766-0.019 0.163 0.57-0.487 0.566-0.796zM28.771 11.476c-0.243-0.004-0.753-0.473-0.901-0.748-0.056-0.158-0.020-0.311 0.029-0.401 0.090-0.059 0.229-0.124 0.332-0.061 0 0 0.107 0.15 0.087 0.169 0.133 0.064 0.189 0.027 0.203-0.027 0.009-0.095-0.039-0.151-0.040-0.255 0.056-0.283 0.379-0.326 0.501-0.146 0.089 0.11 0.122 0.343 0.135 0.501-0.001 0.081-0.132-0.014-0.206 0.005s-0.092 0.105-0.098 0.182c-0.013 0.205-0.038 0.534-0.042 0.781zM24.281 14.48c0.067-0.614-0.025-1.708-0.031-2.071-0.025-0.856-0.164-2.51-0.231-2.786-0.075-0.521 0.214 0.057 0.174-0.246-0.094-0.52-0.382-0.873-0.721-1.349-0.109-0.155-0.106-0.187-0.274 0.038-0.187 0.424-0.026 0.715 0.023 1.045 0.245 1.075 0.387 2.065 0.454 3.043s0.087 2.036 0.026 3.066c0.183 0.007 0.478-0.296 0.581-0.741z"></path>
<path fill="#fff" d="M32.456 13.496c-0.429-0.72-1.076-1.499-1.249-1.789s-1.635-2.177-1.822-2.366c-0.535-0.562 0.245-0.091-0.102-0.526-0.294-0.323-0.38-0.424-0.632-0.619-0.126-0.082-0.203-0.237-0.244 0.028-0.017 0.233-0.034 0.503-0.018 0.7-0.001 0.109 0.113 0.315 0.211 0.436 1.297 1.594 2.712 3.221 3.851 5.267 0.162-0.086 0.108-1.004 0.006-1.131z"></path>
<path fill="#1ba400" d="M12.995 12.168c-0.031 0.054-0.1 0.124-0.077 0.197 0.048 0.065 0.087 0.079 0.167 0.082 0.070 0 0.167 0.016 0.188-0.025 0.037-0.041 0.066-0.126 0.035-0.205-0.072-0.181-0.275-0.114-0.313-0.049z"></path>
<path fill="#fff" d="M27.469 22.659c0.574 0.021 0.949 0.026 1.459 0.087 0 0 0.44-0.043 0.597-0.067 0.664-0.063 0.694 0.948 0.694 0.948-0.007 0.593-0.236 0.625-0.529 0.687-0.167 0.021-0.255-0.1-0.343-0.229-0.11 0.046-0.26 0.053-0.442 0.028-0.239-0.015-0.478-0.014-0.717-0.029-0.254-0.022-0.389 0.026-0.643 0.004-0.052 0.082-0.12 0.196-0.276 0.159-0.129-0.014-0.282-0.377-0.237-0.653 0.093-0.198 0.068-0.134 0.058-0.221-2.345-0.060-4.713-0.164-7.014-0.134-1.8 0.007-3.578 0.082-5.355 0.157-0.949-0.015-1.673-0.164-2.174-0.896 0.045 0 2.42 0.134 3.115 0.090 1.285-0.015 2.457-0.119 3.764-0.157 2.577 0.045 5.131 0.045 7.708 0.224-0.247-0.169-0.255-0.567 0.124-0.664 0.032-0.022 0.049 0.198 0.106 0.194 0.304-0.023 0.17 0.388 0.104 0.473zM17.123 8.455c-0.39 1.116 0.224 2.337 0.65 2.218 0.307 0.127 0.503-0.457 0.629-1.098 0.086-0.18 0.151-0.199 0.195-0.107-0.011 0.852 0.061 1.040 0.28 1.299 0.488 0.377 0.892 0.048 0.924 0.016l0.38-0.38c0.085-0.089 0.197-0.094 0.317-0.016 0.116 0.106 0.1 0.288 0.349 0.415 0.209 0.084 0.657 0.019 0.761-0.161 0.14-0.239 0.173-0.321 0.238-0.412 0.1-0.133 0.269-0.074 0.269-0.032-0.016 0.074-0.116 0.148-0.047 0.281 0.118 0.089 0.146 0.032 0.216 0.012 0.248-0.118 0.434-0.657 0.434-0.657 0.011-0.2-0.101-0.184-0.174-0.143-0.095 0.058-0.101 0.077-0.196 0.135-0.121 0.018-0.356 0.098-0.472-0.082-0.119-0.216-0.12-0.518-0.211-0.736 0-0.016-0.157-0.344-0.011-0.365 0.074 0.014 0.232 0.056 0.257-0.077 0.078-0.13-0.166-0.496-0.333-0.681-0.145-0.159-0.345-0.178-0.539-0.016-0.136 0.125-0.116 0.264-0.143 0.396-0.035 0.152-0.027 0.338 0.127 0.539 0.135 0.267 0.382 0.61 0.301 1.093 0 0-0.144 0.228-0.395 0.198-0.105-0.023-0.274-0.067-0.365-0.737-0.069-0.507 0.016-1.216-0.199-1.549-0.078-0.201-0.134-0.395-0.324-0.051-0.051 0.135-0.269 0.34-0.111 0.761 0.13 0.267 0.182 0.701 0.124 1.185-0.090 0.137-0.11 0.184-0.227 0.321-0.165 0.178-0.345 0.132-0.482 0.066-0.128-0.087-0.229-0.131-0.288-0.406 0.011-0.438 0.035-1.156-0.045-1.308-0.118-0.236-0.313-0.15-0.396-0.079-0.4 0.366-0.597 0.982-0.718 1.474-0.111 0.358-0.229 0.255-0.312 0.111-0.202-0.189-0.216-1.669-0.459-1.426z"></path>
<path fill="#fff" d="M18.299 10.881c0.177-0.126 0.094-0.213 0.36 0.052 0.332 0.568 0.545 1.303 0.577 1.954-0.014 0.161 0.099 0.262 0.151 0.227 0.031-0.377 0.947-0.902 1.787-0.979 0.128-0.028 0.066-0.274 0.087-0.4-0.050-0.466 0.262-0.891 0.7-0.925 0.596 0.088 0.795 0.406 0.805 0.892-0.064 0.933-1.036 1.091-1.582 1.165-0.084 0.032-0.119 0.070 0 0.116l2.287 0.010 0.117 0.067c0.014 0.055-0.033 0.009-0.124 0.158s-0.223 0.492-0.23 0.72c-0.681 0.219-1.386 0.315-2.103 0.402-0.249 0.126-0.372 0.294-0.321 0.482 0.084 0.209 0.635 0.418 0.635 0.428 0.105 0.066 0.229 0.219-0.030 0.533-1.116-0.049-1.98-0.524-2.279-1.194-0.090-0.070-0.187-0-0.25 0.090-0.436 0.562-0.864 1.067-1.607 1.336-0.443 0.111-0.896-0.068-1.11-0.358-0.143-0.165-0.138-0.347-0.191-0.387-0.239 0.106-2.299 0.981-2.038 0.573 0.501-0.537 1.369-0.931 2.136-1.46 0.055-0.177 0.156-0.778 0.459-0.973 0.017 0.001-0.048 0.352-0.041 0.501 0.003 0.121-0.009 0.169 0.018 0.138 0.052-0.033 0.982-0.764 1.054-0.988 0.091-0.129 0.027-0.454 0.027-0.464-0.174-0.45-0.419-0.488-0.51-0.711-0.082-0.297-0.045-0.635 0.125-0.73 0.151-0.137 0.329-0.12 0.493 0.030 0.188 0.168 0.355 0.497 0.403 0.742-0.032 0.097-0.246-0.064-0.32-0.016 0.131 0.136 0.192 0.292 0.24 0.484 0.121 0.513 0.084 0.713-0.038 1.044-0.413 0.868-0.941 1.127-1.402 1.449-0.012 0.004-0.020 0.22 0.153 0.337 0.060 0.063 0.301 0.095 0.584 0.004 0.547-0.298 1.115-0.848 1.397-1.46 0.082-0.463-0.032-0.954-0.152-1.383-0.181-0.419-0.395-1.016-0.395-1.026-0.007-0.261 0.014-0.352 0.129-0.482zM12.311 8.467c0.263 0.126 0.758 0.072 0.737-0.352 0-0.037-0.010-0.165-0.013-0.199-0.054-0.125-0.2-0.094-0.234 0.035-0.010 0.042 0.019 0.111-0.020 0.133-0.022 0.022-0.106 0.009-0.103-0.108 0-0.037-0.027-0.077-0.044-0.101-0.017-0.011-0.027-0.014-0.057-0.014-0.037 0.001-0.036 0.011-0.056 0.042-0.009 0.031-0.020 0.062-0.020 0.098-0.005 0.042-0.020 0.057-0.051 0.063-0.034 0-0.027 0.004-0.054-0.014-0.017-0.018-0.037-0.025-0.037-0.056 0-0.032-0.007-0.084-0.017-0.105-0.015-0.019-0.038-0.028-0.064-0.035-0.144 0-0.154 0.164-0.145 0.227-0.011 0.012-0.017 0.306 0.179 0.387z"></path>
<path fill="#fff" d="M20.028 11.733c0.263 0.126 0.89 0.053 0.737-0.352 0-0.037-0.010-0.165-0.013-0.199-0.054-0.125-0.2-0.094-0.234 0.035-0.010 0.042 0.019 0.111-0.020 0.133-0.022 0.022-0.106 0.009-0.103-0.108 0-0.037-0.027-0.078-0.044-0.101-0.017-0.011-0.027-0.014-0.057-0.014-0.037 0.001-0.036 0.011-0.056 0.042-0.009 0.031-0.020 0.062-0.020 0.098-0.005 0.042-0.020 0.057-0.051 0.063-0.034 0-0.027 0.004-0.054-0.014-0.017-0.018-0.037-0.025-0.037-0.056 0-0.032-0.007-0.084-0.017-0.105-0.015-0.019-0.038-0.028-0.064-0.035-0.144 0.001-0.154 0.165-0.145 0.227-0.011 0.012-0.017 0.306 0.179 0.387zM24.528 10.381c0.263 0.126 0.758 0.072 0.737-0.352 0-0.037-0.010-0.165-0.013-0.199-0.054-0.125-0.2-0.094-0.234 0.035-0.010 0.042 0.019 0.111-0.020 0.133-0.022 0.022-0.106 0.009-0.103-0.108 0-0.037-0.027-0.078-0.044-0.101-0.017-0.011-0.027-0.014-0.057-0.014-0.037 0.001-0.036 0.011-0.056 0.042-0.009 0.031-0.020 0.062-0.020 0.098-0.005 0.042-0.020 0.057-0.051 0.063-0.034 0-0.027 0.004-0.054-0.014-0.017-0.018-0.037-0.025-0.037-0.056 0-0.032-0.007-0.084-0.017-0.105-0.015-0.019-0.038-0.028-0.064-0.035-0.144 0.001-0.154 0.165-0.145 0.227-0.011 0.012-0.017 0.306 0.179 0.387zM26.858 13.777c-0.459 0.517-0.256 1.372-0.153 1.556 0.151 0.303 0.273 0.497 0.567 0.646 0.268 0.197 0.477 0.074 0.592-0.064 0.27-0.28 0.273-0.993 0.4-1.135 0.089-0.26 0.313-0.215 0.421-0.1 0.105 0.151 0.229 0.249 0.384 0.331 0.252 0.222 0.552 0.262 0.848 0.060 0.202-0.114 0.334-0.26 0.452-0.551 0.132-0.352 0.058-1.978 0.032-2.942-0.010-0.076-0.262-1.325-0.262-1.339s-0.033-0.638-0.061-0.786c-0.005-0.060-0.020-0.078 0.043-0.070 0.067 0.056 0.076 0.060 0.118 0.079 0.068 0.012 0.128-0.103 0.087-0.209l-0.628-1.158c-0.050-0.050-0.116-0.104-0.195 0.014-0.076 0.067-0.158 0.188-0.155 0.344 0.019 0.274 0.067 0.554 0.085 0.828l0.251 1.409c0.079 1.005 0.099 1.827 0.178 2.832-0.011 0.425-0.143 0.796-0.267 0.85 0 0-0.189 0.109-0.315-0.011-0.092-0.037-0.46-0.614-0.46-0.614-0.188-0.173-0.313-0.123-0.447 0-0.37 0.357-0.537 1.025-0.788 1.485-0.065 0.103-0.248 0.191-0.451-0.008-0.515-0.704-0.213-1.705-0.277-1.447zM24.646 7.917c0.236 0.099 0.402 0.576 0.348 0.81-0.047 0.289-0.172 0.6-0.262 0.56-0.098-0.036 0.067-0.287-0.027-0.55-0.052-0.171-0.374-0.484-0.34-0.576-0.066-0.193 0.137-0.278 0.281-0.244z"></path>
<path fill="#fff" d="M27.618 14.060c0.050-0.574-0.034-0.924-0.049-1.261s-0.381-2.91-0.456-3.165c-0.090-0.482 0.356-0.065 0.308-0.345-0.154-0.354-0.538-0.869-0.659-1.176-0.073-0.132-0.042-0.249-0.204-0.035-0.151 0.492-0.203 0.895-0.145 1.2 0.387 2.018 0.783 3.696 0.72 5.617 0.183 0.001 0.395-0.42 0.485-0.836zM31.647 8.73c0.215 0.107 0.341 0.706 0.317 0.877-0.043 0.312-0.157 0.65-0.239 0.606-0.089-0.039 0.018-0.463-0.025-0.595-0.047-0.185-0.341-0.524-0.31-0.624-0.061-0.209 0.125-0.301 0.257-0.264zM15.668 12.975c0.206 0.079 0.326 0.518 0.303 0.644-0.041 0.229-0.15 0.477-0.229 0.445-0.085-0.029 0.017-0.341-0.024-0.437-0.017-0.235-0.303-0.357-0.297-0.458-0.053-0.187 0.119-0.221 0.246-0.194z"></path>
<path fill="#1b9d00" d="M20.637 13.636c0.265 0.017 0.398 0.225 0.149 0.313-0.245 0.084-0.481 0.15-0.482 0.504 0.091 0.494-0.124 0.324-0.253 0.257-0.151-0.109-0.576-0.37-0.636-0.934-0.009-0.135 0.096-0.248 0.265-0.247 0.255 0.069 0.63 0.074 0.956 0.108z"></path>
<path fill="#fff" d="M10.171 7.774c0.303 0.091 0.321 0.538 0.299 0.668-0.040 0.238-0.148 0.495-0.225 0.461-0.084-0.030-0.003-0.353-0.044-0.453-0.045-0.141-0.301-0.399-0.272-0.475-0.057-0.159 0.118-0.229 0.242-0.201zM16.163 9.877c-0.233 0.126-0.323 0.501-0.178 0.72 0.135 0.193 0.349 0.121 0.378 0.121 0.228 0.029 0.363-0.428 0.363-0.428s0.007-0.128-0.264 0.114c-0.114 0.021-0.128-0.021-0.157-0.086-0.024-0.119-0.019-0.238 0.036-0.356 0.040-0.114-0.048-0.164-0.178-0.086zM17.91 7.602c-0.117 0.078-0.35 0.32-0.357 0.598-0.007 0.157-0.036 0.156 0.066 0.256 0.074 0.107 0.149 0.097 0.299 0.019 0.086-0.063 0.115-0.105 0.144-0.212 0.036-0.178-0.188 0.085-0.217-0.114-0.050-0.184 0.094-0.26 0.229-0.438 0.005-0.122 0.002-0.208-0.165-0.11zM19.316 7.852c-0.050 0.111-0.111 0.693-0.101 0.693-0.040 0.173 0.181 0.248 0.282 0.025 0.151-0.409 0.151-0.582 0.161-0.755-0.047-0.264-0.225-0.256-0.343 0.037zM28.186 12.366c0.030-0.030 1.25-0.897 1.25-0.897 0.124-0.044 0.097 0.447 0.040 0.444 0.023 0.097-1.203 0.931-1.29 0.897-0.060 0.044-0.121-0.336 0-0.444zM29.298 12.358c0.215 0.107 0.301 0.736 0.277 0.907 0.008 0.333-0.207 0.599-0.289 0.556-0.089-0.039 0.008-0.413-0.035-0.545-0.047-0.185-0.23-0.534-0.199-0.634-0.061-0.209 0.115-0.321 0.247-0.284zM22.044 15.067c0.085-0.124 0.347-0.302 0.353-0.302 0.121-0.060 0.239 0.047 0.232 0.040 0.020 0.121-0.077 0.234-0.046 0.395 0.026 0.065 0.046 0.137 0.165 0.11 0.194-0.152 0.373-0.162 0.567-0.172 0.148 0.009 0.154 0.26 0.060 0.262-0.358 0.078-0.518 0.173-0.773 0.271-0.121 0.071-0.225-0.019-0.225-0.029s-0.071-0.069-0.021-0.229c0.009-0.129-0.043-0.199-0.15-0.184-0.081 0.044-0.152 0.072-0.192-0.020-0.016-0.068-0.021-0.102 0.031-0.141zM30.581 15.406c0.052 0.066 0.086 0.128-0.004 0.237-0.086 0.078-0.146 0.122-0.231 0.2-0.040 0.069-0.066 0.173 0.057 0.207 0.228 0.064 0.756-0.278 0.756-0.285 0.086-0.064 0.057-0.185 0.050-0.185-0.050-0.057-0.162-0.023-0.238-0.032-0.036 0-0.154-0.018-0.098-0.122 0.047-0.065 0.064-0.105 0.096-0.185 0.036-0.078 0.005-0.131-0.123-0.173-0.131-0.024-0.183-0.012-0.328 0-0.078 0.017-0.105 0.052-0.119 0.147 0.006 0.144 0.093 0.136 0.183 0.193z"></path>
<path fill="#259f00" d="M22.091 11.859c-0.033 0.058-0.146 0.055-0.253-0.006s-0.165-0.158-0.131-0.216 0.146-0.055 0.253 0.006 0.165 0.158 0.131 0.216zM16.524 8.509c-0.063 0.015-0.146-0.041-0.185-0.126s-0.019-0.167 0.044-0.182 0.146 0.041 0.185 0.126 0.019 0.167-0.044 0.182z"></path>
<path fill="#209000" d="M27.536 23.436c0.584 0.029 1.134 0.007 1.718 0.035 0.106 0.090 0.030 0.311-0.040 0.295-0.19-0.005-0.299-0.009-0.49-0.014-0.006-0.186-0.482-0.156-0.468 0.006-0.257 0.031-0.488-0.009-0.744-0.018-0.076-0.094-0.066-0.265 0.024-0.303z"></path>
</svg>
