<!-- Generated by IcoMoon.io -->
<svg version="1.1" xmlns="http://www.w3.org/2000/svg" width="43" height="32" viewBox="0 0 43 32">
<title>SBD</title>
<path fill="#0000d6" d="M0 31.698l61.714-31.698h-61.714v31.698z"></path>
<path fill="#006000" d="M64 0l-62.302 32h62.302v-32z"></path>
<path fill="#fc0" d="M64 0h-3.429l-60.571 30.335v1.665h3.429l60.571-30.275v-1.725z"></path>
<path fill="#fff" d="M4.462 0.57l0.741 2.153 2.404-0.002-1.946 1.328 0.745 2.152-1.944-1.332-1.944 1.331 0.745-2.151-1.946-1.329 2.404 0.002zM16.409 0.57l0.741 2.153 2.404-0.002-1.946 1.328 0.745 2.152-1.944-1.332-1.944 1.331 0.745-2.151-1.946-1.329 2.404 0.002zM16.409 9.6l0.741 2.153 2.404-0.002-1.946 1.328 0.745 2.152-1.944-1.332-1.944 1.331 0.745-2.151-1.946-1.329 2.404 0.002zM10.47 5.138l0.741 2.153 2.404-0.002-1.946 1.328 0.745 2.152-1.944-1.332-1.944 1.331 0.745-2.151-1.946-1.329 2.404 0.002zM4.462 9.6l0.741 2.153 2.404-0.002-1.946 1.328 0.745 2.152-1.944-1.332-1.944 1.331 0.745-2.151-1.946-1.329 2.404 0.002z"></path>
</svg>
