<!-- Generated by IcoMoon.io -->
<svg version="1.1" xmlns="http://www.w3.org/2000/svg" width="43" height="32" viewBox="0 0 43 32">
<title>SGD</title>
<path fill="#fff" d="M-1.333 0h48v32h-48z"></path>
<path fill="#df0000" d="M-1.333 0h48v16h-48z"></path>
<path fill="#fff" d="M9.737 2.682c-2.216 0.508-3.863 2.149-4.328 4.38-0.633 3.031 1.342 5.999 4.379 6.633-3.069 0.875-6.239-0.889-7.106-3.929s0.897-6.211 3.938-7.077c1.067-0.304 2.050-0.306 3.118-0.006z"></path>
<path fill="#fff" d="M8.865 7.33l0.326 1.008-0.862-0.615-0.858 0.621 0.319-1.010-0.856-0.624 1.058-0.009 0.329-1.007 0.335 1.005 1.059 0.002zM10.036 10.801l0.326 1.008-0.862-0.615-0.858 0.621 0.319-1.010-0.856-0.624 1.058-0.009 0.329-1.007 0.335 1.005 1.059 0.002zM13.931 10.776l0.326 1.008-0.862-0.615-0.858 0.621 0.319-1.010-0.856-0.624 1.058-0.009 0.329-1.007 0.335 1.005 1.059 0.002zM15.093 7.333l0.326 1.008-0.862-0.615-0.858 0.621 0.319-1.010-0.856-0.624 1.058-0.009 0.329-1.007 0.335 1.005 1.059 0.002zM12.009 5.050l0.326 1.008-0.862-0.615-0.858 0.621 0.319-1.010-0.856-0.624 1.058-0.009 0.329-1.007 0.335 1.005 1.059 0.002z"></path>
</svg>
