<!-- Generated by IcoMoon.io -->
<svg version="1.1" xmlns="http://www.w3.org/2000/svg" width="43" height="32" viewBox="0 0 43 32">
<title>SHP</title>
<path fill="#006" d="M42.668 32.001v-31.999h-42.667v31.999h42.667z"></path>
<path fill="#fff" d="M-0 4.889h5.069l-5.069-3.105v-1.783h2.9l7.091 4.315v-4.315h3.993v4.315l7.091-4.315h2.925v1.783l-5.094 3.105h5.094v4.891h-5.094l5.094 3.105v1.783h-2.925l-7.091-4.315v4.315h-3.993v-4.315l-7.091 4.315h-2.9v-1.783l5.069-3.105h-5.069v-4.891z"></path>
<path fill="#ce1126" d="M22.112 0.002l-8.011 4.891h1.918l7.98-4.891h-1.887zM24 14.669l-7.988-4.888h1.926l6.062 3.723v1.165zM8.025 4.891l-8.026-4.891v1.168l6.092 3.723h1.934zM8.009 9.779l-8.009 4.888h1.917l8.011-4.888h-1.918z"></path>
<path fill="#ce1126" d="M-0 5.904h10.841v-5.902h2.346v5.902h10.812v2.864h-10.812v5.9h-2.346v-5.9h-10.841v-2.864z"></path>
<path fill="#8fc5ff" d="M40.14 17.73c-0.014 4.885-0.785 10.148-7.107 12.655-6.323-2.507-7.094-7.77-7.108-12.655h14.215z"></path>
<path fill="#366cc9" d="M33.031 30.385c2.866-1.136 4.592-2.839 5.623-4.817-0.154 0.006-0.478-0.003-0.617-0.013-0.156-0.010-6.063-0.604-6.762-0.86-0.609-0.223-2.931 0.19-4.015 0.577 1.011 2.103 2.763 3.92 5.771 5.113z"></path>
<path fill="#5d3100" d="M28.613 27.355c0.097-0.031 0.281-0.024 0.354-0.011 0.086 0.016 0.101 0.023 0.132-0.070s0.101-0.070 0.156-0.023 0.194 0.023 0.249-0.054c0.054-0.077 0.070-0.070 0.124-0.016s0.078 0.039 0.132 0.023c0.054-0.015 0.148-0.077 0.194-0.163s0.116-0.117 0.155-0.070 0.078 0.070 0.132 0.062 0.070 0.047 0.062 0.116c-0.008 0.070 0.023 0.086 0.156-0.023 0.117 0.116 0.155 0.070 0.155-0.054s-0.031-0.583-0.077-0.645-0.093-0.241-0.101-0.381c-0.015-0.264-0.016-0.28-0.334-0.443 0-0.093-0.023-0.132-0.249-0.117 0.008-0.031-0.031-0.124-0.078-0.163s-0.054-0.054-0.031-0.163c0.093 0.008 0.194-0.008 0.249-0.086s0.233-0.062 0.342-0.016 0.249 0.054 0.459 0.023c0.078-0.062 0.21-0.132 0.35-0.21s0.179-0.109 0.186-0.218c0.020-0.279-0.078-0.599-0.156-0.746s-0.101-0.334-0.21-0.568c-0.118-0.254-0.117-0.319-0.249-0.474-0.036-0.043-0.078-0.078-0.086-0.163s-0.039-0.202-0.132-0.288c-0.235-0.216-0.327-0.91-0.42-1.423-0.054-0.294-0.016-0.987-0.14-1.096-0.21-0.171-0.311-0.14-0.451-0.194-0.101-0.14-0.147-0.42-0.241-0.669-0.148 0.023-0.249 0.179-0.35 0.233s-0.117 0.054-0.117 0.194c0 0.14-0.078 0.334-0.217 0.552s-0.373 0.156-0.567 0.482c-0.428-0.521-0.435-0.669-0.467-0.816s-0.101-0.179-0.342-0.389c0-0.062-0.031-0.311-0.008-0.451-0.179-0.148-0.311-0.124-0.396-0.016s-0.148 0.272-0.28 0.334c-0.079 0.101-0.318 0.355-0.514 0.658 0.178 2.705 0.788 5.391 2.624 7.538z"></path>
<path fill="#ff0" d="M40.14 17.73c0.005-1.84-0.097-3.627-0.050-5.192-2.363-1.057-5.472-1.275-7.057-1.275s-4.695 0.217-7.057 1.275c0.047 1.566-0.055 3.352-0.050 5.192h14.215z"></path>
<path fill="#cf6200" d="M26.308 19.859c0.078 0.124 0.218 0.338 0.233 0.455 0.054-0.113 0.097-0.163 0.109-0.233s0.093-0.206 0.062-0.28-0.054-0.132 0.031-0.078c0.085 0.054 0.069 0.149 0.050 0.288-0.050 0.381-0.21 0.459-0.233 0.715 0.229 0.54 0.058 0.735 0.307 1.263 0.039 0.023 0.143-0.018 0.174-0.010 0.132-0.093 0.231-0.060 0.417-0.021s0.288 0.171 0.288 0.287 0 0.148 0.039 0.218 0.117 0.179 0.101 0.257c-0.016 0.077 0.016 0.124 0.039 0.163s-0.008 0.124-0.031 0.179-0.016 0.124 0.078 0.241c0.093 0.116 0.311 0.606 0.311 0.894s0.016 0.42 0.132 0.474c0.117 0.054 0.156 0.101 0.14 0.226s0.054 0.77 0.070 0.871 0.054 0.078 0.101 0.132c0.046 0.054 0.077 0.116 0.233 0.116s0.306-0.021 0.407-0.005c0.14 0.194 0.226 0.459 0.257 0.622s0.028 0.386 0.083 0.386 0.109 0.008 0.093-0.194-0.031-0.233-0.101-0.334c-0.070-0.101-0.109-0.148-0.070-0.21s0.047-0.163 0.031-0.241-0.039-0.194 0.093-0.039c0.132 0.156 0.171 0.194 0.21 0.249s0.054 0.156 0.047 0.249c-0.008 0.093 0.007 0.132 0.062 0.085s0.124 0.031 0.093 0.132 0.008 0.163 0.101 0.194 0.132 0.054 0.156 0.124 0.101 0.101 0.101-0.039c0-0.14-0.054-0.435-0.093-0.529s-0.070-0.296-0.078-0.412-0.031-0.147-0.086-0.171-0.101-0.062-0.109-0.117-0.054-0.074-0.089-0.074-0.066-0.027-0.085-0.066-0.039-0.043-0.078-0.047-0.101 0.019-0.121-0.043-0.047-0.152-0.086-0.202-0.074-0.066-0.078-0.241c-0.004-0.175-0.008-0.198-0.062-0.261s-0.148-0.225-0.187-0.295c-0.039-0.070-0.077-0.14-0.077 0.008s0 0.225 0.093 0.28c0.093 0.054 0.117 0.054 0.078 0.132s0 0.132 0.016 0.187 0.047 0.109 0 0.163c-0.047 0.054-0.093 0.039-0.086-0.046s-0.023-0.187-0.062-0.257c-0.039-0.070-0.070-0.117-0.117-0.078s-0.085-0.008-0.054-0.039 0.023-0.054 0-0.078-0.031-0.047 0.008-0.093 0.039-0.070 0.016-0.179c-0.023-0.109-0.194-0.653-0.272-0.777s-0.070-0.218 0.031-0.093 0.187 0.233 0.194 0.334c0.008 0.101 0.031 0.163 0.062 0.202s0.054 0.023 0.070-0.062 0.078-0.054-0.031-0.217c-0.109-0.163-0.311-0.435-0.389-0.925s-0.109-0.816-0.187-0.948c-0.077-0.132-0.101-0.163-0.109-0.288s0-0.249-0.054-0.342c-0.054-0.093-0.093-0.109-0.101 0.031s0.008 0.451 0.047 0.505 0.016 0.194 0.008 0.272-0.13 0.155 0.124 0.311c0.101 0.062 0.085 0.148 0.070 0.202s-0.031 0.046-0.086-0.039c-0.054-0.086-0.109-0.156-0.163-0.202s-0.062-0.078-0.054-0.187 0.031-0.187 0-0.225c-0.031-0.039-0.047-0.008-0.062 0.054s-0.031 0.233-0.062 0.28-0.047 0.016-0.070-0.086 0.008-0.256 0.062-0.435 0.086-0.366 0.039-0.599c-0.047-0.233-0.023-0.303-0.202-0.497s-0.381-0.381-0.466-0.622c-0.086-0.241-0.101-0.451-0.194-0.56s-0.225-0.249-0.311-0.287v-0.357c0-0.086-0.039-0.14-0.14-0.124s-0.163 0.101-0.225 0.217c-0.062 0.117-0.109 0.062-0.194 0.264s-0.21 0.303-0.21 0.521z"></path>
<path fill="#cf6200" d="M26.87 22.138c0.062 0.039 0.122 0.065 0.215 0.018s0.205-0.181 0.329-0.049c0.124 0.132 0.194 0.35 0.194 0.521s0 0.49 0.194 0.669c0.194 0.179 0.295 0.365 0.303 0.599s0.093 0.591 0.117 0.684c0.023 0.093 0.078 0.202 0.14 0.264s0.109 0.241 0.117 0.427c0.008 0.187-0.023 0.319 0 0.412s0 0.171-0.070 0.124-0.086-0.070-0.124-0.148-0.086-0.062-0.047 0.054 0.156 0.225 0.257 0.225 0.132 0.016 0.194 0.078c0.062 0.062 0.070 0.093 0.179 0.093s0.124 0 0.226 0.031 0.101 0.016 0.156 0 0.109 0.031 0.147 0.132 0.132 0.381 0.132 0.459 0 0.156 0.054 0.233 0.039 0.156-0.023 0.109-0.062-0.031-0.109-0.023-0.078-0.016-0.14-0.054c-0.062-0.039-0.023-0.031-0.086-0.124s-0.101-0.124-0.101-0.054-0.008 0.156-0.054 0.117-0.070-0.039-0.109 0-0.054 0.070-0.101-0.008-0.101-0.078-0.148-0.093-0.047-0.016-0.070-0.086c-0.023-0.070-0.093-0.086-0.156-0.086s-0.093-0.031-0.101-0.078c-0.008-0.046-0.047-0.078-0.078-0.101s-0.016-0.078-0.023-0.132-0.054-0.031-0.086-0.047-0.054-0.008-0.054-0.086-0.031-0.101-0.054-0.156c-0.023-0.054 0-0.109 0.016-0.171s0.008-0.101-0.039-0.156c-0.047-0.054-0.008-0.109-0.132-0.218s-0.187-0.016-0.225-0.272c-0.039-0.257-0.117-0.785-0.187-0.871s-0.116-0.148-0.186-0.171-0.117-0.008-0.124-0.156c-0.008-0.147-0.054-0.334-0.148-0.427s-0.132-0.124-0.179-0.163-0.062-0.109 0-0.241c0.062-0.132 0.039-0.311 0.031-0.397s-0.031-0.194-0.016-0.287 0.008-0.21-0.016-0.272-0.054-0.078-0.016-0.124zM28.742 19.928c-0.105 0.135-0.217 0.249-0.362 0.352s-0.332 0.187-0.228 0.363c0.104 0.176 0.187 0.197 0.207 0.332s0.052 0.249 0.155 0.28c0.104 0.031 0.145 0.010 0.145 0.228s0 0.301 0.093 0.383 0.083 0.166 0.124 0.363c0.041 0.197 0.041 0.622 0.166 0.912s0.404 0.84 0.373 0.954-0.073 0.197 0.052 0.331c0.124 0.135 0.207 0.332 0.218 0.446s0.031 0.156 0.155 0.114c0.124-0.042 0.187-0.083 0.228-0.135s0.124-0.041 0.238 0.021c0.114 0.062 0.29 0.124 0.394 0.062s0.155-0.155 0.249-0.155c0.145-0.104 0.197-0.322 0.228-0.383s0.010-0.062-0.052-0.124-0.031-0.166-0.042-0.269c-0.010-0.104-0.052-0.259-0.176-0.487s-0.197-0.508-0.28-0.58c-0.083-0.073-0.124-0.249-0.135-0.332s-0.104-0.156-0.166-0.218c-0.062-0.062-0.124-0.155-0.197-0.518s-0.124-0.622-0.124-0.684-0.010-0.073-0.073-0.093-0.093-0.124-0.072-0.176c0.021-0.052-0.021-0.103-0.042-0.166s0-0.176 0.042-0.238c0.041-0.062 0.031-0.238-0.010-0.383s-0.083-0.27-0.249-0.29c-0.166-0.021-0.197-0.062-0.259-0.197s-0.124-0.373-0.145-0.425c-0.021-0.052-0.052-0.062-0.176 0.042s-0.166 0.138-0.166 0.332c0 0.124 0.021 0.166 0.062 0.238s0.052 0.093 0.083 0.29 0.207 0.508-0.021 0.684c-0.228 0.176-0.197 0.218-0.186 0.342s-0.062 0.207-0.104 0.031c-0.041-0.176 0-0.28 0.124-0.363s0.238-0.187 0.155-0.301c-0.083-0.114-0.114-0.383-0.124-0.508s-0.031-0.166-0.104-0.073z"></path>
<path fill="#00b800" d="M26.894 22.569c-0.006 0.084 0.013 0.177 0.020 0.252 0.008 0.086 0.031 0.264-0.031 0.397s-0.047 0.202 0 0.241c0.003 0.002 0.005 0.004 0.007 0.006 0.127-0.042 0.143-0.184 0.109-0.252-0.036-0.072-0.026-0.161 0.016-0.233s0.042-0.114 0.005-0.166c-0.036-0.052-0.036-0.052 0.005-0.197 0.037-0.128-0.056-0.127-0.131-0.047zM28.222 24.579c-0.023-0.093-0.109-0.451-0.117-0.684s-0.109-0.42-0.303-0.599c-0.152-0.14-0.185-0.364-0.192-0.537-0.114-0.070-0.162-0.038-0.153 0.092 0.010 0.14 0.15 0.207 0.13 0.409s-0.021 0.15 0.078 0.249 0.135 0.192 0.083 0.233c-0.052 0.041-0.057 0.114 0.016 0.14s0.078 0.104 0.067 0.176c-0.010 0.073 0.057 0.088 0.098 0.14s0.047 0.176 0.005 0.249c-0.042 0.072-0.047 0.186 0.026 0.124s0.104-0.005 0.161 0.093c0.049 0.085 0.091 0.058 0.144 0.033-0.016-0.033-0.031-0.073-0.042-0.113l-0.001-0.005zM29.233 26.389c-0.047 0.093-0.101 0.062-0.148 0.016s-0.101-0.047-0.078-0.132 0.016-0.101-0.047-0.148c-0.007-0.005-0.014-0.010-0.022-0.015-0.019-0.001-0.042-0.001-0.072-0.001-0.109 0-0.117-0.031-0.179-0.093-0.012-0.012-0.024-0.023-0.037-0.034l-0.001-0.001c-0.001 0.015-0.001 0.035-0.001 0.058 0 0.086 0 0.070-0.086 0.093s-0.070-0.086-0.086-0.156c-0.004-0.016-0.008-0.030-0.014-0.044l0.001 0.002c-0.094-0.018-0.192-0.117-0.228-0.222-0.039-0.117 0.008-0.132 0.047-0.054s0.054 0.101 0.124 0.148 0.093-0.031 0.070-0.124c-0.007-0.030-0.009-0.065-0.008-0.103-0.017-0.030-0.040-0.055-0.069-0.068-0.124-0.054-0.086-0.070-0.078-0.171s-0.016-0.101-0.093-0.047c-0.078 0.054-0.085-0.008-0.085-0.163s-0.101-0.156-0.124-0.047c-0.023 0.109-0.062 0.039-0.109-0.117s-0.109-0.194-0.117-0.047c-0.007 0.125-0.041 0.155-0.123 0.086 0.014 0.090 0.027 0.175 0.037 0.241 0.039 0.256 0.101 0.163 0.226 0.272s0.086 0.163 0.132 0.218c0.046 0.054 0.054 0.093 0.039 0.156s-0.039 0.116-0.016 0.171c0.023 0.054 0.054 0.078 0.054 0.156s0.023 0.070 0.054 0.086c0.019 0.010 0.045 0.004 0.063 0.012 0.020-0.026 0.038-0.059 0.062-0.082 0.093-0.093 0.233 0.008 0.28 0.124s0.101 0.148 0.171 0.054 0.047-0.078 0.124 0.008 0.109 0.070 0.109 0.070 0.078-0.031 0.132 0.016 0.086 0.039 0.186-0.109c0.101-0.148-0.046-0.101-0.093-0.008zM29.508 22.123c0.031-0.228 0.010-0.456 0.103-0.539s0.207-0.249 0.197 0.104c-0.010 0.352-0.021 0.332-0.093 0.415s-0.135 0.103-0.062 0.238c0.072 0.135 0.083 0.145 0.072 0.352s-0.010 0.29 0.073 0.394c0.083 0.103 0.103 0.114 0.124 0.228s0.093 0.269 0.186 0.352 0.197 0.321 0.207 0.487c0.010 0.166 0.156 0.207 0.29 0.321s-0.031 0.197-0.135 0.145c-0.104-0.052-0.062 0-0.124 0.072s-0.083 0.083-0.135-0.041-0.228-0.207-0.311-0.238-0.155-0.166-0.228-0.301c-0.062-0.116-0.185-0.2-0.298-0.209 0.031 0.087 0.048 0.156 0.039 0.188-0.031 0.114-0.073 0.197 0.052 0.331s0.207 0.332 0.218 0.446c0.010 0.114 0.031 0.156 0.155 0.114s0.187-0.083 0.228-0.135c0.041-0.052 0.124-0.041 0.238 0.021s0.29 0.124 0.394 0.062c0.104-0.062 0.156-0.155 0.249-0.155 0.145-0.104 0.197-0.322 0.228-0.383s0.010-0.062-0.052-0.124-0.031-0.166-0.042-0.269c-0.010-0.104-0.052-0.259-0.176-0.487s-0.197-0.508-0.28-0.58c-0.083-0.073-0.124-0.249-0.135-0.332s-0.103-0.156-0.166-0.218c-0.062-0.062-0.124-0.155-0.197-0.518-0.057-0.284-0.101-0.503-0.117-0.616-0.074 0.119-0.125 0.148-0.152 0.066-0.031-0.093-0.073-0.145-0.114-0.083s-0.052-0.052-0.052-0.103c0-0.052-0.010-0.062-0.062-0.062s-0.010-0.083-0.031-0.238c-0.021-0.156-0.052-0.176-0.072 0.011s-0.124 0.3-0.083 0.342c0.041 0.042 0.021 0.124-0.021 0.249s-0.021 0.197 0.010 0.28-0.021 0.238-0.042 0.373c-0.021 0.135 0.083 0.269 0.114 0.041zM27.614 20.263c-0.077 0.006-0.129 0.073-0.086 0.308 0.028 0.146-0.083 0.114-0.124 0.041s-0.073-0.228-0.156-0.363c-0.083-0.135-0.042 0.093-0.052 0.218s0.072 0.124 0.145 0.228c0.072 0.104 0.010 0.145-0.073 0.145s-0.041 0.166-0.021 0.28-0.021 0.135-0.083 0.042c-0.062-0.093-0.021-0.238-0.010-0.415s0.021-0.135-0.093-0.176c-0.114-0.042-0.093-0.062-0.052-0.166s0.083-0.156 0.031-0.207c-0.052-0.052-0.042-0.083 0.041-0.093s0.052-0.072 0.124-0.093c0.073-0.021 0.104 0.011 0.114-0.124 0.009-0.112 0.046-0.182 0.131-0.147 0.051 0.173 0.117 0.443 0.162 0.523zM28.658 21.483c0 0.218 0 0.301 0.093 0.384s0.083 0.166 0.124 0.363c0.041 0.197 0.041 0.622 0.166 0.912 0.037 0.086 0.088 0.196 0.141 0.31 0.069-0.054 0.129-0.147 0.15-0.196 0.031-0.073-0.062-0.218-0.135-0.342s0.010-0.166 0.083-0.322c0.073-0.155-0.010-0.166-0.124-0.207s-0.114-0.145-0.176-0.311-0.052-0.238-0.010-0.332c0.041-0.093 0.010-0.166-0.073-0.187s-0.062-0.083-0.031-0.186c0.031-0.104 0.052-0.124-0.072-0.093-0.094 0.023-0.117 0.041-0.145 0.075 0.007 0.030 0.010 0.071 0.010 0.132z"></path>
<path fill="#5d3100" d="M29.852 21.917c-0.011 0.124-0.010 0.187-0.042 0.228s-0.010 0.104 0.021 0.166 0.052 0.145 0.021 0.259 0.021 0.207 0.083 0.238 0.093 0 0.073 0.145c-0.021 0.145 0.062 0.301 0.135 0.363s0.124 0.166 0.114 0.228c-0.010 0.062 0.052 0.124 0.124 0.155s0.062 0.042 0.062 0.083c0 0.042 0.031 0.042 0.114 0.062s0.145 0.073 0.238 0.187 0.228 0.176 0.207 0.052 0-0.207-0.124-0.269c-0.124-0.062-0.217-0.363-0.269-0.57s-0.217-0.487-0.311-0.539c-0.010-0.145 0.010-0.218-0.083-0.29s-0.124-0.166-0.124-0.238c0-0.072-0.052-0.166-0.093-0.186s-0.062-0.073-0.062-0.135-0.072-0.052-0.083 0.062z"></path>
<path fill="#00d860" d="M29.301 27.478c0.186-0.016 0.692-0.163 0.746-0.21 0.124 0.086 0.342 0.202 0.435 0.202-0.179 0.039-0.295 0.016-0.342-0.016 0.023 0.054 0.086 0.14 0.124 0.148-0.171-0.008-0.365-0.047-0.427-0.109-0.148 0.062-0.397 0.078-0.536-0.016zM29.636 27.711c0.066 0.019 0.396 0.074 0.439 0.074-0.109 0.093-0.016 0.182 0.167 0.167-0.089 0.012-0.187 0.045-0.121 0.058 0.159 0.031 0.591-0.086 0.676-0.132-0.148 0.191-0.866 0.365-1.162-0.167zM29.932 28.184c0.089-0.047 0.311-0.031 0.416 0.019-0.117 0.043-0.346 0.043-0.416-0.019z"></path>
<path fill="#000" d="M30.264 28.178c0.159-0.027 0.61 0.082 0.77-0.016-0.054 0.144-0.338 0.163-0.435 0.132s-0.19-0.070-0.256-0.066c0.035-0.019-0.023-0.023-0.078-0.051z"></path>
<path fill="#00d860" d="M30.429 28.399c0.121 0.019 0.552-0.035 0.684-0.086 0.14 0.047 0.416 0.12 0.478 0.112-0.132 0.082-0.385 0.035-0.466 0-0.233 0.078-0.424 0.101-0.696-0.027z"></path>
<path fill="#00d860" d="M30.635 28.471c0.173 0.039 0.32 0.011 0.49-0.046 0.053 0.023 0.178 0.051 0.295 0.045 0.078 0.045 0.183 0.107 0.284 0.115-0.105 0.043-0.49 0-0.567-0.043-0.194 0.004-0.529 0.047-0.61 0.113-0.004-0.054 0.031-0.13 0.109-0.184z"></path>
<path fill="#000" d="M30.429 27.594c0.135 0.045 0.622 0.023 0.87-0.093 0.098-0.046 0.159 0.031 0.047 0.070-0.404 0.14-0.723 0.194-0.956 0.070-0.092-0.049-0.101-0.093 0.039-0.047z"></path>
<path fill="#00d860" d="M32.816 26.933c-0.598 0.28-0.995 0.365-1.827 0.109-0.077-0.024-0.132 0-0.047 0.054s0.544 0.179 0.653 0.186 0.070 0.058 0.004 0.078-0.086 0.066 0.004 0.031 0.589-0.048 0.793 0.058c0.089 0.047 0.112 0.039 0.105 0.004s0.039-0.058 0.105-0.066 0.105-0.031 0.054-0.051-0.058-0.031-0.019-0.051 0.043-0.039-0.016-0.051-0.097-0.027-0.043-0.054c0.054-0.027 0.136-0.047 0.198-0.054 0.016-0.043-0.012-0.156 0.035-0.194z"></path>
<path fill="#000" d="M31.82 27.005c0.342 0.024 0.972-0.132 1.306-0.459 0.116 0.070 0.28 0.147 0.365 0.163s0.163 0.093 0.031 0.093-0.319-0.054-0.404-0.093c-0.443 0.272-0.962 0.362-1.291 0.334-0.093-0.008-0.116-0.047-0.008-0.039z"></path>
<path fill="#00d860" d="M30.809 25.139c0.117 0.082 0.323 0.217 0.591 0.198 0.132 0.105 0.338 0.194 0.432 0.214-0.179 0.074-0.373 0.136-0.424 0.194-0.082-0.078-0.186-0.066-0.214-0.105-0.078 0.062-0.066 0.101-0.016 0.132s0.443 0.097 0.54 0.070 0.123 0.053 0.043 0.081c-0.21 0.074-0.618 0.004-0.758-0.221s-0.26-0.311-0.641-0.105c-0.043-0.109-0.043-0.136-0.117-0.136s-0.21-0.097-0.105-0.093 0.416-0.043 0.668-0.229z"></path>
<path fill="#00d860" d="M30.901 25.638c-0.065 0.016-0.249 0.117-0.315 0.124s-0.183 0.101-0.062 0.105c0.12 0.004 0.276-0.128 0.361-0.14s0.093-0.109 0.016-0.089zM31.278 26.033c-0.046 0.008-0.245 0.054-0.299 0.051s-0.109 0.012-0.105 0.051 0.019 0.062-0.062 0.054-0.152 0.023-0.171 0.047-0.035 0.047 0.047 0.054 0.124 0.016 0.218-0.027 0.183-0.109 0.284-0.113c0.101-0.004 0.202-0.136 0.089-0.117z"></path>
<path fill="#000" d="M31 26.272c0.085 0.055 0.505 0.198 0.657 0.187s0.123 0.061 0.008 0.086c-0.237 0.050-0.527-0.053-0.723-0.21-0.097-0.078-0.008-0.105 0.058-0.062z"></path>
<path fill="#00d860" d="M32.989 26.479c-0.322 0.103-0.649 0.066-0.781 0.031s-0.253-0.043-0.163 0.043c0.089 0.085 0.377 0.144 0.54 0.101-0.579 0.132-0.731 0.121-0.874 0.097s-0.414-0.018-0.528-0.008c-0.086 0.008-0.202-0.004-0.253-0.035s-0.066-0.089 0.085-0.074c0.151 0.016 0.171-0.016 0.039-0.035s-0.315 0.035-0.136 0.148 0.571-0.008 0.82 0.062c0.249 0.070 0.777 0.121 1.279-0.284 0.026-0.021 0.070-0.077-0.027-0.046zM31.41 26.006c0.012 0.039 0.012 0.082 0 0.109s-0.012 0.062 0.039 0.023 0.082-0.086 0.132-0.058 0.179 0.023 0.237 0.016c0.059-0.008 0.078-0.019-0.008-0.054s-0.171-0.047-0.218-0.043-0.105-0.008-0.144-0.023-0.051-0.008-0.039 0.031z"></path>
<path fill="#00d860" d="M32.238 26.156c-0.066 0.004-0.183-0.039-0.245-0.066s-0.151-0.031-0.085 0.058c0.066 0.089 0.354 0.14 0.455 0.097s0.058-0.089 0.159-0.027c0.101 0.062 0.206 0.105 0.28 0.105s0.101 0 0.019-0.047-0.12-0.058-0.128-0.097-0.019-0.062 0.054-0.039 0.159 0.066 0.218 0.035 0.167-0.101 0.264-0.101l0.023-0.058c-0.14-0.012-0.229 0.031-0.268 0.047s-0.109 0.023-0.183 0.012-0.171-0.019-0.194-0.039-0.023-0.035 0.039-0.047 0.082-0.054-0.004-0.039-0.315 0.008-0.435-0.031c-0.121-0.039-0.171-0.042-0.222-0.023s-0.043 0.074 0.031 0.078 0.241 0.019 0.299 0.074 0.051 0.058-0.016 0.031-0.187-0.012-0.062 0.078z"></path>
<path fill="#00d860" d="M33.252 26.015l-0.023 0.058c0.144-0.004 0.494 0.031 0.606 0.101 0.109-0.086 0.089-0.113 0.167-0.097s0.175 0.043 0.218 0.019 0.074-0.019 0.121-0.012c0.046 0.008 0.147-0.012 0.206-0.047s0.179-0.082 0.249-0.082 0.155-0.016 0.027-0.035c-0.128-0.019-0.323 0.019-0.389 0.043s-0.264 0.039-0.381 0.039-0.276 0.058-0.408 0.023-0.315-0.012-0.393-0.012z"></path>
<path fill="#000" d="M35.053 25.946c-0.233 0.171-0.513 0.21-0.847 0.233-0.097 0.007-0.067 0.034 0.016 0.043 0.35 0.035 0.754-0.093 0.886-0.233 0.038-0.040 0.034-0.107-0.054-0.043z"></path>
<path fill="#00d860" d="M33.465 26.344c0.101 0.004 0.451 0.093 0.563 0.132 0.086-0.008 0.109-0.027 0.093-0.058s-0.027-0.066 0.128-0.058c0.155 0.008 0.513 0.004 0.579 0.004 0.054-0.023 0.175-0.117 0.229-0.121-0.14 0.008-0.723 0.039-0.796 0.031s-0.113 0-0.159 0.027-0.074 0.039-0.132 0.016-0.163-0.054-0.221-0.019c-0.058 0.035-0.179 0.004-0.284 0.047z"></path>
<path fill="#00d860" d="M34.828 26.362c0.054-0.023 0.175-0.117 0.229-0.121 0.101-0.008 0.218 0.035 0.272 0.043s0.113-0.004 0.074-0.047-0.004-0.117 0.155-0.097c0.159 0.019 0.241 0.047 0.396 0.031s0.225 0.101 0.521-0.016c-0.023 0.117 0.031 0.124 0.086 0.101s0.117-0.016 0.21 0.054 0.661 0.078 0.793 0.054c0.132-0.023 0.202 0.047 0.101 0.078s-0.124 0.078-0.101 0.109c0.023 0.031 0.046 0.070-0.078 0.054s-0.148 0.023-0.21 0.070-0.078 0.062-0.249 0.031c-0.171-0.031-0.202-0.008-0.295 0.008s-0.117 0.016-0.21-0.016-0.295-0.062-0.42-0.023-0.218 0.078-0.327 0.047-0.117-0.016-0.047-0.086 0.086-0.062 0.218-0.078c0.132-0.015 0.233-0.054 0.14-0.109s-0.124-0.047-0.249 0.016-0.187 0.101-0.326 0.023c-0.14-0.078-0.21-0.062-0.303-0.039s-0.248-0.031-0.381-0.089zM35.295 26.595c-0.178 0.025-0.226-0.089-0.412-0.066-0.062 0.008-0.167 0.085-0.023 0.074s0.299 0.066 0.439 0.054 0.078-0.074-0.004-0.062zM35.089 26.73c0.094-0.034 0.288 0.031 0.369 0.016s0.159 0.035 0.074 0.062-0.292-0.051-0.385-0.023-0.186-0.008-0.058-0.054zM33.231 27.232c0.128 0.004 0.591-0.016 0.773-0.404 0.014-0.030 0.027-0.043 0.086-0.004s0.272 0.167 0.672 0.202c0.112 0.010 0.233 0.066 0.008 0.051s-0.583-0.078-0.703-0.152c-0.202 0.319-0.565 0.356-0.836 0.35-0.163-0.004-0.124-0.047 0-0.043z"></path>
<path fill="#00d860" d="M34.23 26.703c-0.062 0.086-0.276 0.233-0.373 0.241s-0.388-0.019-0.462-0.047-0.163-0.019-0.058 0.054 0.365 0.124 0.47 0.101c0.105-0.023 0.226-0.058 0.307-0.008s0.233 0.147 0.322 0.128c0.089-0.019 0.272-0.019 0.33 0.008s0.159 0.109 0.008 0.062-0.276-0.008-0.346-0.039c0.078 0.109 0.254 0.284 0.404 0.284 0.035 0 0.058 0.062-0.016 0.097 0.074 0.035 0.245 0.062 0.334-0.019-0.023 0.031-0.012 0.051 0.027 0.070s0.086 0.047 0.016 0.054-0.229 0.027-0.276 0.008c0.151 0.097 0.544 0.252 0.944 0.175 0.076-0.015 0.117-0.046-0.008-0.043-0.257 0.008-0.272 0.004-0.319-0.023s-0.039-0.051 0.035-0.074c0.074-0.023 0.26-0.051 0.338-0.051s0.155-0.031-0.004-0.031-0.354 0-0.431-0.027-0.136-0.062-0.054-0.117 0.167-0.039 0.206-0.089c-0.257-0.004-0.572-0.14-0.397-0.264 0.041-0.029 0.027-0.031-0.039-0.039s-0.26-0.062-0.342-0.109-0.027-0.086 0.039-0.097c-0.152 0.027-0.455-0.054-0.657-0.206zM36.509 26.697c-0.14 0.105-0.404 0.148-0.517 0.148s-0.128 0.039-0.039 0.051 0.187 0.023 0.225 0.012 0.062-0.016 0.12 0.012c0.058 0.027 0.183 0.043 0.292 0.008s0.287-0.051 0.361-0.047 0.155 0.008 0.008-0.035c-0.147-0.043-0.389-0.012-0.447 0.004s-0.218 0.004-0.132-0.023 0.159-0.070 0.202-0.105c-0.031-0.008-0.051-0.016-0.074-0.023zM36.437 26.999c-0.121 0.089-0.295 0.175-0.474 0.182 0.163 0.058 0.299 0.226 0.404 0.218-0.051 0.031-0.112 0.078-0.179 0.086 0.101 0.027 0.272-0.004 0.412-0.082 0.233 0.066 0.536 0.023 0.637-0.062-0.152 0-0.334-0.054-0.416-0.124 0.074 0 0.144-0.047 0.179-0.089-0.175 0.031-0.474-0.054-0.563-0.128z"></path>
<path fill="#00d860" d="M36.189 27.487c0.066-0.008 0.128-0.054 0.179-0.086-0.128 0.043-0.688-0.047-0.855-0.194s-0.167-0.035-0.051 0.070 0.322 0.264 0.727 0.21zM36.599 27.843c-0.070 0.039-0.404 0.062-0.513 0.039s-0.156-0.012-0.128 0.031 0.039 0.082-0.051 0.070-0.249 0.008-0.315 0.031c-0.066 0.023-0.148 0.082-0.008 0.058s0.268-0.051 0.373-0.023 0.478 0.035 0.552 0.004 0.023-0.031-0.012-0.031-0.051-0.023 0-0.047 0.089-0.089 0.101-0.132zM33.366 27.391c-0.14 0.062-0.606 0.187-0.731 0.194-0.155 0.070-0.28 0.109-0.357 0.109 0.054 0.047 0.264 0.093 0.35 0.070-0.047 0.046-0.155 0.101-0.194 0.124 0.124-0.016 0.272 0.016 0.334 0.023-0.163 0.093-0.388 0.124-0.505 0.109 0.039 0.054 0.093 0.109 0.163 0.109-0.148 0.039-0.327 0.039-0.42 0.008 0.039 0.078 0.078 0.124 0.132 0.132-0.124 0.016-0.28 0.039-0.412-0.039 0.101 0.132 0.326 0.179 0.661 0.14s0.614-0.187 0.692-0.249c-0.14 0.016-0.327 0.023-0.42 0.008 0.187-0.047 0.591-0.218 0.661-0.288-0.078 0-0.155-0.023-0.21-0.062 0.109 0.016 0.49-0.031 0.607-0.077-0.14-0.031-0.226-0.117-0.264-0.171 0.49 0.156 1.035 0.105 1.298 0.039 0.062-0.016 0.070-0.095-0.054-0.086-0.218 0.016-0.637-0.047-0.746-0.101 0.101 0.078 0.225 0.124 0.311 0.14-0.202 0.054-0.482 0.093-0.894-0.132z"></path>
<path fill="#00d860" d="M32.433 27.89c0.039-0.023 0.147-0.078 0.194-0.124-0.086 0.023-0.295-0.023-0.35-0.070 0.078 0 0.202-0.039 0.357-0.109-0.28-0.008-0.474-0.008-0.575-0.062s-0.287-0.039-0.357-0.023-0.047 0.132 0.248 0.101c-0.124 0.086-0.458 0.117-0.583 0.086 0.031 0.101 0.054 0.202 0.023 0.256 0.163 0.093 0.591 0.21 0.801 0.194-0.187-0.070-0.288-0.148-0.132-0.163s0.241-0.047 0.373-0.086z"></path>
<path fill="#000" d="M31.951 28.396c0.372-0.031 0.87-0.038 1.267-0.373 0.101-0.086 0.169-0.057 0.070 0.031-0.21 0.187-0.731 0.443-1.228 0.451-0.203 0.003-0.295-0.093-0.109-0.109z"></path>
<path fill="#00d860" d="M34.739 27.78c-0.093 0.035-0.354 0.078-0.431 0.066s-0.19-0.016-0.253 0.023-0.066 0.062 0.019 0.070 0.194 0.016 0.249 0.012c-0.070 0.039-0.117 0.093-0.132 0.117 0.124-0.031 0.354 0.023 0.42 0.062-0.051 0.016-0.109-0.004-0.152-0.027 0.21 0.222 0.832 0.222 0.933 0.183-0.047 0.035-0.089 0.070-0.136 0.082 0.175 0.031 0.377 0.027 0.575-0.089-0.066 0.012-0.264-0.008-0.315-0.012 0.041-0.040 0.092-0.071 0.149-0.089l0.003-0.001c-0.077-0.016-0.322-0.008-0.381 0.023 0.023-0.047 0.066-0.105 0.113-0.124-0.307 0-0.68-0.004-0.816-0.078 0.218 0.023 0.459-0.105 0.56-0.105-0.171-0.004-0.357-0.043-0.404-0.113zM33.958 27.95c-0.152 0.031-0.381 0.093-0.443 0.128s-0.128 0.054 0.008 0.054 0.505 0.016 0.587 0.027c-0.206-0.031-0.486-0.039-0.54-0.039s-0.117-0.004-0.016-0.035 0.233-0.101 0.404-0.136zM33.65 28.312c0.054 0 0.291 0 0.385-0.082 0.097 0.074 0.284 0.179 0.404 0.179s0.109 0.031 0.004 0.043c-0.105 0.012-0.311-0.050-0.416-0.128-0.14 0.051-0.256 0.008-0.377-0.012zM31.849 29.359c0.241 0.093 0.56 0.163 0.793 0.086 0.132 0.117 0.404 0.124 0.552 0.093s0.28-0.047 0.443 0.008c0.163 0.054 0.497 0.058 0.591 0.136-0.086 0.004-0.268 0-0.311 0.012s-0.019 0.039 0.058 0.081c-0.264-0.016-0.719 0.097-0.859 0.218 0.050-0.121 0.206-0.284 0.451-0.284-0.14-0.050-0.587-0.054-0.731 0.035-0.043-0.047-0.093-0.124-0.097-0.155-0.237 0.136-0.703-0.058-0.89-0.229zM31.233 28.922c0.287-0.041 0.482-0.132 0.568-0.218 0.051 0.047 0.26 0.093 0.49 0.023-0.047 0.035-0.051 0.101-0.031 0.136-0.152 0.004-0.439 0.078-0.536 0.128s-0.381 0.085-0.474 0.035c-0.093-0.050-0.097-0.093-0.016-0.105z"></path>
<path fill="#00d860" d="M32.259 28.866c-0.152 0.004-0.439 0.078-0.536 0.128 0.019 0.039 0.031 0.101 0.035 0.144 0.28-0.101 0.921-0.163 1.166-0.124-0.117 0.008-0.338 0.128-0.462 0.144 0.303-0.023 0.598 0.039 0.676 0.058s0.093 0.078 0.035 0.132-0.085 0.062 0.039 0.066c0.124 0.004 0.381-0.012 0.498-0.124-0.047-0.051-0.167-0.031-0.202-0.066 0.082-0.027 0.175-0.086 0.21-0.128-0.21-0.004-0.288-0.008-0.358-0.023s-0.121-0.035-0.035-0.081c0.086-0.047 0.124-0.086 0.152-0.117-0.152 0.043-0.389 0.078-0.587-0.078 0.074 0.019 0.249 0.008 0.311-0.019-0.066-0.035-0.12-0.062-0.175-0.062 0.159-0.078 0.474-0.148 0.863 0.008 0.194-0.016 0.404-0.008 0.552 0.031 0.062-0.062 0.194-0.21 0.264-0.249-0.458 0.039-1.282-0.047-1.267-0.287-0.148 0.194-0.49 0.303-0.637 0.272-0.016 0.070 0.047 0.156 0.101 0.202-0.156 0.031-0.42 0.054-0.544 0.031 0.070 0.070 0.202 0.132 0.28 0.124-0.163 0-0.249 0.031-0.377 0.019z"></path>
<path fill="#00d860" d="M33.21 29.413c0.124 0.004 0.381-0.012 0.498-0.124-0.047-0.051-0.167-0.031-0.202-0.066 0.082-0.027 0.175-0.086 0.21-0.128 0.326-0.027 0.618-0.011 0.758-0.054s0.498-0.019 0.568-0.039c-0.311 0.050-0.373 0.077-0.389 0.128s0.101 0.093 0.175 0.093c-0.14-0.008-0.315 0.14-0.331 0.198-0.186-0.109-0.276 0.019-0.295 0.062-0.078-0.031-0.334-0.023-0.467 0.089-0.171-0.051-0.284-0.078-0.455-0.051 0.105-0.023 0.086-0.093-0.070-0.109zM34.703 28.504c0.105-0.004 0.334 0.008 0.416-0.004-0.054 0.027-0.124 0.078-0.14 0.101 0.264-0.031 0.625-0.051 0.73-0.035-0.128-0.019-0.26 0.062-0.326 0.105s-0.027 0.070 0.062 0.082 0.21 0.082 0.047 0.058-0.486-0.023-0.563-0.012-0.121-0.027-0.008-0.043 0.19-0.054 0.245-0.086c-0.093 0.023-0.272 0.023-0.326 0.008s-0.089-0.047-0.027-0.062 0.019-0.039-0.047-0.031-0.233 0.078-0.327 0.167c0.101-0.105 0.19-0.198 0.264-0.249z"></path>
<path fill="#000" d="M33.518 28.68c0.128 0.144 0.28 0.226 0.521 0.233 0.051 0.002 0.145 0.069 0.023 0.074-0.327 0.012-0.49-0.066-0.633-0.276-0.030-0.043 0.025-0.103 0.089-0.031zM35.465 25.961c0.172 0.081 0.517 0.152 0.785 0.14 0.047-0.002 0.141 0.048 0.023 0.058-0.303 0.027-0.575-0.015-0.828-0.156-0.070-0.039-0.047-0.074 0.019-0.043z"></path>
<path fill="#00d860" d="M35.639 25.958c0.264-0.008 0.462-0.004 0.544 0.074 0.151-0.047 0.424-0.074 0.486-0.062s0.132-0.016-0.012-0.051c-0.144-0.035-0.478-0.046-0.583-0.027s-0.432 0.031-0.54 0.019c0.047 0.008 0.077 0.016 0.105 0.047zM36.665 26.063c0.124-0.066 0.482-0.004 0.591-0.051-0.078 0.093 0.249 0.101 0.532 0.027-0.109 0.070-0.342 0.082-0.443 0.124s-0.156 0.012-0.233-0.023-0.276-0.105-0.447-0.078z"></path>
<path fill="#00d860" d="M37.789 26.039c-0.284 0.074-0.61 0.066-0.532-0.027-0.109 0.047-0.466-0.016-0.591 0.051 0.128-0.078 0.225-0.016 0.318-0.175 0.058 0.012 0.194 0.020 0.241-0.043 0.082 0.019 0.226 0.054 0.268 0.097s0.109-0.012 0.054-0.077c0.128-0.047 0.047 0.055 0.346-0.019 0.062-0.016 0.214-0.043 0.264-0.047-0.101 0.082-0.222 0.171-0.369 0.241z"></path>
<path fill="#ff0" d="M32.271 24.735c-0.005-0.588-0.062-5.51-0.062-6.648 0-0.272-0.14-0.218-0.14 0v6.617c0.064 0.012 0.151 0.023 0.202 0.031zM34.434 17.73l0.243 7.017-0.042 0.056-0.141 0.002-0.153-7.076h0.094zM36.479 23.655c-0.020-0.715-0.109-4.022-0.144-5.653-0.005-0.217-0.134-0.179-0.132 0.008 0.014 1.313 0.092 4.987 0.106 5.649 0.051 0 0.138-0.005 0.17-0.004z"></path>
<path fill="#fff" d="M33.24 18.896l-2.068-0.031c-0.116 0.42 0.404 0.412 0.599 0.303 0.225 0.171 0.396 0.156 0.521 0.016 0.179 0.148 0.404 0.109 0.497 0.016 0.249 0.187 0.505 0 0.451-0.303zM33.396 19.937l-2.114-0.008c-0.365 0.35 0.109 0.521 0.513 0.28 0.054 0.117 0.303 0.187 0.497 0.093 0.179 0.14 0.404 0.039 0.521-0.078 0.218 0.101 0.474 0.132 0.583-0.287zM33.336 21.259l-2.036-0.016c-0.039 0.365 0.373 0.319 0.536 0.226 0.156 0.241 0.498 0.186 0.63 0.046 0.194 0.132 0.373 0.101 0.474-0.023 0.225 0.194 0.412-0.054 0.396-0.233zM33.438 22.581l-2.277-0.039c-0.124 0.389 0.225 0.459 0.389 0.365 0.054 0.226 0.357 0.148 0.435-0.016 0.117 0.117 0.264 0.054 0.334-0.023 0.031 0.21 0.295 0.218 0.497 0.039 0.412 0.288 0.801-0.047 0.622-0.326zM35.456 22.037l-1.896-0.016c0.086 0.389 0.272 0.49 0.575 0.264 0.225 0.233 0.598 0.148 0.692 0.031 0.412 0.334 0.637-0.054 0.63-0.28zM35.262 20.739l-1.834-0.054c0.031 0.466 0.474 0.451 0.7 0.249 0.171 0.218 0.474 0.156 0.583 0 0.233 0.233 0.614 0.093 0.552-0.194zM35.504 19.276h-1.974c0.023 0.326 0.459 0.513 0.793 0.202 0.093 0.373 0.451 0.256 0.606 0.109 0.225 0.288 0.746-0.039 0.575-0.311zM35.388 18.283l-1.764 0.023c-0.031 0.287 0.389 0.412 0.544 0.179 0.086 0.148 0.381 0.132 0.466-0.008 0.14 0.218 0.311 0.070 0.365 0 0.202 0.148 0.42 0.078 0.389-0.194zM37.454 18.926l-2.161-0.023c-0.008 0.225 0.225 0.319 0.365 0.225 0 0.218 0.303 0.288 0.498 0.117 0.132 0.187 0.521 0.241 0.676-0.016 0.319 0.264 0.661 0.078 0.622-0.303zM37.424 20.7l-2.114-0.008c0.016 0.295 0.357 0.396 0.552 0.241 0.047 0.249 0.311 0.264 0.466 0.14 0.187 0.21 0.498 0.226 0.668-0.008 0.257 0.093 0.451-0.124 0.428-0.365zM37.314 22.294l-1.671-0.023c0 0.296 0.35 0.334 0.505 0.179 0.163 0.194 0.412 0.194 0.552 0.039 0.225 0.194 0.567 0.14 0.614-0.194z"></path>
<path fill="#000" d="M34.634 24.804c-0.901 0.016-1.819 0.016-2.441-0.078s-0.818-0.181-1.244-0.435c-0.637-0.381-0.793-0.474-1.694-1.003-0.138-0.081-0.288 0.019-0.093 0.147 0.909 0.599 1.254 0.82 1.686 1.104 0.451 0.295 0.741 0.558 1.018 0.87 0.358 0.404 0.622 0.412 0.785 0.35s0.42-0.148 0.676-0.086c0.257 0.062 0.598 0.070 0.777 0.039 0.163 0.148 0.536 0.117 0.746 0.070s0.365-0.070 0.513-0.039 0.373 0.008 0.521-0.016 0.536-0.062 0.808-0.023c0.272 0.039 0.552 0.016 0.731-0.039s0.505-0.039 0.614-0.008c0.155-0.117 0.233-0.264 0.272-0.42 0.183-0.023 0.243-0.046 0.284-0.152 0.074-0.194 0.144-0.385 0.167-0.47h0.074l0.023-0.175-0.151-0.175 0.054-0.334 0.163-0.039c0.008-0.101-0.039-0.257-0.070-0.319-0.979 0.039-1.939 0.070-2.627 0.086-0.078 0.062-0.163 0.226-0.179 0.327-0.42 0.070-0.668 0.101-0.777 0.124s-0.17 0.032-0.256 0.148c-0.14 0.187-0.272 0.404-0.381 0.544z"></path>
<path fill="#000" d="M37.78 23.616c0.048-0.165 0.175-0.609 0.405-1.448 0.039-0.14-0.097-0.195-0.147-0.016-0.274 0.98-0.377 1.347-0.412 1.469 0.053-0.001 0.128-0.007 0.155-0.006z"></path>
<path fill="#fff" d="M39.297 21.974c-0.33 0.171-0.49 0.237-0.641 0.179-0.139-0.054-0.344-0.084-0.464-0.025-0 0.015-0.003 0.028-0.007 0.041l0-0.001c-0.355 1.416-0.463 1.793-0.572 2.169l0.259-1.042c0.245 0.086 0.666 0.098 0.764-0.007 0.101-0.109 0.377-0.086 0.517-0.078 0.089-0.117 0.124-0.261 0.101-0.331s-0.016-0.194 0.019-0.291 0.082-0.412 0.023-0.614z"></path>
<path fill="#00b800" d="M31.975 25.354c0.241-0.155 0.653-0.124 0.863 0.031 0.249-0.14 0.7-0.101 0.91 0.086 0.318-0.217 0.591-0.249 0.901-0.039 0.241-0.171 0.614-0.186 0.902 0.016 0.28-0.132 0.591-0.241 0.863 0.047-0.163-0.117-0.513-0.218-0.863 0.054-0.272-0.272-0.746-0.171-0.902 0.016-0.202-0.241-0.63-0.28-0.886 0.016-0.28-0.233-0.699-0.241-0.925-0.062-0.179-0.14-0.443-0.256-0.863-0.163z"></path>
<path fill="#cf6200" d="M36.222 25.022c-1.236 0.214-3.929 0.062-4.52-0.086-0.203-0.051-0.148-0.124 0.023-0.086 0.681 0.155 2.133 0.156 2.934 0.117 0.155-0.206 0.4-0.556 0.474-0.653s0.106-0.106 0.261-0.132c0.276-0.047 0.433-0.072 0.672-0.113 0.004 0.031 0.004 0.070 0.004 0.093-0.019 0.016-0.039 0.043-0.054 0.051 0 0.159 0.031 0.548 0.062 0.688 0.031-0.004 0.070-0.016 0.089-0.019 0.054-0.016 0.109 0.124 0.054 0.14z"></path>
<path fill="#cf6200" d="M38.247 25.082c0.045-0.001 0.138-0.003 0.163-0.004 0.051-0.001 0.121-0.036 0.152-0.114s0.127-0.365 0.162-0.486l-0.124-0.188c0.027-0.155 0.062-0.364 0.066-0.407 0.062-0.023 0.128-0.047 0.159-0.058 0.008-0.035-0.007-0.13-0.039-0.161-0.532 0.020-2.126 0.076-2.417 0.080-0.070 0-0.101-0.003-0.128 0.097-0.148 0.552 0.056 1.326 0.614 1.772 0.039 0.031 0.088 0.005 0.023-0.054-0.093-0.086-0.237-0.261-0.334-0.433 0.109-0.002 0.33-0.005 0.396-0.008 0.032 0.131 0.131 0.406 0.15 0.453s0.067 0.053 0.045-0.016c-0.054-0.163-0.082-0.349-0.105-0.439 0.101-0.002 0.292-0.001 0.408-0.007 0.006 0.148 0.021 0.346 0.025 0.4s0.051 0.058 0.051-0.004c0.001-0.062 0.002-0.325 0.001-0.403 0.132-0.004 0.3-0.009 0.362-0.009-0.009 0.084-0.025 0.356-0.031 0.399-0.009 0.063 0.024 0.093 0.040 0.004s0.047-0.299 0.055-0.404c0.053-0.002 0.191-0.007 0.249-0.009-0.006 0.083-0.083 0.335-0.107 0.401s0.014 0.068 0.041 0.006c0.028-0.064 0.113-0.317 0.121-0.407z"></path>
<path fill="#000" d="M36.482 25.019c-0.043-0.086-0.175-0.39-0.187-0.611 0.113-0.002 0.395-0.007 0.531-0.010 0.020 0.167 0.071 0.526 0.099 0.612-0.159 0.004-0.353 0.009-0.443 0.010zM36.919 24.394c0.015 0.127 0.081 0.565 0.092 0.616 0.115-0.007 0.383-0.008 0.429-0.012-0.005-0.117-0.024-0.554-0.026-0.616-0.121 0.003-0.435 0.011-0.496 0.013zM36.318 23.852c-0.022 0.112-0.025 0.351-0.019 0.453 0.136 0.003 0.471-0.005 0.517-0.009-0.011-0.116-0.030-0.326-0.041-0.457-0.111 0.005-0.383 0.011-0.457 0.013zM36.874 23.837c0.004 0.109 0.028 0.375 0.036 0.456 0.118-0.003 0.405-0.009 0.502-0.013-0.005-0.1-0.021-0.421-0.023-0.459-0.156 0.004-0.417 0.014-0.516 0.016zM37.49 23.819c0.005 0.101 0.018 0.386 0.014 0.46 0.125-0.003 0.363-0.006 0.437-0.012 0.006-0.101 0.022-0.391 0.014-0.465-0.14 0.005-0.363 0.013-0.465 0.016zM38.040 23.799c0 0.086-0.011 0.386-0.015 0.468 0.124-0.005 0.404-0.015 0.477-0.016 0.019-0.1 0.058-0.36 0.070-0.47-0.117 0.004-0.447 0.016-0.532 0.019zM38.522 24.352c-0.159 0.005-0.416 0.012-0.503 0.015-0.013 0.197-0.038 0.537-0.050 0.615 0.14-0.003 0.424-0.012 0.486-0.014 0.047-0.093 0.148-0.385 0.171-0.474-0.035-0.054-0.062-0.086-0.105-0.142zM37.508 24.379c0 0.070 0.012 0.571 0.015 0.614 0.091-0.003 0.328-0.006 0.363-0.010 0.018-0.195 0.044-0.569 0.049-0.615-0.162 0.004-0.32 0.009-0.427 0.012zM35.444 24.259l-0.202 0.036c-0.093 0.151-0.439 0.617-0.482 0.671 0.241-0.007 0.617-0.014 0.708-0.023-0.007-0.125-0.023-0.623-0.024-0.685zM35.534 24.241c0.005 0.159 0.020 0.584 0.024 0.697 0.119-0.007 0.339-0.021 0.429-0.029-0.021-0.2-0.058-0.679-0.066-0.737-0.1 0.018-0.297 0.053-0.386 0.069z"></path>
<path fill="#000" d="M33.447 22.563c0.027 0 0.031 0.024-0 0.023l-2.296-0.028c-0.031-0-0.027-0.024 0-0.023l2.296 0.028zM35.253 20.724c0.027 0.001 0.031 0.024-0.001 0.023l-1.819-0.050c-0.031-0.001-0.027-0.024 0.001-0.023l1.819 0.050zM33.333 21.25c0.027 0 0.031 0.024-0 0.023l-2.036-0.015c-0.031 0-0.027-0.023 0-0.023l2.036 0.015zM33.393 19.928c0.027 0 0.031 0.023 0 0.023l-2.13-0.011c-0.031 0-0.027-0.023 0-0.023l2.129 0.011zM33.246 18.884c0.027 0 0.031 0.024-0 0.023l-2.069-0.031c-0.031-0.001-0.027-0.024 0-0.023l2.069 0.031z"></path>
<path fill="#fff" d="M35.388 18.274c0.027-0 0.031 0.023 0 0.023l-1.776 0.017c-0.031 0-0.028-0.023-0-0.023l1.776-0.017z"></path>
<path fill="#000" d="M35.498 19.267c0.027 0 0.031 0.023 0 0.023h-1.963c-0.031 0-0.027-0.023 0-0.023h1.963zM37.424 20.682c0.027 0 0.031 0.023 0 0.023h-2.115c-0.031 0-0.027-0.023 0-0.023h2.115zM37.454 18.914c0.027 0 0.031 0.024-0 0.023l-2.161-0.021c-0.031-0-0.027-0.024 0-0.023l2.161 0.021zM35.456 22.022c0.027 0 0.031 0.024-0 0.023l-1.901-0.013c-0.031-0-0.027-0.024 0-0.023l1.901 0.013zM37.314 22.279c0.027 0 0.031 0.024-0 0.023l-1.671-0.022c-0.031-0-0.027-0.024 0.001-0.023l1.671 0.022z"></path>
<path fill="#ef072d" d="M38.821 22.599c0.047-0.104 0.054-0.344 0.027-0.435-0.023 0.006-0.050 0.009-0.077 0.009-0.042 0-0.082-0.008-0.119-0.022l0.002 0.001c-0.027-0.011-0.061-0.022-0.096-0.030l-0.006-0.001c-0.007 0.12-0.050 0.427-0.104 0.545-0.094 0.027-0.283-0.005-0.391-0.038l-0.078 0.282c0.063 0.014 0.136 0.022 0.211 0.022 0.079 0 0.156-0.009 0.23-0.026l-0.007 0.001c-0.010 0.18-0.034 0.343-0.131 0.456 0.159 0.004 0.301-0.020 0.353-0.075 0.005-0.005 0.010-0.010 0.016-0.014l0-0c0.073-0.123 0.075-0.282 0.093-0.39 0.054 0.004 0.124-0.012 0.155-0.043s0.082-0.047 0.132-0.043c0.046 0.004 0.118-0.006 0.209-0.043 0.002-0.055 0.013-0.115 0.032-0.167 0.010-0.028 0.021-0.076 0.031-0.133-0.116 0.055-0.374 0.148-0.482 0.144z"></path>
<path fill="#000" d="M31.404 12.474c-0.237 0.007-0.752 0.012-0.86 0.072s-0.156 0.088 0.034 0.122 0.51 0.124 0.685 0.232c0.176 0.108 0.323 0.299 0.274 0.572-0.145 0.82 0.284 1.61 0.905 1.907 0.060 0.029 0.074 0.051 0.061 0.162s-0.054 0.298-0.088 0.345c-0.034 0.048-0.051 0.125 0.057 0.088-0.074 0.139-0.24 0.416-0.29 0.487-0.497-0.061-0.902 0.007-0.939 0.527-0.004 0.051 0.014 0.132 0.091 0.004s0.166-0.25 0.378-0.284c-0.125 0.193-0.165 0.365-0.145 0.477s0.051 0.179 0.105 0.037c0.054-0.142 0.154-0.275 0.26-0.355 0.040-0.030 0.068-0.037 0.037 0.051s0.013 0.277 0.074 0.342c0.061 0.064 0.091 0.037 0.074-0.068s0.010-0.324 0.138-0.392c0.186-0.098 0.345-0.047 0.419 0.081s0.138 0.007 0.057-0.139-0.166-0.247-0.301-0.257c0.118-0.21 0.257-0.463 0.287-0.514s0.078-0.074 0.118-0.044c0.041 0.030 0.068 0.027 0.108-0.057s0.111-0.335 0.213-0.436c0.051-0.014 0.132-0.034 0.162-0.061 0.132 0.193 0.25 0.406 0.281 0.453s0.064 0.068 0.034 0.166-0.135 0.409-0.152 0.477c-0.368 0.013-0.537 0.020-0.656 0.226-0.052 0.090 0.031 0.125 0.118 0.078s0.213-0.088 0.277-0.078c0.064 0.010 0.094 0.043 0.030 0.074-0.226 0.112-0.368 0.253-0.358 0.45 0.003 0.071 0.033 0.106 0.088 0.010 0.078-0.135 0.22-0.27 0.392-0.308-0.010 0.166 0.027 0.409 0.128 0.46s0.109-0.001 0.071-0.098c-0.061-0.156 0.002-0.312 0.078-0.396 0.159-0.176 0.52 0.068 0.588 0.129s0.129 0.086 0.091-0.071c-0.051-0.209-0.348-0.331-0.601-0.365 0.071-0.342 0.26-1.031 0.362-1.268 0.149 0.081 0.265-0.133 0.514-0.041 0.419 0.156 1.047 0.548 1.155 0.636s0.149 0.068 0.203 0.020c0.054-0.047 0.149 0 0.223 0.013s0.142 0.034 0.047-0.156c-0.094-0.189-0.324-0.521-0.709-0.778 0.23 0.020 0.541 0.020 0.541-0.040s-0.358-0.176-0.507-0.189c0.142-0.034 0.358-0.115 0.459-0.23 0.060-0.068-0.012-0.084-0.223-0.088-0.649-0.013-0.973-0.008-1.311-0.203-0.54-0.311-0.85-0.639-1.115-0.778-0.142-0.074-0.228-0.246-0.283-0.395-0.176-0.473-0.167-0.686-0.579-0.842s-0.886 0.035-1.102 0.231z"></path>
<path fill="#fff" d="M31.431 12.582c-0.105-0.004-0.311-0.029-0.482-0.012-0.039 0.004-0.086 0.023 0.008 0.035s0.346 0.074 0.435 0.105 0.051 0.078-0.027 0.058-0.106 0.009-0.043 0.054c0.33 0.233 0.365 0.323 0.28 1.123 0.062 0.043 0.113 0.074 0.167 0.101s0.039 0.066-0.019 0.051-0.113 0.019-0.019 0.039 0.136 0.062 0.047 0.058c-0.089-0.004-0.194 0.074-0.019 0.054s0.245 0.062 0.039 0.066c-0.206 0.004-0.128 0.070-0.019 0.070 0.194 0 0.136 0.054 0.086 0.054s-0.074 0.066 0.054 0.054c0.128-0.012 0.179-0.016 0.225-0.008s0.066 0.046-0.004 0.051c-0.070 0.004-0.066 0.054 0.039 0.054s0.149 0.032 0.054 0.051c-0.039 0.008-0.093 0.027 0.019 0.043 0.194 0.027 0.202 0.074 0.14 0.082s-0.070 0.043 0.019 0.051c0.089 0.008 0.167 0.035 0.093 0.054s-0.113 0.062-0.020 0.070c0.093 0.008 0.171 0.043 0.101 0.066s-0.086 0.066 0.004 0.062 0.124 0.047 0.062 0.081c-0.062 0.035-0.105 0.058-0.144-0.004s-0.062-0.082-0.074-0.035c-0.012 0.046-0.039 0.016-0.070-0.054s-0.086-0.089-0.070-0.035-0.054 0.062-0.121 0.035c0.245 0.249 0.606 0.474 1.181 0.241 0.049-0.020 0.058 0 0.097 0.082s0.148 0.261 0.187 0.327 0.070 0.007 0.089-0.058c0.078-0.257 0.136-0.447 0.159-0.517s0.132-0.14 0.097 0.105c0.086-0.058 0.464-0.113 0.758-0.004 0.322 0.121 0.647 0.307 0.812 0.432 0.032 0.028 0.075 0.045 0.121 0.045 0.009 0 0.018-0.001 0.027-0.002l-0.001 0c0.078-0.008 0.097-0.019-0.051-0.156s-0.085-0.202 0.008-0.136c0.093 0.066 0.144 0.027 0.074-0.054s-0.237-0.241-0.291-0.28-0.062-0.054-0.187-0.062-0.389-0.008-0.466-0.008-0.101 0.008 0.070 0.070c0.171 0.062 0.521 0.287 0.598 0.342s0.132 0.179-0.039 0.070-0.707-0.443-1.065-0.567c-0.816 0.054-1.461 0.163-1.943-0.365-0.231-0.253-0.241-0.832 0.147-1.073-0.078-0.066-0.066-0.105-0.035-0.121s0.043-0.031 0.012-0.070c-0.031-0.039-0.027-0.074 0-0.089-0.085-0.047-0.124-0.101-0.12-0.159-0.105-0.023-0.152-0.148-0.292-0.109s-0.21 0.008-0.252-0.027c-0.043-0.035-0.078-0.051-0.156-0.043s-0.14-0.023-0.144-0.062 0.066-0.058 0.171-0.012c0.221 0.097 0.4 0.144 0.536-0.039s-0.039-0.354-0.299-0.404c-0.26-0.051-0.451 0.14-0.548 0.229z"></path>
<path fill="#fff" d="M32.738 12.513c-0.078-0.085-0.218-0.163-0.287-0.187s-0.078 0.047-0.039 0.082c-0.031 0.047-0.043 0.159 0.012 0.191s0.055 0.075 0.004 0.101c-0.078 0.039-0.051 0.245 0.066 0.187 0.039-0.019 0.070-0.012 0.062 0.019s0.008 0.070 0.043 0.078 0.031 0.058 0.023 0.078 0.004 0.027 0.043 0.031 0.043 0.097-0.027 0.128c0.086 0 0.109-0.016 0.132 0.054s0.117 0.085 0.117 0.171-0.016 0.101-0.117 0.086-0.14 0.016-0.171 0.054-0.039 0.078 0.039 0.082 0.093 0.039 0.016 0.074-0.206 0.012-0.225 0.086c-0.019 0.074 0 0.109 0.058 0.081s0.179-0.077 0.225-0.105 0.089-0.031 0.128 0.031 0.008 0.132-0.058 0.078c-0.066-0.054-0.097-0.004-0.136 0.027s-0.097 0.051-0.159 0.051c-0.062 0-0.105 0.008-0.097 0.148 0.023 0.42 0.35 0.731 0.948 0.723s0.894-0.016 0.983-0.004c-0.198-0.109-0.323-0.167-0.393-0.159s-0.128 0.019-0.097-0.035-0.004-0.054-0.035-0.078-0.070-0.054-0.132 0.012-0.21 0.14-0.284 0.156-0.163 0.012-0.093-0.058 0.225-0.093 0.272-0.124 0.047-0.050 0.047-0.074-0.012-0.089 0.078-0.039c0.179 0.101 0.459 0.252 0.532 0.249s0.124-0.035 0.058-0.078-0.086-0.105-0.066-0.128 0.031-0.047 0.148 0.019c0.116 0.066 0.307 0.151 0.377 0.182s0.163 0.019 0.019-0.086c-0.144-0.105-0.591-0.4-0.715-0.494s-0.070 0.019-0.058 0.054-0.086 0.078-0.136 0.035-0.086-0.089-0.016-0.128 0.086-0.043-0.019-0.136c-0.105-0.093-0.136-0.085-0.112-0.008s0.031 0.163-0.078 0.121-0.163-0.093-0.093-0.136c0.070-0.042 0.159-0.066 0.043-0.163s-0.082 0-0.109 0.054-0.117 0.054-0.167 0.012-0.074-0.086-0.039-0.121 0.031-0.054 0.082-0.027 0.128 0.012 0.035-0.070-0.128-0.047-0.109 0-0.054 0.128-0.171 0.019c-0.055-0.051-0.054-0.121 0.004-0.132s0.064-0.042 0.023-0.101c-0.237-0.346-0.14-0.626-0.377-0.882z"></path>
<path fill="#cf6200" d="M32.777 12.561c-0.020 0.030-0.028 0.029-0.066 0.054-0.046 0.031-0.057 0.119 0.021 0.109 0.054-0.007 0.085-0.039 0.106-0.065-0.017-0.033-0.037-0.066-0.062-0.098zM32.534 12.366c-0.060 0.058-0.070 0.084-0.040 0.084 0.036 0 0.021 0.005-0.005 0.047s0.052 0.062 0.083 0.031 0.036-0.042 0.052 0c0.013 0.034 0.064 0.002 0.096-0.031-0.053-0.051-0.124-0.098-0.186-0.131zM32.427 12.701c-0.078 0.039-0.051 0.245 0.066 0.187 0.039-0.019 0.070-0.012 0.062 0.019-0.004 0.016-0.002 0.035 0.007 0.050 0.051-0.022 0.094-0.054 0.129-0.093l0-0c0.073-0.083 0.005-0.078-0.103-0.078s-0.14-0.021-0.037-0.083c0.093-0.056 0.032-0.094-0.096-0.076 0.019 0.026 0.009 0.055-0.028 0.074zM32.872 13.159c-0.057-0.062-0.021-0.093 0.041-0.124 0.014-0.006 0.025-0.016 0.033-0.028l0-0c-0.018-0.068-0.032-0.134-0.050-0.198-0.033 0.009-0.071 0.082-0.081 0.118-0.016 0.052-0.031 0.083-0.083 0.067-0.046-0.014-0.092 0.038-0.102 0.093 0.007 0.003 0.018 0.005 0.033 0.007 0.022 0.002 0.032 0.031 0.026 0.063 0.14-0.004 0.164 0.092 0.188 0.159 0.026 0.073 0.057 0.062 0.078 0.021s-0.026-0.114-0.083-0.176z"></path>
<path fill="#ff0" d="M32.911 13.973c-0.025 0.057-0.026 0.052-0.109 0.057s-0.187 0.019-0.233 0.068c-0.025 0.026-0.168 0.033-0.168 0.096s0 0.117 0.062 0.121c0.062 0.004 0.070 0.012 0.047 0.058s-0.039 0.124 0.070 0.132c0.109 0.008 0.187-0.027 0.214 0.035s-0.002 0.162 0.019 0.198 0.095 0.060 0.209 0.096c0.076 0.024 0.363 0.037 0.451 0.027s0.055-0.063-0.033-0.071c-0.088-0.008-0.153-0.021-0.173-0.085s-0.039-0.099 0.010-0.153c0.049-0.054 0.098-0.096 0.070-0.187s-0.075-0.197-0.179-0.226c-0.104-0.028-0.071-0.17-0.174-0.184-0.039-0.005-0.072-0.005-0.083 0.018z"></path>
<path fill="#cf6200" d="M32.409 14.816c0.089 0.008 0.167 0.035 0.093 0.054s-0.113 0.062-0.020 0.070c0.093 0.008 0.171 0.043 0.101 0.066s-0.086 0.066 0.004 0.062 0.124 0.047 0.062 0.081c-0.062 0.035-0.105 0.058-0.144-0.004s-0.062-0.082-0.074-0.035c-0.012 0.046-0.039 0.016-0.070-0.054s-0.086-0.089-0.070-0.035-0.054 0.062-0.12 0.035c0.065 0.066 0.138 0.13 0.222 0.185 0.095-0.033 0.201-0.006 0.237-0.002 0.039 0.004 0.159 0.031 0.225 0.066s0.109-0.027 0.082-0.097c-0.027-0.070-0.031-0.046-0.066-0.008s-0.043-0.016-0.039-0.097c0.003-0.069-0.043-0.051-0.058-0.008s-0.051-0.027-0.031-0.070-0.004-0.058-0.039-0.047-0.039 0-0.043-0.078-0.039-0.066-0.051-0.035-0.043-0.012-0.089-0.074c-0.041-0.054-0.088-0.022-0.169 0.010 0.010 0.006 0.029 0.011 0.057 0.013z"></path>
<path fill="#ff0" d="M33.354 15.298c-0.425 0.172-0.731 0.096-0.962-0.057 0.095-0.033 0.203-0.005 0.239-0.001 0.039 0.004 0.159 0.031 0.225 0.066s0.109-0.027 0.082-0.097c0.058 0.074 0.101 0.124 0.171 0.121s0.187-0.016 0.245-0.031zM32.448 13.342c-0.026-0.088-0.052-0.109-0.098-0.104s-0.067-0.005-0.119-0.026c-0.052-0.021-0.119 0.005-0.13 0.098s-0.067 0.14-0.145 0.197c-0.078 0.057-0.124 0.104-0.124 0.197s-0.021 0.119-0.072 0.187c-0.023 0.030-0.056 0.064-0.086 0.1 0.034 0.021 0.065 0.039 0.098 0.055 0.054 0.027 0.039 0.066-0.019 0.051s-0.113 0.019-0.019 0.039 0.136 0.062 0.047 0.058c-0.089-0.004-0.194 0.074-0.019 0.054s0.245 0.062 0.039 0.066c-0.206 0.004-0.128 0.070-0.019 0.070 0.194 0 0.136 0.054 0.086 0.054s-0.074 0.066 0.054 0.054c0.002-0 0.003-0.001 0.005-0.001 0.019-0.019 0.032-0.043 0.042-0.073 0.021-0.062 0.041-0.244 0.114-0.295s0.109-0.124 0.109-0.176 0.109-0.28 0.181-0.337 0.104-0.181 0.078-0.269z"></path>
<path fill="#cf6200" d="M32.295 13.345c-0.074-0.049-0.145-0.021-0.145 0.073s-0.047 0.119-0.109 0.15c-0.062 0.031-0.119 0.109-0.13 0.182s0.010 0.119-0.041 0.176c-0.052 0.057-0.057 0.104-0.021 0.135s0.036 0.036 0.052 0.083c0.016 0.047 0.103-0.005 0.103-0.057s0.021-0.052 0.078-0.083c0.057-0.031 0.15-0.182 0.13-0.223s-0.072-0.078-0.005-0.135c0.067-0.057 0.14-0.062 0.14-0.119s0.021-0.078 0.041-0.098c0.021-0.021-0.047-0.052-0.093-0.083z"></path>
<path fill="#000" d="M32.295 13.27c-0.048-0.019-0.077 0.083-0.010 0.098s0.078-0.073 0.010-0.098zM32.283 13.401c-0.051 0.006-0.109 0.074-0.023 0.062s0.121-0.074 0.023-0.062zM32.181 13.527c-0.053 0.027-0.043 0.097 0.035 0.047s0.097-0.113-0.035-0.047zM32.098 13.635c-0.053 0.026-0.043 0.097 0.035 0.047s0.097-0.113-0.035-0.047z"></path>
<path fill="#000" d="M31.99 13.686c-0.053 0.027-0.019 0.097 0.058 0.047s0.074-0.113-0.058-0.047zM32.056 13.751c-0.053 0.027-0.019 0.097 0.058 0.047s0.074-0.113-0.058-0.047z"></path>
<path fill="#000" d="M31.963 13.778c-0.053 0.027-0.019 0.097 0.058 0.047s0.074-0.113-0.058-0.047zM32.023 13.853c-0.053 0.027-0.019 0.097 0.058 0.047s0.074-0.113-0.058-0.047z"></path>
<path fill="#000" d="M31.933 13.898c-0.053 0.026-0.019 0.097 0.058 0.046s0.074-0.112-0.058-0.046z"></path>
<path fill="#000" d="M31.939 13.967c-0.053 0.027-0.019 0.097 0.058 0.047s0.074-0.113-0.058-0.047z"></path>
<path fill="#cf6200" d="M31.897 14.622c-0.054 0.007-0.088 0.083-0.021 0.099s0.083 0.021 0.083 0.072 0.021 0.124 0.093 0.13c0.073 0.005 0.135-0.078 0.073-0.103s-0.119-0.047-0.124-0.104c-0.005-0.057-0.062-0.098-0.104-0.093z"></path>
<path fill="#ff0" d="M33.805 14.176c0.010 0.012 0.022 0.025 0.035 0.037 0.050 0.043 0.148 0 0.136-0.035s-0.066-0.148 0.058-0.054 0.571 0.389 0.715 0.494c0.144 0.105 0.051 0.117-0.019 0.086s-0.26-0.117-0.377-0.182c-0.117-0.066-0.128-0.043-0.148-0.019-0.016 0.019-0.003 0.066 0.040 0.106-0.069 0.010-0.182-0.005-0.214-0.079-0.039-0.089-0.132-0.198-0.198-0.284-0.025-0.032-0.032-0.051-0.028-0.068z"></path>
<path fill="#00d860" d="M37.661 26.909c-0.097 0.066-0.225 0.183-0.14 0.346 0.010-0.005 0.020-0.012 0.030-0.017 0.38-0.46 0.705-0.944 0.984-1.446 0.003-0.017 0.006-0.034 0.008-0.048-0.109 0.093-0.28 0.186-0.35 0.21 0.047 0.124-0.171 0.288-0.287 0.334 0.047 0.078 0.031 0.194-0.070 0.218 0.023 0.070-0.054 0.070-0.148 0.109s-0.14 0.070-0.171 0.117c0.050-0.027 0.12-0.051 0.159-0.039s0.047 0.070-0.023 0.086-0.116 0.054-0.14 0.086c0.101-0.039 0.245-0.019 0.148 0.047z"></path>
<path fill="#000" d="M33.052 14.032c-0.115-0.1-0.144-0.039-0.097 0.023s0.012 0.093-0.089 0.109-0.253 0.035-0.315 0.035-0.136 0.086 0.012 0.078c0.148-0.008 0.397-0.058 0.463-0.086s0.12-0.078 0.027-0.159zM33.276 14.209c-0.095-0.085-0.128-0.062-0.105 0s-0.019 0.074-0.081 0.093c-0.062 0.019-0.307 0.101-0.412 0.113s-0.128 0.086 0.027 0.082 0.455-0.128 0.49-0.152 0.047-0.070 0.086-0.047 0.074-0.019-0.004-0.089zM33.348 14.457c-0.069 0.041-0.241 0.116-0.311 0.136s-0.128 0.097 0.019 0.086c0.147-0.012 0.322-0.148 0.369-0.175s0.070-0.047 0.109-0.043 0.109-0.051-0.019-0.121-0.206-0.035-0.144 0.019 0.016 0.074-0.023 0.097z"></path>
<path fill="#000" d="M32.137 12.501c-0.19-0.125-0.407 0.137-0.197 0.28 0.184 0.126 0.378-0.161 0.197-0.28z"></path>
<path fill="#fff" d="M31.9 12.615l0.056 0.004c-0.012 0.058 0.047 0.146 0.136 0.124-0.072 0.054-0.212-0.008-0.192-0.128zM32.636 15.447c0.057 0.017 0.257 0.037 0.325 0.040-0.034 0.071-0.064 0.118-0.085 0.169s-0.030 0.054-0.034-0.024c-0.003-0.078-0.047-0.129-0.088-0.048s-0.061 0.112-0.081 0.145c-0.020 0.034-0.051 0.048-0.041-0.037s0.007-0.173 0.003-0.247z"></path>
</svg>
