<!-- Generated by IcoMoon.io -->
<svg version="1.1" xmlns="http://www.w3.org/2000/svg" width="43" height="32" viewBox="0 0 43 32">
<title>STD</title>
<path fill="#ff0" d="M0 0h64v31.519h-64z"></path>
<path fill="#009d00" d="M0 0h64v9.143h-64zM0 22.857h64v9.143h-64z"></path>
<path fill="#f10600" d="M0.044 0c0.089 0 15.956 15.814 15.956 15.814l-16 16.186 0.044-32z"></path>
<path fill="#000" d="M25.748 16.793l-1.998-1.494 2.469 0.002 0.761-2.419 0.761 2.419 2.469-0.002-1.999 1.493 0.765 2.418-1.996-1.496-1.996 1.496zM13.441 16.793l-1.998-1.494 2.469 0.002 0.761-2.419 0.761 2.419 2.469-0.002-1.999 1.493 0.765 2.418-1.996-1.496-1.996 1.496z"></path>
</svg>
