<!-- Generated by IcoMoon.io -->
<svg version="1.1" xmlns="http://www.w3.org/2000/svg" width="43" height="32" viewBox="0 0 43 32">
<title>SVC</title>
<path fill="#0f47af" d="M0 0h42.667v32h-42.667z"></path>
<path fill="#fff" d="M0 10.667h42.667v10.667h-42.667z"></path>
<path fill="#fff" d="M21.287 18.845c0.081 0 0.169 0 0.539-0.090 0.37-0.088 0.676-0.312 0.747-0.345s0.176-0.023 0.176-0.023c-0.039-0.042-0.153-0.146-0.312-0.146-0.162 0-0.097 0-0.234 0.058-0.137 0.055-0.421 0.229-0.902 0.229h-0.009c-0.481 0-0.782-0.174-0.919-0.229-0.137-0.058-0.074-0.058-0.234-0.058-0.162 0-0.273 0.104-0.315 0.146 0 0 0.106-0.009 0.178 0.023s0.377 0.257 0.748 0.345c0.368 0.090 0.458 0.090 0.537 0.090z"></path>
<path fill="#fff" d="M19.867 18.53c0.039-0.023-0.009-0.088-0.009-0.088l0.146-0.032c-0.072-0.032-0.178-0.023-0.178-0.023-0.028 0.023-0.023 0.051-0.028 0.072-0.002 0.021-0.002 0.053 0.014 0.069 0.014 0.014 0.056 0.002 0.056 0.002z"></path>
<path fill="#fff" d="M20.003 18.41l-0.146 0.032s0.049 0.065 0.009 0.088l0.257-0.049s-0.039-0.028-0.12-0.072zM22.71 18.53c-0.039-0.023 0.007-0.088 0.007-0.088l-0.143-0.032c0.072-0.032 0.176-0.023 0.176-0.023 0.030 0.023 0.025 0.051 0.030 0.072 0.002 0.021 0.002 0.053-0.014 0.069-0.016 0.014-0.055 0.002-0.055 0.002z"></path>
<path fill="#fff" d="M22.574 18.41l0.143 0.032s-0.046 0.065-0.007 0.088l-0.257-0.049s0.039-0.028 0.12-0.072z"></path>
<path fill="#000" d="M20.265 18.31l-0.065 0.162 0.030 0.012c0.049 0.021 0.097 0.010 0.12-0.043 0.021-0.056-0.007-0.096-0.053-0.115l-0.032-0.015zM20.278 18.343l0.005 0.002c0.037 0.016 0.059 0.043 0.043 0.087-0.019 0.042-0.055 0.043-0.090 0.027l-0.007-0.002 0.048-0.113z"></path>
<path fill="#000" d="M20.357 18.54l-0.019-0.007 0.072-0.159 0.019 0.007-0.072 0.159z"></path>
<path fill="#000" d="M20.498 18.415c-0.034 0.001-0.066 0.024-0.082 0.058-0.021 0.046-0.001 0.096 0.043 0.117 0.044 0.019 0.096-0.001 0.117-0.050 0.004-0.010 0.007-0.022 0.007-0.035 0-0.036-0.021-0.068-0.051-0.083l-0.001-0c-0.009-0.004-0.020-0.007-0.032-0.007-0.001 0-0.001 0-0.002 0h0zM20.497 18.442c0.008 0 0.017 0.002 0.025 0.005 0.035 0.014 0.044 0.051 0.030 0.083s-0.052 0.049-0.082 0.035c-0.028-0.014-0.043-0.049-0.027-0.083 0.010-0.024 0.030-0.040 0.053-0.040z"></path>
<path fill="#000" d="M20.69 18.526c-0.002-0.012-0.007-0.021-0.018-0.025s-0.030 0-0.035 0.014c-0.005 0.014 0.005 0.026 0.012 0.032l0.012 0.009c0.018 0.016 0.030 0.035 0.018 0.062-0.012 0.030-0.042 0.042-0.069 0.033-0.023-0.009-0.037-0.037-0.030-0.065l0.021 0.005c-0.007 0.016 0.002 0.035 0.018 0.042s0.035-0.005 0.042-0.021c0.007-0.018-0.005-0.030-0.016-0.042l-0.009-0.009c-0.014-0.014-0.025-0.030-0.016-0.053 0.009-0.026 0.037-0.035 0.060-0.026 0.018 0.007 0.028 0.021 0.030 0.039l-0.018 0.005zM20.817 18.535l-0.028 0.097c-0.007 0.028-0.007 0.056 0.023 0.065 0.032 0.009 0.046-0.014 0.055-0.042l0.028-0.1 0.019 0.007-0.030 0.104c-0.009 0.037-0.039 0.060-0.076 0.049-0.037-0.009-0.051-0.044-0.039-0.081l0.030-0.106 0.019 0.007zM21.051 18.776l-0.097-0.159-0.026 0.127-0.019-0.002 0.035-0.18 0.095 0.157 0.025-0.125 0.018 0.002zM21.095 18.771l0.021-0.171 0.018 0.002-0.021 0.174z"></path>
<path fill="#000" d="M21.243 18.607c-0.049-0.002-0.088 0.036-0.090 0.085-0.002 0.053 0.035 0.093 0.083 0.095 0.046 0.002 0.088-0.033 0.090-0.087 0.002-0.049-0.037-0.093-0.083-0.093zM21.24 18.632c0.037 0.002 0.061 0.034 0.058 0.068 0 0 0 0.001 0 0.001 0 0.034-0.027 0.061-0.061 0.061-0 0-0.001 0-0.001 0h0c-0.032-0.002-0.058-0.032-0.058-0.067 0.002-0.035 0.027-0.063 0.062-0.063z"></path>
<path fill="#000" d="M21.505 18.781l-0.134-0.125 0.009 0.13h-0.021l-0.014-0.18 0.134 0.125-0.009-0.127 0.021-0.002zM21.613 18.755l-0.032-0.171 0.021-0.002 0.030 0.15 0.049-0.009 0.005 0.020zM21.706 18.737l-0.039-0.169 0.021-0.004 0.039 0.169z"></path>
<path fill="#000" d="M21.76 18.545c-0.007 0-0.014 0.002-0.022 0.003l-0.018 0.007 0.047 0.167 0.037-0.008c0.028-0.009 0.051-0.030 0.042-0.065-0.005-0.018-0.022-0.034-0.043-0.032 0.009-0.009 0.011-0.027 0.008-0.038-0.009-0.028-0.028-0.034-0.050-0.033zM21.763 18.567c0.011-0.002 0.021 0.003 0.027 0.020 0.007 0.021-0.007 0.027-0.023 0.032l-0.005 0.002-0.017-0.050h0.007c0.003-0.002 0.007-0.003 0.011-0.003l0-0zM21.79 18.637c0.014-0.002 0.028 0.001 0.032 0.018 0.007 0.021-0.009 0.030-0.025 0.035l-0.015 0.005-0.013-0.053 0.010-0.002c0.004-0.001 0.007-0.003 0.012-0.003z"></path>
<path fill="#000" d="M21.94 18.558l0.007 0.018-0.063 0.021 0.021 0.062 0.065-0.023 0.007 0.021-0.083 0.028-0.058-0.164 0.086-0.030 0.005 0.018-0.065 0.023 0.016 0.046z"></path>
<path fill="#000" d="M22.013 18.463c-0.016-0.002-0.029 0.001-0.043 0.008l-0.023 0.010 0.065 0.162 0.018-0.007-0.025-0.070 0.007-0.002 0.072 0.048 0.025-0.008-0.078-0.052c0.021-0.012 0.028-0.037 0.018-0.060-0.005-0.014-0.019-0.028-0.035-0.030zM22.008 18.485c0.009 0.001 0.017 0.007 0.022 0.018 0.009 0.023-0.010 0.035-0.028 0.042l-0.003 0.002-0.022-0.053 0.005-0.002c0.008-0.004 0.018-0.008 0.027-0.007z"></path>
<path fill="#000" d="M22.046 18.44l0.090-0.040 0.009 0.017-0.037 0.016 0.065 0.141-0.019 0.009-0.065-0.141-0.035 0.016z"></path>
<path fill="#000" d="M22.205 18.357l0.012 0.198 0.022-0.012-0.003-0.045 0.068-0.035 0.037 0.030 0.018-0.012-0.153-0.125zM22.228 18.403l0.053 0.043-0.048 0.025-0.005-0.068zM22.37 18.287c-0.017 0.001-0.035 0.006-0.052 0.017l-0.030 0.017 0.092 0.15 0.027-0.015c0.046-0.028 0.067-0.074 0.037-0.125-0.019-0.032-0.045-0.045-0.073-0.043zM22.378 18.314c0.016 0.001 0.032 0.010 0.045 0.030 0.023 0.039 0.001 0.069-0.033 0.090l-0.003 0.002-0.063-0.103 0.005-0.005c0.017-0.009 0.034-0.015 0.050-0.013z"></path>
<path fill="#e60000" d="M19.691 18.942c0.028 0 0.049-0.021 0.049-0.049 0-0.026-0.021-0.046-0.049-0.046-0.025 0-0.049 0.021-0.049 0.046 0 0.028 0.023 0.049 0.049 0.049zM19.417 19.28c0.028 0 0.049-0.021 0.049-0.049s-0.022-0.049-0.049-0.049h-0c-0.026 0-0.049 0.023-0.049 0.049 0 0.028 0.023 0.049 0.049 0.049zM18.783 18.22c0.025 0 0.049-0.023 0.049-0.049-0-0.027-0.022-0.048-0.049-0.049h-0c-0 0-0.001 0-0.001 0-0.026 0-0.047 0.021-0.047 0.047 0 0 0 0.001 0 0.001v-0c0 0.025 0.021 0.049 0.049 0.049zM18.39 18.417c0.028 0 0.053-0.023 0.053-0.053 0-0.028-0.026-0.053-0.053-0.053-0.029 0-0.053 0.024-0.053 0.053v0c0 0.030 0.023 0.053 0.053 0.053zM18.318 17.228c0.028 0 0.053-0.023 0.053-0.053 0-0.028-0.025-0.053-0.053-0.053-0.029 0-0.053 0.024-0.053 0.053v0c0 0 0 0.001 0 0.001 0 0.029 0.023 0.052 0.052 0.052 0 0 0.001 0 0.001 0h-0zM17.987 17.325c0 0 0.001 0 0.001 0 0.029 0 0.052-0.023 0.052-0.052 0-0 0-0.001 0-0.001v0c0-0 0-0.001 0-0.001 0-0.029-0.023-0.052-0.052-0.052-0 0-0.001 0-0.001 0h0c-0.028 0-0.053 0.023-0.053 0.053s0.025 0.053 0.053 0.053zM18.156 16.265c0.030 0 0.053-0.026 0.053-0.053 0-0 0-0.001 0-0.001 0-0.029-0.023-0.052-0.052-0.052-0 0-0.001 0-0.001 0h0c-0 0-0.001 0-0.001 0-0.029 0-0.052 0.023-0.052 0.052 0 0 0 0.001 0 0.001v-0c0 0.028 0.023 0.053 0.053 0.053zM17.86 15.291c0.028 0 0.053-0.023 0.053-0.051-0-0.029-0.024-0.053-0.053-0.053h-0c-0 0-0.001 0-0.001 0-0.029 0-0.052 0.023-0.052 0.052 0 0 0 0.001 0 0.001v-0c0 0.028 0.023 0.051 0.053 0.051zM18.237 15.388c0 0 0.001 0 0.001 0 0.029 0 0.052-0.023 0.052-0.052 0-0 0-0.001 0-0.001v0c0-0.028-0.023-0.053-0.053-0.053s-0.053 0.024-0.053 0.053v0c0 0 0 0.001 0 0.001 0 0.029 0.023 0.052 0.052 0.052 0 0 0.001 0 0.001 0h-0zM18.607 14.576c0.028 0 0.053-0.023 0.053-0.053 0-0.028-0.025-0.051-0.053-0.051-0.030 0-0.053 0.023-0.053 0.051 0 0.030 0.023 0.053 0.053 0.053zM18.325 14.351c0 0 0.001 0 0.001 0 0.029 0 0.052-0.023 0.052-0.052 0-0 0-0.001 0-0.001v0c0-0.028-0.023-0.053-0.053-0.053s-0.053 0.024-0.053 0.053v0c0 0 0 0.001 0 0.001 0 0.029 0.023 0.052 0.052 0.052 0 0 0.001 0 0.001 0h-0zM18.887 13.805c0 0 0.001 0 0.001 0 0.029 0 0.052-0.023 0.052-0.052 0-0 0-0.001 0-0.001v0c0-0 0-0.001 0-0.001 0-0.029-0.023-0.052-0.052-0.052-0 0-0.001 0-0.001 0h0c-0 0-0.001 0-0.001 0-0.029 0-0.052 0.023-0.052 0.052 0 0 0 0.001 0 0.001v-0c0 0 0 0.001 0 0.001 0 0.029 0.023 0.052 0.052 0.052 0 0 0.001 0 0.001 0h-0zM17.74 16.272c0.030 0 0.053-0.023 0.053-0.051s-0.023-0.051-0.053-0.051c-0.028 0-0.051 0.023-0.051 0.051v0c0 0.028 0.023 0.051 0.051 0.051z"></path>
<path fill="#1f601a" d="M22.236 20.178s-0.208-0.016-0.241-0.016c-0.032 0-0.104-0.143-0.137-0.169-0.032-0.023-0.579-0.289-0.933-0.345s-0.898-0.266-1.011-0.322c-0.588-0.282-1.245-0.805-1.391-1.021-0.153-0.225-0.315-0.748-0.386-1.027-0.032-0.13-0.208-0.66-0.208-1.021 0-0.419 0.049-0.764 0.113-1.037 0.062-0.273 0.532-1.074 0.819-1.43 0 0-0.646 1-0.757 1.382-0.111 0.393-0.143 0.872-0.137 1.145 0.007 0.225 0.194 1.046 0.467 1.65 0.218 0.484 0.407 0.541 0.747 0.812 0.16 0.127 0.465 0.329 0.722 0.458 0.257 0.127 0.803 0.289 0.949 0.312 0.143 0.026 0.875 0.241 0.972 0.289s0.345 0.266 0.41 0.338z"></path>
<path fill="#1f601a" d="M18.573 18.315c0.016-0.074 0.023-0.13 0.049-0.153 0.023-0.026 0.104-0.123 0.12-0.185 0.016-0.065 0-0.113 0-0.146s0.023-0.143 0.023-0.143-0.039-0.137-0.072-0.162c-0.032-0.023-0.113-0.137-0.13-0.169 0 0 0.009 0.065-0.016 0.097-0.023 0.032-0.032 0.113-0.032 0.16 0 0.049 0.016 0.162 0 0.217-0.016 0.063-0.039 0.113-0.023 0.185 0.014 0.058 0.081 0.299 0.081 0.299z"></path>
<path fill="#1f601a" d="M18.547 18.234s-0.183-0.234-0.183-0.331c0-0.095-0.016-0.153-0.032-0.176s-0.12-0.146-0.025-0.296c0.042-0.065 0.049-0.060 0.072-0.13 0.032-0.088 0.097-0.088 0.106-0.176 0 0 0.023 0.104 0.030 0.192 0.009 0.088-0.007 0.12-0.014 0.169-0.009 0.049 0.023 0.104 0.023 0.176 0 0.074-0.009 0.102-0.009 0.146-0 0.023-0.030 0.329 0.032 0.426zM20.607 19.489s-0.155-0.016-0.213-0.026c-0.042-0.005-0.137-0.028-0.19-0.049-0.046-0.016-0.137-0.065-0.215-0.148-0.148-0.157-0.134-0.241-0.16-0.248-0.053-0.009 0.083-0.023 0.148-0.014 0.062 0.007 0.15 0.053 0.208 0.109 0.060 0.056 0.153 0.118 0.185 0.141 0.032 0.025 0.056 0.035 0.090 0.081s0.032 0.076 0.146 0.153z"></path>
<path fill="#1f601a" d="M20.82 19.602s-0.389-0.174-0.428-0.206c-0.042-0.030-0.106-0.093-0.148-0.137-0.039-0.044-0.204-0.127-0.231-0.18-0.018-0.037-0.12-0.178-0.18-0.289-0.030-0.058 0.259 0.019 0.259 0.019 0.236 0.095 0.13 0.028 0.259 0.125 0.079 0.060 0.132 0.111 0.153 0.155 0.030 0.069 0.065 0.19 0.1 0.252 0.032 0.062 0.095 0.143 0.218 0.261z"></path>
<path fill="#1f601a" d="M21.030 19.651s-0.322-0.083-0.467-0.282c-0.104-0.137-0.104-0.095-0.148-0.141-0.053-0.058-0.137-0.12-0.206-0.238 0.007 0.012-0.093-0.315-0.088-0.354 0.002-0.023 0.123 0.016 0.22 0.058 0.083 0.035 0.132 0.102 0.204 0.146 0.086 0.056 0.097 0.194 0.137 0.259 0.055 0.095 0.062 0.143 0.062 0.19-0.002 0.072 0.039 0.095 0.063 0.155 0.028 0.072 0.113 0.060 0.225 0.208zM20.517 19.544s-0.273-0.12-0.312-0.13c-0.042-0.007-0.058-0.032-0.113-0.049-0.046-0.012-0.088-0.046-0.201-0.023-0.049 0.012-0.247 0.055-0.296 0.032-0.049-0.026 0.072 0.137 0.127 0.169 0.058 0.032 0.153 0.049 0.234 0.039 0.081-0.007 0.192 0 0.234 0 0.039 0 0.062 0.009 0.12-0.007 0.056-0.016 0.072-0.042 0.208-0.032z"></path>
<path fill="#1f601a" d="M20.702 19.544s-0.305-0.076-0.356-0.076c-0.051 0-0.197 0.009-0.257 0.021-0.058 0.009-0.241-0.009-0.294 0.019-0.056 0.025-0.299 0.060-0.363 0.044-0.065-0.014 0.13 0.174 0.206 0.194 0.248 0.069 0.174 0.060 0.333 0.018 0.097-0.025 0.236-0.032 0.285-0.039 0.049-0.009 0.039-0.037 0.104-0.065s0.173-0.097 0.342-0.116z"></path>
<path fill="#1f601a" d="M20.951 19.671s-0.305-0.127-0.544-0.063c-0.164 0.046-0.16 0.039-0.224 0.051-0.076 0.012-0.141-0.028-0.266 0.023-0.062 0.026-0.329 0.134-0.403 0.13-0.067-0.005 0.213 0.178 0.289 0.167 0.245-0.035 0.477 0.049 0.59 0.002 0.102-0.039 0.162-0.067 0.213-0.083 0.051-0.018 0.079-0.065 0.111-0.088 0.032-0.025 0.053-0.088 0.234-0.139zM19.32 18.97s-0.176-0.194-0.211-0.22c-0.032-0.026-0.116-0.086-0.16-0.125-0.037-0.032-0.074-0.104-0.187-0.132-0.049-0.012-0.167-0.035-0.201-0.076-0.033-0.044 0.007 0.155 0.044 0.208s0.116 0.109 0.192 0.137c0.076 0.028 0.174 0.083 0.208 0.102 0.037 0.016 0.055 0.035 0.113 0.044 0.058 0.012 0.083-0.005 0.201 0.062z"></path>
<path fill="#1f601a" d="M19.487 19.051s-0.299-0.21-0.345-0.234c-0.046-0.021-0.132-0.051-0.187-0.069-0.058-0.016-0.208-0.125-0.268-0.125s-0.174-0.005-0.225-0.044c-0.053-0.042-0.007 0.146 0.051 0.199 0.192 0.171 0.060 0.12 0.22 0.153 0.097 0.021 0.227 0.074 0.273 0.088 0.049 0.014 0.053-0.016 0.123-0.012 0.070 0.002 0.199-0.012 0.359 0.044z"></path>
<path fill="#1f601a" d="M19.558 19.107s-0.123-0.081-0.366-0.123c-0.167-0.030-0.16-0.037-0.222-0.053-0.074-0.023-0.090-0.023-0.227-0.030-0.067-0.005-0.331 0.081-0.393 0.044-0.058-0.032 0.065 0.081 0.139 0.109 0.106 0.039 0.093 0.109 0.208 0.146 0.123 0.039 0.252 0.088 0.324 0.074 0.055-0.012 0.097-0.037 0.176-0.044 0.076-0.009 0.21-0.12 0.361-0.123zM19.584 19.044s0.060-0.292 0.009-0.361c-0.025-0.032-0.058-0.079-0.065-0.153-0.007-0.072-0.056-0.192-0.088-0.231-0.032-0.042-0.097-0.227-0.081-0.273 0 0-0.169 0.167-0.16 0.273 0.007 0.104 0.007 0.079 0 0.127-0.009 0.049 0.039 0.208 0.072 0.257s0.016 0.194 0.049 0.224c0.033 0.032 0.225 0.162 0.264 0.137z"></path>
<path fill="#1f601a" d="M19.558 19.107c0.018 0.009-0.102-0.093-0.16-0.118-0.055-0.023-0.28-0.088-0.296-0.143-0.016-0.058-0.201-0.25-0.208-0.299-0.007-0.037-0.042-0.113-0.032-0.153 0.007-0.039 0.023-0.137 0.049-0.192 0.023-0.058 0.079-0.192 0.137-0.217 0 0 0.046 0.153 0.063 0.208 0.016 0.058 0.032 0.123 0.058 0.153 0.023 0.032 0.104 0.185 0.111 0.243 0.009 0.055 0.049 0.241 0.058 0.28 0.007 0.039 0.157 0.204 0.222 0.238zM18.573 18.315c0.007 0.042-0.12-0.042-0.185-0.042s-0.257 0.025-0.305-0.023c-0.049-0.049-0.12-0.137-0.146-0.153-0.023-0.016-0.111-0.162-0.137-0.241-0.023-0.081-0.192-0.227-0.215-0.243 0 0 0.231-0.046 0.377 0.049 0.143 0.097 0.153 0.074 0.185 0.088 0.032 0.016 0.28 0.227 0.296 0.305 0.016 0.081 0.12 0.218 0.13 0.259z"></path>
<path fill="#1f601a" d="M18.573 18.315s-0.208-0.146-0.257-0.139c-0.049 0.009-0.275-0.16-0.289-0.264-0.009-0.055-0.118-0.134-0.137-0.169-0.058-0.097-0.090-0.312-0.169-0.37 0 0 0.218 0.055 0.273 0.065 0.104 0.016 0.192 0.032 0.231 0.12 0.042 0.088 0.074 0.162 0.106 0.169 0.032 0.009 0.079 0.12 0.095 0.234 0.016 0.111 0.146 0.354 0.146 0.354zM18.179 17.221c0.035 0.055 0.032-0.322 0.046-0.361 0.016-0.039 0.058-0.12 0.090-0.153s0.032-0.143 0.049-0.176c0.014-0.032 0.007-0.25-0.016-0.305 0 0-0.065 0.049-0.097 0.088s-0.088 0.056-0.104 0.104c-0.016 0.049-0.049 0.049-0.072 0.097-0.025 0.049-0.049 0.127-0.032 0.192s0.007 0.088 0.007 0.146c0 0.055 0.081 0.296 0.13 0.368z"></path>
<path fill="#1f601a" d="M18.186 17.253s-0.016-0.104 0.025-0.143c0.039-0.042 0.079-0.042 0.095-0.065 0.016-0.026 0.009-0.056 0.025-0.088s0.051-0.086 0.055-0.113c0.016-0.088 0.065-0.185 0.023-0.28 0 0-0.088 0.030-0.111 0.046-0.026 0.016-0.097 0.081-0.104 0.146-0.009 0.072-0.016 0.081-0.042 0.12-0.023 0.039-0.056 0.16-0.016 0.234 0.042 0.072 0.049 0.143 0.049 0.143zM17.952 16.025s-0.016-0.234 0.049-0.306c0.065-0.072 0.081-0.208 0.225-0.282 0 0-0.007 0.058 0 0.097 0.009 0.039 0.025 0.153 0 0.192-0.023 0.042-0.104 0.113-0.104 0.146s-0.055 0.113-0.095 0.13c-0.042 0.014-0.074 0.023-0.074 0.023z"></path>
<path fill="#1f601a" d="M17.952 16.151s0-0.167 0.049-0.215c0.049-0.049 0.074-0.074 0.097-0.104 0.023-0.032 0.049-0.113 0.104-0.146s0.153-0.113 0.162-0.144c0 0 0.023 0.199-0.032 0.306-0.058 0.104-0.058 0.16-0.12 0.183-0.065 0.025-0.074 0.042-0.097 0.058-0.026 0.016-0.065 0.039-0.097 0.039s-0.065 0.023-0.065 0.023zM18.137 17.246c0.009 0.046 0.042-0.104-0.127-0.104s-0.305-0.065-0.363-0.123c-0.055-0.055-0.088-0.095-0.111-0.12-0.026-0.023-0.088-0.12-0.097-0.169-0.007-0.046-0.055-0.225-0.049-0.257 0 0 0.090 0.016 0.13 0.049s0.113 0.032 0.153 0.058c0.039 0.023 0.072 0.088 0.097 0.111 0.023 0.026 0.095 0.026 0.127 0.072 0.032 0.049 0.088 0.153 0.097 0.201 0.007 0.049 0.065 0.097 0.104 0.12 0.039 0.026 0.032 0.12 0.039 0.162z"></path>
<path fill="#1f601a" d="M18.121 17.181s-0.111-0.137-0.169-0.137c-0.055 0-0.199-0.146-0.208-0.208-0.007-0.065-0.055-0.185-0.088-0.211-0.032-0.023-0.088-0.079-0.081-0.176 0.009-0.097 0.009-0.257 0.009-0.257s0.032 0.097 0.079 0.12c0.049 0.023 0.137 0.056 0.153 0.088s0.081 0.032 0.106 0.13c0.023 0.095 0.023 0.088 0.039 0.12s0.055 0.072 0.072 0.137c0.016 0.065 0.104 0.231 0.088 0.393zM17.955 16.295c-0.005 0.044 0.065-0.086-0.088-0.132-0.155-0.046-0.261-0.143-0.296-0.211-0.035-0.065-0.053-0.111-0.069-0.139-0.014-0.030-0.046-0.134-0.039-0.18 0.005-0.046 0.012-0.22 0.028-0.248 0 0 0.076 0.039 0.102 0.079 0.028 0.042 0.095 0.062 0.125 0.095 0.028 0.032 0.039 0.099 0.056 0.13 0.016 0.028 0.081 0.049 0.097 0.099 0.016 0.053 0.037 0.164 0.030 0.211-0.005 0.046 0.032 0.104 0.062 0.139 0.030 0.032-0.005 0.118-0.007 0.157z"></path>
<path fill="#1f601a" d="M17.957 16.23s-0.065-0.155-0.116-0.169c-0.051-0.016-0.134-0.148-0.139-0.208-0.007-0.069-0.016-0.185-0.039-0.215s-0.065-0.13-0.032-0.215c0.035-0.086 0.088-0.199 0.088-0.199s0.046 0.072 0.072 0.116c0.042 0.083 0.083 0.090 0.090 0.123 0.005 0.035 0.055 0.056 0.074 0.123 0.025 0.090-0.002 0.086 0.002 0.12 0.007 0.032 0.032 0.081 0.028 0.143-0.002 0.062 0.032 0.241-0.028 0.382zM18.082 15.261c0.007-0.023 0.055-0.049 0.113-0.065 0.055-0.016 0.143-0.143 0.183-0.176 0.037-0.035 0.058-0.086 0.106-0.113s0.079-0.127 0.095-0.225c0 0-0.137 0.032-0.176 0.039-0.039 0.009-0.12 0.058-0.153 0.097s-0.065 0.104-0.097 0.12c-0.032 0.016-0.072 0.113-0.072 0.178v0.144z"></path>
<path fill="#1f601a" d="M18.075 15.189s-0.009-0.095-0.009-0.137c0-0.049-0.030-0.178 0.039-0.282 0.049-0.072 0.227-0.208 0.273-0.215 0 0 0.032 0.127 0.025 0.167-0.009 0.042-0.051 0.201-0.088 0.217s-0.13 0.208-0.241 0.25z"></path>
<path fill="#1f601a" d="M18.033 15.261c-0.021 0.035-0.007-0.12-0.055-0.16-0.049-0.042-0.056-0.097-0.056-0.162s0.014-0.111 0.023-0.153c0.007-0.039 0.13-0.208 0.12-0.257 0 0 0.069 0.157 0.088 0.201 0.026 0.055-0.016 0.113-0.007 0.16 0.007 0.049 0.046 0.137 0.016 0.185-0.025 0.042-0.097 0.13-0.13 0.185zM18.459 14.433s0.009-0.023 0.081-0.023c0.072 0 0.176-0.007 0.208-0.039s0.088-0.074 0.12-0.090c0.032-0.014 0.088-0.088 0.097-0.12 0.007-0.032 0.065-0.095 0.088-0.095 0 0-0.088-0.009-0.185 0.016-0.095 0.023-0.231 0.072-0.264 0.137-0.033 0.063-0.146 0.215-0.146 0.215z"></path>
<path fill="#1f601a" d="M18.485 14.416c0.018 0.055 0.153-0.055 0.183-0.095l0.081-0.104s0.076-0.093 0.097-0.13c0.049-0.088 0.037-0.248 0.016-0.234-0.025 0.016-0.113 0.065-0.137 0.074-0.026 0.007-0.072 0.023-0.088 0.062-0.016 0.042-0.032 0.097-0.058 0.123-0.023 0.023-0.169 0.104-0.095 0.303z"></path>
<path fill="#1f601a" d="M18.436 14.416s0.111-0.079 0.153-0.12c0.049-0.046 0.023-0.111 0.049-0.143 0.021-0.030 0.079-0.104 0.063-0.153s-0.046-0.185-0.046-0.185-0.058 0.055-0.097 0.097c-0.042 0.039-0.049 0.072-0.065 0.12s-0.049 0.081-0.065 0.12c-0.016 0.039 0 0.12 0.009 0.169 0.007 0.049 0 0.095 0 0.095z"></path>
<path fill="#e60000" d="M22.886 18.942c-0.028 0-0.049-0.021-0.049-0.049 0-0.026 0.021-0.046 0.049-0.046 0.025 0 0.049 0.021 0.049 0.046 0 0.028-0.023 0.049-0.049 0.049zM23.159 19.28c-0.028 0-0.049-0.021-0.049-0.049s0.022-0.049 0.049-0.049h0c0.026 0 0.049 0.023 0.049 0.049 0 0.028-0.023 0.049-0.049 0.049zM23.793 18.22c-0.025 0-0.049-0.023-0.049-0.049 0-0.027 0.022-0.048 0.049-0.049h0c0 0 0.001 0 0.001 0 0.026 0 0.047 0.021 0.047 0.047 0 0 0 0.001-0 0.001v-0c0 0.025-0.021 0.049-0.049 0.049zM24.187 18.417c-0.028 0-0.053-0.023-0.053-0.053 0-0.028 0.026-0.053 0.053-0.053 0.029 0 0.053 0.024 0.053 0.053v0c0 0.030-0.023 0.053-0.053 0.053zM24.258 17.228c-0.028 0-0.053-0.023-0.053-0.053 0-0.028 0.025-0.053 0.053-0.053 0.029 0 0.053 0.024 0.053 0.053v0c0 0 0 0.001 0 0.001 0 0.029-0.023 0.052-0.052 0.052-0 0-0.001 0-0.001 0h0zM24.589 17.325c-0 0-0.001 0-0.001 0-0.029 0-0.052-0.023-0.052-0.052 0-0 0-0.001 0-0.001v0c0-0 0-0.001 0-0.001 0-0.029 0.023-0.052 0.052-0.052 0 0 0.001 0 0.001 0h-0c0.028 0 0.053 0.023 0.053 0.053s-0.025 0.053-0.053 0.053zM24.42 16.265c-0.030 0-0.053-0.026-0.053-0.053 0-0 0-0.001 0-0.001 0-0.029 0.023-0.052 0.052-0.052 0 0 0.001 0 0.001 0h-0c0 0 0.001 0 0.001 0 0.029 0 0.052 0.023 0.052 0.052 0 0 0 0.001 0 0.001v-0c0 0.028-0.023 0.053-0.053 0.053zM24.716 15.291c-0.028 0-0.053-0.023-0.053-0.051 0-0.029 0.024-0.053 0.053-0.053h0c0 0 0.001 0 0.001 0 0.029 0 0.052 0.023 0.052 0.052 0 0 0 0.001 0 0.001v-0c0 0.028-0.023 0.051-0.053 0.051zM24.339 15.388c-0 0-0.001 0-0.001 0-0.029 0-0.052-0.023-0.052-0.052 0-0 0-0.001 0-0.001v0c0-0.028 0.023-0.053 0.053-0.053s0.053 0.024 0.053 0.053v0c0 0 0 0.001 0 0.001 0 0.029-0.023 0.052-0.052 0.052-0 0-0.001 0-0.001 0h0zM23.969 14.576c-0.028 0-0.053-0.023-0.053-0.053 0-0.028 0.025-0.051 0.053-0.051 0.030 0 0.053 0.023 0.053 0.051 0 0.030-0.023 0.053-0.053 0.053zM24.251 14.351c-0 0-0.001 0-0.001 0-0.029 0-0.052-0.023-0.052-0.052 0-0 0-0.001 0-0.001v0c0-0.028 0.023-0.053 0.053-0.053s0.053 0.024 0.053 0.053v0c0 0 0 0.001 0 0.001 0 0.029-0.023 0.052-0.052 0.052-0 0-0.001 0-0.001 0h0zM23.689 13.805c-0 0-0.001 0-0.001 0-0.029 0-0.052-0.023-0.052-0.052 0-0 0-0.001 0-0.001v0c0-0 0-0.001 0-0.001 0-0.029 0.023-0.052 0.052-0.052 0 0 0.001 0 0.001 0h-0c0 0 0.001 0 0.001 0 0.029 0 0.052 0.023 0.052 0.052 0 0 0 0.001 0 0.001v-0c0 0 0 0.001 0 0.001 0 0.029-0.023 0.052-0.052 0.052-0 0-0.001 0-0.001 0h0zM24.837 16.272c-0.030 0-0.053-0.023-0.053-0.051s0.023-0.051 0.053-0.051c0.028 0 0.051 0.023 0.051 0.051v0c0 0.028-0.023 0.051-0.051 0.051z"></path>
<path fill="#1f601a" d="M20.341 20.178s0.208-0.016 0.241-0.016c0.032 0 0.104-0.143 0.137-0.169 0.032-0.023 0.579-0.289 0.933-0.345s0.898-0.266 1.011-0.322c0.588-0.282 1.245-0.805 1.391-1.021 0.153-0.225 0.315-0.748 0.386-1.027 0.032-0.13 0.208-0.66 0.208-1.021 0-0.419-0.049-0.764-0.113-1.037-0.062-0.273-0.532-1.074-0.819-1.43 0 0 0.646 1 0.757 1.382 0.111 0.393 0.143 0.872 0.137 1.145-0.007 0.225-0.194 1.046-0.467 1.65-0.218 0.484-0.407 0.541-0.747 0.812-0.16 0.127-0.465 0.329-0.722 0.458-0.257 0.127-0.803 0.289-0.949 0.312-0.143 0.026-0.875 0.241-0.972 0.289s-0.345 0.266-0.41 0.338z"></path>
<path fill="#1f601a" d="M24.004 18.315c-0.016-0.074-0.023-0.13-0.049-0.153-0.023-0.026-0.104-0.123-0.12-0.185-0.016-0.065 0-0.113 0-0.146s-0.023-0.143-0.023-0.143 0.039-0.137 0.072-0.162c0.032-0.023 0.113-0.137 0.13-0.169 0 0-0.009 0.065 0.016 0.097 0.023 0.032 0.032 0.113 0.032 0.16 0 0.049-0.016 0.162 0 0.217 0.016 0.063 0.039 0.113 0.023 0.185-0.014 0.058-0.081 0.299-0.081 0.299z"></path>
<path fill="#1f601a" d="M24.029 18.234s0.183-0.234 0.183-0.331c0-0.095 0.016-0.153 0.032-0.176s0.12-0.146 0.025-0.296c-0.042-0.065-0.049-0.060-0.072-0.13-0.032-0.088-0.097-0.088-0.106-0.176 0 0-0.023 0.104-0.030 0.192-0.009 0.088 0.007 0.12 0.014 0.169 0.009 0.049-0.023 0.104-0.023 0.176 0 0.074 0.009 0.102 0.009 0.146 0 0.023 0.030 0.329-0.032 0.426zM21.969 19.489s0.155-0.016 0.213-0.026c0.042-0.005 0.137-0.028 0.19-0.049 0.046-0.016 0.137-0.065 0.215-0.148 0.148-0.157 0.134-0.241 0.16-0.248 0.053-0.009-0.083-0.023-0.148-0.014-0.062 0.007-0.15 0.053-0.208 0.109-0.060 0.056-0.153 0.118-0.185 0.141-0.032 0.025-0.056 0.035-0.090 0.081s-0.032 0.076-0.146 0.153z"></path>
<path fill="#1f601a" d="M21.757 19.602s0.389-0.174 0.428-0.206c0.042-0.030 0.106-0.093 0.148-0.137 0.039-0.044 0.204-0.127 0.231-0.18 0.018-0.037 0.12-0.178 0.18-0.289 0.030-0.058-0.259 0.019-0.259 0.019-0.236 0.095-0.13 0.028-0.259 0.125-0.079 0.060-0.132 0.111-0.153 0.155-0.030 0.069-0.065 0.19-0.1 0.252-0.032 0.062-0.095 0.143-0.218 0.261z"></path>
<path fill="#1f601a" d="M21.546 19.651s0.322-0.083 0.467-0.282c0.104-0.137 0.104-0.095 0.148-0.141 0.053-0.058 0.137-0.12 0.206-0.238-0.007 0.012 0.093-0.315 0.088-0.354-0.002-0.023-0.123 0.016-0.22 0.058-0.083 0.035-0.132 0.102-0.204 0.146-0.086 0.056-0.097 0.194-0.137 0.259-0.055 0.095-0.062 0.143-0.062 0.19 0.002 0.072-0.039 0.095-0.063 0.155-0.028 0.072-0.113 0.060-0.225 0.208zM22.060 19.544s0.273-0.12 0.312-0.13c0.042-0.007 0.058-0.032 0.113-0.049 0.046-0.012 0.088-0.046 0.201-0.023 0.049 0.012 0.247 0.055 0.296 0.032 0.049-0.026-0.072 0.137-0.127 0.169-0.058 0.032-0.153 0.049-0.234 0.039-0.081-0.007-0.192 0-0.234 0-0.039 0-0.062 0.009-0.12-0.007-0.056-0.016-0.072-0.042-0.208-0.032z"></path>
<path fill="#1f601a" d="M21.875 19.544s0.305-0.076 0.356-0.076c0.051 0 0.197 0.009 0.257 0.021 0.058 0.009 0.241-0.009 0.294 0.019 0.056 0.025 0.299 0.060 0.363 0.044 0.065-0.014-0.13 0.174-0.206 0.194-0.248 0.069-0.174 0.060-0.333 0.018-0.097-0.025-0.236-0.032-0.285-0.039-0.049-0.009-0.039-0.037-0.104-0.065s-0.173-0.097-0.342-0.116z"></path>
<path fill="#1f601a" d="M21.625 19.671s0.305-0.127 0.544-0.063c0.164 0.046 0.16 0.039 0.224 0.051 0.076 0.012 0.141-0.028 0.266 0.023 0.062 0.026 0.329 0.134 0.403 0.13 0.067-0.005-0.213 0.178-0.289 0.167-0.245-0.035-0.477 0.049-0.59 0.002-0.102-0.039-0.162-0.067-0.213-0.083-0.051-0.018-0.079-0.065-0.111-0.088-0.032-0.025-0.053-0.088-0.234-0.139zM23.256 18.97s0.176-0.194 0.211-0.22c0.032-0.026 0.116-0.086 0.16-0.125 0.037-0.032 0.074-0.104 0.187-0.132 0.049-0.012 0.167-0.035 0.201-0.076 0.033-0.044-0.007 0.155-0.044 0.208s-0.116 0.109-0.192 0.137c-0.076 0.028-0.174 0.083-0.208 0.102-0.037 0.016-0.055 0.035-0.113 0.044-0.058 0.012-0.083-0.005-0.201 0.062z"></path>
<path fill="#1f601a" d="M23.089 19.051s0.299-0.21 0.345-0.234c0.046-0.021 0.132-0.051 0.187-0.069 0.058-0.016 0.208-0.125 0.268-0.125s0.174-0.005 0.225-0.044c0.053-0.042 0.007 0.146-0.051 0.199-0.192 0.171-0.060 0.12-0.22 0.153-0.097 0.021-0.227 0.074-0.273 0.088-0.049 0.014-0.053-0.016-0.123-0.012-0.070 0.002-0.199-0.012-0.359 0.044z"></path>
<path fill="#1f601a" d="M23.018 19.107s0.123-0.081 0.366-0.123c0.167-0.030 0.16-0.037 0.222-0.053 0.074-0.023 0.090-0.023 0.227-0.030 0.067-0.005 0.331 0.081 0.393 0.044 0.058-0.032-0.065 0.081-0.139 0.109-0.106 0.039-0.093 0.109-0.208 0.146-0.123 0.039-0.252 0.088-0.324 0.074-0.055-0.012-0.097-0.037-0.176-0.044-0.076-0.009-0.21-0.12-0.361-0.123zM22.992 19.044s-0.060-0.292-0.009-0.361c0.025-0.032 0.058-0.079 0.065-0.153 0.007-0.072 0.056-0.192 0.088-0.231 0.032-0.042 0.097-0.227 0.081-0.273 0 0 0.169 0.167 0.16 0.273-0.007 0.104-0.007 0.079 0 0.127 0.009 0.049-0.039 0.208-0.072 0.257s-0.016 0.194-0.049 0.224c-0.033 0.032-0.225 0.162-0.264 0.137z"></path>
<path fill="#1f601a" d="M23.018 19.107c-0.018 0.009 0.102-0.093 0.16-0.118 0.055-0.023 0.28-0.088 0.296-0.143 0.016-0.058 0.201-0.25 0.208-0.299 0.007-0.037 0.042-0.113 0.032-0.153-0.007-0.039-0.023-0.137-0.049-0.192-0.023-0.058-0.079-0.192-0.137-0.217 0 0-0.046 0.153-0.063 0.208-0.016 0.058-0.032 0.123-0.058 0.153-0.023 0.032-0.104 0.185-0.111 0.243-0.009 0.055-0.049 0.241-0.058 0.28-0.007 0.039-0.157 0.204-0.222 0.238zM24.004 18.315c-0.007 0.042 0.12-0.042 0.185-0.042s0.257 0.025 0.305-0.023c0.049-0.049 0.12-0.137 0.146-0.153 0.023-0.016 0.111-0.162 0.137-0.241 0.023-0.081 0.192-0.227 0.215-0.243 0 0-0.231-0.046-0.377 0.049-0.143 0.097-0.153 0.074-0.185 0.088-0.032 0.016-0.28 0.227-0.296 0.305-0.016 0.081-0.12 0.218-0.13 0.259z"></path>
<path fill="#1f601a" d="M24.004 18.315s0.208-0.146 0.257-0.139c0.049 0.009 0.275-0.16 0.289-0.264 0.009-0.055 0.118-0.134 0.137-0.169 0.058-0.097 0.090-0.312 0.169-0.37 0 0-0.218 0.055-0.273 0.065-0.104 0.016-0.192 0.032-0.231 0.12-0.042 0.088-0.074 0.162-0.106 0.169-0.032 0.009-0.079 0.12-0.095 0.234-0.016 0.111-0.146 0.354-0.146 0.354zM24.397 17.221c-0.035 0.055-0.032-0.322-0.046-0.361-0.016-0.039-0.058-0.12-0.090-0.153s-0.032-0.143-0.049-0.176c-0.014-0.032-0.007-0.25 0.016-0.305 0 0 0.065 0.049 0.097 0.088s0.088 0.056 0.104 0.104c0.016 0.049 0.049 0.049 0.072 0.097 0.025 0.049 0.049 0.127 0.032 0.192s-0.007 0.088-0.007 0.146c0 0.055-0.081 0.296-0.13 0.368z"></path>
<path fill="#1f601a" d="M24.39 17.253s0.016-0.104-0.025-0.143c-0.039-0.042-0.079-0.042-0.095-0.065-0.016-0.026-0.009-0.056-0.025-0.088s-0.051-0.086-0.055-0.113c-0.016-0.088-0.065-0.185-0.023-0.28 0 0 0.088 0.030 0.111 0.046 0.026 0.016 0.097 0.081 0.104 0.146 0.009 0.072 0.016 0.081 0.042 0.12 0.023 0.039 0.056 0.16 0.016 0.234-0.042 0.072-0.049 0.143-0.049 0.143zM24.624 16.025s0.016-0.234-0.049-0.306c-0.065-0.072-0.081-0.208-0.225-0.282 0 0 0.007 0.058 0 0.097-0.009 0.039-0.025 0.153 0 0.192 0.023 0.042 0.104 0.113 0.104 0.146s0.055 0.113 0.095 0.13c0.042 0.014 0.074 0.023 0.074 0.023z"></path>
<path fill="#1f601a" d="M24.624 16.151s0-0.167-0.049-0.215c-0.049-0.049-0.074-0.074-0.097-0.104-0.023-0.032-0.049-0.113-0.104-0.146s-0.153-0.113-0.162-0.144c0 0-0.023 0.199 0.032 0.306 0.058 0.104 0.058 0.16 0.12 0.183 0.065 0.025 0.074 0.042 0.097 0.058 0.026 0.016 0.065 0.039 0.097 0.039s0.065 0.023 0.065 0.023zM24.439 17.246c-0.009 0.046-0.042-0.104 0.127-0.104s0.305-0.065 0.363-0.123c0.055-0.055 0.088-0.095 0.111-0.12 0.026-0.023 0.088-0.12 0.097-0.169 0.007-0.046 0.055-0.225 0.049-0.257 0 0-0.090 0.016-0.13 0.049s-0.113 0.032-0.153 0.058c-0.039 0.023-0.072 0.088-0.097 0.111-0.023 0.026-0.095 0.026-0.127 0.072-0.032 0.049-0.088 0.153-0.097 0.201-0.007 0.049-0.065 0.097-0.104 0.12-0.039 0.026-0.032 0.12-0.039 0.162z"></path>
<path fill="#1f601a" d="M24.455 17.181s0.111-0.137 0.169-0.137c0.055 0 0.199-0.146 0.208-0.208 0.007-0.065 0.055-0.185 0.088-0.211 0.032-0.023 0.088-0.079 0.081-0.176-0.009-0.097-0.009-0.257-0.009-0.257s-0.032 0.097-0.079 0.12c-0.049 0.023-0.137 0.056-0.153 0.088s-0.081 0.032-0.106 0.13c-0.023 0.095-0.023 0.088-0.039 0.12s-0.055 0.072-0.072 0.137c-0.016 0.065-0.104 0.231-0.088 0.393zM24.621 16.295c0.005 0.044-0.065-0.086 0.088-0.132 0.155-0.046 0.261-0.143 0.296-0.211 0.035-0.065 0.053-0.111 0.069-0.139 0.014-0.030 0.046-0.134 0.039-0.18-0.005-0.046-0.012-0.22-0.028-0.248 0 0-0.076 0.039-0.102 0.079-0.028 0.042-0.095 0.062-0.125 0.095-0.028 0.032-0.039 0.099-0.056 0.13-0.016 0.028-0.081 0.049-0.097 0.099-0.016 0.053-0.037 0.164-0.030 0.211 0.005 0.046-0.032 0.104-0.062 0.139-0.030 0.032 0.005 0.118 0.007 0.157z"></path>
<path fill="#1f601a" d="M24.619 16.23s0.065-0.155 0.116-0.169c0.051-0.016 0.134-0.148 0.139-0.208 0.007-0.069 0.016-0.185 0.039-0.215s0.065-0.13 0.032-0.215c-0.035-0.086-0.088-0.199-0.088-0.199s-0.046 0.072-0.072 0.116c-0.042 0.083-0.083 0.090-0.090 0.123-0.005 0.035-0.055 0.056-0.074 0.123-0.025 0.090 0.002 0.086-0.002 0.12-0.007 0.032-0.032 0.081-0.028 0.143 0.002 0.062-0.032 0.241 0.028 0.382zM24.494 15.261c-0.007-0.023-0.055-0.049-0.113-0.065-0.055-0.016-0.143-0.143-0.183-0.176-0.037-0.035-0.058-0.086-0.106-0.113s-0.079-0.127-0.095-0.225c0 0 0.137 0.032 0.176 0.039 0.039 0.009 0.12 0.058 0.153 0.097s0.065 0.104 0.097 0.12c0.032 0.016 0.072 0.113 0.072 0.178v0.144z"></path>
<path fill="#1f601a" d="M24.501 15.189s0.009-0.095 0.009-0.137c0-0.049 0.030-0.178-0.039-0.282-0.049-0.072-0.227-0.208-0.273-0.215 0 0-0.032 0.127-0.025 0.167 0.009 0.042 0.051 0.201 0.088 0.217s0.13 0.208 0.241 0.25z"></path>
<path fill="#1f601a" d="M24.543 15.261c0.021 0.035 0.007-0.12 0.055-0.16 0.049-0.042 0.056-0.097 0.056-0.162s-0.014-0.111-0.023-0.153c-0.007-0.039-0.13-0.208-0.12-0.257 0 0-0.069 0.157-0.088 0.201-0.026 0.055 0.016 0.113 0.007 0.16-0.007 0.049-0.046 0.137-0.016 0.185 0.025 0.042 0.097 0.13 0.13 0.185zM24.117 14.433s-0.009-0.023-0.081-0.023c-0.072 0-0.176-0.007-0.208-0.039s-0.088-0.074-0.12-0.090c-0.032-0.014-0.088-0.088-0.097-0.12-0.007-0.032-0.065-0.095-0.088-0.095 0 0 0.088-0.009 0.185 0.016 0.095 0.023 0.231 0.072 0.264 0.137 0.033 0.063 0.146 0.215 0.146 0.215z"></path>
<path fill="#1f601a" d="M24.092 14.416c-0.018 0.055-0.153-0.055-0.183-0.095l-0.081-0.104s-0.076-0.093-0.097-0.13c-0.049-0.088-0.037-0.248-0.016-0.234 0.025 0.016 0.113 0.065 0.137 0.074 0.026 0.007 0.072 0.023 0.088 0.062 0.016 0.042 0.032 0.097 0.058 0.123 0.023 0.023 0.169 0.104 0.095 0.303z"></path>
<path fill="#1f601a" d="M24.14 14.416s-0.111-0.079-0.153-0.12c-0.049-0.046-0.023-0.111-0.049-0.143-0.021-0.030-0.079-0.104-0.063-0.153s0.046-0.185 0.046-0.185 0.058 0.055 0.097 0.097c0.042 0.039 0.049 0.072 0.065 0.12s0.049 0.081 0.065 0.12c0.016 0.039 0 0.12-0.009 0.169-0.007 0.049 0 0.095 0 0.095z"></path>
<path fill="#00209f" d="M21.264 19.527s0.039-0.097 0.12-0.009c0 0 0.097 0.227 0.023 0.234-0.072 0.009-0.143 0.023-0.15-0.016-0.009-0.039 0.007-0.208 0.007-0.208z"></path>
<path fill="#00209f" d="M21.368 19.495s0.025-0.345 0.072-0.361c0.049-0.016 0.194-0.097 0.282-0.025 0.088 0.074 0.007 0.43-0.025 0.463-0.030 0.032-0.079 0.132-0.264 0.109l-0.026-0.088s0.097-0.009 0.162-0.042c0.065-0.032 0.086-0.062 0.081-0.095-0.009-0.049-0.005-0.227-0.053-0.243s-0.125-0.039-0.125-0.039-0.072 0.268-0.088 0.345l-0.016-0.023z"></path>
<path fill="#00209f" d="M21.257 19.736s-0.331 0.192-0.162 0.481l-0.113-0.072s-0.063 0.113-0.007 0.178c0 0-0.225-0.201-0.049-0.442 0.178-0.243 0.322-0.227 0.322-0.227l0.009 0.081z"></path>
<path fill="#00209f" d="M21.257 19.577s-0.146-0.097-0.354-0.042c0 0-0.093-0.298-0.058-0.393 0.016-0.044 0.049-0.049 0.049-0.049s-0.104-0.063-0.072 0.217c0.032 0.282 0.088 0.361 0.088 0.361s0.273 0.016 0.338-0.016l0.009-0.079z"></path>
<path fill="#00209f" d="M21.257 19.577s-0.289-0.484-0.363-0.484c0 0-0.083-0.012 0.104-0.032 0.065-0.007 0.169 0 0.218 0.090 0.049 0.088 0.088 0.296 0.104 0.329 0 0-0.055 0.016-0.062 0.097z"></path>
<path fill="#011322" d="M21.257 19.577s-0.194-0.090-0.218-0.113c-0.025-0.023-0.065-0.296-0.042-0.28 0 0-0.079-0.090-0.104-0.090-0.016 0-0.072 0.042-0.056 0.137 0.016 0.097 0.039 0.243 0.065 0.305 0 0 0.153-0.062 0.354 0.042z"></path>
<path fill="#00209f" d="M21.433 19.736s0.104 0.065 0.104 0.185c0 0.12 0.049 0.338 0.146 0.387 0 0 0.023-0.090 0.055-0.107 0 0 0.097 0.113 0.127 0.113 0 0-0.056-0.104-0.056-0.153s-0.049-0.234-0.097-0.28c-0.046-0.049-0.143-0.162-0.28-0.201v0.056z"></path>
<path fill="#011322" d="M21.472 19.174l-0.088 0.345 0.023 0.074s0.032-0.009 0.049-0.049c0.016-0.042 0.065-0.338 0.090-0.347l-0.074-0.023z"></path>
<path fill="#011d33" d="M21.252 19.697s-0.157 0.049-0.218 0.171c0 0-0.021-0.079 0.213-0.192l0.005 0.021zM21.438 19.697s0.109 0.044 0.137 0.109c0 0-0.104-0.069-0.137-0.081v-0.028zM21.252 19.604s-0.245 0.039-0.299 0.028c0 0 0.074 0.016 0.303-0.005l-0.005-0.023zM21.651 19.456s0.028 0.123 0.046 0.116c0.021-0.009 0.063-0.206 0.065-0.298 0.005-0.090-0.039-0.111-0.076-0.107-0.035 0.002-0.055 0.083-0.051 0.12 0.002 0.035 0.012 0.148 0.016 0.169z"></path>
<path fill="#011d33" d="M21.384 19.518s0.099 0.222 0.023 0.234c-0.074 0.012 0.032 0.009-0.018-0.143-0.021-0.058-0.053-0.13-0.069-0.13 0 0 0.058 0.021 0.065 0.039z"></path>
<path fill="#00209f" d="M21.012 13.648c-0.021-0.051-0.025-0.393-0.021-0.447 0.007-0.093 0.167-0.546 0.199-0.599 0.035-0.053 0.026-0.065 0.039-0.097l0.046-0.062c0.035 0.058 0.060 0.148 0.067 0.22 0 0-0.030 0.218-0.056 0.315-0.023 0.097-0.086 0.231-0.097 0.259-0.030 0.067-0.028 0.13-0.009 0.134l-0.169 0.278z"></path>
<path fill="#fff" d="M21.287 13.192l0.026 0.028c0.072-0.076 0.076-0.236 0.076-0.236l-0.046-0.322s-0.030 0.217-0.055 0.315c-0.023 0.097-0.086 0.231-0.097 0.259-0.046 0.116-0.012 0.13-0.009 0.134l0.106-0.178z"></path>
<path fill="#00209f" d="M21.312 13.22c0.072-0.076 0.076-0.236 0.076-0.236s0.051 0.261 0.023 0.317c-0.028 0.055-0.028 0.039-0.023 0.067l-0.076-0.148z"></path>
<path fill="#fc0" d="M21.287 12.486s-0.005-0.051-0.009-0.069c-0.002-0.009 0.028 0.046 0.053 0.039 0.046 0.014 0.097 0.076 0.111 0.093-0.021 0.030-0.069 0.088-0.104 0.076-0.030-0.009-0.023-0.053-0.032-0.081-0.005-0.014-0.021-0.032-0.018-0.058z"></path>
<path fill="#fc0" d="M21.238 12.449s0.046-0.023 0.062-0.032c0.009-0.005-0.035 0.042-0.018 0.062 0.002 0.049-0.037 0.118-0.051 0.137-0.035-0.009-0.069-0.009-0.097-0.062-0.012-0.018 0.021-0.039 0.042-0.058 0.012-0.009 0.037-0.039 0.062-0.046z"></path>
<path fill="#fc0" d="M21.31 12.417c0.032-0.039 0.090-0.074 0.118-0.051 0.002 0.002 0.025 0.016 0.032 0.030 0.014 0.016 0.012 0.023 0.005 0.042-0.021 0.042-0.076 0.021-0.111 0.002-0.007-0.005-0.028-0.023-0.039-0.018-0.018 0.007-0.012 0.007-0.018 0.007 0.007 0.005 0.014 0.002 0.018 0.005 0.032 0.009 0.055 0.028 0.095 0.046 0.028 0.012 0.079-0.025 0.076-0.051 0-0.030-0.049-0.083-0.072-0.083-0.053 0-0.095 0.032-0.132 0.074 0.009-0.007 0.021 0.007 0.028-0.002z"></path>
<path fill="#fc0" d="M21.28 12.417c-0.030-0.039-0.088-0.074-0.116-0.051-0.002 0.002-0.025 0.016-0.032 0.030-0.014 0.014-0.014 0.023-0.005 0.042 0.018 0.042 0.076 0.021 0.109 0.002 0.009-0.005 0.030-0.023 0.042-0.018 0.018 0.007 0.012 0.007 0.018 0.007-0.007 0.005-0.014 0.002-0.021 0.005-0.030 0.009-0.053 0.028-0.095 0.046-0.028 0.012-0.076-0.025-0.076-0.051 0.002-0.032 0.051-0.083 0.074-0.083 0.053 0 0.095 0.032 0.13 0.074-0.007-0.007-0.018 0.007-0.028-0.002z"></path>
<path fill="#fc0" d="M21.292 12.394c-0.014-0.005-0.030 0.009-0.035 0.018-0.005 0.012 0.005 0.030 0.018 0.032 0.018 0.007 0.044 0.002 0.049-0.018 0.005-0.018-0.016-0.023-0.032-0.032z"></path>
<path fill="#fc0" d="M21.289 12.072s0.021 0.125 0.083 0.215c0.063 0.090-0.076 0.079-0.086 0.111 0 0-0.042-0.090-0.086-0.113 0 0 0.070-0.109 0.088-0.211v-0.002z"></path>
<path fill="#fff" d="M21.287 18.375c-0.005 0-0.012-0.009-0.018-0.012-0.021-0.014-0.060-0.014-0.069-0.025-0.055-0.062-0.018-0.183 0.005-0.257 0.046-0.139 0.053-0.266 0.083-0.398h0.002c0.030 0.132 0.037 0.259 0.081 0.398 0.025 0.074 0.062 0.194 0.007 0.257-0.012 0.012-0.049 0.012-0.069 0.025-0.007 0.002-0.014 0.012-0.021 0.012z"></path>
<path fill="#00209f" d="M21.287 17.679c0.030 0.132 0.039 0.266 0.083 0.405 0.023 0.069 0.058 0.18 0.016 0.243v-0.002c0.021 0 0.039-0.007 0.058-0.014 0.007-0.002 0.014-0.005 0.016-0.012 0.007-0.012 0.016-0.021 0.025-0.028 0.014-0.009 0.030-0.002 0.044-0.012 0.005-0.005 0.007-0.009 0.009-0.009 0.028-0.014 0.055-0.030 0.067-0.060 0.007-0.021 0.009-0.044 0.005-0.067-0.002-0.016-0.009-0.028-0.014-0.042l-0.028-0.063c-0.009-0.021-0.023-0.039-0.032-0.060-0.004-0.011-0.010-0.021-0.016-0.030l0 0c-0.005-0.009-0.012-0.019-0.016-0.028s-0.016-0.016-0.023-0.026c-0.009-0.009-0.012-0.009-0.019-0.016-0.002-0.002-0.014-0.005-0.012-0.009-0.005 0-0.012-0.005-0.014-0.007-0.018-0.039-0.035-0.060-0.053-0.1-0.009-0.016-0.012-0.046-0.012-0.065h-0.086v0zM21.287 17.679c-0.028 0.132-0.037 0.266-0.083 0.405-0.021 0.069-0.055 0.18-0.014 0.243l-0.002-0.002h0.002c-0.021 0-0.039-0.007-0.060-0.014-0.005-0.002-0.012-0.005-0.016-0.012-0.007-0.012-0.014-0.021-0.025-0.028-0.012-0.009-0.028-0.002-0.042-0.012-0.005-0.005-0.007-0.009-0.012-0.009-0.028-0.014-0.053-0.030-0.065-0.060-0.004-0.013-0.007-0.027-0.007-0.042 0-0.009 0.001-0.017 0.003-0.026l-0 0.001c0.002-0.016 0.009-0.028 0.014-0.042l0.028-0.063c0.009-0.021 0.021-0.039 0.032-0.060 0.005-0.011 0.009-0.021 0.016-0.030 0.005-0.009 0.009-0.019 0.016-0.028 0.005-0.009 0.016-0.016 0.023-0.026 0.009-0.009 0.012-0.009 0.018-0.016 0.002-0.002 0.014-0.005 0.012-0.009 0.005 0 0.012-0.005 0.012-0.007 0.021-0.039 0.037-0.060 0.056-0.1 0.009-0.016 0.012-0.046 0.012-0.065h0.083v0z"></path>
<path fill="#fff" d="M19.813 15.657c-0.079-0.197-0.162-0.599-0.157-0.692 0.016-0.379 0.012-0.493 0.046-0.882l0.391 0.447c-0.009 0.15-0.012 0.197 0 0.292 0.005 0.035 0.025 0.206 0.053 0.273l-0.333 0.562z"></path>
<path fill="#00209f" d="M20.146 15.094c-0.028-0.067-0.049-0.238-0.053-0.273-0.012-0.095-0.009-0.141 0-0.292l0.241 0.266-0.187 0.298zM19.151 15.462c-0.007-0.088-0.014-0.185-0.014-0.229 0.002-0.273-0.030-0.426 0-0.715 0.023-0.227 0.079-0.525 0.067-0.771-0.005-0.069 0.009-0.139 0.012-0.206l0.486 0.541c-0.035 0.389-0.030 0.502-0.046 0.882-0.005 0.093 0.079 0.495 0.157 0.692l-0.102 0.171-0.56-0.366zM19.492 16.196c-0.032-0.053-0.060-0.206-0.067-0.236-0.016-0.081-0.016-0.127-0.012-0.266l0.268 0.176-0.19 0.326zM18.725 17.477c-0.030-0.018-0.081-0.072-0.097-0.118-0.032-0.093-0.025-0.090-0.049-0.192-0.014-0.058-0.014-0.123-0.028-0.183-0.012-0.060-0.097-0.252-0.099-0.331-0.009-0.252-0.093-0.423-0.072-0.699 0.014-0.213 0.062-0.502 0.039-0.724-0.007-0.060 0.002-0.13 0.005-0.19l0.546 0.356c-0.021 0.366-0.012 0.467-0.012 0.821-0.002 0.086 0.074 0.433 0.167 0.588l-0.4 0.671zM19.632 17.679c0.102 0.093 0.289 0.141 0.319 0.162 0.067 0.049 0.166 0.12 0.335 0.13 0.125 0.009 0.18-0.023 0.308-0.039 0.146-0.018-0.018 0.005 0.123-0.025 0.072-0.019 0.072-0.030 0.169-0.053 0.072-0.016 0.143-0.035 0.187-0.095 0.016-0.023 0.030-0.042 0.033-0.079h0.097c0.009 0.028-0.018 0.081-0.028 0.1-0.007 0.009-0.018 0.025-0.025 0.035-0.014 0.030-0.012 0.023-0.037 0.046-0.007 0.005-0.037 0.030-0.046 0.035-0.018 0.014-0.037 0.032-0.058 0.035-0.095 0.016-0.134 0.037-0.225 0.063-0.086 0.026-0.039 0.021-0.104 0.037-0.032 0.007-0.097 0.032-0.13 0.037-0.058 0.009-0.067 0.018-0.127 0.032-0.155 0.035-0.305 0.025-0.458 0.016-0.063-0.005-0.215-0.037-0.268-0.074-0.095-0.067-0.303-0.093-0.396-0.157-0.014-0.009-0.072-0.037-0.083-0.049-0.090-0.074-0.162-0.095-0.257-0.155h0.671z"></path>
<path fill="#00209f" d="M20.366 17.679h0.741c-0.002 0.037-0.016 0.055-0.032 0.079-0.044 0.060-0.116 0.079-0.187 0.095-0.076 0.018-0.155-0.023-0.236-0.023-0.194-0.060-0.218-0.12-0.285-0.15z"></path>
<path fill="#fff" d="M20.366 17.679c0.067 0.035 0.1 0.093 0.285 0.15 0.072 0 0.15 0.032 0.218 0.030-0.081 0.018-0.083 0.030-0.151 0.046-0.141 0.030 0.023 0.007-0.123 0.026-0.127 0.016-0.183 0.049-0.308 0.039-0.169-0.009-0.268-0.081-0.335-0.13-0.030-0.021-0.218-0.069-0.319-0.162h0.734z"></path>
<path fill="#fc0" d="M19.681 15.872l0.030-0.044-1.275-0.833-0.023 0.035zM18.415 14.981c-0.009-0.049 0.005-0.113 0.039-0.12 0.002 0 0.028-0.009 0.044-0.005 0.021 0 0.026 0.007 0.035 0.023 0.018 0.044-0.035 0.072-0.072 0.086-0.009 0.002-0.035 0.007-0.039 0.018-0.007 0.019-0.002 0.012-0.007 0.019 0.007-0.002 0.009-0.009 0.016-0.014 0.028-0.016 0.055-0.021 0.095-0.039 0.030-0.014 0.035-0.074 0.014-0.093-0.023-0.018-0.095-0.016-0.111 0.002-0.035 0.039-0.037 0.093-0.030 0.146 0-0.012 0.018-0.009 0.016-0.023z"></path>
<path fill="#fc0" d="M18.395 15.004c-0.049-0.002-0.111 0.018-0.113 0.053 0 0.005-0.005 0.032 0 0.046 0.002 0.021 0.009 0.025 0.028 0.030 0.046 0.014 0.067-0.042 0.074-0.081 0.002-0.009 0.002-0.035 0.014-0.042 0.018-0.009 0.014-0.005 0.018-0.009-0.002 0.007-0.009 0.012-0.012 0.016-0.012 0.030-0.014 0.060-0.028 0.102-0.009 0.030-0.069 0.042-0.088 0.023-0.023-0.018-0.030-0.090-0.014-0.109 0.035-0.039 0.088-0.049 0.141-0.049-0.009 0.002-0.007 0.021-0.021 0.018z"></path>
<path fill="#fc0" d="M18.385 14.983c-0.014 0.007-0.014 0.025-0.007 0.037 0.005 0.012 0.025 0.014 0.035 0.009 0.018-0.012 0.030-0.032 0.018-0.051-0.011-0.016-0.030-0.002-0.046 0.005z"></path>
<path fill="#fc0" d="M18.117 14.814s0.134 0.053 0.243 0.055c0 0 0.005 0.095 0.028 0.123 0 0-0.097-0.018-0.141 0.005 0 0-0.058-0.132-0.13-0.183z"></path>
<path fill="#fc0" d="M18.395 15.087s0.025-0.044 0.032-0.060c0.005-0.009-0.002 0.053 0.021 0.060 0.030 0.039 0.037 0.12 0.037 0.141-0.035 0.012-0.065 0.032-0.118 0.007-0.018-0.012-0.005-0.046 0.002-0.074 0.005-0.014 0.009-0.053 0.026-0.074z"></path>
<path fill="#fc0" d="M20.334 14.796l0.035-0.032-1.139-1.266-0.023 0.028z"></path>
<path fill="#fc0" d="M19.239 13.498c0.002-0.051 0.030-0.111 0.065-0.109 0.002 0 0.030-0.002 0.044 0.005 0.021 0.005 0.023 0.014 0.028 0.032 0.009 0.046-0.049 0.060-0.088 0.065-0.009 0-0.037-0.002-0.044 0.009-0.012 0.016-0.005 0.012-0.012 0.016 0.007 0 0.014-0.007 0.018-0.009 0.032-0.009 0.060-0.009 0.104-0.016 0.030-0.005 0.049-0.065 0.032-0.086-0.016-0.023-0.086-0.039-0.106-0.025-0.044 0.030-0.058 0.081-0.062 0.137 0.002-0.012 0.018-0.007 0.021-0.019z"></path>
<path fill="#fc0" d="M19.214 13.514c-0.049-0.014-0.113-0.007-0.125 0.025 0 0.002-0.012 0.030-0.009 0.044-0.002 0.021 0.002 0.028 0.021 0.037 0.039 0.023 0.074-0.025 0.090-0.062 0.005-0.009 0.012-0.032 0.023-0.037 0.018-0.005 0.014 0 0.018-0.005-0.002 0.007-0.009 0.009-0.014 0.014-0.018 0.028-0.028 0.053-0.051 0.093-0.016 0.025-0.076 0.025-0.093 0.002-0.016-0.025-0.005-0.095 0.014-0.109 0.042-0.032 0.097-0.030 0.148-0.014-0.009-0.002-0.012 0.016-0.023 0.012z"></path>
<path fill="#fc0" d="M19.209 13.491c-0.016 0.002-0.018 0.023-0.016 0.035s0.021 0.021 0.032 0.016c0.018-0.007 0.037-0.023 0.030-0.044-0.007-0.018-0.030-0.009-0.046-0.007z"></path>
<path fill="#fc0" d="M18.989 13.263s0.116 0.083 0.22 0.111c0 0-0.016 0.095 0 0.125 0 0-0.093-0.039-0.139-0.028 0 0-0.023-0.141-0.081-0.208z"></path>
<path fill="#fc0" d="M19.193 13.595s0.035-0.037 0.046-0.051c0.007-0.009-0.016 0.051 0.005 0.065 0.021 0.044 0.007 0.123 0.002 0.146-0.037 0.002-0.069 0.014-0.113-0.023-0.016-0.014 0.005-0.044 0.018-0.069 0.007-0.014 0.021-0.051 0.042-0.067z"></path>
<path fill="#fff" d="M22.763 15.657c0.079-0.197 0.162-0.599 0.157-0.692-0.016-0.379-0.012-0.493-0.046-0.882l-0.391 0.447c0.009 0.15 0.012 0.197 0 0.292-0.005 0.035-0.025 0.206-0.053 0.273l0.333 0.562z"></path>
<path fill="#00209f" d="M22.43 15.094c0.028-0.067 0.049-0.238 0.053-0.273 0.012-0.095 0.009-0.141 0-0.292l-0.241 0.266 0.187 0.298zM23.425 15.462c0.007-0.088 0.014-0.185 0.014-0.229-0.002-0.273 0.030-0.426 0-0.715-0.023-0.227-0.079-0.525-0.067-0.771 0.005-0.069-0.009-0.139-0.012-0.206l-0.486 0.541c0.035 0.389 0.030 0.502 0.046 0.882 0.005 0.093-0.079 0.495-0.157 0.692l0.102 0.171 0.56-0.366zM23.085 16.196c0.032-0.053 0.060-0.206 0.067-0.236 0.016-0.081 0.016-0.127 0.012-0.266l-0.268 0.176 0.19 0.326zM23.851 17.477c0.030-0.018 0.081-0.072 0.097-0.118 0.032-0.093 0.025-0.090 0.049-0.192 0.014-0.058 0.014-0.123 0.028-0.183 0.012-0.060 0.097-0.252 0.099-0.331 0.009-0.252 0.093-0.423 0.072-0.699-0.014-0.213-0.062-0.502-0.039-0.724 0.007-0.060-0.002-0.13-0.005-0.19l-0.546 0.356c0.021 0.366 0.012 0.467 0.012 0.821 0.002 0.086-0.074 0.433-0.167 0.588l0.4 0.671zM22.944 17.679c-0.102 0.093-0.289 0.141-0.319 0.162-0.067 0.049-0.166 0.12-0.335 0.13-0.125 0.009-0.18-0.023-0.308-0.039-0.146-0.018 0.018 0.005-0.123-0.025-0.072-0.019-0.072-0.030-0.169-0.053-0.072-0.016-0.143-0.035-0.187-0.095-0.016-0.023-0.030-0.042-0.033-0.079h-0.097c-0.009 0.028 0.018 0.081 0.028 0.1 0.007 0.009 0.018 0.025 0.025 0.035 0.014 0.030 0.012 0.023 0.037 0.046 0.007 0.005 0.037 0.030 0.046 0.035 0.018 0.014 0.037 0.032 0.058 0.035 0.095 0.016 0.134 0.037 0.225 0.063 0.086 0.026 0.039 0.021 0.104 0.037 0.032 0.007 0.097 0.032 0.13 0.037 0.058 0.009 0.067 0.018 0.127 0.032 0.155 0.035 0.305 0.025 0.458 0.016 0.063-0.005 0.215-0.037 0.268-0.074 0.095-0.067 0.303-0.093 0.396-0.157 0.014-0.009 0.072-0.037 0.083-0.049 0.090-0.074 0.162-0.095 0.257-0.155h-0.671z"></path>
<path fill="#00209f" d="M22.21 17.679h-0.741c0.002 0.037 0.016 0.055 0.032 0.079 0.044 0.060 0.116 0.079 0.187 0.095 0.076 0.018 0.155-0.023 0.236-0.023 0.194-0.060 0.218-0.12 0.285-0.15z"></path>
<path fill="#fff" d="M22.21 17.679c-0.067 0.035-0.1 0.093-0.285 0.15-0.072 0-0.15 0.032-0.218 0.030 0.081 0.018 0.083 0.030 0.151 0.046 0.141 0.030-0.023 0.007 0.123 0.026 0.127 0.016 0.183 0.049 0.308 0.039 0.169-0.009 0.268-0.081 0.335-0.13 0.030-0.021 0.218-0.069 0.319-0.162h-0.734z"></path>
<path fill="#fc0" d="M22.895 15.872l-0.030-0.044 1.275-0.833 0.023 0.035zM24.161 14.981c0.009-0.049-0.005-0.113-0.039-0.12-0.002 0-0.028-0.009-0.044-0.005-0.021 0-0.026 0.007-0.035 0.023-0.018 0.044 0.035 0.072 0.072 0.086 0.009 0.002 0.035 0.007 0.039 0.018 0.007 0.019 0.002 0.012 0.007 0.019-0.007-0.002-0.009-0.009-0.016-0.014-0.028-0.016-0.055-0.021-0.095-0.039-0.030-0.014-0.035-0.074-0.014-0.093 0.023-0.018 0.095-0.016 0.111 0.002 0.035 0.039 0.037 0.093 0.030 0.146 0-0.012-0.018-0.009-0.016-0.023z"></path>
<path fill="#fc0" d="M24.182 15.004c0.049-0.002 0.111 0.018 0.113 0.053 0 0.005 0.005 0.032 0 0.046-0.002 0.021-0.009 0.025-0.028 0.030-0.046 0.014-0.067-0.042-0.074-0.081-0.002-0.009-0.002-0.035-0.014-0.042-0.018-0.009-0.014-0.005-0.018-0.009 0.002 0.007 0.009 0.012 0.012 0.016 0.012 0.030 0.014 0.060 0.028 0.102 0.009 0.030 0.069 0.042 0.088 0.023 0.023-0.018 0.030-0.090 0.014-0.109-0.035-0.039-0.088-0.049-0.141-0.049 0.009 0.002 0.007 0.021 0.021 0.018z"></path>
<path fill="#fc0" d="M24.191 14.983c0.014 0.007 0.014 0.025 0.007 0.037-0.005 0.012-0.025 0.014-0.035 0.009-0.018-0.012-0.030-0.032-0.018-0.051 0.011-0.016 0.030-0.002 0.046 0.005z"></path>
<path fill="#fc0" d="M24.46 14.814s-0.134 0.053-0.243 0.055c0 0-0.005 0.095-0.028 0.123 0 0 0.097-0.018 0.141 0.005 0 0 0.058-0.132 0.13-0.183z"></path>
<path fill="#fc0" d="M24.182 15.087s-0.025-0.044-0.032-0.060c-0.005-0.009 0.002 0.053-0.021 0.060-0.030 0.039-0.037 0.12-0.037 0.141 0.035 0.012 0.065 0.032 0.118 0.007 0.018-0.012 0.005-0.046-0.002-0.074-0.005-0.014-0.009-0.053-0.026-0.074z"></path>
<path fill="#fc0" d="M22.243 14.796l-0.035-0.032 1.139-1.266 0.023 0.028z"></path>
<path fill="#fc0" d="M23.337 13.498c-0.002-0.051-0.030-0.111-0.065-0.109-0.002 0-0.030-0.002-0.044 0.005-0.021 0.005-0.023 0.014-0.028 0.032-0.009 0.046 0.049 0.060 0.088 0.065 0.009 0 0.037-0.002 0.044 0.009 0.012 0.016 0.005 0.012 0.012 0.016-0.007 0-0.014-0.007-0.018-0.009-0.032-0.009-0.060-0.009-0.104-0.016-0.030-0.005-0.049-0.065-0.032-0.086 0.016-0.023 0.086-0.039 0.106-0.025 0.044 0.030 0.058 0.081 0.062 0.137-0.002-0.012-0.018-0.007-0.021-0.019z"></path>
<path fill="#fc0" d="M23.363 13.514c0.049-0.014 0.113-0.007 0.125 0.025 0 0.002 0.012 0.030 0.009 0.044 0.002 0.021-0.002 0.028-0.021 0.037-0.039 0.023-0.074-0.025-0.090-0.062-0.005-0.009-0.012-0.032-0.023-0.037-0.018-0.005-0.014 0-0.018-0.005 0.002 0.007 0.009 0.009 0.014 0.014 0.018 0.028 0.028 0.053 0.051 0.093 0.016 0.025 0.076 0.025 0.093 0.002 0.016-0.025 0.005-0.095-0.014-0.109-0.042-0.032-0.097-0.030-0.148-0.014 0.009-0.002 0.012 0.016 0.023 0.012z"></path>
<path fill="#fc0" d="M23.367 13.491c0.016 0.002 0.018 0.023 0.016 0.035s-0.021 0.021-0.032 0.016c-0.018-0.007-0.037-0.023-0.030-0.044 0.007-0.018 0.030-0.009 0.046-0.007z"></path>
<path fill="#fc0" d="M23.587 13.263s-0.116 0.083-0.22 0.111c0 0 0.016 0.095 0 0.125 0 0 0.093-0.039 0.139-0.028 0 0 0.023-0.141 0.081-0.208z"></path>
<path fill="#fc0" d="M23.383 13.595s-0.035-0.037-0.046-0.051c-0.007-0.009 0.016 0.051-0.005 0.065-0.021 0.044-0.007 0.123-0.002 0.146 0.037 0.002 0.069 0.014 0.113-0.023 0.016-0.014-0.005-0.044-0.018-0.069-0.007-0.014-0.021-0.051-0.042-0.067z"></path>
<path fill="#fc0" d="M21.287 13.192l-2.682 4.487h5.366z"></path>
<path fill="#fff" d="M21.287 13.483l-2.421 4.050h4.843z"></path>
<path fill="#007e93" d="M19.584 16.33l-0.717 1.204h4.843l-0.72-1.204z"></path>
<path fill="#fff" d="M21.287 15.52c0.178 0 0.324-0.146 0.324-0.326-0.001-0.179-0.145-0.323-0.324-0.324h-0c-0.18 0-0.326 0.146-0.326 0.324 0 0 0 0 0 0 0 0.18 0.146 0.326 0.326 0.326 0 0 0 0 0 0v0z"></path>
<path fill="#e60000" d="M21.477 15.346s-0.046-0.025-0.074-0.025c-0.028 0-0.15-0.007-0.199 0.007-0.028 0.009-0.051 0.032-0.051 0.032s0.032 0.032 0.097 0.039c0.067 0.005 0.109 0 0.143-0.012 0.039-0.012 0.083-0.042 0.083-0.042z"></path>
<path fill="#e60000" d="M21.162 15.298s0.005-0.090 0.067-0.204c0 0-0.021 0.032-0.032 0.060 0 0-0.035 0.019-0.056-0.007-0.021-0.021-0.009-0.030 0.007-0.063 0.014-0.025 0.011-0.051 0.030-0.067 0.016-0.016 0.030-0.019 0.074-0.019s0.072 0.005 0.109 0.056c0.032 0.044 0.051 0.086 0.067 0.109 0.037 0.058 0.037 0.127 0.037 0.127l0.012 0.055s-0.046-0.025-0.074-0.025c-0.028 0-0.151-0.007-0.199 0.007-0.028 0.009-0.051 0.032-0.051 0.032s-0.018-0.042 0.009-0.062z"></path>
<path fill="#fc0" d="M21.28 15.807v-0.479s0.016-0.014 0.053 0v0.474s0.012 0.363-0.028 0.361c-0.046 0-0.025-0.083-0.025-0.356z"></path>
<path fill="#e60000" d="M20.785 15.404l0.009 0.019-0.093 0.039 0.014 0.032-0.014 0.005c-0.009-0.021-0.016-0.028-0.039-0.023l-0.007-0.014 0.13-0.058zM20.685 15.365c-0.008-0.006-0.014-0.015-0.016-0.025l-0-0c-0.005-0.023 0.005-0.049 0.035-0.056 0.014-0.005 0.049-0.005 0.060 0.039 0.005 0.018 0.002 0.042-0.028 0.053l-0.004-0.019c0.016-0.005 0.021-0.018 0.016-0.035-0.005-0.019-0.021-0.025-0.039-0.021s-0.025 0.021-0.023 0.037c0.003 0.011 0.011 0.019 0.020 0.023l0 0 0.002 0.014-0.079 0.007-0.016-0.072 0.018-0.002 0.014 0.058 0.039-0.002zM20.648 15.106c-0.023 0-0.032 0.016-0.032 0.032-0.002 0.014 0 0.035 0.021 0.037 0.014 0 0.019-0.009 0.021-0.016l0.014-0.042c0.005-0.018 0.018-0.030 0.039-0.028 0.035 0.002 0.042 0.035 0.039 0.060s-0.012 0.037-0.016 0.042c-0.014 0.011-0.025 0.014-0.039 0.011l0.002-0.018c0.025 0.002 0.035-0.019 0.037-0.037 0.002-0.014 0-0.037-0.021-0.039-0.016-0.002-0.021 0.005-0.028 0.028l-0.009 0.030c-0.005 0.009-0.012 0.030-0.037 0.028-0.023-0.002-0.044-0.018-0.042-0.053 0.005-0.051 0.035-0.053 0.051-0.053v0.019zM20.641 15.015l0.042 0.014 0.025-0.076 0.016 0.007-0.025 0.074 0.046 0.016 0.028-0.083 0.016 0.005-0.032 0.102-0.139-0.044 0.032-0.102 0.019 0.007z"></path>
<path fill="#e60000" d="M20.737 14.802c-0.012 0.003-0.022 0.011-0.028 0.021l-0 0-0.032 0.055 0.122 0.077 0.012-0.015-0.053-0.033 0.023-0.038c0.016-0.028 0.005-0.050-0.013-0.062-0.006-0.004-0.013-0.006-0.021-0.006-0.003 0-0.006 0-0.009 0.001l0-0zM20.745 14.823c0.004 0.001 0.007 0.003 0.010 0.005l-0-0c0.014 0.009 0.014 0.021 0.005 0.035l-0.018 0.030-0.040-0.023 0.022-0.033c0.005-0.009 0.012-0.015 0.022-0.013z"></path>
<path fill="#e60000" d="M20.905 14.809l-0.012 0.014-0.093-0.088-0.035 0.035-0.012-0.012 0.081-0.086 0.014 0.012-0.035 0.037zM20.954 14.768l-0.086-0.116 0.014-0.012 0.088 0.116zM20.951 14.615l0.021 0.039 0.072-0.037 0.007 0.016-0.069 0.037 0.021 0.042 0.079-0.039 0.007 0.014-0.095 0.051-0.067-0.13 0.095-0.049 0.007 0.016zM21.22 14.654l-0.019-0.083c0-0.005-0.002-0.021-0.007-0.035l-0.014 0.127-0.019 0.005-0.067-0.111c0.002 0.014 0.007 0.032 0.009 0.035l0.018 0.086-0.018 0.002-0.032-0.141 0.028-0.005 0.067 0.111 0.014-0.13 0.028-0.007 0.030 0.143-0.018 0.002z"></path>
<path fill="#e60000" d="M21.268 14.507l-0.007 0.145 0.062 0.002c0.032 0.002 0.052-0.015 0.052-0.038 0.002-0.025-0.016-0.032-0.025-0.037 0.016-0.007 0.020-0.021 0.020-0.030 0.002-0.021-0.011-0.038-0.038-0.040l-0.064-0.002zM21.29 14.527l0.032 0.003c0.021 0 0.028 0.006 0.028 0.020-0.002 0.016-0.012 0.021-0.030 0.018h-0.033l0.003-0.042zM21.287 14.587l0.035 0.003c0.014 0 0.030 0.005 0.030 0.023 0 0.014-0.011 0.023-0.030 0.023l-0.037-0.003 0.002-0.047zM21.43 14.52l-0.038 0.142 0.018 0.005 0.015-0.060 0.047 0.013c0.023 0.007 0.021 0.020 0.018 0.032-0.002 0.005-0.009 0.026-0.007 0.035l0.023 0.007v-0.002c-0.005-0.005-0.004-0.007-0.002-0.017l0.003-0.025c0.007-0.019 0-0.025-0.007-0.030 0.009-0.005 0.024-0.008 0.028-0.028 0.009-0.030-0.012-0.043-0.035-0.050l-0.065-0.022zM21.448 14.545l0.042 0.015c0.009 0.002 0.024 0.006 0.017 0.027-0.005 0.019-0.018 0.017-0.032 0.015l-0.040-0.012 0.013-0.045z"></path>
<path fill="#e60000" d="M21.602 14.603l-0.023 0.037 0.069 0.042-0.009 0.014-0.069-0.039-0.023 0.042 0.074 0.044-0.007 0.014-0.093-0.053 0.072-0.125 0.093 0.053-0.009 0.016z"></path>
<path fill="#e60000" d="M21.777 14.71l-0.11 0.092 0.037 0.047c0.032 0.035 0.071 0.019 0.097-0.002 0.032-0.025 0.040-0.063 0.015-0.093l-0.038-0.043zM21.775 14.742l0.022 0.027c0.016 0.019 0.014 0.039-0.012 0.062-0.025 0.021-0.049 0.020-0.065 0.002l-0.022-0.025 0.077-0.065z"></path>
<path fill="#e60000" d="M21.877 14.872l-0.042 0.021 0.037 0.069-0.016 0.009-0.035-0.072-0.044 0.021 0.039 0.079-0.016 0.007-0.048-0.095 0.129-0.065 0.049 0.095-0.016 0.007zM21.826 15.131l-0.002-0.019 0.1-0.014-0.005-0.032 0.014-0.002c0.007 0.023 0.009 0.030 0.032 0.032l0.002 0.014-0.141 0.021z"></path>
<path fill="#e60000" d="M21.871 15.175c-0.007 0-0.019-0.001-0.033 0.013-0.007 0.009-0.012 0.022-0.012 0.035 0 0 0 0 0 0v-0c-0.002 0.032 0.021 0.048 0.042 0.048 0.012 0.002 0.027-0.002 0.037-0.020 0.002 0.007 0.010 0.018 0.028 0.018 0.018 0.002 0.038-0.009 0.038-0.042 0.002-0.032-0.021-0.045-0.037-0.045-0.014 0-0.024 0.006-0.028 0.020-0.005-0.016-0.016-0.026-0.035-0.028zM21.871 15.198c0.012 0 0.024 0.010 0.022 0.028 0 0.014-0.007 0.025-0.025 0.025-0.021 0-0.023-0.017-0.023-0.028 0-0.021 0.015-0.025 0.027-0.025zM21.935 15.205c0.009 0 0.021 0.005 0.018 0.023 0 0.018-0.011 0.023-0.018 0.023-0.012-0.003-0.022-0.014-0.022-0.027 0 0 0-0 0-0v0c0-0.012 0.010-0.020 0.022-0.020z"></path>
<path fill="#e60000" d="M21.914 15.302c0.046 0.012 0.042 0.046 0.039 0.060-0.007 0.023-0.028 0.039-0.053 0.032-0.023-0.005-0.030-0.023-0.037-0.049l-0.005-0.016c-0.005-0.021-0.014-0.028-0.021-0.030l-0.019 0.076-0.016-0.005 0.023-0.095c0.030 0.009 0.042 0.025 0.049 0.046l0.005 0.021c0.005 0.016 0.009 0.030 0.028 0.032 0.009 0.005 0.025 0 0.030-0.021 0.007-0.025-0.016-0.032-0.025-0.035l0.002-0.019zM21.773 15.441l0.009-0.018 0.090 0.044 0.014-0.030 0.014 0.005c-0.009 0.023-0.012 0.032 0.007 0.046l-0.005 0.014-0.13-0.060z"></path>
<path fill="#fc0" d="M19.404 16.63c0.023 0.005 0.079-0.039 0.095-0.051 0.023-0.014 0.035-0.049 0.053-0.067 0.018-0.021 0.074-0.046 0.099-0.062 0.111-0.069 0.162-0.109 0.238-0.211 0.104-0.143 0.227-0.261 0.379-0.347 0.049-0.028 0.123-0.019 0.176 0.005 0.016 0.007 0.037 0.025 0.056 0.039 0.065 0.051 0.153 0.088 0.259 0.12 0.102 0.030 0.125 0.097 0.206 0.169 0.039 0.035 0.083 0.065 0.132 0.088 0.005 0.002 0.016 0.021 0.021 0.023 0.046 0.035 0.097 0.063 0.137 0.097 0.075 0.068 0.145 0.135 0.212 0.205l0.001 0.001c0.012 0.011 0.016 0.035 0.028 0.044 0.053 0.051 0.104 0.104 0.169 0.134 0.065 0.032 0.123 0.074 0.183 0.111-0.616 0.023-1.182-0.016-1.8 0.002-0.016 0.002-0.021 0-0.113 0-0.046-0.002-0.074 0.002-0.12 0.002-0.187-0.002-0.366-0.002-0.585-0.005l0.176-0.298z"></path>
<path fill="#fc0" d="M21.822 16.913c-0.051-0.032-0.102-0.067-0.157-0.095-0.065-0.030-0.116-0.083-0.169-0.134-0.012-0.009-0.016-0.032-0.028-0.044-0.068-0.071-0.138-0.138-0.209-0.203l-0.004-0.003c-0.039-0.035-0.090-0.062-0.137-0.097-0.005-0.002-0.016-0.021-0.021-0.023-0.050-0.025-0.094-0.054-0.132-0.088l0.001 0c-0.053-0.049-0.081-0.093-0.125-0.127l0.002-0.002c0.024-0.018 0.052-0.035 0.080-0.050l0.003-0.001c0.039-0.023 0.102-0.016 0.146 0.005 0.014 0.005 0.032 0.019 0.046 0.030 0.053 0.044 0.127 0.074 0.215 0.102 0.086 0.026 0.107 0.081 0.174 0.139 0.032 0.030 0.067 0.056 0.109 0.074 0.002 0.002 0.012 0.016 0.016 0.021 0.039 0.028 0.081 0.051 0.116 0.081 0.060 0.056 0.118 0.111 0.176 0.171 0.009 0.009 0.012 0.028 0.023 0.037 0.044 0.042 0.088 0.086 0.141 0.111s0.099 0.060 0.15 0.090c-0.139 0.007-0.275 0.007-0.412 0.007h-0.005z"></path>
<path fill="#fc0" d="M21.273 16.163c0.018 0.005 0.039 0.012 0.060 0.019 0.086 0.025 0.107 0.081 0.174 0.139 0.032 0.030 0.067 0.055 0.109 0.074 0.002 0.002 0.012 0.016 0.016 0.021 0.039 0.028 0.081 0.051 0.116 0.081 0.060 0.056 0.118 0.111 0.176 0.171 0.009 0.009 0.012 0.028 0.023 0.037 0.044 0.042 0.088 0.086 0.141 0.111 0.046 0.021 0.086 0.051 0.127 0.076 0.113 0 0.227-0.002 0.345-0.007-0.046-0.028-0.088-0.060-0.139-0.083-0.049-0.023-0.086-0.063-0.127-0.102-0.009-0.007-0.012-0.023-0.021-0.032-0.053-0.056-0.107-0.104-0.162-0.155-0.030-0.028-0.067-0.049-0.102-0.074-0.005-0.002-0.014-0.016-0.016-0.019-0.038-0.019-0.071-0.041-0.1-0.067l0 0c-0.060-0.053-0.079-0.104-0.157-0.127s-0.146-0.053-0.194-0.090c-0.014-0.012-0.030-0.025-0.042-0.030-0.042-0.019-0.097-0.026-0.134-0.005-0.032 0.019-0.065 0.039-0.093 0.063z"></path>
<path fill="#fc0" d="M21.838 16.295c0.016 0.018 0.032 0.037 0.056 0.058 0.030 0.028 0.062 0.049 0.099 0.067 0.002 0.002 0.012 0.016 0.016 0.019 0.035 0.025 0.072 0.046 0.102 0.074 0.056 0.051 0.109 0.1 0.162 0.155 0.009 0.009 0.012 0.025 0.021 0.032 0.042 0.039 0.079 0.079 0.127 0.102 0.032 0.016 0.060 0.035 0.090 0.053h-0.002c0.134 0 0.268 0 0.405-0.005-0.037-0.023-0.070-0.049-0.111-0.067-0.039-0.021-0.069-0.053-0.104-0.083-0.007-0.007-0.009-0.019-0.016-0.028-0.041-0.041-0.083-0.082-0.126-0.122l-0.003-0.003c-0.025-0.023-0.055-0.039-0.083-0.060-0.005-0.002-0.012-0.012-0.014-0.014-0.030-0.014-0.055-0.032-0.081-0.053-0.049-0.044-0.062-0.086-0.125-0.104-0.065-0.021-0.12-0.042-0.16-0.074-0.012-0.009-0.023-0.018-0.032-0.023-0.035-0.014-0.079-0.021-0.109-0.005-0.042 0.024-0.078 0.050-0.112 0.079l0.001-0.001v0.002h0z"></path>
<path fill="#fc0" d="M22.886 16.832c-0.024-0.018-0.051-0.034-0.080-0.047l-0.003-0.001c-0.039-0.021-0.069-0.053-0.104-0.083-0.007-0.007-0.009-0.019-0.016-0.028-0.044-0.044-0.086-0.083-0.13-0.125-0.025-0.023-0.056-0.039-0.083-0.060-0.005-0.002-0.012-0.012-0.014-0.014-0.030-0.014-0.056-0.032-0.081-0.053-0.042-0.037-0.058-0.072-0.1-0.095l0.002 0.002c0.021-0.016 0.044-0.032 0.067-0.044 0.028-0.016 0.065-0.009 0.095 0.002 0.007 0.002 0.019 0.014 0.028 0.021 0.035 0.025 0.079 0.046 0.137 0.062 0.053 0.016 0.065 0.051 0.106 0.088 0.021 0.018 0.044 0.035 0.069 0.046 0.002 0.002 0.007 0.012 0.012 0.014 0.023 0.016 0.051 0.030 0.072 0.051 0.037 0.035 0.074 0.069 0.111 0.106 0.007 0.007 0.007 0.018 0.014 0.023 0.028 0.025 0.055 0.053 0.088 0.069 0.035 0.019 0.065 0.039 0.097 0.058-0.097 0.005-0.192 0.005-0.287 0.005v0.002z"></path>
<path fill="#fc0" d="M19.175 19.907l0.040 0.297c-0.078-0.026-0.15 0.020-0.185 0.085-0.055 0.111-0.006 0.195 0.1 0.248l0.143 0.074 0.267-0.518-0.107-0.053-0.107 0.208h-0.002l-0.023-0.275-0.127-0.065zM19.215 20.298c0.017 0.002 0.036 0.009 0.055 0.019l0.013 0.006-0.075 0.142-0.013-0.007c-0.049-0.025-0.081-0.055-0.053-0.113 0.019-0.036 0.044-0.049 0.073-0.047z"></path>
<path fill="#fc0" d="M18.712 20.178l0.072-0.106-0.157-0.104 0.056-0.081 0.155 0.104 0.088-0.13-0.162-0.109 0.056-0.083 0.259 0.176-0.324 0.481-0.259-0.174 0.056-0.081z"></path>
<path fill="#fc0" d="M18.605 19.5l-0.141 0.164-0.045-0.037c-0.092-0.081-0.186-0.077-0.267 0.015-0.085 0.102-0.054 0.191 0.044 0.272l0.122 0.105 0.377-0.442-0.089-0.077zM18.31 19.689c0.020 0.002 0.043 0.015 0.067 0.036l0.019 0.013-0.105 0.122-0.017-0.014c-0.044-0.037-0.069-0.071-0.025-0.125 0.022-0.026 0.041-0.035 0.061-0.033z"></path>
<path fill="#fc0" d="M17.89 19.641l-0.079-0.088 0.241-0.22c0.053-0.046 0.125-0.12 0.058-0.194s-0.148-0.012-0.201 0.037l-0.241 0.217-0.079-0.086 0.257-0.234c0.106-0.095 0.227-0.12 0.336-0.002 0.109 0.12 0.072 0.241-0.035 0.336l-0.257 0.234z"></path>
<path fill="#fc0" d="M17.677 18.542c-0.033-0.003-0.068 0.005-0.103 0.030-0.051 0.037-0.090 0.103-0.060 0.17-0.042-0.019-0.089-0.006-0.124 0.020-0.095 0.065-0.093 0.146-0.028 0.238l0.083 0.12 0.48-0.329-0.105-0.151c-0.039-0.057-0.088-0.094-0.143-0.098zM17.675 18.667c0.035-0.003 0.060 0.025 0.085 0.060l0.015 0.019-0.123 0.083-0.010-0.013c-0.030-0.044-0.061-0.095-0.003-0.135 0.014-0.009 0.025-0.012 0.037-0.013zM17.505 18.835c0.021-0.001 0.039 0.014 0.057 0.040l0.009 0.011-0.114 0.078-0.008-0.011c-0.026-0.037-0.033-0.072 0.013-0.102 0.017-0.012 0.030-0.017 0.043-0.017z"></path>
<path fill="#fc0" d="M17.64 18.354l-0.511 0.278-0.058-0.104 0.426-0.229-0.079-0.148 0.086-0.046zM16.876 18.121l0.532-0.234 0.046 0.109-0.532 0.234zM16.812 17.484c-0.028 0.042-0.032 0.097-0.018 0.146 0.037 0.107 0.15 0.137 0.248 0.107 0.093-0.030 0.164-0.125 0.13-0.229-0.014-0.049-0.056-0.088-0.1-0.109l0.127-0.042c0.035 0.037 0.062 0.074 0.076 0.12 0.053 0.162-0.042 0.324-0.194 0.375-0.157 0.051-0.333-0.019-0.389-0.187-0.008-0.027-0.013-0.058-0.013-0.090 0-0.017 0.001-0.034 0.004-0.051l-0 0.002 0.129-0.042z"></path>
<path fill="#fc0" d="M17.090 16.707l-0.547 0.332 0.017 0.090 0.628 0.126-0.023-0.122-0.128-0.028-0.038-0.207 0.115-0.068-0.023-0.123zM16.913 16.948l0.025 0.14-0.22-0.027v-0.004l0.195-0.11zM16.783 15.62c-0.15 0.001-0.269 0.105-0.282 0.27l-0.013 0.166 0.578 0.047 0.013-0.167c0.014-0.171-0.102-0.301-0.267-0.315-0.010-0.001-0.020-0.002-0.030-0.002zM16.762 15.754c0.013-0.001 0.026-0.002 0.040 0 0.104 0.007 0.172 0.065 0.16 0.196v0.017l-0.348-0.029 0.002-0.017c0.008-0.107 0.058-0.162 0.147-0.168z"></path>
<path fill="#fc0" d="M16.68 15.3l0.125 0.025 0.039-0.183 0.095 0.021-0.037 0.183 0.155 0.032 0.039-0.19 0.095 0.019-0.062 0.308-0.569-0.12 0.062-0.305 0.097 0.021zM16.902 14.536l0.118 0.046 0.069-0.176 0.093 0.037-0.069 0.176 0.146 0.055 0.072-0.18 0.093 0.035-0.113 0.292-0.544-0.211 0.116-0.292 0.093 0.035zM17.49 14.388l-0.518-0.266 0.053-0.104 0.43 0.22 0.076-0.148 0.088 0.044zM17.617 13.326c-0.037 0.002-0.069 0.014-0.093 0.044-0.023 0.032-0.023 0.076 0.007 0.099 0.079 0.058 0.19-0.16 0.347-0.042 0.093 0.069 0.113 0.178 0.039 0.278-0.049 0.067-0.123 0.088-0.201 0.081l-0.012-0.104c0.046 0.014 0.102 0.005 0.132-0.037 0.030-0.037 0.016-0.086-0.021-0.111-0.049-0.037-0.095 0-0.139 0.028-0.069 0.044-0.134 0.067-0.206 0.014-0.079-0.058-0.097-0.164-0.037-0.245 0.032-0.044 0.097-0.088 0.151-0.095l0.032 0.090z"></path>
<path fill="#fc0" d="M17.877 12.817l-0.065 0.065 0.265 0.585 0.086-0.090-0.053-0.12 0.145-0.15 0.122 0.050 0.087-0.090-0.587-0.25zM17.969 12.982l0.185 0.085-0.090 0.095-0.097-0.178 0.002-0.002z"></path>
<path fill="#fc0" d="M18.552 13l-0.366-0.454 0.093-0.074 0.303 0.375 0.13-0.104 0.062 0.076zM18.853 12.070l0.109-0.067 0.12 0.629-0.058 0.037-0.516-0.38 0.106-0.069 0.333 0.255 0.002-0.002z"></path>
<path fill="#fc0" d="M19.373 11.787l-0.083 0.040 0.030 0.642 0.114-0.052-0.005-0.135 0.19-0.085 0.093 0.093 0.115-0.052-0.453-0.452zM19.397 11.977l0.143 0.148-0.121 0.053-0.023-0.198v-0.003zM20.022 11.585c-0.030 0-0.062 0.005-0.093 0.015l-0.16 0.047 0.163 0.556 0.158-0.045c0.166-0.049 0.248-0.204 0.202-0.362-0.038-0.13-0.141-0.213-0.27-0.212zM20.018 11.707c0.073 0.003 0.121 0.045 0.145 0.129 0.030 0.099-0.001 0.181-0.128 0.218l-0.017 0.006-0.097-0.335 0.017-0.006c0.030-0.008 0.056-0.013 0.080-0.012zM20.72 11.417c-0.011 0.001-0.022 0.002-0.033 0.003-0.174 0.023-0.277 0.18-0.254 0.342 0.021 0.164 0.162 0.286 0.335 0.263 0.175-0.023 0.277-0.178 0.257-0.342-0.020-0.152-0.145-0.271-0.305-0.267zM20.707 11.547c0.092-0.012 0.17 0.065 0.182 0.15 0.009 0.079-0.046 0.188-0.137 0.202-0.090 0.012-0.173-0.081-0.185-0.16-0.009-0.085 0.045-0.18 0.14-0.191zM21.202 11.39l-0.006 0.582h0.118l0.002-0.234h0.002l0.143 0.237 0.143 0.002-0.168-0.246c0.081-0.012 0.125-0.086 0.125-0.16 0.002-0.125-0.081-0.176-0.198-0.179l-0.16-0.002zM21.322 11.493h0.017c0.055 0 0.099 0.013 0.097 0.078 0 0.065-0.042 0.082-0.102 0.082h-0.013l0.002-0.16z"></path>
<path fill="#fc0" d="M22.437 11.623l-0.030 0.125 0.18 0.044-0.023 0.097-0.183-0.046-0.037 0.153 0.19 0.049-0.025 0.095-0.303-0.076 0.142-0.565 0.303 0.076-0.023 0.097zM22.879 11.625l0.078 0.030 0.144 0.498h0.002l0.146-0.363 0.109 0.044-0.22 0.551-0.079-0.032-0.146-0.495h-0.003l-0.146 0.366-0.109-0.042zM23.501 12.572l0.31-0.493 0.099 0.063-0.257 0.41 0.141 0.088-0.053 0.083z"></path>
<path fill="#fc0" d="M24.358 12.44l-0.56 0.315 0.097 0.078 0.115-0.065 0.162 0.135-0.040 0.125 0.098 0.078 0.2-0.609-0.071-0.058zM24.271 12.609l-0.067 0.193-0.101-0.082 0.168-0.111zM25.23 13.35l-0.62 0.158 0.071 0.1 0.13-0.030 0.122 0.169-0.071 0.111 0.075 0.102 0.348-0.537-0.055-0.074zM25.105 13.49l-0.115 0.17-0.077-0.107 0.192-0.063z"></path>
<path fill="#fc0" d="M25.029 14.127l-0.053-0.107 0.578-0.178 0.039 0.074-0.275 0.305 0.405-0.044 0.039 0.076-0.492 0.349-0.054-0.106 0.301-0.206-0.392 0.042-0.018-0.035 0.269-0.285v-0.002zM25.802 14.68l-0.12 0.042 0.060 0.176-0.095 0.032-0.061-0.178-0.148 0.051 0.062 0.185-0.095 0.032-0.099-0.299 0.551-0.185 0.101 0.296-0.095 0.032z"></path>
<path fill="#fc0" d="M26.017 15.049l-0.566 0.12 0.023 0.115 0.229-0.048h0.003l-0.2 0.195 0.031 0.139 0.203-0.217c0.030 0.077 0.11 0.101 0.182 0.085 0.123-0.026 0.156-0.115 0.13-0.234l-0.035-0.155zM25.945 15.188l0.003 0.015c0.012 0.055 0.008 0.102-0.057 0.114-0.062 0.014-0.087-0.024-0.099-0.082l-0.003-0.013 0.155-0.034z"></path>
<path fill="#fc0" d="M26.137 15.735l-0.578 0.067-0.014-0.116 0.578-0.067zM26.010 16.364c0.039-0.032 0.060-0.083 0.060-0.134-0.002-0.113-0.104-0.176-0.204-0.173-0.097 0-0.194 0.069-0.192 0.18 0 0.049 0.025 0.1 0.062 0.132l-0.134 0.002c-0.021-0.044-0.037-0.088-0.037-0.137-0.002-0.171 0.137-0.299 0.296-0.301 0.167-0.002 0.312 0.116 0.317 0.294 0 0.049-0.012 0.095-0.033 0.136l0.001-0.002-0.137 0.002z"></path>
<path fill="#fc0" d="M25.582 16.474l-0.013 0.123 0.115 0.063-0.025 0.208-0.13 0.030-0.013 0.125 0.62-0.152 0.012-0.093-0.565-0.305zM25.777 16.711l0.182 0.084v0.002l-0.198 0.045 0.017-0.13z"></path>
<path fill="#fc0" d="M25.603 18.142c0.049-0.019 0.088-0.056 0.106-0.102 0.042-0.106-0.028-0.204-0.12-0.241-0.090-0.035-0.206-0.009-0.248 0.093-0.007 0.019-0.011 0.041-0.011 0.063 0 0.031 0.008 0.060 0.021 0.086l-0-0.001-0.127-0.049c-0.002-0.049 0-0.095 0.018-0.141 0.063-0.157 0.241-0.224 0.389-0.164 0.155 0.060 0.245 0.227 0.18 0.391-0.019 0.045-0.046 0.083-0.081 0.113l-0 0-0.127-0.049zM25.508 18.454l-0.114-0.060-0.090 0.164-0.086-0.046 0.088-0.164-0.139-0.077-0.093 0.174-0.085-0.049 0.148-0.275 0.512 0.277-0.148 0.275-0.088-0.049zM25.394 18.882l-0.049 0.070-0.516 0.016-0.002 0.003 0.317 0.229-0.069 0.097-0.479-0.351 0.049-0.067 0.518-0.019-0.319-0.234 0.069-0.095zM24.791 19.46l0.085-0.088 0.069 0.067-0.25 0.261-0.069-0.067 0.083-0.088-0.35-0.335 0.081-0.085z"></path>
<path fill="#fc0" d="M24.188 19.382l-0.092 0.073 0.15 0.182v0.002l-0.263-0.085-0.11 0.090 0.289 0.078c-0.053 0.062-0.040 0.146 0.009 0.203 0.078 0.095 0.177 0.082 0.267 0.005l0.122-0.102-0.37-0.446zM24.3 19.708l0.102 0.123-0.012 0.009c-0.044 0.037-0.083 0.054-0.125 0.005-0.042-0.051-0.020-0.090 0.027-0.126l0.008-0.010zM23.825 19.683l-0.107 0.067 0.023 0.13-0.179 0.11-0.103-0.078-0.107 0.067 0.511 0.385 0.077-0.048-0.117-0.632zM23.758 19.988l0.052 0.194h-0.003l-0.16-0.124 0.111-0.070z"></path>
<path fill="#fc0" d="M23.249 20.023l0.25 0.528-0.106 0.049-0.206-0.435-0.153 0.069-0.042-0.088z"></path>
</svg>
