<!-- Generated by IcoMoon.io -->
<svg version="1.1" xmlns="http://www.w3.org/2000/svg" width="43" height="32" viewBox="0 0 43 32">
<title>SYP</title>
<path fill="#fff" d="M0 10.667h42.667v10.667h-42.667v-10.667z"></path>
<path fill="#000" d="M0 21.333h42.667v10.667h-42.667v-10.667z"></path>
<path fill="#f00" d="M0 0h42.667v10.667h-42.667z"></path>
<path fill="#090" d="M13.46 18.733l-1.921-1.391-1.912 1.405 0.711-2.283-1.909-1.41 2.361-0.020 0.732-2.276 0.748 2.271 2.361 0.003-1.899 1.423 0.727 2.278zM33.969 18.733l-1.921-1.391-1.912 1.405 0.711-2.283-1.909-1.41 2.361-0.020 0.732-2.276 0.748 2.271 2.361 0.003-1.899 1.423 0.727 2.278z"></path>
</svg>
