<!-- Generated by IcoMoon.io -->
<svg version="1.1" xmlns="http://www.w3.org/2000/svg" width="43" height="32" viewBox="0 0 43 32">
<title>SZL</title>
<path fill="#3e5eb9" d="M-2.667 0h48v32h-48z"></path>
<path fill="#ffd900" d="M-2.667 5.714h48v20.571h-48z"></path>
<path fill="#b10c0c" d="M-2.667 8h48v16h-48z"></path>
<path fill="#ffd900" d="M2.479 15.657h38.136c0.199 0 0.36 0.164 0.36 0.366v-0.046c0 0.202-0.161 0.366-0.36 0.366h-38.136c-0.199 0-0.36-0.164-0.36-0.366v0.046c0-0.202 0.161-0.366 0.36-0.366z"></path>
<path fill="#fff" d="M36.759 12.343l-1.943 0.686 1.943 0.686 1.943-0.686-1.943-0.686z"></path>
<path fill="#ffd900" d="M7.425 12.8h28.040c0.146 0 0.265 0.109 0.265 0.244v-0.030c0 0.135-0.119 0.244-0.265 0.244h-28.040c-0.146 0-0.265-0.109-0.265-0.244v0.030c0-0.135 0.119-0.244 0.265-0.244z"></path>
<path fill="#fff" d="M34.93 13.714l-1.943 0.686 1.943 0.686 1.943-0.686-1.943-0.686z"></path>
<path fill="#ffd900" d="M5.597 14.171h28.040c0.146 0 0.265 0.109 0.265 0.244v-0.030c0 0.135-0.119 0.244-0.265 0.244h-28.040c-0.146 0-0.265-0.109-0.265-0.244v0.030c0-0.135 0.119-0.244 0.265-0.244z"></path>
<path fill="#3d5da7" d="M38.242 15.728c-0.346 0.6 0.266-0.199 1.759 0.804 0.277 0.187 0.518 0.679 0.518 1.021-0.070-0.047-0.122-0.152-0.2-0.219-0.108 0.109 0.103 0.606 0.134 0.841-0.233-0.131-0.211-0.192-0.288-0.353 0.015 0.194-0.040 0.729 0.053 0.934-0.184-0.053-0.172-0.201-0.268-0.23 0.065 0.233-0.057 0.487-0.025 0.748-0.108-0.106-0.222-0.19-0.272-0.233-0.008 0.125-0.207 0.453-0.211 0.57-0.091-0.055-0.116-0.141-0.131-0.199-0.113 0.142-0.516 0.669-0.542 0.829-0.31-0.274-1.106-0.942-1.209-1.297-0.092 0.201-0.224 0.269-0.486 0.416-0.103-0.562-0.49-1.193-0.283-1.675-0.147 0.087-0.267 0.174-0.414 0.281 0.139-0.814 0.847-1.768 1.865-2.24z"></path>
<path fill="#a70000" d="M36.951 18.698c0.144-0.287 0.276-0.378 0.369-0.564 0.164-0.325 0.188-0.584 0.331-0.546s0.143 0.171-0.042 0.491c-0.185 0.32-0.273 0.388-0.657 0.619zM37.923 19.382c-0.018-0.219 0.045-0.31 0.033-0.451-0.020-0.248-0.121-0.418 0.011-0.43s0.194 0.072 0.194 0.322c0 0.25-0.038 0.316-0.238 0.559zM38.661 19.811c-0.058-0.305-0.015-0.441-0.051-0.638-0.064-0.346-0.191-0.574-0.069-0.606s0.196 0.080 0.242 0.431 0.022 0.448-0.122 0.812zM39.428 17.671c-0.18-0.137-0.285-0.146-0.401-0.234-0.205-0.154-0.308-0.319-0.374-0.237s-0.019 0.172 0.195 0.314c0.214 0.142 0.287 0.154 0.58 0.157zM39.301 18.685c-0.095-0.197-0.195-0.247-0.256-0.374-0.109-0.223-0.109-0.416-0.227-0.366s-0.127 0.15-0.001 0.366c0.126 0.216 0.192 0.255 0.484 0.374z"></path>
<path fill="#3d5da7" d="M3.796 16.305c-0.019-0.175 0.018-0.195-0.089-0.327 0.156 0.065 0.162 0.239 0.352 0.116 0.070-0.036 0.1-0.037 0.015-0.231 0.198 0.009 0.848 0.232 0.952 0.237 0.273 0.013 0.772-0.287 1.117 0.081 0.332 0.336 0.221 0.684 0.221 1.149-0.133-0.064-0.069-0.095-0.211-0.262 0.106 0.406-0.006 1.139-0.006 1.57-0.054-0.104-0.046-0.059-0.1-0.166-0.142 0.393-0.311 0.474-0.311 0.939-0.051-0.182-0.002-0.144-0.059-0.24-0.138 0.299-1.061 0.554-0.705 0.855-0.321-0.188-0.462-0.169-0.608-0.338-0.063 0.040-0.113 0.117-0.171 0.222-0.565-0.26-0.363-0.82-0.805-1.194-0.077 0.157-0.042 0.134-0.124 0.39-0.090-0.355-0.114-0.58-0.215-0.841-0.087 0.145-0.079 0.089-0.237 0.308-0.065-0.432-0.171-0.534-0.13-0.82-0.168 0.118-0.058 0.070-0.226 0.216 0.159-1.107 0.845-1.925 1.337-1.663z"></path>
<path fill="#a70000" d="M3.102 18.113c0.145-0.357 0.277-0.468 0.371-0.698 0.166-0.403 0.193-0.726 0.333-0.677s0.137 0.215-0.049 0.612c-0.187 0.396-0.274 0.48-0.654 0.763zM3.653 19.005c0.058-0.32 0.15-0.436 0.188-0.642 0.067-0.362 0.030-0.631 0.159-0.617s0.159 0.151 0.073 0.511c-0.086 0.36-0.146 0.445-0.42 0.748zM4.311 19.625c0.016-0.31 0.089-0.431 0.1-0.63 0.020-0.351-0.048-0.602 0.076-0.604s0.168 0.125 0.13 0.476c-0.038 0.351-0.084 0.439-0.305 0.758zM5.726 17.598c-0.271-0.27-0.434-0.32-0.609-0.493-0.307-0.304-0.456-0.59-0.565-0.489s-0.044 0.253 0.28 0.543c0.324 0.29 0.436 0.332 0.894 0.439zM5.561 18.64c-0.176-0.271-0.305-0.341-0.419-0.515-0.201-0.306-0.269-0.569-0.383-0.504s-0.088 0.203 0.129 0.499c0.217 0.297 0.305 0.351 0.673 0.519z"></path>
<path fill="#fff" d="M32.762 16c-2.286 2.285-5.333 6.857-11.428 6.857-5.333 0-9.143-4.571-11.428-6.857 2.286-2.286 6.095-6.857 11.428-6.857 6.095 0 9.143 4.571 11.428 6.857z"></path>
<path fill="#000" d="M20.535 11.528c0.608 0.684 0.1 0.96 0.744 1.005 0.679 0.050 0.294 0.723 0.865 0.746 0.399 0.018-0.040 1.612 0.344 2.138 0.391 0.549 0.719 0.161 0.726 0.557 0.007 0.41-1.065 0.368-1.084 1.631-0.031 0.728-0.905 0.774-0.946 1.242-0.052 0.44 1.721 0.688 1.697 1.082-0.024 0.393-1.914 0.331-1.996 0.78-0.042 0.403 2.596 0.733 2.808 1.897-0.394 0.129-1.514 0.25-2.36 0.251-5.333 0.004-9.143-4.571-11.428-6.857 2.286-2.286 6.095-6.857 11.428-6.857 0 0-1.583 1.447-0.798 2.385z"></path>
<path fill="#fff" d="M14.171 13.562h0.554v1.829h-0.554zM14.171 16.609h0.554v1.828h-0.554zM15.279 13.562h0.554v1.829h-0.554zM15.279 16.609h0.554v1.828h-0.554zM16.388 13.562h0.554v1.829h-0.554zM16.388 16.609h0.554v1.828h-0.554zM17.496 13.562h0.554v1.829h-0.554zM17.496 16.609h0.554v1.828h-0.554zM18.604 13.562h0.554v1.829h-0.554zM18.604 16.609h0.554v1.828h-0.554zM19.712 13.562h0.554v1.829h-0.554zM19.712 16.609h0.554v1.828h-0.554z"></path>
<path fill="#000" d="M22.552 13.562h0.554v1.829h-0.554zM22.552 16.609h0.554v1.828h-0.554zM23.66 13.562h0.554v1.829h-0.554zM23.66 16.609h0.554v1.828h-0.554zM24.768 13.562h0.554v1.829h-0.554zM24.768 16.609h0.554v1.828h-0.554zM25.877 13.562h0.554v1.829h-0.554zM25.877 16.609h0.554v1.828h-0.554zM26.985 13.562h0.554v1.829h-0.554zM26.985 16.609h0.554v1.828h-0.554zM28.093 13.562h0.554v1.829h-0.554zM28.093 16.609h0.554v1.828h-0.554z"></path>
<path fill="#3d5da7" d="M17.637 10.361c-0.317 0.612 0.554-0.204 1.92 0.821 0.253 0.19 0.616 0.943 0.616 1.292-0.291-0.062-0.806-0.349-0.806-0.349s0.604 0.605 0.604 1.303c-0.213-0.133-0.32-0.113-0.391-0.277 0 0.226 0.19 0.37 0.19 0.719-0.154-0.123-0.285-0.205-0.415-0.277 0.201 0.349-0.367 1.025-0.083 1.251-0.497-0.072-1.006-0.39-1.208-0.739-0.107 0.072-0.118 0.185-0.122 0.305 0.016 0.013-0.757-0.574-0.686-0.799-0.104 0.145-0.118 0.225-0.142 0.389-0.284-0.28-0.544-0.56-0.639-0.922-0.126 0.164-0.134 0.164-0.26 0.328-0.095-0.574-0.095-0.553 0.095-1.045-0.134 0.089-0.244 0.178-0.379 0.287 0.127-0.831 0.775-1.805 1.706-2.287z"></path>
<path fill="#a70000" d="M16.857 13.353c0.051-0.422 0.161-0.581 0.194-0.853 0.059-0.478-0.011-0.827 0.158-0.818s0.218 0.185 0.134 0.662c-0.084 0.477-0.154 0.593-0.487 1.009zM17.741 14.125c-0.034-0.356 0.031-0.508 0.010-0.737-0.038-0.404-0.162-0.677-0.015-0.702s0.222 0.11 0.238 0.518c0.016 0.407-0.023 0.516-0.233 0.921zM19.121 14.756c-0.15-0.308-0.279-0.4-0.376-0.598-0.171-0.348-0.207-0.633-0.339-0.582s-0.125 0.199 0.066 0.54c0.191 0.341 0.277 0.411 0.649 0.64zM19.598 11.997c-0.382-0.201-0.579-0.204-0.825-0.333-0.434-0.227-0.686-0.483-0.776-0.342s0.030 0.281 0.477 0.487c0.447 0.206 0.585 0.216 1.124 0.188zM19.738 13.149c-0.278-0.232-0.443-0.266-0.622-0.415-0.316-0.261-0.474-0.518-0.579-0.414s-0.035 0.242 0.297 0.488 0.445 0.277 0.905 0.341z"></path>
</svg>
