<!-- Generated by IcoMoon.io -->
<svg version="1.1" xmlns="http://www.w3.org/2000/svg" width="43" height="32" viewBox="0 0 43 32">
<title>TJS</title>
<path fill="#060" d="M0 0h42.667v32h-42.667z"></path>
<path fill="#fff" d="M0 0h42.667v22.857h-42.667z"></path>
<path fill="#c00" d="M0 0h42.667v9.143h-42.667z"></path>
<path fill="#f8c300" d="M20.053 15.575c0.101-0.171 0.284-0.284 0.494-0.284 0.309 0 0.561 0.246 0.571 0.553l0 0.001v2.286h0.43v-2.286c0.010-0.308 0.262-0.554 0.571-0.554 0.21 0 0.393 0.113 0.493 0.282l0.001 0.003c0.044-0.127 0.069-0.273 0.069-0.425 0-0.745-0.604-1.349-1.349-1.349s-1.349 0.604-1.349 1.349c0 0.152 0.025 0.298 0.071 0.434l-0.003-0.009z"></path>
<path fill="#fff" d="M20.36 14.978c0.055-0.012 0.118-0.019 0.183-0.019 0.336 0 0.629 0.181 0.788 0.451l0.002 0.004c0.161-0.274 0.455-0.455 0.791-0.455 0.065 0 0.128 0.007 0.189 0.020l-0.006-0.001c-0.068-0.482-0.478-0.849-0.974-0.849s-0.906 0.367-0.973 0.844l-0.001 0.005z"></path>
<path fill="#f8c300" d="M21.118 17.217c-0.082 0.89-0.826 1.582-1.73 1.582-0.46 0-0.879-0.179-1.189-0.471l0.001 0.001c-0.273 0.672-0.921 1.137-1.678 1.137-0.395 0-0.761-0.127-1.058-0.343l0.005 0.004c0.167 1.665 2.663 1.325 2.849-0.294 0.784 1.377 2.508 0.982 3.013-0.704z"></path>
<path fill="#f8c300" d="M21.548 17.217c0.082 0.89 0.826 1.582 1.73 1.582 0.46 0 0.879-0.179 1.189-0.471l-0.001 0.001c0.273 0.672 0.921 1.137 1.678 1.137 0.395 0 0.761-0.127 1.058-0.343l-0.005 0.004c-0.167 1.665-2.663 1.325-2.849-0.294-0.784 1.377-2.508 0.982-3.013-0.704z"></path>
<path fill="#f8c300" d="M19.452 20.174c-0.348 0.752-1.044 0.881-1.653 0.274 0 0 0.245-0.173 0.507-0.221-0.049-0.209 0.052-0.498 0.194-0.655 0.149 0.102 0.357 0.306 0.41 0.543 0.367-0.047 0.543 0.059 0.543 0.059z"></path>
<path fill="#f8c300" d="M22.176 20.089c-0.466 0.685-1.174 0.699-1.676 0.001 0 0 0.27-0.131 0.536-0.135-0.014-0.214 0.132-0.483 0.298-0.615 0.13 0.125 0.302 0.36 0.316 0.602 0.37 0.013 0.526 0.146 0.526 0.146z"></path>
<path fill="#f8c300" d="M24.878 20.449c-0.571 0.6-1.272 0.499-1.654-0.272 0 0 0.287-0.085 0.551-0.046 0.021-0.214 0.209-0.455 0.394-0.558 0.108 0.144 0.24 0.404 0.213 0.646 0.363 0.073 0.496 0.23 0.496 0.23z"></path>
<path fill="none" stroke="#f8c300" stroke-linejoin="miter" stroke-linecap="butt" stroke-miterlimit="4" stroke-width="0.7314" d="M16.899 21.851c1.327-0.41 2.853-0.646 4.434-0.646s3.107 0.236 4.544 0.675l-0.11-0.029"></path>
<path fill="#f8c300" d="M22.023 11.921l-1.807-1.313h2.233l-1.807 1.313 0.69-2.124z"></path>
<path fill="#f8c300" d="M18.823 12.779l-1.807-1.313h2.233l-1.807 1.313 0.69-2.124z"></path>
<path fill="#f8c300" d="M16.481 15.121l-1.807-1.313h2.233l-1.807 1.313 0.69-2.124z"></path>
<path fill="#f8c300" d="M15.623 18.321l-1.807-1.313h2.233l-1.807 1.313 0.69-2.124z"></path>
</svg>
