<!-- Generated by IcoMoon.io -->
<svg version="1.1" xmlns="http://www.w3.org/2000/svg" width="43" height="32" viewBox="0 0 43 32">
<title>TMT</title>
<path fill="#004e00" d="M-2.667 0h48v32h-48z"></path>
<path fill="#ffef00" d="M13.619 10.743h0.883z"></path>
<path fill="#fff" d="M13.79 8.593c1.744 0.841 3.82-0.004 4.571-1.165 0.77-1.083 0.865-2.902-0.467-4.571 2.067 1.714 2.524 3.657 1.495 5.257-1.372 1.828-4.414 1.775-5.6 0.479z"></path>
<path fill="#feffff" d="M16.886 4.339l0.351 0.005-0.278 0.221 0.104 0.345-0.29-0.204-0.287 0.209 0.099-0.346-0.281-0.216 0.351-0.010 0.113-0.342zM15.154 6.511l0.351 0.004-0.278 0.221 0.104 0.345-0.29-0.204-0.287 0.209 0.099-0.346-0.281-0.216 0.351-0.010 0.113-0.342zM15.268 4.797l0.351 0.004-0.278 0.221 0.104 0.345-0.29-0.204-0.287 0.209 0.099-0.346-0.281-0.216 0.351-0.010 0.113-0.342zM15.268 3.082l0.351 0.005-0.278 0.22 0.104 0.345-0.29-0.204-0.287 0.209 0.099-0.346-0.281-0.216 0.351-0.010 0.113-0.342zM13.343 5.254l0.351 0.005-0.278 0.221 0.104 0.345-0.29-0.204-0.287 0.209 0.099-0.346-0.281-0.216 0.351-0.010 0.113-0.342z"></path>
<path fill="#980000" d="M0.305 0h10.286v31.999h-10.286z"></path>
<path fill="#e69900" d="M0.305 8.343v-0.229l0.425-0.571-0.086-0.114 0.257-0.343-0.086-0.114-0.171 0.229-0.086-0.114 0.6-0.8 0.086 0.114-0.086 0.114 0.177 0.231 0.423-0.574-0.43-0.556-0.17 0.213 0.086 0.114-0.086 0.114-0.6-0.8 0.086-0.114 0.171 0.229 0.086-0.114-0.257-0.343 0.086-0.114-0.425-0.571v-0.229l0.597 0.8-0.086 0.114 0.257 0.343-0.171 0.229 0.171 0.229 0.257-0.343 0.603 0.814-0.603 0.786-0.257-0.343-0.171 0.229 0.171 0.229-0.257 0.343 0.086 0.114-0.597 0.8z"></path>
<path fill="#e69900" d="M0.305 5.486l0.086 0.229v0.343h0.257l0.171 0.114-0.171 0.114h-0.257v0.343l-0.086 0.229v-1.371z"></path>
<path fill="#e69900" d="M0.305 13.828v-0.229l0.425-0.571-0.086-0.114 0.257-0.343-0.086-0.114-0.171 0.229-0.086-0.114 0.6-0.8 0.086 0.114-0.086 0.114 0.177 0.231 0.423-0.574-0.43-0.556-0.17 0.213 0.086 0.114-0.086 0.114-0.6-0.8 0.086-0.114 0.171 0.229 0.086-0.114-0.257-0.343 0.086-0.114-0.425-0.571v-0.229l0.597 0.8-0.086 0.114 0.257 0.343-0.171 0.229 0.171 0.229 0.257-0.343 0.603 0.814-0.603 0.786-0.257-0.343-0.171 0.229 0.171 0.229-0.257 0.343 0.086 0.114-0.597 0.8z"></path>
<path fill="#e69900" d="M0.305 10.971l0.086 0.229v0.343h0.257l0.171 0.114-0.171 0.114h-0.257v0.343l-0.086 0.229v-1.371z"></path>
<path fill="#e69900" d="M0.305 19.314v-0.229l0.425-0.571-0.086-0.114 0.257-0.343-0.086-0.114-0.171 0.229-0.086-0.114 0.6-0.8 0.086 0.114-0.086 0.114 0.177 0.231 0.423-0.574-0.43-0.556-0.17 0.213 0.086 0.114-0.086 0.114-0.6-0.8 0.086-0.114 0.171 0.229 0.086-0.114-0.257-0.343 0.086-0.114-0.425-0.571v-0.229l0.597 0.8-0.086 0.114 0.257 0.343-0.171 0.229 0.171 0.229 0.257-0.343 0.603 0.814-0.603 0.786-0.257-0.343-0.171 0.229 0.171 0.229-0.257 0.343 0.086 0.114-0.597 0.8z"></path>
<path fill="#e69900" d="M0.305 16.457l0.086 0.229v0.343h0.257l0.171 0.114-0.171 0.114h-0.257v0.343l-0.086 0.229v-1.371z"></path>
<path fill="#e69900" d="M0.305 24.456v-0.229l0.425-0.571-0.086-0.114 0.257-0.343-0.086-0.114-0.171 0.229-0.086-0.114 0.6-0.8 0.086 0.114-0.086 0.114 0.177 0.231 0.423-0.574-0.43-0.556-0.17 0.213 0.086 0.114-0.086 0.114-0.6-0.8 0.086-0.114 0.171 0.229 0.086-0.114-0.257-0.343 0.086-0.114-0.425-0.571v-0.229l0.597 0.8-0.086 0.114 0.257 0.343-0.171 0.229 0.171 0.229 0.257-0.343 0.603 0.814-0.603 0.786-0.257-0.343-0.171 0.229 0.171 0.229-0.257 0.343 0.086 0.114-0.597 0.8z"></path>
<path fill="#e69900" d="M0.305 21.599l0.086 0.229v0.343h0.257l0.171 0.114-0.171 0.114h-0.257v0.343l-0.086 0.229v-1.371z"></path>
<path fill="#e69900" d="M10.59 8.343v-0.229l-0.425-0.571 0.086-0.114-0.257-0.343 0.086-0.114 0.171 0.229 0.086-0.114-0.6-0.8-0.086 0.114 0.086 0.114-0.177 0.231-0.423-0.574 0.43-0.556 0.17 0.213-0.086 0.114 0.086 0.114 0.6-0.8-0.086-0.114-0.171 0.229-0.086-0.114 0.257-0.343-0.086-0.114 0.425-0.571v-0.229l-0.597 0.8 0.086 0.114-0.257 0.343 0.171 0.229-0.171 0.229-0.257-0.343-0.603 0.814 0.603 0.786 0.257-0.343 0.171 0.229-0.171 0.229 0.257 0.343-0.086 0.114 0.597 0.8z"></path>
<path fill="#e69900" d="M10.59 5.486l-0.086 0.229v0.343h-0.257l-0.171 0.114 0.171 0.114h0.257v0.343l0.086 0.229v-1.371z"></path>
<path fill="#e69900" d="M10.618 13.828v-0.229l-0.425-0.571 0.086-0.114-0.257-0.343 0.086-0.114 0.171 0.229 0.086-0.114-0.6-0.8-0.086 0.114 0.086 0.114-0.177 0.231-0.423-0.574 0.43-0.556 0.17 0.213-0.086 0.114 0.086 0.114 0.6-0.8-0.086-0.114-0.171 0.229-0.086-0.114 0.257-0.343-0.086-0.114 0.425-0.571v-0.229l-0.597 0.8 0.086 0.114-0.257 0.343 0.171 0.229-0.171 0.229-0.257-0.343-0.603 0.814 0.603 0.786 0.257-0.343 0.171 0.229-0.171 0.229 0.257 0.343-0.086 0.114 0.597 0.8z"></path>
<path fill="#e69900" d="M10.618 10.971l-0.086 0.229v0.343h-0.257l-0.171 0.114 0.171 0.114h0.257v0.343l0.086 0.229v-1.371z"></path>
<path fill="#e69900" d="M10.59 19.314v-0.229l-0.425-0.571 0.086-0.114-0.257-0.343 0.086-0.114 0.171 0.229 0.086-0.114-0.6-0.8-0.086 0.114 0.086 0.114-0.177 0.231-0.423-0.574 0.43-0.556 0.17 0.213-0.086 0.114 0.086 0.114 0.6-0.8-0.086-0.114-0.171 0.229-0.086-0.114 0.257-0.343-0.086-0.114 0.425-0.571v-0.229l-0.597 0.8 0.086 0.114-0.257 0.343 0.171 0.229-0.171 0.229-0.257-0.343-0.603 0.814 0.603 0.786 0.257-0.343 0.171 0.229-0.171 0.229 0.257 0.343-0.086 0.114 0.597 0.8z"></path>
<path fill="#e69900" d="M10.59 16.457l-0.086 0.229v0.343h-0.257l-0.171 0.114 0.171 0.114h0.257v0.343l0.086 0.229v-1.371z"></path>
<path fill="#e69900" d="M10.59 24.456v-0.229l-0.425-0.571 0.086-0.114-0.257-0.343 0.086-0.114 0.171 0.229 0.086-0.114-0.6-0.8-0.086 0.114 0.086 0.114-0.177 0.231-0.423-0.574 0.43-0.556 0.17 0.213-0.086 0.114 0.086 0.114 0.6-0.8-0.086-0.114-0.171 0.229-0.086-0.114 0.257-0.343-0.086-0.114 0.425-0.571v-0.229l-0.597 0.8 0.086 0.114-0.257 0.343 0.171 0.229-0.171 0.229-0.257-0.343-0.603 0.814 0.603 0.786 0.257-0.343 0.171 0.229-0.171 0.229 0.257 0.343-0.086 0.114 0.597 0.8z"></path>
<path fill="#e69900" d="M10.59 21.599l-0.086 0.229v0.343h-0.257l-0.171 0.114 0.171 0.114h0.257v0.343l0.086 0.229v-1.371z"></path>
<path fill="#e69900" d="M0.305 2.171v-0.228l0.425-0.571-0.086-0.114 0.257-0.343-0.086-0.114-0.171 0.229-0.086-0.114 0.6-0.8 0.086 0.114-0.086 0.114 0.177 0.231 0.423-0.574h0.175l-0.603 0.8-0.257-0.343-0.171 0.229 0.171 0.229-0.257 0.343 0.086 0.114-0.597 0.8zM0.305 0h0.514l-0.171 0.114h-0.257v0.343l-0.086 0.229v-0.686z"></path>
<path fill="#e69900" d="M10.59 2.171v-0.228l-0.425-0.571 0.086-0.114-0.257-0.343 0.086-0.114 0.171 0.229 0.086-0.114-0.6-0.8-0.086 0.114 0.086 0.114-0.177 0.231-0.423-0.574h-0.175l0.603 0.8 0.257-0.343 0.171 0.229-0.171 0.229 0.257 0.343-0.086 0.114 0.597 0.8zM10.59 0h-0.514l0.171 0.114h0.257v0.343l0.086 0.229v-0.686z"></path>
<path fill="#e69900" d="M4.591 31.543s0.369-0.648 1.299-0.844c0.93-0.196 1.092 0.432 1.624 0.432s1.373-0.432 1.373-0.432-0.841 0.825-1.491 0.805c-0.649-0.020-0.871-0.432-1.535-0.373s-1.269 0.432-1.269 0.412z"></path>
<path fill="#e69900" d="M6.386 31.543s-0.369-0.648-1.299-0.844c-0.93-0.196-1.092 0.432-1.624 0.432s-1.373-0.432-1.373-0.432 0.841 0.825 1.491 0.805c0.649-0.020 0.871-0.432 1.535-0.373s1.269 0.432 1.269 0.412z"></path>
<path fill="#e69900" d="M3.345 30.471c-0.082-0.171-0.287-0.919-0.177-1.013 0.164-0.062 0.6 0.701 0.559 1.387-0.287 0.156-1.255-0.062-1.242-0.265 0.068-0.28 0.614-0.187 0.86-0.109z"></path>
<path fill="#e69900" d="M2.76 29.818c-0.054-0.19-0.138-0.978-0.017-1.040 0.17-0.016 0.479 0.851 0.333 1.511-0.304 0.074-1.219-0.407-1.174-0.601 0.11-0.256 0.63-0.014 0.858 0.13z"></path>
<path fill="#e69900" d="M2.284 29.086c-0.036-0.197-0.050-0.993 0.076-1.035 0.17 0.011 0.4 0.921 0.196 1.553-0.309 0.025-1.174-0.596-1.112-0.782 0.132-0.236 0.627 0.086 0.84 0.265z"></path>
<path fill="#e69900" d="M1.909 28.308c-0.013-0.203 0.066-0.992 0.195-1.007 0.167 0.046 0.288 0.993 0.013 1.575-0.308-0.039-1.090-0.832-1.008-1.003 0.158-0.206 0.609 0.214 0.8 0.435z"></path>
<path fill="#e69900" d="M1.648 27.492c0.009-0.203 0.172-0.969 0.302-0.959 0.16 0.078 0.178 1.038-0.157 1.561-0.301-0.098-0.99-1.032-0.889-1.186 0.179-0.174 0.58 0.329 0.744 0.584z"></path>
<path fill="#e69900" d="M1.721 26.563c-0.022 0.812-0.17 0.822-0.439 0.221-0.119-0.227-0.134-1.169-0.026-1.204 0.155-0.003 0.462 0.669 0.466 0.983z"></path>
<path fill="#e69900" d="M7.585 30.557c0.082-0.171 0.287-0.919 0.177-1.013-0.164-0.062-0.6 0.701-0.559 1.387 0.287 0.156 1.255-0.062 1.242-0.265-0.068-0.28-0.614-0.187-0.86-0.109z"></path>
<path fill="#e69900" d="M8.171 29.903c0.054-0.19 0.138-0.978 0.017-1.040-0.17-0.016-0.479 0.851-0.333 1.511 0.304 0.074 1.219-0.407 1.174-0.601-0.11-0.256-0.63-0.014-0.858 0.13z"></path>
<path fill="#e69900" d="M8.647 29.172c0.036-0.197 0.050-0.993-0.076-1.035-0.17 0.011-0.4 0.921-0.196 1.553 0.309 0.025 1.174-0.596 1.112-0.782-0.132-0.236-0.627 0.086-0.84 0.265z"></path>
<path fill="#e69900" d="M9.022 28.393c0.013-0.203-0.066-0.992-0.195-1.007-0.167 0.046-0.288 0.993-0.013 1.575 0.308-0.039 1.090-0.832 1.008-1.003-0.158-0.206-0.609 0.214-0.8 0.435z"></path>
<path fill="#e69900" d="M9.283 27.577c-0.009-0.203-0.172-0.969-0.302-0.959-0.16 0.078-0.178 1.037 0.157 1.561 0.301-0.098 0.989-1.032 0.889-1.186-0.179-0.174-0.58 0.329-0.744 0.584z"></path>
<path fill="#e69900" d="M9.21 26.649c0.022 0.812 0.17 0.822 0.439 0.221 0.119-0.227 0.134-1.169 0.027-1.204-0.155-0.003-0.462 0.669-0.466 0.983z"></path>
<path fill="#980000" d="M8.99 20.552h-0.494v0.347h-0.494v0.347h-1.977l-0.33 0.348 0.165 0.174h0.824l0.165-0.174h-0.824l0.165-0.174h1.154l-0.494 0.521h-1.154l-0.33-0.174-0.33 0.174-1.154 0-0.494-0.521 1.154 0 0.165 0.174-0.824-0 0.165 0.174h0.824l0.165-0.174-0.33-0.348h-1.813v-0.347h-0.494v-0.347h-0.494v-1.563h0.494v-0.347h0.494v-0.347h1.813l0.33-0.348-0.165-0.174h-0.824l-0.165 0.174 0.824-0-0.165 0.174-1.154 0 0.494-0.521 1.154 0 0.33 0.174 0.33-0.174h1.154l0.494 0.521h-1.154l-0.165-0.174h0.824l-0.165-0.174h-0.824l-0.165 0.174 0.33 0.348h1.977v0.347h0.494v0.347h0.494v1.563z"></path>
<path fill="#004e00" d="M2.069 19.166v1.216h0.494v0.344h0.494v0.347h1.648l0.659 0.521 0.659-0.521h1.813v-0.344l0.494-0.003v-0.347h0.494v-1.216h-0.494v-0.347l-0.494 0.003v-0.351h-1.813l-0.659-0.521-0.659 0.521h-1.648v0.351h-0.494v0.347h-0.494z"></path>
<path fill="#980000" d="M4.376 18.642l-0.989 0.869v-0.869h0.989zM6.353 18.642l0.989 0.869v-0.869h-0.989zM4.376 20.9l-0.989-0.869v0.869h0.989zM6.353 20.9l0.989-0.869v0.869h-0.989zM6.683 19.163l-0.33 0.347h0.659l-0.33-0.347zM4.047 19.163l-0.329 0.347h0.659l-0.33-0.347zM4.047 20.379l-0.329-0.347h0.659l-0.33 0.347zM6.683 20.379l-0.33-0.347h0.659l-0.33 0.347z"></path>
<path fill="#e69900" d="M5.364 21.248l-0.33-0.347h0.659l-0.33 0.347zM5.364 19.51l-0.33-0.347h0.659l-0.33 0.347zM5.364 18.294l-0.33 0.347h0.659l-0.33-0.347zM5.364 20.031l-0.33 0.347h0.659l-0.33-0.347z"></path>
<path fill="#e69900" d="M6.354 19.51h0.659v0.174h-0.659z"></path>
<path fill="#c00" d="M3.882 19.684h0.33v0.174h-0.33zM6.518 19.684h0.33v0.174h-0.33z"></path>
<path fill="#900" d="M5.035 18.642h0.659v0.174h-0.659zM5.035 18.989h0.659v0.174h-0.659z"></path>
<path fill="#900" d="M4.871 18.815h0.989v0.174h-0.989zM5.035 20.379h0.659v0.174h-0.659zM5.035 20.726h0.659v0.174h-0.659z"></path>
<path fill="#900" d="M4.871 20.552h0.989v0.174h-0.989z"></path>
<path fill="#e69900" d="M6.354 19.858h0.659v0.174h-0.659zM3.717 19.51h0.659v0.174h-0.659zM3.717 19.858h0.659v0.174h-0.659z"></path>
<path fill="#e69900" d="M3.552 19.684h0.33v0.174h-0.33zM4.211 19.684h0.33v0.174h-0.33zM6.189 19.684h0.33v0.174h-0.33zM6.848 19.684h0.33v0.174h-0.33z"></path>
<path fill="#fff" d="M5 20.64c0 0.024-0.018 0.043-0.041 0.043s-0.041-0.019-0.041-0.043c0-0.024 0.018-0.043 0.041-0.043s0.041 0.019 0.041 0.043z"></path>
<path fill="#fff" d="M5.41 20.64c0 0.024-0.018 0.043-0.041 0.043s-0.041-0.019-0.041-0.043c0-0.024 0.018-0.043 0.041-0.043s0.041 0.019 0.041 0.043z"></path>
<path fill="#fff" d="M5.821 20.637c0 0.024-0.018 0.043-0.041 0.043s-0.041-0.019-0.041-0.043c0-0.024 0.018-0.043 0.041-0.043s0.041 0.019 0.041 0.043z"></path>
<path fill="#fff" d="M5.164 20.467c0 0.024-0.018 0.043-0.041 0.043s-0.041-0.019-0.041-0.043c0-0.024 0.018-0.043 0.041-0.043s0.041 0.019 0.041 0.043z"></path>
<path fill="#fff" d="M5.653 20.463c0 0.024-0.018 0.043-0.041 0.043s-0.041-0.019-0.041-0.043c0-0.024 0.018-0.043 0.041-0.043s0.041 0.019 0.041 0.043z"></path>
<path fill="#fff" d="M5.16 20.81c0 0.024-0.018 0.043-0.041 0.043s-0.041-0.019-0.041-0.043c0-0.024 0.018-0.043 0.041-0.043s0.041 0.019 0.041 0.043z"></path>
<path fill="#fff" d="M5.653 20.817c0 0.024-0.018 0.043-0.041 0.043s-0.041-0.019-0.041-0.043c0-0.024 0.018-0.043 0.041-0.043s0.041 0.019 0.041 0.043z"></path>
<path fill="#fff" d="M6.31 19.764c0 0.024-0.018 0.043-0.041 0.043s-0.041-0.019-0.041-0.043c0-0.024 0.018-0.043 0.041-0.043s0.041 0.019 0.041 0.043z"></path>
<path fill="#fff" d="M6.721 19.764c0 0.024-0.018 0.043-0.041 0.043s-0.041-0.019-0.041-0.043c0-0.024 0.018-0.043 0.041-0.043s0.041 0.019 0.041 0.043z"></path>
<path fill="#fff" d="M7.132 19.76c0 0.024-0.018 0.043-0.041 0.043s-0.041-0.019-0.041-0.043c0-0.024 0.018-0.043 0.041-0.043s0.041 0.019 0.041 0.043z"></path>
<path fill="#fff" d="M6.474 19.59c0 0.024-0.018 0.043-0.041 0.043s-0.041-0.019-0.041-0.043c0-0.024 0.018-0.043 0.041-0.043s0.041 0.019 0.041 0.043z"></path>
<path fill="#fff" d="M6.964 19.587c0 0.024-0.018 0.043-0.041 0.043s-0.041-0.019-0.041-0.043c0-0.024 0.018-0.043 0.041-0.043s0.041 0.019 0.041 0.043z"></path>
<path fill="#fff" d="M6.471 19.933c0 0.024-0.018 0.043-0.041 0.043s-0.041-0.019-0.041-0.043c0-0.024 0.018-0.043 0.041-0.043s0.041 0.019 0.041 0.043z"></path>
<path fill="#fff" d="M6.964 19.94c0 0.024-0.018 0.043-0.041 0.043s-0.041-0.019-0.041-0.043c0-0.024 0.018-0.043 0.041-0.043s0.041 0.019 0.041 0.043z"></path>
<path fill="#fff" d="M4.996 18.901c0 0.024-0.018 0.043-0.041 0.043s-0.041-0.019-0.041-0.043c0-0.024 0.018-0.043 0.041-0.043s0.041 0.019 0.041 0.043z"></path>
<path fill="#fff" d="M5.407 18.901c0 0.024-0.018 0.043-0.041 0.043s-0.041-0.019-0.041-0.043c0-0.024 0.018-0.043 0.041-0.043s0.041 0.019 0.041 0.043z"></path>
<path fill="#fff" d="M5.818 18.898c0 0.024-0.018 0.043-0.041 0.043s-0.041-0.019-0.041-0.043c0-0.024 0.018-0.043 0.041-0.043s0.041 0.019 0.041 0.043z"></path>
<path fill="#fff" d="M5.16 18.728c0 0.024-0.018 0.043-0.041 0.043s-0.041-0.019-0.041-0.043c0-0.024 0.018-0.043 0.041-0.043s0.041 0.019 0.041 0.043z"></path>
<path fill="#fff" d="M5.65 18.725c0 0.024-0.018 0.043-0.041 0.043s-0.041-0.019-0.041-0.043c0-0.024 0.018-0.043 0.041-0.043s0.041 0.019 0.041 0.043z"></path>
<path fill="#fff" d="M5.157 19.071c0 0.024-0.018 0.043-0.041 0.043s-0.041-0.019-0.041-0.043c0-0.024 0.018-0.043 0.041-0.043s0.041 0.019 0.041 0.043z"></path>
<path fill="#fff" d="M5.65 19.078c0 0.024-0.018 0.043-0.041 0.043s-0.041-0.019-0.041-0.043c0-0.024 0.018-0.043 0.041-0.043s0.041 0.019 0.041 0.043z"></path>
<path fill="#fff" d="M3.679 19.778c0 0.024-0.018 0.043-0.041 0.043s-0.041-0.019-0.041-0.043c0-0.024 0.018-0.043 0.041-0.043s0.041 0.019 0.041 0.043z"></path>
<path fill="#fff" d="M4.089 19.778c0 0.024-0.018 0.043-0.041 0.043s-0.041-0.019-0.041-0.043c0-0.024 0.018-0.043 0.041-0.043s0.041 0.019 0.041 0.043z"></path>
<path fill="#fff" d="M4.5 19.774c0 0.024-0.018 0.043-0.041 0.043s-0.041-0.019-0.041-0.043c0-0.024 0.018-0.043 0.041-0.043s0.041 0.019 0.041 0.043z"></path>
<path fill="#fff" d="M3.843 19.605c0 0.024-0.018 0.043-0.041 0.043s-0.041-0.019-0.041-0.043c0-0.024 0.018-0.043 0.041-0.043s0.041 0.019 0.041 0.043z"></path>
<path fill="#fff" d="M4.332 19.601c0 0.024-0.018 0.043-0.041 0.043s-0.041-0.019-0.041-0.043c0-0.024 0.018-0.043 0.041-0.043s0.041 0.019 0.041 0.043z"></path>
<path fill="#fff" d="M3.839 19.948c0 0.024-0.018 0.043-0.041 0.043s-0.041-0.019-0.041-0.043c0-0.024 0.018-0.043 0.041-0.043s0.041 0.019 0.041 0.043z"></path>
<path fill="#fff" d="M4.332 19.955c0 0.024-0.018 0.043-0.041 0.043s-0.041-0.019-0.041-0.043c0-0.024 0.018-0.043 0.041-0.043s0.041 0.019 0.041 0.043z"></path>
<path fill="#fff" d="M6.014 15.985l0.283-0.133 0.283 0.133h-0.567zM5.164 15.985l0.283-0.133 0.283 0.133h-0.567zM4.314 15.985l0.283-0.133 0.283 0.133h-0.567zM6.014 12.93l0.283 0.133 0.283-0.133h-0.567zM5.164 12.93l0.283 0.133 0.283-0.133h-0.567zM4.314 12.93l0.283 0.133 0.283-0.133h-0.567z"></path>
<path fill="#004e00" d="M5.778 16.383l-0.331 0.266-0.331-0.266-0.331 0.266-0.331-0.266v0.133l0.22 0.133-0.11 0.133v0.133h0.11l0.11-0.133 0.11 0.133h0.11v-0.133l-0.11-0.133 0.22-0.133 0.221 0.133-0.11 0.133v0.133h0.11l0.11-0.133 0.11 0.133h0.11v-0.133l-0.11-0.133 0.221-0.133 0.22 0.133-0.11 0.133v0.133h0.11l0.11-0.133 0.11 0.133h0.11v-0.133l-0.11-0.133 0.22-0.133v-0.133l-0.331 0.266-0.331-0.266zM5.778 12.531l-0.331-0.266-0.331 0.266-0.331-0.266-0.331 0.266v-0.133l0.22-0.133-0.11-0.133v-0.133h0.11l0.11 0.133 0.11-0.133h0.11v0.133l-0.11 0.133 0.22 0.133 0.221-0.133-0.11-0.133v-0.133h0.11l0.11 0.133 0.11-0.133h0.11v0.133l-0.11 0.133 0.221 0.133 0.22-0.133-0.11-0.133v-0.133h0.11l0.11 0.133 0.11-0.133h0.11v0.133l-0.11 0.133 0.22 0.133v0.133l-0.331-0.266-0.331 0.266zM8.283 14.745l0.354-0.288-0.354-0.288 0.354-0.288-0.354-0.288h0.177l0.177 0.192 0.177-0.096h0.177v0.096l-0.177 0.096 0.177 0.096v0.096h-0.177l-0.177-0.096-0.177 0.192 0.177 0.192 0.177-0.096h0.177v0.096l-0.177 0.096 0.177 0.096v0.096h-0.177l-0.177-0.096-0.177 0.192 0.177 0.192 0.177-0.096h0.177v0.096l-0.177 0.096 0.177 0.096v0.096h-0.177l-0.177-0.096-0.177 0.192h-0.177l0.354-0.288-0.354-0.288zM2.613 14.745l-0.354-0.288 0.354-0.288-0.354-0.288 0.354-0.288h-0.177l-0.177 0.192-0.177-0.096h-0.177v0.096l0.177 0.096-0.177 0.096v0.096h0.177l0.177-0.096 0.177 0.192-0.177 0.192-0.177-0.096h-0.177v0.096l0.177 0.096-0.177 0.096v0.096h0.177l0.177-0.096 0.177 0.192-0.177 0.192-0.177-0.096h-0.177v0.096l0.177 0.096-0.177 0.096v0.096h0.177l0.177-0.096 0.177 0.192h0.177l-0.354-0.288 0.354-0.288z"></path>
<path fill="#004e00" d="M8.423 15.719h0.142v0.133h-0.142z"></path>
<path fill="#004e00" d="M8.282 15.852h0.142v0.133h-0.142zM7.573 16.516h0.142v0.133h-0.142zM7.715 16.383h0.142v0.133h-0.142zM3.038 16.383h0.142v0.133h-0.142zM2.329 15.719h0.142v0.133h-0.142zM2.472 15.852h0.142v0.133h-0.142zM2.472 12.93h0.142v0.133h-0.142zM2.329 13.063h0.142v0.133h-0.142zM3.18 12.266h0.142v0.133h-0.142z"></path>
<path fill="#004e00" d="M3.038 12.399h0.142v0.133h-0.142zM7.573 12.266h0.142v0.133h-0.142zM7.715 12.399h0.142v0.133h-0.142zM8.282 12.93h0.142v0.133h-0.142z"></path>
<path fill="#004e00" d="M8.423 13.063h0.142v0.133h-0.142zM3.18 16.516h0.142v0.133h-0.142z"></path>
<path fill="#fff" d="M5.015 14.457l-0.418-0-0-0.261 0.279 0v-0.245h0.279v-0.225h0.279v0.281c-0.231 0-0.418 0.19-0.418 0.45z"></path>
<path fill="#e69900" d="M5.85 14.457l0.418-0 0-0.261-0.279 0v-0.245h-0.279v-0.225h-0.279v0.281c0.231 0 0.418 0.19 0.418 0.45z"></path>
<path fill="#fff" d="M5.85 14.457h0.418l0 0.261-0.279-0v0.245h-0.279v0.225h-0.279v-0.281c0.231 0 0.418-0.19 0.418-0.45z"></path>
<path fill="#e69900" d="M5.015 14.457h-0.418l-0 0.261 0.279-0v0.245h0.279v0.225h0.279v-0.281c-0.231 0-0.418-0.19-0.418-0.45z"></path>
<path fill="#004e00" d="M5.85 14.457h-0.418v-0.45c0.231 0 0.418 0.201 0.418 0.45z"></path>
<path fill="#980000" d="M5.85 14.457h-0.418v0.45c0.231 0 0.418-0.201 0.418-0.45z"></path>
<path fill="#004e00" d="M5.015 14.457h0.418v0.45c-0.231 0-0.418-0.201-0.418-0.45z"></path>
<path fill="#980000" d="M5.015 14.457h0.418v-0.45c-0.231 0-0.418 0.201-0.418 0.45z"></path>
<path fill="#004e00" d="M5.873 16.117l-0.425-0.266-0.425 0.266-0.425-0.266-0.425 0.266v-0.133l0.283-0.133-0.142-0.133v-0.133h0.142l0.142 0.133 0.142-0.133h0.142v0.133l-0.142 0.133 0.283 0.133 0.283-0.133-0.142-0.133v-0.133h0.142l0.142 0.133 0.142-0.133h0.142v0.133l-0.142 0.133 0.283 0.133 0.283-0.133-0.142-0.133v-0.133h0.142l0.142 0.133 0.142-0.133h0.142v0.133l-0.142 0.133 0.283 0.133v0.133l-0.425-0.266-0.425 0.266zM5.873 12.797l-0.425 0.266-0.425-0.266-0.425 0.266-0.425-0.266v0.133l0.283 0.133-0.142 0.133v0.133h0.142l0.142-0.133 0.142 0.133h0.142v-0.133l-0.142-0.133 0.283-0.133 0.283 0.133-0.142 0.133v0.133h0.142l0.142-0.133 0.142 0.133h0.142v-0.133l-0.142-0.133 0.283-0.133 0.283 0.133-0.142 0.133v0.133h0.142l0.142-0.133 0.142 0.133h0.142v-0.133l-0.142-0.133 0.283-0.133v-0.133l-0.425 0.266-0.425-0.266zM7.431 14.789l-0.213-0.332 0.213-0.332-0.213-0.332 0.213-0.332h-0.106l-0.106 0.221-0.106-0.111h-0.106v0.111l0.106 0.111-0.106 0.111v0.111h0.106l0.106-0.111 0.106 0.221-0.106 0.221-0.106-0.111h-0.106v0.111l0.106 0.111-0.106 0.111v0.111h0.106l0.106-0.111 0.106 0.221-0.106 0.221-0.106-0.111h-0.106v0.111l0.106 0.111-0.106 0.111v0.111h0.106l0.106-0.111 0.106 0.221h0.106l-0.213-0.332 0.213-0.332z"></path>
<path fill="#004e00" d="M4.172 12.93h2.551l0.567 0.531v1.992l-0.567 0.531h-2.551l-0.567-0.531v-1.992l0.567-0.531zM4.031 12.532l-1.417 1.328v1.195l1.417 1.328h2.834l1.417-1.328v-1.195l-1.417-1.328h-2.834z"></path>
<path fill="#e69900" d="M4.767 16.118l0.227 0.266 0.227-0.266h-0.454z"></path>
<path fill="#e69900" d="M4.767 12.797l0.227-0.266 0.227 0.266h-0.454z"></path>
<path fill="#e69900" d="M5.674 12.797l0.227-0.266 0.227 0.266h-0.454z"></path>
<path fill="#e69900" d="M5.674 16.118l0.227 0.266 0.227-0.266h-0.454z"></path>
<path fill="#980000" d="M4.314 12.797l0.227-0.266 0.227 0.266h-0.454z"></path>
<path fill="#980000" d="M5.221 12.797l0.227-0.266 0.227 0.266h-0.454z"></path>
<path fill="#980000" d="M6.128 12.797l0.227-0.266 0.227 0.266h-0.454z"></path>
<path fill="#980000" d="M3.746 15.72l0.425 0.398h-0.425v-0.399z"></path>
<path fill="#004e00" d="M3.464 14.789l0.213-0.332-0.213-0.332 0.213-0.332-0.213-0.332h0.106l0.106 0.221 0.106-0.111h0.106v0.111l-0.106 0.111 0.106 0.111v0.111h-0.106l-0.106-0.111-0.106 0.221 0.106 0.221 0.106-0.111h0.106v0.111l-0.106 0.111 0.106 0.111v0.111h-0.106l-0.106-0.111-0.106 0.221 0.106 0.221 0.106-0.111h0.106v0.111l-0.106 0.111 0.106 0.111v0.111h-0.106l-0.106-0.111-0.106 0.221h-0.106l0.212-0.332-0.212-0.332z"></path>
<path fill="#980000" d="M7.573 14.098h0.567l0.142 0.12-0.142 0.12h-0.567v-0.239z"></path>
<path fill="#980000" d="M3.747 13.196l-0.283 0.266v1.992l0.283 0.266h-0.425l0-2.524h0.425z"></path>
<path fill="#980000" d="M4.314 16.118l0.227 0.266 0.227-0.266h-0.454z"></path>
<path fill="#980000" d="M5.221 16.118l0.227 0.266 0.227-0.266h-0.454z"></path>
<path fill="#980000" d="M6.128 16.118l0.227 0.266 0.227-0.266h-0.454z"></path>
<path fill="#980000" d="M7.148 13.196l0.283 0.266v1.992l-0.283 0.266h0.425v-2.524h-0.425z"></path>
<path fill="#980000" d="M7.148 15.72l-0.425 0.398h0.425v-0.399z"></path>
<path fill="#980000" d="M7.148 13.195l-0.425-0.399h0.425v0.399z"></path>
<path fill="#980000" d="M3.746 13.195l0.425-0.399h-0.425v0.399z"></path>
<path fill="#004e00" d="M4.172 12.93h2.551l0.567 0.531v1.992l-0.567 0.531h-2.551l-0.567-0.531v-1.992l0.567-0.531zM4.172 12.797l-0.709 0.664v1.992l0.709 0.664h2.551l0.709-0.664v-1.992l-0.709-0.664h-2.551z"></path>
<path fill="#e69900" d="M7.573 14.337h0.567l0.142 0.12-0.142 0.12h-0.567v-0.239z"></path>
<path fill="#980000" d="M7.573 14.577h0.567l0.142 0.12-0.142 0.12h-0.567v-0.239z"></path>
<path fill="#e69900" d="M7.573 14.816h0.567l0.142 0.12-0.142 0.12h-0.567v-0.239z"></path>
<path fill="#e69900" d="M7.573 13.859h0.567l0.142 0.12-0.142 0.12h-0.567v-0.239z"></path>
<path fill="#980000" d="M3.322 14.098h-0.567l-0.142 0.12 0.142 0.12h0.567v-0.239z"></path>
<path fill="#e69900" d="M3.322 14.337h-0.567l-0.142 0.12 0.142 0.12h0.567v-0.239z"></path>
<path fill="#980000" d="M3.322 14.577h-0.567l-0.142 0.12 0.142 0.12h0.567v-0.239z"></path>
<path fill="#e69900" d="M3.322 14.816h-0.567l-0.142 0.12 0.142 0.12h0.567v-0.239z"></path>
<path fill="#e69900" d="M3.322 13.859h-0.567l-0.142 0.12 0.142 0.12h0.567v-0.239z"></path>
<path fill="#970000" d="M2.472 13.063h0.709v-0.664h4.535v0.664h0.709v2.789h-0.709v0.664h-4.535v-0.664h-0.709v-2.789zM2.613 13.196v2.524h0.709v0.664h4.251v-0.664h0.709v-2.524h-0.709v-0.664h-4.251v0.664h-0.709z"></path>
<path fill="#980000" d="M8.99 2.689l-0.425-0.511v-0.383l-0.425-0.383h-0.85l-0.709-0.383h-2.267l-0.709 0.383h-0.85l-0.425 0.383v0.383l-0.425 0.511v1.022l0.425 0.511v0.383l0.425 0.383h0.85l0.709 0.383h2.267l0.709-0.383h0.85l0.425-0.383v-0.383l0.425-0.511v-1.022z"></path>
<path fill="#e69900" d="M2.048 3.2v0.383l0.425 0.511v0.383l0.425 0.383h0.85l0.709 0.383h0.992l-0-2.043h-3.401z"></path>
<path fill="#980000" d="M4.251 4.094l-0.518 0.328h-0.309l0.103 0.109-0.206 0.219 0.103 0.109 0.309-0.109 0.103 0.109 0.048-0.293 0.571-0.346-0.204-0.128z"></path>
<path fill="#980000" d="M3.685 3.838l-0.518 0.328h-0.309l0.103 0.109-0.206 0.219 0.103 0.109 0.309-0.109 0.103 0.109 0.048-0.293 0.571-0.346-0.204-0.127zM3.401 3.328l-0.518 0.328h-0.309l0.103 0.109-0.206 0.219 0.103 0.11 0.309-0.11 0.103 0.11 0.048-0.292 0.571-0.346-0.204-0.127z"></path>
<path fill="#e69900" d="M8.847 3.2v-0.383l-0.425-0.511v-0.383l-0.425-0.383h-0.85l-0.709-0.383h-0.992l0 2.043h3.401z"></path>
<path fill="#980000" d="M5.448 5.243h-0.262l-0.304-0.255h-0.483l-0.262-0.128 0.131-0.128 0.262 0.128h0.262l0.262-0.383 0.394 0.128v0.255h-0.394l0.394 0.383z"></path>
<path fill="#fff" d="M2.048 3.2v-0.383l0.425-0.511v-0.383l0.425-0.383h0.85l0.709-0.383h0.992l-0 2.043h-3.401z"></path>
<path fill="#980000" d="M5.448 1.156h-0.262l-0.304 0.255h-0.483l-0.262 0.128 0.131 0.128 0.262-0.128h0.262l0.262 0.383 0.394-0.128v-0.255h-0.394l0.394-0.383z"></path>
<path fill="#980000" d="M5.447 1.156h0.262l0.304 0.255h0.483l0.262 0.128-0.131 0.128-0.262-0.128h-0.262l-0.262 0.383-0.394-0.128v-0.255h0.394l-0.394-0.383z"></path>
<path fill="#fff" d="M8.847 3.2v0.383l-0.425 0.511v0.383l-0.425 0.383h-0.85l-0.709 0.383h-0.992l0-2.043h3.401z"></path>
<path fill="#980000" d="M5.447 5.243h0.262l0.304-0.255h0.483l0.262-0.128-0.131-0.128-0.262 0.128h-0.262l-0.262-0.383-0.394 0.128v0.255h0.394l-0.394 0.383zM3.685 2.561l-0.518-0.328h-0.309l0.103-0.109-0.206-0.219 0.103-0.109 0.309 0.109 0.103-0.109 0.048 0.292 0.571 0.346-0.204 0.127zM6.643 2.306l0.518-0.329h0.309l-0.103-0.109 0.206-0.219-0.103-0.109-0.309 0.109-0.103-0.109-0.048 0.292-0.571 0.346 0.204 0.128z"></path>
<path fill="#980000" d="M4.251 2.306l-0.518-0.329h-0.309l0.103-0.109-0.206-0.219 0.103-0.109 0.309 0.109 0.103-0.109 0.048 0.292 0.571 0.346-0.204 0.128zM3.401 3.072l-0.518-0.328h-0.309l0.103-0.109-0.206-0.219 0.103-0.11 0.309 0.11 0.103-0.11 0.048 0.293 0.571 0.346-0.204 0.128z"></path>
<path fill="#fff" d="M2.299 3.201h0.131l0.131 0.128 0.131-0.128 2.755-0v1.788h-0.131l0.131 0.128v0.128l-0.394-0.383v-0.128h0.131v0.128h0.131v-0.128l-1.065-0.564h-0.897v-0.554l-0.399-0.287h-0.262l-0.131 0.128 0.131 0.128h-0.131l-0.262-0.383z"></path>
<path fill="#e69900" d="M2.299 3.199h0.131l0.131-0.128 0.131 0.128 2.755 0v-1.788h-0.131l0.131-0.128v-0.128l-0.394 0.383v0.128h0.131v-0.128h0.131v0.128l-1.065 0.564h-0.897v0.554l-0.399 0.287h-0.262l-0.131-0.128 0.131-0.128h-0.131l-0.262 0.383z"></path>
<path fill="#004e00" d="M2.897 3.199h2.551v1.533l-1.134-0.639h-0.85v-0.511l-0.567-0.383z"></path>
<path fill="#980000" d="M7.21 2.561l0.518-0.328h0.309l-0.103-0.109 0.206-0.219-0.103-0.109-0.309 0.109-0.103-0.109-0.048 0.292-0.571 0.346 0.204 0.127zM7.494 3.072l0.518-0.328h0.309l-0.103-0.109 0.206-0.219-0.103-0.11-0.309 0.11-0.103-0.11-0.048 0.293-0.571 0.346 0.204 0.128z"></path>
<path fill="#fff" d="M8.596 3.199h-0.131l-0.131-0.128-0.131 0.128-2.755 0v-1.788h0.131l-0.131-0.128v-0.128l0.394 0.383v0.128h-0.131v-0.128h-0.131v0.128l1.065 0.564h0.897v0.554l0.399 0.287h0.262l0.131-0.128-0.131-0.128h0.131l0.262 0.383z"></path>
<path fill="#004e00" d="M7.997 3.201h-2.551v-1.533l1.134 0.639h0.85v0.511l0.567 0.383z"></path>
<path fill="#980000" d="M6.643 4.094l0.518 0.328h0.309l-0.103 0.109 0.206 0.219-0.103 0.109-0.309-0.109-0.103 0.109-0.048-0.293-0.571-0.346 0.204-0.128z"></path>
<path fill="#980000" d="M7.21 3.838l0.518 0.328h0.309l-0.103 0.109 0.206 0.219-0.103 0.109-0.309-0.109-0.103 0.109-0.048-0.293-0.571-0.346 0.204-0.127zM7.494 3.328l0.518 0.328h0.309l-0.103 0.109 0.206 0.219-0.103 0.11-0.309-0.11-0.103 0.11-0.048-0.292-0.571-0.346 0.204-0.127z"></path>
<path fill="#e69900" d="M8.596 3.201h-0.131l-0.131 0.128-0.131-0.128-2.755-0v1.788h0.131l-0.131 0.128v0.128l0.394-0.383v-0.128h-0.131v0.128h-0.131v-0.128l1.065-0.564h0.897v-0.554l0.399-0.287h0.262l0.131 0.128-0.131 0.128h0.131l0.262-0.383z"></path>
<path fill="#980000" d="M7.997 3.199h-2.551v1.533l1.134-0.639h0.85v-0.511l0.567-0.383z"></path>
<path fill="#980000" d="M2.897 3.201h2.551v-1.533l-1.134 0.639h-0.85v0.511l-0.567 0.383z"></path>
<path fill="#980000" d="M5.727 3.2l0.712-0.383h0.425l-0.142-0.128 0.283-0.256-0.142-0.128-0.425 0.128-0.142-0.128-0.065 0.341-0.785 0.404 0.28 0.149zM5.167 3.199l-0.712 0.383h-0.425l0.142 0.128-0.283 0.255 0.142 0.128 0.425-0.128 0.142 0.128 0.065-0.341 0.785-0.404-0.28-0.149z"></path>
<path fill="#004e00" d="M5.167 3.2l-0.712-0.383h-0.425l0.142-0.128-0.283-0.256 0.142-0.128 0.425 0.128 0.142-0.128 0.065 0.341 0.785 0.404-0.28 0.149zM5.727 3.199l0.712 0.383h0.425l-0.142 0.128 0.283 0.255-0.142 0.128-0.425-0.128-0.142 0.128-0.065-0.341-0.785-0.404 0.28-0.149z"></path>
<path fill="#fff" d="M4.597 3.2l0.85-0.639 0.85 0.639-0.85 0.639-0.85-0.639z"></path>
<path fill="#980000" d="M2.692 3.455l0.131 0.128-0.131 0.128h-0.131l-0.394-0.511h0.131l0.262 0.383h0.131l-0.131-0.128 0.131-0.128h0.262v0.128h-0.262z"></path>
<path fill="#980000" d="M2.692 2.944l0.131-0.128-0.131-0.128h-0.131l-0.394 0.511h0.131l0.262-0.383h0.131l-0.131 0.128 0.131 0.128h0.262v-0.128h-0.262zM8.203 3.455l-0.131 0.128 0.131 0.128h0.131l0.394-0.511h-0.131l-0.262 0.383h-0.131l0.131-0.128-0.131-0.128h-0.262v0.128h0.262z"></path>
<path fill="#980000" d="M8.203 2.944l-0.131-0.128 0.131-0.128h0.131l0.394 0.511h-0.131l-0.262-0.383h-0.131l0.131 0.128-0.131 0.128h-0.262v-0.128h0.262zM5.316 2.689h0.262v1.022h-0.262z"></path>
<path fill="#980000" d="M4.923 2.944h1.050v0.511h-1.050z"></path>
<path fill="#004e00" d="M4.265 22.629l-2.362 1.278v2.13l2.362 1.278h2.362l2.362-1.278v-2.13l-2.362-1.278h-2.362z"></path>
<path fill="#c00" d="M2.781 24.767h0.143v-0.262h0.286v0.262h0.143v-0.611h-0.143v0.262h-0.286v-0.262h-0.143v0.611zM6.4 26.804h0.143v-0.262h0.286v0.262h0.143v-0.611h-0.143v0.262h-0.286v-0.262h-0.143v0.611zM4.115 23.748h0.143v-0.262h0.286v0.262h0.143v-0.611h-0.143v0.262h-0.286v-0.262h-0.143v0.611zM6.21 23.748h0.143v-0.262h0.286v0.262h0.143v-0.611h-0.143v0.262h-0.286v-0.262h-0.143v0.611zM7.543 24.767h0.143v-0.262h0.286v0.262h0.143v-0.611h-0.143v0.262h-0.286v-0.262h-0.143v0.611zM7.543 25.785h0.143v-0.262h0.286v0.262h0.143v-0.611h-0.143v0.262h-0.286v-0.262h-0.143v0.611z"></path>
<path fill="#e69900" d="M5.448 27.212v-2.241h3.429v1.019l-2.286 1.222h-1.143zM5.448 22.73v2.241h-3.429v-1.019l2.286-1.222h1.143z"></path>
<path fill="#fff" d="M5.448 22.73v2.241h3.429v-1.019l-2.286-1.222h-1.143zM5.448 27.212l-0-2.241-3.428-0v1.019l2.286 1.222h1.143z"></path>
<path fill="#e69900" d="M7.276 24.056h1.371l-1.371-0.611v0.611zM8.876 23.954l-0 1.019h-2.171v-0.815h-0.457l-0.571-0.306v-0.713l0.343-0.306h-0.457v1.019h-0.114v-1.121h1.143l2.286 1.222z"></path>
<path fill="#980000" d="M4.303 24.257v1.426h0.343l0.8 0.407 0.8-0.407h0.343v-1.426h-0.343l-0.8-0.407-0.8 0.407h-0.343z"></path>
<path fill="#e69900" d="M3.619 25.886h-1.371l1.371 0.611v-0.611zM2.019 25.988l0-1.019h2.171v0.815h0.457l0.571 0.306v0.713l-0.343 0.306h0.457v-1.019h0.114v1.121h-1.143l-2.286-1.222z"></path>
<path fill="#fff" d="M3.619 24.056h-1.371l1.371-0.611v0.611zM2.019 23.954l0 1.019h2.171v-0.815h0.457l0.571-0.306v-0.713l-0.343-0.306h0.457v1.019h0.114v-1.121h-1.143l-2.286 1.222z"></path>
<path fill="#fff" d="M7.276 25.886h1.371l-1.371 0.611v-0.611zM8.876 25.988l-0-1.019h-2.171v0.815h-0.457l-0.571 0.306v0.713l0.343 0.306h-0.457v-1.019h-0.114v1.121h1.143l2.286-1.222z"></path>
<path fill="#980000" d="M2.705 25.786h0.143v-0.306h0.286v0.306h0.143v-0.713h-0.143v0.306h-0.286v-0.306h-0.143v0.713zM4.076 26.805h0.143v-0.306h0.286v0.306h0.143v-0.713h-0.143v0.306h-0.286v-0.306h-0.143v0.713zM2.705 24.156h0.143v0.306h0.286v-0.306h0.143v0.713h-0.143v-0.306h-0.286v0.306h-0.143v-0.713zM4.076 23.137h0.143v0.306h0.286v-0.306h0.143v0.713h-0.143v-0.306h-0.286v0.306h-0.143v-0.713zM6.248 26.805h0.143v-0.306h0.286v0.306h0.143v-0.713h-0.143v0.306h-0.286v-0.306h-0.143v0.713zM7.619 24.869h0.143v-0.306h0.286v0.306h0.143v-0.713h-0.143v0.306h-0.286v-0.306h-0.143v0.713z"></path>
<path fill="#980000" d="M6.248 26.805h0.143v-0.306h0.286v0.306h0.143v-0.713h-0.143v0.306h-0.286v-0.306h-0.143v0.713z"></path>
<path fill="#980000" d="M6.248 26.805h0.143v-0.306h0.286v0.306h0.143v-0.713h-0.143v0.306h-0.286v-0.306h-0.143v0.713zM7.619 25.785h0.143v-0.306h0.286v0.306h0.143v-0.713h-0.143v0.306h-0.286v-0.306h-0.143v0.713zM6.248 23.85h0.143v-0.306h0.286v0.306h0.143v-0.713h-0.143v0.306h-0.286v-0.306h-0.143v0.713z"></path>
<path fill="#004e00" d="M5.562 24.971l0.457-0.372h0.229v0.186h-0.229v0.093h0.343v-0.371h-0.343v-0.279h-0.457v0.279h0.114v-0.186h0.229v0.186l-0.457 0.371-0.457-0.371v-0.186h0.229v0.186h0.114v-0.279l-0.457 0v0.279h-0.343v0.372h0.343v-0.093h-0.229v-0.186h0.229l0.457 0.371-0.457 0.371h-0.229v-0.186h0.229v-0.093h-0.343v0.371h0.343v0.279l0.457 0v-0.279h-0.114v0.186h-0.229v-0.186l0.457-0.371 0.457 0.372v0.186h-0.229v-0.186h-0.114v0.279h0.457v-0.279l0.343-0v-0.371h-0.343v0.093h0.229v0.186h-0.229l-0.457-0.371z"></path>
<path fill="#980000" d="M2.241 9.178l0.221-0.223h1.327l0.995-1.005h1.327l0.995 1.005h1.327l0.221 0.223-0.221 0.223h-1.327l-0.995 1.005h-1.327l-0.995-1.005h-1.327l-0.221-0.223z"></path>
<path fill="#980000" d="M2.362 9.2l0.114-0.106h1.371l1.029-1.061h1.143l1.029 1.061h1.371l0.114 0.106-0.114 0.106h-1.371l-0.914 0.955h-1.371l-0.914-0.955h-1.371l-0.114-0.106z"></path>
<path fill="#e69900" d="M6 9.29l-0.442 0.447 0.442 0.447v0.112h-0.111l-0.442-0.447-0.442 0.447h-0.111v-0.112l0.442-0.447-0.442-0.447-0.442 0.447 0.221 0.223 0.111-0.112h0.111v0.112l-0.111 0.112h-0.221l-0.221-0.223v-0.223l0.442-0.447-0.442-0.447v-0.223l0.221-0.223h0.221l0.111 0.112v0.112h-0.111l-0.111-0.112-0.221 0.223 0.442 0.447 0.442-0.447-0.442-0.447v-0.112h0.111l0.442 0.447 0.442-0.447h0.111v0.112l-0.442 0.447 0.442 0.447 0.442-0.447-0.221-0.223-0.111 0.112h-0.111v-0.112l0.111-0.112h0.221l0.221 0.223v0.223l-0.442 0.447 0.442 0.447v0.223l-0.221 0.223h-0.221l-0.111-0.112v-0.112h0.111l0.111 0.112 0.221-0.223-0.442-0.447zM5.447 8.731l-0.442 0.447 0.442 0.447 0.442-0.447-0.442-0.447zM4.785 10.406v0.894l0.111-0.112 0.111 0.112 0.111-0.112 0.111 0.112 0.111-0.112 0.111 0.112 0.111-0.112 0.111 0.112 0.111-0.112 0.111 0.112 0.111-0.112 0.111 0.112v-0.894h-1.327zM6.111 7.951v-0.894l-0.111 0.112-0.111-0.112-0.111 0.112-0.111-0.112-0.111 0.112-0.111-0.112-0.111 0.112-0.111-0.112-0.111 0.112-0.111-0.112-0.111 0.112-0.111-0.112v0.894h1.327zM7.991 8.956v-0.894l-0.111 0.112-0.111-0.112-0.111 0.112-0.111-0.112-0.111 0.112-0.111-0.112-0.111 0.112-0.111-0.112v0.894h0.885zM3.789 8.956v-0.894l-0.111 0.112-0.111-0.112-0.111 0.112-0.111-0.112-0.111 0.112-0.111-0.112-0.111 0.112-0.111-0.112v0.894h0.885zM7.991 9.401v0.894l-0.111-0.112-0.111 0.112-0.111-0.112-0.111 0.112-0.111-0.112-0.111 0.112-0.111-0.112-0.111 0.112v-0.894h0.885zM3.789 9.401v0.894l-0.111-0.112-0.111 0.112-0.111-0.112-0.111 0.112-0.111-0.112-0.111 0.112-0.111-0.112-0.111 0.112v-0.894h0.885z"></path>
<path fill="#004e00" d="M6.112 10.406v0.559l0.111-0.112 0.111 0.112 0.111-0.112 0.111 0.112 0.111-0.112 0.111 0.112 0.111-0.112 0.111 0.112 0.111-0.112v-1.452l-0.995 1.005zM4.784 10.406v0.559l-0.111-0.112-0.111 0.112-0.111-0.112-0.111 0.112-0.111-0.112-0.111 0.112-0.111-0.112-0.111 0.112-0.111-0.112 0-1.452 0.995 1.005zM4.784 7.951v-0.559l-0.111 0.112-0.111-0.112-0.111 0.112-0.111-0.112-0.111 0.112-0.111-0.112-0.111 0.112-0.111-0.112-0.111 0.112v1.452l0.995-1.005zM6.112 7.951v-0.559l0.111 0.112 0.111-0.112 0.111 0.112 0.111-0.112 0.111 0.112 0.111-0.112 0.111 0.112 0.111-0.112 0.111 0.112v1.452l-0.995-1.005zM2.904 10.072l-0.111-0.112-0.111 0.112-0.111-0.112-0.111 0.112-0.111-0.112-0.111 0.112-0.111-0.112-0.111 0.112v-1.787l0.111 0.112 0.111-0.112 0.111 0.112 0.111-0.112 0.111 0.112 0.111-0.112 0.111 0.112 0.111-0.112v0.67h-0.442l-0.221 0.223 0.221 0.223h0.442v0.67zM7.992 10.072l0.111-0.112 0.111 0.112 0.111-0.112 0.111 0.112 0.111-0.112 0.111 0.112 0.111-0.112 0.111 0.112v-1.787l-0.111 0.112-0.111-0.112-0.111 0.112-0.111-0.112-0.111 0.112-0.111-0.112-0.111 0.112-0.111-0.112v0.67h0.442l0.221 0.223-0.221 0.223h-0.442v0.67z"></path>
<path fill="#fff" d="M4.24 10.478s-0.092 0.088-0.092 0.132c-0.002 0.041 0.098 0.133 0.138 0.132 0.052 0.001 0.138-0.088 0.138-0.132s-0.092-0.132-0.092-0.132v-0.177s0.2 0.304 0.2 0.171c0-0.095-0.2-0.259-0.2-0.259h-0.092s-0.2 0.193-0.2 0.259c0 0.133 0.2-0.171 0.2-0.171v0.177z"></path>
<path fill="#980000" d="M5.392 10.818s-0.111 0.124-0.111 0.185c-0.002 0.058 0.118 0.187 0.166 0.185 0.063 0.001 0.166-0.124 0.166-0.185s-0.111-0.185-0.111-0.185v-0.247s0.196 0.404 0.196 0.219c0-0.12-0.196-0.343-0.196-0.343h-0.111s-0.226 0.279-0.196 0.343c0 0.185 0.196-0.219 0.196-0.219v0.247z"></path>
<path fill="#004e00" d="M4.453 9.178c0 0.062-0.099 0.112-0.221 0.112s-0.221-0.050-0.221-0.112c0-0.062 0.099-0.112 0.221-0.112s0.221 0.050 0.221 0.112z"></path>
<path fill="#004e00" d="M5.669 9.178c0 0.062-0.099 0.112-0.221 0.112s-0.221-0.050-0.221-0.112c0-0.062 0.099-0.112 0.221-0.112s0.221 0.050 0.221 0.112z"></path>
<path fill="#004e00" d="M6.885 9.178c0 0.062-0.099 0.112-0.221 0.112s-0.221-0.050-0.221-0.112c0-0.062 0.099-0.112 0.221-0.112s0.221 0.050 0.221 0.112z"></path>
<path fill="#fff" d="M4.217 7.889s-0.092-0.088-0.092-0.132c-0.002-0.041 0.098-0.133 0.138-0.132 0.052-0.001 0.138 0.088 0.138 0.132s-0.092 0.132-0.092 0.132v0.177s0.2-0.304 0.2-0.171c0 0.095-0.2 0.259-0.2 0.259h-0.092s-0.2-0.192-0.2-0.259c0-0.132 0.2 0.171 0.2 0.171v-0.177z"></path>
<path fill="#980000" d="M5.369 7.548s-0.111-0.124-0.111-0.185c-0.002-0.058 0.118-0.187 0.166-0.185 0.063-0.001 0.166 0.124 0.166 0.185s-0.111 0.185-0.111 0.185v0.247s0.196-0.404 0.196-0.219c0 0.12-0.196 0.343-0.196 0.343h-0.111s-0.226-0.279-0.196-0.343c0-0.185 0.196 0.219 0.196 0.219v-0.247z"></path>
<path fill="#fff" d="M6.595 10.478s-0.092 0.088-0.092 0.132c-0.002 0.041 0.098 0.133 0.138 0.132 0.052 0.001 0.138-0.088 0.138-0.132s-0.092-0.132-0.092-0.132v-0.177s0.2 0.304 0.2 0.171c0-0.095-0.2-0.259-0.2-0.259h-0.092s-0.2 0.193-0.2 0.259c0 0.133 0.2-0.171 0.2-0.171v0.177zM6.571 7.889s-0.092-0.088-0.092-0.132c-0.002-0.041 0.098-0.133 0.138-0.132 0.052-0.001 0.138 0.088 0.138 0.132s-0.092 0.132-0.092 0.132v0.177s0.2-0.304 0.2-0.171c0 0.095-0.2 0.259-0.2 0.259h-0.092s-0.2-0.192-0.2-0.259c0-0.132 0.2 0.171 0.2 0.171v-0.177z"></path>
<path fill="#980000" d="M3.278 9.856s-0.123 0.083-0.123 0.124c-0.002 0.039 0.131 0.125 0.184 0.124 0.069 0.001 0.184-0.083 0.184-0.124s-0.123-0.124-0.123-0.124v-0.166s0.217 0.271 0.217 0.147c0-0.080-0.217-0.23-0.217-0.23h-0.123s-0.25 0.187-0.217 0.23c0 0.124 0.217-0.147 0.217-0.147v0.166zM3.252 8.59s-0.123-0.083-0.123-0.124c-0.002-0.039 0.131-0.125 0.184-0.124 0.069-0.001 0.184 0.083 0.184 0.124s-0.123 0.124-0.123 0.124v0.166s0.217-0.271 0.217-0.147c0 0.080-0.217 0.23-0.217 0.23h-0.123s-0.25-0.187-0.217-0.23c0-0.124 0.217 0.147 0.217 0.147v-0.166zM7.526 9.829s-0.123 0.083-0.123 0.124c-0.002 0.039 0.131 0.125 0.184 0.124 0.069 0.001 0.184-0.083 0.184-0.124s-0.123-0.124-0.123-0.124v-0.166s0.217 0.271 0.217 0.147c0-0.080-0.217-0.23-0.217-0.23h-0.123s-0.25 0.187-0.217 0.23c0 0.124 0.217-0.147 0.217-0.147v0.166zM7.5 8.564s-0.123-0.083-0.123-0.124c-0.002-0.039 0.131-0.125 0.184-0.124 0.069-0.001 0.184 0.083 0.184 0.124s-0.123 0.124-0.123 0.124v0.166s0.217-0.271 0.217-0.147c0 0.080-0.217 0.23-0.217 0.23h-0.123s-0.25-0.187-0.217-0.23c0-0.124 0.217 0.147 0.217 0.147v-0.166z"></path>
<path fill="#fff" d="M2.374 9.842c-0.040-0.076-0.029-0.111-0.029-0.156-0.002-0.041 0.111-0.121 0.151-0.12 0.052-0.001 0.138 0.088 0.138 0.132s0.002 0.082-0.019 0.158l-0.058-0.129c-0.070 0.183-0.074 0.187-0.115-0.004l-0.068 0.119zM2.378 8.558c-0.040 0.077-0.029 0.112-0.029 0.156-0.002 0.041 0.111 0.121 0.151 0.12 0.052 0.001 0.138-0.088 0.138-0.132s0.002-0.082-0.019-0.158l-0.058 0.129c-0.070-0.183-0.074-0.187-0.115 0.004l-0.068-0.119zM8.34 9.826c-0.040-0.076-0.029-0.111-0.029-0.156-0.002-0.041 0.111-0.121 0.151-0.12 0.052-0.001 0.138 0.088 0.138 0.132s0.002 0.082-0.019 0.158l-0.058-0.129c-0.070 0.183-0.074 0.187-0.115-0.004l-0.068 0.119zM8.343 8.541c-0.040 0.076-0.029 0.111-0.029 0.156-0.002 0.041 0.111 0.121 0.151 0.12 0.052 0.001 0.138-0.088 0.138-0.132s0.002-0.082-0.019-0.158l-0.058 0.129c-0.070-0.183-0.074-0.187-0.115 0.004l-0.068-0.119z"></path>
<path fill="#980000" d="M4.762 11.322h1.371v-0.318h1.029v-0.637h0.914v-0.212h0.8v-1.91h-0.8v-0.212h-0.914v-0.637h-1.029v-0.318h-1.371v0.318h-1.029v0.637h-0.914v0.212h-0.8v1.91h0.8v0.212h0.914v0.637h1.029v0.318zM4.648 11.428v-0.318h-1.029v-0.637h-0.914v-0.212h-0.8v-2.122h0.8v-0.212h0.914v-0.637h1.029v-0.318h1.6v0.318h1.029v0.637h0.914v0.212h0.8v2.122h-0.8v0.212h-0.914v0.637h-1.029v0.318h-1.6z"></path>
</svg>
