<!-- Generated by IcoMoon.io -->
<svg version="1.1" xmlns="http://www.w3.org/2000/svg" width="43" height="32" viewBox="0 0 43 32">
<title>TND</title>
<path fill="#e70013" d="M-2.667 0h48v32h-48z"></path>
<path fill="#fff" d="M29.446 15.986c0 4.457-3.613 8.071-8.071 8.071s-8.071-3.613-8.071-8.071 3.613-8.071 8.071-8.071c4.457 0 8.071 3.613 8.071 8.071z"></path>
<path fill="#e70013" d="M21.376 21.338c-2.954 0-5.352-2.398-5.352-5.352s2.398-5.352 5.352-5.352c0.739 0 1.579 0.17 2.15 0.589-3.914 0.147-4.904 3.467-4.904 4.805s0.633 4.322 4.904 4.763c-0.486 0.313-1.412 0.547-2.15 0.547z"></path>
<path fill="#e70013" d="M26.090 18.237l-2.431-0.886-1.608 2.026 0.092-2.585-2.424-0.903 2.487-0.711 0.109-2.585 1.445 2.146 2.492-0.695-1.594 2.037z"></path>
</svg>
