<!-- Generated by IcoMoon.io -->
<svg version="1.1" xmlns="http://www.w3.org/2000/svg" width="43" height="32" viewBox="0 0 43 32">
<title>TRY</title>
<path fill="#f31930" d="M0 0h42.667v32h-42.667z"></path>
<path fill="#fff" d="M27.132 16.498c0 4.414-3.64 7.993-8.131 7.993s-8.131-3.578-8.131-7.993 3.64-7.993 8.131-7.993 8.131 3.578 8.131 7.993z"></path>
<path fill="#f31830" d="M27.538 16.498c0 3.531-2.912 6.394-6.505 6.394s-6.505-2.863-6.505-6.394 2.912-6.394 6.505-6.394 6.505 2.863 6.505 6.394z"></path>
<path fill="#fff" d="M28.715 12.764l-0.066 2.955-2.756 0.748 2.717 0.968-0.066 2.709 1.772-2.116 2.678 0.929-1.549-2.271 1.89-2.258-2.901 0.8-1.72-2.464z"></path>
</svg>
