<!-- Generated by IcoMoon.io -->
<svg version="1.1" xmlns="http://www.w3.org/2000/svg" width="43" height="32" viewBox="0 0 43 32">
<title>TWD</title>
<path fill="#de2110" d="M0 0h48v32h-48z"></path>
<path fill="#08399c" d="M0 0h24.106v16h-24.106z"></path>
<path fill="#fff" d="M17.631 11.16l-2.958-0.608 0.63 2.954-2.258-2.005-0.931 2.873-0.953-2.867-2.243 2.023 0.608-2.958-2.954 0.63 2.005-2.258-2.873-0.931 2.866-0.953-2.022-2.243 2.958 0.608-0.63-2.954 2.258 2.006 0.931-2.873 0.953 2.866 2.243-2.022-0.608 2.958 2.954-0.63-2.005 2.258 2.873 0.931-2.866 0.953z"></path>
<path fill="#005387" d="M14.904 10.933l-0.933 0.496-0.911 0.538-1.057-0.036-1.057 0.012-0.898-0.559-0.922-0.517-0.497-0.932-0.539-0.908 0.036-1.055-0.012-1.055 0.56-0.895 0.519-0.92 0.933-0.496 0.911-0.538 1.057 0.036 1.058-0.012 0.898 0.559 0.922 0.517 0.497 0.931 0.539 0.907-0.036 1.055 0.012 1.055-0.56 0.895z"></path>
<path fill="#fff" d="M15.29 8.018c0 1.79-1.451 3.242-3.242 3.242s-3.242-1.451-3.242-3.242 1.451-3.242 3.242-3.242 3.242 1.451 3.242 3.242z"></path>
</svg>
