<!-- Generated by IcoMoon.io -->
<svg version="1.1" xmlns="http://www.w3.org/2000/svg" width="43" height="32" viewBox="0 0 43 32">
<title>UGX</title>
<path fill="#ffe700" d="M-2.667 21.335h48v5.333h-48z"></path>
<path fill="#000" d="M-2.667 16h48v5.333h-48z"></path>
<path fill="#de3908" d="M-2.667 10.668h48v5.333h-48z"></path>
<path fill="#ffe700" d="M-2.667 5.335h48v5.333h-48z"></path>
<path fill="#000" d="M-2.667 0h48v5.333h-48z"></path>
<path fill="#fffdff" d="M26.315 16c0 2.751-2.23 4.982-4.982 4.982s-4.982-2.23-4.982-4.982 2.23-4.982 4.982-4.982 4.982 2.23 4.982 4.982z"></path>
<path fill="#de3108" d="M20.454 12.181l-0.323-0.596c0.125-0.125 0.335-0.221 0.669-0.221 0 0.023-0.034 0.652-0.034 0.652l-0.312 0.165z"></path>
<path fill="#ffe700" d="M20.766 12.022l0.045-0.658s0.669-0.040 1.033 0.397c0.006-0.006-0.358 0.511-0.358 0.511l-0.721-0.25z"></path>
<path fill="#de3108" d="M21.498 12.266l0.329-0.511c0.221 0.233 0.312 0.397 0.346 0.647 0.006 0.006-0.522 0.13-0.522 0.125s-0.148-0.255-0.153-0.261z"></path>
<path fill="#000" d="M20.619 20.697s0.618-0.709 1.821-0.556c-0.182-0.295-0.766-0.261-0.766-0.261s-0.182-1.379-0.040-1.447 0.743 0.006 0.743 0.006c0.079 0 0.216-0.216 0.108-0.352s-0.426-0.658-0.295-0.76c0.131-0.102 0.84 0.057 0.84 0.057l-2.003-2.564s-0.204-0.965 0.204-1.43c0.494-0.409 0.443-0.851 0.426-0.845-0.068-0.448-0.749-0.772-1.209-0.357-0.272 0.329-0.091 0.579-0.091 0.579s-0.715 0.193-0.743 0.318c-0.028 0.125 0.806-0.023 0.806-0.023l-0.079 0.573s-1.623 1.475-0.38 2.752c0.011-0.006 0.040-0.057 0.040-0.057s0.437 0.539 0.896 0.658c0.431 0.443 0.392 0.375 0.392 0.375s0.085 0.698 0.006 0.834c-0.108-0.034-1.208-0.074-1.373-0.011-0.148 0.045-0.715 0.017-0.573 0.942 0.108-0.25 0.204-0.471 0.204-0.471s-0.017 0.335 0.119 0.454c-0.023-0.352 0.131-0.59 0.131-0.59s0.028 0.386 0.113 0.442c0.085 0.057 0.085-0.624 0.556-0.567s0.811 0.040 0.811 0.040 0.159 1.333 0.108 1.458c-0.34-0.079-1.152 0.034-1.203 0.238 0.477-0.028 0.698 0.028 0.698 0.028s-0.386 0.34-0.267 0.539z"></path>
<path fill="#9ca69c" d="M20.81 13.422s-1.181 1.301-0.671 2.297c0.027-0.139 0.015-0.226 0.032-0.22-0.028-0.017 0.146 0.12 0.133 0.093 0.004-0.072-0.053-0.226-0.053-0.226l0.16 0.040-0.093-0.173 0.226 0.027s-0.080-0.213-0.053-0.213c0.027 0 0.186 0.013 0.186 0.013-0.336-0.603-0.019-1.103 0.133-1.637z"></path>
<path fill="#9ca69c" d="M21.22 12.305s0.063 0.448-0.182 0.579c-0.040 0.028-0.193 0.079-0.17 0.17 0.028 0.125 0.096 0.102 0.193 0.079 0.255-0.045 0.55-0.59 0.159-0.828z"></path>
<path fill="#fff" d="M20.784 12.691c0 0.053-0.043 0.096-0.096 0.096s-0.096-0.043-0.096-0.096v0c0-0.053 0.043-0.096 0.096-0.096s0.096 0.043 0.096 0.096v0z"></path>
<path fill="#de3108" d="M20.403 13.066c-0.062 0.051-0.392 0.392-0.068 0.516 0.335-0.091 0.244-0.153 0.318-0.227 0.002-0.153-0.166-0.193-0.25-0.289z"></path>
<path fill="#9ca69c" d="M21.118 16.283c-0.017 0.074-0.091 0.346 0.011 0.556 0.284-0.119 0.414-0.085 0.511-0.023-0.233-0.187-0.323-0.267-0.522-0.533z"></path>
<path fill="#fff" d="M21.606 17.571l0.017 0.636s0.221 0.040 0.323 0c0.102-0.040-0.006-0.443-0.34-0.636z"></path>
<path fill="#9ca69c" d="M23.212 17.65s-0.409-0.987-1.453-1.237-0.908-1.362-0.823-1.43c0.045-0.096 0.079-0.244 0.38-0.102s1.685 0.84 1.884 0.874 0.028 1.918 0.011 1.895z"></path>
<path fill="#de3108" d="M22.219 16.408c-0.017 0.011 1.396 0.834 0.97 1.543 0.403-0.267 0.272-0.732 0.272-0.732s0.329 0.857-0.471 1.277c0.085 0.074 0.142 0.057 0.142 0.057l-0.136 0.136s-0.062 0.102 0.477-0.159c-0.148 0.119-0.159 0.204-0.159 0.204s0.040 0.113 0.392-0.193c-0.284 0.306-0.346 0.465-0.346 0.46 0.766-0.068 2.434-2.559-0.528-3.296 0.159 0.165 0.136 0.142 0.136 0.142l-0.749 0.562z"></path>
<path fill="#fff" d="M22.281 16.164c0.193 0.136 0.261 0.182 0.284 0.25-0.176-0.040-0.335-0.028-0.335-0.028s-0.38-0.363-0.448-0.392c-0.051 0-0.346-0.187-0.346-0.187-0.148-0.074-0.284-0.584 0.261-0.437 0.562 0.267 0.641 0.289 0.641 0.289l0.67 0.21 0.386 0.431s-0.686-0.341-0.772-0.346c0.187 0.153 0.295 0.363 0.295 0.363-0.218-0.062-0.407-0.119-0.635-0.153z"></path>
<path fill="#de3908" d="M-2.667 26.668h48v5.333h-48z"></path>
</svg>
