<!-- Generated by IcoMoon.io -->
<svg version="1.1" xmlns="http://www.w3.org/2000/svg" width="43" height="32" viewBox="0 0 43 32">
<title>UZS</title>
<path fill="#1eb53a" d="M0 21.333h42.667v10.667h-42.667z"></path>
<path fill="#0099b5" d="M0 0h42.667v10.667h-42.667z"></path>
<path fill="#ce1126" d="M0 10.24h42.667v11.52h-42.667z"></path>
<path fill="#fff" d="M0 10.88h42.667v10.24h-42.667z"></path>
<path fill="#fff" d="M12.8 5.12c0 2.121-1.719 3.84-3.84 3.84s-3.84-1.719-3.84-3.84c0-2.121 1.719-3.84 3.84-3.84s3.84 1.719 3.84 3.84z"></path>
<path fill="#0099b5" d="M14.080 5.12c0 2.121-1.719 3.84-3.84 3.84s-3.84-1.719-3.84-3.84c0-2.121 1.719-3.84 3.84-3.84s3.84 1.719 3.84 3.84z"></path>
<path fill="#fff" d="M17.408 7.424l-0.237 0.73 0.365 0.119z"></path>
<path fill="#fff" d="M17.408 7.424l0.237 0.73-0.365 0.119z"></path>
<path fill="#fff" d="M18.138 7.955h-0.768l0 0.384z"></path>
<path fill="#fff" d="M18.138 7.955l-0.621 0.451-0.226-0.311z"></path>
<path fill="#fff" d="M16.678 7.955l0.621 0.451 0.226-0.311z"></path>
<path fill="#fff" d="M16.678 7.955h0.768l-0 0.384z"></path>
<path fill="#fff" d="M17.859 8.813l-0.237-0.73-0.365 0.119z"></path>
<path fill="#fff" d="M17.859 8.813l-0.621-0.451 0.226-0.311z"></path>
<path fill="#fff" d="M16.957 8.813l0.237-0.73 0.365 0.119z"></path>
<path fill="#fff" d="M17.408 4.352l-0.237 0.73 0.365 0.119z"></path>
<path fill="#fff" d="M17.408 4.352l0.237 0.73-0.365 0.119z"></path>
<path fill="#fff" d="M18.138 4.883l-0.621 0.451-0.226-0.311z"></path>
<path fill="#fff" d="M16.678 4.883h0.768l-0 0.384z"></path>
<path fill="#fff" d="M17.859 5.741l-0.621-0.451 0.226-0.311z"></path>
<path fill="#fff" d="M17.859 5.741l-0.237-0.73-0.365 0.119z"></path>
<path fill="#fff" d="M16.957 5.741l0.237-0.73 0.365 0.119z"></path>
<path fill="#fff" d="M17.408 1.28l-0.237 0.73 0.365 0.119z"></path>
<path fill="#fff" d="M17.408 1.28l0.237 0.73-0.365 0.119z"></path>
<path fill="#fff" d="M18.138 1.811l-0.621 0.451-0.226-0.311z"></path>
<path fill="#fff" d="M16.678 1.811h0.768l-0 0.384z"></path>
<path fill="#fff" d="M17.859 2.669l-0.621-0.451 0.226-0.311z"></path>
<path fill="#fff" d="M17.859 2.669l-0.237-0.73-0.365 0.119z"></path>
<path fill="#fff" d="M16.957 2.669l0.237-0.73 0.365 0.119z"></path>
<path fill="#fff" d="M20.48 7.424l-0.237 0.73 0.365 0.119z"></path>
<path fill="#fff" d="M20.48 7.424l0.237 0.73-0.365 0.119z"></path>
<path fill="#fff" d="M21.21 7.955l-0.621 0.451-0.226-0.311z"></path>
<path fill="#fff" d="M19.75 7.955h0.768l-0 0.384z"></path>
<path fill="#fff" d="M20.931 8.813l-0.621-0.451 0.226-0.311z"></path>
<path fill="#fff" d="M20.931 8.813l-0.237-0.73-0.365 0.119z"></path>
<path fill="#fff" d="M20.029 8.813l0.237-0.73 0.365 0.119z"></path>
<path fill="#fff" d="M21.21 1.811l-0.621 0.451-0.226-0.311z"></path>
<path fill="#fff" d="M19.75 1.811l0.621 0.451 0.226-0.311z"></path>
<path fill="#fff" d="M20.029 2.669l0.621-0.451-0.226-0.311z"></path>
<path fill="#fff" d="M20.48 1.28l0.237 0.73-0.365 0.119z"></path>
<path fill="#fff" d="M19.75 1.811h0.768l-0 0.384z"></path>
<path fill="#fff" d="M20.931 2.669l-0.237-0.73-0.365 0.119z"></path>
<path fill="#fff" d="M20.029 2.669l0.237-0.73 0.365 0.119z"></path>
<path fill="#fff" d="M23.552 7.424l-0.237 0.73 0.365 0.119z"></path>
<path fill="#fff" d="M23.552 7.424l0.237 0.73-0.365 0.119z"></path>
<path fill="#fff" d="M24.282 7.955l-0.621 0.451-0.226-0.311z"></path>
<path fill="#fff" d="M22.822 7.955h0.768l-0 0.384z"></path>
<path fill="#fff" d="M24.003 8.813l-0.621-0.451 0.226-0.311z"></path>
<path fill="#fff" d="M24.003 8.813l-0.237-0.73-0.365 0.119z"></path>
<path fill="#fff" d="M23.101 8.813l0.237-0.73 0.365 0.119z"></path>
<path fill="#fff" d="M24.282 1.811l-0.621 0.451-0.226-0.311z"></path>
<path fill="#fff" d="M22.822 1.811l0.621 0.451 0.226-0.311z"></path>
<path fill="#fff" d="M23.101 2.669l0.621-0.451-0.226-0.311z"></path>
<path fill="#fff" d="M23.552 1.28l0.237 0.73-0.365 0.119z"></path>
<path fill="#fff" d="M22.822 1.811h0.768l-0 0.384z"></path>
<path fill="#fff" d="M24.003 2.669l-0.237-0.73-0.365 0.119z"></path>
<path fill="#fff" d="M23.101 2.669l0.237-0.73 0.365 0.119z"></path>
<path fill="#fff" d="M11.264 7.424l-0.237 0.73 0.365 0.119z"></path>
<path fill="#fff" d="M11.264 7.424l0.237 0.73-0.365 0.119z"></path>
<path fill="#fff" d="M11.994 7.955l-0.621 0.451-0.226-0.311z"></path>
<path fill="#fff" d="M10.534 7.955h0.768l-0 0.384z"></path>
<path fill="#fff" d="M11.715 8.813l-0.621-0.451 0.226-0.311z"></path>
<path fill="#fff" d="M11.715 8.813l-0.237-0.73-0.365 0.119z"></path>
<path fill="#fff" d="M10.813 8.813l0.237-0.73 0.365 0.119z"></path>
<path fill="#fff" d="M14.336 7.424l-0.237 0.73 0.365 0.119z"></path>
<path fill="#fff" d="M14.336 7.424l0.237 0.73-0.365 0.119z"></path>
<path fill="#fff" d="M15.066 7.955l-0.621 0.451-0.226-0.311z"></path>
<path fill="#fff" d="M13.606 7.955h0.768l-0 0.384z"></path>
<path fill="#fff" d="M14.787 8.813l-0.621-0.451 0.226-0.311z"></path>
<path fill="#fff" d="M14.787 8.813l-0.237-0.73-0.365 0.119z"></path>
<path fill="#fff" d="M13.885 8.813l0.237-0.73 0.365 0.119z"></path>
<path fill="#fff" d="M14.336 4.352l-0.237 0.73 0.365 0.119z"></path>
<path fill="#fff" d="M14.336 4.352l0.237 0.73-0.365 0.119z"></path>
<path fill="#fff" d="M15.066 4.883l-0.621 0.451-0.226-0.311z"></path>
<path fill="#fff" d="M13.606 4.883h0.768l-0 0.384z"></path>
<path fill="#fff" d="M14.787 5.741l-0.621-0.451 0.226-0.311z"></path>
<path fill="#fff" d="M14.787 5.741l-0.237-0.73-0.365 0.119z"></path>
<path fill="#fff" d="M13.885 5.741l0.237-0.73 0.365 0.119z"></path>
</svg>
