<!-- Generated by IcoMoon.io -->
<svg version="1.1" xmlns="http://www.w3.org/2000/svg" width="43" height="32" viewBox="0 0 43 32">
<title>VEF</title>
<path fill="#cf142b" d="M0 0h42.667v32h-42.667z"></path>
<path fill="#00247d" d="M0 0h42.667v21.333h-42.667z"></path>
<path fill="#fc0" d="M0 0h42.667v10.667h-42.667z"></path>
<path fill="#000" d="M21.565 21.087l-0.626 1.177 0.706 0.376z"></path>
<path fill="#000" d="M21.565 21.087l0.186 1.32-0.792 0.111z"></path>
<path fill="#000" d="M22.654 22.214l-1.313-0.232-0.139 0.788z"></path>
<path fill="#000" d="M22.654 22.214l-1.198 0.584-0.351-0.719z"></path>
<path fill="#000" d="M20.156 21.774l0.926 0.959 0.575-0.556z"></path>
<path fill="#000" d="M20.156 21.774l1.313 0.232-0.139 0.788z"></path>
<path fill="#000" d="M21.918 23.598l-0.186-1.32-0.792 0.111z"></path>
<path fill="#000" d="M21.918 23.598l-0.926-0.959 0.575-0.556z"></path>
<path fill="#000" d="M20.374 23.326l1.198-0.584-0.351-0.719z"></path>
<path fill="#000" d="M20.374 23.326l0.626-1.177 0.706 0.376z"></path>
<path fill="#000" d="M22 21.245l-0.991 0.892 0.535 0.594z"></path>
<path fill="#000" d="M22 21.245l-0.277 1.304-0.782-0.166z"></path>
<path fill="#000" d="M22.638 22.677l-1.155-0.667-0.4 0.693z"></path>
<path fill="#000" d="M22.638 22.677l-1.326 0.139-0.084-0.796z"></path>
<path fill="#000" d="M20.441 21.409l0.542 1.218 0.731-0.325z"></path>
<path fill="#000" d="M20.441 21.409l1.155 0.667-0.4 0.693z"></path>
<path fill="#000" d="M21.473 23.726l0.277-1.304-0.782-0.166z"></path>
<path fill="#000" d="M21.473 23.726l-0.542-1.218 0.731-0.325z"></path>
<path fill="#000" d="M20.115 22.942l1.326-0.139-0.084-0.796z"></path>
<path fill="#000" d="M20.115 22.942l0.991-0.892 0.535 0.594z"></path>
<path fill="#000" d="M22.355 21.543l-0.707 1.131-0.678-0.424z"></path>
<path fill="#000" d="M21.011 23.694l0.707-1.131-0.678-0.424z"></path>
<path fill="#000" d="M22.464 23.107l-1.294-0.323 0.194-0.776z"></path>
<path fill="#000" d="M20.834 21.164l0.857 1.021-0.613 0.514z"></path>
<path fill="#000" d="M21.011 23.694l-0.093-1.33 0.798-0.056z"></path>
<path fill="#000" d="M20.003 22.493l1.294 0.323 0.194-0.776z"></path>
<path fill="#000" d="M20.003 22.493l1.236-0.499 0.3 0.742z"></path>
<path fill="#000" d="M22.586 21.944l-1.051 0.821-0.492-0.63z"></path>
<path fill="#000" d="M20.588 23.505l1.051-0.821-0.492-0.63z"></path>
<path fill="#000" d="M22.154 23.451l-1.105-0.746 0.447-0.663z"></path>
<path fill="#000" d="M21.287 21.067l0.456 1.253-0.752 0.274z"></path>
<path fill="#000" d="M20.588 23.505l0.367-1.282 0.769 0.221z"></path>
<path fill="#000" d="M20.052 22.032l1.105 0.746 0.447-0.663z"></path>
<path fill="#000" d="M20.052 22.032l1.332-0.047 0.028 0.799z"></path>
</svg>
