<!-- Generated by IcoMoon.io -->
<svg version="1.1" xmlns="http://www.w3.org/2000/svg" width="43" height="32" viewBox="0 0 43 32">
<title>VUV</title>
<path fill="#000" d="M0 0l21.713 13.714h26.285v4.571h-26.285l-21.713 13.713v-31.999z"></path>
<path fill="#ff0" d="M0 30.857l22.171-14.171h25.828v-1.371h-25.828l-22.171-14.171v2.057l20.799 12.799-20.799 12.8v2.057z"></path>
<path fill="#40aa40" d="M0 31.999l22.171-14.171h25.828v14.171h-47.998z"></path>
<path fill="#ce0000" d="M0 0l22.171 14.171h25.828v-14.171h-47.998z"></path>
<path fill="#ff0" d="M5.988 16.664c0.077 0.017 0.097 0.039 0.173-0.073 0.016-0.056 0.064-0.134 0.105-0.204 0.055-0.091 0.080-0.128 0.132-0.058 0.034 0.040 0.168-0.033 0.224 0.005 0.086 0.057 0.034 0.049 0.105-0.013 0.054-0.116 0.006-0.102-0.070-0.154-0.054-0.037-0.191 0.039-0.244 0.002 0.019-0.115 0.056-0.128 0.122-0.15 0.050 0.035 0.197-0.026 0.242-0.025 0.064 0.013 0.121 0.020 0.141-0.073 0.032-0.066 0.018-0.021-0.008-0.069-0.054-0.037-0.191 0.039-0.244 0.002-0.070-0.053-0.058-0.072-0.018-0.161 0.054-0.030 0.095-0.015 0.162 0.026 0.069 0.048 0.178-0.045 0.239-0.048 0.055-0.062 0.119-0.083 0.078-0.159-0.023-0.058-0.040-0.064-0.115-0.079-0.077-0.053-0.177 0.044-0.206-0.035 0.061-0.087 0.084-0.069 0.157-0.020 0.048 0.016 0.191-0.069 0.237-0.071 0.068-0.020 0.035 0.057 0.083-0.113-0.017-0.074-0.14 0.045-0.21 0.026-0.067 0.009-0.12-0.015-0.126-0.087 0.001-0.097 0.049-0.104 0.118-0.089 0.061 0.011 0.197-0.064 0.248-0.063 0.072 0.039 0.095 0.024 0.152-0.065 0.042-0.106-0.005-0.062-0.076-0.116-0.054-0.037-0.191 0.039-0.244 0.002 0.009-0.039 0.026-0.087 0.063-0.106 0.053 0.010 0.098 0.008 0.165 0.049 0.065 0.029 0.173-0.098 0.229-0.14-0.011-0.060-0.118 0.025-0.183-0.019-0.041-0.028-0.093-0.058-0.106-0.094 0.037-0.105 0.019-0.1 0.12-0.066 0.054-0.014 0.146-0.013 0.083-0.113-0.010-0.016-0.063-0.010-0.11-0.033-0.056-0.039-0.11-0.078-0.17-0.095-0.043-0.007-0.105-0.021-0.139-0.011-0.004 0.063 0.012 0.102 0.008 0.176 0.028 0.046 0.081 0.047 0.092 0.063-0.056 0.049-0.087 0.024-0.146 0.027-0.071-0.048-0.030-0.199-0.113-0.163 0.019 0.044 0.012 0.211 0.048 0.245 0.038 0.026 0.086 0.051 0.094 0.086-0.060 0.092-0.083 0.087-0.155 0.043-0.060-0.041-0.041-0.177-0.093-0.17-0.064 0.048-0.065 0.046-0.051 0.114 0.003 0.089-0.032 0.212 0.039 0.261 0.085 0.061 0.096 0.053 0.029 0.169-0.046 0.056-0.072 0.046-0.125 0.020-0.057-0.039-0.045-0.184-0.089-0.231-0.084-0.050-0.035-0.048-0.105 0.013-0.021 0.079-0.006 0.099 0.029 0.169 0.028 0.043 0.027 0.191 0.075 0.2 0.078 0.045 0.081 0.036-0.008 0.122-0.070 0.003-0.1 0.022-0.153-0.042-0.065-0.049-0.024-0.2-0.107-0.201-0.077 0.006-0.093 0.008-0.083 0.113 0.013 0.092-0.021 0.237 0.053 0.291 0.069 0.032 0.111 0.030 0.135 0.072-0.022 0.019-0.062 0.078-0.086 0.090-0.048 0.003-0.098-0.030-0.153-0.042-0.065-0.030-0.036-0.088-0.088-0.124-0.060 0.020-0.061-0.065-0.093 0.021 0.012 0.070-0.011 0.162 0.054 0.207 0.054 0.037 0.101 0.112 0.154 0.149 0.062 0.073 0.037 0.085-0 0.191-0.051 0.001-0.112-0.034-0.167-0.072-0.054-0.037-0.044-0.179-0.098-0.216-0.046-0.046-0.033-0.085-0.105 0.013-0.007 0.069 0.006 0.074 0.024 0.123 0.002 0.071-0.017 0.201 0.048 0.246 0.066 0.013 0.136 0.047 0.188 0.065 0.049 0.058 0.006 0.047-0.049 0.136-0.035 0.090-0.035 0.106-0.090 0.151-0.048 0.063-0.066 0.091-0.023 0.175z"></path>
<path fill="#ff0" d="M7.557 16.741c0.046-0.075 0.074-0.087 0.002-0.213-0.045-0.040-0.098-0.122-0.145-0.194-0.061-0.095-0.085-0.136-0.001-0.163 0.050-0.020 0.036-0.192 0.094-0.236 0.087-0.069 0.059-0.017 0.030-0.117-0.084-0.104-0.091-0.048-0.17 0.013-0.055 0.042-0.040 0.218-0.095 0.26-0.098-0.066-0.095-0.11-0.089-0.19 0.052-0.040 0.054-0.219 0.073-0.267 0.038-0.063 0.067-0.12-0.011-0.179-0.048-0.060-0.012-0.027-0.066-0.020-0.055 0.042-0.040 0.218-0.095 0.26-0.076 0.053-0.090 0.033-0.155-0.046-0.006-0.070 0.024-0.107 0.089-0.162 0.071-0.055 0.030-0.207 0.051-0.274-0.035-0.083-0.029-0.16-0.114-0.147-0.062 0.001-0.075 0.017-0.118 0.091-0.079 0.060-0.030 0.205-0.114 0.205-0.056-0.1-0.030-0.116 0.045-0.175 0.034-0.044 0.013-0.23 0.029-0.28 0.009-0.080 0.066-0.015-0.070-0.134-0.074-0.012-0.014 0.167-0.060 0.233-0.018 0.075-0.061 0.122-0.13 0.1-0.088-0.040-0.075-0.094-0.035-0.161 0.034-0.060 0.019-0.235 0.041-0.289 0.064-0.062 0.060-0.092 0.001-0.188-0.080-0.087-0.059-0.020-0.137 0.035-0.055 0.042-0.040 0.218-0.095 0.26-0.032-0.026-0.069-0.063-0.072-0.109 0.031-0.052 0.046-0.101 0.111-0.155 0.052-0.058-0.021-0.223-0.037-0.3-0.060-0.013-0.024 0.135-0.090 0.187-0.043 0.033-0.090 0.076-0.128 0.075-0.082-0.081-0.085-0.060-0.013-0.154 0.009-0.063 0.046-0.16-0.070-0.134-0.019 0.004-0.035 0.063-0.074 0.104-0.058 0.044-0.115 0.086-0.155 0.142-0.023 0.043-0.061 0.104-0.065 0.144 0.056 0.029 0.099 0.028 0.165 0.061 0.053-0.011 0.075-0.067 0.095-0.072 0.023 0.079-0.012 0.102-0.033 0.166-0.073 0.056-0.194-0.047-0.195 0.055 0.048-0.003 0.199 0.071 0.245 0.047 0.039-0.030 0.081-0.071 0.117-0.066 0.061 0.101 0.047 0.123-0.023 0.181-0.062 0.047-0.179-0.027-0.193 0.031 0.019 0.087 0.016 0.087 0.084 0.1 0.083 0.032 0.182 0.119 0.255 0.063 0.090-0.066 0.087-0.081 0.166 0.037 0.033 0.072 0.013 0.095-0.031 0.141-0.059 0.045-0.187-0.026-0.248 0.002-0.079 0.069-0.058 0.018-0.030 0.117 0.064 0.054 0.089 0.046 0.166 0.037 0.051-0.013 0.186 0.048 0.214 0 0.072-0.065 0.065-0.072 0.109 0.057-0.025 0.075-0.020 0.115-0.099 0.146-0.071 0.049-0.193-0.054-0.227 0.033-0.025 0.084-0.029 0.102 0.070 0.134 0.090 0.023 0.209 0.117 0.289 0.060 0.057-0.061 0.071-0.106 0.12-0.115 0.009 0.030 0.046 0.097 0.048 0.127-0.016 0.053-0.067 0.093-0.099 0.146-0.054 0.057-0.095 0.003-0.149 0.044-0.006 0.072-0.084 0.039-0.018 0.108 0.070 0.015 0.144 0.077 0.212 0.025 0.055-0.042 0.143-0.062 0.198-0.105 0.091-0.036 0.093-0.006 0.175 0.077-0.019 0.055-0.076 0.105-0.133 0.149-0.055 0.042-0.182-0.024-0.237 0.018-0.060 0.031-0.091 0.001-0.030 0.117 0.061 0.035 0.071 0.023 0.122 0.024 0.066 0.026 0.178 0.098 0.245 0.047 0.038-0.064 0.098-0.126 0.135-0.173 0.073-0.029 0.045 0.012 0.106 0.107 0.069 0.073 0.083 0.080 0.103 0.156 0.039 0.076 0.057 0.107 0.152 0.095z"></path>
<path fill="#ff0" d="M6.125 19.657c0-0.332-0.052-0.665 0-0.665 2.926 0 3.657-1.995 3.657-3.325s-1.016-2.66-2.926-2.66c-2.194 0-2.926 1.299-2.926 2.66 0 1.33 1.097 2.327 2.194 2.327 1.463 0 1.829-0.332 2.926-1.662-0.366 1.662-2.194 2.327-2.926 2.327-1.463 0-2.926-0.997-2.926-2.992 0-1.662 1.097-3.325 3.657-3.325 2.194 0 3.657 1.662 3.657 3.325 0 2.327-1.829 3.99-4.388 3.99z"></path>
</svg>
