<!-- Generated by IcoMoon.io -->
<svg version="1.1" xmlns="http://www.w3.org/2000/svg" width="43" height="32" viewBox="0 0 43 32">
<title>WST</title>
<path fill="#f00" d="M0 0h42.667v32h-42.667z"></path>
<path fill="#00006b" d="M0 0h20.96v10.481h-20.96z"></path>
<path fill="#fff" d="M10.851 9.627l-0.831-0.561-0.797 0.57 0.253-1-0.765-0.617 0.988-0.057 0.324-0.952 0.357 0.965 0.965 0.028-0.767 0.654zM10.709 2.972l-0.665-0.427-0.653 0.424 0.181-0.797-0.585-0.521 0.777-0.065 0.29-0.746 0.299 0.757 0.765 0.060-0.593 0.533zM7.77 5.366l-0.647-0.444-0.661 0.444 0.206-0.778-0.61-0.518 0.774-0.037 0.285-0.764 0.273 0.755 0.785 0.046-0.605 0.504zM13.662 4.831l-0.621-0.401-0.604 0.406 0.174-0.739-0.557-0.473 0.728-0.056 0.26-0.698 0.276 0.704 0.718 0.042-0.557 0.491zM11.925 6.581l-0.414-0.258-0.413 0.26 0.108-0.49-0.365-0.328 0.481-0.045 0.187-0.463 0.189 0.462 0.481 0.042-0.364 0.33z"></path>
</svg>
