<!-- Generated by IcoMoon.io -->
<svg version="1.1" xmlns="http://www.w3.org/2000/svg" width="32" height="32" viewBox="0 0 32 32">
<title>XAU</title>
<path d="M0.013 1.741c0.019 1.28 0.051 1.798 0.109 1.939 0.051 0.102 0.102 0.307 0.115 0.448 0.019 0.141 0.064 0.301 0.109 0.352 0.109 0.141 0.128 0.435 0.026 0.557-0.070 0.090-0.070 0.102 0.019 0.070 0.058-0.019 0.102-0.006 0.109 0.032 0.006 0.045 0.032 0.25 0.051 0.461s0.070 0.41 0.115 0.448c0.038 0.032 0.077 0.205 0.090 0.384 0.026 0.371 0.051 0.41 0.16 0.275 0.038-0.058 0.109-0.109 0.154-0.122s0.352-0.294 0.691-0.627c0.493-0.493 0.602-0.627 0.57-0.736-0.026-0.077-0.051-0.256-0.064-0.41-0.006-0.154-0.038-0.365-0.058-0.474-0.032-0.122-0.019-0.211 0.032-0.243s0.026-0.115-0.090-0.282c-0.134-0.198-0.154-0.288-0.122-0.518 0.026-0.218 0.013-0.307-0.070-0.39-0.064-0.064-0.090-0.147-0.064-0.211 0.083-0.205 0.102-0.39 0.038-0.39-0.083 0-0.218-0.442-0.16-0.531 0.019-0.032 0-0.166-0.045-0.294-0.070-0.211-0.064-0.275 0.051-0.525 0.090-0.192 0.109-0.307 0.064-0.358-0.077-0.096-0.006-0.23 0.096-0.166 0.045 0.026 0.038 0-0.013-0.064-0.077-0.096-0.070-0.109 0.019-0.109 0.058 0 0.102 0.051 0.109 0.109 0 0.070 0.019 0.083 0.038 0.032 0.058-0.141 0.128-0.083 0.096 0.083-0.019 0.109 0 0.16 0.064 0.16 0.115 0 0.288 0.211 0.256 0.307-0.013 0.045 0.006 0.077 0.045 0.077s0.070 0.045 0.070 0.096c0 0.090 0.16 0.39 0.256 0.48 0.019 0.019 0.038 0.102 0.051 0.192 0.019 0.224 0.147 0.448 0.25 0.448 0.051 0 0.083 0.070 0.083 0.179 0 0.102 0.045 0.237 0.096 0.307 0.051 0.064 0.096 0.173 0.096 0.23 0 0.064 0.032 0.115 0.070 0.115 0.032 0 0.045 0.026 0.026 0.064-0.019 0.032-0.006 0.064 0.032 0.064 0.045 0 0.064 0.045 0.038 0.096-0.019 0.051 0.032 0.218 0.115 0.371 0.314 0.563 0.358 0.41-1.056 3.219-0.71 1.402-1.331 2.624-1.376 2.714-0.435 0.806-1.306 2.662-1.293 2.733 0.013 0.051 0.634-1.126 1.382-2.618 0.749-1.485 1.587-3.155 1.875-3.699 2.074-3.994 2.304-4.403 2.707-4.845 0.237-0.262 0.422-0.32 1.216-0.397 0.499-0.045 0.653-0.083 0.723-0.173 0.115-0.16 0.102-0.371-0.032-0.493-0.102-0.096-0.288-0.109-1.293-0.109h-1.178l0.173 0.179c0.154 0.16 0.16 0.179 0.058 0.25-0.102 0.077-0.102 0.077 0.006 0.045 0.077-0.032 0.109 0 0.122 0.096 0 0.077 0.006 0.173 0.013 0.211 0.006 0.045 0.032 0.102 0.070 0.128 0.032 0.026-0.019 0.115-0.115 0.205s-0.173 0.186-0.173 0.218c0 0.032-0.102 0.147-0.23 0.262l-0.224 0.211 0.032-0.205c0.032-0.218-0.102-0.659-0.269-0.845-0.045-0.058-0.070-0.141-0.045-0.173 0.019-0.038 0.013-0.070-0.026-0.070s-0.038-0.070-0.006-0.186c0.032-0.122 0.026-0.211-0.019-0.256-0.051-0.051-0.8-0.070-2.432-0.070h-2.362l0.026 1.741z"></path>
<path d="M9.357 0.045c0.218 0.448 0.288 0.57 0.339 0.608 0.038 0.032 0.032 0.070-0.026 0.109-0.070 0.045-0.064 0.064 0.032 0.090 0.211 0.064 0.614 0.102 1.318 0.147 0.781 0.038 0.806 0.026 0.832-0.512 0.006-0.269 0.026-0.294 0.166-0.294 0.096 0 0.166 0.045 0.186 0.128 0.019 0.070 0.077 0.128 0.134 0.128 0.077 0 0.083 0.019 0.026 0.077-0.051 0.051-0.038 0.115 0.064 0.262 0.109 0.154 0.115 0.198 0.045 0.243-0.064 0.038-0.064 0.058-0.013 0.058 0.045 0 0.397 0.045 0.794 0.102 0.39 0.051 0.838 0.090 0.992 0.077l0.282-0.019-0.128-0.237c-0.070-0.134-0.128-0.339-0.128-0.461s-0.026-0.294-0.064-0.384l-0.064-0.166h-2.4c-1.325 0-2.4 0.019-2.387 0.045z"></path>
<path d="M16.512 0.038c0 0.058 0.48 1.184 0.582 1.37 0.032 0.051 0.102 0.198 0.154 0.32 0.058 0.122 0.16 0.333 0.23 0.467 0.077 0.141 0.147 0.326 0.16 0.416 0.019 0.096 0.083 0.243 0.147 0.333s0.147 0.269 0.192 0.397c0.045 0.134 0.102 0.256 0.134 0.275 0.077 0.051 0.256 0.416 0.256 0.531 0 0.051 0.070 0.173 0.16 0.282 0.090 0.102 0.16 0.269 0.16 0.371 0 0.205 0.275 0.659 0.352 0.589 0.032-0.026 0.032 0.013 0.006 0.077-0.051 0.141 0.070 0.55 0.16 0.55 0.096 0 0.179 0.275 0.109 0.365-0.038 0.045-0.038 0.083-0.006 0.083s0.058 0.064 0.064 0.141c0.006 0.077 0.058 0.16 0.109 0.192 0.058 0.032 0.096 0.134 0.090 0.262-0.006 0.115 0.032 0.282 0.083 0.365 0.045 0.090 0.077 0.179 0.070 0.205-0.006 0.032 0.038 0.051 0.102 0.051 0.186 0 0.659-0.346 1.043-0.749 0.192-0.205 0.397-0.403 0.454-0.435 0.058-0.038 0.346-0.198 0.64-0.365 0.781-0.448 0.832-0.493 0.781-0.742-0.026-0.109-0.064-0.205-0.090-0.205-0.032 0-0.038-0.051-0.026-0.115 0.019-0.064-0.045-0.192-0.154-0.301-0.122-0.122-0.173-0.237-0.154-0.333 0.013-0.077-0.019-0.23-0.077-0.346s-0.102-0.269-0.102-0.339c0-0.077-0.090-0.307-0.192-0.518s-0.192-0.448-0.192-0.525c0-0.077-0.032-0.16-0.070-0.186-0.038-0.019-0.058-0.141-0.045-0.256 0.013-0.122 0.013-0.218-0.013-0.218-0.064 0-0.384-0.563-0.384-0.685 0-0.064-0.032-0.154-0.077-0.198-0.038-0.038-0.077-0.218-0.090-0.397-0.006-0.192-0.058-0.378-0.115-0.442s-0.102-0.16-0.102-0.218c0-0.102-0.186-0.109-2.176-0.109-1.197 0-2.176 0.019-2.176 0.038zM20.058 3.104c-0.026 0.070 0 0.096 0.102 0.096 0.109 0 0.134 0.026 0.109 0.128-0.019 0.077-0.006 0.115 0.032 0.090 0.045-0.032 0.058 0.013 0.032 0.115-0.032 0.109-0.013 0.192 0.051 0.243 0.051 0.045 0.096 0.122 0.096 0.173 0 0.058 0.038 0.083 0.096 0.064 0.051-0.026 0.109-0.013 0.128 0.019 0.026 0.038-0.006 0.064-0.058 0.064-0.058 0-0.102 0.038-0.109 0.077 0 0.064-0.013 0.064-0.038 0-0.038-0.090-0.275-0.109-0.275-0.013 0 0.032 0.070 0.077 0.16 0.102 0.090 0.019 0.192 0.096 0.23 0.166 0.083 0.154 0.006 0.256-0.077 0.102-0.032-0.064-0.102-0.096-0.154-0.070-0.109 0.038-0.307-0.096-0.256-0.173 0.019-0.032 0-0.077-0.038-0.102-0.051-0.026-0.045-0.058 0.013-0.102 0.064-0.045 0.051-0.058-0.045-0.032-0.109 0.026-0.128 0.006-0.109-0.090 0.019-0.070 0-0.122-0.045-0.122-0.064 0-0.064-0.019 0-0.090 0.058-0.077 0.045-0.109-0.058-0.179-0.154-0.096-0.173-0.179-0.038-0.179 0.051 0 0.077-0.038 0.058-0.090s0-0.141 0.051-0.192c0.109-0.128 0.186-0.128 0.141-0.006zM20.832 4.416c0.019 0.032 0.006 0.064-0.026 0.064-0.038 0-0.070-0.032-0.070-0.064 0-0.038 0.013-0.064 0.026-0.064 0.019 0 0.051 0.026 0.070 0.064zM20.672 4.704c0.070-0.019 0.128-0.013 0.128 0.026 0 0.032 0.077 0.077 0.179 0.090 0.166 0.026 0.166 0.026 0.032 0.077-0.083 0.026-0.128 0.070-0.109 0.102s0.064 0.045 0.096 0.026c0.032-0.026 0.058-0.006 0.058 0.026 0 0.038-0.038 0.070-0.077 0.077-0.064 0-0.064 0.013 0 0.038 0.038 0.013 0.077 0.058 0.077 0.096s0.070 0.134 0.16 0.211c0.134 0.134 0.141 0.16 0.058 0.23-0.090 0.077-0.090 0.090 0.013 0.166 0.090 0.064 0.096 0.096 0.026 0.179-0.045 0.051-0.064 0.096-0.045 0.096s0.090 0.019 0.154 0.038c0.096 0.032 0.096 0.026 0.019-0.032-0.058-0.045-0.064-0.070-0.019-0.070 0.102 0 0.147 0.083 0.096 0.166-0.083 0.128-0.32 0.224-0.365 0.147-0.026-0.038-0.083-0.051-0.128-0.032-0.045 0.013-0.102-0.013-0.122-0.064s-0.077-0.090-0.122-0.090c-0.064 0-0.083-0.051-0.058-0.16 0.013-0.096 0-0.16-0.045-0.16-0.096 0-0.090-0.256 0.013-0.262 0.064 0 0.064-0.013 0-0.038-0.045-0.013-0.083-0.077-0.083-0.141 0-0.058-0.058-0.166-0.122-0.243-0.122-0.128-0.122-0.128 0-0.218 0.141-0.102 0.16-0.218 0.032-0.166-0.064 0.026-0.083 0.006-0.058-0.058 0.019-0.045 0-0.090-0.038-0.090s-0.051-0.045-0.026-0.109c0.032-0.090 0.051-0.083 0.096 0.038 0.038 0.109 0.083 0.134 0.179 0.102zM20.998 6.611c-0.064 0.058-0.070 0.051-0.032-0.038 0.019-0.064 0.058-0.096 0.077-0.077s0 0.070-0.045 0.115z"></path>
<path d="M20.672 5.376c0 0.032 0.032 0.064 0.064 0.064 0.038 0 0.064-0.032 0.064-0.064 0-0.038-0.026-0.064-0.064-0.064-0.032 0-0.064 0.026-0.064 0.064z"></path>
<path d="M23.552 0.064c0 0.032 0.058 0.16 0.128 0.288s0.128 0.269 0.128 0.32c0 0.051 0.032 0.096 0.064 0.096 0.038 0 0.064 0.045 0.064 0.096s0.026 0.096 0.064 0.096c0.032 0 0.045 0.045 0.026 0.096-0.026 0.051-0.006 0.096 0.032 0.096s0.070 0.058 0.070 0.128c0 0.070 0.058 0.186 0.128 0.256s0.109 0.128 0.083 0.128c-0.026 0-0.013 0.032 0.032 0.077s0.077 0.115 0.077 0.166c0 0.051 0.070 0.173 0.16 0.282 0.090 0.102 0.16 0.23 0.16 0.282s0.032 0.090 0.064 0.090c0.038 0 0.064 0.070 0.064 0.16 0 0.083 0.038 0.179 0.083 0.205 0.109 0.070 0.237 0.314 0.237 0.454 0 0.064 0.083 0.211 0.192 0.333 0.102 0.122 0.186 0.301 0.192 0.39 0 0.096 0.077 0.256 0.179 0.365s0.179 0.282 0.192 0.403c0.006 0.115 0.077 0.275 0.141 0.346 0.070 0.077 0.128 0.211 0.128 0.301 0 0.211 0.141 0.486 0.314 0.602 0.109 0.077 0.122 0.122 0.070 0.218-0.038 0.070-0.038 0.134-0.006 0.154 0.032 0.026 0.051 0.109 0.045 0.198-0.019 0.141 0.051 0.186 0.691 0.493 1.606 0.768 2.765 1.389 2.88 1.549 0.102 0.134 0.115 0.205 0.064 0.384-0.109 0.41-1.894 2.003-6.202 5.542-0.448 0.371-1.754 1.466-2.899 2.432-5.926 5.011-6.291 5.299-7.136 5.574-0.39 0.128-0.442 0.128-0.544 0.038-0.058-0.051-0.352-0.192-0.653-0.301-0.71-0.269-0.755-0.314-0.646-0.621 0.237-0.717 0.493-1.216 0.698-1.402 0.166-0.141 0.205-0.211 0.147-0.25-0.045-0.026-0.058-0.064-0.032-0.090 0.032-0.019 0.109-0.147 0.166-0.275 0.102-0.224 0.128-0.237 0.314-0.198 0.147 0.026 0.192 0.019 0.16-0.032-0.026-0.045-0.102-0.077-0.173-0.077-0.064 0-0.122-0.032-0.122-0.064 0-0.038 0.058-0.064 0.128-0.064 0.128 0 0.128 0-0.006-0.134-0.077-0.077-0.109-0.154-0.070-0.179 0.064-0.038 0.333-0.595 0.333-0.691 0-0.026 0.058-0.122 0.128-0.211 0.096-0.128 0.134-0.147 0.198-0.083 0.045 0.045 0.115 0.083 0.154 0.083 0.032-0.006-0.019-0.077-0.128-0.16-0.192-0.16-0.192-0.16-0.083-0.333 0.064-0.102 0.173-0.314 0.25-0.486 0.077-0.166 0.166-0.301 0.198-0.301 0.038 0 0.653 0.301 1.37 0.672s1.306 0.646 1.306 0.614c0-0.038-0.134-0.134-0.301-0.218-0.173-0.083-0.787-0.403-1.376-0.71l-1.075-0.557 0.109-0.205c0.128-0.243 0.723-1.773 1.197-3.053 0.518-1.402 1.037-2.65 1.216-2.931 0.090-0.147 0.288-0.346 0.435-0.454 0.154-0.102 0.39-0.294 0.531-0.422l0.256-0.23-0.282 0.045c-0.198 0.026-0.294 0.013-0.333-0.045-0.038-0.070-0.070-0.070-0.134-0.006-0.038 0.038-0.141 0.077-0.218 0.077-0.134 0-0.134 0.013-0.077 0.224 0.083 0.262-0.019 0.435-0.23 0.403-0.173-0.026-0.326-0.448-0.493-1.331-0.058-0.32-0.16-0.73-0.314-1.248-0.122-0.416-0.147-0.742-0.064-0.902 0.096-0.179 0.070-0.224-0.211-0.32-0.23-0.077-0.614-0.026-0.986 0.141-0.134 0.058-0.262 0.109-0.282 0.102-0.090-0.019-1.651 3.296-2.118 4.499-0.064 0.173-0.192 0.461-0.275 0.64-0.282 0.582-0.736 1.722-0.736 1.843 0 0.064-0.058 0.192-0.122 0.288-0.115 0.16-0.422 0.979-0.672 1.805-0.058 0.192-0.134 0.544-0.166 0.781-0.032 0.23-0.122 0.576-0.192 0.762-0.070 0.179-0.141 0.403-0.154 0.499-0.013 0.090-0.070 0.294-0.128 0.454-0.058 0.154-0.122 0.429-0.141 0.608-0.019 0.173-0.064 0.339-0.102 0.358-0.032 0.026-0.058 0.109-0.051 0.192 0.026 0.314 0 0.973-0.038 0.934-0.019-0.019-0.051-0.218-0.064-0.442s-0.038-0.538-0.058-0.698c-0.032-0.269 0.083-1.075 0.198-1.363 0.032-0.077 0.026-0.109-0.019-0.083-0.032 0.019-0.102 0.16-0.147 0.314-0.083 0.275-0.192 0.461-0.192 0.333 0-0.032-0.064-0.064-0.141-0.070-0.173-0.013-0.371-0.237-0.371-0.41 0-0.166-0.122-0.154-0.55 0.077-0.602 0.314-1.082 0.397-2.010 0.346-0.442-0.019-0.883-0.051-0.992-0.064-0.102-0.013-0.378-0.038-0.608-0.064-0.851-0.077-3.571-0.422-4.058-0.512-0.275-0.051-0.525-0.096-0.557-0.096s-0.058 0.896-0.058 2.048c0 1.958 0.006 2.048 0.122 2.048 0.064 0 0.218 0.019 0.333 0.045 0.205 0.038 0.211 0.032 0.122-0.070-0.083-0.102-0.077-0.128 0.032-0.205 0.070-0.051 0.179-0.134 0.243-0.186 0.083-0.077 0.141-0.083 0.237-0.032 0.083 0.045 0.128 0.045 0.128 0.006s0.038-0.051 0.083-0.032c0.090 0.032 0.25-0.115 0.23-0.205-0.006-0.032 0.006-0.109 0.032-0.166 0.038-0.090 0.128-0.115 0.365-0.115 0.243 0 0.301-0.019 0.275-0.090-0.064-0.166 0.173-0.224 0.678-0.166 0.262 0.032 0.602 0.102 0.755 0.154 0.307 0.109 0.32 0.038 0.013-0.090-0.224-0.090-0.243-0.166-0.064-0.224 0.16-0.051 0.525 0.019 0.915 0.166 0.384 0.154 0.39 0.154 0.262-0.038-0.058-0.090-0.077-0.16-0.051-0.166 0.154-0.019 0.403 0.032 0.685 0.141 0.314 0.122 0.314 0.122 0.346-0.006 0.019-0.070 0.058-0.109 0.090-0.096 0.096 0.064-0.019 0.224-0.237 0.326-0.147 0.070-0.301 0.090-0.454 0.070-0.166-0.032-0.25-0.013-0.307 0.058-0.051 0.070-0.198 0.109-0.486 0.115-0.41 0.019-0.602 0.090-0.877 0.326-0.128 0.109-0.243 0.128-0.71 0.128-0.461 0-0.563 0.019-0.557 0.096s-0.083 0.096-0.416 0.096c-0.307 0-0.416 0.019-0.397 0.077 0.019 0.045-0.038 0.115-0.128 0.154s-0.179 0.128-0.192 0.192c-0.026 0.090-0.090 0.122-0.256 0.122-0.128 0-0.25-0.032-0.275-0.077-0.070-0.109-0.218 0.128-0.218 0.346 0 0.134-0.038 0.198-0.16 0.243-0.141 0.058-0.16 0.096-0.16 0.403v0.346l0.269 0.038c0.333 0.045 0.595 0.237 0.595 0.435 0 0.122 0.090 0.198 0.461 0.403 0.256 0.134 0.448 0.275 0.429 0.301-0.077 0.122 0.096 0.275 0.333 0.294l0.25 0.019-0.198-0.122c-0.134-0.083-0.205-0.179-0.205-0.275-0.013-0.499-0.141-0.691-0.557-0.819-0.435-0.134-0.608-0.25-0.608-0.397 0-0.115 0.026-0.128 0.275-0.102 0.147 0.019 0.416 0.096 0.589 0.179 0.256 0.109 0.294 0.147 0.205 0.186-0.237 0.090 0.077 0.294 0.736 0.486 0.346 0.096 0.627 0.205 0.627 0.243 0 0.032-0.128 0.192-0.288 0.352-0.16 0.154-0.288 0.314-0.288 0.346 0 0.038-0.141 0.051-0.32 0.038-0.326-0.019-0.429 0.090-0.122 0.128 0.083 0.013 0.179 0.051 0.211 0.083 0.096 0.083-1.318 0.026-1.485-0.064-0.128-0.070-0.141-0.115-0.109-0.378 0.019-0.166 0.051-0.378 0.070-0.48 0.026-0.109 0.006-0.173-0.038-0.173-0.038 0-0.115-0.045-0.166-0.096-0.058-0.051-0.128-0.096-0.16-0.096s-0.058 0.045-0.058 0.096c0 0.051-0.045 0.096-0.096 0.096-0.083 0-0.122-0.077-0.102-0.205 0-0.026-0.051-0.077-0.122-0.115-0.122-0.064-0.128-0.045-0.128 0.506 0 0.397 0.026 0.582 0.083 0.608 0.058 0.032 0.058 0.045 0 0.077-0.141 0.064-0.109 1.952 0.038 2.701 0.070 0.346 0.141 0.781 0.16 0.973s0.051 0.525 0.077 0.73c0.051 0.429-0.038 0.448-0.218 0.045-0.090-0.198-0.109-0.211-0.128-0.090-0.013 0.090 0.077 0.269 0.25 0.499 0.282 0.371 0.301 0.499 0.045 0.326-0.192-0.141-0.307-0.128-0.307 0.026 0 0.070 0.026 0.128 0.051 0.128 0.032 0 0.109 0.045 0.179 0.102 0.115 0.096 0.115 0.096-0.051 0.070-0.173-0.026-0.179-0.019-0.179 0.282 0 0.179 0.032 0.314 0.083 0.333 0.058 0.026 0.058 0.038 0 0.038-0.058 0.006-0.083 0.16-0.083 0.55v0.544h8.352c4.595 0 8.352-0.019 8.352-0.051-0.006-0.077-0.147-0.301-0.333-0.518-0.186-0.211-0.282-0.256-0.218-0.102 0.038 0.109-0.058 0.128-0.128 0.026-0.019-0.038-0.006-0.096 0.032-0.122 0.058-0.032 0.032-0.109-0.083-0.282l-0.16-0.237-0.032 0.211c-0.019 0.115-0.045 0.282-0.051 0.371-0.032 0.25-0.205 0.224-0.397-0.058l-0.179-0.256 0.134-0.282c0.077-0.154 0.134-0.371 0.134-0.48 0-0.115 0.102-0.416 0.224-0.672 0.25-0.512 0.288-0.723 0.122-0.659-0.083 0.032-0.096 0.013-0.064-0.102 0.019-0.083 0.070-0.435 0.109-0.787s0.090-0.73 0.122-0.832c0.032-0.109 0.077-0.307 0.090-0.448 0.019-0.141 0.077-0.288 0.134-0.326 0.058-0.045 0.096-0.115 0.090-0.166-0.045-0.218 0.083-0.614 0.205-0.646 0.070-0.019 0.122 0 0.122 0.051 0 0.179 0.224 0.358 0.448 0.365 0.122 0.006 0.288 0.058 0.371 0.122s0.23 0.128 0.326 0.154c0.102 0.019 0.237 0.096 0.301 0.166 0.122 0.134 0.154 0.128-0.678 0.147-0.346 0.006-0.352 0.006-0.371 0.211-0.019 0.16 0.032 0.256 0.218 0.461 0.128 0.147 0.256 0.262 0.282 0.262 0.032 0 0.026-0.102-0.006-0.23-0.051-0.179-0.045-0.262 0.038-0.384 0.083-0.134 0.147-0.154 0.48-0.154 0.358 0 0.493-0.070 0.307-0.154-0.045-0.019-0.013-0.019 0.077 0 0.083 0.026 0.288 0.122 0.442 0.224l0.288 0.173-0.224 0.064c-0.128 0.032-0.282 0.032-0.371 0-0.224-0.083-0.301 0.026-0.16 0.237 0.058 0.090 0.294 0.346 0.512 0.557 0.525 0.506 0.602 0.723 0.403 1.12-0.122 0.224-0.25 0.346-0.57 0.538-0.704 0.416-0.896 0.57-0.998 0.813-0.166 0.397-0.038 0.73 0.474 1.242 0.23 0.243 0.467 0.435 0.512 0.435 0.077 0 0.077-0.019 0.013-0.096-0.045-0.051-0.115-0.096-0.154-0.096-0.045 0-0.147-0.090-0.23-0.205-0.090-0.122-0.109-0.186-0.058-0.166 0.070 0.026 0.083-0.019 0.070-0.211-0.051-0.538 0.141-0.806 0.883-1.242 0.563-0.32 0.698-0.474 0.749-0.87 0.038-0.262 0.038-0.262-0.55-0.826-0.595-0.57-0.704-0.781-0.493-0.954 0.090-0.077 0.403-0.064 0.538 0.019 0.045 0.026 0.102 0.032 0.134 0.006 0.032-0.019 0.077-0.006 0.102 0.032 0.019 0.038-0.019 0.064-0.102 0.064-0.134 0-0.134 0-0.019 0.173 0.218 0.339 0.538 0.518 0.538 0.307 0-0.122 0.154-0.192 0.269-0.122 0.045 0.032 0.141 0.064 0.211 0.070 0.070 0.013 0.23 0.128 0.352 0.256s0.179 0.198 0.122 0.16c-0.058-0.045-0.128-0.051-0.154-0.026-0.032 0.026-0.032 0 0-0.051 0.038-0.077 0.032-0.083-0.032-0.019-0.070 0.064 0.013 0.173 0.435 0.576 0.288 0.275 0.525 0.48 0.525 0.461 0-0.026-0.128-0.218-0.288-0.435s-0.262-0.39-0.23-0.39c0.038 0 0.083 0.032 0.102 0.064 0.032 0.051 0.070 0.051 0.122 0 0.128-0.102 0.474 0.051 0.582 0.256 0.096 0.179 0.602 0.64 0.71 0.64 0.026 0 0.019-0.032-0.026-0.077-0.154-0.154-0.090-0.237 0.154-0.198 0.147 0.026 0.307 0.122 0.442 0.256 0.205 0.211 0.218 0.211 0.256 0.083s0.051-0.128 0.154-0.038c0.064 0.058 0.134 0.083 0.154 0.064 0.083-0.090 0.237 0.115 0.198 0.269-0.026 0.096 0.019 0.25 0.128 0.442 0.090 0.16 0.147 0.326 0.128 0.371-0.013 0.045-0.192 0.16-0.397 0.269-0.307 0.16-0.378 0.23-0.448 0.448-0.058 0.166-0.064 0.326-0.032 0.48 0.051 0.205 0.077 0.224 0.32 0.243s0.275 0 0.314-0.141c0.019-0.083 0.090-0.205 0.154-0.262 0.109-0.096 0.122-0.096 0.16 0.026 0.019 0.077 0.019 0.192 0 0.262-0.038 0.128-0.013 0.128 2.957 0.128l2.995-0.006 0.416-0.57c0.23-0.32 0.48-0.653 0.563-0.749 0.077-0.102 0.243-0.326 0.365-0.506l0.224-0.326-0.013-3.398-0.019-3.398-0.262 0.237c-1.312 1.184-2.746 2.47-3.366 3.014-0.416 0.358-0.755 0.672-0.755 0.685 0 0.032 0.582-0.442 0.813-0.653 0.198-0.186 0.742-0.486 0.883-0.486 0.096 0 0.16-0.038 0.16-0.090s0.032-0.090 0.064-0.090c0.038 0 0.064 0.045 0.064 0.096s-0.026 0.096-0.064 0.096c-0.032 0-0.064 0.045-0.064 0.102 0 0.096-0.422 0.672-0.525 0.717-0.032 0.013-0.051 0.051-0.051 0.090 0 0.083-1.626 1.715-1.709 1.715-0.032 0-0.166-0.102-0.294-0.224-0.23-0.224-0.23-0.237-0.134-0.39 0.058-0.090 0.269-0.301 0.467-0.474s0.326-0.32 0.294-0.32c-0.038 0-0.211 0.141-0.384 0.314s-0.339 0.301-0.365 0.288c-0.032-0.019-0.051-0.006-0.051 0.019 0 0.102-0.659 0.55-1.126 0.762-0.838 0.39-1.28 0.294-3.322-0.717-1.421-0.704-1.651-0.826-2.957-1.568-1.318-0.749-1.869-1.133-1.99-1.376-0.051-0.122-0.141-0.218-0.186-0.218s-0.083-0.032-0.083-0.070c0-0.032-0.026-0.051-0.051-0.032-0.026 0.013-0.058-0.038-0.064-0.128-0.013-0.16 0.102-0.205 0.224-0.083 0.051 0.051 0.109 0.045 0.205-0.013 0.186-0.122 0.211-0.23 0.090-0.422-0.102-0.16-0.102-0.166 0.038-0.282 0.109-0.090 0.179-0.102 0.262-0.058 0.173 0.090 0.218 0.077 0.128-0.032-0.096-0.115 0.006-0.128 0.115-0.019 0.058 0.058 0.077 0.051 0.077-0.032 0-0.058 0.026-0.102 0.058-0.090 0.032 0.006 0.544-0.422 1.139-0.96 0.589-0.531 1.466-1.306 1.946-1.728 0.486-0.416 1.408-1.235 2.048-1.818 0.646-0.582 1.536-1.37 1.978-1.754 0.723-0.621 2.79-2.413 3.802-3.296 0.224-0.192 0.806-0.698 1.293-1.12 0.493-0.422 1.018-0.896 1.178-1.056s0.339-0.314 0.403-0.339c0.096-0.038 0.109-0.141 0.109-0.966 0-0.512-0.026-0.941-0.058-0.96-0.026-0.019-0.070-0.179-0.096-0.346-0.026-0.186-0.090-0.358-0.16-0.429-0.070-0.058-0.109-0.147-0.090-0.198s0.006-0.090-0.032-0.090c-0.032 0-0.083-0.077-0.109-0.173-0.019-0.096-0.096-0.25-0.166-0.346-0.064-0.096-0.122-0.198-0.122-0.23 0-0.026-0.109-0.166-0.237-0.307-0.154-0.166-0.269-0.371-0.326-0.576-0.045-0.179-0.122-0.352-0.173-0.39s-0.096-0.122-0.096-0.179c0-0.141-0.32-0.742-0.39-0.742-0.038 0-0.058-0.038-0.045-0.083 0.006-0.038-0.064-0.243-0.16-0.448s-0.173-0.39-0.173-0.422c0-0.026-0.070-0.115-0.16-0.198-0.083-0.077-0.198-0.282-0.25-0.442-0.154-0.493-0.256-0.742-0.339-0.794-0.045-0.026-0.083-0.122-0.083-0.205 0-0.090-0.032-0.16-0.070-0.16-0.032 0-0.045-0.032-0.026-0.064 0.019-0.038-0.019-0.154-0.096-0.256-0.077-0.109-0.115-0.192-0.096-0.192s-0.013-0.077-0.083-0.179c-0.154-0.218-0.314-0.678-0.352-1.024-0.019-0.141-0.077-0.339-0.128-0.442-0.058-0.096-0.115-0.23-0.134-0.294-0.032-0.102-0.192-0.109-2.118-0.109-1.299 0-2.080 0.026-2.080 0.064zM30.982 9.37c0.378 0.16 0.518 0.384 0.659 1.037 0.128 0.621 0.045 0.704-0.237 0.243-0.128-0.211-0.307-0.486-0.397-0.614l-0.166-0.243-0.179 0.134c-0.205 0.154-0.538 0.147-0.57-0.013-0.026-0.134 0.422-0.634 0.563-0.634 0.064 0 0.211 0.038 0.326 0.090zM14.33 10.118c-0.102 0.058-0.186 0.019-0.186-0.102 0-0.115 0.218-0.154 0.243-0.038 0.013 0.045-0.013 0.109-0.058 0.141zM13.050 10.618c-0.045 0.102-0.109 0.173-0.134 0.16-0.026-0.019-0.006-0.122 0.051-0.224 0.128-0.25 0.198-0.192 0.083 0.064zM29.952 10.624c0 0.032-0.032 0.064-0.064 0.064-0.038 0-0.23 0.173-0.429 0.384-0.275 0.294-0.41 0.384-0.544 0.384-0.096 0-0.179-0.032-0.179-0.064 0-0.038 0.019-0.064 0.051-0.064 0.026 0 0.134-0.077 0.243-0.179 0.397-0.352 0.538-0.461 0.602-0.461 0.038 0 0.064-0.032 0.064-0.064 0-0.038 0.058-0.064 0.128-0.064s0.128 0.026 0.128 0.064zM28.134 12.128c-0.102 0.090-0.256 0.211-0.346 0.269-0.109 0.064-0.064 0 0.109-0.16 0.154-0.147 0.307-0.269 0.346-0.269 0.032 0-0.013 0.070-0.109 0.16zM13.568 12.352c0 0.032-0.013 0.064-0.026 0.064-0.019 0-0.051-0.032-0.070-0.064-0.019-0.038-0.006-0.064 0.026-0.064 0.038 0 0.070 0.026 0.070 0.064zM12.928 12.659c0 0.122-0.224 0.179-0.288 0.070-0.058-0.090 0.026-0.186 0.166-0.186 0.077 0 0.122 0.045 0.122 0.115zM27.008 12.947c-0.339 0.314-1.581 1.395-2.688 2.342-0.979 0.838-1.171 1.005-3.002 2.573-1.331 1.146-1.933 1.651-2.144 1.805-0.512 0.365 0.109-0.192 2.221-1.997 1.274-1.088 2.579-2.202 2.899-2.483 0.314-0.275 0.966-0.832 1.44-1.242 0.467-0.41 0.973-0.851 1.114-0.973 0.141-0.128 0.288-0.23 0.32-0.23 0.038-0.006-0.038 0.090-0.16 0.205zM12.045 13.024c0.026 0.109 0.006 0.16-0.051 0.16-0.090 0-0.122-0.198-0.045-0.275 0.058-0.064 0.064-0.058 0.096 0.115zM26.496 13.018c0 0.013-0.051 0.064-0.109 0.109-0.102 0.083-0.109 0.077-0.026-0.026s0.134-0.134 0.134-0.083zM25.984 13.491c-0.122 0.090-0.384 0.314-0.576 0.499-0.192 0.179-0.557 0.493-0.806 0.704-0.243 0.205-1.203 1.024-2.131 1.818-2.099 1.798-2.886 2.445-2.886 2.381 0-0.026 0.237-0.25 0.518-0.493 0.288-0.25 0.877-0.749 1.306-1.12 1.062-0.915 3.955-3.379 4.384-3.731 0.192-0.16 0.365-0.275 0.384-0.262 0.013 0.019-0.070 0.109-0.192 0.205zM15.526 13.638c-0.058 0.122-0.096 0.186-0.102 0.141 0-0.096 0.141-0.41 0.173-0.384 0.013 0.013-0.019 0.122-0.070 0.243zM14.56 14.144c0.019 0.032 0.013 0.064-0.026 0.064-0.032 0-0.083-0.032-0.102-0.064-0.019-0.038-0.013-0.064 0.026-0.064 0.032 0 0.083 0.026 0.102 0.064zM15.341 14.157c-0.096 0.25-0.454 1.082-0.563 1.299-0.064 0.141-0.122 0.294-0.122 0.339s-0.077 0.25-0.166 0.448c-0.090 0.198-0.211 0.48-0.262 0.621-0.147 0.384-0.486 1.062-0.518 1.030-0.013-0.019 0.077-0.25 0.205-0.518s0.23-0.512 0.23-0.531c0-0.064 0.518-1.376 0.57-1.453 0.026-0.032 0.16-0.346 0.294-0.691 0.134-0.339 0.275-0.621 0.307-0.621s0.045 0.038 0.026 0.077zM14.099 14.266c-0.019 0.070-0.077 0.141-0.134 0.166-0.109 0.038-0.218-0.083-0.16-0.179 0.019-0.032 0.058-0.026 0.083 0.013 0.032 0.058 0.064 0.051 0.128-0.026 0.102-0.128 0.122-0.122 0.083 0.026zM14.336 14.272c0 0.032-0.026 0.064-0.064 0.064-0.032 0-0.064-0.032-0.064-0.064 0-0.038 0.032-0.064 0.064-0.064 0.038 0 0.064 0.026 0.064 0.064zM13.76 14.522c-0.006 0.083-0.019 0.083-0.096-0.019-0.090-0.122-0.096-0.122-0.096 0.045 0 0.115-0.032 0.173-0.102 0.173s-0.090-0.038-0.051-0.147c0.070-0.237 0.16-0.314 0.256-0.23 0.051 0.038 0.090 0.122 0.090 0.179zM13.030 14.784c-0.013 0.211-0.122 0.294-0.154 0.115-0.019-0.083 0.090-0.288 0.154-0.307 0.006 0 0.006 0.090 0 0.192zM13.28 14.784c-0.032 0.051-0.070 0.051-0.109 0.013s-0.045-0.102-0.019-0.141c0.032-0.051 0.070-0.051 0.109-0.013s0.045 0.102 0.019 0.141zM12.128 15.232c0.019 0.032 0.006 0.064-0.026 0.064-0.038 0-0.070-0.032-0.070-0.064 0-0.038 0.013-0.064 0.026-0.064 0.019 0 0.051 0.026 0.070 0.064zM11.904 15.296c0 0.032-0.013 0.064-0.026 0.064-0.019 0-0.051-0.032-0.070-0.064-0.019-0.038-0.006-0.064 0.026-0.064 0.038 0 0.070 0.026 0.070 0.064zM11.584 15.392c0.064 0.077 0.064 0.096-0.026 0.096-0.058 0-0.102-0.045-0.102-0.096s0.013-0.096 0.026-0.096c0.013 0 0.058 0.045 0.102 0.096zM13.434 17.984c0.006 0.083 0 0.083-0.058 0-0.032-0.051-0.058-0.154-0.058-0.224v-0.128l0.058 0.128c0.032 0.070 0.058 0.173 0.058 0.224zM13.248 18.003c0 0.115-0.013 0.122-0.064 0.045-0.083-0.128-0.083-0.275 0-0.224 0.038 0.019 0.064 0.102 0.064 0.179zM12.339 18.24v0.16l-0.051-0.16c-0.026-0.090-0.051-0.218-0.051-0.288l-0.006-0.128 0.058 0.128c0.032 0.070 0.051 0.198 0.051 0.288zM12.544 18.221c-0.006 0.154-0.013 0.166-0.070 0.064-0.032-0.058-0.045-0.141-0.026-0.173 0.064-0.109 0.096-0.070 0.096 0.109zM10.816 18.24c0 0.032-0.026 0.064-0.064 0.064-0.032 0-0.064-0.032-0.064-0.064 0-0.038 0.032-0.064 0.064-0.064 0.038 0 0.064 0.026 0.064 0.064zM8.858 18.342c0.115 0.115 0.115 0.109 0.064 0.25-0.032 0.083-0.064 0.064-0.16-0.096-0.070-0.109-0.122-0.211-0.122-0.224 0-0.064 0.122-0.026 0.218 0.070zM10.95 18.957c0.122 0.48 0.154 0.678 0.083 0.614-0.045-0.045-0.282-0.941-0.282-1.069 0-0.186 0.077-0.006 0.198 0.454zM13.056 18.682c0 0.038-0.026 0.083-0.064 0.102-0.032 0.019-0.064-0.006-0.064-0.058 0-0.058 0.032-0.102 0.064-0.102 0.038 0 0.064 0.026 0.064 0.058zM8.8 18.867c-0.051 0.051-0.16-0.064-0.122-0.128 0.026-0.038 0.058-0.032 0.096 0.019 0.026 0.045 0.038 0.096 0.026 0.109zM12.538 19.027c0.006 0.032-0.019 0.032-0.058 0.013-0.032-0.019-0.064-0.102-0.058-0.179 0-0.134 0.006-0.134 0.058-0.013 0.032 0.070 0.058 0.154 0.058 0.179zM12.288 19.014c0 0.070-0.026 0.109-0.064 0.090-0.032-0.019-0.064-0.083-0.064-0.134s0.032-0.090 0.064-0.090c0.038 0 0.064 0.058 0.064 0.134zM18.899 19.59c-1.536 1.472-2.246 2.227-2.214 2.362 0.019 0.070 0 0.134-0.038 0.134-0.038 0.006-0.096 0.013-0.134 0.019-0.032 0-0.205 0.16-0.378 0.339-0.179 0.186-0.352 0.339-0.39 0.339s-0.058 0.019-0.045 0.045c0.019 0.032 0.006 0.115-0.026 0.198-0.038 0.109-0.096 0.141-0.198 0.128-0.205-0.026-0.224-0.237-0.045-0.378 0.147-0.109 0.147-0.115 0.032-0.243-0.122-0.134-0.122-0.141 0.256-0.506 0.371-0.358 1.248-1.088 2.035-1.69 0.211-0.166 0.691-0.544 1.062-0.845 0.371-0.294 0.678-0.531 0.691-0.518 0.013 0.006-0.262 0.288-0.608 0.614zM12.019 19.738c0.019 0.077-0.006 0.109-0.064 0.090-0.045-0.019-0.096-0.083-0.102-0.141-0.019-0.077 0.006-0.109 0.064-0.090 0.045 0.019 0.096 0.083 0.102 0.141zM11.219 20.096c0.026 0.134 0.019 0.186-0.013 0.128-0.026-0.051-0.070-0.198-0.090-0.32-0.026-0.134-0.019-0.186 0.013-0.128 0.026 0.051 0.070 0.198 0.090 0.32zM18.912 19.898c-0.019 0.038-0.070 0.070-0.102 0.070s-0.026-0.038 0.019-0.090c0.090-0.102 0.154-0.083 0.083 0.019zM12.749 20.237c-0.058 0.058-0.077 0.045-0.077-0.077s0.019-0.134 0.077-0.077c0.058 0.058 0.058 0.096 0 0.154zM6.272 20.192c0.070 0.083 0.051 0.096-0.122 0.096-0.192 0-0.25-0.058-0.154-0.147 0.070-0.070 0.192-0.051 0.275 0.051zM9.965 20.557c-0.019 0.045-0.032 0.013-0.032-0.077s0.013-0.122 0.032-0.083c0.013 0.045 0.013 0.122 0 0.16zM11.392 20.768c0 0.032-0.032 0.019-0.064-0.032s-0.064-0.128-0.064-0.16c0-0.038 0.032-0.019 0.064 0.032s0.064 0.122 0.064 0.16zM7.674 20.678c0.352 0.122 0.41 0.614 0.070 0.525-0.102-0.026-0.128 0-0.128 0.122 0 0.198-0.237 0.333-0.506 0.294-0.134-0.019-0.198 0-0.198 0.058 0 0.045-0.058 0.083-0.134 0.083-0.083 0-0.115 0.026-0.083 0.077 0.026 0.038-0.006 0.109-0.070 0.154-0.096 0.070-0.141 0.064-0.314-0.051-0.109-0.077-0.243-0.192-0.301-0.256s-0.122-0.115-0.147-0.115c-0.083 0-0.032 0.134 0.179 0.467 0.173 0.262 0.307 0.39 0.621 0.55 0.39 0.211 0.41 0.198 0.166-0.134-0.179-0.243-0.096-0.32 0.333-0.301s0.518-0.019 0.518-0.237c0-0.096 0.045-0.173 0.115-0.192 0.058-0.019 0.173-0.070 0.256-0.109 0.115-0.058 0.186-0.045 0.32 0.032 0.096 0.058 0.186 0.154 0.192 0.218 0.019 0.070 0 0.090-0.058 0.058-0.058-0.038-0.064-0.019-0.032 0.064 0.083 0.218 0.122 0.672 0.058 0.672-0.032 0-0.096-0.038-0.141-0.083-0.070-0.064-0.077-0.032-0.045 0.186 0.045 0.314 0.019 0.352-0.211 0.282-0.211-0.058-0.301-0.019-0.339 0.16-0.032 0.166-0.301 0.154-0.563-0.032-0.173-0.122-0.186-0.122-0.147-0.019 0.026 0.064 0.070 0.134 0.102 0.154 0.096 0.070-0.013 0.186-0.166 0.186-0.077-0.006-0.269-0.070-0.429-0.147-0.23-0.115-0.294-0.186-0.333-0.365-0.102-0.429-0.256-0.691-0.525-0.877-0.141-0.109-0.314-0.211-0.378-0.23-0.154-0.058-0.192-0.179-0.115-0.384 0.077-0.198 0.282-0.23 0.493-0.077 0.166 0.109 0.218 0.070 0.218-0.173 0-0.134 0.038-0.198 0.166-0.243 0.23-0.090 0.25-0.083 0.474 0.102 0.224 0.192 0.307 0.173 0.186-0.051-0.186-0.333-0.134-0.365 0.346-0.218 0.269 0.083 0.403 0.045 0.237-0.058-0.070-0.045-0.026-0.16 0.058-0.16 0.026 0 0.147 0.032 0.256 0.070zM9.773 20.813c-0.019 0.051-0.038 0.032-0.038-0.038-0.006-0.070 0.013-0.109 0.032-0.083 0.019 0.019 0.026 0.077 0.006 0.122zM10.426 21.51c0.077 0.083 0.134 0.179 0.134 0.224s0.032 0.090 0.077 0.102c0.038 0.013 0.051 0.064 0.026 0.102-0.026 0.045-0.077 0.064-0.109 0.045-0.096-0.064-0.57-1.126-0.57-1.274 0.006-0.038 0.070 0.096 0.154 0.294 0.090 0.198 0.218 0.429 0.288 0.506zM8.998 20.966c-0.141 0.051-0.288 0.083-0.32 0.064-0.102-0.032 0.218-0.16 0.41-0.16 0.128 0 0.109 0.019-0.090 0.096zM12.096 21.69c-0.064 0.128-0.192 0.186-0.192 0.090 0-0.064 0.211-0.282 0.237-0.25 0.019 0.013 0 0.090-0.045 0.16zM5.12 21.843c0.269 0.23 0.32 0.538 0.109 0.614-0.077 0.032-0.256 0.038-0.397 0.013-0.224-0.038-0.275-0.026-0.422 0.122-0.096 0.096-0.179 0.211-0.198 0.262-0.032 0.102-0.544 0.122-0.992 0.038l-0.269-0.045 0.019 0.224c0.019 0.256 0.051 0.307 0.25 0.333 0.301 0.038 1.293 0.294 1.35 0.346 0.115 0.102-0.416 0.269-0.742 0.23-0.506-0.064-0.851-0.25-0.922-0.499-0.058-0.198-0.090-0.218-0.378-0.256-0.442-0.058-0.845-0.23-0.883-0.384-0.019-0.083 0-0.122 0.070-0.122 0.051 0 0.077-0.019 0.058-0.038-0.058-0.064 0.448-0.41 0.589-0.41 0.070 0 0.198 0.026 0.288 0.058 0.218 0.090 0.32-0.038 0.23-0.282l-0.070-0.179 0.499 0.045c0.275 0.026 0.614 0.058 0.755 0.077l0.256 0.038-0.16-0.128-0.154-0.128 0.25-0.045c0.141-0.019 0.314-0.064 0.384-0.090 0.147-0.064 0.186-0.045 0.48 0.205zM5.901 22.771c0.128 0.122 0.224 0.25 0.205 0.282s0.051 0.134 0.154 0.237c0.294 0.269 0.186 0.365-0.269 0.237-0.512-0.147-0.627-0.282-0.608-0.704 0.013-0.307 0.026-0.339 0.147-0.307 0.077 0.013 0.243 0.134 0.371 0.256zM9.984 22.643c0 0.058-0.378 0.205-0.531 0.205-0.141 0-0.141-0.102 0.006-0.186 0.128-0.077 0.525-0.090 0.525-0.019zM10.086 23.117c-0.038-0.064-0.019-0.083 0.058-0.064 0.211 0.038 0.186 0.179-0.026 0.179-0.141 0-0.198-0.032-0.198-0.102 0-0.090 0.013-0.096 0.109-0.019 0.090 0.070 0.096 0.070 0.058 0.006zM5.267 23.373l0.435 0.198-0.192 0.096c-0.166 0.077-0.256 0.077-0.678-0.013-0.506-0.096-0.672-0.186-0.672-0.326 0-0.211 0.602-0.186 1.107 0.045zM11.968 23.27c0 0.013-0.045 0.026-0.096 0.026s-0.096-0.026-0.096-0.064c0-0.032 0.045-0.045 0.096-0.026 0.051 0.026 0.096 0.051 0.096 0.064zM11.661 23.405c0.090 0.083 0.134 0.090 0.173 0.032 0.070-0.115 0.685 0.134 0.659 0.269-0.013 0.070 0.058 0.141 0.192 0.198 0.211 0.090 0.339 0.205 0.531 0.506 0.064 0.090 0.166 0.166 0.23 0.166 0.128 0 0.39 0.25 0.339 0.326-0.013 0.026 0.019 0.077 0.083 0.115 0.102 0.051 0.096 0.070-0.064 0.141-0.198 0.090-0.198 0.218 0.006 0.218 0.211 0.006 0.192-0.064 0.301 0.928 0.032 0.23 0.064 0.378 0.077 0.333 0.051-0.134 0.115-0.083 0.122 0.096 0 0.102 0.038 0.608 0.083 1.139 0.064 0.838 0.090 1.67 0.077 2.477-0.006 0.128-0.032 0.25-0.064 0.275-0.083 0.045-0.128-0.218-0.147-0.89-0.013-0.454-0.045-0.602-0.141-0.71l-0.122-0.134-0.422 0.429c-0.23 0.23-0.467 0.486-0.518 0.563-0.090 0.128-0.115 0.134-0.275 0.058-0.288-0.134-0.198-0.301 0.339-0.627l0.48-0.294v-0.506c0-0.282-0.026-0.57-0.058-0.64s-0.064-0.141-0.064-0.16c-0.032-0.109-0.186-0.326-0.211-0.294-0.026 0.019 0 0.090 0.051 0.147 0.051 0.064 0.090 0.224 0.083 0.358-0.006 0.205-0.058 0.294-0.275 0.493-0.147 0.141-0.403 0.326-0.57 0.422s-0.397 0.243-0.512 0.326c-0.218 0.166-0.422 0.16-0.358-0.006 0.019-0.051 0.173-0.186 0.333-0.288 0.365-0.23 0.525-0.486 0.525-0.832 0-0.282-0.205-0.576-0.595-0.851l-0.198-0.141 0.109 0.154c0.141 0.198 0.134 0.55-0.006 0.819-0.102 0.186-0.704 0.653-0.851 0.653-0.032 0-0.058 0.032-0.058 0.077 0 0.038-0.019 0.058-0.038 0.032-0.019-0.019 0.026-0.198 0.096-0.397 0.147-0.397 0.173-0.646 0.102-1.011-0.038-0.198-0.032-0.23 0.045-0.205 0.16 0.064 0.333 0.512 0.282 0.749-0.038 0.192-0.032 0.198 0.051 0.083 0.070-0.090 0.096-0.102 0.102-0.038 0 0.16 0.070 0.026 0.134-0.243 0.070-0.314 0.013-0.454-0.422-0.992-0.288-0.346-0.346-0.544-0.173-0.602 0.038-0.013 0.077 0.026 0.077 0.077 0 0.058 0.115 0.25 0.256 0.429s0.256 0.294 0.256 0.256c0-0.032-0.026-0.077-0.058-0.102-0.032-0.019-0.051-0.237-0.045-0.493 0.019-0.518 0.045-0.55 0.806-1.037 0.486-0.307 0.557-0.486 0.294-0.781-0.147-0.173-0.16-0.173-0.166-0.051 0 0.166-0.122 0.275-0.614 0.531-0.211 0.115-0.48 0.288-0.595 0.397-0.218 0.198-0.326 0.198-0.326-0.006 0-0.102 0.333-0.448 0.435-0.448 0.077 0 0.333-0.422 0.333-0.544 0-0.064-0.070-0.205-0.154-0.314-0.141-0.192-0.358-0.576-0.358-0.64 0-0.019 0.045-0.019 0.096 0 0.051 0.026 0.096 0.006 0.096-0.032 0-0.102 0.064-0.090 0.205 0.038zM15.603 23.437c0.013 0.058-0.032 0.122-0.102 0.141-0.070 0.026-0.186 0.192-0.269 0.39-0.16 0.384-0.173 0.39-0.346 0.269-0.096-0.070-0.102-0.109-0.032-0.269 0.045-0.109 0.141-0.25 0.218-0.32s0.154-0.179 0.179-0.243c0.058-0.147 0.32-0.122 0.352 0.032zM9.408 23.744c0.038 0 0.064 0.038 0.064 0.090 0 0.045 0.045 0.122 0.096 0.166 0.064 0.051 0.083 0.134 0.058 0.211-0.019 0.070-0.013 0.141 0.019 0.166 0.090 0.051 0.358 1.197 0.307 1.28-0.026 0.051-0.077 0.051-0.16 0.006-0.096-0.051-0.122-0.038-0.141 0.083-0.013 0.077-0.045 0.141-0.083 0.147-0.032 0-0.115 0.026-0.179 0.051-0.070 0.032-0.173 0.013-0.288-0.064-0.128-0.090-0.294-0.122-0.653-0.128-0.262 0-0.55-0.026-0.64-0.051-0.109-0.032-0.134-0.032-0.070 0.013 0.147 0.102-0.026 0.141-0.211 0.038-0.102-0.045-0.326-0.090-0.512-0.090-0.218 0-0.39-0.045-0.518-0.128-0.102-0.070-0.154-0.128-0.102-0.128 0.070 0 0.070-0.026-0.013-0.115-0.064-0.064-0.090-0.141-0.070-0.16 0.026-0.026 0.006-0.083-0.038-0.141-0.045-0.051-0.090-0.211-0.096-0.352-0.019-0.307 0.038-0.32 0.474-0.096 0.32 0.16 0.454 0.371 0.486 0.742 0.019 0.211 0.077 0.314 0.192 0.314s0.179-0.109 0.115-0.211c-0.026-0.038-0.038-0.141-0.032-0.211 0.026-0.186-0.205-0.608-0.384-0.71-0.083-0.045-0.109-0.077-0.058-0.083 0.070 0 0.070-0.019 0.006-0.096-0.115-0.141 0.090-0.128 0.422 0.026 0.256 0.115 0.73 0.666 0.73 0.845 0.006 0.186 0.237 0.39 0.499 0.442 0.147 0.026 0.269 0.032 0.269 0.019 0-0.147-0.339-0.582-0.73-0.941-0.64-0.576-0.653-0.762-0.045-0.486 0.282 0.128 0.902 0.73 0.902 0.877 0 0.038 0.032 0.096 0.064 0.115 0.038 0.019 0.064 0 0.064-0.051 0-0.102-0.288-0.499-0.614-0.851-0.115-0.122-0.173-0.218-0.128-0.218 0.038 0 0.032-0.026-0.026-0.064-0.147-0.090-0.045-0.134 0.179-0.064 0.154 0.038 0.205 0.038 0.198-0.019-0.026-0.205 0.019-0.301 0.16-0.339 0.090-0.019 0.179-0.083 0.198-0.141 0.038-0.090 0.064-0.064 0.134 0.096 0.051 0.115 0.122 0.211 0.154 0.211zM11.373 23.974c0.019 0.256-0.115 0.518-0.224 0.448-0.038-0.026-0.032-0.147 0.026-0.333 0.045-0.166 0.070-0.326 0.045-0.358-0.019-0.038 0-0.058 0.051-0.038s0.096 0.134 0.102 0.282zM14.355 24.384c-0.038 0.147-0.147 0.166-0.262 0.051s-0.096-0.166 0.070-0.192c0.192-0.032 0.23-0.006 0.192 0.141zM5.798 25.050c0.224 0.224 0.256 0.326 0.16 0.474-0.045 0.070-0.122 0.064-0.429-0.019-0.205-0.064-0.397-0.128-0.422-0.154s0-0.147 0.058-0.282c0.141-0.307 0.339-0.314 0.634-0.019zM17.395 25.421c0.102 0.102 0.096 0.256-0.013 0.41-0.090 0.122-0.096 0.115-0.224-0.032-0.154-0.179-0.154-0.173-0.070-0.333 0.077-0.141 0.192-0.16 0.307-0.045zM14.253 26.253c-0.019 0.051-0.038 0.032-0.038-0.038-0.006-0.070 0.013-0.109 0.032-0.083 0.019 0.019 0.026 0.077 0.006 0.122zM0.512 27.795c0 0.032-0.026 0.032-0.064 0.013-0.032-0.019-0.064-0.090-0.064-0.147 0-0.096 0.013-0.096 0.064-0.013 0.032 0.051 0.064 0.122 0.064 0.147zM0.576 28.179c0 0.115-0.013 0.122-0.064 0.045-0.083-0.128-0.083-0.275 0-0.224 0.038 0.019 0.064 0.102 0.064 0.179zM14.931 28.499c0.013 0.045 0.077 0.352 0.141 0.685 0.058 0.333 0.134 0.685 0.16 0.774 0.058 0.192 0.019 0.282-0.16 0.339-0.096 0.026-0.134 0.006-0.141-0.077 0-0.058-0.019-0.211-0.045-0.333-0.026-0.173-0.109-0.838-0.179-1.402-0.013-0.147 0.166-0.134 0.224 0.013zM0.698 28.582c0.019 0.102 0.006 0.109-0.083 0.032-0.122-0.102-0.134-0.218-0.019-0.186 0.038 0.019 0.090 0.083 0.102 0.154zM1.491 29.005c0.026 0.077 0.013 0.096-0.058 0.070-0.045-0.019-0.090-0.064-0.090-0.109 0-0.038-0.019-0.141-0.038-0.23l-0.038-0.16 0.090 0.16c0.051 0.090 0.109 0.211 0.134 0.269zM1.254 29.024c0.026 0.134 0.019 0.173-0.026 0.128-0.038-0.038-0.090-0.154-0.115-0.256-0.026-0.134-0.019-0.173 0.026-0.128 0.038 0.032 0.090 0.147 0.115 0.256zM0.819 29.018c0.019 0.077-0.006 0.109-0.064 0.090-0.045-0.019-0.096-0.083-0.102-0.141-0.019-0.077 0.006-0.109 0.064-0.090 0.045 0.019 0.096 0.083 0.102 0.141zM0.96 29.446c0 0.154-0.147 0.134-0.179-0.026-0.013-0.064 0.019-0.109 0.077-0.109 0.064 0 0.102 0.058 0.102 0.134zM14.138 30.029c-0.006 0.154 0.013 0.352 0.038 0.448 0.032 0.115 0.019 0.179-0.026 0.179-0.038 0-0.070-0.045-0.070-0.102 0-0.083-0.019-0.090-0.096-0.026-0.128 0.109-0.288 0.032-0.288-0.134 0-0.173 0.314-0.627 0.435-0.634 0.013 0 0.013 0.122 0.006 0.269zM1.024 29.888c-0.128 0.083-0.211 0.083-0.16 0 0.019-0.038 0.090-0.064 0.147-0.064 0.096 0 0.096 0.013 0.013 0.064zM6.522 30.522c-0.090 0.25-0.294 0.256-0.262 0.006 0.006-0.090 0.045-0.173 0.077-0.179 0.038-0.013 0.064-0.070 0.064-0.128 0-0.096 0.013-0.096 0.096-0.006 0.083 0.077 0.083 0.134 0.026 0.307zM11.827 30.477c-0.019 0.045-0.128 0.115-0.25 0.166l-0.218 0.090 0.154-0.166c0.16-0.173 0.358-0.224 0.314-0.090zM15.142 30.605c-0.147 0.083-0.256 0-0.16-0.115 0.058-0.070 0.096-0.077 0.166-0.013 0.077 0.064 0.077 0.083-0.006 0.128zM7.046 30.739c-0.006 0.077-0.096 0.058-0.122-0.026-0.019-0.038 0.006-0.064 0.051-0.051 0.038 0.019 0.070 0.051 0.070 0.077zM24.672 30.848c0.019 0.032 0.006 0.064-0.026 0.064-0.038 0-0.070-0.032-0.070-0.064 0-0.038 0.013-0.064 0.026-0.064 0.019 0 0.051 0.026 0.070 0.064zM13.018 31.213c-0.064 0.045-0.192 0.083-0.288 0.083s-0.23 0.019-0.294 0.038c-0.083 0.032-0.070 0.013 0.032-0.070 0.179-0.134 0.461-0.218 0.582-0.173 0.070 0.026 0.064 0.051-0.032 0.122z"></path>
<path d="M12.832 25.395c-0.173 0.134-0.358 0.314-0.403 0.397-0.109 0.211-0.058 0.589 0.115 0.832l0.147 0.205 0.109-0.32c0.064-0.179 0.205-0.454 0.32-0.614 0.198-0.294 0.25-0.672 0.096-0.723-0.032-0.006-0.205 0.090-0.384 0.224z"></path>
<path d="M13.427 25.715c-0.038 0.134-0.006 0.627 0.051 0.781 0.032 0.077 0.051 0.077 0.128-0.026 0.090-0.128 0.090-0.128 0.090 0 0.006 0.102 0.013 0.102 0.090-0.032 0.102-0.186 0.032-0.467-0.186-0.698-0.134-0.147-0.141-0.147-0.173-0.026z"></path>
<path d="M11.936 26.112c-0.096 0.314 0.070 0.749 0.499 1.274 0.115 0.134 0.243 0.301 0.288 0.365 0.064 0.096 0.077 0.102 0.051 0.013-0.019-0.058 0.013-0.141 0.064-0.179 0.051-0.045 0.090-0.102 0.090-0.128 0-0.032-0.16-0.262-0.358-0.525-0.198-0.256-0.41-0.576-0.474-0.717-0.102-0.224-0.115-0.237-0.16-0.102z"></path>
<path d="M13.267 26.714c0.038 0.237 0.454 1.184 0.557 1.254 0.019 0.019 0.058 0.083 0.083 0.141 0.019 0.064 0.090 0.115 0.147 0.115 0.090 0 0.096-0.083 0.077-0.634-0.019-0.666-0.058-0.774-0.198-0.659-0.051 0.045-0.109 0.058-0.128 0.032-0.026-0.019-0.045 0.058-0.045 0.173v0.211l-0.115-0.154c-0.064-0.083-0.154-0.256-0.205-0.378-0.128-0.346-0.218-0.39-0.173-0.102zM13.786 27.488c0.019 0.051 0.006 0.096-0.026 0.096-0.038 0-0.064-0.045-0.064-0.096s0.013-0.096 0.026-0.096c0.013 0 0.038 0.045 0.064 0.096z"></path>
<path d="M30.528 0.032c0 0.019 0.070 0.147 0.16 0.288s0.16 0.269 0.16 0.288c0 0.026 0.070 0.134 0.16 0.25s0.141 0.23 0.122 0.25c-0.026 0.026 0.006 0.058 0.064 0.083 0.058 0.019 0.102 0.064 0.102 0.102 0 0.032 0.070 0.166 0.16 0.294s0.16 0.269 0.16 0.314c0 0.064 0.256 0.486 0.358 0.589 0.013 0.013 0.026-0.538 0.026-1.229v-1.261h-0.736c-0.403 0-0.736 0.013-0.736 0.032z"></path>
<path d="M11.814 0.928c-0.019 0.058 0 0.096 0.058 0.096s0.077-0.038 0.058-0.096c-0.026-0.051-0.045-0.096-0.058-0.096s-0.032 0.045-0.058 0.096z"></path>
<path d="M15.648 2.061c-0.051 0.115-0.582 1.299-1.184 2.624-0.595 1.331-1.088 2.432-1.088 2.445 0 0.019-0.23 0.557-0.512 1.197s-0.506 1.178-0.493 1.19c0.013 0.013 0.243-0.435 0.506-0.986 0.269-0.557 0.723-1.51 1.018-2.118 0.346-0.723 0.544-1.075 0.582-1.024 0.070 0.122 0.064 0.192-0.026 0.141-0.045-0.026-0.051-0.019-0.026 0.026s0.019 0.077-0.019 0.077c-0.038 0-0.045 0.045-0.026 0.109 0.032 0.070 0.019 0.090-0.038 0.051-0.064-0.038-0.070-0.013-0.038 0.102 0.026 0.109 0.019 0.128-0.019 0.064-0.051-0.070-0.077-0.058-0.115 0.064-0.026 0.083-0.058 0.224-0.058 0.314-0.006 0.090-0.032 0.218-0.058 0.288-0.064 0.192 0.269-0.512 0.506-1.075 0.115-0.269 0.186-0.48 0.154-0.454-0.083 0.051 0.013-0.173 0.416-0.979 0.198-0.39 0.358-0.742 0.358-0.774s0.147-0.294 0.32-0.582c0.179-0.288 0.32-0.557 0.32-0.595 0-0.077-0.25-0.307-0.333-0.307-0.026 0-0.096 0.096-0.147 0.205zM14.214 6.189c-0.077 0.128-0.090 0.090-0.032-0.077 0.026-0.058 0.058-0.090 0.070-0.070 0.019 0.013 0 0.083-0.038 0.147z"></path>
<path d="M8.192 2.944c0 0.032 0.045 0.064 0.096 0.064s0.096-0.032 0.096-0.064c0-0.038-0.045-0.064-0.096-0.064s-0.096 0.026-0.096 0.064z"></path>
<path d="M10.227 3.117c0.045 0.019 0.102 0.013 0.122-0.006 0.026-0.019-0.013-0.038-0.083-0.032-0.070 0-0.090 0.019-0.038 0.038z"></path>
<path d="M10.496 3.136c0 0.032 0.077 0.064 0.179 0.058 0.154 0 0.16-0.006 0.045-0.058-0.173-0.077-0.224-0.077-0.224 0z"></path>
<path d="M11.040 3.2c0.019 0.032 0.083 0.064 0.134 0.064s0.090-0.032 0.090-0.064c0-0.038-0.058-0.064-0.134-0.064-0.070 0-0.109 0.026-0.090 0.064z"></path>
<path d="M11.507 3.245c0.045 0.019 0.102 0.013 0.122-0.006 0.026-0.019-0.013-0.038-0.083-0.032-0.070 0-0.090 0.019-0.038 0.038z"></path>
<path d="M8.883 3.488c0.038 0.205 0.128 0.205 0.115 0 0-0.090-0.038-0.16-0.077-0.16-0.045 0-0.058 0.064-0.038 0.16z"></path>
<path d="M9.408 3.488c0 0.051 0 0.115-0.006 0.141 0 0.026 0.026 0.058 0.058 0.070 0.032 0.006 0.064-0.058 0.064-0.147s-0.026-0.16-0.058-0.16c-0.032 0-0.058 0.045-0.058 0.096z"></path>
<path d="M9.856 3.437c0 0.038-0.019 0.115-0.038 0.173-0.026 0.077 0 0.102 0.096 0.102 0.077 0 0.134-0.026 0.134-0.051 0-0.083-0.186-0.307-0.192-0.224z"></path>
<path d="M8.352 3.52c-0.026 0.038 0.019 0.064 0.090 0.064 0.16 0 0.173-0.038 0.038-0.083-0.051-0.026-0.109-0.013-0.128 0.019z"></path>
<path d="M11.072 3.744c0 0.051 0.032 0.096 0.064 0.096 0.038 0 0.064-0.045 0.064-0.096s-0.026-0.096-0.064-0.096c-0.032 0-0.064 0.045-0.064 0.096z"></path>
<path d="M7.962 4.038c-0.122 0.141-0.122 0.141 0.026 0.051 0.077-0.051 0.141-0.109 0.141-0.134 0-0.077-0.038-0.058-0.166 0.083z"></path>
<path d="M8.704 4.102c0 0.032 0.032 0.045 0.064 0.026 0.038-0.019 0.064-0.051 0.064-0.070 0-0.013-0.026-0.026-0.064-0.026-0.032 0-0.064 0.032-0.064 0.070z"></path>
<path d="M9.536 4.128c-0.090 0.102-0.064 0.115 0.090 0.058 0.058-0.019 0.102-0.064 0.102-0.096 0-0.090-0.102-0.070-0.192 0.038z"></path>
<path d="M10.381 4.173c-0.122 0.122-0.090 0.186 0.051 0.102 0.128-0.083 0.173-0.179 0.077-0.179-0.026 0-0.083 0.032-0.128 0.077z"></path>
<path d="M8.16 4.224c0.019 0.032 0.051 0.064 0.070 0.064 0.013 0 0.026-0.032 0.026-0.064 0-0.038-0.032-0.064-0.070-0.064-0.032 0-0.045 0.026-0.026 0.064z"></path>
<path d="M7.789 4.269c-0.026 0.019-0.045 0.070-0.045 0.109s0.032 0.032 0.077-0.013c0.038-0.038 0.058-0.090 0.045-0.109-0.019-0.019-0.058-0.013-0.077 0.013z"></path>
<path d="M9.728 4.339c0 0.032 0.038 0.102 0.083 0.16 0.070 0.102 0.077 0.096 0.077-0.051 0-0.090-0.038-0.16-0.077-0.16-0.045 0-0.083 0.026-0.083 0.051z"></path>
<path d="M8.87 4.467c-0.013 0.026 0.026 0.058 0.096 0.058 0.070 0.006 0.109-0.013 0.090-0.051-0.045-0.070-0.141-0.077-0.186-0.006z"></path>
<path d="M6.624 4.73c-0.019 0.038 0.064 0.045 0.205 0.026 0.32-0.051 0.352-0.083 0.064-0.083-0.128 0-0.243 0.026-0.269 0.058z"></path>
<path d="M7.264 4.73c-0.019 0.032-0.006 0.077 0.032 0.102 0.032 0.019 0.064-0.006 0.064-0.058 0-0.115-0.038-0.134-0.096-0.045z"></path>
<path d="M8.064 4.864c-0.070 0.045-0.070 0.064-0.013 0.064 0.045 0 0.070 0.026 0.045 0.064-0.019 0.032 0.045 0.019 0.141-0.032 0.211-0.109 0.378-0.122 0.435-0.032 0.064 0.102 0.16 0.077 0.16-0.051 0-0.083-0.013-0.090-0.058-0.019-0.038 0.058-0.070 0.064-0.096 0.013-0.058-0.090-0.48-0.090-0.614-0.006z"></path>
<path d="M14.816 4.87c-0.026 0.038-0.032 0.077-0.013 0.096 0.013 0.019 0.045-0.013 0.064-0.070 0.045-0.109 0.006-0.128-0.051-0.026z"></path>
<path d="M9.402 5.069c-0.070 0.128-0.064 0.134 0.019 0.070 0.051-0.045 0.115-0.064 0.134-0.038 0.026 0.019 0.045-0.006 0.045-0.064 0-0.154-0.109-0.134-0.198 0.032z"></path>
<path d="M10.541 5.107c-0.154 0.166-0.134 0.205 0.051 0.122 0.090-0.045 0.16-0.115 0.16-0.16 0-0.109-0.090-0.096-0.211 0.038z"></path>
<path d="M7.040 5.12c0 0.032 0.032 0.064 0.070 0.064 0.032 0 0.045-0.032 0.026-0.064-0.019-0.038-0.051-0.064-0.070-0.064-0.013 0-0.026 0.026-0.026 0.064z"></path>
<path d="M7.296 5.21c0 0.058 0.032 0.102 0.064 0.102 0.038 0 0.064-0.026 0.064-0.058 0-0.038-0.026-0.083-0.064-0.102-0.032-0.019-0.064 0.006-0.064 0.058z"></path>
<path d="M6.848 5.376c0 0.083 0.128 0.083 0.256 0 0.077-0.051 0.058-0.064-0.077-0.064-0.102 0-0.179 0.026-0.179 0.064z"></path>
<path d="M8.352 5.504l-0.128 0.058h0.128c0.070 0 0.173-0.026 0.224-0.058 0.083-0.058 0.083-0.064 0-0.058-0.051 0-0.154 0.026-0.224 0.058z"></path>
<path d="M10.784 5.696c0.019 0.032 0.134 0.058 0.256 0.045 0.275-0.019 0.218-0.109-0.070-0.109-0.134 0-0.211 0.026-0.186 0.064z"></path>
<path d="M17.498 6.24c-0.147 0.384-0.486 0.544-0.8 0.378-0.109-0.051-0.224-0.077-0.25-0.045-0.026 0.026-0.013 0.211 0.026 0.403 0.077 0.397 0.186 0.461 0.422 0.256 0.077-0.070 0.192-0.128 0.25-0.128s0.173-0.045 0.25-0.102c0.083-0.058 0.198-0.083 0.275-0.058 0.109 0.038 0.122 0.019 0.096-0.141-0.013-0.096-0.032-0.237-0.032-0.314-0.006-0.070-0.045-0.186-0.096-0.256-0.090-0.122-0.096-0.122-0.141 0.006z"></path>
<path d="M6.336 7.232c0 0.032 0.026 0.064 0.058 0.064 0.038 0 0.083-0.032 0.102-0.064 0.019-0.038-0.006-0.064-0.058-0.064-0.058 0-0.102 0.026-0.102 0.064z"></path>
<path d="M7.168 7.296c0 0.032 0.058 0.064 0.128 0.064s0.128-0.032 0.128-0.064c0-0.038-0.058-0.064-0.128-0.064s-0.128 0.026-0.128 0.064z"></path>
<path d="M8.083 7.341c-0.134 0.051-0.096 0.141 0.045 0.102 0.070-0.019 0.128-0.058 0.128-0.090 0-0.064-0.051-0.064-0.173-0.013z"></path>
<path d="M9.088 7.488c0 0.032 0.045 0.064 0.096 0.064s0.096-0.032 0.096-0.064c0-0.038-0.045-0.064-0.096-0.064s-0.096 0.026-0.096 0.064z"></path>
<path d="M8.128 7.68c0 0.032 0.032 0.064 0.064 0.064 0.038 0 0.064-0.032 0.064-0.064 0-0.038-0.026-0.064-0.064-0.064-0.032 0-0.064 0.026-0.064 0.064z"></path>
<path d="M9.152 7.744c0 0.032 0.032 0.064 0.070 0.064 0.032 0 0.045-0.032 0.026-0.064-0.019-0.038-0.051-0.064-0.070-0.064-0.013 0-0.026 0.026-0.026 0.064z"></path>
<path d="M19.136 11.994c0 0.013 0.058 0.038 0.128 0.058s0.115 0.006 0.090-0.026c-0.032-0.058-0.218-0.083-0.218-0.032z"></path>
<path d="M19.072 12.352c0 0.032 0.026 0.064 0.058 0.064 0.038 0 0.083-0.032 0.102-0.064 0.019-0.038-0.006-0.064-0.058-0.064-0.058 0-0.102 0.026-0.102 0.064z"></path>
<path d="M19.827 12.333c0.045 0.019 0.102 0.013 0.122-0.006 0.026-0.019-0.013-0.038-0.083-0.032-0.070 0-0.090 0.019-0.038 0.038z"></path>
<path d="M19.763 12.653c0.045 0.019 0.102 0.013 0.122-0.006 0.026-0.019-0.013-0.038-0.083-0.032-0.070 0-0.090 0.019-0.038 0.038z"></path>
<path d="M20.352 12.653c0 0.032 0.070 0.058 0.16 0.058 0.090 0.006 0.16-0.013 0.16-0.045s-0.070-0.058-0.16-0.058c-0.090 0-0.16 0.019-0.16 0.045z"></path>
<path d="M20.384 12.928c-0.051 0.083 0.096 0.154 0.173 0.077 0.038-0.038 0.026-0.070-0.038-0.096-0.051-0.019-0.115-0.013-0.134 0.019z"></path>
<path d="M21.197 12.986c-0.064 0.038-0.045 0.064 0.077 0.083 0.192 0.038 0.288-0.045 0.128-0.102-0.122-0.045-0.102-0.051-0.205 0.019z"></path>
<path d="M19.968 13.056c0 0.032 0.032 0.064 0.070 0.064 0.032 0 0.045-0.032 0.026-0.064-0.019-0.038-0.051-0.064-0.070-0.064-0.013 0-0.026 0.026-0.026 0.064z"></path>
<path d="M21.184 13.344c0.045 0.051 0.102 0.077 0.134 0.058 0.083-0.051 0.006-0.154-0.115-0.154-0.083 0-0.083 0.019-0.019 0.096z"></path>
<path d="M20.755 13.421c0.058 0.096 0.294 0.147 0.339 0.077 0.019-0.032-0.006-0.058-0.064-0.058-0.051 0-0.141-0.019-0.205-0.045-0.070-0.026-0.096-0.019-0.070 0.026z"></path>
<path d="M16.531 14.086c-0.224 0.147-0.224 0.25 0 0.243 0.077 0 0.102-0.019 0.064-0.038-0.141-0.051-0.090-0.16 0.064-0.128 0.166 0.045 0.333-0.038 0.275-0.141-0.064-0.102-0.173-0.083-0.403 0.064z"></path>
<path d="M17.011 14.189c-0.064 0.013-0.115 0.058-0.115 0.090 0 0.038 0.058 0.045 0.128 0.026 0.147-0.045 0.339 0.077 0.275 0.179-0.026 0.038 0.026 0.051 0.134 0.032 0.090-0.019 0.186-0.006 0.205 0.019 0.058 0.096 0.154 0.064 0.115-0.038-0.026-0.051-0.115-0.096-0.218-0.096-0.122 0-0.186-0.038-0.211-0.128-0.032-0.128-0.096-0.141-0.314-0.083z"></path>
<path d="M16.992 14.464c-0.122 0.051-0.122 0.058 0.019 0.058 0.077 0.006 0.141-0.026 0.141-0.058 0-0.038-0.006-0.064-0.013-0.058-0.013 0-0.077 0.026-0.147 0.058z"></path>
<path d="M31.315 14.579c-0.038 0.026 0.096 0.045 0.301 0.045s0.339-0.019 0.301-0.045c-0.045-0.026-0.179-0.051-0.301-0.051s-0.256 0.026-0.301 0.051z"></path>
<path d="M17.312 14.72c-0.019 0.032 0.019 0.064 0.090 0.064s0.147-0.032 0.166-0.064c0.019-0.038-0.019-0.064-0.090-0.064s-0.147 0.026-0.166 0.064z"></path>
<path d="M17.843 14.707c-0.064 0.013-0.115 0.051-0.115 0.083 0 0.038 0.032 0.045 0.070 0.019 0.096-0.058 0.384 0.102 0.333 0.186-0.026 0.038-0.006 0.045 0.038 0.013 0.083-0.045 0.474 0.122 0.634 0.269 0.128 0.122 0.205 0.102 0.205-0.045 0-0.096-0.045-0.128-0.154-0.128-0.090 0-0.179-0.032-0.198-0.070-0.026-0.038-0.083-0.051-0.134-0.032s-0.090 0.006-0.090-0.026c0-0.090-0.461-0.301-0.589-0.269z"></path>
<path d="M31.046 14.822c0 0.070 0.019 0.090 0.038 0.038 0.019-0.045 0.013-0.102-0.006-0.122-0.019-0.026-0.038 0.013-0.032 0.083z"></path>
<path d="M17.536 14.97c0 0.090 0.179 0.134 0.333 0.077 0.096-0.032 0.115-0.064 0.058-0.096-0.038-0.026-0.115-0.013-0.166 0.026-0.070 0.058-0.096 0.058-0.096 0.006 0-0.038-0.026-0.070-0.064-0.070-0.032 0-0.064 0.026-0.064 0.058z"></path>
<path d="M31.808 15.136c0.090 0.045 0.173 0.070 0.192 0.058 0.038-0.045-0.141-0.154-0.256-0.147-0.058 0-0.032 0.038 0.064 0.090z"></path>
<path d="M18.534 15.277c-0.019 0.026-0.038 0.070-0.038 0.102 0 0.038 0.019 0.045 0.045 0.026 0.019-0.026 0.077-0.013 0.128 0.026 0.109 0.096 0.109 0.013-0.006-0.102-0.045-0.051-0.102-0.070-0.128-0.051z"></path>
<path d="M31.488 15.322c0.090 0.038 0.186 0.096 0.211 0.134 0.038 0.045 0.064 0.038 0.090-0.013 0.051-0.141 0.026-0.166-0.218-0.179-0.224-0.013-0.23-0.006-0.083 0.058z"></path>
<path d="M9.958 16.806c-0.026 0.090-0.032 0.179-0.019 0.198 0.019 0.013 0.051-0.051 0.070-0.147 0.026-0.090 0.032-0.179 0.019-0.198-0.019-0.013-0.051 0.051-0.070 0.147z"></path>
<path d="M29.76 17.075c0 0.032 0.090 0.077 0.192 0.090 0.122 0.019 0.186 0.006 0.173-0.038-0.026-0.090-0.365-0.134-0.365-0.051z"></path>
<path d="M29.792 17.408c0.019 0.032 0.083 0.064 0.134 0.064s0.077-0.032 0.058-0.064c-0.019-0.038-0.083-0.064-0.134-0.064s-0.077 0.026-0.058 0.064z"></path>
<path d="M30.496 17.402c-0.045 0.077-0.051 0.077 0.147 0.096 0.083 0.013 0.134-0.013 0.122-0.051-0.032-0.096-0.218-0.122-0.269-0.045z"></path>
<path d="M29.504 17.6c0 0.083 0.070 0.083 0.192 0 0.077-0.051 0.070-0.064-0.045-0.064-0.083 0-0.147 0.026-0.147 0.064z"></path>
<path d="M30.566 17.722c-0.026 0.032-0.013 0.077 0.019 0.096 0.032 0.026 0.077 0.013 0.096-0.019 0.026-0.032 0.013-0.077-0.019-0.096-0.032-0.026-0.077-0.013-0.096 0.019z"></path>
<path d="M31.213 17.773c-0.090 0.083-0.038 0.128 0.115 0.096 0.090-0.013 0.16-0.051 0.16-0.083 0-0.064-0.218-0.077-0.275-0.013z"></path>
<path d="M30.080 17.856c0 0.032 0.032 0.064 0.064 0.064 0.038 0 0.064-0.032 0.064-0.064 0-0.038-0.026-0.064-0.064-0.064-0.032 0-0.064 0.026-0.064 0.064z"></path>
<path d="M30.336 17.92c-0.083 0.051-0.077 0.064 0.019 0.064 0.058 0 0.109-0.032 0.109-0.064 0-0.077-0.006-0.077-0.128 0z"></path>
<path d="M14.4 18.157c0 0.026 0.128 0.115 0.288 0.192s0.288 0.122 0.288 0.096c0-0.038-0.205-0.16-0.525-0.32-0.032-0.013-0.051 0-0.051 0.032z"></path>
<path d="M16.115 18.285c-0.064 0.013-0.115 0.051-0.115 0.083 0 0.051 0.429-0.026 0.493-0.090 0.045-0.045-0.211-0.038-0.378 0.006z"></path>
<path d="M15.232 18.624c0.051 0.032 0.128 0.064 0.16 0.064 0.038 0 0.019-0.032-0.032-0.064s-0.122-0.064-0.16-0.064c-0.032 0-0.019 0.032 0.032 0.064z"></path>
<path d="M14.304 18.688c-0.026 0.038 0.032 0.064 0.128 0.064s0.154-0.026 0.128-0.064c-0.019-0.038-0.077-0.064-0.128-0.064s-0.109 0.026-0.128 0.064z"></path>
<path d="M14.227 19.021c0.070 0.064 0.16 0.090 0.224 0.064 0.090-0.032 0.077-0.051-0.051-0.064-0.090-0.013-0.192-0.045-0.224-0.064-0.038-0.026-0.019 0.006 0.051 0.064z"></path>
<path d="M14.848 19.136c0.051 0.032 0.128 0.064 0.16 0.064 0.038 0 0.019-0.032-0.032-0.064s-0.122-0.064-0.16-0.064c-0.032 0-0.019 0.032 0.032 0.064z"></path>
<path d="M27.36 19.258c-0.051 0.090 0.064 0.141 0.192 0.096 0.083-0.032 0.090-0.051 0.019-0.096-0.109-0.070-0.166-0.070-0.211 0z"></path>
<path d="M27.136 19.456c0 0.032 0.045 0.064 0.102 0.064 0.051 0 0.077-0.032 0.058-0.064-0.019-0.038-0.064-0.064-0.102-0.064-0.032 0-0.058 0.026-0.058 0.064z"></path>
<path d="M27.968 19.52c0 0.032 0.032 0.064 0.070 0.064 0.032 0 0.045-0.032 0.026-0.064-0.019-0.038-0.051-0.064-0.070-0.064-0.013 0-0.026 0.026-0.026 0.064z"></path>
<path d="M13.76 19.648c0 0.077 0.051 0.077 0.224 0 0.115-0.051 0.109-0.058-0.045-0.058-0.102-0.006-0.179 0.019-0.179 0.058z"></path>
<path d="M28.646 20.192c-0.122 0.090-0.122 0.096 0.045 0.096 0.109 0 0.173-0.032 0.173-0.096 0-0.122-0.058-0.122-0.218 0z"></path>
<path d="M29.056 20.224c0.051 0.032 0.128 0.064 0.16 0.064 0.038 0 0.019-0.032-0.032-0.064s-0.122-0.064-0.16-0.064c-0.032 0-0.019 0.032 0.032 0.064z"></path>
<path d="M16.512 26.464c0 0.083 0.026 0.090 0.147 0.026 0.211-0.109 0.211-0.122 0.026-0.122-0.115 0-0.173 0.032-0.173 0.096z"></path>
<path d="M16.646 27.149c-0.006 0.269 0.026 0.339 0.269 0.608 0.147 0.173 0.346 0.41 0.442 0.531s0.179 0.186 0.179 0.141c0-0.038 0.045-0.077 0.102-0.077 0.211 0-0.013-0.384-0.563-0.973-0.147-0.16-0.307-0.352-0.352-0.416-0.064-0.096-0.077-0.070-0.077 0.186z"></path>
<path d="M17.92 27.334c0.064 0.211 0.173 0.365 0.454 0.634 0.243 0.23 0.506 0.634 0.512 0.794 0.006 0.115 0.013 0.115 0.051-0.026 0.026-0.090 0.083-0.154 0.122-0.147 0.096 0.026 0.096-0.006-0.013-0.256-0.070-0.173-1.056-1.197-1.152-1.197-0.013 0-0.006 0.090 0.026 0.198z"></path>
<path d="M16.55 27.981c0.045 0.333-0.096 0.717-0.448 1.197-0.198 0.262-0.416 0.762-0.422 0.928 0 0.038 0.096-0.026 0.211-0.134 0.109-0.102 0.339-0.282 0.499-0.39 0.448-0.301 0.653-0.57 0.608-0.794-0.019-0.115-0.013-0.173 0.026-0.147 0.198 0.122-0.109-0.57-0.352-0.8l-0.16-0.154 0.038 0.294z"></path>
<path d="M19.245 27.802c0.083 0.141 1.165 1.248 1.126 1.152-0.026-0.064 0-0.077 0.077-0.051 0.224 0.090-0.090-0.378-0.518-0.762-0.294-0.262-0.781-0.506-0.685-0.339z"></path>
<path d="M17.888 27.981c0.333 0.39 0.070 0.928-0.634 1.312-1.19 0.653-1.421 1.267-0.742 1.997 0.179 0.186 0.371 0.422 0.429 0.525 0.077 0.128 0.16 0.186 0.275 0.186 0.147-0.006 0.141-0.026-0.147-0.275-0.301-0.269-0.307-0.275-0.307-0.666-0.006-0.467 0.122-0.742 0.41-0.89 0.109-0.058 0.442-0.262 0.723-0.454 0.864-0.582 0.941-0.998 0.314-1.6-0.384-0.371-0.589-0.461-0.32-0.134z"></path>
<path d="M0.013 28.224c0 0.090 0.013 0.122 0.032 0.077 0.013-0.038 0.013-0.115 0-0.16-0.019-0.038-0.032-0.006-0.032 0.083z"></path>
<path d="M20.787 28.896c0.038 0.365-0.032 0.448-0.717 0.838-0.627 0.358-0.845 0.557-0.941 0.838-0.109 0.339-0.019 0.57 0.416 1.018 0.218 0.224 0.422 0.41 0.454 0.41 0.026 0 0.006-0.051-0.045-0.115-0.358-0.41-0.083-1.293 0.461-1.453 0.282-0.083 0.826-0.422 0.96-0.589 0.237-0.301 0.128-0.653-0.326-1.043-0.122-0.102-0.237-0.186-0.256-0.192-0.026 0-0.026 0.128-0.006 0.288z"></path>
<path d="M22.195 29.299c0.038 0.422-0.077 0.563-0.646 0.813-0.218 0.096-0.493 0.262-0.602 0.371-0.179 0.173-0.211 0.243-0.211 0.506 0 0.506 0.294 1.011 0.589 1.011 0.141 0 0.147-0.019 0.147-0.41 0-0.506 0.102-0.634 0.787-1.011 0.589-0.326 0.627-0.39 0.461-0.864-0.070-0.198-0.128-0.378-0.128-0.384 0-0.013-0.032-0.019-0.064-0.019-0.038 0-0.134-0.077-0.218-0.173l-0.147-0.173 0.032 0.333z"></path>
<path d="M21.83 29.478c0 0.070 0.019 0.090 0.038 0.038 0.019-0.045 0.013-0.102-0.006-0.122-0.019-0.026-0.038 0.013-0.032 0.083z"></path>
<path d="M23.494 29.798c-0.006 0.275-0.154 0.429-0.627 0.666-0.218 0.109-0.454 0.275-0.531 0.365-0.154 0.198-0.166 0.582-0.032 0.851 0.115 0.224 0.083 0.237-0.16 0.064-0.147-0.102-0.192-0.192-0.205-0.403l-0.019-0.269-0.083 0.262c-0.038 0.147-0.058 0.352-0.038 0.467l0.038 0.198 0.442-0.013c0.416-0.013 0.442-0.026 0.442-0.166 0-0.307 0.237-0.634 0.621-0.851 0.531-0.294 0.602-0.365 0.557-0.563-0.019-0.090-0.096-0.218-0.166-0.282-0.109-0.090-0.115-0.128-0.051-0.205s0.064-0.096-0.019-0.096c-0.058 0-0.115-0.051-0.128-0.115-0.019-0.058-0.032-0.019-0.038 0.090z"></path>
<path d="M23.917 29.862c-0.019 0.032 0.006 0.096 0.058 0.141 0.102 0.090 0.115 0.032 0.032-0.109-0.032-0.045-0.070-0.058-0.090-0.032z"></path>
<path d="M17.242 30.496c-0.16 0.243-0.179 0.608-0.045 0.838 0.282 0.493 0.723 0.838 0.723 0.563 0-0.051 0.032-0.077 0.064-0.058 0.122 0.077 0.058-0.064-0.166-0.352-0.416-0.55-0.442-0.595-0.442-0.877 0-0.147-0.006-0.275-0.013-0.275-0.013 0-0.064 0.070-0.122 0.16z"></path>
<path d="M18.771 30.63c-0.179 0.275-0.147 0.71 0.077 1.062 0.115 0.186 0.237 0.307 0.314 0.307 0.070 0 0.102-0.032 0.083-0.083-0.026-0.064 0.013-0.083 0.134-0.058l0.173 0.032-0.128-0.147c-0.070-0.083-0.224-0.25-0.339-0.378-0.25-0.275-0.307-0.454-0.218-0.71 0.083-0.237 0.051-0.243-0.096-0.026z"></path>
<path d="M20.403 30.765c-0.051 0.064-0.141 0.23-0.192 0.371-0.083 0.218-0.090 0.288-0.019 0.448 0.122 0.288 0.307 0.429 0.544 0.403l0.205-0.019-0.198-0.25c-0.211-0.262-0.294-0.563-0.25-0.87 0.032-0.224 0.032-0.224-0.090-0.083z"></path>
<path d="M23.162 31.43c-0.038 0.083-0.090 0.243-0.102 0.358-0.026 0.192-0.013 0.211 0.134 0.211 0.154 0 0.16-0.006 0.122-0.339-0.045-0.403-0.051-0.416-0.154-0.23z"></path>
</svg>
