<!-- Generated by IcoMoon.io -->
<svg version="1.1" xmlns="http://www.w3.org/2000/svg" width="43" height="32" viewBox="0 0 43 32">
<title>XCD</title>
<path fill="#108c00" d="M-10.872 0h64.39v32.085h-64.39z"></path>
<path fill="#ffd600" d="M-10.98 11.165h64.71v3.143h-64.71z"></path>
<path fill="#ffd600" d="M16.661 0h3.035v32.085h-3.035z"></path>
<path fill="#000" d="M19.588 0h3.035v32.085h-3.035z"></path>
<path fill="#000" d="M-10.98 14.2h64.71v3.144h-64.71z"></path>
<path fill="#fff" d="M-10.98 17.344h64.71v3.143h-64.71z"></path>
<path fill="#fff" d="M22.623 0h3.035v32.085h-3.035z"></path>
<path fill="#e72910" d="M21.422 24.683h0.080c-4.759 0-8.617-3.858-8.617-8.617v-0.001c0-4.759 3.858-8.617 8.617-8.617h-0.080c4.759 0 8.617 3.858 8.617 8.617v0.001c0 4.759-3.858 8.617-8.617 8.617z"></path>
<path fill="#000" d="M21.012 8.58c0-0.016 0.352-1.002 0.352-1.002l0.319 0.986s1.070 0.032 1.070 0.016-0.847 0.647-0.847 0.647 0.399 1.132 0.383 1.1c-0.016-0.032-0.927-0.679-0.927-0.679s-0.927 0.647-0.911 0.647 0.351-1.067 0.351-1.067l-0.831-0.631 1.038-0.016z"></path>
<path fill="#ffe700" d="M21.060 8.63c0-0.014 0.304-0.868 0.304-0.868l0.277 0.854s0.927 0.028 0.927 0.014-0.733 0.56-0.733 0.56 0.346 0.98 0.332 0.952c-0.014-0.028-0.803-0.588-0.803-0.588s-0.802 0.56-0.789 0.56 0.304-0.924 0.304-0.924l-0.719-0.546 0.899-0.014z"></path>
<path fill="#108c00" d="M21.189 8.773c0-0.008 0.175-0.501 0.175-0.501l0.16 0.493s0.535 0.016 0.535 0.008-0.423 0.323-0.423 0.323 0.199 0.565 0.191 0.549c-0.008-0.016-0.463-0.339-0.463-0.339s-0.463 0.323-0.455 0.323 0.175-0.533 0.175-0.533l-0.415-0.315 0.519-0.008z"></path>
<path fill="#000" d="M27.677 13.273c0-0.016 0.351-1.002 0.351-1.002l0.32 0.986s1.070 0.032 1.070 0.016-0.847 0.647-0.847 0.647 0.399 1.132 0.384 1.1c-0.016-0.032-0.927-0.679-0.927-0.679s-0.927 0.647-0.911 0.647 0.351-1.067 0.351-1.067l-0.831-0.631 1.038-0.016z"></path>
<path fill="#ffe700" d="M27.725 13.323c0-0.014 0.304-0.868 0.304-0.868l0.277 0.854s0.927 0.028 0.927 0.014-0.733 0.56-0.733 0.56 0.346 0.98 0.332 0.952c-0.014-0.028-0.803-0.588-0.803-0.588s-0.802 0.56-0.789 0.56 0.304-0.924 0.304-0.924l-0.719-0.546 0.899-0.014z"></path>
<path fill="#108c00" d="M27.854 13.465c0-0.008 0.175-0.501 0.175-0.501l0.16 0.493s0.535 0.016 0.535 0.008-0.423 0.323-0.423 0.323 0.199 0.565 0.191 0.549c-0.008-0.016-0.463-0.339-0.463-0.339s-0.463 0.323-0.455 0.323 0.175-0.533 0.175-0.533l-0.415-0.315 0.519-0.008z"></path>
<path fill="#000" d="M25.735 20.721c0-0.016 0.351-1.002 0.351-1.002l0.32 0.986s1.070 0.032 1.070 0.016-0.847 0.647-0.847 0.647 0.399 1.132 0.384 1.1c-0.016-0.032-0.927-0.679-0.927-0.679s-0.927 0.647-0.911 0.647 0.351-1.067 0.351-1.067l-0.831-0.631 1.038-0.016z"></path>
<path fill="#ffe700" d="M25.783 20.771c0-0.014 0.304-0.868 0.304-0.868l0.277 0.854s0.927 0.028 0.927 0.014-0.733 0.56-0.733 0.56 0.346 0.98 0.332 0.952c-0.014-0.028-0.803-0.588-0.803-0.588s-0.802 0.56-0.789 0.56 0.304-0.924 0.304-0.924l-0.719-0.546 0.899-0.014z"></path>
<path fill="#108c00" d="M25.911 20.913c0-0.008 0.175-0.501 0.175-0.501l0.16 0.493s0.535 0.016 0.535 0.008-0.423 0.323-0.423 0.323 0.199 0.565 0.191 0.549c-0.008-0.016-0.463-0.339-0.463-0.339s-0.463 0.323-0.455 0.323 0.175-0.533 0.175-0.533l-0.415-0.315 0.519-0.008z"></path>
<path fill="#000" d="M16.416 20.721c0-0.016 0.351-1.002 0.351-1.002l0.32 0.986s1.070 0.032 1.070 0.016-0.847 0.647-0.847 0.647 0.399 1.132 0.384 1.1c-0.016-0.032-0.927-0.679-0.927-0.679s-0.927 0.647-0.911 0.647 0.351-1.067 0.351-1.067l-0.831-0.631 1.038-0.016z"></path>
<path fill="#ffe700" d="M16.464 20.771c0-0.014 0.304-0.868 0.304-0.868l0.277 0.854s0.927 0.028 0.927 0.014-0.733 0.56-0.733 0.56 0.346 0.98 0.332 0.952c-0.014-0.028-0.803-0.588-0.803-0.588s-0.803 0.56-0.789 0.56 0.304-0.924 0.304-0.924l-0.72-0.546 0.899-0.014z"></path>
<path fill="#108c00" d="M16.592 20.913c0-0.008 0.175-0.501 0.175-0.501l0.16 0.493s0.535 0.016 0.535 0.008-0.423 0.323-0.423 0.323 0.199 0.565 0.191 0.549c-0.008-0.016-0.463-0.339-0.463-0.339s-0.463 0.323-0.455 0.323 0.175-0.533 0.175-0.533l-0.415-0.315 0.518-0.008z"></path>
<path fill="#000" d="M14.714 13.081c0-0.016 0.351-1.002 0.351-1.002l0.32 0.986s1.070 0.032 1.070 0.016-0.847 0.647-0.847 0.647 0.399 1.132 0.384 1.1c-0.016-0.032-0.927-0.679-0.927-0.679s-0.927 0.647-0.911 0.647 0.351-1.067 0.351-1.067l-0.831-0.631 1.038-0.016z"></path>
<path fill="#ffe700" d="M14.762 13.131c0-0.014 0.304-0.868 0.304-0.868l0.277 0.854s0.927 0.028 0.927 0.014-0.733 0.56-0.733 0.56 0.346 0.98 0.332 0.952c-0.014-0.028-0.803-0.588-0.803-0.588s-0.803 0.56-0.789 0.56 0.304-0.924 0.304-0.924l-0.719-0.546 0.899-0.014z"></path>
<path fill="#108c00" d="M14.89 13.273c0-0.008 0.175-0.501 0.175-0.501l0.16 0.493s0.535 0.016 0.535 0.008-0.423 0.323-0.423 0.323 0.199 0.565 0.191 0.549c-0.008-0.016-0.463-0.339-0.463-0.339s-0.463 0.323-0.455 0.323 0.175-0.533 0.175-0.533l-0.415-0.315 0.519-0.008z"></path>
<path fill="#000" d="M25.656 10.913c0 0.016-0.351 1.002-0.351 1.002l-0.32-0.986s-1.070-0.032-1.070-0.016 0.847-0.647 0.847-0.647-0.399-1.132-0.384-1.1c0.016 0.032 0.927 0.679 0.927 0.679s0.927-0.647 0.911-0.647-0.351 1.067-0.351 1.067l0.831 0.631-1.038 0.016z"></path>
<path fill="#ffe700" d="M25.608 10.863c0 0.014-0.304 0.868-0.304 0.868l-0.277-0.854s-0.927-0.028-0.927-0.014 0.733-0.56 0.733-0.56-0.346-0.98-0.332-0.952c0.014 0.028 0.803 0.588 0.803 0.588s0.802-0.56 0.789-0.56-0.304 0.924-0.304 0.924l0.719 0.546-0.899 0.014z"></path>
<path fill="#108c00" d="M25.479 10.721c0 0.008-0.175 0.501-0.175 0.501l-0.16-0.493s-0.535-0.016-0.535-0.008 0.423-0.323 0.423-0.323-0.199-0.565-0.191-0.549c0.008 0.016 0.463 0.339 0.463 0.339s0.463-0.323 0.455-0.323-0.175 0.533-0.175 0.533l0.415 0.315-0.519 0.008z"></path>
<path fill="#000" d="M28.332 18.191c0 0.016-0.351 1.002-0.351 1.002l-0.32-0.986s-1.070-0.032-1.070-0.016 0.847-0.647 0.847-0.647-0.399-1.132-0.384-1.1c0.016 0.032 0.927 0.679 0.927 0.679s0.927-0.647 0.911-0.647-0.351 1.067-0.351 1.067l0.831 0.631-1.038 0.016z"></path>
<path fill="#ffe700" d="M28.284 18.141c0 0.014-0.304 0.868-0.304 0.868l-0.277-0.854s-0.927-0.028-0.927-0.014 0.733-0.56 0.733-0.56-0.346-0.98-0.332-0.952c0.014 0.028 0.803 0.588 0.803 0.588s0.802-0.56 0.789-0.56-0.304 0.924-0.304 0.924l0.719 0.546-0.899 0.014z"></path>
<path fill="#108c00" d="M28.155 17.999c0 0.008-0.175 0.501-0.175 0.501l-0.16-0.493s-0.535-0.016-0.535-0.008 0.423-0.323 0.423-0.323-0.199-0.565-0.191-0.549c0.008 0.016 0.463 0.339 0.463 0.339s0.463-0.323 0.455-0.323-0.175 0.533-0.175 0.533l0.415 0.315-0.519 0.008z"></path>
<path fill="#000" d="M21.696 23.516c0 0.016-0.351 1.002-0.351 1.002l-0.32-0.986s-1.070-0.032-1.070-0.016 0.847-0.647 0.847-0.647-0.399-1.132-0.384-1.1c0.016 0.032 0.927 0.679 0.927 0.679s0.927-0.647 0.911-0.647-0.351 1.067-0.351 1.067l0.831 0.631-1.038 0.016z"></path>
<path fill="#ffe700" d="M21.648 23.466c0 0.014-0.304 0.868-0.304 0.868l-0.277-0.854s-0.927-0.028-0.927-0.014 0.733-0.56 0.733-0.56-0.346-0.98-0.332-0.952c0.014 0.028 0.803 0.588 0.803 0.588s0.802-0.56 0.789-0.56-0.304 0.924-0.304 0.924l0.719 0.546-0.899 0.014z"></path>
<path fill="#108c00" d="M21.519 23.323c0 0.008-0.175 0.501-0.175 0.501l-0.16-0.493s-0.535-0.016-0.535-0.008 0.423-0.323 0.423-0.323-0.199-0.565-0.191-0.549c0.008 0.016 0.463 0.339 0.463 0.339s0.463-0.323 0.455-0.323-0.175 0.533-0.175 0.533l0.415 0.315-0.519 0.008z"></path>
<path fill="#000" d="M15.461 18.191c0 0.016-0.351 1.002-0.351 1.002l-0.32-0.986s-1.070-0.032-1.070-0.016 0.847-0.647 0.847-0.647-0.399-1.132-0.384-1.1c0.016 0.032 0.927 0.679 0.927 0.679s0.927-0.647 0.911-0.647-0.351 1.067-0.351 1.067l0.831 0.631-1.038 0.016z"></path>
<path fill="#ffe700" d="M15.413 18.141c0 0.014-0.304 0.868-0.304 0.868l-0.277-0.854s-0.927-0.028-0.927-0.014 0.733-0.56 0.733-0.56-0.346-0.98-0.332-0.952c0.014 0.028 0.803 0.588 0.803 0.588s0.803-0.56 0.789-0.56-0.304 0.924-0.304 0.924l0.719 0.546-0.899 0.014z"></path>
<path fill="#108c00" d="M15.285 17.999c0 0.008-0.175 0.501-0.175 0.501l-0.16-0.493s-0.535-0.016-0.535-0.008 0.423-0.323 0.423-0.323-0.199-0.565-0.191-0.549c0.008 0.016 0.463 0.339 0.463 0.339s0.463-0.323 0.455-0.323-0.175 0.533-0.175 0.533l0.415 0.315-0.519 0.008z"></path>
<path fill="#000" d="M17.762 11.020c0 0.016-0.351 1.002-0.351 1.002l-0.32-0.986s-1.070-0.032-1.070-0.016 0.847-0.647 0.847-0.647-0.399-1.132-0.384-1.1c0.016 0.032 0.927 0.679 0.927 0.679s0.927-0.647 0.911-0.647-0.351 1.067-0.351 1.067l0.831 0.631-1.038 0.016z"></path>
<path fill="#ffe700" d="M17.715 10.97c0 0.014-0.304 0.868-0.304 0.868l-0.277-0.854s-0.927-0.028-0.927-0.014 0.733-0.56 0.733-0.56-0.346-0.98-0.332-0.952c0.014 0.028 0.803 0.588 0.803 0.588s0.802-0.56 0.789-0.56-0.304 0.924-0.304 0.924l0.719 0.546-0.899 0.014z"></path>
<path fill="#108c00" d="M17.586 10.828c0 0.008-0.175 0.501-0.175 0.501l-0.16-0.493s-0.535-0.016-0.535-0.008 0.423-0.323 0.423-0.323-0.199-0.565-0.191-0.549c0.008 0.016 0.463 0.339 0.463 0.339s0.463-0.323 0.455-0.323-0.175 0.533-0.175 0.533l0.415 0.315-0.519 0.008z"></path>
<path fill="#009200" d="M22.432 17.84c0 1.23-0.201 2.252-0.45 2.283s-0.45-0.941-0.45-2.171c0-1.23 0.201-2.252 0.45-2.283s0.45 0.941 0.45 2.171z"></path>
<path fill="#009200" d="M23.038 17.803c0 1.23-0.216 2.254-0.482 2.287s-0.482-0.937-0.482-2.167c0-1.23 0.216-2.254 0.482-2.287s0.482 0.937 0.482 2.167z"></path>
<path fill="#009200" d="M22.715 17.91c0 1.353-0.173 2.471-0.385 2.498s-0.385-1.049-0.385-2.401c0-1.353 0.173-2.471 0.385-2.498s0.385 1.048 0.385 2.401z"></path>
<path fill="#a95600" stroke="#000" stroke-linejoin="miter" stroke-linecap="butt" stroke-miterlimit="4" stroke-width="0.0667" d="M19.679 18.435c0.391-0.022 0.217-0.217 0.412-0.326s0.478-0.043 0.564 0.087 0.022 0.26 0.13 0.26 3.057-0.165 3.166-0.057c0.108 0.108 0.13 0.326 0.022 0.412s-3.839 0.187-3.969 0.1-0.326-0.456-0.326-0.477z"></path>
<path fill="#ff0" stroke="#000" stroke-linejoin="miter" stroke-linecap="butt" stroke-miterlimit="4" stroke-width="0.2569" d="M21.721 19.204c0 0.261 0.445 0.182 0.458 0.399-0.007 0.231-0.75 0.023-0.769-0.399 0.019-0.422 0.734-0.638 0.75-0.398 0.012 0.2-0.439 0.137-0.439 0.398z"></path>
<path fill="#ff0" stroke="#000" stroke-linejoin="miter" stroke-linecap="butt" stroke-miterlimit="4" stroke-width="0.2569" d="M21.982 19.207c0 0.261 0.445 0.182 0.458 0.399-0.007 0.231-0.75 0.023-0.769-0.399 0.019-0.422 0.734-0.638 0.75-0.398 0.012 0.2-0.439 0.137-0.439 0.398z"></path>
<path fill="#ff0" stroke="#000" stroke-linejoin="miter" stroke-linecap="butt" stroke-miterlimit="4" stroke-width="0.2569" d="M22.261 19.197c0 0.261 0.445 0.182 0.458 0.399-0.007 0.231-0.75 0.023-0.769-0.399 0.019-0.422 0.734-0.638 0.75-0.398 0.012 0.2-0.439 0.137-0.439 0.398z"></path>
<path fill="#ff0" stroke="#000" stroke-linejoin="miter" stroke-linecap="butt" stroke-miterlimit="4" stroke-width="0.2569" d="M22.522 19.2c0 0.261 0.445 0.182 0.458 0.399-0.007 0.231-0.75 0.023-0.769-0.399 0.019-0.422 0.734-0.638 0.75-0.398 0.012 0.2-0.439 0.137-0.439 0.398z"></path>
<path fill="#a95600" stroke="#000" stroke-linejoin="miter" stroke-linecap="butt" stroke-miterlimit="4" stroke-width="0.0667" d="M24.035 19.739c-0.002 0.141-0.118 0.253-0.258 0.25s-0.251-0.119-0.249-0.26c0.002-0.141 0.118-0.253 0.258-0.25s0.251 0.119 0.249 0.26z"></path>
<path fill="#009200" stroke="#000" stroke-linejoin="miter" stroke-linecap="butt" stroke-miterlimit="4" stroke-width="0.1667" d="M22.397 19.241c0.028 0.277-0.052 0.511-0.179 0.524s-0.252-0.201-0.28-0.478c-0.028-0.277 0.052-0.511 0.179-0.524s0.252 0.201 0.28 0.478z"></path>
<path fill="#009200" stroke="#000" stroke-linejoin="miter" stroke-linecap="butt" stroke-miterlimit="4" stroke-width="0.1667" d="M22.017 19.21c0.028 0.277-0.052 0.511-0.179 0.524s-0.252-0.201-0.28-0.478c-0.028-0.277 0.052-0.511 0.179-0.524s0.252 0.201 0.28 0.478z"></path>
<path fill="#009200" stroke="#000" stroke-linejoin="miter" stroke-linecap="butt" stroke-miterlimit="4" stroke-width="0.1667" d="M21.745 18.724c0.028 0.277-0.052 0.511-0.179 0.524s-0.252-0.201-0.28-0.478c-0.028-0.277 0.052-0.511 0.179-0.524s0.252 0.201 0.28 0.478z"></path>
<path fill="#009200" stroke="#000" stroke-linejoin="miter" stroke-linecap="butt" stroke-miterlimit="4" stroke-width="0.1667" d="M22.005 18.589c0.031 0.303-0.041 0.558-0.16 0.57s-0.241-0.223-0.272-0.526c-0.031-0.303 0.041-0.558 0.16-0.57s0.241 0.223 0.272 0.526z"></path>
<path fill="#009200" stroke="#000" stroke-linejoin="miter" stroke-linecap="butt" stroke-miterlimit="4" stroke-width="0.1667" d="M22.545 18.677c0.029 0.285-0.044 0.526-0.163 0.539s-0.239-0.209-0.268-0.495c-0.029-0.285 0.044-0.526 0.163-0.539s0.239 0.209 0.268 0.495z"></path>
<path fill="#009200" stroke="#000" stroke-linejoin="miter" stroke-linecap="butt" stroke-miterlimit="4" stroke-width="0.1667" d="M22.253 18.501c0.029 0.285-0.044 0.526-0.163 0.539s-0.239-0.209-0.268-0.495c-0.029-0.285 0.044-0.526 0.163-0.539s0.239 0.209 0.268 0.495z"></path>
<path fill="#009200" stroke="#000" stroke-linejoin="miter" stroke-linecap="butt" stroke-miterlimit="4" stroke-width="0.1667" d="M21.884 18.247c0.029 0.285-0.044 0.526-0.163 0.539s-0.239-0.209-0.268-0.495c-0.029-0.285 0.044-0.526 0.163-0.539s0.239 0.209 0.268 0.495z"></path>
<path fill="#009200" stroke="#000" stroke-linejoin="miter" stroke-linecap="butt" stroke-miterlimit="4" stroke-width="0.1667" d="M21.542 18.093c0.029 0.285-0.044 0.526-0.163 0.539s-0.239-0.209-0.268-0.495c-0.029-0.285 0.044-0.526 0.163-0.539s0.239 0.209 0.268 0.495z"></path>
<path fill="#804bff" d="M21.060 13.33s-0.763 0.655-0.658 2.408c0.116 1.763 1.728 2.576 1.728 2.576s0.404-0.505 0.341-1.921c-0.137-2.071-0.904-2.979-0.904-2.979l-0.508-0.085z"></path>
<path fill="#009200" stroke="#000" stroke-linejoin="miter" stroke-linecap="butt" stroke-miterlimit="4" stroke-width="0.1667" d="M22.897 19.341c-0.022 0.277-0.142 0.494-0.269 0.484s-0.212-0.243-0.191-0.52c0.022-0.277 0.142-0.494 0.269-0.484s0.212 0.243 0.191 0.52z"></path>
<path fill="#009200" stroke="#000" stroke-linejoin="miter" stroke-linecap="butt" stroke-miterlimit="4" stroke-width="0.1667" d="M22.528 19.244c-0.022 0.277-0.142 0.494-0.269 0.484s-0.212-0.243-0.191-0.52c0.022-0.277 0.142-0.494 0.269-0.484s0.212 0.243 0.191 0.52z"></path>
<path fill="#009200" stroke="#000" stroke-linejoin="miter" stroke-linecap="butt" stroke-miterlimit="4" stroke-width="0.1667" d="M22.347 18.717c-0.022 0.277-0.142 0.494-0.269 0.484s-0.212-0.243-0.191-0.52c0.022-0.277 0.142-0.494 0.269-0.484s0.212 0.243 0.191 0.52z"></path>
<path fill="#009200" stroke="#000" stroke-linejoin="miter" stroke-linecap="butt" stroke-miterlimit="4" stroke-width="0.1667" d="M22.627 18.631c-0.024 0.303-0.14 0.541-0.259 0.532s-0.197-0.263-0.173-0.566c0.024-0.303 0.14-0.541 0.259-0.532s0.197 0.263 0.173 0.566z"></path>
<path fill="#009200" stroke="#000" stroke-linejoin="miter" stroke-linecap="butt" stroke-miterlimit="4" stroke-width="0.1667" d="M23.143 18.813c-0.022 0.286-0.137 0.51-0.257 0.501s-0.198-0.249-0.176-0.535c0.022-0.286 0.137-0.51 0.257-0.501s0.198 0.249 0.176 0.535z"></path>
<path fill="#009200" stroke="#000" stroke-linejoin="miter" stroke-linecap="butt" stroke-miterlimit="4" stroke-width="0.1667" d="M22.887 18.588c-0.022 0.286-0.137 0.51-0.257 0.501s-0.198-0.249-0.176-0.535c0.022-0.286 0.137-0.51 0.257-0.501s0.198 0.249 0.176 0.535z"></path>
<path fill="#009200" stroke="#000" stroke-linejoin="miter" stroke-linecap="butt" stroke-miterlimit="4" stroke-width="0.1667" d="M22.569 18.272c-0.022 0.286-0.137 0.51-0.257 0.501s-0.198-0.249-0.176-0.535c0.022-0.286 0.137-0.51 0.257-0.501s0.198 0.249 0.176 0.535z"></path>
<path fill="#009200" stroke="#000" stroke-linejoin="miter" stroke-linecap="butt" stroke-miterlimit="4" stroke-width="0.1667" d="M22.26 18.060c-0.022 0.286-0.137 0.51-0.257 0.501s-0.198-0.249-0.176-0.535c0.022-0.286 0.137-0.51 0.257-0.501s0.198 0.249 0.176 0.535z"></path>
<path fill="#c90000" stroke="#000" stroke-linejoin="miter" stroke-linecap="butt" stroke-miterlimit="4" stroke-width="0.0889" d="M23.187 16.327c0.403 1.007 0.457 1.925 0.122 2.051s-0.934-0.588-1.337-1.595c-0.403-1.007-0.457-1.925-0.122-2.051s0.934 0.588 1.337 1.595z"></path>
<path fill="#009200" stroke="#000" stroke-linejoin="miter" stroke-linecap="butt" stroke-miterlimit="4" stroke-width="0.0976" d="M22.453 14.797c-0.002 0.139-0.131 0.25-0.287 0.247s-0.28-0.118-0.278-0.257c0.002-0.139 0.131-0.25 0.287-0.247s0.28 0.118 0.278 0.257z"></path>
<path fill="#009200" stroke="#000" stroke-linejoin="miter" stroke-linecap="butt" stroke-miterlimit="4" stroke-width="0.1031" d="M22.502 14.447c-0.002 0.139-0.115 0.25-0.251 0.248s-0.245-0.117-0.242-0.257c0.002-0.139 0.115-0.25 0.251-0.248s0.245 0.117 0.242 0.257z"></path>
<path fill="#009200" stroke="#000" stroke-linejoin="miter" stroke-linecap="butt" stroke-miterlimit="4" stroke-width="0.1031" d="M22.165 14.441c-0.002 0.139-0.115 0.25-0.251 0.248s-0.245-0.117-0.242-0.257c0.002-0.139 0.115-0.25 0.251-0.248s0.245 0.117 0.242 0.257z"></path>
<path fill="#009200" stroke="#000" stroke-linejoin="miter" stroke-linecap="butt" stroke-miterlimit="4" stroke-width="0.1040" d="M22.309 13.906c-0.002 0.125-0.121 0.225-0.265 0.222s-0.259-0.106-0.257-0.232c0.002-0.125 0.121-0.225 0.265-0.222s0.259 0.106 0.257 0.232z"></path>
<path fill="#009200" stroke="#000" stroke-linejoin="miter" stroke-linecap="butt" stroke-miterlimit="4" stroke-width="0.1040" d="M22.28 13.614c-0.002 0.125-0.121 0.225-0.265 0.222s-0.259-0.106-0.257-0.232c0.002-0.125 0.121-0.225 0.265-0.222s0.259 0.106 0.257 0.232z"></path>
<path fill="#009200" stroke="#000" stroke-linejoin="miter" stroke-linecap="butt" stroke-miterlimit="4" stroke-width="0.1031" d="M21.843 14.244c-0.002 0.139-0.115 0.25-0.251 0.248s-0.245-0.117-0.242-0.257c0.002-0.139 0.115-0.25 0.251-0.248s0.245 0.117 0.242 0.257z"></path>
<path fill="#009200" stroke="#000" stroke-linejoin="miter" stroke-linecap="butt" stroke-miterlimit="4" stroke-width="0.1041" d="M21.916 14.068c-0.002 0.139-0.115 0.25-0.251 0.248s-0.245-0.117-0.242-0.257c0.002-0.139 0.115-0.25 0.251-0.248s0.245 0.117 0.242 0.257z"></path>
<path fill="#009200" stroke="#000" stroke-linejoin="miter" stroke-linecap="butt" stroke-miterlimit="4" stroke-width="0.0976" d="M21.667 13.939c-0.002 0.139-0.131 0.25-0.287 0.247s-0.28-0.118-0.278-0.257c0.002-0.139 0.131-0.25 0.287-0.247s0.28 0.118 0.278 0.257z"></path>
<path fill="#009200" stroke="#000" stroke-linejoin="miter" stroke-linecap="butt" stroke-miterlimit="4" stroke-width="0.1040" d="M22.089 13.249c-0.002 0.125-0.121 0.225-0.265 0.222s-0.259-0.106-0.257-0.232c0.002-0.125 0.121-0.225 0.265-0.222s0.259 0.106 0.257 0.232z"></path>
<path fill="#009200" stroke="#000" stroke-linejoin="miter" stroke-linecap="butt" stroke-miterlimit="4" stroke-width="0.1041" d="M21.667 13.712c-0.002 0.139-0.115 0.25-0.251 0.248s-0.245-0.117-0.242-0.257c0.002-0.139 0.115-0.25 0.251-0.248s0.245 0.117 0.242 0.257z"></path>
<path fill="#009200" stroke="#000" stroke-linejoin="miter" stroke-linecap="butt" stroke-miterlimit="4" stroke-width="0.1031" d="M21.14 13.95c-0.002 0.139-0.115 0.25-0.251 0.248s-0.245-0.117-0.242-0.257c0.002-0.139 0.115-0.25 0.251-0.248s0.245 0.117 0.242 0.257z"></path>
<path fill="#009200" stroke="#000" stroke-linejoin="miter" stroke-linecap="butt" stroke-miterlimit="4" stroke-width="0.1041" d="M21.224 13.905c-0.002 0.139-0.115 0.25-0.251 0.248s-0.245-0.117-0.242-0.257c0.002-0.139 0.115-0.25 0.251-0.248s0.245 0.117 0.242 0.257z"></path>
<path fill="#009200" stroke="#000" stroke-linejoin="miter" stroke-linecap="butt" stroke-miterlimit="4" stroke-width="0.1041" d="M21.33 13.703c-0.002 0.139-0.115 0.25-0.251 0.248s-0.245-0.117-0.242-0.257c0.002-0.139 0.115-0.25 0.251-0.248s0.245 0.117 0.242 0.257z"></path>
<path fill="#009200" stroke="#000" stroke-linejoin="miter" stroke-linecap="butt" stroke-miterlimit="4" stroke-width="0.1697" d="M23.4 16.693c0.48 1.288 0.521 2.45 0.093 2.596s-1.164-0.78-1.644-2.068c-0.48-1.288-0.521-2.45-0.093-2.596s1.164 0.78 1.644 2.068z"></path>
<path fill="#009200" stroke="#000" stroke-linejoin="miter" stroke-linecap="butt" stroke-miterlimit="4" stroke-width="0.1667" d="M23.421 17.29c0.105 0.27 0.126 0.519 0.046 0.557s-0.228-0.15-0.333-0.419c-0.105-0.27-0.126-0.519-0.046-0.557s0.228 0.15 0.333 0.419z"></path>
<path fill="#009200" stroke="#000" stroke-linejoin="miter" stroke-linecap="butt" stroke-miterlimit="4" stroke-width="0.1022" d="M23.176 17.331c0.643 0.887 0.547 1.438 0.468 1.904-0.196-0.544-0.302-0.887-0.945-1.774s-0.299-1.49-0.246-1.811c0.093 0.281 0.081 0.794 0.723 1.681z"></path>
<path fill="#009200" stroke="#000" stroke-linejoin="miter" stroke-linecap="butt" stroke-miterlimit="4" stroke-width="0.1022" d="M23.221 18.035c0.643 0.887 0.547 1.438 0.468 1.904-0.196-0.544-0.302-0.887-0.945-1.774s-0.299-1.49-0.246-1.811c0.093 0.281 0.081 0.794 0.723 1.681z"></path>
<path fill="#009200" stroke="#000" stroke-linejoin="miter" stroke-linecap="butt" stroke-miterlimit="4" stroke-width="0.1022" d="M23.273 18.599c0.663 0.872 0.579 1.425 0.51 1.893-0.208-0.54-0.322-0.88-0.985-1.752s-0.332-1.483-0.287-1.805c0.1 0.279 0.098 0.792 0.762 1.664z"></path>
<path fill="#009200" stroke="#000" stroke-linejoin="miter" stroke-linecap="butt" stroke-miterlimit="4" stroke-width="0.0926" d="M23.055 16.499c0.185 0.482 0.209 0.903 0.054 0.942s-0.431-0.321-0.616-0.803c-0.185-0.482-0.209-0.903-0.054-0.942s0.431 0.321 0.616 0.803z"></path>
<path fill="#009200" stroke="#000" stroke-linejoin="miter" stroke-linecap="butt" stroke-miterlimit="4" stroke-width="0.1093" d="M22.828 16.942c0.143 0.396 0.144 0.736 0.004 0.758s-0.37-0.281-0.513-0.678c-0.143-0.396-0.144-0.736-0.004-0.758s0.37 0.281 0.513 0.678z"></path>
<path fill="#009200" stroke="#000" stroke-linejoin="miter" stroke-linecap="butt" stroke-miterlimit="4" stroke-width="0.1093" d="M22.394 17.238c0.132 0.399 0.125 0.739-0.015 0.758s-0.362-0.289-0.494-0.688c-0.132-0.399-0.125-0.739 0.015-0.758s0.362 0.289 0.494 0.688z"></path>
<path fill="#009200" stroke="#000" stroke-linejoin="miter" stroke-linecap="butt" stroke-miterlimit="4" stroke-width="0.1398" d="M22.644 16.023c0.124 0.294 0.134 0.547 0.022 0.567s-0.304-0.203-0.428-0.497c-0.124-0.294-0.134-0.547-0.022-0.566s0.304 0.203 0.428 0.497z"></path>
<path fill="#009200" stroke="#000" stroke-linejoin="miter" stroke-linecap="butt" stroke-miterlimit="4" stroke-width="0.1398" d="M22.459 16.309c0.106 0.302 0.098 0.558-0.016 0.57s-0.294-0.223-0.399-0.525c-0.106-0.302-0.098-0.558 0.016-0.57s0.294 0.223 0.399 0.525z"></path>
<path fill="#009200" stroke="#000" stroke-linejoin="miter" stroke-linecap="butt" stroke-miterlimit="4" stroke-width="0.1391" d="M22.030 16.015c0.183 0.523 0.251 0.991 0.151 1.045s-0.33-0.327-0.514-0.85"></path>
<path fill="#009200" stroke="#000" stroke-linejoin="miter" stroke-linecap="butt" stroke-miterlimit="4" stroke-width="0.1398" d="M22.44 15.702c0.106 0.303 0.098 0.558-0.016 0.57s-0.294-0.223-0.399-0.525c-0.106-0.303-0.098-0.558 0.016-0.57s0.294 0.223 0.399 0.525z"></path>
<path fill="#009200" stroke="#000" stroke-linejoin="miter" stroke-linecap="butt" stroke-miterlimit="4" stroke-width="0.1398" d="M22.119 15.923c0.1 0.305 0.089 0.561-0.026 0.57s-0.289-0.23-0.39-0.536c-0.1-0.305-0.089-0.561 0.026-0.57s0.289 0.23 0.39 0.536z"></path>
<path fill="#009200" stroke="#000" stroke-linejoin="miter" stroke-linecap="butt" stroke-miterlimit="4" stroke-width="0.192" d="M21.728 15.308c0.183 0.355 0.28 0.684 0.215 0.734s-0.267-0.196-0.45-0.551"></path>
<path fill="#009200" stroke="#000" stroke-linejoin="miter" stroke-linecap="butt" stroke-miterlimit="4" stroke-width="0.192" d="M21.865 15.080c0.183 0.355 0.28 0.684 0.215 0.734s-0.267-0.196-0.45-0.551"></path>
<path fill="#009200" stroke="#000" stroke-linejoin="miter" stroke-linecap="butt" stroke-miterlimit="4" stroke-width="0.1391" d="M22.457 15.204c0.255 0.488 0.389 0.939 0.297 1.008s-0.372-0.271-0.628-0.758"></path>
<path fill="#009200" stroke="#000" stroke-linejoin="miter" stroke-linecap="butt" stroke-miterlimit="4" stroke-width="0.1828" d="M22.070 14.867c0.183 0.39 0.28 0.752 0.215 0.808s-0.267-0.215-0.45-0.605"></path>
<path fill="#804bff" stroke="#000" stroke-linejoin="miter" stroke-linecap="butt" stroke-miterlimit="4" stroke-width="0.1667" d="M22.336 13.512c-0.128 0.132 0.004 0.361 0.125 0.44 0.136 0.11 0.903 0.834 1.421 0.172-0.425 0.012-1.237-0.906-1.547-0.612z"></path>
<path fill="#804bff" stroke="#000" stroke-linejoin="miter" stroke-linecap="butt" stroke-miterlimit="4" stroke-width="0.1667" d="M22.245 13.129c-0.128 0.132 0.004 0.361 0.125 0.44 0.136 0.11 0.903 0.834 1.421 0.172-0.425 0.012-1.237-0.906-1.547-0.612z"></path>
<path fill="#804bff" stroke="#000" stroke-linejoin="miter" stroke-linecap="butt" stroke-miterlimit="4" stroke-width="0.1667" d="M22.129 12.763c-0.128 0.132 0.004 0.361 0.125 0.44 0.136 0.11 0.903 0.834 1.421 0.172-0.425 0.012-1.237-0.906-1.547-0.612z"></path>
<path fill="#804bff" stroke="#000" stroke-linejoin="miter" stroke-linecap="butt" stroke-miterlimit="4" stroke-width="0.1667" d="M21.877 12.344c-0.128 0.132 0.004 0.361 0.125 0.44 0.136 0.11 0.903 0.834 1.421 0.172-0.425 0.012-1.237-0.906-1.547-0.612z"></path>
<path fill="#804bff" stroke="#000" stroke-linejoin="miter" stroke-linecap="butt" stroke-miterlimit="4" stroke-width="0.1667" d="M20.731 12.181c0.248-0.194 0.711-0.249 1.077-0.058 0.305 0.154 0.822 0.779 1.203 0.927-0.265 0.048-0.427 0.006-0.599-0.079-0.329 0.25-0.448 0.288-0.788 0.336-0.473 0.069-0.871-0.060-1.016-0.317-0.147-0.242-0.096-0.63 0.123-0.81z"></path>
<path fill="#f00" stroke="#000" stroke-linejoin="miter" stroke-linecap="butt" stroke-miterlimit="4" stroke-width="0.1667" d="M21.688 12.484c-0.001 0.070-0.105 0.125-0.233 0.123s-0.23-0.061-0.228-0.131c0.001-0.070 0.105-0.125 0.233-0.123s0.23 0.061 0.228 0.131z"></path>
<path fill="#ff0" stroke="#000" stroke-linejoin="miter" stroke-linecap="butt" stroke-miterlimit="4" stroke-width="0.1667" d="M21.123 12.871c0.038 0.098-0.067 0.229-0.236 0.293s-0.336 0.036-0.375-0.062c-0.038-0.098 0.067-0.229 0.236-0.293s0.336-0.036 0.375 0.062z"></path>
<path fill="#000" d="M21.164 12.88c-0.001 0.042-0.035 0.075-0.077 0.075s-0.075-0.035-0.075-0.077c0.001-0.042 0.035-0.075 0.077-0.075s0.075 0.035 0.075 0.077z"></path>
<path fill="#ff0" stroke="#000" stroke-linejoin="miter" stroke-linecap="butt" stroke-miterlimit="4" stroke-width="0.4373" d="M21.188 12.639c0.027 0.095-0.047 0.224-0.221 0.27-0.176 0.066-0.304 0.213-0.371 0.452-0.298-0.544-0.137-0.776 0.149-0.834 0.245-0.071 0.395-0.063 0.442 0.111z"></path>
<path fill="#000" d="M20.52 13.159c-0.001 0.034-0.029 0.061-0.062 0.060s-0.061-0.029-0.060-0.062c0.001-0.034 0.029-0.061 0.062-0.060s0.061 0.029 0.060 0.062z"></path>
</svg>
