<!-- Generated by IcoMoon.io -->
<svg version="1.1" xmlns="http://www.w3.org/2000/svg" width="31" height="32" viewBox="0 0 31 32">
<title>XDR</title>
<path fill="#3a76bc" d="M4.298 16.017c0 6.332 5.134 11.501 11.501 11.501 6.332 0 11.501-5.168 11.501-11.501s-5.168-11.501-11.501-11.501c-6.366 0-11.501 5.168-11.501 11.501zM4.606 16.017c0-6.161 4.997-11.193 11.193-11.193 6.161 0 11.158 5.032 11.158 11.193s-4.997 11.193-11.158 11.193c-6.195 0-11.193-5.032-11.193-11.193z"></path>
<path fill="#3a76bc" d="M6.009 6.639c0 0.685 0 1.335 0 1.985 0 1.403 0 2.807 0 4.21 0 1.232 0 2.499 0 3.765 0 0.308 0 0.582 0 0.89 0 0.787 0.103 1.54 0.308 2.293 0.377 1.403 1.198 2.704 2.259 3.731 0.958 0.958 2.088 1.711 3.286 2.328 0.924 0.479 1.848 0.856 2.841 1.164 0.24 0.103 0.513 0.171 0.753 0.24 0.068 0 0.137 0.034 0.205 0.034 0.548-0.103 1.095-0.24 1.643-0.411 1.027-0.308 2.054-0.719 3.012-1.266 1.198-0.616 2.259-1.472 3.149-2.499 0.993-1.164 1.643-2.601 1.917-4.107 0.205-1.027 0.171-2.054 0.205-3.115 0-1.369 0-2.773 0.034-4.176 0-1.301 0-2.601 0.034-3.936 0-0.377 0-0.753 0-1.13-0.377 0-0.753 0-1.13 0-0.958 0-1.951 0-2.909 0-1.335 0-2.636 0-3.936 0-1.438 0-2.841 0-4.279 0-1.301 0-2.567 0-3.834 0-0.924 0-1.814 0-2.704 0-0.308 0-0.582 0-0.856 0zM19.187 24.609c-0.034 0-0.068 0.034-0.137 0.034-0.034 0-0.103 0-0.171 0-0.171 0.068-0.308 0.137-0.445 0.205-0.137 0.034-0.24 0.137-0.342 0.171-0.137 0.034-0.274 0.068-0.411 0.103-0.24 0.068-0.445 0.137-0.685 0.137s-0.548-0.034-0.753-0.137c-0.103-0.034-0.205-0.103-0.342-0.137-0.24-0.137-0.513-0.274-0.753-0.411-0.103-0.068-0.205-0.171-0.274-0.308-0.068-0.034-0.103-0.103-0.171-0.171-0.068-0.034-0.137-0.137-0.205-0.137-0.103 0-0.205 0-0.308 0-0.034 0-0.068-0.068-0.068-0.103-0.034-0.034-0.068-0.034-0.103-0.068s-0.068-0.068-0.103-0.068-0.068-0.068-0.103-0.034c0.068 0.103 0.137 0.171 0.205 0.274 0.034 0.068 0 0.137 0.068 0.137s0.171-0.034 0.24-0.034c0.274 0.034 0.411 0.308 0.513 0.548 0.034 0.103 0.068 0.274 0.068 0.377 0 0.068 0 0.137 0 0.171-0.034 0.068-0.068 0.137-0.068 0.171s-0.034 0.137-0.068 0.137c-0.068 0.034-0.137 0.068-0.205 0.068-0.103 0.034-0.24 0-0.342-0.034-0.137-0.034-0.24-0.103-0.342-0.205-0.034 0-0.137-0.068-0.171-0.103-0.034-0.068-0.068-0.137-0.103-0.24 0-0.034 0-0.103 0-0.137 0-0.068-0.034-0.171-0.034-0.205 0.068-0.171 0.103-0.274 0.205-0.377 0.034 0.068 0.068 0.137 0.103 0.205s0.068 0.103 0.137 0.034c0.068-0.068-0.034-0.137-0.068-0.171s-0.034-0.068-0.034-0.103c0-0.034 0-0.068-0.034-0.103-0.068-0.068-0.103-0.103-0.171-0.171-0.034-0.034-0.137-0.103-0.137-0.137s-0.034-0.205-0.103-0.103c-0.068 0.068 0 0.103 0.034 0.205-0.137 0-0.24-0.068-0.377-0.103-0.103-0.034-0.205-0.068-0.342-0.103-0.205-0.068-0.411-0.171-0.616-0.24-0.24-0.103-0.479-0.171-0.719-0.24-0.034-0.034-0.068-0.034-0.137-0.034-0.034 0-0.137-0.034-0.205 0-0.034 0-0.103 0.034-0.137 0.034-0.068 0-0.137 0-0.171-0.068-0.205-0.137-0.205-0.377-0.342-0.582-0.137-0.171-0.308-0.377-0.513-0.479-0.068-0.034-0.205-0.137-0.24-0.205 0-0.068-0.034-0.137 0.034-0.137 0.103 0 0.103 0 0.171 0.103 0.068 0.034 0.205 0.034 0.274 0.068 0.103 0.068 0.24 0.137 0.342 0.205 0.205 0.103 0.377 0.274 0.582 0.411 0.171 0.137 0.377 0.24 0.616 0.342 0.205 0.068 0.377 0.24 0.616 0.274 0.103 0 0.24 0.034 0.342 0.103 0.068 0.034 0.103 0.034 0.137 0 0.034-0.068 0.068-0.103 0.068-0.171 0.034 0 0.034-0.034 0.068-0.068 0 0-0.034-0.034-0.034-0.034-0.034-0.034-0.068-0.137-0.068-0.171 0.034-0.068 0.068-0.103 0.103-0.171 0.034-0.034 0.068-0.068 0.103-0.137 0.068-0.068 0.171-0.137 0.274-0.171s0.205-0.068 0.308-0.068c0.103 0 0.274-0.034 0.342 0s0.103 0.068 0.171 0.068c0.034 0 0.137 0 0.171 0 0.068 0.103 0.103 0.205 0.068 0.308-0.034 0.137-0.068 0.24-0.171 0.342-0.034 0.068-0.034 0.137-0.068 0.171-0.068 0.034-0.137 0.068-0.205 0.103-0.137 0.068-0.274 0.103-0.411 0.103-0.068 0-0.137 0-0.205 0-0.034-0.034-0.171-0.034-0.171-0.068-0.034-0.068 0.068-0.103 0.103-0.171 0.034-0.034-0.034-0.137-0.068-0.171 0 0-0.034 0.034-0.034 0.034 0 0.034 0 0.068 0 0.068-0.034 0.068-0.103 0.103-0.137 0.137 0 0-0.034 0.034-0.034 0.034 0 0.034 0.034 0.068 0 0.103 0 0.034-0.068 0.068-0.068 0.103 0.103 0.068 0.205 0 0.308 0.034 0.034 0 0.103 0.034 0.137 0.034 0.103 0 0.171 0.034 0.24 0.034s0.137 0 0.205 0c0.034 0 0.068-0.068 0.137-0.068 0.103 0 0.205-0.068 0.308-0.103 0.034-0.034 0.103-0.034 0.137-0.068 0.034-0.068 0.068-0.103 0.103-0.137 0.103-0.103 0.171-0.205 0.24-0.274 0.171-0.137 0.377-0.274 0.548-0.411 0.24-0.137 0.445-0.24 0.685-0.342 0.103-0.034 0.24-0.034 0.342-0.034s0.24 0 0.342-0.034c0.24 0 0.445-0.034 0.685 0 0.137 0.034 0.274 0.034 0.411 0.068 0.103 0.034 0.205 0.034 0.342 0.034s0.24 0 0.342 0c0.137 0 0.24-0.034 0.342-0.034s0.24 0 0.342 0.034c0.034 0.034 0.308 0.103 0.171 0.171-0.103 0.068-0.205 0.103-0.342 0.137-0.103 0-0.205 0.068-0.308 0.137s-0.171 0.137-0.274 0.171c-0.103 0.068-0.205 0.103-0.342 0.137-0.205 0.068-0.411 0.171-0.65 0.205-0.103 0.034-0.24 0.068-0.342 0.103-0.068 0.034-0.137 0-0.171 0-0.068 0-0.103 0.034-0.171 0.068-0.068 0-0.137 0-0.171 0-0.068 0.034-0.137 0.034-0.171 0.068-0.137 0-0.24 0.034-0.377 0.034-0.205 0.068-0.445 0.068-0.685 0.103-0.103 0-0.205 0-0.342 0-0.034 0-0.103 0-0.137 0-0.068 0-0.103 0-0.171 0-0.137-0.034-0.205 0.034-0.308 0.068-0.068 0.034-0.103 0.068-0.137 0.068-0.068 0.034 0.103 0.103 0.103 0.103 0.103 0.034 0.24 0.034 0.377 0.034 0.034 0 0.068 0 0.137-0.034 0.034-0.034 0.068-0.034 0.171-0.068 0.205-0.034 0.445 0 0.65 0 0.137 0.034 0.24 0.034 0.376 0.068 0.103 0.068 0.205 0.103 0.342 0.137 0.205 0.068 0.377 0.171 0.582 0.274 0.137 0.034 0.24 0.068 0.377 0.068 0.103 0.034 0.171 0.068 0.274 0.103 0.205 0.068 0.445 0.137 0.685 0.137 0.068 0 0.171 0 0.24 0 0.103 0 0.171-0.068 0.24-0.034 0.068 0 0.137 0 0.205 0s0.103 0.034 0.137 0.068c0.103 0.034 0.137 0.034 0.103 0.137zM20.967 22.795c-0.034 0.034-0.034 0.068-0.068 0.068s-0.103 0-0.137 0c0 0-0.068 0.068-0.103 0.068-0.103 0.103-0.205 0.205-0.308 0.308-0.171 0.103-0.308 0.274-0.479 0.377-0.103 0.068-0.205 0.137-0.274 0.205-0.103 0.034-0.24 0.137-0.342 0.171-0.24 0.068-0.479 0.137-0.719 0.171-0.205 0-0.445 0-0.685-0.034-0.171 0-0.342-0.068-0.513-0.103-0.171-0.068-0.342-0.103-0.513-0.171-0.205-0.068-0.377-0.171-0.548-0.24 0.24 0.034 0.445 0.068 0.685 0.068s0.513 0 0.753 0c0.103 0 0.24-0.034 0.342-0.034s0.205-0.034 0.342-0.068c0.205-0.068 0.479-0.068 0.65-0.205-0.103 0-0.171 0-0.274 0.034-0.034 0.034-0.068 0-0.137 0-0.034 0-0.068 0.034-0.137 0.034s-0.103-0.034-0.171-0.034c-0.034 0-0.068 0.034-0.137 0.034-0.103 0.034-0.24 0.034-0.342 0.068-0.205 0.034-0.377 0.034-0.548 0.034-0.103 0-0.205 0-0.308 0-0.068 0-0.205 0.034-0.274-0.034 0.103-0.034 0.171-0.068 0.274-0.068 0.137-0.034 0.24-0.034 0.342-0.068 0.24-0.068 0.479-0.137 0.685-0.24 0.205-0.068 0.445-0.171 0.685-0.24 0.103 0 0.205 0 0.308 0 0.137 0 0.308 0 0.479 0 0.24 0 0.445-0.137 0.685-0.205 0.171-0.034 0.274-0.068 0.445-0.068 0.068 0 0.137 0 0.205 0 0.034 0 0.034 0 0.068 0.034 0.034 0 0.103 0.103 0.068 0.137zM19.632 20.672c-1.164 0-2.328-0.377-3.286-1.027-0.103-0.068-0.205-0.171-0.308-0.24-0.068-0.034-0.103-0.103-0.171-0.137-0.034-0.034-0.034-0.068-0.068-0.034s-0.068 0.068-0.103 0.103c-0.205 0.171-0.445 0.342-0.685 0.479-0.479 0.308-1.027 0.513-1.575 0.685-1.985 0.479-4.107-0.137-5.545-1.575-1.369-1.438-1.917-3.457-1.472-5.374 0.445-1.848 1.848-3.423 3.662-4.073 0.958-0.342 2.054-0.445 3.081-0.24 0.548 0.137 1.095 0.342 1.609 0.616 0.24 0.103 0.479 0.274 0.719 0.445 0.103 0.068 0.205 0.171 0.308 0.24 0.034 0.034 0.034 0.034 0.068 0s0.068-0.068 0.103-0.068c0.034-0.068 0.103-0.103 0.171-0.137 1.746-1.335 4.142-1.575 6.093-0.582 1.711 0.856 2.909 2.567 3.115 4.484 0.205 1.951-0.582 3.902-2.088 5.134-1.027 0.821-2.328 1.301-3.628 1.301z"></path>
<path fill="#3a76bc" d="M17.578 24.711c-0.171 0-0.308-0.034-0.445-0.068-0.171-0.034-0.308-0.103-0.479-0.137-0.274-0.068-0.548-0.205-0.821-0.308-0.205-0.103-0.445-0.103-0.685-0.103 0.034 0.068 0.274 0.103 0.342 0.103 0.068 0.034 0.171 0.103 0.274 0.137 0.205 0.103 0.411 0.24 0.616 0.342 0.103 0.034 0.24 0.103 0.342 0.137 0.137 0 0.24 0.034 0.342 0.034 0.137 0 0.342 0.034 0.479 0 0.103-0.068 0.24-0.068 0.342-0.068 0.034 0 0.034-0.068 0.034-0.068-0.137 0-0.24 0-0.342 0z"></path>
<path fill="#3a76bc" d="M10.664 22.384c-0.068-0.034-0.137-0.137-0.205-0.171-0.034 0.068 0.137 0.171 0.171 0.205s0.205 0.205 0.171 0.308c-0.034-0.034-0.068-0.034-0.068 0s0.034 0.103 0.034 0.137c0 0.034 0.034 0.068 0.034 0.103 0.068 0.068 0.137 0.034 0.171-0.034 0-0.103-0.034-0.24-0.103-0.342-0.034-0.068-0.137-0.137-0.205-0.205z"></path>
<path fill="#3a76bc" d="M14.806 23.24c0.24-0.068 0.445-0.137 0.65-0.205 0.24-0.068 0.479-0.103 0.685-0.137 0.24-0.068 0.479-0.103 0.719-0.103 0.103 0 0.24-0.034 0.342-0.034 0.103-0.034 0.205-0.103 0.274-0.137 0.137-0.068 0.24-0.068 0.377-0.103 0.103-0.034 0.24 0 0.308-0.034 0.034 0 0.068 0 0.068-0.034s0-0.034-0.034-0.034c-0.068 0-0.137 0-0.205 0-0.103 0-0.205 0.034-0.308 0.034-0.24 0.034-0.479 0.034-0.719 0.068-0.205 0.034-0.445 0.034-0.65 0.103-0.24 0.068-0.548 0.137-0.787 0.24-0.274 0.103-0.513 0.24-0.787 0.342 0.034 0.034 0.068 0.034 0.068 0.034z"></path>
<path fill="#3a76bc" d="M6.146 14.888c0 3.252 2.636 5.887 5.887 5.887 1.438 0 2.807-0.513 3.868-1.472 1.266-1.095 2.019-2.704 2.019-4.415 0-1.677-0.753-3.286-2.019-4.415-1.061-0.924-2.43-1.438-3.868-1.438-3.252 0-5.887 2.636-5.887 5.853zM6.386 14.888c0-3.081 2.533-5.613 5.648-5.613 1.369 0 2.704 0.479 3.731 1.403 1.198 1.061 1.917 2.601 1.917 4.21 0 1.643-0.719 3.183-1.917 4.244-1.027 0.924-2.362 1.403-3.731 1.403-3.115 0-5.648-2.533-5.648-5.648z"></path>
<path fill="#3a76bc" d="M9.329 10.952c0.068-0.068 0.103-0.103 0.205-0.137 0.034 0 0.068 0.034 0.068 0.034-0.034 0.068-0.068 0.068-0.068 0.103-0.034 0.103-0.068 0.171-0.137 0.274-0.034 0.034 0.034 0.034-0.034 0.068-0.034 0-0.068 0.034-0.103 0.034-0.034 0.034-0.068 0.034-0.103 0.034s-0.068-0.034-0.103-0.034c-0.034 0-0.103 0.034-0.103-0.034 0-0.034 0.034-0.068 0.068-0.103 0.068-0.068 0.137 0 0.24-0.034 0.068-0.034 0.034-0.137 0.068-0.205z"></path>
<path fill="#3a76bc" d="M8.85 11.328c0.034-0.034 0.068 0 0.034 0.034-0.034 0-0.068-0.034-0.034-0.034z"></path>
<path fill="#3a76bc" d="M15.833 10.78c-0.103-0.068-0.171-0.137-0.274-0.171-0.103-0.068-0.171-0.171-0.274-0.24-0.034-0.034-0.068-0.068-0.137-0.103-0.034-0.034-0.068-0.034-0.137-0.068-0.103-0.103-0.171-0.137-0.308-0.171-0.034 0-0.068 0-0.137 0s-0.103 0-0.171 0.068c0 0-0.068 0-0.068 0-0.034 0-0.034 0.068-0.034 0.068-0.034 0.034-0.034 0.103-0.068 0.137-0.034 0.068-0.068 0.103-0.103 0.103-0.068 0-0.137 0-0.205 0-0.034 0.034-0.103 0.034-0.171 0.034-0.034 0-0.103 0.034-0.137 0.034-0.068 0.034-0.137 0.034-0.205 0.034-0.034 0-0.103 0-0.171-0.034-0.068 0-0.103 0-0.137 0.068-0.034 0.034-0.068 0.068-0.137 0.103-0.103 0.068-0.205 0.137-0.342 0.171-0.034 0.034-0.103 0.068-0.137 0.103-0.103 0.034 0 0.034-0.034 0.137-0.034-0.034-0.068-0.034-0.103-0.103 0 0-0.034-0.103-0.068-0.068-0.034 0-0.068 0-0.103 0.034-0.034 0.068-0.034 0.068-0.103 0.034-0.103 0-0.171 0.034-0.274 0.034-0.068 0-0.171-0.068-0.205-0.034-0.068 0.034-0.068 0.034-0.137 0.034 0-0.034 0-0.103-0.034-0.137s-0.068-0.068-0.068-0.137c-0.068-0.103-0.137-0.137-0.274-0.137-0.068 0-0.103 0-0.137-0.034s-0.137-0.068-0.171-0.034c-0.034 0.034-0.068 0.068-0.103 0.103-0.034 0-0.034 0.034-0.068 0.034 0 0.034-0.034 0.034-0.068 0.034-0.068 0-0.068 0.068-0.137 0.068s-0.103 0-0.171 0.034c-0.068 0-0.103 0-0.171 0s-0.068 0.068-0.137 0.103c-0.034 0.034-0.034 0.068-0.034 0.137s0.103 0.034 0.137 0.034c0.034 0 0.034 0 0.034 0.034s0 0.068 0 0.068c0 0.068-0.068 0.103-0.068 0.137 0 0.103 0.274 0.034 0.308 0 0 0 0-0.034 0.034-0.068 0-0.034 0.034-0.034 0.068-0.034 0.034-0.034 0.068-0.103 0.103-0.137 0.034-0.068 0.171-0.171 0.24-0.205 0.034 0 0.137 0 0.137 0.034s0 0.103-0.068 0.137c-0.034 0.034-0.103-0.034-0.137 0s-0.103 0.034-0.137 0.103c0 0.034-0.034 0.034 0 0.068 0 0 0.034 0.034 0.034 0.034 0.034 0 0.103 0.034 0.137 0 0.068 0 0.137-0.034 0.171-0.034 0.068 0 0.137 0 0.068 0.068-0.034 0.103-0.205 0.034-0.274 0.068s-0.137 0.034-0.205 0.068c-0.034 0-0.103-0.034-0.137 0.034-0.034 0.034-0.103 0.068-0.137 0.103s-0.137-0.034-0.137-0.034c-0.137-0.068 0-0.24-0.103-0.308 0-0.034-0.103 0-0.137 0-0.068 0-0.103 0-0.171 0.034-0.068 0.068-0.171 0.137-0.274 0.171-0.068 0-0.103 0.034-0.171 0.034 0 0.034-0.103 0-0.137 0-0.068 0-0.103 0-0.171 0s-0.068 0.034-0.103 0.103c-0.034 0.034-0.068 0.103-0.103 0.137s-0.034 0.103-0.103 0.137c-0.034 0.034-0.068-0.068-0.103-0.068-0.034-0.034-0.137 0.034-0.171-0.034-0.034-0.034-0.068-0.068-0.103 0-0.068 0.034-0.103 0.068-0.103 0.137s-0.034 0.068-0.068 0.103c-0.034 0.034-0.103 0.068-0.068 0.137s0.034 0.103 0.034 0.171c0 0.068 0.103 0.034 0.137 0.034 0.068 0 0.171 0.034 0.24 0.034 0.103 0 0.068 0 0.137-0.068 0-0.034 0.034-0.034 0.034-0.068 0.034-0.034 0-0.034 0.034-0.068 0.034 0 0.137 0 0.171 0.034 0 0.034 0.103 0.034 0.137 0.034 0.034-0.034 0.103-0.034 0.137 0 0.068 0.034 0.068 0.068 0.103 0.137 0.034 0.034 0 0.103 0 0.137 0.034 0.068 0.034 0.068 0.068 0.103 0 0.034 0.034 0.068 0.034 0.103 0 0.068 0 0.068-0.068 0.103 0 0.034 0 0.068 0 0.103 0.103 0 0.137-0.034 0.205-0.103 0 0.034 0 0.068 0 0.103 0.103-0.103 0.103-0.171 0.103-0.308 0-0.034-0.068-0.068-0.068-0.103s0-0.068 0-0.103c0-0.034 0-0.034 0.034-0.034 0.137 0 0.103 0.137 0.103 0.24s0 0.205 0 0.308c0.068 0 0.205 0 0.24-0.068 0-0.034-0.034-0.103-0.034-0.137s0.068-0.034 0.103-0.034c-0.034 0.068-0.034 0.103-0.034 0.171 0 0.034-0.034 0.034 0 0.068 0 0 0 0.068 0 0.068 0.034 0.034 0.103 0.034 0.137 0.068s0.034 0.034 0.034 0.068c0 0.068 0.034 0.034 0.068 0.034s0.103 0.103 0.068 0.103c0 0.068-0.034 0.137-0.068 0.137s-0.137 0-0.171-0.034c-0.034 0-0.103-0.034-0.171-0.068-0.034-0.034-0.034-0.068-0.103-0.103-0.068 0-0.103 0-0.171 0 0 0-0.137 0-0.137 0-0.034-0.068-0.034-0.103-0.103-0.137-0.034-0.068-0.24-0.068-0.24-0.171 0-0.034 0-0.068 0-0.103 0 0 0.068 0 0.068 0 0.034 0.068 0.034 0.103 0.068 0.137 0.068-0.034 0.034-0.068 0.034-0.103-0.034-0.034-0.034-0.034-0.068-0.068s0-0.034-0.068-0.034 0 0.034-0.034 0c-0.034 0-0.034-0.034-0.068-0.034 0-0.068 0-0.034-0.034-0.068-0.034 0-0.034-0.034-0.068-0.034-0.034-0.034-0.103-0.034-0.137-0.034-0.068 0-0.137 0-0.24 0-0.034 0-0.103 0-0.137 0-0.068-0.034-0.103-0.068-0.171-0.103-0.034 0-0.103-0.068-0.103-0.068-0.034 0.034-0.068 0.068-0.103 0.068-0.103 0.103-0.24 0.205-0.377 0.274-0.171 0.137-0.377 0.24-0.513 0.411-0.103 0.103-0.205 0.24-0.274 0.342-0.068 0.068-0.068 0.205-0.068 0.274-0.034 0.137-0.034 0.24-0.068 0.377 0 0.068-0.034 0.103-0.034 0.171-0.034 0.034 0 0.103 0.034 0.137 0.034 0.103 0.068 0.24 0.103 0.342 0.034 0.068 0.068 0.137 0.103 0.205 0 0.034 0 0.103 0 0.137 0 0.103 0 0.103 0.068 0.137 0.034 0.068 0.068 0.034 0.137 0.034 0.103-0.034 0.103-0.034 0.171 0.034 0.034 0.034 0.068 0.034 0.137 0.034s0.308-0.034 0.342 0c0.034 0.034 0.068 0.103 0.103 0.137 0.068 0 0.171 0.034 0.171 0.068 0.034 0.034 0 0.171 0 0.205 0 0.068 0 0.068 0.034 0.137 0.068 0.103 0.103 0.24 0.137 0.342s0.137 0.205 0.137 0.308c0 0.068 0 0.103 0 0.171s-0.034 0.137-0.068 0.171c0 0.068 0 0.068 0.034 0.137s0.068 0.137 0.137 0.205c0.034 0.068 0.068 0.171 0.103 0.24 0.103 0.24 0.171 0.479 0.308 0.719 0.034 0.103 0.103 0.205 0.137 0.308 0.034 0.034 0.103 0.068 0.137 0.068s0.103-0.068 0.137-0.103c0.103-0.068 0.24-0.103 0.342-0.171 0.103-0.034 0.103-0.205 0.137-0.308 0-0.034 0.034-0.034 0.068-0.068 0.103-0.034 0.171-0.137 0.103-0.24 0 0-0.034-0.034-0.034-0.068s0-0.103 0-0.137c0-0.137 0.068-0.137 0.137-0.205 0.103-0.103 0.103-0.171 0.103-0.274 0-0.171 0-0.308 0-0.445 0-0.034-0.171-0.205-0.137-0.24 0.103-0.103 0.171-0.171 0.24-0.24 0.171-0.171 0.342-0.342 0.513-0.548 0.068-0.068 0.103-0.205 0.137-0.308 0-0.068 0.034-0.103 0.068-0.171 0 0 0.103-0.103 0.034-0.137-0.103-0.034-0.274 0.068-0.377 0.137-0.034 0-0.137-0.034-0.171-0.034-0.103-0.068-0.103-0.205-0.171-0.274-0.034-0.034-0.068-0.103-0.103-0.137-0.034 0-0.068 0.034-0.068 0-0.034 0 0-0.068 0-0.103 0-0.103-0.068-0.205-0.103-0.308-0.034-0.068-0.034-0.103-0.068-0.137-0.034-0.068-0.034-0.137-0.034-0.171 0-0.068 0-0.103 0-0.171 0-0.034 0.103-0.103 0.103-0.068 0.068 0.068 0.068 0.24 0.103 0.308 0.034 0.137 0.068 0.24 0.137 0.342 0 0.068 0.068 0.068 0.103 0.103 0.068 0.034 0.034 0.103 0.068 0.137 0 0.103 0 0.171 0.034 0.24 0.034 0.103 0.068 0.103 0.137 0.103s0.137-0.034 0.171-0.034c0.068-0.034 0.103-0.034 0.171-0.068 0.103-0.034 0.205-0.103 0.274-0.171 0.068-0.034 0.103-0.034 0.171-0.034 0.034 0 0.103-0.103 0.103-0.137 0.034-0.034 0.068-0.068 0.103-0.103 0-0.034 0.034-0.137 0-0.137 0 0-0.068 0-0.068 0 0-0.068-0.034-0.103-0.068-0.137s-0.171-0.034-0.24-0.034c-0.103 0-0.103 0-0.137-0.068-0.034-0.034-0.068-0.103-0.068-0.171-0.034-0.034-0.034-0.034-0.034-0.103 0.034 0.034 0.103 0.034 0.103 0.068 0.034 0.068 0.034 0.103 0.034 0.171 0.034 0 0.103-0.034 0.137-0.034 0.068 0 0.068 0.034 0.137 0.068 0.034 0.034 0.068 0.103 0.103 0.103 0.068 0 0.137 0 0.171 0.034 0.103 0 0.205-0.034 0.274-0.034s0.103 0 0.137 0.068c0.034 0.034 0.068 0.068 0.103 0.137s0.034 0.068 0.103 0.068 0.068 0 0.068 0.068c0 0.103 0 0.24 0.068 0.342s0.103 0.171 0.205 0.274c0.034 0.068 0.068 0.171 0.171 0.24 0.034-0.068 0.103-0.171 0.103-0.24s0.034-0.068 0.068-0.103c0.034-0.034 0.034-0.068 0.034-0.137 0-0.137 0.034-0.171 0.103-0.24s0.171-0.137 0.24-0.205c0.068-0.068 0.137-0.103 0.24-0.103 0.034 0 0.068 0.034 0.103 0.068s0 0.103 0.034 0.137c0 0 0 0.034 0.034 0.034 0 0.034 0.034 0.034 0.068 0.034 0 0.034 0.034 0.103 0.034 0.137 0.068 0.137 0.137 0.137 0.205 0.034 0.034 0.068 0.034 0.205 0.103 0.274 0.034 0.068 0.034 0.171 0.068 0.274s0.068 0.205 0.103 0.274c0.068 0.103 0.137 0.205 0.24 0.24 0.034 0 0.068 0 0.034-0.068 0 0-0.034 0-0.034-0.034s0-0.068 0-0.103c-0.034-0.103-0.068-0.205-0.103-0.274-0.034-0.034-0.103-0.068-0.137-0.103-0.034 0-0.034-0.068-0.068-0.103-0.034-0.103 0-0.171 0.103-0.24 0.068 0.068 0.137 0.205 0.24 0.24 0.068 0 0.103-0.068 0.137-0.103s0.034-0.034 0.068-0.034c0.034-0.034 0.034-0.034 0.068-0.103 0.034-0.103-0.034-0.24-0.068-0.377-0.034-0.068-0.034-0.103-0.034-0.205 0-0.034 0.103-0.103 0.103-0.137 0.034 0.034 0.068 0.068 0.034 0.103s0 0.034 0 0.068 0.103 0 0.103-0.034c0.034 0 0-0.068 0-0.103 0-0.068 0.068-0.137 0.137-0.137 0.068-0.034 0.137-0.137 0.171-0.171s0.068-0.137 0.068-0.205c0-0.068 0.034-0.171 0-0.24-0.034-0.171-0.034-0.342-0.171-0.445 0.034-0.034 0.103-0.068 0.068-0.103-0.068-0.068-0.103 0-0.137 0.034 0 0-0.068-0.103-0.034-0.137 0.034 0 0.034-0.034 0.068-0.034 0.034-0.034 0.034-0.034 0.068 0s0.068 0.068 0.103 0.103c0.068 0.034 0.034 0.103 0.068 0.171 0 0.034 0 0.034 0.034 0.068 0.034 0 0.034 0 0.068-0.034 0-0.034 0.068-0.068 0.068-0.103 0-0.068 0.034-0.137 0-0.171-0.068-0.068-0.103-0.068-0.103-0.171s0-0.24 0.068-0.308c0.068-0.034 0.068-0.034 0.034-0.137-0.034 0-0.068 0-0.034-0.034 0-0.034 0-0.034 0-0.068 0-0.137 0.068-0.205 0.034-0.342-0.034-0.068-0.103-0.205-0.171-0.274-0.034-0.068-0.068-0.103-0.103-0.137s-0.137-0.068-0.137-0.103c-0.034-0.034 0-0.068 0-0.068 0-0.034-0.034-0.068-0.068-0.068-0.034-0.034-0.103 0.034-0.137 0.034s0-0.137 0.034-0.171c0-0.034 0.034-0.068 0.103-0.068 0.068-0.034 0.103-0.034 0.137-0.068s0.034-0.103 0.103-0.137c0.034 0.068 0.068 0.137 0.103 0.205 0.034 0.034 0.034 0.068 0.068 0.068 0 0.034 0.034 0 0.034 0 0.068 0.034 0.034 0.068 0.103 0.068 0.103 0 0.171 0.068 0.274 0.068 0.068 0 0.068 0.034 0.068-0.034s-0.034-0.068-0.034-0.137zM10.39 11.499c0.034 0 0.034 0.034 0 0.068-0.034 0-0.068-0.034 0-0.068zM10.63 12.8c-0.034 0.068-0.205-0.068-0.274-0.034-0.034 0-0.137-0.034-0.103-0.068 0-0.034 0.034-0.137 0.068-0.137 0.034-0.034 0.103-0.068 0.137-0.034 0 0 0 0 0.034 0.034 0 0.034 0.034 0.034 0.068 0.034 0.068 0 0.068 0 0.103 0.068 0 0.068 0 0.068-0.034 0.137zM11.212 12.766c-0.034 0.034-0.068 0.068-0.034 0.137 0 0.068 0.034 0.068-0.034 0.171 0 0.034 0 0.103-0.103 0.103-0.034 0-0.068 0.034-0.103-0.034-0.034-0.034 0-0.068 0.034-0.068 0.068 0 0.034-0.103 0.034-0.137 0-0.068 0-0.103 0-0.137 0-0.068 0.034-0.103 0.103-0.103 0.034-0.034 0.137-0.034 0.103 0.068z"></path>
<path fill="#3a76bc" d="M8.987 10.883c0.034 0 0.068-0.034 0.068-0.034 0.034 0.034 0.068 0.034 0.103 0.034s0.068 0.034 0.068 0.103c0 0.034 0.034 0.068-0.034 0.103-0.034 0-0.068 0.034-0.103 0.034s-0.103 0-0.137 0c-0.068 0.034-0.103 0.068-0.137 0-0.034-0.103 0.034-0.103 0.103-0.137 0.034 0 0.068-0.068 0.068-0.103z"></path>
<path fill="#3a76bc" d="M10.527 16.736c0-0.068 0-0.068 0.068-0.103 0.034 0 0.103 0.068 0.103 0.103 0.068 0.103 0.034 0.205 0.034 0.342 0 0.034-0.068 0.103-0.068 0.137-0.034 0.034-0.068 0.068-0.068 0.137 0 0.034-0.034 0.103-0.034 0.171 0 0.034 0.068 0.103 0.034 0.137 0 0-0.068 0.068-0.103 0.068-0.034-0.034-0.103-0.068-0.137-0.137-0.068-0.068-0.034-0.205-0.034-0.274s0-0.137 0-0.171c-0.034-0.068 0-0.103 0-0.171 0.034-0.034 0.034-0.103 0.068-0.137 0.068 0 0.068-0.068 0.137-0.103z"></path>
<path fill="#3a76bc" d="M12.718 15.196c0-0.034 0.103-0.137 0.103-0.137 0.068 0.034 0.034 0.137 0.034 0.171s-0.034 0.137-0.103 0.137c-0.068-0.034-0.034-0.137-0.034-0.171z"></path>
<path fill="#3a76bc" d="M13.711 15.367c0.103 0 0.171 0 0.274 0.068 0.068 0.034 0.137 0.103 0.205 0.171s0.137 0.137 0.171 0.205c0.068 0.034 0 0.205 0 0.274-0.034 0.068-0.137-0.171-0.171-0.171-0.034-0.103-0.103-0.171-0.137-0.24-0.034-0.034-0.171-0.171-0.205-0.171s-0.103 0-0.137-0.034c0 0-0.034-0.068 0-0.103z"></path>
<path fill="#3a76bc" d="M14.464 15.949c0.034 0.034 0.034 0.103 0.068 0.171 0 0.034 0.137 0.034 0.171 0.034s0.137 0 0.137 0.034c0.068 0.068 0.034 0.137-0.034 0.137-0.034-0.034-0.068-0.068-0.137-0.068s-0.103-0.034-0.171-0.034c-0.034-0.034-0.103-0.068-0.068-0.137 0.034-0.034 0-0.103 0.034-0.137z"></path>
<path fill="#3a76bc" d="M14.943 16.325c0.068 0 0.068 0 0.137 0.034 0.034 0 0.103 0 0.103 0 0.068 0 0.103 0 0.137 0.034 0.068 0 0.103 0.034 0.034 0.068-0.034 0.034-0.205-0.034-0.24-0.034-0.068 0-0.068-0.034-0.137-0.034-0.034 0-0.103-0.034-0.034-0.068z"></path>
<path fill="#3a76bc" d="M15.525 16.462c0.034 0 0.103 0 0.103 0 0.034 0.068 0.034 0.103-0.034 0.103-0.034 0-0.034 0-0.103 0-0.034-0.034-0.034 0-0.068 0-0.034 0.034-0.103 0.034-0.103 0-0.034 0-0.068-0.068-0.034-0.068 0.068 0 0.205 0 0.24-0.034z"></path>
<path fill="#3a76bc" d="M14.601 15.436c0.103 0 0.171-0.034 0.24-0.103 0.034-0.034 0.103-0.068 0.137-0.103s0.068-0.103 0.103-0.068c0.034 0 0.137 0.034 0.137 0.068-0.034 0.068-0.034 0.034-0.103 0.103-0.034 0-0.034 0.068 0 0.103 0.068 0.068 0.034 0.068 0 0.137-0.034 0.034-0.103 0.103-0.103 0.137 0 0.068-0.034 0.068-0.034 0.137-0.034 0.034-0.068 0.034-0.103 0s-0.068-0.034-0.137-0.034c-0.034 0-0.103 0.034-0.137 0 0 0-0.034-0.103-0.034-0.137-0.034-0.034-0.068-0.068-0.034-0.137 0-0.068 0-0.068 0.068-0.103z"></path>
<path fill="#3a76bc" d="M15.559 15.607c-0.103 0-0.205 0-0.308 0.068-0.068 0.034-0.103 0.137-0.103 0.24 0 0.034 0 0.103 0 0.137 0.034 0.034 0.103 0.103 0.137 0.103 0.103-0.034-0.068-0.171-0.034-0.24 0.034 0 0.034 0.034 0.068 0.068 0 0.034 0.034 0.068 0.068 0.068s0.103-0.034 0.068-0.034c0-0.034-0.034-0.068-0.068-0.068-0.103-0.068 0.068-0.068 0.103-0.068 0.103-0.103-0.103-0.068-0.137-0.068 0-0.068 0.068-0.103 0.137-0.103 0.034 0 0.137-0.034 0.068-0.103z"></path>
<path fill="#3a76bc" d="M15.627 15.367c0.034 0 0.137 0 0.137 0.034s-0.034 0.068-0.034 0.103c0 0.034 0.034 0 0.068 0.034s-0.034 0.103-0.034 0.103c-0.034 0.034-0.171-0.034-0.171-0.068-0.034-0.103 0.034-0.137 0.034-0.205z"></path>
<path fill="#3a76bc" d="M15.422 14.922c0-0.034 0.068-0.103 0.103-0.103s0.068 0.103 0.034 0.137c-0.034 0.068 0.034 0.068 0.034 0.137s0.068 0.137 0 0.171c-0.103 0-0.103-0.034-0.137-0.068s-0.068-0.034-0.103-0.034c0 0 0 0.034-0.034 0.034-0.068 0-0.068-0.068-0.034-0.103 0.068 0 0.103-0.034 0.171 0 0-0.034 0.034-0.068 0.034-0.103s-0.034-0.034-0.068-0.068z"></path>
<path fill="#3a76bc" d="M15.319 14.717c0.034 0 0.137 0.103 0.068 0.103s-0.137-0.068-0.068-0.103z"></path>
<path fill="#3a76bc" d="M15.456 14.614c0 0 0.034 0.068 0.034 0.103s-0.034 0-0.068 0c-0.068 0-0.034-0.171 0.034-0.103z"></path>
<path fill="#3a76bc" d="M15.251 14.203c0.034 0 0.068 0 0.103 0.068 0.034 0.034 0 0.068-0.034 0.103-0.034 0 0.034 0.103 0.034 0.137 0.034 0 0.034 0.103 0 0.103s-0.103-0.034-0.137-0.068c-0.034-0.034-0.034-0.068 0-0.103 0-0.068-0.103-0.24 0.034-0.24z"></path>
<path fill="#3a76bc" d="M15.319 13.69c0-0.034 0-0.068 0.034-0.103s0.068 0.034 0.068 0.034c0 0.068 0.034 0.171 0.034 0.205-0.034 0.103-0.103 0.103-0.171 0.068 0-0.034 0-0.171 0.034-0.205z"></path>
<path fill="#3a76bc" d="M15.901 15.572c-0.103-0.137 0.034-0.137 0.171-0.103 0.034 0 0.034 0.034 0.068 0.068 0 0.034 0 0.034-0.034 0.068 0 0.034 0.034 0.068 0.068 0.068 0.068 0.068 0.171-0.103 0.274-0.034s0.137 0.205 0.24 0.274c0.034 0 0.103 0.034 0.137 0.068s0.034 0.034 0.034 0.068c0.034 0 0.068 0 0.068 0.034 0.068 0.103 0.137 0.205 0.171 0.308 0.034 0.068 0.171 0.274 0.068 0.308-0.068 0.034-0.103-0.103-0.103-0.137-0.034-0.068-0.103 0-0.137-0.034-0.068-0.034-0.103-0.137-0.171-0.137-0.068-0.034-0.103 0.103-0.171 0.034-0.103-0.034-0.103-0.103-0.205-0.137-0.068-0.034-0.171-0.068-0.137-0.137 0.034-0.034 0.034-0.068 0.034-0.103 0-0.068 0-0.068-0.034-0.103-0.068-0.068-0.137-0.103-0.205-0.103-0.034 0-0.103 0-0.137-0.034 0 0-0.034-0.068-0.068-0.103-0.034 0-0.068-0.034 0-0.068 0.034 0 0.068-0.034 0.103-0.034 0 0 0 0-0.034-0.034z"></path>
<path fill="#3a76bc" d="M17.168 15.744c0-0.034 0-0.034 0-0.034 0.103 0 0.24 0.103 0.205 0.171 0 0.034-0.034 0.068-0.068 0.068-0.034-0.034-0.034-0.034-0.034-0.068-0.034-0.034-0.034-0.068-0.034-0.103-0.034 0-0.068 0-0.068-0.034z"></path>
<path fill="#3a76bc" d="M17.133 15.949c0 0 0.034-0.034 0.034-0.034 0.034 0 0.034 0.034 0.034 0.068s0 0.068 0 0.068c-0.034 0.034-0.034 0.034-0.068 0.034-0.034 0.068-0.103 0.034-0.068-0.034 0.034-0.034 0.103-0.034 0.068-0.103z"></path>
<path fill="#3a76bc" d="M17.373 15.949c0.103-0.034 0.103 0.205 0.034 0.24s-0.103-0.205-0.034-0.24z"></path>
<path fill="#3a76bc" d="M17.407 16.257c0.034-0.034 0.068-0.034 0.103-0.068 0 0.068 0 0.103 0 0.137-0.034 0.034-0.034 0.137-0.068 0.137-0.068 0.034-0.034-0.068-0.068-0.103 0-0.034-0.034 0 0-0.068 0 0 0.034-0.034 0.034-0.034z"></path>
<path fill="#3a76bc" d="M15.73 16.599c0.068 0 0.103 0 0.171 0 0.034 0 0.103 0 0.171 0s0.034 0.034 0.034 0.103c0 0.068-0.034 0.068-0.068 0.137-0.103 0.068 0.034 0.171 0.103 0.24 0.034 0.068 0.068 0.068 0.103 0s0.068-0.068 0.068-0.137 0.068-0.103 0.068-0.137 0.034-0.137 0.068-0.171c0.137-0.103 0.103 0.205 0.103 0.274s0 0.103 0.034 0.171c0.034 0.068 0.034 0.103 0.034 0.171-0.034 0.103 0 0.24 0.034 0.342 0 0.103 0 0.205 0 0.308 0 0.068 0 0.137-0.034 0.171 0 0.068-0.068 0.103-0.068 0.137-0.034 0.068-0.068 0.103-0.103 0.171 0 0.034-0.068 0.068-0.103 0.103 0 0.068-0.034 0.103-0.068 0.137-0.034 0.068-0.068 0.103-0.103 0.137-0.103 0.068-0.171 0.137-0.274 0.205-0.068 0-0.103 0-0.137 0-0.068 0-0.137 0.034-0.171 0.034-0.068 0-0.103 0-0.137-0.034s-0.034-0.103-0.068-0.171c0-0.103 0-0.205 0.034-0.342-0.068 0.034-0.103 0.103-0.137 0.068-0.068-0.034-0.034-0.068-0.068-0.137-0.068-0.103-0.103-0.205-0.24-0.24-0.24-0.034-0.445 0.034-0.65 0.068-0.034 0-0.103-0.068-0.137-0.068-0.034-0.034-0.068-0.103-0.034-0.137s0.068-0.103 0.068-0.137c0.034-0.068 0.034-0.137 0.034-0.171 0-0.068 0.034-0.103 0.068-0.137 0.034-0.068 0.034-0.103 0.068-0.171s0.103-0.171 0.205-0.205c0.103-0.034 0.205-0.068 0.308-0.137 0 0 0.034 0 0.068 0s0.034-0.034 0.068-0.034c0.034-0.068 0.068-0.068 0.103-0.103 0.103-0.103 0.205-0.137 0.308-0.137 0.103-0.034 0.171-0.137 0.274-0.171z"></path>
<path fill="#3a76bc" d="M15.354 19.132c0.034 0 0.068 0 0.103 0.034 0 0 0 0.034 0 0.034s0.068 0 0.068 0c0.034-0.034 0.068-0.068 0.103-0.068 0.068 0.034 0.068 0.068 0.034 0.103s-0.068 0.068-0.103 0.103c-0.034 0-0.034 0.068-0.068 0.103-0.068 0.034-0.137 0.034-0.137-0.068-0.068 0.034-0.137-0.034-0.137-0.103 0-0.034 0.068-0.103 0.103-0.137h0.034z"></path>
<path fill="#3a76bc" d="M9.706 9.993c0.034 0 0.068 0 0.137 0.034 0.068 0 0.068 0 0.103-0.034 0.068 0.034 0.034 0.103 0 0.137-0.068 0.034-0.103 0.068-0.205 0.068-0.068 0-0.137 0-0.137-0.068s0.068-0.103 0.103-0.137z"></path>
<path fill="#3a76bc" d="M15.114 10.986c0.137 0.068 0.274 0.205 0.377 0.274 0.034 0.068 0.034 0.068 0.068 0.103 0 0.068 0 0.068 0.034 0.103s0.205 0.137 0.137 0.171c-0.034 0.034-0.205-0.034-0.24-0.068s-0.034-0.171-0.068-0.205c-0.103-0.137-0.274-0.205-0.342-0.342 0.034 0 0.034-0.034 0.034-0.034z"></path>
<path fill="#3a76bc" d="M15.901 11.020c0 0 0.171 0.068 0.068 0.103-0.034 0-0.103 0.034-0.171-0.034 0.034 0 0.068-0.034 0.103-0.068z"></path>
<path fill="#3a76bc" d="M15.97 11.191c0.034 0.034 0.034 0.034 0 0.068s-0.068 0-0.103 0c-0.034 0-0.034-0.068 0-0.068s0.068 0 0.103 0z"></path>
<path fill="#3a76bc" d="M15.696 11.67c0.034 0.034 0.103 0.068 0.103 0.068 0.034 0 0.171-0.034 0.171 0 0.034 0.068 0.103 0.068 0.034 0.103-0.034 0.034-0.137 0.068-0.137 0.103 0 0-0.034 0.103-0.068 0.103-0.068-0.034-0.034-0.137-0.068-0.171 0-0.034-0.171-0.171-0.034-0.205z"></path>
<path fill="#3a76bc" d="M15.97 11.944c0.034 0.034 0 0.103 0 0.137 0.034 0.034 0.068 0.034 0.103 0.068 0 0.068-0.034 0.137-0.034 0.171 0.034 0.034 0.034 0.137 0.034 0.171 0 0-0.034 0.034-0.034 0.034 0 0.034 0.034 0.068 0 0.068 0 0.034-0.034 0.034-0.034 0.034 0 0.034 0 0.068-0.034 0.103 0 0.034-0.034 0.034-0.068 0.034-0.068 0.034-0.137 0.103-0.205 0.103 0 0.034-0.034 0.137-0.103 0.103-0.034-0.034 0-0.137 0.034-0.137 0.034-0.068 0.068-0.103 0.103-0.171 0.034-0.034 0.068-0.034 0.137-0.034-0.034-0.068-0.103-0.103-0.103-0.137s0.103-0.103 0.103-0.171c0.034-0.034-0.034-0.137 0-0.205 0.034-0.034 0.034-0.171 0.103-0.171z"></path>
<path fill="#3a76bc" d="M15.867 12.903c-0.068-0.034-0.24 0.068-0.171 0.103 0.068 0 0.171-0.034 0.171-0.103z"></path>
<path fill="#3a76bc" d="M15.662 13.040c0-0.034-0.034-0.034-0.034-0.068-0.034 0.034-0.137 0.171-0.068 0.205 0.034 0.034 0.034-0.034 0.068-0.068 0 0 0.068-0.034 0.034-0.068z"></path>
<path fill="#3a76bc" d="M16.552 10.199c0.137 0 0.205-0.034 0.274-0.137 0.034-0.034 0.068-0.068 0.103-0.068 0.068 0 0.103-0.034 0.171-0.068 0.034 0 0.103-0.034 0.137-0.034 0.068-0.034 0.068-0.068 0.137-0.103 0.103 0 0.205 0.034 0.308 0.068 0.068 0.034 0.24 0.034 0.24 0.137 0.034 0.034 0 0.068 0.034 0.137 0.034 0.034 0.068 0.103 0.068 0.137s-0.034 0.034-0.034 0.068c0 0.034 0 0.034 0 0.068-0.034 0.068-0.068 0.103-0.103 0.137s-0.068 0.068-0.137 0.068c-0.034 0-0.034-0.171-0.034-0.205-0.034 0-0.068 0-0.068 0.034-0.034 0-0.068-0.034-0.068-0.068-0.034 0.034-0.068 0.068-0.137 0.103-0.068 0-0.103 0-0.171-0.034-0.103 0-0.205 0-0.342 0-0.034 0-0.103 0-0.137-0.034-0.034 0-0.068-0.034-0.068 0s-0.034 0.034-0.068 0.068c-0.034 0-0.171 0-0.205 0-0.068 0-0.137 0-0.205 0 0.068-0.137 0.24-0.137 0.308-0.274z"></path>
<path fill="#3a76bc" d="M17.236 11.328c0.034 0 0.103 0.034 0.103 0.068 0 0.068-0.103 0.034-0.137 0.034s-0.103-0.034-0.103-0.068c0.034-0.034 0.103-0.034 0.137-0.034z"></path>
<path fill="#3a76bc" d="M16.997 11.431c0.034 0.034 0.068 0.034 0.103 0.068s-0.034 0.068-0.068 0.068c-0.034-0.034-0.103 0-0.137-0.068s0.034-0.034 0.103-0.068z"></path>
<path fill="#3a76bc" d="M18.639 12.184c0.068 0.034 0.068 0.034 0.103 0.068s0.068 0.103 0.034 0.137c-0.068 0.034-0.103-0.068-0.103-0.103-0.034-0.034-0.068-0.068-0.034-0.103z"></path>
<path fill="#3a76bc" d="M19.221 10.438c0.034-0.034 0.034-0.068 0.068-0.034 0.034 0 0.034 0 0.068 0.034s0.068 0.103 0.034 0.171c-0.034 0.068-0.068 0.068-0.137 0-0.068-0.034-0.034-0.137-0.034-0.171z"></path>
<path fill="#3a76bc" d="M19.735 9.788c0.034-0.068 0.068-0.137 0.137-0.171 0.034-0.034 0.205-0.068 0.171 0.034 0 0-0.068 0-0.103 0-0.034 0.034-0.068 0.068-0.068 0.103-0.034 0-0.068 0.034-0.068 0.068-0.034 0-0.103 0.034-0.068-0.034z"></path>
<path fill="#3a76bc" d="M19.974 9.754c0.068-0.034 0.103-0.034 0.171-0.034 0.034 0 0.034-0.103 0.034-0.103 0.034-0.068 0.068-0.103 0.103-0.137 0.068-0.034 0.103-0.034 0.171-0.034 0.137 0 0.24-0.034 0.342 0.034 0.034 0.034 0.034 0.034 0.103 0 0.068 0 0.103 0 0.171 0.034s0.103 0.068 0.171 0.103c0.034 0.034 0.068 0.068 0.137 0.103 0.034 0.034 0.068 0 0.137 0.034 0.068 0 0.103 0.034 0.171 0.068 0.034 0.034 0.034 0.034 0.034 0.137 0 0.068 0.034 0.103 0.068 0.171 0.034 0.034 0 0.068 0.034 0.137 0.034 0.034 0.068 0.103 0.068 0.171 0.034 0.034 0.034 0.068 0.068 0.103 0.068 0.034 0.103 0.103 0.103 0.137 0 0.137-0.103 0.171-0.205 0.171s-0.205-0.034-0.308-0.068c-0.137-0.068-0.205-0.103-0.308-0.205-0.034-0.034-0.068-0.103-0.103-0.103-0.068-0.034-0.103-0.068-0.103-0.103s0.034-0.137-0.034-0.137c-0.068 0-0.103-0.034-0.171-0.034-0.103 0-0.205-0.034-0.308-0.034-0.034 0-0.103 0-0.171 0.034 0 0 0.034 0.034 0 0.068 0 0-0.068 0-0.068 0 0 0.171 0.171 0.068 0.274 0.137 0.137 0.034 0.24 0.034 0.342 0.068 0.068 0.034 0.068 0.034 0.103 0.103 0.034 0.034 0.068 0.068 0.137 0.103s0.103 0.034 0.171 0.068c0.068 0 0.068 0.068 0 0.103-0.034 0-0.103 0-0.103 0.034-0.034 0.068 0 0.103 0 0.171 0 0.034 0 0.103-0.068 0.103-0.034-0.034-0.103-0.034-0.171-0.068s-0.308 0.068-0.308-0.068c0-0.068 0.068-0.103 0.068-0.137 0.034-0.068-0.034-0.068-0.068-0.103-0.068-0.034-0.103-0.034-0.171-0.068-0.068 0-0.137-0.034-0.171-0.103-0.034 0-0.068 0-0.068-0.034-0.034-0.034-0.034-0.068-0.068-0.103-0.034-0.068-0.068-0.103-0.137-0.103-0.103 0-0.103-0.068-0.137-0.137 0-0.034 0-0.068 0-0.103-0.034-0.068-0.034-0.034-0.068-0.034-0.034-0.034-0.034-0.034-0.034-0.068s-0.068-0.068-0.068-0.103c0.034-0.068 0.137 0 0.137 0.034 0.034 0 0.068-0.068 0.068-0.103s0-0.068 0.034-0.103z"></path>
<path fill="#3a76bc" d="M22.199 10.062c0.068-0.068 0.103-0.068 0.171-0.034 0.068 0.068 0.137 0.068 0.171 0.103 0.068 0.068 0.103 0.103 0.171 0.137 0 0.034 0.034 0.068 0 0.103-0.034 0-0.068 0-0.103 0-0.068 0-0.103-0.034-0.171-0.068-0.034-0.034-0.034-0.068-0.068-0.068-0.034-0.034-0.068 0-0.103 0-0.068 0.034-0.103 0.034-0.137-0.034-0.034-0.034-0.034-0.103 0-0.103s0.068 0 0.068-0.034z"></path>
<path fill="#3a76bc" d="M19.632 10.096c0-0.034 0.034-0.103 0.103-0.068 0.034 0.034 0 0.103 0 0.171-0.068-0.034-0.103-0.034-0.103-0.103z"></path>
<path fill="#3a76bc" d="M19.461 10.301c0-0.034 0.034-0.068 0.068-0.103s0.137-0.034 0.103 0.034c0 0.034-0.034 0.103-0.068 0.137-0.034 0.068-0.103 0-0.103-0.068z"></path>
<path fill="#3a76bc" d="M19.735 10.267c0.068-0.034 0.103 0.034 0.103 0.103 0.034 0.068 0 0.103-0.034 0.171-0.034 0-0.103-0.068-0.137-0.103s0.034-0.068 0.034-0.068c0.034 0 0-0.068 0-0.103 0 0 0.034 0 0.034 0z"></path>
<path fill="#3a76bc" d="M19.529 10.472c0.034-0.034 0.068-0.034 0.137 0 0.034 0.034 0.034 0.034 0.034 0.103-0.034 0 0 0.068 0 0.068 0 0.034 0.034 0.034 0.068 0.034s0.034 0.034 0.068 0.068c0 0.034 0.034 0.034 0.068 0.068 0 0.034-0.034 0.034-0.034 0.068-0.068 0.034-0.137 0-0.205-0.034-0.034 0-0.103 0-0.171-0.068 0 0 0.034-0.103 0.034-0.137 0-0.068-0.068-0.137 0-0.171z"></path>
<path fill="#3a76bc" d="M24.664 16.36c-0.068-0.068-0.103-0.171-0.137-0.24 0-0.034-0.103-0.068-0.103-0.103-0.068-0.034-0.103-0.034-0.137-0.034-0.103-0.034-0.171-0.068-0.274-0.103-0.034 0-0.068-0.034-0.103-0.034-0.068 0-0.103 0-0.171 0 0.034-0.103 0.034-0.171 0-0.24-0.068-0.068-0.103-0.137-0.171-0.171-0.103 0-0.171-0.034-0.24-0.068-0.034-0.034-0.068-0.068-0.068-0.103-0.034-0.034-0.068-0.068-0.103-0.103-0.068-0.034-0.137-0.103-0.205-0.137s-0.137-0.137-0.205-0.171c-0.034 0-0.068 0-0.103-0.034-0.068 0-0.103-0.068-0.137 0-0.034 0.034-0.103 0.103-0.205 0.103 0.034-0.034 0.068-0.068 0.103-0.103s0.034-0.034 0.034-0.068c-0.034 0-0.034-0.034-0.068-0.034-0.103 0.068-0.24 0.068-0.342 0.103-0.034 0-0.068 0.068-0.103 0.103 0 0 0-0.034-0.034 0 0 0 0 0-0.034 0 0 0.034-0.034 0.068-0.068 0.068-0.034-0.034-0.103-0.034-0.137-0.034s-0.103 0.068-0.137 0.068c-0.068-0.034-0.103-0.034-0.137-0.068s-0.034-0.137 0-0.171c0-0.103 0.034-0.24-0.103-0.24-0.103 0-0.24 0.103-0.308 0-0.034-0.103 0.171-0.205 0.034-0.274-0.103-0.068-0.205 0.034-0.308 0.068-0.034 0.034-0.103 0.034-0.137 0s-0.068-0.103-0.103-0.137c-0.034-0.068-0.034-0.068-0.068-0.171 0-0.068 0.034-0.068 0.068-0.137 0-0.034 0-0.103 0.068-0.171 0.034-0.034 0.068 0 0.137 0 0.034 0 0.103-0.034 0.137-0.034 0.068-0.034 0.103-0.034 0.171-0.068 0.068 0 0.103-0.034 0.171-0.034 0.068 0.034 0.103 0.068 0.137 0.137 0.034 0.034 0 0.068 0 0.137 0 0.034 0.068 0.137 0.103 0.068 0.103-0.103 0.103-0.205 0.034-0.308 0-0.034-0.034-0.068-0.034-0.103 0-0.068 0-0.103 0.034-0.137 0.068-0.103 0.137-0.171 0.205-0.24 0.034-0.068 0.034-0.205 0.034-0.274 0.034-0.068 0.034-0.205 0.137-0.24 0.103-0.068 0.034-0.171 0.103-0.24 0.034-0.068 0.103-0.137 0.171-0.24 0.034-0.034 0.034-0.034 0.034-0.103 0-0.034-0.103-0.034-0.068-0.103 0.034 0 0.068 0 0.068 0 0.034-0.034 0-0.034-0.034-0.068-0.034 0-0.103 0.034-0.137 0.034 0.034 0.034 0.068 0.034 0.068 0.103-0.034 0.034-0.068 0.068-0.103 0.034-0.034-0.068 0-0.068-0.068-0.068-0.034-0.034-0.103 0-0.137 0 0.034-0.034 0.068-0.103 0.103-0.103 0.068 0 0.103-0.034 0.171-0.034 0.103 0 0.24-0.034 0.24-0.137 0.034-0.068-0.034-0.103-0.068-0.137 0-0.034-0.034-0.068-0.034-0.068-0.034 0-0.068 0.034-0.103 0.034-0.068 0-0.205-0.068-0.308-0.103-0.137-0.034-0.171-0.068-0.274-0.171 0-0.034-0.034-0.103-0.103-0.068-0.034 0.034-0.068 0.034-0.137 0-0.103-0.034-0.205-0.068-0.308-0.034-0.068 0-0.103 0-0.103 0.068-0.034 0.103 0 0.103 0.068 0.137 0.034 0.034 0 0.068 0.034 0.103s0.103 0.068 0.103 0.103c0 0.103 0.034 0.205 0.034 0.308-0.068-0.034-0.103-0.103-0.171-0.103-0.103-0.034-0.137 0-0.205-0.068-0.068-0.034-0.137-0.068-0.205-0.068 0-0.034-0.068 0-0.068-0.034-0.034-0.034-0.068-0.068-0.068-0.068-0.068-0.068-0.068-0.103 0-0.137 0.034-0.068 0.103-0.103 0.137-0.171 0-0.034-0.068-0.171-0.034-0.171 0.034-0.034 0.103-0.068 0.171-0.103-0.034-0.068-0.171-0.137-0.24-0.171s-0.103-0.068-0.137-0.103c-0.068-0.034-0.068-0.103-0.137-0.103-0.034-0.034-0.068-0.034-0.103 0.034 0 0.034 0.034 0.103 0.034 0.137 0.034 0.068 0.103 0.103 0.068 0.171-0.068 0.068-0.103 0.034-0.171 0.068-0.137 0-0.205 0-0.308-0.034-0.068-0.034-0.103-0.068-0.171-0.103-0.034-0.034-0.068-0.068-0.137-0.068-0.103-0.034-0.205 0-0.308-0.068-0.103-0.034-0.205-0.103-0.308-0.137-0.034-0.034-0.068-0.068-0.103-0.068 0-0.034-0.034-0.068-0.068-0.068-0.068-0.034-0.171 0.034-0.274 0.068-0.068 0.034-0.171 0.034-0.205 0.068s-0.068 0.103-0.068 0.137c0 0.034-0.034 0.034-0.068 0.034-0.103 0.034-0.068 0-0.068 0.068-0.034 0.034-0.068 0.068-0.068 0.068-0.068 0.068-0.068 0.171-0.034 0.24s0.034 0.068 0 0.103c-0.034 0.068-0.034 0.068-0.103 0.034-0.068 0-0.171-0.034-0.24 0.034 0.034 0.034 0.068 0.068 0.068 0.068s0.034 0 0.068 0c0.034 0.034 0.103 0.034 0.171 0.034 0.068-0.034 0.068-0.068 0.137-0.034 0.034 0.034 0.103 0 0.137 0 0.137-0.034 0.24-0.034 0.377 0 0.103 0 0.171 0.137 0.205 0.205 0.103 0.205 0.171 0.411 0.274 0.616 0 0.034 0.034 0.034 0.034 0.034 0 0.034 0.034 0.068 0.034 0.103s0 0.103 0 0.171c-0.034 0.137-0.034 0.24-0.034 0.377 0 0.034 0 0.103 0.034 0.137 0 0.034 0.068 0.103 0.068 0.137 0.034 0.068 0.068 0.137 0.103 0.171 0.034 0.068 0.068 0.103 0.103 0.137 0.034 0.137 0.068 0.205 0.137 0.308s0.103 0.205 0.205 0.274c0.068 0.034 0-0.103 0-0.137-0.034-0.034-0.068-0.068-0.068-0.137 0.034-0.068 0-0.068-0.034-0.137-0.034-0.034-0.103-0.068-0.137-0.137s0-0.103 0.068-0.068c0.034 0 0.068 0.068 0.068 0.103 0.034 0.068 0.068 0.103 0.068 0.137 0.034 0.068 0.068 0.103 0.103 0.171 0.034 0.034 0.068 0.034 0.103 0.103 0 0.034 0.034 0.103 0.068 0.137s0.103 0 0.137 0.068c0.034 0.034 0.034 0.103 0.068 0.137 0.103 0.205 0.274 0.411 0.479 0.411 0.068 0 0.137-0.034 0.171 0 0.068 0 0.103 0.034 0.171 0.068 0.068 0.068 0.171 0.137 0.274 0.171 0.034 0 0.103-0.034 0.137 0 0.068 0.034 0.068 0.103 0.103 0.137s0.103 0.068 0.137 0.068c0.034 0 0.068 0 0.068 0 0.034 0.034 0.034 0.068 0.068 0.103s0.034-0.068 0.068-0.103c0.034-0.068 0.068-0.068 0.137-0.034 0.068 0.068 0.137 0.205 0.103 0.308-0.034 0.034-0.068 0.068-0.103 0.137-0.034 0.034-0.034 0.103-0.068 0.171s0 0.24 0 0.308c0.034 0.034 0.034 0.103 0.034 0.171s0.034 0.103 0.034 0.171c0.068 0.103 0.034 0.205 0.068 0.308 0 0.068-0.034 0.137-0.034 0.171 0.034 0.034 0.068 0.103 0.103 0.137 0.034 0.068 0.068 0.103 0.137 0.137 0 0.034 0 0.137 0 0.171s0 0.068-0.034 0.103c0 0.034-0.034 0.068-0.034 0.103 0 0.103-0.034 0.171-0.068 0.24 0 0.034-0.034 0.068-0.034 0.103 0 0-0.068 0.034-0.068 0.034 0 0.068-0.034 0.103-0.034 0.137-0.034 0.034-0.068 0.068-0.068 0.103s0 0.068 0 0.103 0 0.034-0.034 0.068c-0.034 0.068-0.068 0.137-0.103 0.205-0.068 0.068-0.103 0.137-0.137 0.205 0 0.068-0.068 0.137-0.103 0.205 0.034 0 0.068 0.034 0.034 0.068 0 0.034-0.068 0.034-0.103 0.068s-0.137 0.068-0.137 0.137c-0.034 0.068 0.034 0.205-0.034 0.24-0.034 0.034-0.103 0.137 0 0.171-0.068 0.068-0.137 0.137-0.034 0.24 0 0 0.068 0.034 0.068 0.068 0.034 0.034 0 0.103 0 0.137 0.068 0 0.068-0.034 0.103-0.034 0.034 0.034 0.034 0.034 0.068 0.034 0 0.034 0.068 0.034 0.068 0.034 0.034-0.034 0.034-0.034 0-0.068 0-0.034 0-0.034 0-0.068s0-0.068 0-0.068c-0.034-0.103-0.068 0.034-0.103-0.034 0-0.034 0-0.034 0.034-0.068s0.034 0 0.068-0.034c0.068 0 0.068-0.034 0.103-0.103 0.068-0.103 0.103-0.205 0.171-0.274 0.068-0.137 0.137-0.205 0.24-0.308 0.103-0.068 0.171-0.137 0.24-0.171 0.103-0.034 0.24-0.068 0.342-0.137 0.068-0.068 0.137-0.137 0.24-0.24 0.068-0.068 0.205-0.103 0.274-0.171 0.068-0.034 0.103-0.034 0.171-0.068 0.068 0 0.103-0.034 0.137-0.068 0.103-0.068 0.171-0.103 0.274-0.171 0.068-0.068 0.137-0.171 0.205-0.205 0.103-0.034 0.171-0.068 0.24-0.137s0.171-0.137 0.205-0.24c0.034-0.068 0.034-0.103 0.103-0.137 0-0.034 0-0.103 0.034-0.137 0.034-0.103 0.103-0.171 0.171-0.274 0.068-0.068 0.103-0.137 0.171-0.24 0-0.034 0.034-0.103 0.068-0.137s0-0.068-0.034-0.137zM21.412 12.355c0.034-0.034 0.068 0 0.103-0.034s0.068 0 0.068 0.034c0.034 0.034-0.171 0.034-0.205 0.034 0 0 0.034-0.034 0.034-0.034zM21.070 12.321c0.068 0 0.068 0 0.137 0.034 0.034 0.034 0.137 0.068 0.068 0.103-0.034 0-0.103-0.034-0.137-0.034-0.034-0.034-0.171-0.103-0.068-0.103zM21.001 12.355c-0.034 0.034-0.137 0.24-0.205 0.205 0-0.034 0.034-0.034 0.034-0.068s0.034-0.068 0.034-0.103c0-0.068 0.103-0.103 0.137-0.034zM20.659 12.184c0.034 0 0.103 0 0.171-0.034 0.034-0.034-0.103-0.068-0.068-0.137 0.034-0.034 0.137 0.068 0.171 0.068 0.034 0.034 0.034 0.103 0.068 0.171-0.068 0-0.137 0-0.205 0-0.034 0-0.171 0-0.137-0.068z"></path>
<path fill="#3a76bc" d="M22.199 12.15c0 0.034-0.034 0.068-0.068 0.103-0.068 0-0.034-0.068-0.034-0.103 0.034-0.034 0.068-0.103 0.103-0.103 0.068 0 0.068 0.068 0 0.103z"></path>
<path fill="#3a76bc" d="M22.233 11.705c0.034 0 0.068-0.068 0.103-0.034s-0.034 0.068-0.034 0.103c0.034 0.034 0.171 0 0.171 0.068 0.034 0.034 0 0.103-0.034 0.103s-0.068-0.034-0.068-0.068c-0.034-0.034-0.171 0.103-0.205 0.034s0.034-0.171 0.068-0.205z"></path>
<path fill="#3a76bc" d="M21.446 14.135c0.103 0.034 0.205 0.103 0.308 0.103 0.034 0 0.068 0.034 0.068 0.068s-0.103 0.034-0.137 0.034c-0.103-0.034-0.171-0.068-0.274-0.137-0.034 0-0.068-0.034-0.068-0.103 0-0.034 0.103 0.034 0.103 0.034z"></path>
<path fill="#3a76bc" d="M22.165 14.306c0.068 0 0.171-0.034 0.205 0.068 0 0.068-0.068 0-0.068 0-0.034 0-0.103 0-0.137 0s-0.068 0-0.103-0.034c-0.034 0-0.034-0.034-0.068-0.068s0.068-0.034 0.068-0.034c0.068 0 0.068 0 0.103 0.068z"></path>
<path fill="#3a76bc" d="M22.473 14.409c0.034-0.034 0.034-0.034 0.103 0 0 0 0.034 0.034 0.034 0.068s-0.103-0.034-0.137-0.034c0-0.034 0-0.034 0-0.034z"></path>
<path fill="#3a76bc" d="M20.522 11.054c0.068 0.034 0.103 0.034 0.137 0.068 0 0.068 0 0.103-0.068 0.068-0.068 0-0.103-0.034-0.137-0.068 0-0.034 0-0.068 0-0.068s0.068 0 0.068 0z"></path>
<path fill="#3a76bc" d="M24.664 6.639l0.034 0.034-0.24 0.034 0.034-0.068h0.171z"></path>
<path fill="#3a76bc" d="M1.32 11.499l0.171 0.034-0.068 0.274 2.054 0.513 0.103-0.274 0.171 0.068-0.377 1.575-0.205-0.034 0.068-0.308-2.054-0.548-0.068 0.308-0.205-0.034 0.411-1.575z"></path>
<path fill="#3a76bc" d="M1.97 9.754l-0.479 1.164 0.171 0.103 0.137-0.308 1.985 0.787-0.103 0.274 0.171 0.068 0.308-0.787-0.171-0.103-0.137 0.274-1.335-0.513 1.883-0.24 0.445-0.821-2.054-1.13 0.171-0.274-0.171-0.103-0.445 0.787 0.171 0.103 0.171-0.274 1.266 0.719-1.985 0.274z"></path>
<path fill="#3a76bc" d="M2.963 7.871c0.068-0.205 1.643-2.225 1.848-2.362l0.445 0.411-0.171 0.171-0.171-0.137c0 0-0.342 0.171-0.582 0.445l1.54 1.232v0.479l-0.513 0.719-0.171-0.103 0.171-0.24-1.643-1.301c0 0-0.24 0.411-0.308 0.685l0.171 0.171-0.103 0.137-0.513-0.308z"></path>
<path fill="#3a76bc" d="M5.017 5.304c0.034-0.103 1.883-1.746 2.088-1.814l0.342 0.479-0.137 0.137-0.171-0.205c0 0-0.479 0.137-0.993 0.616l0.616 0.685c0 0 0.342-0.171 0.308-0.274l-0.137-0.137 0.137-0.137 0.445 0.548-0.137 0.103-0.171-0.171-0.274 0.24c0 0 0 0.034 0 0.068 0.034 0 0.616 0.65 0.616 0.65s0 0 0.034-0.034c0.068-0.034 0.548-0.513 0.582-0.685 0 0-0.034-0.068-0.103-0.137s-0.034-0.068-0.034-0.068l0.171-0.137 0.377 0.548-1.198 0.958h-0.821l-1.198-1.335-0.205 0.24-0.137-0.137z"></path>
<path fill="#3a76bc" d="M11.383 1.642l-0.068-0.205 1.13-0.308 1.438 1.335-0.137-1.369-0.308 0.034-0.034-0.171 0.89-0.137 0.034 0.205-0.308 0.068 0.274 2.293-0.787 0.103-1.403-1.335 0.377 1.369 0.24-0.068 0.034 0.205-0.753 0.205-0.068-0.171 0.274-0.068-0.582-2.054-0.24 0.068z"></path>
<path fill="#3a76bc" d="M17.681 3.216l-0.958-2.43-0.821-0.034-1.061 2.362-0.24 0.034 0.034 0.205c0.103-0.034 0.787-0.034 0.787-0.034l-0.034-0.24h-0.205l0.205-0.513 0.958-0.034 0.24 0.548-0.274 0.034 0.034 0.205c0.205-0.034 1.575 0.137 1.575 0.137v-0.205l-0.24-0.034zM15.49 2.36l0.445-0.924 0.342 0.924h-0.787z"></path>
<path fill="#3a76bc" d="M18.092 1.539c0 0 0.103-0.513 0.137-0.582 0-0.034 1.746 0.274 2.773 0.719l-0.171 0.582-0.24-0.068 0.068-0.24c0 0-0.513-0.308-0.582-0.308 0 0-0.513 1.951-0.513 1.985 0 0 0.274 0.103 0.274 0.103l-0.034 0.205c0 0-1.438-0.445-1.609-0.445l0.034-0.171 0.308 0.034 0.513-1.951-0.685-0.034-0.068 0.205-0.205-0.034z"></path>
<path fill="#3a76bc" d="M21.378 1.813c0 0 1.472 0.65 1.472 0.685 0.034 0.034-0.068 0.205-0.068 0.205l-0.274-0.137-0.89 1.883 0.274 0.171-0.103 0.171c0 0-1.335-0.685-1.472-0.685l0.034-0.171 0.308 0.103 0.89-1.917-0.274-0.171 0.103-0.137z"></path>
<path fill="#3a76bc" d="M25.143 4.003l-1.061-0.753c-1.164-0.411-1.643 0.274-1.78 0.821-0.171 0.753 0.342 1.13 0.342 1.13s0.719 0.65 0.89 0.719c0.616 0.342 1.403 0.171 1.746-0.377 0.513-0.856-0.137-1.54-0.137-1.54zM24.698 4.174c-0.068 0.24-0.137 0.445-0.753 1.198 0 0-0.24 0.342-0.548 0.205 0 0-0.205-0.137-0.24-0.171-0.068-0.068-0.137-0.137-0.137-0.274 0.034-0.137 0-0.24 0.137-0.411 0.103-0.171 0.548-0.821 0.548-0.821s0.205-0.274 0.342-0.274c0.103 0 0.205 0 0.274 0.034 0.068 0 0.171 0.103 0.171 0.103s0.274 0.137 0.205 0.411z"></path>
<path fill="#3a76bc" d="M24.869 6.673l0.034-0.034h0.377l-0.068 0.034h-0.342zM25.006 6.536l1.266-1.266-0.205-0.24 0.137-0.137 0.856 0.89-0.205 1.746 0.856-0.65-0.171-0.24 0.171-0.137 0.548 0.753-0.171 0.137-0.171-0.24-1.883 1.335-0.274-0.342v-0.24l0.205-1.951-0.582 0.582h-0.377z"></path>
<path fill="#3a76bc" d="M29.456 9.377l-0.445-0.821-2.499 0.308-0.171-0.24-0.137 0.103 0.445 0.685 0.137-0.103-0.103-0.24 0.548-0.068 0.479 0.89-0.377 0.411-0.24-0.445-0.171 0.068 0.753 1.746 0.171-0.068-0.034-0.24 1.643-1.985zM27.47 8.966v0.034l1.095-0.137-0.719 0.821-0.377-0.719z"></path>
<path fill="#3a76bc" d="M30.14 11.67l-0.068-0.342 0.171-0.034 0.445 1.643-0.205 0.068-0.103-0.342-2.019 0.513c0 0 0.103 0.719 0.274 0.787h0.308v0.24l-0.616 0.103c0 0-0.377-2.225-0.513-2.362l0.137-0.068 0.137 0.308 2.054-0.513z"></path>
<path fill="#3a76bc" d="M4.982 22.726l-0.582-1.061c-0.89-0.753-1.609-0.274-1.917 0.137-0.445 0.616-0.171 1.13-0.171 1.13s0.411 0.821 0.513 0.958c0.411 0.548 1.232 0.548 1.711 0.205 0.65-0.513 0.445-1.369 0.445-1.369zM4.572 22.795c-0.034 0.034-0.479 0.377-1.198 0.753 0 0-0.308 0.171-0.513-0.034 0 0-0.171-0.171-0.171-0.24-0.034-0.068-0.068-0.137 0-0.274 0.068-0.103 0.068-0.205 0.24-0.308s0.856-0.513 0.856-0.513c0 0 0.308-0.171 0.411-0.103 0.137 0.034 0.205 0.068 0.24 0.103 0.068 0.068 0.103 0.171 0.103 0.171s0.205 0.24 0.034 0.445z"></path>
<path fill="#3a76bc" d="M3.066 17.934l-0.034-0.342 0.205-0.034c0 0 0.171 1.232 0.205 1.301 0.068 0.034-1.095 0.787-1.095 0.787l1.335 0.171 0.445 1.13-0.171 0.103-0.171-0.342-1.985 0.719 0.103 0.308-0.171 0.068-0.548-1.575 0.171-0.068 0.137 0.308 1.335-0.513-1.746-0.171-0.137-0.513 1.506-0.958-1.438 0.24 0.068 0.274-0.171 0.068-0.171-0.89 0.171-0.034 0.068 0.308 2.088-0.342z"></path>
<path fill="#3a76bc" d="M3.853 25.122l-0.205-0.274-0.171 0.103 0.582 0.753 0.137-0.103-0.205-0.274 1.164-0.89-0.445 2.019 0.65 0.65 1.609-1.677 0.171 0.171 0.103-0.171-0.513-0.513-0.137 0.137 0.171 0.205-1.027 1.027 0.445-2.019-0.65-0.787-0.171 0.137 0.171 0.171-1.677 1.335z"></path>
<path fill="#3a76bc" d="M7.618 27.484l-0.65 0.719c0 0 0.445 0.377 0.856 0.479l0.171-0.274 0.205 0.137-0.342 0.513c0 0-1.78-1.266-1.985-1.506l0.103-0.137 0.205 0.171 1.335-1.677-0.171-0.171 0.103-0.171c0 0 0.993 0.89 1.814 1.369l-0.342 0.548-0.171-0.103 0.137-0.274c0 0-0.308-0.479-0.582-0.582l-0.582 0.753 0.274 0.205 0.137-0.137 0.171 0.103-0.342 0.548-0.171-0.068 0.137-0.24-0.308-0.205z"></path>
<path fill="#3a76bc" d="M9.192 27.587l0.274-0.548c0 0 1.575 0.856 2.43 1.095l-0.171 0.582-0.24-0.068 0.068-0.24c0 0-0.479-0.342-0.513-0.377l-0.856 1.951 0.274 0.103-0.068 0.171-1.506-0.65 0.068-0.171 0.308 0.137 0.821-1.951c0 0-0.445-0.137-0.582-0.068l-0.137 0.137-0.171-0.103z"></path>
<path fill="#3a76bc" d="M12.307 30.838c0.137 0.034 1.711 0.308 1.711 0.308v-0.205h-0.171l-0.479-2.43-0.924-0.24-1.506 1.951-0.24-0.034-0.068 0.137 0.719 0.274 0.103-0.137-0.24-0.103 0.342-0.445 1.095 0.274 0.068 0.548-0.411-0.034v0.137zM11.691 29.709l0.685-0.787 0.24 1.061-0.924-0.274z"></path>
<path fill="#3a76bc" d="M11.623 3.764l-0.034 0.034c0 0-0.103 0.034-0.171 0.034-0.034 0-0.137-0.068-0.171-0.103 0-0.034-0.137-0.308-0.171-0.342-0.034 0-0.205-0.205-0.377-0.171s-0.274 0-0.274 0c0.65-0.548 0.068-1.335-0.479-1.266-0.479 0.068-2.396 1.266-2.396 1.266l0.137 0.137 0.24-0.137 1.027 1.848-0.24 0.171 0.137 0.137 1.335-0.753-0.103-0.205c0 0-0.103 0.103-0.171 0.103-0.068 0.034-0.068 0-0.068 0l-0.445-0.821 0.377-0.171c0 0 0.137-0.034 0.205-0.068 0.034 0 0.103 0.068 0.103 0.068s0.308 0.582 0.377 0.685c0.034 0.068 0.171 0.068 0.205 0.068 0.034 0.034 0.377-0.068 0.377-0.068l0.65-0.24-0.068-0.205zM9.774 3.25c-0.034 0.068-0.479 0.274-0.479 0.274l-0.479-0.856 0.513-0.24c0 0 0.137-0.034 0.205 0.034s0.342 0.616 0.342 0.616c0 0-0.034 0.137-0.103 0.171z"></path>
<path fill="#3a76bc" d="M17.544 30.941l-0.034 0.034c0 0-0.205 0-0.274-0.068 0-0.034 0-0.034-0.034-0.034 0.034 0 0.034-0.034 0-0.171 0-0.342-0.377-0.616-0.377-0.616s0.513-0.274 0.513-0.685c0-0.411-0.377-0.65-0.479-0.65-0.103-0.034-0.308-0.034-0.308-0.034-0.616 0.068-2.191-0.068-2.191-0.068l0.034 0.205 0.24 0.034-0.103 2.088h-0.24c0 0-0.034 0.205 0 0.205s1.506 0.068 1.506 0.068l-0.034-0.205h-0.205l0.034-0.958c0 0 0.445 0 0.479 0 0.034-0.034 0.137 0.171 0.137 0.171s0.034 0.719 0.034 0.753c0 0.034 0.171 0.171 0.24 0.205 0.068 0 1.13-0.068 1.13-0.068l-0.068-0.205zM16.243 29.743c0 0 0 0.103-0.068 0.137-0.068 0-0.548 0-0.548 0l0.068-0.958h0.479c0 0 0.068 0.068 0.103 0.103 0 0.068-0.034 0.719-0.034 0.719z"></path>
<path fill="#3a76bc" d="M17.373 28.613l1.643-0.274c0 0 0.068 0.137 0.068 0.171s-0.24 0-0.205 0.068c0 0.034 0.787 0.616 0.787 0.616s0.479-0.89 0.445-1.027l-0.205 0.068-0.068-0.171 0.753-0.274 0.103 0.137-0.24 0.137-0.582 1.403 0.24 0.924 0.274-0.034 0.068 0.171-1.575 0.377-0.068-0.137 0.308-0.103-0.24-0.924-1.266-0.958-0.205 0.034-0.034-0.205z"></path>
<path fill="#3a76bc" d="M21.925 27.142c0 0 1.677-0.958 1.985-1.403l0.411 0.513-0.171 0.171-0.205-0.205c0 0-0.548 0.137-0.787 0.377l0.513 0.821 0.308-0.24-0.103-0.205 0.205-0.137 0.411 0.513-0.205 0.171-0.137-0.171-0.342 0.24 0.479 0.787 0.24-0.171 0.137 0.171-1.369 0.924-0.137-0.171 0.24-0.171-1.095-1.814-0.308 0.137-0.068-0.137z"></path>
<path fill="#3a76bc" d="M24.15 25.601l1.027-1.095 0.171 0.171-0.171 0.171 1.13 1.164c0 0 0.274 0.171 0.513 0 0.24-0.137 0.411-0.274 0.342-0.582-0.068-0.274-0.137-0.274-0.205-0.342-0.103-0.068-1.13-0.993-1.13-0.993l-0.171 0.24-0.171-0.171 0.479-0.616 0.171 0.137-0.137 0.205 1.164 0.993c0 0 0.274 0.411 0.274 0.65-0.034 0.24-0.068 0.377-0.103 0.411-0.068 0.068-0.753 0.787-0.753 0.787s-0.342 0.205-0.513 0.205c-0.137 0-0.411-0.103-0.479-0.205-0.103-0.068-1.164-1.164-1.164-1.164l-0.171 0.171-0.103-0.137z"></path>
<path fill="#3a76bc" d="M26.272 23.445l-0.137-0.103 0.479-0.821 2.054-0.411-1.232-0.616-0.137 0.24-0.171-0.103 0.342-0.685 0.171 0.068-0.103 0.24 2.088 0.993-0.377 0.821-2.019 0.342 1.095 0.821 0.171-0.308 0.171 0.103-0.513 0.753-0.137-0.103 0.171-0.274-1.746-1.164-0.171 0.205z"></path>
<path fill="#3a76bc" d="M29.49 18.14c-0.924-0.205-1.335 0.65-1.335 0.65l-0.582 1.917 0.171 0.068 0.103-0.274 1.985 0.685-0.103 0.342 0.205 0.068c0 0 0.616-1.78 0.616-2.191 0.034-0.411-0.274-1.095-1.061-1.266zM30.311 19.714l-0.137 0.513c0 0-2.019-0.65-2.019-0.685 0 0 0.034-0.24 0.068-0.411 0.068-0.171 0.24-0.103 0.24-0.103s1.506 0.411 1.711 0.479c0.205 0.034 0.137 0.205 0.137 0.205z"></path>
<path fill="#3a76bc" d="M1.662 15.572l0.274-0.753 0.205 0.753h0.787l-0.65 0.479 0.24 0.753-0.616-0.479-0.685 0.513 0.274-0.787-0.616-0.479h0.787z"></path>
<path fill="#3a76bc" d="M29.421 15.778l0.274-0.753 0.205 0.753h0.787l-0.65 0.479 0.274 0.753-0.65-0.479-0.685 0.513 0.274-0.787-0.616-0.479h0.787z"></path>
</svg>
