<!-- Generated by IcoMoon.io -->
<svg version="1.1" xmlns="http://www.w3.org/2000/svg" width="80" height="32" viewBox="0 0 80 32">
<title>XOF</title>
<path fill="#4d2005" d="M9.196 8.144c-0.143-0.021-0.288-0.021-0.429-0.042 0.121-0.041 0.22-0.064 0.331-0.103 0.501-0.128 1.307-0.436 1.909-1.172 0.433-0.54 0.723-1.27 0.723-2.083 0-0.248 0-2.481-2.468-3.211-0.766-0.231-1.408-0.252-2.382-0.274h-5.869v14.661h5.992c0.537 0 1.289-0.020 2.152-0.271 2.431-0.713 3.178-2.711 3.178-3.98 0-1.087-0.557-3.129-3.137-3.525zM7.769 14.375c-0.475 0.085-3.151 0.085-3.773 0.085h-1.122v-11.701h3.575c1.051 0 1.76 0 2.403 0.422 0.493 0.327 0.906 0.874 0.906 1.708 0 1.21-0.906 2.209-2.551 2.479-0.462 0.085-2.676 0.104-2.676 0.104l-0.539 1.484c0.019 0.001 0.241 0.001 0.263 0.001 1.205 0.025 3.869 0.051 4.755 0.517 1.185 0.603 1.359 1.608 1.359 2.152 0 1.19-0.835 2.437-2.6 2.748zM54.838 1.281h-1.794l-5.946 14.639h1.924l4.79-12.514c0.134 0.466 0.155 0.526 0.235 0.753l2.057 5.573h-3.38l-0.517 1.48h4.446l1.748 4.707h2.106l-5.67-14.639zM71.447 14.791c-3.522 0-5.673-2.811-5.673-6.146 0-3.544 2.356-6.278 5.57-6.278 3.125 0 5.602 2.567 5.602 6.19 0 3.194-2.015 6.234-5.499 6.234zM79.016 8.539c0-4.274-3.17-7.631-7.673-7.631-4.752 0-7.614 3.772-7.614 7.774 0 4.15 2.922 7.592 7.676 7.592 4.591 0 7.611-3.442 7.611-7.735zM42.801 15.92h-8.176v-14.661h8.176v1.482h-6.272v4.731h5.483l-0.537 1.482h-4.946v5.485h6.27l0.002 1.481zM28.345 15.866c-1.269 0.346-2.521 0.431-3.448 0.431-5.7 0-8.468-3.649-8.468-7.633 0-4.398 3.149-7.755 8.156-7.755 1.146 0 2.668 0.145 4.196 0.789v1.939c-0.631-0.376-2.115-1.269-4.111-1.269-3.609 0-6.157 2.522-6.157 6.072 0 3.603 2.354 6.399 6.631 6.399 1.271 0 2.359-0.341 3.643-0.982-0.004 0.347-0.004 1.852-0.004 1.852s-0.425 0.157-0.436 0.158z"></path>
<path fill="#4d2005" d="M77.278 31.083c-0.446 0-0.629-0.124-0.635-0.124l-0.105-0.396c0.008 0 0.143 0.054 0.402 0.105 0.078 0.015 0.165 0.027 0.254 0.027 0.052 0 0.308-0.003 0.433-0.092 0.125-0.077 0.186-0.17 0.186-0.33 0-0.155-0.061-0.24-0.186-0.335-0.325-0.252-0.785-0.326-0.969-0.648-0.065-0.112-0.088-0.243-0.088-0.379 0-0.178 0.065-0.368 0.234-0.515 0.18-0.171 0.42-0.229 0.667-0.229 0.43 0 0.597 0.105 0.6 0.112l0.098 0.41c-0.017-0.015-0.109-0.069-0.291-0.108-0.082-0.019-0.179-0.035-0.276-0.035-0.186 0-0.314 0.027-0.394 0.082-0.12 0.076-0.162 0.194-0.162 0.298 0 0.096 0.019 0.162 0.104 0.244 0.216 0.214 0.732 0.279 1.002 0.612 0.102 0.12 0.159 0.263 0.159 0.448 0 0.704-0.604 0.851-1.032 0.851zM74.090 31.041h-1.533v-2.846h1.498l0.102 0.41h-1.128v0.783h0.988v0.402h-0.988v0.839h1.182l-0.12 0.411zM70.019 28.606h-0.582v2.435h-0.461v-2.435h-0.692l0.084-0.41h1.748l-0.097 0.41zM65.803 31.041l-0.154-0.541h-0.977l-0.163 0.541h-0.471l0.874-2.846h0.511l0.887 2.846h-0.508zM65.179 28.714h-0.008l-0.393 1.398h0.772l-0.371-1.398zM61.838 28.606h-0.565v2.435h-0.477v-2.435h-0.692l0.085-0.41h1.745l-0.096 0.41zM56.876 31.084c-0.454 0-0.641-0.124-0.649-0.124l-0.106-0.396c0.008 0 0.145 0.054 0.412 0.105 0.082 0.015 0.17 0.027 0.259 0.027 0.054 0 0.311-0.003 0.433-0.092 0.124-0.077 0.186-0.17 0.186-0.33 0-0.155-0.062-0.24-0.186-0.335-0.325-0.252-0.796-0.326-0.982-0.648-0.068-0.112-0.091-0.243-0.091-0.379 0-0.178 0.066-0.368 0.237-0.515 0.19-0.171 0.434-0.229 0.681-0.229 0.43 0 0.595 0.105 0.599 0.112l0.089 0.41c-0.014-0.015-0.101-0.069-0.282-0.108-0.081-0.019-0.177-0.035-0.273-0.035-0.186 0-0.316 0.027-0.396 0.082-0.12 0.076-0.162 0.194-0.162 0.298 0 0.096 0.019 0.162 0.104 0.244 0.217 0.214 0.731 0.279 0.995 0.612 0.092 0.12 0.15 0.263 0.15 0.448 0 0.704-0.587 0.851-1.019 0.851zM49.599 31.041l-1.167-1.948v1.948h-0.464v-2.846h0.425l1.164 1.933v-1.933h0.465v2.846h-0.423zM45.007 31.041l-0.154-0.541h-0.994l-0.163 0.541h-0.471l0.875-2.846h0.517l0.897 2.846h-0.509zM44.369 28.714h-0.008l-0.395 1.398h0.792l-0.389-1.398zM40.732 30.96c0 0-0.209 0.132-0.618 0.132-0.35 0-0.597-0.108-0.809-0.302-0.333-0.297-0.379-0.842-0.379-1.16 0-0.247 0.063-0.784 0.419-1.141 0.194-0.193 0.477-0.33 0.873-0.33 0.298 0 0.468 0.114 0.468 0.114l0.096 0.41c-0.019-0.007-0.212-0.128-0.54-0.128-0.223 0-0.432 0.089-0.583 0.259-0.157 0.183-0.243 0.465-0.243 0.815 0 0.364 0.105 0.654 0.251 0.812 0.151 0.15 0.321 0.22 0.633 0.22 0.263 0 0.573-0.145 0.573-0.145l-0.14 0.443zM35.629 28.196h0.476v2.846h-0.476v-2.846zM32.41 31.041l-0.531-0.916h-0.453v0.916h-0.468v-2.846h0.902c0.558 0 0.995 0.216 0.995 0.967 0 0.672-0.469 0.857-0.534 0.88l0.613 0.998h-0.523zM31.86 28.582h-0.434v1.179h0.434c0.074 0 0.499-0.039 0.499-0.582 0-0.55-0.352-0.597-0.499-0.597zM27.151 28.606v0.799h0.991v0.419h-0.991v1.218h-0.473v-2.846h1.509l0.098 0.41h-1.134zM23.506 31.041l-0.154-0.541h-0.977l-0.162 0.541h-0.471l0.876-2.846h0.516l0.881 2.846h-0.509zM22.883 28.714h-0.008l-0.395 1.398h0.776l-0.373-1.398zM16.706 28.606h-0.582v2.435h-0.474v-2.435h-0.677l0.085-0.41h1.745l-0.096 0.41zM11.332 31.084c-0.456 0-0.634-0.124-0.642-0.124l-0.104-0.396c0.008 0 0.143 0.054 0.403 0.105 0.082 0.015 0.17 0.027 0.259 0.027 0.053 0 0.308-0.003 0.432-0.092 0.127-0.077 0.189-0.17 0.189-0.33 0-0.155-0.062-0.24-0.189-0.335-0.325-0.252-0.796-0.326-0.975-0.648-0.065-0.112-0.088-0.243-0.088-0.379 0-0.178 0.065-0.368 0.227-0.515 0.191-0.171 0.433-0.229 0.681-0.229 0.431 0 0.598 0.105 0.602 0.112l0.097 0.41c-0.017-0.015-0.11-0.069-0.291-0.108-0.082-0.019-0.177-0.035-0.278-0.035-0.185 0-0.312 0.027-0.393 0.082-0.12 0.076-0.162 0.194-0.162 0.298 0 0.096 0.019 0.162 0.105 0.244 0.216 0.214 0.732 0.279 1.002 0.612 0.101 0.12 0.158 0.263 0.158 0.448 0 0.704-0.602 0.851-1.034 0.851zM8.099 31.041h-1.54v-2.846h1.505l0.1 0.41h-1.139v0.783h1v0.402h-1v0.839h1.193l-0.12 0.411zM3.496 31.041h-0.498l-0.439-2.040-0.455 2.040h-0.501l-0.697-2.846h0.488l0.467 2.199 0.459-2.199h0.471l0.447 2.184 0.472-2.184h0.49l-0.703 2.846zM77.188 22.232v0.797h1.009v0.425h-1.009v1.26h-0.481v-2.9h1.539l0.097 0.418h-1.155zM71.756 24.765c-0.94 0-1.198-0.695-1.209-1.516-0.013-0.803 0.318-1.486 1.209-1.486 0.911 0 1.178 0.706 1.173 1.486 0 0.83-0.346 1.516-1.173 1.516zM71.756 22.173c-0.617-0.012-0.704 0.485-0.704 1.075 0 0.727 0.181 1.094 0.704 1.087 0.54-0.008 0.671-0.462 0.671-1.078 0-0.5-0.065-1.072-0.671-1.084zM63.572 24.714l-1.052-1.433v1.433h-0.491v-2.9h0.491v1.227l1.038-1.227h0.557l-1.133 1.34 1.153 1.559h-0.562zM57.558 24.714l-1.186-1.985v1.985h-0.474v-2.9h0.435l1.182 1.952v-1.952h0.463v2.9h-0.419zM51.525 24.714l-0.158-0.569h-1.009l-0.165 0.569h-0.467l0.875-2.9h0.53l0.913 2.9h-0.519zM50.875 22.343h-0.007l-0.404 1.408h0.805l-0.393-1.408zM45.797 24.481c-0.228 0.217-0.584 0.233-0.864 0.233h-0.911v-2.9h0.919c0.234 0 0.421 0.020 0.605 0.099 0.212 0.094 0.38 0.296 0.38 0.615 0 0.189-0.042 0.329-0.114 0.42-0.078 0.119-0.229 0.198-0.373 0.246 0.144 0.022 0.29 0.066 0.404 0.174 0.141 0.126 0.189 0.3 0.189 0.465 0 0.221-0.048 0.462-0.236 0.648zM45.281 22.291c-0.091-0.082-0.281-0.082-0.348-0.082h-0.435v0.811h0.435c0.099 0 0.491-0.007 0.491-0.402 0-0.157-0.045-0.253-0.143-0.327zM45.424 23.529c-0.113-0.122-0.31-0.13-0.508-0.13h-0.419v0.897h0.419c0.155 0 0.367 0.004 0.501-0.122 0.071-0.072 0.116-0.174 0.116-0.332 0-0.138-0.041-0.237-0.109-0.312zM36.901 24.714h-1.504v-2.9h0.479v2.489h1.124l-0.099 0.41zM30.893 24.714l-0.155-0.569h-1.008l-0.166 0.569h-0.482l0.892-2.9h0.528l0.895 2.9h-0.504zM30.246 22.343h-0.007l-0.402 1.408h0.804l-0.394-1.408zM25.007 24.714l-0.542-0.952h-0.461v0.952h-0.477v-2.9h0.918c0.569 0 1.014 0.221 1.014 0.986 0 0.665-0.475 0.856-0.543 0.88l0.623 1.034h-0.532zM24.445 22.21h-0.441v1.182h0.441c0.074 0 0.511-0.039 0.511-0.575 0-0.56-0.361-0.606-0.511-0.606zM19.588 22.232h-0.575v2.482h-0.485v-2.482h-0.708l0.089-0.418h1.778l-0.099 0.418zM13.891 24.714l-1.186-1.985v1.985h-0.466v-2.9h0.435l1.175 1.952v-1.952h0.478v2.9h-0.436zM8.274 24.714h-1.569v-2.9h1.534l0.102 0.418h-1.16v0.781h1.019v0.41h-1.019v0.873h1.216l-0.122 0.419zM2.942 24.631c0 0-0.213 0.134-0.633 0.134-0.353 0-0.609-0.111-0.822-0.308-0.33-0.32-0.376-0.876-0.376-1.2 0-0.252 0.062-0.781 0.416-1.142 0.197-0.198 0.486-0.335 0.888-0.335 0.306 0 0.479 0.114 0.479 0.114l0.098 0.417c-0.019-0.007-0.216-0.129-0.553-0.129-0.223 0-0.435 0.090-0.59 0.264-0.164 0.185-0.25 0.461-0.25 0.811 0 0.371 0.106 0.667 0.259 0.829 0.153 0.166 0.326 0.241 0.641 0.241 0.27 0 0.586-0.163 0.586-0.163l-0.142 0.466z"></path>
</svg>
