<!-- Generated by IcoMoon.io -->
<svg version="1.1" xmlns="http://www.w3.org/2000/svg" width="46" height="32" viewBox="0 0 46 32">
<title>XPF</title>
<path d="M11.128 0.505c-0.395 0.255-0.848 0.547-1.015 0.654l-0.296 0.19-0.084 0.703c-0.046 0.388-0.11 0.912-0.141 1.171-0.030 0.255-0.053 0.49-0.046 0.521 0.008 0.038 0.296-0.167 0.855-0.608 0.969-0.764 0.817-0.536 1.133-1.748 0.099-0.376 0.217-0.832 0.266-1.019 0.049-0.182 0.080-0.331 0.065-0.327-0.015 0-0.346 0.209-0.737 0.464z"></path>
<path d="M10.47 4.264c-0.46 0.376-0.87 0.711-0.916 0.737-0.061 0.042-0.084 0.122-0.122 0.422-0.091 0.734-0.505 4.12-0.654 5.313-0.084 0.669-0.209 1.71-0.285 2.318-0.19 1.551-0.448 3.641-0.646 5.248-0.095 0.756-0.217 1.817-0.266 2.356-0.053 0.543-0.103 1.079-0.114 1.193s-0.091 0.969-0.175 1.9c-0.084 0.931-0.201 2.238-0.262 2.907s-0.163 1.771-0.228 2.451c-0.141 1.52-0.141 1.429-0.015 1.459 0.057 0.015 0.106 0.019 0.114 0.011 0.015-0.011 0.422-2.474 1.019-6.164 0.182-1.11 0.346-2.083 0.365-2.166s0.053-0.281 0.076-0.437c0.057-0.391 0.312-1.98 0.722-4.485 0.19-1.159 0.456-2.786 0.589-3.61 0.137-0.825 0.357-2.178 0.494-3.002 0.133-0.825 0.342-2.083 0.456-2.793 0.118-0.711 0.289-1.756 0.38-2.318 0.27-1.646 0.327-2.007 0.315-2.014-0.008-0.008-0.388 0.296-0.848 0.673z"></path>
<path d="M38.617 9.281c-0.019 0.068-0.217 0.707-0.437 1.418-0.217 0.711-0.578 1.874-0.798 2.584-1.889 6.111-1.923 6.229-1.923 6.286 0 0.027 0.19 0.042 0.585 0.042h0.585l0.061-0.182c0.030-0.099 0.445-1.437 0.916-2.968 0.471-1.535 0.863-2.801 0.874-2.809 0.008-0.008 0.030 0.049 0.053 0.129 0.053 0.198 0.707 2.782 1.205 4.747 0.224 0.878 0.418 1.608 0.429 1.623s0.239-0.38 0.502-0.874c0.266-0.494 0.92-1.722 1.459-2.725 0.536-1.003 1.11-2.071 1.269-2.372l0.289-0.543 0.027 0.429c0.011 0.239 0.053 1.562 0.087 2.942s0.068 2.531 0.076 2.554c0.011 0.038 0.167 0.049 0.608 0.049h0.593l-0.019-0.429c-0.011-0.232-0.030-0.753-0.042-1.148-0.042-1.554-0.137-4.8-0.19-6.537-0.030-1.003-0.057-1.942-0.057-2.086 0-0.16-0.015-0.251-0.034-0.228-0.019 0.019-0.543 1.007-1.167 2.2-2.653 5.081-2.934 5.61-2.964 5.61-0.019 0-0.053-0.080-0.076-0.182-0.046-0.194-0.486-2.014-0.927-3.831-0.148-0.608-0.414-1.71-0.593-2.451s-0.331-1.353-0.338-1.361c-0.008-0.008-0.030 0.046-0.053 0.114z"></path>
<path d="M30.822 9.9c-1.877 0.308-3.55 1.851-4.215 3.884-0.509 1.558-0.35 3.147 0.433 4.325 1.072 1.611 3.082 2.098 4.952 1.197 1.558-0.753 2.683-2.193 3.113-3.991 0.129-0.536 0.163-1.554 0.072-2.075-0.243-1.402-1.003-2.482-2.132-3.021-0.209-0.103-0.524-0.217-0.703-0.262-0.426-0.103-1.095-0.129-1.52-0.057zM31.981 11.154c0.372 0.095 0.813 0.334 1.095 0.589 1.091 1.003 1.3 2.85 0.502 4.458-0.224 0.448-0.46 0.775-0.851 1.178-0.733 0.753-1.562 1.14-2.455 1.144-0.475 0-0.722-0.049-1.11-0.228-1.687-0.768-2.178-3.158-1.057-5.127 0.638-1.121 1.684-1.9 2.774-2.067 0.293-0.046 0.809-0.023 1.102 0.053z"></path>
<path d="M13.127 10.052c-0.004 0.019-0.019 0.114-0.030 0.209-0.027 0.22-0.65 4.694-1.106 7.954-0.095 0.669-0.171 1.254-0.171 1.304v0.091h2.242c1.235 0 2.242-0.004 2.246-0.011 0-0.004 0.038-0.277 0.087-0.608l0.084-0.597h-1.665c-1.634 0-1.665 0-1.665-0.076 0-0.042 0.103-0.806 0.228-1.699 0.125-0.897 0.228-1.63 0.228-1.638 0-0.004 0.726-0.008 1.611-0.008 0.889 0 1.623-0.015 1.634-0.030 0.011-0.023 0.175-1.106 0.175-1.174 0-0.008-0.726-0.011-1.615-0.011-1.486 0-1.615-0.004-1.615-0.065 0-0.148 0.312-2.318 0.342-2.398l0.038-0.084h3.299l0.019-0.125c0.061-0.338 0.148-1.019 0.133-1.034-0.038-0.038-4.488-0.038-4.5 0z"></path>
<path d="M19.519 10.026c-0.011 0.023-0.152 0.962-0.308 2.086-0.688 4.925-1.011 7.225-1.034 7.354l-0.023 0.144h0.965c1.729 0 2.387-0.106 3.17-0.502 1.877-0.95 3.086-3.139 2.972-5.389-0.061-1.178-0.433-2.056-1.178-2.759-0.486-0.464-1.045-0.737-1.775-0.87-0.441-0.080-2.748-0.133-2.79-0.065zM22.176 11.341c0.851 0.236 1.482 0.87 1.763 1.779 0.266 0.882 0.152 2.041-0.3 2.983-0.483 1.015-1.254 1.752-2.166 2.071-0.357 0.125-0.791 0.182-1.376 0.182h-0.562v-0.087c0-0.049 0.049-0.448 0.114-0.886 0.061-0.437 0.198-1.418 0.304-2.181s0.243-1.737 0.304-2.166c0.061-0.429 0.141-1.007 0.175-1.288l0.068-0.505 0.726 0.019c0.505 0.011 0.791 0.034 0.95 0.080z"></path>
<path d="M24.684 21.727c0.361 0.027 1.083 0.027 1.083 0 0-0.015-0.277-0.023-0.616-0.019-0.342 0.004-0.551 0.011-0.467 0.019z"></path>
<path d="M27.705 21.727c0 0.019 0.236 0.027 0.521 0.019 0.764-0.015 0.806-0.034 0.099-0.042-0.342 0-0.619 0.008-0.619 0.023z"></path>
<path d="M25 21.993c0.171 0.008 0.452 0.008 0.627 0 0.171-0.004 0.030-0.011-0.315-0.011s-0.486 0.008-0.312 0.011z"></path>
<path d="M27.85 21.993c0.171 0.008 0.452 0.008 0.627 0 0.171-0.004 0.030-0.011-0.315-0.011s-0.486 0.008-0.312 0.011z"></path>
<path d="M25.152 22.259c0.175 0.008 0.448 0.008 0.608 0 0.16-0.004 0.019-0.011-0.315-0.011s-0.467 0.008-0.293 0.011z"></path>
<path d="M27.736 22.259c0.175 0.008 0.448 0.008 0.608 0 0.16-0.004 0.019-0.011-0.315-0.011s-0.467 0.008-0.293 0.011z"></path>
<path d="M25.285 22.525c0.16 0.008 0.426 0.008 0.589 0 0.16-0.004 0.027-0.011-0.296-0.011s-0.456 0.008-0.293 0.011z"></path>
<path d="M27.603 22.525c0.16 0.008 0.426 0.008 0.589 0 0.16-0.004 0.027-0.011-0.296-0.011s-0.456 0.008-0.293 0.011z"></path>
<path d="M23.84 22.791c0.182 0.008 0.475 0.008 0.646 0 0.171-0.004 0.023-0.011-0.334-0.011-0.353 0-0.494 0.008-0.312 0.011z"></path>
<path d="M25.399 22.791c0.16 0.008 0.426 0.008 0.589 0 0.16-0.004 0.027-0.011-0.296-0.011s-0.456 0.008-0.293 0.011z"></path>
<path d="M27.489 22.791c0.16 0.008 0.426 0.008 0.589 0 0.16-0.004 0.027-0.011-0.296-0.011s-0.456 0.008-0.293 0.011z"></path>
<path d="M29.028 22.791c0.171 0.008 0.452 0.008 0.627 0 0.171-0.004 0.030-0.011-0.315-0.011s-0.486 0.008-0.312 0.011z"></path>
<path d="M23.715 23.031c0 0.023 0.22 0.038 0.589 0.038s0.589-0.015 0.589-0.038c0-0.023-0.22-0.038-0.589-0.038s-0.589 0.015-0.589 0.038z"></path>
<path d="M25.273 23.031c0 0.023 0.209 0.038 0.551 0.038s0.551-0.015 0.551-0.038c0-0.023-0.209-0.038-0.551-0.038s-0.551 0.015-0.551 0.038z"></path>
<path d="M27.116 23.031c-0.015 0.023 0.179 0.038 0.547 0.038 0.357 0 0.574-0.015 0.574-0.038s-0.209-0.038-0.547-0.038c-0.327 0-0.559 0.015-0.574 0.038z"></path>
<path d="M28.58 23.031c0 0.023 0.213 0.038 0.566 0.038 0.338 0 0.578-0.015 0.593-0.038 0.015-0.027-0.182-0.038-0.566-0.038-0.369 0-0.593 0.015-0.593 0.038z"></path>
<path d="M24.163 23.285c0.175 0.008 0.448 0.008 0.608 0 0.16-0.004 0.019-0.011-0.315-0.011s-0.467 0.008-0.293 0.011z"></path>
<path d="M25.646 23.285c0.148 0.008 0.399 0.008 0.551 0 0.148-0.004 0.027-0.011-0.277-0.011s-0.426 0.008-0.274 0.011z"></path>
<path d="M27.299 23.285c0.163 0.008 0.418 0.008 0.57 0 0.152-0.004 0.019-0.011-0.296-0.011-0.312 0-0.437 0.008-0.274 0.011z"></path>
<path d="M28.743 23.285c0.16 0.008 0.426 0.008 0.589 0 0.16-0.004 0.027-0.011-0.296-0.011s-0.456 0.008-0.293 0.011z"></path>
<path d="M24.296 23.552c0.16 0.008 0.426 0.008 0.589 0 0.16-0.004 0.027-0.011-0.296-0.011s-0.456 0.008-0.293 0.011z"></path>
<path d="M25.722 23.552c0.148 0.008 0.399 0.008 0.551 0 0.148-0.004 0.027-0.011-0.277-0.011s-0.426 0.008-0.274 0.011z"></path>
<path d="M27.204 23.552c0.148 0.008 0.399 0.008 0.551 0 0.148-0.004 0.027-0.011-0.277-0.011s-0.426 0.008-0.274 0.011z"></path>
<path d="M28.591 23.552c0.16 0.008 0.426 0.008 0.589 0 0.16-0.004 0.027-0.011-0.296-0.011s-0.456 0.008-0.293 0.011z"></path>
<path d="M24.171 23.799c0 0.019 0.251 0.027 0.562 0.023 0.562-0.008 0.494-0.019-0.194-0.038-0.201-0.008-0.369 0-0.369 0.015z"></path>
<path d="M22.814 23.818c0.182 0.008 0.479 0.008 0.665 0 0.182-0.004 0.030-0.011-0.334-0.011s-0.517 0.008-0.331 0.011z"></path>
<path d="M25.813 23.818c0.141 0.008 0.38 0.008 0.532 0 0.152-0.004 0.038-0.011-0.255-0.011s-0.418 0.004-0.277 0.011z"></path>
<path d="M27.128 23.818c0.148 0.008 0.399 0.008 0.551 0 0.148-0.004 0.027-0.011-0.277-0.011s-0.426 0.008-0.274 0.011z"></path>
<path d="M28.515 23.818c0.163 0.008 0.418 0.008 0.57 0 0.152-0.004 0.019-0.011-0.296-0.011-0.312 0-0.437 0.008-0.274 0.011z"></path>
<path d="M29.997 23.818c0.182 0.008 0.479 0.008 0.665 0 0.182-0.004 0.030-0.011-0.334-0.011s-0.517 0.008-0.331 0.011z"></path>
<path d="M23.118 24.046c0.16 0.008 0.426 0.008 0.589 0 0.16-0.004 0.027-0.011-0.296-0.011s-0.456 0.008-0.293 0.011z"></path>
<path d="M24.524 24.046c0.163 0.008 0.418 0.008 0.57 0 0.152-0.004 0.019-0.011-0.296-0.011-0.312 0-0.437 0.008-0.274 0.011z"></path>
<path d="M25.874 24.046c0.148 0.008 0.399 0.008 0.551 0 0.148-0.004 0.027-0.011-0.277-0.011s-0.426 0.008-0.274 0.011z"></path>
<path d="M27.067 24.046c0.141 0.008 0.38 0.008 0.532 0 0.152-0.004 0.038-0.011-0.255-0.011s-0.418 0.004-0.277 0.011z"></path>
<path d="M28.42 24.046c0.148 0.008 0.399 0.008 0.551 0 0.148-0.004 0.027-0.011-0.277-0.011s-0.426 0.008-0.274 0.011z"></path>
<path d="M29.807 24.046c0.16 0.008 0.426 0.008 0.589 0 0.16-0.004 0.027-0.011-0.296-0.011s-0.456 0.008-0.293 0.011z"></path>
<path d="M23.289 24.312c0.148 0.008 0.399 0.008 0.551 0 0.148-0.004 0.027-0.011-0.277-0.011s-0.426 0.008-0.274 0.011z"></path>
<path d="M24.619 24.312c0.148 0.008 0.399 0.008 0.551 0 0.148-0.004 0.027-0.011-0.277-0.011s-0.426 0.008-0.274 0.011z"></path>
<path d="M25.927 24.312c0.141 0.008 0.38 0.008 0.532 0 0.152-0.004 0.038-0.011-0.255-0.011s-0.418 0.004-0.277 0.011z"></path>
<path d="M27.014 24.312c0.148 0.008 0.399 0.008 0.551 0 0.148-0.004 0.027-0.011-0.277-0.011s-0.426 0.008-0.274 0.011z"></path>
<path d="M28.325 24.312c0.163 0.008 0.418 0.008 0.57 0 0.152-0.004 0.019-0.011-0.296-0.011-0.312 0-0.437 0.008-0.274 0.011z"></path>
<path d="M29.651 24.312c0.141 0.008 0.38 0.008 0.532 0 0.152-0.004 0.038-0.011-0.255-0.011s-0.418 0.004-0.277 0.011z"></path>
<path d="M29.777 24.551l-0.494 0.023 0.505 0.008c0.315 0.004 0.502-0.008 0.502-0.030s-0.004-0.034-0.008-0.030c-0.008 0.004-0.232 0.019-0.505 0.030z"></path>
<path d="M23.422 24.578c0.141 0.008 0.369 0.008 0.513 0 0.141-0.008 0.023-0.011-0.258-0.011s-0.399 0.004-0.255 0.011z"></path>
<path d="M24.695 24.578c0.148 0.008 0.399 0.008 0.551 0 0.148-0.004 0.027-0.011-0.277-0.011s-0.426 0.008-0.274 0.011z"></path>
<path d="M26.254 24.578c0.274 0.008 0.73 0.008 1.007 0 0.274-0.004 0.049-0.011-0.505-0.011s-0.779 0.008-0.502 0.011z"></path>
<path d="M28.268 24.578c0.148 0.008 0.399 0.008 0.551 0 0.148-0.004 0.027-0.011-0.277-0.011s-0.426 0.008-0.274 0.011z"></path>
<path d="M28.72 24.65c-0.015 0.015 0.004 0.049 0.042 0.076 0.053 0.042-0.004 0.053-0.391 0.057-0.536 0.008-0.509 0.027 0.057 0.042l0.395 0.011v0.228l-0.422 0.011c-0.414 0.011-0.426 0.008-0.437-0.076s-0.023-0.087-0.521-0.099c-0.498-0.011-0.509-0.008-0.448 0.061 0.099 0.106 0.080 0.122-0.125 0.122-0.125 0-0.251-0.030-0.353-0.084-0.129-0.065-0.247-0.084-0.589-0.099l-0.429-0.019 0.027 0.103 0.023 0.099h-0.418c-0.399 0-0.422-0.004-0.433-0.080s-0.034-0.084-0.277-0.084c-0.635 0.004-0.718 0.011-0.673 0.057 0.072 0.072 0.053 0.106-0.068 0.106-0.114 0-0.163-0.087-0.065-0.125 0.023-0.011-0.072-0.023-0.213-0.023-0.236-0.004-0.255 0-0.201 0.057 0.049 0.049 0.061 0.16 0.061 0.627v0.574l-0.11 0.11c-0.148 0.148-0.338 0.152-0.502 0.004l-0.114-0.103-0.023-0.521c-0.015-0.422-0.011-0.54 0.038-0.635l0.057-0.118h-0.243c-0.213 0-0.239 0.008-0.194 0.053 0.038 0.038 0.061 0.213 0.076 0.646 0.019 0.41 0.042 0.627 0.084 0.703 0.148 0.289 0.654 0.388 0.962 0.182 0.179-0.118 0.502-0.148 0.502-0.049 0 0.030-0.023 0.065-0.046 0.072-0.027 0.011 0.175 0.023 0.452 0.023 0.467 0.004 0.502 0 0.524-0.072 0.023-0.068 0.057-0.076 0.441-0.076 0.228 0 0.414 0.015 0.414 0.030s-0.023 0.053-0.046 0.080c-0.080 0.080 0.825 0.042 0.992-0.046 0.129-0.065 0.536-0.091 0.536-0.034 0 0.015-0.019 0.049-0.046 0.076-0.034 0.034 0.065 0.046 0.456 0.046 0.475 0 0.502-0.004 0.502-0.076s0.027-0.076 0.426-0.076c0.418 0 0.422 0 0.353 0.076s-0.065 0.076 0.201 0.076h0.27l-0.057-0.106c-0.034-0.065-0.053-0.22-0.053-0.437v-0.331h0.285c0.22 0 0.293 0.015 0.308 0.057 0.034 0.084 0.091 0.068 0.091-0.019 0-0.057 0.027-0.076 0.11-0.076 0.091 0 0.11 0.015 0.11 0.095v0.095h-0.414c-0.266 0-0.414 0.015-0.414 0.042 0 0.023 0.144 0.034 0.41 0.030l0.407-0.008 0.011 0.103 0.011 0.099h-0.422c-0.274 0-0.414 0.015-0.399 0.038 0.011 0.023 0.194 0.038 0.41 0.038 0.388 0 0.391 0 0.399 0.095l0.008 0.095-0.779 0.015 0.372 0.011c0.365 0.015 0.41 0.030 0.323 0.118-0.034 0.034 0.008 0.046 0.19 0.046 0.228 0 0.274-0.023 0.201-0.099-0.023-0.019-0.042-0.334-0.049-0.699l-0.011-0.665h0.205c0.167 0.004 0.217 0.019 0.274 0.091 0.156 0.194 0.011 0.46-0.251 0.46-0.072 0-0.133 0.015-0.133 0.034s0.125 0.22 0.277 0.445l0.274 0.414 0.304 0.008c0.346 0.011 0.49-0.011 0.452-0.068-0.034-0.061 0.095-0.369 0.163-0.384 0.030-0.008 0.175-0.008 0.319 0 0.251 0.011 0.266 0.019 0.323 0.129 0.038 0.072 0.053 0.16 0.038 0.232-0.019 0.103-0.015 0.11 0.065 0.087 0.046-0.011 0.152-0.023 0.232-0.023 0.129 0 0.141-0.008 0.091-0.049-0.034-0.023-0.213-0.38-0.391-0.787-0.441-0.988-0.395-0.916-0.475-0.756-0.038 0.072-0.201 0.437-0.361 0.813-0.296 0.692-0.361 0.806-0.429 0.764-0.046-0.027-0.509-0.673-0.494-0.688 0.008-0.004 0.049-0.030 0.099-0.053 0.209-0.11 0.293-0.426 0.175-0.654-0.087-0.171-0.255-0.224-0.718-0.224-0.384 0-0.399 0.004-0.361 0.072 0.019 0.042 0.038 0.084 0.038 0.095s-0.182 0.027-0.407 0.034l-0.41 0.011 0.817 0.015v0.217l-0.388 0.008c-0.426 0.004-0.566 0.042-0.179 0.046 0.194 0 0.224 0.008 0.152 0.038-0.049 0.019-0.175 0.023-0.277 0.011l-0.186-0.027 0.023-0.54 0.274 0.004c0.205 0 0.293 0.019 0.35 0.068 0.072 0.065 0.076 0.065 0.087-0.023 0.008-0.072 0.042-0.091 0.182-0.11l0.171-0.023-0.179-0.004c-0.129-0.008-0.182-0.023-0.182-0.061 0-0.030-0.023-0.061-0.049-0.072-0.080-0.030-1.034-0.034-1.064-0.004zM23.821 25.224c-0.011 0.095-0.027 0.106-0.144 0.106s-0.133-0.011-0.144-0.106c-0.011-0.099-0.004-0.103 0.144-0.103s0.156 0.004 0.144 0.103zM24.635 25.186c0.065 0.057 0.068 0.057 0.068 0s0.057-0.065 0.437-0.065h0.437v0.228l-1.045 0.015 0.524 0.011 0.521 0.015v0.224h-0.456c-0.395 0-0.456-0.008-0.456-0.061 0-0.046-0.011-0.053-0.046-0.023-0.027 0.019-0.156 0.046-0.285 0.053l-0.239 0.015v-0.106c0-0.095 0.015-0.106 0.125-0.114l0.122-0.004-0.122-0.015c-0.11-0.015-0.125-0.030-0.125-0.129 0-0.11 0-0.11 0.236-0.11 0.163 0 0.255 0.019 0.304 0.065zM26.398 25.201c0.072 0.042 0.129 0.095 0.129 0.114s-0.152 0.034-0.342 0.034h-0.342v-0.114c0-0.114 0-0.114 0.213-0.114 0.152 0 0.255 0.023 0.342 0.080zM27.059 25.235c0 0.095-0.015 0.114-0.091 0.114-0.061 0-0.122-0.042-0.175-0.114l-0.080-0.114h0.171c0.167 0 0.175 0.004 0.175 0.114zM27.888 25.167c0.038 0.038 0.053 0.038 0.080 0 0.023-0.034 0.137-0.046 0.445-0.038 0.41 0.011 0.41 0.011 0.41 0.106v0.095l-0.49 0.019-0.494 0.023 0.486 0.008c0.285 0.004 0.486 0.023 0.486 0.046 0.023 0.179 0.042 0.171-0.441 0.171-0.414 0-0.456-0.008-0.445-0.068 0.015-0.080-0.019-0.084-0.091-0.008-0.038 0.038-0.133 0.057-0.285 0.057-0.213 0-0.224-0.004-0.224-0.095 0-0.087 0.015-0.095 0.182-0.103l0.179-0.008-0.179-0.011c-0.175-0.015-0.182-0.023-0.182-0.129v-0.11h0.258c0.156 0 0.277 0.019 0.304 0.046zM32.236 25.615l0.099 0.266h-0.224c-0.122 0-0.224-0.008-0.224-0.019 0-0.049 0.201-0.513 0.224-0.513 0.011 0 0.068 0.118 0.125 0.266zM23.821 25.49c-0.011 0.091-0.030 0.106-0.152 0.118-0.137 0.011-0.144 0.008-0.144-0.103 0-0.114 0.008-0.118 0.156-0.118 0.144 0 0.152 0.004 0.141 0.103zM26.619 25.448c0.061 0.156 0.038 0.167-0.376 0.167h-0.399v-0.228h0.376c0.308 0 0.38 0.011 0.399 0.061zM27.059 25.505c0 0.148-0.114 0.141-0.156-0.015-0.023-0.091-0.019-0.103 0.065-0.103 0.076 0 0.091 0.019 0.091 0.118zM29.997 25.471c0.030 0.11 0.004 0.144-0.11 0.144-0.076 0-0.091-0.019-0.091-0.114s0.015-0.114 0.091-0.114c0.061 0 0.099 0.027 0.11 0.084zM23.829 25.748c0 0.084-0.015 0.095-0.152 0.095s-0.152-0.011-0.152-0.095c0-0.087 0.015-0.095 0.152-0.095s0.152 0.008 0.152 0.095zM25.577 25.748v0.095h-0.912v-0.19h0.912v0.095zM26.679 25.748c0 0.103 0.015 0.099-0.418 0.099s-0.418 0.004-0.418-0.099v-0.095h0.836v0.095zM27.059 25.748c0 0.061-0.023 0.095-0.057 0.095s-0.057-0.034-0.057-0.095c0-0.061 0.023-0.095 0.057-0.095s0.057 0.034 0.057 0.095zM28.846 25.748v0.095h-0.931v-0.19h0.931v0.095zM24.574 25.862c0.046 0.046 0.16 0.057 0.528 0.057h0.467l0.015 0.095 0.019 0.095h-0.524c-0.327 0-0.528 0.015-0.528 0.038s0.201 0.038 0.528 0.038c0.483 0 0.528 0.008 0.517 0.065-0.008 0.038-0.015 0.080-0.015 0.095-0.004 0.019-0.19 0.030-0.422 0.030-0.35 0-0.418-0.011-0.418-0.057 0-0.053-0.011-0.053-0.091 0-0.065 0.042-0.16 0.057-0.315 0.049-0.194-0.011-0.22-0.023-0.232-0.099-0.011-0.068 0.004-0.084 0.084-0.084 0.053 0 0.099-0.019 0.099-0.038 0-0.023-0.042-0.038-0.095-0.038-0.076 0-0.095-0.019-0.095-0.095 0-0.080 0.019-0.095 0.114-0.095 0.065 0 0.114-0.015 0.114-0.034 0-0.015-0.042-0.027-0.095-0.023-0.053 0.008-0.103-0.004-0.118-0.023-0.038-0.061 0.403-0.038 0.464 0.023zM27.842 25.862c0.019 0.046 0.114 0.057 0.513 0.057h0.49v0.19h-0.498c-0.319 0-0.486 0.015-0.471 0.038s0.224 0.038 0.498 0.038c0.471 0 0.475 0 0.464 0.084s-0.027 0.087-0.445 0.099c-0.376 0.008-0.429 0.004-0.41-0.049 0.027-0.065-0.015-0.076-0.068-0.023-0.046 0.046-0.483 0.065-0.543 0.027-0.103-0.065-0.046-0.137 0.106-0.137 0.084 0 0.152-0.019 0.152-0.038 0-0.023-0.068-0.038-0.152-0.038-0.137 0-0.152-0.011-0.152-0.095 0-0.087 0.015-0.095 0.152-0.095 0.084 0 0.152-0.015 0.152-0.034s-0.061-0.030-0.137-0.027c-0.076 0.004-0.144-0.008-0.152-0.023-0.011-0.019 0.091-0.030 0.232-0.030 0.186 0 0.255 0.015 0.27 0.057zM27.059 26.018c0 0.072-0.019 0.091-0.095 0.091-0.065 0-0.087-0.015-0.076-0.057 0.011-0.030 0.027-0.084 0.038-0.114 0.027-0.087 0.133-0.023 0.133 0.080zM23.829 26.014c0 0.084-0.015 0.095-0.152 0.095s-0.152-0.011-0.152-0.095c0-0.087 0.015-0.095 0.152-0.095s0.152 0.008 0.152 0.095zM26.626 25.98c-0.011 0.034-0.023 0.076-0.023 0.095s-0.171 0.034-0.38 0.034h-0.38v-0.19h0.403c0.353 0 0.399 0.008 0.38 0.061zM23.829 26.28c0 0.087-0.011 0.095-0.194 0.095-0.163 0-0.19-0.011-0.171-0.061 0.011-0.034 0.023-0.076 0.023-0.095s0.076-0.034 0.171-0.034c0.156 0 0.171 0.008 0.171 0.095zM26.527 26.204c0 0.042-0.323 0.171-0.429 0.171-0.137 0-0.255-0.061-0.255-0.133 0-0.046 0.068-0.057 0.342-0.057 0.19 0 0.342 0.008 0.342 0.019zM27.059 26.28c0 0.087-0.015 0.095-0.171 0.095h-0.171l0.061-0.095c0.042-0.065 0.095-0.095 0.171-0.095 0.091 0 0.11 0.015 0.11 0.095z"></path>
<path d="M15.897 24.771c0.057 0.061 0.065 0.179 0.065 0.882s-0.008 0.821-0.065 0.882c-0.057 0.065-0.046 0.068 0.399 0.068 0.251 0 0.505-0.019 0.566-0.042 0.376-0.141 0.46-0.646 0.144-0.897l-0.129-0.103 0.091-0.091c0.163-0.163 0.167-0.456 0.008-0.608-0.137-0.129-0.277-0.16-0.718-0.16-0.407 0-0.418 0.004-0.361 0.068zM16.726 25.011c0.103 0.103 0.084 0.289-0.042 0.38-0.053 0.038-0.167 0.076-0.255 0.087l-0.163 0.019v-0.566h0.19c0.141 0 0.209 0.019 0.27 0.080zM16.813 25.851c0.091 0.099 0.103 0.141 0.084 0.255-0.030 0.201-0.144 0.277-0.399 0.262l-0.213-0.011-0.011-0.281c-0.008-0.156-0.004-0.3 0.008-0.327 0.008-0.030 0.087-0.038 0.22-0.030 0.167 0.011 0.22 0.034 0.312 0.133z"></path>
<path d="M23.305 24.802c0.034 0.030 0.943 0.038 0.943 0.004 0-0.015-0.217-0.027-0.483-0.027-0.262 0-0.471 0.011-0.46 0.023z"></path>
<path d="M24.486 24.806c0.030 0.030 1.053 0.023 1.083-0.008 0.011-0.011-0.232-0.019-0.543-0.019s-0.551 0.011-0.54 0.027z"></path>
<path d="M25.813 24.798c0.027 0.027 1.858 0.027 1.885 0 0.011-0.011-0.414-0.019-0.943-0.019s-0.954 0.008-0.943 0.019z"></path>
<path d="M33.064 25.627c0 0.578-0.011 0.821-0.046 0.855s0.008 0.046 0.198 0.046c0.22 0 0.236-0.004 0.167-0.053-0.065-0.049-0.072-0.114-0.087-0.551-0.004-0.274 0.004-0.498 0.019-0.494 0.019 0 0.274 0.266 0.562 0.585 0.293 0.323 0.54 0.578 0.551 0.566s0.023-0.38 0.023-0.821c0-0.608 0.011-0.806 0.049-0.817 0.114-0.042 0.027-0.080-0.182-0.084l-0.228-0.004 0.057 0.091c0.046 0.072 0.057 0.186 0.049 0.562l-0.011 0.475-0.532-0.581c-0.293-0.323-0.543-0.585-0.559-0.585-0.019 0-0.030 0.365-0.030 0.809z"></path>
<path d="M35.211 24.859c-0.426 0.099-0.696 0.597-0.589 1.079 0.114 0.505 0.608 0.775 1.144 0.627 0.114-0.030 0.144-0.061 0.163-0.16 0.030-0.156 0.011-0.167-0.144-0.091-0.19 0.091-0.479 0.080-0.631-0.027-0.281-0.19-0.361-0.661-0.163-0.969 0.171-0.262 0.502-0.346 0.783-0.201 0.16 0.084 0.194 0.057 0.171-0.129-0.011-0.091-0.030-0.106-0.163-0.118-0.084-0.008-0.213-0.019-0.285-0.030-0.072-0.008-0.201 0-0.285 0.019z"></path>
<path d="M18.888 25.661c0 0.505-0.015 0.832-0.038 0.848-0.091 0.057-0.023 0.095 0.167 0.095h0.209l-0.057-0.106c-0.057-0.11-0.080-1-0.023-0.992 0.015 0 0.258 0.255 0.54 0.566s0.524 0.566 0.54 0.566c0.015 0.004 0.030-0.365 0.038-0.813 0.008-0.68 0.023-0.825 0.068-0.855 0.038-0.027-0.015-0.038-0.182-0.038h-0.239l0.057 0.084c0.049 0.068 0.061 0.19 0.061 0.562v0.475l-0.201-0.209c-0.11-0.114-0.365-0.388-0.566-0.608l-0.372-0.399v0.825z"></path>
<path d="M36.105 24.889c0 0.023 0.019 0.049 0.038 0.061 0.057 0.034 0.049 1.475-0.008 1.532-0.053 0.053-0.087 0.049 0.483 0.046 0.486-0.004 0.513-0.015 0.513-0.201 0-0.103-0.004-0.106-0.084-0.049-0.053 0.038-0.167 0.061-0.304 0.061-0.205 0-0.224-0.008-0.262-0.103-0.019-0.057-0.034-0.179-0.027-0.274l0.011-0.175 0.201-0.011c0.141-0.008 0.236 0.008 0.296 0.049l0.091 0.057v-0.209c0-0.209-0.023-0.247-0.103-0.167-0.027 0.027-0.144 0.046-0.266 0.049l-0.22 0.004-0.011-0.239-0.011-0.236h0.289c0.163 0 0.285 0.015 0.285 0.038 0 0.019 0.019 0.038 0.038 0.038 0.023 0 0.038-0.068 0.038-0.152v-0.152h-0.494c-0.285 0-0.494 0.015-0.494 0.034z"></path>
<path d="M17.6 25.547c-0.156 0.361-0.327 0.749-0.388 0.855l-0.103 0.201h0.201c0.186 0 0.198-0.004 0.182-0.087-0.008-0.046 0.011-0.148 0.046-0.228l0.057-0.141h0.638l0.065 0.171c0.053 0.137 0.057 0.182 0.019 0.228-0.042 0.049-0.019 0.057 0.186 0.057 0.243 0 0.266-0.015 0.179-0.11-0.030-0.034-0.171-0.319-0.312-0.631-0.137-0.315-0.293-0.661-0.342-0.771-0.049-0.106-0.103-0.198-0.122-0.198-0.015 0-0.156 0.296-0.308 0.654zM18.113 25.862c0.023 0.091 0.019 0.095-0.19 0.095-0.239 0-0.251-0.015-0.152-0.251 0.034-0.084 0.080-0.19 0.099-0.243 0.038-0.091 0.042-0.087 0.129 0.106 0.049 0.106 0.099 0.239 0.114 0.293z"></path>
<path d="M20.903 24.943c-0.224 0.118-0.304 0.198-0.399 0.38-0.163 0.331-0.106 0.809 0.125 1.064 0.106 0.122 0.331 0.213 0.566 0.239 0.144 0.015 0.319 0.072 0.505 0.167 0.296 0.148 0.384 0.152 0.49 0.023 0.042-0.053 0.042-0.061-0.011-0.061-0.087 0-0.441-0.182-0.441-0.228 0-0.019 0.034-0.053 0.076-0.076 0.129-0.068 0.27-0.361 0.293-0.604 0.038-0.414-0.194-0.821-0.524-0.916-0.182-0.053-0.566-0.046-0.68 0.011zM21.549 25.171c0.118 0.057 0.258 0.262 0.289 0.429 0.046 0.243-0.015 0.467-0.171 0.635-0.125 0.133-0.167 0.156-0.35 0.167-0.171 0.015-0.228 0.004-0.334-0.072-0.194-0.133-0.277-0.27-0.3-0.483-0.053-0.559 0.388-0.901 0.866-0.677z"></path>
<path d="M23.422 26.706c0.141 0.008 0.369 0.008 0.513 0 0.141-0.008 0.023-0.011-0.258-0.011s-0.399 0.004-0.255 0.011z"></path>
<path d="M24.695 26.706c0.148 0.008 0.399 0.008 0.551 0 0.148-0.004 0.027-0.011-0.277-0.011s-0.426 0.008-0.274 0.011z"></path>
<path d="M26.231 26.706c0.266 0.008 0.711 0.008 0.988 0 0.277-0.004 0.061-0.011-0.483-0.011s-0.771 0.008-0.505 0.011z"></path>
<path d="M28.268 26.706c0.148 0.008 0.399 0.008 0.551 0 0.148-0.004 0.027-0.011-0.277-0.011s-0.426 0.008-0.274 0.011z"></path>
<path d="M29.541 26.706c0.141 0.008 0.369 0.008 0.513 0 0.141-0.008 0.023-0.011-0.258-0.011s-0.399 0.004-0.255 0.011z"></path>
<path d="M23.069 26.934c0 0.019 0.16 0.027 0.35 0.019 0.638-0.019 0.703-0.030 0.175-0.038-0.289-0.004-0.524 0.004-0.524 0.019z"></path>
<path d="M24.369 26.93c0.034 0.030 1.057 0.038 1.057 0.004 0-0.015-0.243-0.027-0.54-0.027s-0.528 0.011-0.517 0.023z"></path>
<path d="M25.737 26.93c0.030 0.027 0.943 0.027 0.973 0 0.011-0.011-0.209-0.023-0.486-0.023s-0.498 0.011-0.486 0.023z"></path>
<path d="M26.991 26.934c0.141 0.008 0.38 0.008 0.532 0 0.152-0.004 0.038-0.011-0.255-0.011s-0.418 0.004-0.277 0.011z"></path>
<path d="M28.055 26.926c0.030 0.030 1.053 0.034 1.083 0.004 0.011-0.011-0.228-0.023-0.54-0.023s-0.555 0.008-0.543 0.019z"></path>
<path d="M29.655 26.934c0.141 0.008 0.369 0.008 0.513 0 0.141-0.008 0.023-0.011-0.258-0.011s-0.399 0.004-0.255 0.011z"></path>
<path d="M23.118 27.2c0.16 0.008 0.426 0.008 0.589 0 0.16-0.004 0.027-0.011-0.296-0.011s-0.456 0.008-0.293 0.011z"></path>
<path d="M24.524 27.2c0.163 0.008 0.418 0.008 0.57 0 0.152-0.004 0.019-0.011-0.296-0.011-0.312 0-0.437 0.008-0.274 0.011z"></path>
<path d="M25.889 27.2c0.141 0.008 0.38 0.008 0.532 0 0.152-0.004 0.038-0.011-0.255-0.011s-0.418 0.004-0.277 0.011z"></path>
<path d="M27.071 27.2c0.141 0.008 0.369 0.008 0.513 0 0.141-0.008 0.023-0.011-0.258-0.011s-0.399 0.004-0.255 0.011z"></path>
<path d="M28.401 27.2c0.163 0.008 0.418 0.008 0.57 0 0.152-0.004 0.019-0.011-0.296-0.011-0.312 0-0.437 0.008-0.274 0.011z"></path>
<path d="M29.807 27.2c0.163 0.008 0.418 0.008 0.57 0 0.152-0.004 0.019-0.011-0.296-0.011-0.312 0-0.437 0.008-0.274 0.011z"></path>
<path d="M24.703 27.439l-0.551 0.023 0.562 0.008c0.353 0.004 0.559-0.008 0.559-0.030s-0.004-0.034-0.008-0.030c-0.008 0.004-0.258 0.019-0.562 0.030z"></path>
<path d="M22.852 27.466c0.182 0.008 0.475 0.008 0.646 0 0.171-0.004 0.023-0.011-0.334-0.011-0.353 0-0.494 0.008-0.312 0.011z"></path>
<path d="M25.813 27.466c0.141 0.008 0.38 0.008 0.532 0 0.152-0.004 0.038-0.011-0.255-0.011s-0.418 0.004-0.277 0.011z"></path>
<path d="M27.105 27.466c0.141 0.008 0.38 0.008 0.532 0 0.152-0.004 0.038-0.011-0.255-0.011s-0.418 0.004-0.277 0.011z"></path>
<path d="M28.515 27.466c0.163 0.008 0.418 0.008 0.57 0 0.152-0.004 0.019-0.011-0.296-0.011-0.312 0-0.437 0.008-0.274 0.011z"></path>
<path d="M29.997 27.466c0.182 0.008 0.475 0.008 0.646 0 0.171-0.004 0.023-0.011-0.334-0.011-0.353 0-0.494 0.008-0.312 0.011z"></path>
<path d="M24.019 27.705c0 0.049 1.026 0.049 1.102 0 0.038-0.023-0.133-0.038-0.521-0.038-0.365 0-0.581 0.015-0.581 0.038z"></path>
<path d="M25.501 27.705c0 0.023 0.198 0.038 0.513 0.038s0.513-0.015 0.513-0.038c0-0.023-0.198-0.038-0.513-0.038s-0.513 0.015-0.513 0.038z"></path>
<path d="M26.945 27.705c0 0.023 0.201 0.038 0.532 0.038s0.532-0.015 0.532-0.038c0-0.023-0.201-0.038-0.532-0.038s-0.532 0.015-0.532 0.038z"></path>
<path d="M28.333 27.702c0.027 0.049 1.121 0.049 1.121 0 0-0.019-0.239-0.034-0.574-0.034-0.346 0-0.562 0.015-0.547 0.034z"></path>
<path d="M24.163 27.96c0.175 0.008 0.448 0.008 0.608 0 0.16-0.004 0.019-0.011-0.315-0.011s-0.467 0.008-0.293 0.011z"></path>
<path d="M25.646 27.96c0.148 0.008 0.399 0.008 0.551 0 0.148-0.004 0.027-0.011-0.277-0.011s-0.426 0.008-0.274 0.011z"></path>
<path d="M27.28 27.96c0.148 0.008 0.399 0.008 0.551 0 0.148-0.004 0.027-0.011-0.277-0.011s-0.426 0.008-0.274 0.011z"></path>
<path d="M28.724 27.96c0.175 0.008 0.448 0.008 0.608 0 0.16-0.004 0.019-0.011-0.315-0.011s-0.467 0.008-0.293 0.011z"></path>
<path d="M24.011 28.226c0.171 0.008 0.452 0.008 0.627 0 0.171-0.004 0.030-0.011-0.315-0.011s-0.486 0.008-0.312 0.011z"></path>
<path d="M25.551 28.226c0.163 0.008 0.418 0.008 0.57 0 0.152-0.004 0.019-0.011-0.296-0.011-0.312 0-0.437 0.008-0.274 0.011z"></path>
<path d="M27.375 28.226c0.163 0.008 0.418 0.008 0.57 0 0.152-0.004 0.019-0.011-0.296-0.011-0.312 0-0.437 0.008-0.274 0.011z"></path>
<path d="M28.876 28.226c0.175 0.008 0.448 0.008 0.608 0 0.16-0.004 0.019-0.011-0.315-0.011s-0.467 0.008-0.293 0.011z"></path>
<path d="M25.691 28.466l-0.551 0.023 0.562 0.008c0.353 0.004 0.559-0.008 0.559-0.030s-0.004-0.034-0.008-0.030c-0.008 0.004-0.258 0.019-0.562 0.030z"></path>
<path d="M27.257 28.473c-0.034 0.015 0.186 0.027 0.498 0.027 0.308 0.004 0.559-0.008 0.559-0.027 0-0.034-0.965-0.034-1.057 0z"></path>
<path d="M28.743 28.473c-0.008 0.019 0.262 0.027 0.604 0.023 0.631-0.008 0.566-0.023-0.171-0.038-0.228-0.008-0.422 0-0.433 0.015z"></path>
<path d="M23.821 28.492c0.171 0.008 0.452 0.008 0.627 0 0.171-0.004 0.030-0.011-0.315-0.011s-0.486 0.008-0.312 0.011z"></path>
<path d="M25.045 28.728c0 0.019 0.247 0.038 0.551 0.038 0.353 0.004 0.551-0.008 0.551-0.034 0-0.023-0.198-0.038-0.551-0.038-0.308 0-0.551 0.015-0.551 0.034z"></path>
<path d="M27.344 28.732c0.030 0.049 1.121 0.046 1.121-0.004 0-0.019-0.255-0.034-0.574-0.034-0.38 0-0.562 0.011-0.547 0.038z"></path>
<path d="M25.171 28.986c0.16 0.008 0.426 0.008 0.589 0 0.16-0.004 0.027-0.011-0.296-0.011s-0.456 0.008-0.293 0.011z"></path>
<path d="M27.717 28.986c0.16 0.008 0.426 0.008 0.589 0 0.16-0.004 0.027-0.011-0.296-0.011s-0.456 0.008-0.293 0.011z"></path>
<path d="M25.038 29.252c0.175 0.008 0.448 0.008 0.608 0 0.16-0.004 0.019-0.011-0.315-0.011s-0.467 0.008-0.293 0.011z"></path>
<path d="M27.85 29.252c0.171 0.008 0.452 0.008 0.627 0 0.171-0.004 0.030-0.011-0.315-0.011s-0.486 0.008-0.312 0.011z"></path>
<path d="M24.848 29.518c0.171 0.008 0.452 0.008 0.627 0 0.171-0.004 0.030-0.011-0.315-0.011s-0.486 0.008-0.312 0.011z"></path>
<path d="M27.983 29.518c0.182 0.008 0.475 0.008 0.646 0 0.171-0.004 0.023-0.011-0.334-0.011-0.353 0-0.494 0.008-0.312 0.011z"></path>
<path d="M29.362 30.21c-0.027 0.038 0.027 0.084 0.198 0.171 0.148 0.076 0.156 0.034 0.015-0.103-0.11-0.106-0.179-0.129-0.213-0.068z"></path>
<path d="M24.521 30.522c-0.353 0.072-0.543 0.566-0.338 0.874 0.236 0.357 0.733 0.338 0.95-0.034 0.087-0.152 0.095-0.471 0.008-0.6-0.122-0.186-0.388-0.289-0.619-0.239zM24.802 30.689c0.266 0.11 0.315 0.528 0.084 0.722-0.255 0.217-0.6 0.046-0.6-0.3 0-0.228 0.068-0.365 0.209-0.426 0.144-0.065 0.148-0.065 0.308 0.004z"></path>
<path d="M21.093 30.617c0.057 0.141 0.049 0.901-0.008 0.958-0.034 0.034 0.027 0.046 0.285 0.046 0.182 0 0.331-0.015 0.331-0.034s0.008-0.057 0.019-0.087c0.015-0.038-0.030-0.049-0.198-0.049h-0.22l-0.011-0.167-0.011-0.163 0.19 0.011c0.186 0.015 0.194 0.011 0.194-0.080s-0.008-0.095-0.19-0.084l-0.19 0.015v-0.312h0.186c0.114 0 0.194 0.019 0.205 0.046s0.023-0.008 0.023-0.076l0.004-0.122h-0.646l0.038 0.099z"></path>
<path d="M21.944 30.601c0.011 0.049 0.030 0.258 0.046 0.464 0.019 0.338 0.034 0.384 0.122 0.464 0.141 0.137 0.452 0.129 0.593-0.008 0.095-0.099 0.099-0.118 0.099-0.505 0-0.266 0.015-0.422 0.046-0.452 0.034-0.034 0.011-0.046-0.114-0.046-0.152 0-0.156 0.004-0.122 0.099 0.053 0.133 0.049 0.65-0.004 0.749-0.087 0.163-0.251 0.19-0.38 0.061-0.072-0.072-0.076-0.114-0.065-0.494l0.011-0.414h-0.125c-0.106 0-0.122 0.011-0.106 0.084z"></path>
<path d="M23.126 30.601c0.038 0.156 0.046 0.886 0.011 0.95-0.030 0.061-0.011 0.068 0.129 0.068 0.125 0 0.148-0.011 0.114-0.046-0.065-0.065-0.065-0.904 0.004-0.908 0.194-0.019 0.3 0.053 0.285 0.19-0.011 0.084-0.057 0.125-0.251 0.22-0.008 0 0.068 0.125 0.167 0.274 0.152 0.228 0.194 0.27 0.289 0.27h0.106l-0.167-0.232-0.171-0.236 0.11-0.103c0.122-0.114 0.141-0.205 0.072-0.357-0.057-0.122-0.213-0.175-0.498-0.175-0.209 0-0.22 0.004-0.201 0.084z"></path>
<path d="M25.497 30.628c-0.061 0.061-0.11 0.144-0.11 0.186 0 0.11 0.148 0.274 0.3 0.338 0.289 0.122 0.357 0.281 0.152 0.369-0.152 0.065-0.243 0.042-0.338-0.084l-0.076-0.095v0.118c0 0.129 0.049 0.16 0.27 0.16 0.171 0 0.357-0.080 0.391-0.171 0.084-0.22-0.015-0.369-0.327-0.505-0.144-0.061-0.182-0.099-0.182-0.167 0-0.118 0.068-0.182 0.19-0.182 0.114 0 0.163 0.030 0.22 0.133 0.038 0.068 0.042 0.065 0.046-0.042 0-0.137-0.049-0.167-0.274-0.167-0.114 0-0.175 0.027-0.262 0.11z"></path>
<path d="M26.421 30.791c0.16 0.22 0.201 0.312 0.22 0.471 0.011 0.11 0.008 0.236-0.008 0.277-0.023 0.072-0.011 0.080 0.095 0.080h0.122l-0.011-0.255-0.008-0.258 0.209-0.277c0.114-0.152 0.209-0.281 0.209-0.289 0-0.004-0.061-0.011-0.133-0.015-0.091-0.004-0.133 0.011-0.133 0.049 0 0.061-0.198 0.395-0.232 0.399-0.034 0-0.285-0.391-0.27-0.426 0.004-0.019-0.053-0.030-0.125-0.030h-0.133l0.198 0.274z"></path>
<path d="M27.534 30.563c-0.118 0.065-0.171 0.148-0.171 0.277 0 0.144 0.099 0.247 0.353 0.353 0.141 0.061 0.179 0.099 0.179 0.167 0 0.129-0.068 0.182-0.232 0.182-0.11 0-0.16-0.023-0.22-0.106l-0.076-0.103-0.004 0.118c0 0.141 0.046 0.167 0.3 0.167 0.243 0 0.384-0.106 0.384-0.289 0-0.19-0.049-0.262-0.236-0.338-0.201-0.080-0.296-0.16-0.296-0.255 0-0.16 0.365-0.186 0.407-0.030 0.027 0.106 0.087 0.095 0.087-0.019 0-0.053-0.030-0.11-0.072-0.133-0.095-0.049-0.304-0.046-0.403 0.008z"></path>
<path d="M28.226 30.541c-0.015 0.015-0.027 0.057-0.027 0.095 0 0.053 0.027 0.061 0.156 0.046l0.152-0.023-0.011 0.483-0.011 0.479h0.228l-0.011-0.479-0.015-0.483 0.16 0.023c0.144 0.019 0.156 0.015 0.144-0.061-0.011-0.080-0.034-0.084-0.372-0.095-0.201-0.004-0.376 0-0.391 0.015z"></path>
<path d="M29.21 30.605c0.030 0.095 0.027 0.931-0.004 0.981-0.015 0.019 0.106 0.034 0.3 0.034 0.312 0 0.327-0.004 0.327-0.087 0-0.080-0.015-0.084-0.209-0.072l-0.209 0.015v-0.175c0-0.205 0.053-0.243 0.251-0.182l0.129 0.038v-0.137c0-0.106-0.011-0.125-0.046-0.091-0.027 0.027-0.11 0.046-0.19 0.046-0.144 0-0.144 0-0.144-0.156v-0.156l0.209 0.015c0.198 0.015 0.213 0.011 0.201-0.061s-0.038-0.080-0.327-0.084c-0.296-0.004-0.312 0-0.289 0.072z"></path>
<path d="M30.157 31.069v0.551h0.19l-0.008-0.35-0.011-0.353 0.16 0.312c0.091 0.175 0.179 0.315 0.201 0.315s0.106-0.137 0.19-0.304c0.080-0.163 0.156-0.293 0.167-0.285 0.011 0.004 0.015 0.16 0.004 0.338l-0.019 0.327h0.19v-0.551c0-0.498-0.008-0.551-0.065-0.551-0.046 0-0.125 0.118-0.262 0.388l-0.194 0.384-0.209-0.384c-0.296-0.559-0.334-0.54-0.334 0.163z"></path>
<path d="M31.548 30.601c0.053 0.099 0.042 0.92-0.011 0.973-0.034 0.034 0.027 0.046 0.281 0.046 0.312 0 0.327-0.004 0.342-0.087 0.015-0.087 0.011-0.091-0.171-0.072-0.213 0.019-0.255-0.015-0.255-0.213 0-0.148 0.057-0.179 0.243-0.129l0.137 0.038-0.004-0.137c0-0.076-0.011-0.118-0.023-0.095-0.011 0.030-0.087 0.049-0.186 0.049h-0.167v-0.304h0.186c0.114 0 0.194 0.019 0.205 0.046s0.023-0.008 0.023-0.076l0.004-0.122-0.319 0.008c-0.285 0.011-0.315 0.019-0.285 0.076z"></path>
</svg>
