<!-- Generated by IcoMoon.io -->
<svg version="1.1" xmlns="http://www.w3.org/2000/svg" width="43" height="32" viewBox="0 0 43 32">
<title>ZAR</title>
<path fill="#000" d="M-0 25.49v-18.963l14.114 9.477-14.114 9.487z"></path>
<path fill="#00c" d="M9.63 32.008l15.846-10.665h22.523v10.665h-38.369z"></path>
<path fill="#f00" d="M8.612 0.005l39.386 0.001v10.667h-22.523s-16.652-10.773-16.863-10.668z"></path>
<path fill="#fc0" d="M-0 4.005v2.521l14.114 9.476-14.114 9.487v2.52l17.777-12.007-17.777-11.997z"></path>
<path fill="#093" d="M-0 4.005v-4.001h5.931l18.832 12.742h23.236v6.516h-23.236l-18.832 12.74h-5.931v-3.994l17.777-12.007-17.777-11.997z"></path>
<path fill="#fff" d="M5.93 0.005h3.7l15.846 10.667h22.523v2.075h-23.236l-18.832-12.742zM5.93 32.008h3.7l15.846-10.665h22.523v-2.075h-23.236l-18.832 12.74z"></path>
</svg>
