<!-- Generated by IcoMoon.io -->
<svg version="1.1" xmlns="http://www.w3.org/2000/svg" width="43" height="32" viewBox="0 0 43 32">
<title>ZMK</title>
<path fill="#198a00" d="M-5.333 0h48v32h-48z"></path>
<path fill="#ef7d00" d="M37.034 11.496h5.633v20.502h-5.633z"></path>
<path fill="#000" d="M31.407 11.486h5.627v20.506h-5.627z"></path>
<path fill="#de2010" d="M25.664 11.499h5.746v20.501h-5.746z"></path>
<path fill="#ef7d00" d="M38.892 4.099s2.12-0.906 2.325-1.093c0.093 0.112-0.85 1.251-2.68 1.672 1.662-0.392 3.082-1.625 3.371-1.587 0.084 0.019 0.065 1.205-3.745 2.232 2.633-0.691 4.165-1.961 4.146-1.821 0.019 0.028-0.261 0.999-2.568 1.756 0.644-0.149 2.391-1.214 2.372-1.009 0.056 0.084-1.69 2.325-4.846 1.597 2.521 0.654 4.155-0.925 4.389-0.896 0.047 0.009-0.467 1.382-3.642 1.466 1.522-0.159 1.083-0.009 1.083-0.009s-0.896 0.7-1.98 0.224c0.85 0.234 0.943 0.243 0.962 0.317-0.056 0.093-0.756 0.233-1.429-0.131 0.542 0.224 1.027 0.261 1.036 0.346-0.009 0.028-0.355 0.224-0.663 0.084s-3.147-1.886-3.147-1.886l4.837-1.326 0.177 0.065zM33.206 8.823c-0.425 0-0.437 0.379-0.437 0.379s-0.035 0.027-0.012 0.211c0.070-0.125 0.105-0.164 0.105-0.164 0.047 0.008 0.242 0.066 0.55-0.176-0.281 0.293-0.113 0.402-0.113 0.402s-0.066 0.23 0.148 0.277c-0.066-0.094-0.027-0.176-0.027-0.176s0.3-0.031 0.281-0.398c0.012 0.332 0.191 0.414 0.191 0.414s0 0.183 0.195 0.199c-0.105-0.094-0.082-0.238-0.082-0.238s0.254-0.183 0.039-0.496c0.129-0.074 0.234-0.281 0.234-0.281s-0.176-0.074-0.258-0.137c-0.039-0.082-0.004-0.531-0.004-0.531l-0.105-0.582-0.301 0.905c0.012-0.129 0.020 0.39-0.406 0.39z"></path>
<path fill="#ef7d00" d="M35.306 7.517c0.009 0.009 0.318 0.355 0.616 0.336 0.112-0.093-0.233-0.299-0.233-0.346 0.121 0.112 0.635 0.551 0.962 0.392 0.131-0.187-0.233-0.159-0.635-0.663 0.28 0.187 0.98 0.598 1.307 0.439 0.14-0.149-0.728-0.616-1.018-0.981l-0.747-0.383-1.018 0.831 0.766 0.373z"></path>
<path fill="#ef7d00" d="M34.158 4.678s0.346-0.205 1.728-0.103c0.149 0.019 0.943-0.271 1.195-0.355 0.401-0.075 1.681-0.355 2.026-0.616 0.243-0.028-0.065 0.448-0.373 0.56-0.327 0.149-1.513 0.56-1.933 0.504 0.504 0.009 0.224 0.42-0.616 0.224 0.402 0.224 0.252 0.261 0.252 0.261s-0.71 0.037-0.896-0.121c0.476 0.177 0.28 0.243 0.28 0.243s-0.486 0.047-0.71-0.056c0.346 0.103 0.168 0.168 0.168 0.168s-0.28 0.047-0.514-0.037c-0.233-0.084-0.588-0.672-0.607-0.672z"></path>
<path fill="#ef7d00" d="M34.712 7.711l0.051 0.913s-0.027 0.047-0.051 0.074c-0.023 0.027-0.648-0.098-0.562 0.379 0 0.195 0.004 0.246 0.137 0.355-0.035-0.129-0.023-0.219-0.023-0.219s0.176 0.105 0.347-0.183c-0.117 0.285-0.035 0.386-0.008 0.394 0.027 0.051-0.047 0.281 0.187 0.277-0.090-0.086-0.047-0.211-0.047-0.211s0.246-0.039 0.16-0.484c0.090-0.090 0.125-0.004 0.125-0.004s0.027 0.265 0.242 0.211c0.098 0.055-0.016 0.199-0.016 0.199s0.156 0.004 0.203-0.129c0.047-0.133 0.102-0.371-0.156-0.468-0.031-0.094 0.102-0.101 0.102-0.101s0.164 0.055 0.211 0.137c0.047 0.082 0.031-0.215-0.172-0.246-0.25-0.008-0.265-0.059-0.265-0.070s-0.043-0.663-0.063-0.851l-0.402 0.027z"></path>
<path fill="#ef7d00" d="M35.581 8.489c0.003-0.042-0.426-0.62-0.317-0.694 0.109 0.022 0.287 0.285 0.432 0.2-0.044-0.102-0.173-0.045-0.32-0.307-0.147-0.296-0.168-0.742-0.682-1.227 0.333 0.514 1.087 0.815 1.119 0.665s-0.664-0.716-0.629-0.853c0.138 0.28 0.837 0.905 1.352 0.853 0.035-0.12-0.422-0.363-0.539-0.59-0.329-0.221-1.209-0.98-1.227-1.156-0.32-0.467-0.52-0.609-0.614-0.662-0.036-0.042-0.045-0.083-0.052-0.109-0.199-0.469 0.065-0.621 0.219-0.644 0.127-0.014 0.164 0.005 0.255-0.039-0.108-0.042-0.216-0.082-0.324-0.124 0.141 0.103 0.501 0.012 0.423 0.31 0.158-0.060 0.494-0.46-0.381-0.55-0.285-0.326-1.454-0.514-1.747 0.911 0.023 0.020 0.036 0.036 0.11 0.092-0.37-0.179-1.366-0.317-1.725-0.375-0.97-0.28-1.978-0.954-2.075-0.872-0.13 0.058 0.586 0.723 0.549 0.738-0.621-0.362-1.188-0.618-1.715-0.852-0.371-0.139-0.743-0.462-0.784-0.4-0.137 0.283 0.595 0.994 0.731 1.078 0.136 0.080 1.206 0.577 1.191 0.583-1.612-0.732-1.882-0.864-1.963-0.949-0.142-0.032-0.488-0.499-0.585-0.469-0.053 0.052 0.053 0.79 0.822 1.122 0.125 0.091 1.649 0.638 1.634 0.681-0.004 0.011-1.745-0.719-1.813-0.745-0.336-0.132-0.748-0.593-0.825-0.541-0.073 0.047 0.19 0.547 0.529 0.703 0.178 0.079 0.86 0.416 1.474 0.631 0.039 0.014-1.105-0.434-1.654-0.664-0.249-0.138-0.367-0.311-0.405-0.274-0.056 0.037 0.091 0.775 1.858 1.191 0.047 0.020 0.622-0.136 0.594-0.116-0.007 0.005-0.572 0.128-0.626 0.124-0.049-0.008-0.358 0.037-0.364 0.053-0.019 0.050 0.112 0.314 1.024 0.259 0.117-0.007 0.75-0.231 0.697-0.183-0.027 0.024-0.862 0.296-0.926 0.301-0.055 0.008-0.349 0.038-0.36 0.070-0.013 0.043 0.217 0.231 0.707 0.261 0.434 0.023 1.258-0.265 1.242-0.246s-0.795 0.285-0.815 0.302c-0.028 0.016-0.313 0.031-0.323 0.053-0.023 0.054 0.411 0.461 1.695 0.027-0.129 0.174-0.752 0.293-0.751 0.325-0.003 0.023 0.137 0.158 0.355 0.207 0.109 0.024 0.258 0.019 0.394-0.002 0.244-0.049 0.502-0.146 0.829-0.448 0.039 0.095-0.818 0.529-0.777 0.57 0.186 0.172 0.803-0.022 0.843-0.045s1.188-0.67 1.184-0.745c0.018 0.096-1.48 0.91-1.464 0.943 0.096 0.153 0.608-0.008 0.632-0.022s0.653-0.354 0.67-0.364c0.017-0.010-0.739 0.442-0.671 0.511-0.033 0.294 1.181-0.203 1.276-0.265 0.048-0.031-0.583 0.277-0.584 0.423 0.203 0.343 0.853 0.234 0.953 0.159 0.050-0.038-0.059 0.255-0.024 0.228 0.012-0.005 0.141-0.158 0.191-0.269-0.016 0.096-0.087 0.247-0.129 0.42s-0.054 0.369-0.111 0.577c-0.013 0.091 0.4-0.178 0.34-0.823 0.035 0.335-0.131 0.962-0.087 0.995 0.087 0.065 0.327-0.312 0.351-0.567 0.071 0.129 0.221 0.398 0.35 0.46-0.014-0.195 0.002-0.186-0.056-0.378 0.033-0.255 0.038-0.607 0.046-1.005 0.35 0.67 0.49 0.954 0.392 1.467 0.104 0.043 0.27-0.358 0.257-0.565 0.134 0.575 0.711 0.661 0.72 0.644z"></path>
<path fill="#ef7d00" d="M29.751 4.232s-0.238 0.18-0.535 0.169c0.074 0.296 0.688 0.069 0.688 0.069s-0.296 0.328-0.508 0.381c0.127 0.106 0.662 0.069 0.752 0.016s0.249-0.259 0.249-0.259-0.55 0.635-0.63 0.63c-0.011 0.074 0.577 0.048 0.699-0.064s0.429-0.275 0.429-0.275-0.805 0.561-0.842 0.561c0.302 0.079 0.905-0.095 1.292-0.333-0.572 0.381-0.625 0.45-0.916 0.577 0.259 0.058 0.392 0.233 1.27-0.148 0.503-0.238 0.789-0.672 0.789-0.672-0.312 0.418-0.805 0.773-1.35 1.122-0.032 0.064 0.582 0.323 1.366-0.492"></path>
<path fill="#ef7d00" d="M33.312 6.701s-0.062-0.089 0.048-0.42c0.099 0.12 0.21 0.145 0.258 0.194s0.556 0.122 0.588 0.461"></path>
<path fill="#ef7d00" d="M33.908 3.591c0-0.025-0.102-0.244-0.483 0.030 0.204 0.013 0.406 0.13 0.483-0.030z"></path>
<path fill="#ef7d00" d="M37.548 4.594c0.019 0.009 1.139 0.252 1.513 0.131-0.476 0.635-1.429 0.205-1.429 0.205 0.467 0.14 0.486 0.131 0.635 0.261 0.047 0.121-0.859 0.065-1.158-0.103 0.831 0.261 0.85 0.243 0.878 0.346 0.037 0.14-1.363-0.037-1.485-0.224 0.373 0.29 0.579 0.346 0.784 0.476-0.252 0.112-0.719 0.224-1.578-0.383 1.13 1.027 2.148 0.962 2.306 1.149-0.392 0.579-1.914-0.346-2.615-0.813s1.531 1.13 1.737 1.102c-0.103 0.159-0.84 0.019-0.887-0.056"></path>
<path fill="#ef7d00" d="M37.837 5.668c-0.131 0.019-0.523 0.019-0.579 0.009"></path>
<path fill="#ef7d00" d="M29.423 4.063s0.852 0.45 1.212 0.418c-0.095 0.090-0.238 0.127-0.238 0.127 0.090 0.037 0.339 0.169 0.715 0.085-0.090 0.090-0.206 0.191-0.206 0.191s0.323 0.122 0.688-0.069c-0.111 0.138-0.175 0.238-0.175 0.238l0.254 0.016"></path>
</svg>
