<!-- Generated by IcoMoon.io -->
<svg version="1.1" xmlns="http://www.w3.org/2000/svg" width="43" height="32" viewBox="0 0 43 32">
<title>ZML</title>
<path fill="#319208" d="M0 27.429h64v4.571h-64z"></path>
<path fill="#de2010" d="M0 18.286h64v4.571h-64z"></path>
<path fill="#ffd200" d="M0 22.857h64v4.571h-64z"></path>
<path fill="#de2010" d="M0 9.143h64v4.571h-64z"></path>
<path fill="#ffd200" d="M0 4.571h64v4.571h-64z"></path>
<path fill="#319208" d="M0 0h64v4.571h-64z"></path>
<path fill="#000" d="M1.806 0v32l21.486-16-21.486-16z"></path>
<path fill="#000" d="M0 0h1.829v32h-1.829z"></path>
<path fill="#000" d="M0 0v32l23.314-16-23.314-16z"></path>
<path fill="#000" d="M0 13.714h64v4.571h-64z"></path>
<path fill="#fff" d="M0 0v32l21.486-16-21.486-16z"></path>
<path fill="#d62419" d="M8.247 7.166l1.704 5.648 6.088 0.053-4.845 3.366 1.831 5.805-4.699-3.567-4.956 3.535 1.941-5.571-4.894-3.621 5.899 0.124z"></path>
<path fill="#f7df00" d="M3.128 10.389c0.104-0.187 0.124-0.29 0.663-0.518 0.705-2.052 2.508-1.244 3.503 1.596 0.912 0.394 6.363 4.456 6.28 4.684-0.041 0.207-0.726 0.041-0.726 0.041s-1.078 4.602-1.098 4.602c-2.011-0.269-5.141-0.311-7.276-0.269 0.021-0.352-0.58-2.653-0.58-2.653s-0.518-0.166 0.352-1.928c0.933-2.218 1.119-5.824-1.119-5.555z"></path>
</svg>
